<svg id="_021---Housing-Rates" data-name="021---Housing-Rates" xmlns="http://www.w3.org/2000/svg" width="73.333" height="100" viewBox="0 0 73.333 100">
  <g id="Icons" transform="translate(1.663 1.667)">
    <rect id="Rectangle-path" width="70" height="86.667" rx="3" transform="translate(0.004 10)" fill="#ff9800"/>
    <path id="Shape" d="M45.333,5v5H12V5a5,5,0,0,1,5-5H40.333A5,5,0,0,1,45.333,5Z" transform="translate(6.337)" fill="#afafaf"/>
    <path id="Shape-2" data-name="Shape" d="M40.667,6a10.567,10.567,0,0,1-2.4,6.667,13.883,13.883,0,0,1-10.933,5,13.883,13.883,0,0,1-10.933-5A10.567,10.567,0,0,1,14,6Z" transform="translate(7.67 4)" fill="#afafaf"/>
    <path id="Shape-3" data-name="Shape" d="M61.667,11.667v70A1.667,1.667,0,0,1,60,83.333H6.667A1.667,1.667,0,0,1,5,81.667v-70A1.667,1.667,0,0,1,6.667,10H22.4a13.883,13.883,0,0,0,10.933,5,13.883,13.883,0,0,0,10.933-5H60A1.667,1.667,0,0,1,61.667,11.667Z" transform="translate(1.67 6.667)" fill="#dee4f0"/>
    <path id="Shape-4" data-name="Shape" d="M9,63.333l.775-29.982L23.108,21.685,36.441,33.352l-.775,29.982Z" transform="translate(4.337 20)" fill="#ff9800"/>
    <path id="Shape-5" data-name="Shape" d="M18.333,43a3.333,3.333,0,0,1,3.333,3.333v8.333H15V46.333A3.333,3.333,0,0,1,18.333,43Z" transform="translate(8.337 28.667)" fill="#111e61"/>
    <line id="Línea_226" data-name="Línea 226" y2="10" transform="translate(21.91 52.833)" fill="none" stroke="#000" stroke-linecap="round" stroke-width="3"/>
    <line id="Línea_227" data-name="Línea 227" y2="10" transform="translate(30.91 52.833)" fill="none" stroke="#000" stroke-linecap="round" stroke-width="3"/>
    <line id="Línea_228" data-name="Línea 228" x2="9" transform="translate(21.91 57.833)" fill="none" stroke="#000" stroke-linecap="round" stroke-width="3"/>
  </g>
  <g id="Layer_10">
    <path id="Shape-6" data-name="Shape" d="M66.667,10H55V6.667A6.667,6.667,0,0,0,48.333,0H25a6.667,6.667,0,0,0-6.667,6.667V10H6.667A6.667,6.667,0,0,0,0,16.667V93.333A6.667,6.667,0,0,0,6.667,100h60a6.667,6.667,0,0,0,6.667-6.667V16.667A6.667,6.667,0,0,0,66.667,10Zm-45-3.333A3.333,3.333,0,0,1,25,3.333H48.333a3.333,3.333,0,0,1,3.333,3.333V10h-30ZM25,20a16.183,16.183,0,0,0,23.333,0h15V90H10V20Zm21.333-2.7a12.8,12.8,0,0,1-19.267,0,8.933,8.933,0,0,1-1.883-3.967H48.15A9.117,9.117,0,0,1,46.3,17.3ZM70,93.333a3.333,3.333,0,0,1-3.333,3.333h-60a3.333,3.333,0,0,1-3.333-3.333V16.667a3.333,3.333,0,0,1,3.333-3.333h15.15a11.8,11.8,0,0,0,.983,3.333H10A3.333,3.333,0,0,0,6.667,20V90A3.333,3.333,0,0,0,10,93.333H63.333A3.333,3.333,0,0,0,66.667,90V20a3.333,3.333,0,0,0-3.333-3.333h-12.8a11.8,11.8,0,0,0,.983-3.333h15.15A3.333,3.333,0,0,1,70,16.667Z"/>
    <path id="Shape-7" data-name="Shape" d="M9.667,66.666H36.333A1.667,1.667,0,0,0,38,65l.315-30.778a1.667,1.667,0,0,0-.567-1.25L24.415,21.3a1.667,1.667,0,0,0-2.2,0L8.882,32.971a1.667,1.667,0,0,0-.567,1.25L8,65A1.667,1.667,0,0,0,9.667,66.666Zm11.667-3.333V56.666a1.667,1.667,0,0,1,3.333,0v6.667ZM11.648,34.971l11.667-10.2,11.667,10.2-.315,28.361H28V56.666a5,5,0,0,0-10,0v6.667H11.333Z" transform="translate(5.333 20.001)"/>
    <path id="Shape-8" data-name="Shape" d="M10.667,20.333H14A1.667,1.667,0,1,0,14,17H10.667a1.667,1.667,0,1,0,0,3.333Z" transform="translate(6 11.333)"/>
    <path id="Shape-9" data-name="Shape" d="M16.667,20.333H48.333a1.667,1.667,0,1,0,0-3.333H16.667a1.667,1.667,0,1,0,0,3.333Z" transform="translate(10 11.333)"/>
    <path id="Shape-10" data-name="Shape" d="M10.667,24.333H14A1.667,1.667,0,1,0,14,21H10.667a1.667,1.667,0,1,0,0,3.333Z" transform="translate(6 14)"/>
    <path id="Shape-11" data-name="Shape" d="M16.667,24.333H48.333a1.667,1.667,0,1,0,0-3.333H16.667a1.667,1.667,0,1,0,0,3.333Z" transform="translate(10 14)"/>
    <path id="Shape-12" data-name="Shape" d="M34.667,40.667A3.333,3.333,0,0,1,38,44a1.667,1.667,0,0,0,3.333,0,6.667,6.667,0,0,0-5-6.433v-1.9a1.667,1.667,0,0,0-3.333,0v1.9a6.667,6.667,0,0,0,1.667,13.1A3.333,3.333,0,1,1,31.333,54,1.667,1.667,0,0,0,28,54a6.667,6.667,0,0,0,5,6.433v1.9a1.667,1.667,0,0,0,3.333,0v-1.9a6.667,6.667,0,0,0-1.667-13.1,3.333,3.333,0,0,1,0-6.667Z" transform="translate(18.667 22.667)"/>
    <path id="Shape-13" data-name="Shape" d="M35.853,25.487a1.667,1.667,0,0,0-2.367,0l-5,5a1.673,1.673,0,1,0,2.367,2.367L33,30.687v5.983a1.667,1.667,0,0,0,3.333,0V30.687l2.15,2.167a1.673,1.673,0,1,0,2.367-2.367Z" transform="translate(18.664 16.663)"/>
  </g>
</svg>
