<svg xmlns="http://www.w3.org/2000/svg" width="42.111" height="90" viewBox="0 0 42.111 90">
  <g id="Grupo_110600" data-name="Grupo 110600" transform="translate(564.915 -421.892)">
    <path id="Trazado_169790" data-name="Trazado 169790" d="M-523.823,421.892a2.268,2.268,0,0,1,1.019,2.158c-.013,10.632.007,21.263-.013,31.895a21.07,21.07,0,0,1-14.345,20.349c-.164.059-.329.117-.5.169-1.656.518-1.656.518-1.656,2.217,0,7.732.017,15.464-.023,23.2,0,.879.247,1.039,1.066,1.028,2.869-.039,5.745-.108,8.606.056a7.4,7.4,0,0,1,6.824,7.374,1.5,1.5,0,0,1-1.646,1.551c-1.816.014-3.631,0-5.447,0h-32.419c-2.3,0-2.885-.75-2.375-3.037a7.435,7.435,0,0,1,7.024-5.916c2.837-.1,5.68-.058,8.52-.039.591,0,.8-.116.794-.757q-.034-12.257,0-24.514c0-.584-.2-.765-.739-.923-8.452-2.476-13.567-8.08-15.416-16.656a19.824,19.824,0,0,1-.345-4.1c-.027-10.631-.01-21.263-.023-31.895a2.268,2.268,0,0,1,1.019-2.158Zm-18.6,78.054a1.933,1.933,0,0,0,.06-.341c0-7.2,0-14.4.016-21.6,0-.623-.212-.742-.773-.66a4.2,4.2,0,0,1-1.4,0c-.76-.151-.863.169-.861.831.02,7,.012,13.991.015,20.987,0,.26.04.52.062.78-.016.231-.044.461-.045.692-.017,2.4-.016,2.391,2.4,2.273.389-.019.594-.092.575-.531C-542.4,501.57-542.406,500.758-542.421,499.946Zm5.255-75.062c.115.322.207.592.306.858q1.614,4.34,3.229,8.679c.46,1.243.372,1.6-.647,2.424q-2.936,2.372-5.9,4.715c-.333.264-.564.477-.465,1,.928,4.9,1.817,9.813,2.715,14.721a1.655,1.655,0,0,1-.864,1.993,1.594,1.594,0,0,1-2-.821q-5.819-8.709-11.623-17.427a1.63,1.63,0,0,1,.438-2.568c1.85-1.481,3.694-2.971,5.56-4.431.409-.319.455-.52.131-.963q-2.769-3.787-5.46-7.632a1.139,1.139,0,0,0-1.069-.559c-2.753.025-5.506.03-8.259,0-.606-.007-.779.14-.778.764q.031,15.246.01,30.493a17.531,17.531,0,0,0,4.249,11.853,17.44,17.44,0,0,0,15,6.311A17.245,17.245,0,0,0-530.78,468.7a17.887,17.887,0,0,0,4.9-12.834c-.031-10.018-.009-20.036-.009-30.053a3.928,3.928,0,0,1,0-.439c.044-.384-.119-.5-.5-.5C-529.954,424.89-533.524,424.885-537.166,424.885Zm-5.1,25.908a6.759,6.759,0,0,0-.037-.75c-.473-2.613-.908-5.234-1.452-7.833a2.1,2.1,0,0,1,.872-2.351c1.918-1.487,3.8-3.022,5.7-4.535.3-.237.564-.408.367-.918-1.166-3.017-2.285-6.051-3.42-9.08-.093-.247-.177-.45-.533-.447-2.5.018-5,.009-7.63.009.242.359.4.6.561.83q2.445,3.426,4.892,6.851c.88,1.235.79,1.9-.377,2.832q-2.74,2.193-5.48,4.388c-.247.2-.613.327-.291.8C-546.835,443.943-544.6,447.311-542.268,450.792Zm-19.221,58.06h35.26a4.162,4.162,0,0,0-3.879-2.931q-13.75-.03-27.5,0A4.164,4.164,0,0,0-561.489,508.853Z" fill="#090b0c"/>
    <path id="Trazado_169791" data-name="Trazado 169791" d="M-523.906,437.752c3.641,0,7.212,0,10.783-.007.379,0,.542.113.5.5a3.929,3.929,0,0,0,0,.439c0,10.018-.022,20.036.009,30.053a17.887,17.887,0,0,1-4.9,12.834,17.245,17.245,0,0,1-11.811,5.591,17.44,17.44,0,0,1-15-6.311,17.532,17.532,0,0,1-4.249-11.853q.023-15.246-.01-30.493c0-.625.172-.772.778-.765,2.753.033,5.506.027,8.259,0a1.139,1.139,0,0,1,1.069.559q2.7,3.839,5.46,7.632c.324.443.277.644-.131.963-1.867,1.46-3.71,2.95-5.56,4.431a1.63,1.63,0,0,0-.438,2.568q5.8,8.72,11.623,17.427a1.594,1.594,0,0,0,2,.821,1.655,1.655,0,0,0,.864-1.993c-.9-4.908-1.788-9.818-2.715-14.721-.1-.524.132-.736.465-1q2.956-2.347,5.9-4.715c1.019-.823,1.108-1.181.647-2.424q-1.608-4.341-3.229-8.679C-523.7,438.343-523.792,438.074-523.906,437.752Z" transform="translate(-13.259 -12.867)" fill="#d2e1f1"/>
    <path id="Trazado_169792" data-name="Trazado 169792" d="M-474.473,463.7c-2.327-3.482-4.567-6.849-6.831-10.2-.322-.477.044-.605.291-.8q2.735-2.2,5.479-4.388c1.167-.934,1.258-1.6.377-2.832q-2.444-3.427-4.892-6.851c-.165-.231-.319-.47-.561-.83,2.628,0,5.129.008,7.63-.009.356,0,.44.2.533.447,1.135,3.029,2.254,6.063,3.42,9.08.2.51-.07.681-.367.918-1.9,1.514-3.779,3.048-5.7,4.535a2.1,2.1,0,0,0-.872,2.351c.544,2.6.979,5.22,1.452,7.833A6.753,6.753,0,0,1-474.473,463.7Z" transform="translate(-67.796 -12.904)" fill="#b0c0d2"/>
    <path id="Trazado_169793" data-name="Trazado 169793" d="M-546.687,871.888a4.164,4.164,0,0,1,3.88-2.931q13.751-.03,27.5,0a4.162,4.162,0,0,1,3.879,2.931Z" transform="translate(-14.802 -363.036)" fill="#ffc571"/>
    <path id="Trazado_169794" data-name="Trazado 169794" d="M-460.863,739.419c-.021-.26-.062-.52-.062-.78,0-7,0-13.991-.015-20.987,0-.662.1-.982.861-.831a4.2,4.2,0,0,0,1.4,0c.56-.081.774.038.773.66-.02,7.2-.013,14.4-.016,21.6a1.933,1.933,0,0,1-.061.341Z" transform="translate(-84.435 -239.473)" fill="#ffd494"/>
    <path id="Trazado_169795" data-name="Trazado 169795" d="M-460.736,837.226h2.877c.015.812.017,1.624.052,2.435.019.439-.186.512-.575.531-2.415.118-2.416.127-2.4-2.273C-460.78,837.687-460.752,837.457-460.736,837.226Z" transform="translate(-84.562 -337.28)" fill="#ffc571"/>
  </g>
</svg>
