<svg xmlns="http://www.w3.org/2000/svg" width="100.154" height="100" viewBox="0 0 100.154 100">
  <g id="Grupo_110619" data-name="Grupo 110619" transform="translate(483.564 -1522.699)">
    <path id="Trazado_170000" data-name="Trazado 170000" d="M-473.172,1588.893c-1.281,3.15-2.479,6.087-3.668,9.027a2.331,2.331,0,0,1-.726,1.113,1.661,1.661,0,0,1-2.638-1.222c-.639-3.723-1.254-7.451-1.873-11.177-.443-2.667-.853-5.339-1.335-8a3.748,3.748,0,0,1,.2-2.121c2.252-5.805,4.475-11.621,6.724-17.427a1.79,1.79,0,0,0-.047-1.645,3.262,3.262,0,0,1,1.237-4.266,3.339,3.339,0,0,1,4.324.724,3.237,3.237,0,0,1-.2,4.431,1.637,1.637,0,0,0-.538,1.442q.849,11.94,1.653,23.883.679,9.969,1.343,19.946c.409-.279.366-.7.394-1.107q.793-11.475,1.6-22.949c.454-6.612.886-13.225,1.348-19.836a1.529,1.529,0,0,0-.512-1.349,3.251,3.251,0,0,1-.254-4.432,3.345,3.345,0,0,1,4.4-.715,3.244,3.244,0,0,1,1.151,4.288,1.676,1.676,0,0,0-.021,1.552c2.168,5.615,4.3,11.244,6.5,16.845a4.22,4.22,0,0,1,.108,3.725c.13.085.209.163.232.149,2.688-1.612,5.773-1.829,8.733-2.471,2.81-.609,5.636-1.14,8.46-1.684a2.074,2.074,0,0,0,1-.511c.839-.727,1.64-1.511,2.542-2.151a2.92,2.92,0,0,0,1.2-2.625,4.758,4.758,0,0,0-1.733-4.185,14.812,14.812,0,0,1-4.773-9.336c-.084-.612-.293-.754-.89-.824a6.642,6.642,0,0,1-5.982-6.5,6.6,6.6,0,0,1,5.857-6.71c.795-.1.822-.4.817-1.021-.026-2.916-.021-5.832-.009-8.748a10,10,0,0,1,10.322-10.3c3.02-.01,6.04,0,9.06,0a7.577,7.577,0,0,1,6.051,2.707,1.234,1.234,0,0,0,.962.47,7.024,7.024,0,0,1,6.932,7.425c.007,2.881.014,5.763-.01,8.644,0,.543.1.727.7.8a6.634,6.634,0,0,1,5.972,6.721,6.65,6.65,0,0,1-6.077,6.524c-.507.06-.707.18-.78.7a16.193,16.193,0,0,1-5.907,10.529,1.689,1.689,0,0,0-.589,1.218c-.374,2.45.486,4.13,2.47,5.718a11.717,11.717,0,0,0,5.4,2.062c3.256.676,6.53,1.266,9.782,1.957a10.092,10.092,0,0,1,8.178,9.061c.809,6.609,1.747,13.2,2.424,19.826a34.036,34.036,0,0,1-.1,8.827,8.153,8.153,0,0,1-7.945,6.786c-1.562.035-3.124.01-4.686.01h-84.669c-2.057,0-2.513-.438-2.488-2.5a19.555,19.555,0,0,1,.122-3.738,6.449,6.449,0,0,1,4.137-4.958.949.949,0,0,0,.743-1.111,5.664,5.664,0,0,1,.828-3.784,5.031,5.031,0,0,1,4.75-2.231c.7.047.96-.088.9-.877-.344-4.5-.629-9-.94-13.5C-473.016,1589.7-473.087,1589.412-473.172,1588.893Zm68.187-9.348-.127-.067.067.127a3.545,3.545,0,0,0,.645,1.511c1.292,2.415,2.605,4.818,3.875,7.245.667,1.274.264,2.2-1.1,2.677-.817.288-1.633.583-2.465.819-.65.184-.779.493-.589,1.143.388,1.327.653,2.689,1.02,4.023a2.029,2.029,0,0,1-.413,1.934c-1.454,1.854-2.874,3.734-4.326,5.589-.4.515-.369.736.292,1,1.884.76,3.836.389,5.76.464.538.021.457-.414.459-.746.006-1.735,0-3.47,0-5.205,0-2.408,0-2.368,2.393-2.39.829-.007.972.3.957,1.03-.042,2.151.009,4.3-.029,6.454-.012.685.2.9.886.883,1.7-.042,3.4-.014,5.1-.014,2.4,0,2.368,0,2.37,2.4,0,.72-.193.958-.932.943-2.185-.045-4.372,0-6.559-.025-.584-.006-.881.1-.872.788.033,2.811.024,5.622.005,8.433,0,.551.117.819.743.809,2.047-.031,4.1.038,6.142-.027a4.973,4.973,0,0,0,4.778-4.746,65.741,65.741,0,0,0-.415-10.579c-.75-5.477-1.383-10.971-2.082-16.455a6.7,6.7,0,0,0-4.216-5.725,14.181,14.181,0,0,0-3.021-.713C-399.424,1580.622-402.172,1579.913-404.986,1579.545Zm-33.79,0a4.168,4.168,0,0,0-.623.032c-3.423.688-6.86,1.315-10.261,2.1a6.159,6.159,0,0,0-4.9,5.1c-1.369,6.847-2.718,13.7-3.9,20.581-.3,1.768-.9,4.025,1.883,4.735.031.008.053.043.082.063a6.676,6.676,0,0,1,2.933,6.179c-.048.827.218,1.068,1.042,1.046q3.174-.084,6.351,0c.8.021.993-.242.981-1.006-.043-2.672-.054-5.346,0-8.018.019-.867-.29-1.036-1.072-1.02-2.221.045-4.443.016-6.665.016-2.323,0-2.286,0-2.31-2.37-.008-.8.256-.987,1.013-.975,2.707.042,5.415,0,8.122.03.666.007.917-.17.9-.871-.044-1.734-.014-3.471-.014-5.206,0-2.286,0-2.239,2.285-2.291.914-.021,1.088.308,1.067,1.133-.053,2.116-.024,4.235-.011,6.352,0,.342-.164.873.448.852,1.891-.065,3.805.3,5.663-.422.73-.283.832-.5.339-1.124-1.445-1.817-2.834-3.678-4.268-5.5a2.03,2.03,0,0,1-.414-1.935c.358-1.3.585-2.64,1-3.922.269-.838-.014-1.117-.76-1.309-.769-.2-1.516-.489-2.268-.754a1.692,1.692,0,0,1-1.1-2.676c.711-1.388,1.5-2.735,2.2-4.13a32,32,0,0,0,2.315-4.63l.069-.123Zm16.922-45.175v0c-2.117,0-4.234.032-6.35-.019a1.192,1.192,0,0,0-1.318.824,49.33,49.33,0,0,1-5.37,9.353,1.146,1.146,0,0,0-.325.737c.111,3.812-.317,7.644.23,11.434a13.288,13.288,0,0,0,13.223,11,13.282,13.282,0,0,0,13-11.142c.509-3.76.107-7.554.213-11.332a1.006,1.006,0,0,0-.285-.646,50.746,50.746,0,0,1-5.484-9.527.99.99,0,0,0-1.078-.693C-417.55,1534.4-419.7,1534.372-421.853,1534.372Zm-5.625,84.985c2.358,0,4.716.014,7.074-.006a1.648,1.648,0,0,0,1.846-1.779q.034-4.889,0-9.778a1.627,1.627,0,0,0-1.76-1.757c-2.011-.03-4.022-.012-6.033,0a1.99,1.99,0,0,0-.6.119c-2.527.838-5.046,1.7-7.583,2.51a.82.82,0,0,0-.687.944c.024,2.982.04,5.964-.008,8.945-.012.74.266.828.89.82C-432.055,1619.339-429.766,1619.357-427.478,1619.357Zm-41.064,0v0c3.61,0,7.22.006,10.829-.01.312,0,.747.235.844-.427.4-2.712-1.142-4.555-3.874-4.557q-7.706,0-15.411,0c-2.859,0-4.071,1.264-4.071,4.149,0,.67.162.872.854.865C-475.762,1619.338-472.152,1619.357-468.542,1619.357Zm6.405-55.11-.188.03c-.064.61-.146,1.22-.19,1.832-.272,3.8-.518,7.609-.809,11.411a11.4,11.4,0,0,0,.885,6.345c1.112,2.184,1.888,4.539,2.816,6.817.094.23.09.537.484.651.63-3.781,1.182-7.551,1.915-11.285a7.252,7.252,0,0,0-.535-4.5c-.817-1.872-1.486-3.807-2.221-5.714Q-461.055,1567.038-462.136,1564.247Zm-12.607-.079c-.193.184-.261.219-.281.272q-2.524,6.536-5.049,13.072a1.6,1.6,0,0,0-.024.906c.39,2.354.756,4.712,1.148,7.066.325,1.953.676,3.9,1.029,5.93.161-.143.233-.177.255-.231q2-4.9,3.99-9.807a1.7,1.7,0,0,0,.1-.806c-.2-2.693-.366-5.388-.556-8.081C-474.327,1569.765-474.532,1567.042-474.743,1564.168Zm39.874-33.134h1.859q8.423,0,16.846-.011c.327,0,.774.223.94-.351a3.37,3.37,0,0,0-2.082-4.3,4.456,4.456,0,0,0-1.512-.319c-3.362-.027-6.726-.065-10.087.005A6.343,6.343,0,0,0-434.869,1531.034Zm-.817,50.3c-1.247,2.333-2.349,4.411-3.471,6.479-.237.437-.212.663.316.811.8.223,1.586.5,2.365.782a1.666,1.666,0,0,1,1.16,2.215q-.6,2.47-1.229,4.931a1.1,1.1,0,0,0,.07,1.077c1.545,2,3.066,4.019,4.618,6.014.4.52.7.466.862-.238a13.188,13.188,0,0,1,.771-2.681,2.414,2.414,0,0,0,.072-1.954c-1.122-3.455-2.185-6.929-3.279-10.393C-434.147,1586.1-434.883,1583.834-435.686,1581.331Zm27.693.165c-.113.142-.176.189-.2.25q-2.82,8.853-5.635,17.708a.652.652,0,0,0-.013.595,12.394,12.394,0,0,1,1.079,3.344c.064.223.021.525.342.568.28.038.432-.193.577-.382,1.475-1.924,2.937-3.858,4.423-5.772a1.27,1.27,0,0,0,.209-1.247c-.433-1.6-.811-3.219-1.2-4.831a1.7,1.7,0,0,1,1.311-2.38c.752-.263,1.5-.534,2.263-.762.414-.124.478-.3.278-.669C-405.7,1585.793-406.835,1583.663-407.993,1581.5Zm-7.291,37.854c1.992,0,4.069-.012,6.146.009.452,0,.593-.129.59-.586-.018-3.121-.012-6.242-.006-9.364,0-.3-.048-.532-.382-.64-2.068-.667-4.132-1.344-6.348-2.067Zm-.031-49.64a16.953,16.953,0,0,1-13.271-.055c.213,1.064-.308,2.028.42,2.894,1.94,2.308,3.884,4.613,5.776,6.96.477.592.673.413,1.053-.052,1.622-1.986,3.205-4.013,4.947-5.89A4,4,0,0,0-415.315,1569.71Zm1.245,19.345c.95-2.981,1.855-5.813,2.755-8.646.95-2.989.938-2.977-1.552-4.925-.405-.317-.592-.286-.9.091q-2.74,3.336-5.523,6.637c-.259.309-.341.517-.029.867C-417.592,1585.016-415.89,1586.977-414.07,1589.055Zm-15.628.009c1.825-2.084,3.521-4.049,5.255-5.98.379-.422.161-.639-.1-.945-1.294-1.539-2.562-3.1-3.87-4.628-.668-.78-1.21-2.17-2.05-2.162-.8.008-1.582,1.2-2.4,1.829a.8.8,0,0,0-.276,1.052C-431.989,1581.781-430.874,1585.344-429.7,1589.063Zm-34.129.031-.193.044q-.127,1.807-.255,3.613c-.247,3.593-.476,7.187-.755,10.777-.055.7.153.9.826.84a4.37,4.37,0,0,1,2.15.233c.567.244.7.062.793-.467.313-1.771.667-3.533,1-5.3a1.881,1.881,0,0,0-.068-1.116C-461.506,1594.85-462.663,1591.971-463.827,1589.095Zm-4.776,21.93v0c2.01,0,4.021.006,6.031-.008.237,0,.539.151.687-.254a2.186,2.186,0,0,0-2.134-3.062c-2.911-.01-5.823,0-8.735,0-2.016,0-2.465.493-2.47,2.534,0,.627.14.83.8.814C-472.486,1610.994-470.545,1611.025-468.6,1611.025Zm45.05-18.432c0,1.387.056,2.776-.02,4.159a1.606,1.606,0,0,0,1.064,1.836c.906.394,2.29-.246,2.294-1.225.014-3.224.019-6.448,0-9.673-.008-1.055-.933-1.549-1.53-2.235-.1-.116-.276-.048-.364.065-.595.765-1.526,1.288-1.46,2.5C-423.49,1589.538-423.553,1591.067-423.553,1592.592Zm-18.311,21.7v2.6c0,2.471,0,2.433,2.446,2.469.777.011.886-.257.872-.939-.043-2.183-.016-4.368-.016-6.552,0-2.578,0-2.553-2.6-2.517-.634.009-.724.234-.711.78C-441.841,1611.521-441.864,1612.909-441.864,1614.3Zm39.965.078v-2.5c0-2.581,0-2.556-2.6-2.521-.626.008-.723.224-.716.775.028,2.219.012,4.438.012,6.657,0,2.665,0,2.641,2.65,2.574.589-.015.67-.225.661-.723C-401.916,1617.217-401.9,1615.8-401.9,1614.374Zm-6.654-75.843c0-1.908.025-3.817-.008-5.725a3.692,3.692,0,0,0-2.39-3.355c-.317-.1-.844-.366-.894.236a6.452,6.452,0,0,0,.068,2.788A28.245,28.245,0,0,0-408.553,1538.531Zm-30,10.9c0-.937-.029-1.875.011-2.81.024-.56-.195-.625-.672-.525a3.417,3.417,0,0,0-2.655,3.3,3.422,3.422,0,0,0,2.724,3.247c.457.08.617-.028.6-.51C-438.577,1551.238-438.554,1550.335-438.554,1549.433Zm33.345-.152c0,.937.026,1.874-.01,2.81-.02.53.148.65.655.545a3.416,3.416,0,0,0,2.669-3.29,3.423,3.423,0,0,0-2.709-3.26c-.427-.076-.636-.019-.616.491C-405.183,1547.476-405.209,1548.379-405.209,1549.281Zm-21.722,41.746c-.423.48-.74.8-1.006,1.154-.21.281-.655.447-.5.934q.684,2.131,1.358,4.264l.147-.035Zm10.127.045v6.273c.563-1.35.982-2.722,1.432-4.085a.648.648,0,0,0-.133-.744C-415.921,1592.075-416.318,1591.615-416.8,1591.071Zm-18.4-52.545.24.062,2.146-4.212a15.493,15.493,0,0,1-1.55-.009c-.711-.081-.874.24-.848.887C-435.173,1536.343-435.2,1537.435-435.2,1538.526Zm16.971,64.159v.026a6.854,6.854,0,0,1,1.234.013c.745.138.653-.247.448-.668a1.8,1.8,0,0,0-1.571-1.008,1.937,1.937,0,0,0-1.806.783c-.158.21-.369.486-.208.751.134.22.438.09.665.1C-419.059,1602.7-418.646,1602.685-418.233,1602.685Zm-5.3,0a1.788,1.788,0,0,0-1.661-1.625,1.836,1.836,0,0,0-1.956.894c-.258.433-.32.769.4.741C-425.713,1602.656-424.673,1602.686-423.536,1602.686Z" fill="#020201"/>
    <path id="Trazado_170001" data-name="Trazado 170001" d="M-296.682,1564.565c2.151,0,4.3.024,6.454-.016a.99.99,0,0,1,1.078.693,50.749,50.749,0,0,0,5.484,9.527,1.006,1.006,0,0,1,.285.646c-.106,3.777.3,7.572-.213,11.332a13.282,13.282,0,0,1-13,11.142,13.288,13.288,0,0,1-13.223-11c-.548-3.79-.12-7.623-.23-11.434a1.146,1.146,0,0,1,.325-.737,49.33,49.33,0,0,0,5.37-9.353,1.192,1.192,0,0,1,1.319-.824c2.116.051,4.233.019,6.35.019Zm-1.729,25.945a24.89,24.89,0,0,0,6.484-.823c.337-.09.891-.155.535-.7-.526-.811.033-2.193-1.343-2.54a.45.45,0,0,0-.2.042,22.516,22.516,0,0,1-6.288.688c-2.545-.006-2.545,0-2.485,2.541a1.4,1.4,0,0,1,0,.208c-.058.455.146.608.593.6C-300.216,1590.493-299.313,1590.51-298.411,1590.51Zm-8.293-13.418a2.525,2.525,0,0,0,2.557,2.462,2.52,2.52,0,0,0,2.432-2.583,2.52,2.52,0,0,0-2.5-2.408A2.512,2.512,0,0,0-306.7,1577.092Zm19.991-.013a2.516,2.516,0,0,0-2.5-2.52,2.523,2.523,0,0,0-2.492,2.425,2.531,2.531,0,0,0,2.452,2.574A2.516,2.516,0,0,0-286.712,1577.078Z" transform="translate(-125.171 -30.193)" fill="#fcc7a2"/>
    <path id="Trazado_170002" data-name="Trazado 170002" d="M-374.359,1726.948a32.154,32.154,0,0,1-2.316,4.629c-.7,1.395-1.491,2.742-2.2,4.13a1.692,1.692,0,0,0,1.1,2.676c.751.265,1.5.556,2.268.754.746.192,1.029.471.76,1.309-.411,1.282-.638,2.621-1,3.922a2.029,2.029,0,0,0,.414,1.935c1.433,1.826,2.823,3.687,4.268,5.5.493.62.392.841-.339,1.124-1.858.72-3.773.357-5.663.422-.612.021-.446-.51-.448-.852-.013-2.117-.042-4.236.011-6.352.021-.825-.153-1.154-1.067-1.133-2.284.052-2.285.005-2.285,2.291,0,1.736-.03,3.472.014,5.206.018.7-.233.878-.9.871-2.707-.031-5.415.013-8.122-.029-.757-.012-1.021.171-1.013.975.024,2.369-.013,2.37,2.31,2.37,2.222,0,4.444.029,6.665-.016.782-.016,1.091.153,1.072,1.02-.059,2.672-.048,5.346,0,8.018.012.763-.182,1.026-.98,1.006q-3.174-.082-6.351,0c-.824.022-1.09-.219-1.042-1.046a6.676,6.676,0,0,0-2.933-6.179c-.028-.02-.051-.056-.082-.063-2.783-.71-2.187-2.967-1.883-4.736,1.185-6.881,2.533-13.734,3.9-20.581a6.16,6.16,0,0,1,4.9-5.1c3.4-.782,6.838-1.41,10.261-2.1a4.168,4.168,0,0,1,.623-.032Z" transform="translate(-64.36 -147.346)" fill="#374458"/>
    <path id="Trazado_170003" data-name="Trazado 170003" d="M-210.84,1726.885c2.813.369,5.562,1.078,8.349,1.584a14.181,14.181,0,0,1,3.021.713,6.7,6.7,0,0,1,4.216,5.725c.7,5.484,1.332,10.978,2.082,16.455a65.738,65.738,0,0,1,.415,10.579,4.973,4.973,0,0,1-4.778,4.746c-2.045.065-4.095,0-6.142.027-.626.01-.747-.258-.743-.809.019-2.811.028-5.622-.005-8.433-.008-.687.289-.794.872-.788,2.186.023,4.373-.02,6.559.025.739.015.933-.223.932-.943,0-2.4.026-2.4-2.37-2.4-1.7,0-3.4-.028-5.1.014-.682.017-.9-.2-.886-.883.038-2.151-.013-4.3.029-6.454.014-.734-.128-1.037-.957-1.03-2.392.021-2.393-.018-2.393,2.39,0,1.735,0,3.47,0,5.205,0,.333.079.767-.459.746-1.924-.075-3.875.3-5.76-.464-.662-.267-.7-.488-.292-1,1.452-1.856,2.872-3.736,4.325-5.589a2.029,2.029,0,0,0,.413-1.934c-.367-1.333-.632-2.7-1.02-4.023-.19-.65-.061-.959.589-1.143.832-.235,1.648-.531,2.465-.819,1.365-.481,1.767-1.4,1.1-2.677-1.27-2.426-2.582-4.83-3.875-7.245a3.545,3.545,0,0,1-.645-1.511Z" transform="translate(-194.146 -147.341)" fill="#374458"/>
    <path id="Trazado_170004" data-name="Trazado 170004" d="M-302.207,1835.321c-2.288,0-4.577-.019-6.865.012-.624.009-.9-.08-.89-.82.048-2.981.032-5.964.008-8.945a.82.82,0,0,1,.687-.944c2.537-.808,5.056-1.672,7.583-2.51a1.99,1.99,0,0,1,.6-.119c2.011-.008,4.022-.025,6.033,0a1.627,1.627,0,0,1,1.76,1.757q.033,4.889,0,9.778a1.648,1.648,0,0,1-1.846,1.779C-297.491,1835.335-299.849,1835.321-302.207,1835.321Z" transform="translate(-125.271 -215.964)" fill="#fcc7a2"/>
    <path id="Trazado_170005" data-name="Trazado 170005" d="M-459.887,1856.934c-3.61,0-7.22-.019-10.829.017-.692.007-.854-.2-.854-.865,0-2.885,1.211-4.149,4.071-4.149q7.705,0,15.411,0c2.732,0,4.273,1.845,3.874,4.557-.1.662-.531.425-.844.427-3.609.016-7.219.01-10.829.01Z" transform="translate(-8.655 -237.577)" fill="#feb431"/>
    <path id="Trazado_170006" data-name="Trazado 170006" d="M-409.888,1671.938q1.079,2.791,2.157,5.583c.735,1.907,1.4,3.843,2.221,5.714a7.252,7.252,0,0,1,.535,4.5c-.732,3.735-1.285,7.5-1.915,11.285-.394-.114-.391-.422-.484-.651-.928-2.278-1.7-4.633-2.816-6.817a11.4,11.4,0,0,1-.885-6.345c.291-3.8.537-7.608.809-11.411.044-.612.126-1.221.19-1.832Z" transform="translate(-52.249 -107.691)" fill="#8e4c2e"/>
    <path id="Trazado_170007" data-name="Trazado 170007" d="M-465.9,1671.653c.211,2.874.416,5.6.608,8.321.19,2.693.361,5.388.556,8.081a1.7,1.7,0,0,1-.1.806q-2,4.9-3.99,9.807c-.022.054-.094.088-.255.23-.353-2.027-.7-3.976-1.029-5.93-.392-2.354-.758-4.712-1.148-7.065a1.6,1.6,0,0,1,.024-.906q2.537-6.531,5.049-13.072C-466.16,1671.872-466.093,1671.837-465.9,1671.653Z" transform="translate(-8.844 -107.485)" fill="#374458"/>
    <path id="Trazado_170008" data-name="Trazado 170008" d="M-308.654,1539.637a6.343,6.343,0,0,1,5.966-4.975c3.361-.07,6.724-.032,10.087-.005a4.462,4.462,0,0,1,1.512.318,3.37,3.37,0,0,1,2.082,4.3c-.166.573-.614.35-.94.35q-8.423.023-16.846.011Z" transform="translate(-126.215 -8.603)" fill="#8e4c2e"/>
    <path id="Trazado_170009" data-name="Trazado 170009" d="M-320.956,1733.3c.8,2.5,1.538,4.77,2.256,7.041,1.094,3.464,2.157,6.938,3.279,10.393a2.415,2.415,0,0,1-.072,1.954,13.188,13.188,0,0,0-.771,2.681c-.159.7-.458.758-.862.238-1.552-1.995-3.074-4.013-4.618-6.014a1.1,1.1,0,0,1-.07-1.077q.633-2.461,1.229-4.931a1.666,1.666,0,0,0-1.16-2.215c-.779-.286-1.566-.558-2.365-.782-.528-.148-.553-.374-.316-.811C-323.3,1737.713-322.2,1735.634-320.956,1733.3Z" transform="translate(-114.73 -151.97)" fill="#374458"/>
    <path id="Trazado_170010" data-name="Trazado 170010" d="M-227.441,1733.893c1.158,2.168,2.29,4.3,3.435,6.421.2.37.136.545-.278.669-.762.228-1.512.5-2.263.762a1.7,1.7,0,0,0-1.311,2.38c.393,1.612.772,3.229,1.2,4.831a1.27,1.27,0,0,1-.209,1.247c-1.487,1.915-2.948,3.848-4.423,5.772-.145.189-.3.42-.577.382-.32-.043-.278-.345-.342-.568a12.393,12.393,0,0,0-1.079-3.344.652.652,0,0,1,.013-.595q2.82-8.854,5.635-17.708C-227.618,1734.082-227.555,1734.035-227.441,1733.893Z" transform="translate(-180.552 -152.397)" fill="#374458"/>
    <path id="Trazado_170011" data-name="Trazado 170011" d="M-238.306,1837.082v-12.648c2.216.723,4.281,1.4,6.348,2.067.334.108.383.335.382.64-.006,3.121-.012,6.243.006,9.364,0,.458-.138.591-.59.586C-234.237,1837.07-236.314,1837.082-238.306,1837.082Z" transform="translate(-176.978 -217.732)" fill="#fcc7a2"/>
    <path id="Trazado_170012" data-name="Trazado 170012" d="M-272.815,1691.416a4,4,0,0,1-1.075,3.856c-1.742,1.878-3.325,3.9-4.947,5.89-.38.465-.576.644-1.053.052-1.892-2.347-3.836-4.652-5.776-6.96-.728-.866-.206-1.831-.42-2.894A16.954,16.954,0,0,0-272.815,1691.416Z" transform="translate(-142.5 -121.706)" fill="#fcc7a2"/>
    <path id="Trazado_170013" data-name="Trazado 170013" d="M-248.078,1725.307c-1.82-2.077-3.521-4.039-5.25-5.976-.313-.35-.231-.559.029-.867q2.777-3.3,5.523-6.637c.31-.377.5-.408.9-.091,2.49,1.948,2.5,1.936,1.552,4.925C-246.223,1719.494-247.128,1722.326-248.078,1725.307Z" transform="translate(-165.992 -136.253)" fill="#fefefd"/>
    <path id="Trazado_170014" data-name="Trazado 170014" d="M-299.216,1725.529c-1.176-3.72-2.291-7.282-3.44-10.834a.8.8,0,0,1,.276-1.052c.821-.63,1.6-1.821,2.4-1.829.84-.008,1.381,1.382,2.05,2.162,1.308,1.527,2.576,3.088,3.87,4.628.257.306.476.523.1.945C-295.695,1721.48-297.391,1723.444-299.216,1725.529Z" transform="translate(-130.482 -136.465)" fill="#fefefd"/>
    <path id="Trazado_170015" data-name="Trazado 170015" d="M-446.989,1831.321c-1.941,0-3.883-.03-5.823.017-.658.016-.8-.187-.8-.814.005-2.041.454-2.534,2.47-2.534,2.912,0,5.823-.006,8.735,0a2.186,2.186,0,0,1,2.134,3.062c-.147.405-.449.252-.687.254-2.01.014-4.021.008-6.031.008Z" transform="translate(-21.615 -220.296)" fill="#feb431"/>
    <path id="Trazado_170016" data-name="Trazado 170016" d="M-268.075,1755.1c0-1.526.063-3.055-.02-4.575-.066-1.208.866-1.732,1.46-2.5.088-.113.263-.181.364-.065.6.686,1.522,1.179,1.53,2.235.023,3.224.017,6.448,0,9.673,0,.979-1.387,1.619-2.294,1.225a1.606,1.606,0,0,1-1.064-1.836C-268.019,1757.874-268.075,1756.484-268.075,1755.1Z" transform="translate(-155.477 -162.506)" fill="#8e4c2e"/>
    <path id="Trazado_170017" data-name="Trazado 170017" d="M-333.812,1838.885c0-1.387.023-2.774-.011-4.16-.013-.546.077-.771.711-.78,2.6-.036,2.6-.062,2.6,2.517,0,2.184-.027,4.369.016,6.552.013.682-.1.95-.872.939-2.446-.035-2.446,0-2.446-2.469Z" transform="translate(-108.052 -224.59)" fill="#fefefd"/>
    <path id="Trazado_170018" data-name="Trazado 170018" d="M-198.818,1838.965c0,1.422-.017,2.843.009,4.264.009.5-.072.708-.661.723-2.651.067-2.65.091-2.65-2.574,0-2.219.016-4.438-.012-6.657-.007-.551.09-.766.716-.775,2.6-.034,2.6-.06,2.6,2.521Z" transform="translate(-203.081 -224.591)" fill="#fefefd"/>
    <path id="Trazado_170019" data-name="Trazado 170019" d="M-222.974,1555.655a28.245,28.245,0,0,1-3.224-6.055,6.451,6.451,0,0,1-.068-2.788c.049-.6.577-.336.894-.236a3.692,3.692,0,0,1,2.39,3.355C-222.949,1551.838-222.974,1553.747-222.974,1555.655Z" transform="translate(-185.58 -17.124)" fill="#8e4c2e"/>
    <path id="Trazado_170020" data-name="Trazado 170020" d="M-330.485,1609.981c0,.9-.023,1.805.009,2.706.017.482-.143.59-.6.51a3.422,3.422,0,0,1-2.724-3.247,3.416,3.416,0,0,1,2.655-3.3c.477-.1.7-.036.672.525C-330.514,1608.107-330.485,1609.045-330.485,1609.981Z" transform="translate(-108.069 -60.549)" fill="#fcc7a2"/>
    <path id="Trazado_170021" data-name="Trazado 170021" d="M-202.146,1609.824c0-.9.026-1.8-.01-2.705-.021-.51.189-.566.616-.491a3.423,3.423,0,0,1,2.709,3.26,3.416,3.416,0,0,1-2.669,3.29c-.507.105-.676-.015-.655-.545C-202.121,1611.7-202.146,1610.761-202.146,1609.824Z" transform="translate(-203.063 -60.543)" fill="#fcc7a2"/>
    <path id="Trazado_170022" data-name="Trazado 170022" d="M-284.127,1768.128v6.317l-.147.035q-.678-2.132-1.358-4.264c-.156-.487.288-.653.5-.934C-284.867,1768.926-284.55,1768.608-284.127,1768.128Z" transform="translate(-142.805 -177.102)" fill="#fcc7a2"/>
    <path id="Trazado_170023" data-name="Trazado 170023" d="M-243.766,1768.289c.487.544.883,1,1.3,1.445a.648.648,0,0,1,.133.744c-.45,1.363-.869,2.735-1.432,4.085Z" transform="translate(-173.038 -177.218)" fill="#fcc7a2"/>
    <path id="Trazado_170024" data-name="Trazado 170024" d="M-309.9,1568.736c0-1.091.032-2.183-.012-3.272-.026-.648.137-.968.848-.887a15.493,15.493,0,0,0,1.55.009l-2.146,4.212Z" transform="translate(-125.307 -30.21)" fill="#8e4c2e"/>
    <path id="Trazado_170025" data-name="Trazado 170025" d="M-253.979,1805.738c-.413,0-.825.012-1.237,0-.227-.009-.531.121-.665-.1-.161-.264.05-.541.208-.751a1.937,1.937,0,0,1,1.806-.783,1.8,1.8,0,0,1,1.571,1.008c.2.421.3.806-.448.668a6.854,6.854,0,0,0-1.234-.013Z" transform="translate(-164.255 -203.052)" fill="#fcc7a2"/>
    <path id="Trazado_170026" data-name="Trazado 170026" d="M-277.784,1805.734c-1.137,0-2.177-.03-3.214.01-.723.028-.661-.308-.4-.741a1.836,1.836,0,0,1,1.956-.894A1.788,1.788,0,0,1-277.784,1805.734Z" transform="translate(-145.752 -203.048)" fill="#fcc7a2"/>
    <path id="Trazado_170027" data-name="Trazado 170027" d="M-322.687,1726.717l.124-.068c-.023.041-.046.082-.068.123Z" transform="translate(-116.089 -147.17)" fill="#374458"/>
    <path id="Trazado_170028" data-name="Trazado 170028" d="M-201.7,1726.772l-.067-.127.127.067Z" transform="translate(-203.343 -147.167)" fill="#374458"/>
    <path id="Trazado_170029" data-name="Trazado 170029" d="M-276.7,1647.268c-.9,0-1.806-.017-2.708.007-.447.012-.65-.141-.593-.6a1.407,1.407,0,0,0,0-.208c-.06-2.543-.06-2.547,2.485-2.542a22.512,22.512,0,0,0,6.288-.688.45.45,0,0,1,.2-.042c1.376.347.817,1.729,1.343,2.54.356.549-.2.614-.535.7A24.9,24.9,0,0,1-276.7,1647.268Z" transform="translate(-146.88 -86.951)" fill="#020201"/>
    <path id="Trazado_170030" data-name="Trazado 170030" d="M-297.9,1603.065a2.513,2.513,0,0,1,2.485-2.529,2.52,2.52,0,0,1,2.5,2.408,2.52,2.52,0,0,1-2.432,2.583A2.525,2.525,0,0,1-297.9,1603.065Z" transform="translate(-133.974 -56.167)" fill="#020201"/>
    <path id="Trazado_170031" data-name="Trazado 170031" d="M-239.036,1603.042a2.516,2.516,0,0,1-2.541,2.479,2.531,2.531,0,0,1-2.452-2.574,2.523,2.523,0,0,1,2.492-2.425A2.516,2.516,0,0,1-239.036,1603.042Z" transform="translate(-172.848 -56.158)" fill="#020201"/>
  </g>
</svg>
