<svg xmlns="http://www.w3.org/2000/svg" width="332.7" height="284.697" viewBox="0 0 332.7 284.697">
  <g id="Grupo_110707" data-name="Grupo 110707" transform="translate(-880.225 -3504.5)">
    <path id="Trazado_170325" data-name="Trazado 170325" d="M9.277,0H.225L.439-1.377l5.244-5.1.957-.947a5.6,5.6,0,0,0,1.826-3.047,2.259,2.259,0,0,0-.42-1.753A1.975,1.975,0,0,0,6.5-12.939a2.909,2.909,0,0,0-2.139.747A3.431,3.431,0,0,0,3.32-10.039l-1.748.01a4.945,4.945,0,0,1,.806-2.319A4.488,4.488,0,0,1,4.165-13.9a5.135,5.135,0,0,1,2.407-.513A3.945,3.945,0,0,1,9.38-13.345a3.169,3.169,0,0,1,.894,2.671A6.806,6.806,0,0,1,8.115-6.729l-.9.908L2.646-1.475H9.512ZM12.6-2.051a1.058,1.058,0,0,1,.791.293,1.009,1.009,0,0,1,.3.781,1.055,1.055,0,0,1-.322.776,1.162,1.162,0,0,1-.781.317,1.009,1.009,0,0,1-.771-.269,1.009,1.009,0,0,1-.3-.767,1.107,1.107,0,0,1,.3-.8A1.1,1.1,0,0,1,12.6-2.051ZM20.811.2a3.209,3.209,0,0,1-2.7-1.274,5.657,5.657,0,0,1-.82-3.56q.02-.723.107-1.426l.352-2.373a8.8,8.8,0,0,1,1.787-4.531,4.273,4.273,0,0,1,3.477-1.445,3.247,3.247,0,0,1,2.71,1.245,5.532,5.532,0,0,1,.825,3.5q-.029.732-.117,1.436l-.342,2.295a9.329,9.329,0,0,1-1.826,4.7A4.246,4.246,0,0,1,20.811.2Zm3.916-8.75a15.115,15.115,0,0,0,.127-1.836q-.049-2.48-1.924-2.549a2.567,2.567,0,0,0-2.212,1.011A7.007,7.007,0,0,0,19.541-8.6l-.42,2.832a14.406,14.406,0,0,0-.127,1.846q.049,2.588,1.914,2.656a2.509,2.509,0,0,0,2.144-.957,6.786,6.786,0,0,0,1.206-3.223ZM31.807.2a3.209,3.209,0,0,1-2.7-1.274,5.657,5.657,0,0,1-.82-3.56q.02-.723.107-1.426l.352-2.373a8.8,8.8,0,0,1,1.787-4.531,4.273,4.273,0,0,1,3.477-1.445,3.247,3.247,0,0,1,2.71,1.245,5.532,5.532,0,0,1,.825,3.5q-.029.732-.117,1.436L37.09-5.937a9.329,9.329,0,0,1-1.826,4.7A4.246,4.246,0,0,1,31.807.2Zm3.916-8.75a15.115,15.115,0,0,0,.127-1.836q-.049-2.48-1.924-2.549a2.567,2.567,0,0,0-2.212,1.011A7.007,7.007,0,0,0,30.537-8.6l-.42,2.832a14.406,14.406,0,0,0-.127,1.846Q30.039-1.338,31.9-1.27a2.509,2.509,0,0,0,2.144-.957,6.786,6.786,0,0,0,1.206-3.223Zm11.162-2.021L46.66-9.395a4.132,4.132,0,0,1,3.213-1.367,3.26,3.26,0,0,1,1.7.459,2.251,2.251,0,0,1,.962,1.24,4.363,4.363,0,0,1,3.506-1.7A2.794,2.794,0,0,1,58.379-9.7a3.8,3.8,0,0,1,.557,2.754L57.773,0H56.016l1.152-6.963a3.679,3.679,0,0,0,0-.928q-.186-1.328-1.738-1.357a2.669,2.669,0,0,0-1.753.6,2.778,2.778,0,0,0-1.011,1.626L51.465,0H49.688l1.172-6.953a2.233,2.233,0,0,0-.327-1.67,1.721,1.721,0,0,0-1.411-.605,2.894,2.894,0,0,0-2.627,1.5L45.156,0H43.389l1.836-10.566Zm18.281-2.549-.449,2.559h1.924L66.4-9.17H64.482L63.379-2.6a2.292,2.292,0,0,0-.01.469.745.745,0,0,0,.83.762,5.062,5.062,0,0,0,.859-.1L64.922.01a4.809,4.809,0,0,1-1.289.176,1.846,1.846,0,0,1-1.582-.776,3,3,0,0,1-.41-2.036L62.715-9.17H60.85l.244-1.4h1.865l.449-2.559ZM73.477-2.861q.146-1.094-1.2-1.543l-1.836-.537q-2.324-.8-2.246-2.656a2.926,2.926,0,0,1,1.274-2.29,4.539,4.539,0,0,1,2.837-.874,3.784,3.784,0,0,1,2.6.933,2.954,2.954,0,0,1,.962,2.378l-1.758-.01a1.649,1.649,0,0,0-.5-1.289,1.971,1.971,0,0,0-1.377-.518,2.573,2.573,0,0,0-1.582.449,1.645,1.645,0,0,0-.713,1.152q-.127.918,1.123,1.338l.889.244a5.722,5.722,0,0,1,2.578,1.221A2.331,2.331,0,0,1,75.234-3a2.963,2.963,0,0,1-.645,1.719A3.685,3.685,0,0,1,73.027-.161,5.226,5.226,0,0,1,70.947.2a4.122,4.122,0,0,1-2.773-.981,3.034,3.034,0,0,1-1.055-2.476l1.768.01a1.873,1.873,0,0,0,.566,1.426,2.165,2.165,0,0,0,1.553.537,3.045,3.045,0,0,0,1.67-.405A1.559,1.559,0,0,0,73.477-2.861Z" transform="translate(880 3628.25)" fill="#12263f"/>
    <path id="Trazado_170326" data-name="Trazado 170326" d="M9.277,0H.225L.439-1.377l5.244-5.1.957-.947a5.6,5.6,0,0,0,1.826-3.047,2.259,2.259,0,0,0-.42-1.753A1.975,1.975,0,0,0,6.5-12.939a2.909,2.909,0,0,0-2.139.747A3.431,3.431,0,0,0,3.32-10.039l-1.748.01a4.945,4.945,0,0,1,.806-2.319A4.488,4.488,0,0,1,4.165-13.9a5.135,5.135,0,0,1,2.407-.513A3.945,3.945,0,0,1,9.38-13.345a3.169,3.169,0,0,1,.894,2.671A6.806,6.806,0,0,1,8.115-6.729l-.9.908L2.646-1.475H9.512ZM12.6-2.051a1.058,1.058,0,0,1,.791.293,1.009,1.009,0,0,1,.3.781,1.055,1.055,0,0,1-.322.776,1.162,1.162,0,0,1-.781.317,1.009,1.009,0,0,1-.771-.269,1.009,1.009,0,0,1-.3-.767,1.107,1.107,0,0,1,.3-.8A1.1,1.1,0,0,1,12.6-2.051ZM20.811.2a3.209,3.209,0,0,1-2.7-1.274,5.657,5.657,0,0,1-.82-3.56q.02-.723.107-1.426l.352-2.373a8.8,8.8,0,0,1,1.787-4.531,4.273,4.273,0,0,1,3.477-1.445,3.247,3.247,0,0,1,2.71,1.245,5.532,5.532,0,0,1,.825,3.5q-.029.732-.117,1.436l-.342,2.295a9.329,9.329,0,0,1-1.826,4.7A4.246,4.246,0,0,1,20.811.2Zm3.916-8.75a15.115,15.115,0,0,0,.127-1.836q-.049-2.48-1.924-2.549a2.567,2.567,0,0,0-2.212,1.011A7.007,7.007,0,0,0,19.541-8.6l-.42,2.832a14.406,14.406,0,0,0-.127,1.846q.049,2.588,1.914,2.656a2.509,2.509,0,0,0,2.144-.957,6.786,6.786,0,0,0,1.206-3.223ZM31.807.2a3.209,3.209,0,0,1-2.7-1.274,5.657,5.657,0,0,1-.82-3.56q.02-.723.107-1.426l.352-2.373a8.8,8.8,0,0,1,1.787-4.531,4.273,4.273,0,0,1,3.477-1.445,3.247,3.247,0,0,1,2.71,1.245,5.532,5.532,0,0,1,.825,3.5q-.029.732-.117,1.436L37.09-5.937a9.329,9.329,0,0,1-1.826,4.7A4.246,4.246,0,0,1,31.807.2Zm3.916-8.75a15.115,15.115,0,0,0,.127-1.836q-.049-2.48-1.924-2.549a2.567,2.567,0,0,0-2.212,1.011A7.007,7.007,0,0,0,30.537-8.6l-.42,2.832a14.406,14.406,0,0,0-.127,1.846Q30.039-1.338,31.9-1.27a2.509,2.509,0,0,0,2.144-.957,6.786,6.786,0,0,0,1.206-3.223Zm11.162-2.021L46.66-9.395a4.132,4.132,0,0,1,3.213-1.367,3.26,3.26,0,0,1,1.7.459,2.251,2.251,0,0,1,.962,1.24,4.363,4.363,0,0,1,3.506-1.7A2.794,2.794,0,0,1,58.379-9.7a3.8,3.8,0,0,1,.557,2.754L57.773,0H56.016l1.152-6.963a3.679,3.679,0,0,0,0-.928q-.186-1.328-1.738-1.357a2.669,2.669,0,0,0-1.753.6,2.778,2.778,0,0,0-1.011,1.626L51.465,0H49.688l1.172-6.953a2.233,2.233,0,0,0-.327-1.67,1.721,1.721,0,0,0-1.411-.605,2.894,2.894,0,0,0-2.627,1.5L45.156,0H43.389l1.836-10.566Zm18.281-2.549-.449,2.559h1.924L66.4-9.17H64.482L63.379-2.6a2.292,2.292,0,0,0-.01.469.745.745,0,0,0,.83.762,5.062,5.062,0,0,0,.859-.1L64.922.01a4.809,4.809,0,0,1-1.289.176,1.846,1.846,0,0,1-1.582-.776,3,3,0,0,1-.41-2.036L62.715-9.17H60.85l.244-1.4h1.865l.449-2.559ZM73.477-2.861q.146-1.094-1.2-1.543l-1.836-.537q-2.324-.8-2.246-2.656a2.926,2.926,0,0,1,1.274-2.29,4.539,4.539,0,0,1,2.837-.874,3.784,3.784,0,0,1,2.6.933,2.954,2.954,0,0,1,.962,2.378l-1.758-.01a1.649,1.649,0,0,0-.5-1.289,1.971,1.971,0,0,0-1.377-.518,2.573,2.573,0,0,0-1.582.449,1.645,1.645,0,0,0-.713,1.152q-.127.918,1.123,1.338l.889.244a5.722,5.722,0,0,1,2.578,1.221A2.331,2.331,0,0,1,75.234-3a2.963,2.963,0,0,1-.645,1.719A3.685,3.685,0,0,1,73.027-.161,5.226,5.226,0,0,1,70.947.2a4.122,4.122,0,0,1-2.773-.981,3.034,3.034,0,0,1-1.055-2.476l1.768.01a1.873,1.873,0,0,0,.566,1.426,2.165,2.165,0,0,0,1.553.537,3.045,3.045,0,0,0,1.67-.405A1.559,1.559,0,0,0,73.477-2.861Z" transform="translate(1067.998 3789)" fill="#12263f"/>
    <g id="Grupo_110704" data-name="Grupo 110704" transform="translate(62 2232.5)">
      <line id="Línea_257" data-name="Línea 257" y2="229" transform="translate(914.998 1274.5)" fill="none" stroke="#ff9800" stroke-linecap="round" stroke-width="4"/>
      <line id="Línea_260" data-name="Línea 260" x1="18" transform="translate(905.998 1274)" fill="none" stroke="#ff9800" stroke-linecap="round" stroke-width="4"/>
      <line id="Línea_261" data-name="Línea 261" x1="18" transform="translate(905.998 1503.5)" fill="none" stroke="#ff9800" stroke-linecap="round" stroke-width="4"/>
    </g>
    <g id="Grupo_110705" data-name="Grupo 110705" transform="translate(47.002 2254)">
      <line id="Línea_258" data-name="Línea 258" x1="210" transform="translate(952.996 1505)" fill="none" stroke="#ff9800" stroke-linecap="round" stroke-width="4"/>
      <line id="Línea_262" data-name="Línea 262" x1="18" transform="translate(952.998 1496) rotate(90)" fill="none" stroke="#ff9800" stroke-linecap="round" stroke-width="4"/>
      <line id="Línea_263" data-name="Línea 263" x1="18" transform="translate(1162.998 1496) rotate(90)" fill="none" stroke="#ff9800" stroke-linecap="round" stroke-width="4"/>
    </g>
    <g id="Grupo_110706" data-name="Grupo 110706" transform="translate(-209.075 1636.996)">
      <rect id="Rectángulo_33720" data-name="Rectángulo 33720" width="194.904" height="217.46" transform="translate(1217.086 1879.021)" fill="#fff" stroke="#000" stroke-linecap="round" stroke-linejoin="round" stroke-miterlimit="10" stroke-width="4"/>
      <path id="Trazado_170307" data-name="Trazado 170307" d="M-501.44,715.5H-682.994c-5.9,0-10.681-3.986-10.681-8.9V558.1h202.914v148.5C-490.761,711.511-495.542,715.5-501.44,715.5Z" transform="translate(1906.755 1383.507)" fill="#fff1db" stroke="#000" stroke-linecap="round" stroke-linejoin="round" stroke-miterlimit="10" stroke-width="4"/>
      <rect id="Rectángulo_33721" data-name="Rectángulo 33721" width="210.924" height="9.518" transform="translate(1209.076 1869.504)" fill="#ff9800" stroke="#000" stroke-linecap="round" stroke-linejoin="round" stroke-miterlimit="10" stroke-width="4"/>
      <path id="Trazado_170308" data-name="Trazado 170308" d="M-613.045,568.346c-.923-9.7-.5-14.569,0-25.151.069-1.426-.68-2.712-2.1-2.613a436.129,436.129,0,0,1-61.471,0,2.125,2.125,0,0,0-2.106,2.613,92.8,92.8,0,0,1,0,25.151,2.117,2.117,0,0,0,2.106,2.613,436.791,436.791,0,0,1,61.471,0C-613.725,571.06-612.91,569.768-613.045,568.346Z" transform="translate(1924.037 1344.084)" fill="#fff" stroke="#000" stroke-linecap="round" stroke-linejoin="round" stroke-miterlimit="10" stroke-width="4"/>
      <path id="Trazado_170309" data-name="Trazado 170309" d="M-579.143,568.346c-.924-9.7-.5-14.569,0-25.151.069-1.426-.682-2.712-2.106-2.613a436.1,436.1,0,0,1-61.468,0,2.124,2.124,0,0,0-2.106,2.613,92.872,92.872,0,0,1,0,25.151,2.117,2.117,0,0,0,2.106,2.613,436.758,436.758,0,0,1,61.468,0C-579.825,571.06-579.007,569.768-579.143,568.346Z" transform="translate(1963.287 1344.084)" fill="#fff" stroke="#000" stroke-linecap="round" stroke-linejoin="round" stroke-miterlimit="10" stroke-width="4"/>
      <path id="Trazado_170310" data-name="Trazado 170310" d="M-490.91,576.2H-689.226c-3.483,0-6.3-2.134-6.3-4.764v-8.577c0-2.63,2.822-4.764,6.3-4.764H-490.91c3.48,0,6.3,2.134,6.3,4.764v8.577C-484.607,574.069-487.43,576.2-490.91,576.2Z" transform="translate(1904.607 1365.402)" fill="#ffc571" stroke="#000" stroke-linecap="round" stroke-linejoin="round" stroke-miterlimit="10" stroke-width="4"/>
    </g>
  </g>
</svg>
