<svg xmlns="http://www.w3.org/2000/svg" width="90" height="73.849" viewBox="0 0 90 73.849">
  <g id="Grupo_110603" data-name="Grupo 110603" transform="translate(1883.153 555.964)">
    <path id="Trazado_169826" data-name="Trazado 169826" d="M-1793.153-486.161c-.274.054-.226.322-.289.488a5.211,5.211,0,0,1-5.1,3.552c-3.75.009-7.5,0-11.249,0q-33.88,0-67.76,0a5.262,5.262,0,0,1-5.476-4.105,5.333,5.333,0,0,1-.123-1.393q0-24.389,0-48.777a5.247,5.247,0,0,1,5.521-5.49c1.5-.006,1.5-.006,1.508-1.482a5.259,5.259,0,0,1,5.552-5.549c1.055,0,2.109-.008,3.164,0a5.251,5.251,0,0,1,5.347,5.313c.019,1.717.027,1.616,1.711,1.749a2.215,2.215,0,0,0,2.549-1.539c1.413-3.1,3.038-6.1,4.527-9.162a5.563,5.563,0,0,1,5.5-3.411c6.5.051,13.007.028,19.51.011a5.246,5.246,0,0,1,5.062,3.1c1.712,3.409,3.425,6.817,5.112,10.239a1.116,1.116,0,0,0,1.171.743c6.005-.029,12.011-.018,18.017-.017,3.005,0,4.682,1.241,5.609,4.138.012.038.09.054.137.081Zm-45.087.527q19.64,0,39.279,0c1.663,0,2.289-.624,2.292-2.276,0-2.461-.029-4.921.02-7.381.014-.72-.15-.911-.893-.908q-11.423.048-22.847,0a3.011,3.011,0,0,0-2.224.884,22.3,22.3,0,0,1-20.2,5.654,21.9,21.9,0,0,1-11.277-6,1.487,1.487,0,0,0-1.125-.532q-11.863.032-23.726,0c-.586,0-.719.166-.712.727.03,2.46.012,4.921.013,7.381,0,1.9.556,2.453,2.469,2.453Zm.065-52.735h-39.015c-1.894,0-2.445.559-2.446,2.476,0,2.431.031,4.863-.02,7.293-.014.692.205.794.829.792q11.468-.033,22.935.009a3.011,3.011,0,0,0,2.216-.905,22.323,22.323,0,0,1,20.119-5.65,21.861,21.861,0,0,1,11.355,6.034,1.489,1.489,0,0,0,1.133.512q11.862-.028,23.725,0c.631,0,.69-.232.686-.752-.023-2.431-.01-4.862-.01-7.293,0-1.976-.536-2.518-2.492-2.518Zm19.361,14.063c4.723,8.245,4.706,16.415.008,24.609,7.252,0,14.4,0,21.547.009.447,0,.6-.1.6-.579q-.022-11.733,0-23.466c0-.472-.145-.583-.6-.583C-1804.4-524.3-1811.551-524.306-1818.815-524.306Zm-38.671.054a2.489,2.489,0,0,0-.323-.053c-7.06,0-14.12.009-21.18-.021-.689,0-.655.322-.654.793.007,7.675.018,15.351-.016,23.026,0,.755.276.823.9.822q10.238-.026,20.477-.011h.846a23.159,23.159,0,0,1-3.569-12.329A23.155,23.155,0,0,1-1857.485-524.251Zm38.667,12.289a19.238,19.238,0,0,0-19.3-19.329,19.1,19.1,0,0,0-19.335,19.251,19.1,19.1,0,0,0,19.257,19.329A19.239,19.239,0,0,0-1818.819-511.962Zm-2.986-29.945c.08-.286-.11-.469-.209-.669-1.4-2.822-2.825-5.631-4.21-8.461a2.27,2.27,0,0,0-2.282-1.409q-9.622.045-19.245,0A2.318,2.318,0,0,0-1850.1-551c-1.378,2.832-2.809,5.639-4.208,8.462-.093.187-.317.363-.169.632Zm-47.3.023h2.2c1.356,0,1.356,0,1.334-1.393a1.877,1.877,0,0,0-2.1-2.12c-.82-.011-1.64,0-2.46,0-2.032,0-2.965,1.235-2.486,3.237.089.372.319.272.524.274C-1871.1-541.879-1870.1-541.884-1869.1-541.884Z" fill="#060607"/>
    <path id="Trazado_169827" data-name="Trazado 169827" d="M-1825.838-274.038h-38.928c-1.912,0-2.468-.552-2.468-2.453,0-2.46.017-4.921-.013-7.381-.007-.561.125-.728.712-.727q11.863.031,23.726,0a1.487,1.487,0,0,1,1.125.532,21.9,21.9,0,0,0,11.277,6,22.3,22.3,0,0,0,20.2-5.654,3.011,3.011,0,0,1,2.224-.884q11.424.051,22.847,0c.743,0,.908.188.893.908-.049,2.46-.016,4.921-.02,7.381,0,1.652-.629,2.276-2.292,2.276Q-1806.2-274.036-1825.838-274.038Z" transform="translate(-12.403 -211.596)" fill="#c0e5fb"/>
    <path id="Trazado_169828" data-name="Trazado 169828" d="M-1825.8-476.07h39.015c1.955,0,2.491.542,2.492,2.518,0,2.431-.012,4.862.01,7.293,0,.52-.055.754-.686.752q-11.863-.038-23.725,0a1.489,1.489,0,0,1-1.133-.512,21.861,21.861,0,0,0-11.355-6.034,22.323,22.323,0,0,0-20.119,5.65,3.011,3.011,0,0,1-2.216.905q-11.467-.06-22.934-.009c-.624,0-.844-.1-.829-.792.05-2.43.019-4.862.02-7.293,0-1.917.552-2.476,2.446-2.476Zm34.474,3.516c-.556,0-1.112-.019-1.667,0a1.8,1.8,0,0,0-1.841,1.733,1.777,1.777,0,0,0,1.8,1.768q1.71.052,3.422,0a1.776,1.776,0,0,0,1.8-1.772,1.8,1.8,0,0,0-1.845-1.729C-1790.212-472.573-1790.768-472.554-1791.324-472.554Zm-8.828,3.509a1.819,1.819,0,0,0,1.794-1.689,1.823,1.823,0,0,0-1.667-1.815,1.819,1.819,0,0,0-1.838,1.731A1.815,1.815,0,0,0-1800.152-469.045Z" transform="translate(-12.378 -62.298)" fill="#c0e5fb"/>
    <path id="Trazado_169829" data-name="Trazado 169829" d="M-1591.021-412.25c7.264,0,14.411,0,21.559-.009.452,0,.6.11.6.583q-.022,11.733,0,23.466c0,.477-.154.58-.6.579-7.148-.013-14.3-.009-21.547-.009C-1586.314-395.835-1586.3-404.005-1591.021-412.25Z" transform="translate(-227.794 -112.056)" fill="#ffc571"/>
    <path id="Trazado_169830" data-name="Trazado 169830" d="M-1845.107-412.234a23.156,23.156,0,0,0-3.521,12.226,23.159,23.159,0,0,0,3.569,12.329h-.846q-10.238,0-20.477.011c-.621,0-.9-.066-.9-.822.034-7.675.023-15.35.016-23.026,0-.471-.035-.8.654-.793,7.06.03,14.12.019,21.18.021A2.49,2.49,0,0,1-1845.107-412.234Z" transform="translate(-12.378 -112.018)" fill="#ffc571"/>
    <path id="Trazado_169831" data-name="Trazado 169831" d="M-1727.812-424.608a19.239,19.239,0,0,1-19.373,19.251,19.1,19.1,0,0,1-19.257-19.329,19.1,19.1,0,0,1,19.335-19.251A19.238,19.238,0,0,1-1727.812-424.608Zm-35.155-.074a15.841,15.841,0,0,0,15.72,15.86,15.86,15.86,0,0,0,15.926-15.747,15.861,15.861,0,0,0-15.769-15.9A15.842,15.842,0,0,0-1762.967-424.682Z" transform="translate(-91.006 -87.354)" fill="#45444a"/>
    <path id="Trazado_169832" data-name="Trazado 169832" d="M-1720.444-529.455h-32.671c-.148-.269.076-.445.169-.632,1.4-2.822,2.83-5.629,4.208-8.462a2.318,2.318,0,0,1,2.348-1.445q9.622.049,19.245,0a2.27,2.27,0,0,1,2.282,1.409c1.385,2.829,2.81,5.639,4.21,8.461C-1720.554-529.924-1720.363-529.741-1720.444-529.455Zm-16.351-3.492c1.639,0,3.278.005,4.917,0,1.27-.005,2.093-.689,2.111-1.732a1.828,1.828,0,0,0-2.062-1.78q-4.961-.012-9.922,0a1.829,1.829,0,0,0-2.067,1.774c.014,1.043.838,1.731,2.105,1.737C-1740.073-532.942-1738.434-532.947-1736.795-532.947Z" transform="translate(-101.361 -12.453)" fill="#c0e5fb"/>
    <path id="Trazado_169833" data-name="Trazado 169833" d="M-1832.232-504.493c-1,0-1.991.005-2.987,0-.2,0-.435.1-.524-.274-.479-2,.454-3.236,2.486-3.237.82,0,1.64-.009,2.46,0a1.877,1.877,0,0,1,2.1,2.12c.021,1.393.021,1.393-1.334,1.393Z" transform="translate(-36.873 -37.391)" fill="#c0e5fb"/>
    <path id="Trazado_169834" data-name="Trazado 169834" d="M-1534.824-460.13c.556,0,1.112-.019,1.667,0a1.8,1.8,0,0,1,1.845,1.729,1.776,1.776,0,0,1-1.8,1.772q-1.71.053-3.422,0a1.777,1.777,0,0,1-1.8-1.768,1.8,1.8,0,0,1,1.84-1.733C-1535.936-460.149-1535.38-460.13-1534.824-460.13Z" transform="translate(-268.879 -74.722)" fill="#080809"/>
    <path id="Trazado_169835" data-name="Trazado 169835" d="M-1568.547-456.582a1.815,1.815,0,0,1-1.711-1.772,1.819,1.819,0,0,1,1.838-1.731,1.823,1.823,0,0,1,1.667,1.815A1.819,1.819,0,0,1-1568.547-456.582Z" transform="translate(-243.984 -74.761)" fill="#080809"/>
    <path id="Trazado_169836" data-name="Trazado 169836" d="M-1750.661-412.415a15.842,15.842,0,0,1,15.877-15.791,15.861,15.861,0,0,1,15.769,15.9,15.86,15.86,0,0,1-15.926,15.747A15.84,15.84,0,0,1-1750.661-412.415Zm28.123.044a12.368,12.368,0,0,0-12.249-12.313,12.367,12.367,0,0,0-12.356,12.293,12.368,12.368,0,0,0,12.249,12.313A12.367,12.367,0,0,0-1722.537-412.371Z" transform="translate(-103.313 -99.621)" fill="#080809"/>
    <path id="Trazado_169837" data-name="Trazado 169837" d="M-1703.7-520.456c-1.639,0-3.278.005-4.917,0-1.267-.006-2.092-.694-2.105-1.737a1.829,1.829,0,0,1,2.067-1.774q4.961-.012,9.922,0a1.828,1.828,0,0,1,2.062,1.78c-.018,1.043-.842,1.726-2.111,1.732C-1700.427-520.45-1702.066-520.456-1703.7-520.456Z" transform="translate(-134.451 -24.944)" fill="#060607"/>
    <path id="Trazado_169838" data-name="Trazado 169838" d="M-1710.083-399.9a12.367,12.367,0,0,1-12.357,12.293,12.368,12.368,0,0,1-12.249-12.313,12.367,12.367,0,0,1,12.356-12.293A12.368,12.368,0,0,1-1710.083-399.9Zm-21.087-.43c-.026,1.269.615,2.106,1.661,2.17,1,.062,1.737-.692,1.859-1.9a5.279,5.279,0,0,1,5.126-5.117c1.2-.122,1.956-.87,1.887-1.868a1.846,1.846,0,0,0-2.092-1.653A8.938,8.938,0,0,0-1731.169-400.328Z" transform="translate(-115.768 -112.093)" fill="#fff"/>
    <path id="Trazado_169839" data-name="Trazado 169839" d="M-1718.715-387.876a8.938,8.938,0,0,1,8.442-8.366,1.846,1.846,0,0,1,2.092,1.653c.068,1-.687,1.747-1.887,1.868a5.279,5.279,0,0,0-5.126,5.117c-.122,1.206-.86,1.96-1.859,1.9C-1718.1-385.771-1718.74-386.607-1718.715-387.876Z" transform="translate(-128.222 -124.545)" fill="#080809"/>
  </g>
</svg>
