<svg xmlns="http://www.w3.org/2000/svg" width="90" height="80.189" viewBox="0 0 90 80.189">
  <g id="Grupo_110599" data-name="Grupo 110599" transform="translate(837.187 -646.747)">
    <path id="Trazado_169778" data-name="Trazado 169778" d="M-747.187,718.5c-.3.174-.227.517-.314.773a6.983,6.983,0,0,1-6.615,4.843c-2.577.016-5.155.023-7.732-.01-.615-.008-.863.083-.834.786.06,1.426-.388,2.035-1.322,2.039s-1.35-.6-1.316-2.042c.014-.6-.133-.784-.763-.783q-26.1.027-52.2,0c-.613,0-.855.152-.766.772a3.4,3.4,0,0,1-.011.789,1.3,1.3,0,0,1-1.3,1.263,1.35,1.35,0,0,1-1.349-1.237c-.062-.511.24-1.234-.147-1.485s-1.071-.087-1.625-.088c-2.255,0-4.511.011-6.766-.005a6.939,6.939,0,0,1-6.939-6.988q-.007-24.648,0-49.3a6.936,6.936,0,0,1,6.948-6.98c2.167-.017,4.335-.019,6.5.008.5.006.655-.134.626-.631-.041-.7-.021-1.406-.007-2.108a1.327,1.327,0,0,1,1.446-1.487q2.724-.024,5.448,0a1.282,1.282,0,0,1,1.4,1.344c.038.76.039,1.524.006,2.284-.02.461.128.6.591.6,1.991-.023,3.984-.027,5.975,0,.508.008.626-.151.621-.637-.024-2.49.037-4.981-.022-7.469a5.788,5.788,0,0,1,5.98-6.01c6.383.122,12.77.036,19.155.038a5.564,5.564,0,0,1,5.776,5.723c.016,2.548.023,5.1-.012,7.645-.008.589.168.721.728.711,1.9-.034,3.808-.042,5.711,0,.643.015.8-.2.754-.793a17.014,17.014,0,0,1,0-2.107,1.277,1.277,0,0,1,1.414-1.33q2.724-.023,5.448,0a1.313,1.313,0,0,1,1.43,1.413c.021.732.039,1.467-.007,2.2-.032.52.165.621.642.615,2.021-.025,4.042-.013,6.063-.01a6.923,6.923,0,0,1,7.248,5.695c.01.042.083.068.126.1v39.727a1.95,1.95,0,0,1-1.325.892c-1.207-.483-1.312-.638-1.312-1.943q0-5.535,0-11.071,0-13.179,0-26.359a4.163,4.163,0,0,0-3.6-4.256c-.338-.263-.734-.15-1.1-.15q-37.654-.006-75.309,0a4.376,4.376,0,0,0-4.7,4.689c0,16.169.029,32.339-.028,48.508a4.643,4.643,0,0,0,4.881,4.826q33.92-.058,67.84-.021c2.548,0,5.1.011,7.645,0a4.317,4.317,0,0,0,4.235-3.27,8.872,8.872,0,0,0,.123-2.526c.01-.991.023-1.982.027-2.973.006-1.243.195-1.516,1.336-1.9a2.064,2.064,0,0,1,1.3.832Zm-45.039-57.652c3.982,0,7.964-.02,11.945.019.711.007.865-.209.842-.871-.049-1.4-.039-2.811,0-4.215.014-.556-.117-.742-.715-.74q-12.033.032-24.066,0c-.615,0-.717.21-.705.75.032,1.434.043,2.87,0,4.3-.021.612.145.775.762.771C-800.189,660.838-796.208,660.852-792.226,660.852Zm.036-8.459v.019c4.011,0,8.021-.016,12.032.016.672.005.78-.2.64-.792a2.913,2.913,0,0,0-2.827-2.2q-9.836-.019-19.672.02a2.886,2.886,0,0,0-2.779,2.036c-.157.564-.2.936.662.925C-800.153,652.364-796.171,652.392-792.19,652.392ZM-819,660.819c.321,0,.643-.016.963,0,.358.023.5-.081.528-.479.042-.713-.049-1.185-.95-1.039a6.636,6.636,0,0,1-1.4.007c-.4-.021-.555.1-.58.532-.041.694.058,1.156.914.98A2.682,2.682,0,0,1-819,660.819Zm53.662-1.5c-.35,0-.7,0-1.051,0-.2,0-.383-.015-.464.267-.239.823.044,1.23.9,1.232.379,0,.76-.021,1.138,0,.553.038.9.009.9-.75,0-.742-.324-.82-.894-.759A5.1,5.1,0,0,1-765.336,659.319Z" fill="#070708"/>
    <path id="Trazado_169779" data-name="Trazado 169779" d="M-682.9,786.248q.011,1.775.022,3.549c-1.141.385-1.33.658-1.336,1.9,0,.991-.018,1.982-.027,2.973-3.213,0-6.425.007-9.638,0-3.066-.006-6.132-.026-9.2-.04,2.146-2.533,2.365-4.455.831-7.359q-6.61-12.517-13.224-25.033c-2.109-3.991-4.177-8.005-6.356-11.958a5.378,5.378,0,0,0-6.8-2.372,6.193,6.193,0,0,0-3.2,3.187q-9.523,18.1-19.076,36.177c-1.534,2.909-1.308,4.895.84,7.352-.585.016-1.171.008-1.754.051-3.063.226-5.74-2.642-5.727-5.669.066-15.084.03-30.168.03-45.252,0-1.118,0-1.119,1.158-1.119h67.482c.351,0,.7-.011,1.054-.017a4.163,4.163,0,0,1,3.6,4.256q.007,13.179,0,26.359,0,5.535,0,11.071C-684.216,785.61-684.111,785.764-682.9,786.248Z" transform="translate(-65.608 -78.981)" fill="#fff1db"/>
    <path id="Trazado_169780" data-name="Trazado 169780" d="M-741.224,741.8c-.351.006-.7.017-1.054.017H-809.76c-1.157,0-1.158,0-1.158,1.119,0,15.084.036,30.168-.03,45.252-.013,3.027,2.664,5.9,5.727,5.669.583-.043,1.169-.035,1.754-.051a7.285,7.285,0,0,0,4.823,1.431q18.624-.037,37.248,0a7.447,7.447,0,0,0,4.915-1.426c3.066.014,6.132.034,9.2.04,3.213.007,6.425,0,9.638,0a8.872,8.872,0,0,1-.123,2.526,4.317,4.317,0,0,1-4.235,3.27c-2.548.014-5.1,0-7.645,0q-33.92,0-67.84.021a4.643,4.643,0,0,1-4.881-4.826c.057-16.169.028-32.338.028-48.508a4.376,4.376,0,0,1,4.7-4.689q37.654,0,75.309,0C-741.959,741.655-741.563,741.542-741.224,741.8Z" transform="translate(-12.207 -78.166)" fill="#fff1db"/>
    <path id="Trazado_169781" data-name="Trazado 169781" d="M-641.153,664.929c-3.981,0-7.963-.029-11.943.023-.859.011-.82-.361-.662-.925a2.887,2.887,0,0,1,2.779-2.036q9.836-.04,19.672-.02a2.913,2.913,0,0,1,2.827,2.2c.139.59.031.8-.64.792-4.01-.032-8.021-.016-12.032-.016Z" transform="translate(-151.037 -12.536)" fill="#ffb74d"/>
    <path id="Trazado_169782" data-name="Trazado 169782" d="M-740.718,719.416a2.668,2.668,0,0,0-.524.005c-.856.176-.955-.286-.914-.98.026-.433.181-.553.58-.532a6.636,6.636,0,0,0,1.4-.007c.9-.146.992.326.95,1.039-.023.4-.17.5-.528.479C-740.075,719.4-740.4,719.416-740.718,719.416Z" transform="translate(-78.281 -58.597)" fill="#ffee58"/>
    <path id="Trazado_169783" data-name="Trazado 169783" d="M-436.848,718.009a5,5,0,0,0,.525,0c.57-.062.889.017.894.759,0,.759-.345.788-.9.75-.378-.026-.759,0-1.138,0-.855,0-1.138-.41-.9-1.232.082-.282.264-.264.464-.267C-437.548,718.006-437.2,718.009-436.848,718.009Z" transform="translate(-328.489 -58.69)" fill="#ffee58"/>
    <path id="Trazado_169784" data-name="Trazado 169784" d="M-676.66,817.489a7.447,7.447,0,0,1-4.915,1.426q-18.624-.039-37.248,0a7.285,7.285,0,0,1-4.824-1.431c-2.148-2.458-2.375-4.444-.84-7.352q9.542-18.087,19.076-36.177a6.193,6.193,0,0,1,3.2-3.187,5.378,5.378,0,0,1,6.8,2.372c2.179,3.952,4.247,7.967,6.356,11.958q6.615,12.515,13.224,25.033C-674.295,813.034-674.513,814.956-676.66,817.489Zm-23.522-1.246q9.662,0,19.325,0c2.813-.005,4.124-2.168,2.819-4.642q-9.657-18.311-19.325-36.617a3.042,3.042,0,0,0-2.768-1.944,3.05,3.05,0,0,0-2.836,1.975c-2.245,4.293-4.516,8.572-6.779,12.856q-6.256,11.844-12.513,23.688a3.213,3.213,0,0,0-.5,2.338c.384,1.56,1.473,2.347,3.339,2.348Q-709.8,816.249-700.181,816.243Z" transform="translate(-92.029 -101.837)" fill="#070708"/>
    <path id="Trazado_169785" data-name="Trazado 169785" d="M-687.789,828.735q-9.619,0-19.237,0c-1.867,0-2.955-.788-3.339-2.348a3.213,3.213,0,0,1,.5-2.338q6.254-11.845,12.513-23.688c2.263-4.284,4.534-8.563,6.779-12.856a3.05,3.05,0,0,1,2.836-1.975,3.042,3.042,0,0,1,2.768,1.944q9.655,18.312,19.325,36.617c1.3,2.474-.007,4.637-2.819,4.642Q-678.126,828.75-687.789,828.735Zm.06-32.414c-1.113,0-2.226-.024-3.338.007-1.052.03-1.635.646-1.542,1.6q.67,6.853,1.36,13.7a1.466,1.466,0,0,0,1.689,1.491c1.171.012,2.343.009,3.514,0,1.2-.008,1.668-.47,1.784-1.681q.639-6.636,1.3-13.27c.123-1.222-.359-1.818-1.607-1.844C-685.62,796.3-686.674,796.319-687.728,796.32Zm4.129,23.922a4.171,4.171,0,0,0-4.085-4.177,4.178,4.178,0,0,0-4.246,4.1,4.238,4.238,0,0,0,4.085,4.2A4.235,4.235,0,0,0-683.6,820.243Z" transform="translate(-104.421 -114.329)" fill="#ffee58"/>
    <path id="Trazado_169786" data-name="Trazado 169786" d="M-604.432,846.741c1.054,0,2.109-.018,3.163,0,1.249.026,1.73.622,1.607,1.844q-.667,6.633-1.3,13.27c-.117,1.211-.581,1.673-1.784,1.681-1.171.008-2.343.011-3.514,0a1.466,1.466,0,0,1-1.689-1.491q-.693-6.851-1.361-13.7c-.093-.95.489-1.565,1.542-1.6C-606.658,846.717-605.545,846.742-604.432,846.741Zm-.037,2.7c-.527,0-1.054,0-1.581,0-.309,0-.467.049-.426.443q.539,5.193,1.029,10.39c.045.469.226.625.712.622,1.222-.007,1.2.018,1.316-1.224.246-2.679.478-5.361.787-8.033C-602.379,849.437-602.334,849.443-604.469,849.443Z" transform="translate(-187.718 -164.751)" fill="#070708"/>
    <path id="Trazado_169787" data-name="Trazado 169787" d="M-597.089,963.026a4.235,4.235,0,0,1-4.246,4.128,4.238,4.238,0,0,1-4.085-4.2,4.178,4.178,0,0,1,4.246-4.1A4.171,4.171,0,0,1-597.089,963.026Zm-2.7-.074a1.43,1.43,0,0,0-1.548-1.423,1.43,1.43,0,0,0-1.386,1.5,1.486,1.486,0,0,0,1.462,1.452A1.486,1.486,0,0,0-599.788,962.952Z" transform="translate(-190.932 -257.112)" fill="#070708"/>
    <path id="Trazado_169788" data-name="Trazado 169788" d="M-591.2,862.1c2.135,0,2.09-.005,1.836,2.2-.308,2.672-.541,5.354-.787,8.033-.114,1.242-.094,1.216-1.316,1.224-.485,0-.667-.153-.712-.622q-.5-5.2-1.029-10.39c-.041-.394.117-.447.426-.443C-592.25,862.11-591.723,862.105-591.2,862.1Z" transform="translate(-200.991 -177.413)" fill="#ff9800"/>
    <path id="Trazado_169789" data-name="Trazado 169789" d="M-587.178,975.481a1.486,1.486,0,0,1-1.472,1.528,1.486,1.486,0,0,1-1.462-1.452,1.43,1.43,0,0,1,1.386-1.5A1.43,1.43,0,0,1-587.178,975.481Z" transform="translate(-203.543 -269.642)" fill="#ff9800"/>
  </g>
</svg>
