<svg xmlns="http://www.w3.org/2000/svg" width="100" height="99.988" viewBox="0 0 100 99.988">
  <g id="Grupo_110668" data-name="Grupo 110668" transform="translate(761.43 -1457.905)">
    <path id="Trazado_170219" data-name="Trazado 170219" d="M-661.43,1551.25c-.316.1-.275.417-.347.642a8.292,8.292,0,0,1-8.195,5.993q-12.153.02-24.307,0-20.793,0-41.585,0c-5.383,0-8.912-3.53-8.917-8.918,0-4.881-.012-9.762.012-14.643a1.84,1.84,0,0,0-.6-1.446q-6.617-6.567-13.2-13.171c-3.815-3.819-3.818-8.792,0-12.609q23.151-23.166,46.294-46.34a11.7,11.7,0,0,1,4.956-2.858h2.734a10.7,10.7,0,0,1,4.6,2.509q14.673,14.714,29.373,29.4a8.186,8.186,0,0,1,2.226,4.04c.3,1.332-.087,1.994-1.43,2.382a1.631,1.631,0,0,1-1.771-1.352,6.19,6.19,0,0,0-1.829-3.148q-9.467-9.439-18.9-18.915c-.521-.524-.79-.575-1.343-.019q-12.941,13-25.923,25.966c-.189.19-.5.322-.476.735h1.065q11.808,0,23.615,0,12.2-.005,24.395-.019c.387.022.773.052,1.16.064a8.341,8.341,0,0,1,8.2,6.685c.031.128.039.252.188.3Zm-41.593,3.315q16.352,0,32.7,0c3.53,0,5.563-2.038,5.563-5.577q0-20.257,0-40.514c0-3.562-2.057-5.612-5.652-5.612q-32.7-.005-65.407,0c-3.55,0-5.638,2.095-5.639,5.653q-.007,20.208,0,40.416c0,3.58,2.063,5.634,5.63,5.634Q-719.424,1554.567-703.023,1554.565Zm-2.96-93.292a5.921,5.921,0,0,0-3.9,1.85q-23.142,23.183-46.311,46.338c-.207.207-.42.409-.613.63a5.04,5.04,0,0,0-.309,6.232c.238.312.425.65.878.169,4.388-4.662,9.33-8.791,13.346-13.809.918-1.147,2.23-1.772,3.24-2.784q18.216-18.237,36.446-36.458a3.871,3.871,0,0,1,.348-.342c.4-.306.339-.547-.06-.808A6.068,6.068,0,0,0-705.983,1461.274Zm-28.3,38.2c2.953,0,5.867,0,8.781,0a1.026,1.026,0,0,0,.737-.417q14.427-14.429,28.862-28.849c.41-.409.356-.619-.026-.986-1.15-1.1-2.31-2.2-3.372-3.391-.624-.7-.969-.58-1.574.027q-16.368,16.422-32.773,32.808A1.763,1.763,0,0,0-734.286,1499.479Zm-10.548,10.373c-3.1,3.105-6.036,6.046-8.983,8.972-.338.335-.316.544.012.864q1.916,1.871,3.785,3.789c.318.327.509.358.844.013,1.311-1.351,2.65-2.675,3.988-4a1.121,1.121,0,0,0,.359-.86C-744.839,1515.78-744.835,1512.93-744.835,1509.852Zm-.008,14.424-.244-.159c-.59.642-1.176,1.286-1.772,1.923-.169.18-.31.331-.06.557a19.621,19.621,0,0,0,2.076,1.939Z"/>
    <path id="Trazado_170220" data-name="Trazado 170220" d="M-646.474,1681.848q-16.4,0-32.8,0c-3.567,0-5.628-2.054-5.63-5.634q-.008-20.208,0-40.416c0-3.558,2.089-5.652,5.639-5.653q32.7-.005,65.407,0c3.595,0,5.651,2.05,5.652,5.612q0,20.257,0,40.514c0,3.539-2.034,5.576-5.563,5.577Q-630.122,1681.85-646.474,1681.848Zm-26.756-33.365h4.98a3.3,3.3,0,0,0,3.394-3.39q.039-3.222,0-6.444a3.336,3.336,0,0,0-3.537-3.464q-4.784-.014-9.569,0a3.35,3.35,0,0,0-3.6,3.41c-.068,2.146-.064,4.3,0,6.443a3.35,3.35,0,0,0,3.648,3.446C-676.354,1648.488-674.792,1648.482-673.23,1648.482Zm-3.345,16.732c1.04,0,2.08.02,3.12-.005a1.8,1.8,0,0,0,1.939-1.663,1.756,1.756,0,0,0-1.862-1.73q-3.167-.075-6.337,0a1.706,1.706,0,0,0-1.826,1.751,1.766,1.766,0,0,0,1.944,1.643C-678.59,1665.231-677.582,1665.214-676.575,1665.214Zm13.313,0c1.071,0,2.144.03,3.214-.008a1.745,1.745,0,0,0,1.843-1.631,1.64,1.64,0,0,0-1.72-1.733c-2.172-.072-4.349-.07-6.521,0a1.581,1.581,0,0,0-1.723,1.7c.016.983.716,1.626,1.888,1.665C-665.276,1665.24-664.268,1665.214-663.262,1665.213Zm13.3,0h3.019c.033,0,.065,0,.1,0,1.187-.055,1.91-.659,1.942-1.621a1.637,1.637,0,0,0-1.776-1.763q-3.21-.1-6.426,0a1.661,1.661,0,0,0-1.762,1.69,1.747,1.747,0,0,0,1.887,1.686C-651.976,1665.24-650.969,1665.214-649.963,1665.215Zm-26.619,3.33c-1.071,0-2.142-.015-3.212,0a1.672,1.672,0,0,0-1.738,1.485,1.658,1.658,0,0,0,1.546,1.8q3.452.1,6.908,0a1.654,1.654,0,0,0,1.556-1.792,1.732,1.732,0,0,0-1.751-1.49C-674.376,1668.529-675.479,1668.544-676.582,1668.544Zm13.347,3.323c1.074,0,2.149.032,3.222-.009a1.733,1.733,0,0,0,1.808-1.67c0-1.013-.694-1.635-1.881-1.643q-3.075-.02-6.151,0c-1.28.006-1.947.6-1.932,1.672a1.714,1.714,0,0,0,1.907,1.649C-665.253,1671.884-664.244,1671.87-663.235,1671.868Zm-18.344-16.719c0,.487-.016.975,0,1.461a1.758,1.758,0,0,0,1.678,1.906,1.7,1.7,0,0,0,1.715-1.758,28.542,28.542,0,0,0,.006-3.213,1.758,1.758,0,0,0-1.671-1.723,1.76,1.76,0,0,0-1.722,1.768C-681.608,1654.107-681.577,1654.629-681.579,1655.148Zm56.735.043c0-.551.037-1.105-.008-1.653a1.784,1.784,0,0,0-1.676-1.717,1.656,1.656,0,0,0-1.663,1.588,23.353,23.353,0,0,0-.014,3.492,1.686,1.686,0,0,0,1.745,1.608,1.738,1.738,0,0,0,1.612-1.763C-624.814,1656.231-624.842,1655.711-624.844,1655.192Zm-10.069-.028h.011a17.283,17.283,0,0,0,.011,1.748,1.716,1.716,0,0,0,1.663,1.6,1.665,1.665,0,0,0,1.636-1.495,13.985,13.985,0,0,0,.038-3.584,1.706,1.706,0,0,0-1.744-1.611,1.791,1.791,0,0,0-1.61,1.782C-634.941,1654.125-634.913,1654.645-634.913,1655.164Zm-39.909.025c0,.585-.018,1.171,0,1.756a1.434,1.434,0,0,0,1.281,1.482,1.442,1.442,0,0,0,1.855-1.016,10.06,10.06,0,0,0,.008-4.436,1.437,1.437,0,0,0-1.714-1.118,1.512,1.512,0,0,0-1.434,1.575C-674.831,1654.017-674.823,1654.6-674.821,1655.189Zm6.654-.066h0c0,.585-.012,1.171,0,1.756a1.464,1.464,0,0,0,1.32,1.551,1.432,1.432,0,0,0,1.834-1.047,10.374,10.374,0,0,0,0-4.436,1.428,1.428,0,0,0-1.731-1.084,1.535,1.535,0,0,0-1.411,1.5C-668.193,1653.951-668.167,1654.538-668.167,1655.123Zm29.921.042c0-.553.017-1.106,0-1.658a1.733,1.733,0,0,0-1.471-1.675,1.621,1.621,0,0,0-1.783,1.445,23.764,23.764,0,0,0,0,3.794,1.523,1.523,0,0,0,1.8,1.381,1.522,1.522,0,0,0,1.455-1.629C-638.23,1656.271-638.247,1655.717-638.246,1655.164Zm16.745-.047h-.005c0,.585-.01,1.171,0,1.755a1.471,1.471,0,0,0,1.312,1.559,1.456,1.456,0,0,0,1.87-1.135,10.705,10.705,0,0,0-.028-4.345,1.437,1.437,0,0,0-1.73-1.09,1.531,1.531,0,0,0-1.415,1.5C-621.528,1653.945-621.5,1654.532-621.5,1655.117Zm-40.017.039c0,.585-.028,1.171.007,1.754a1.55,1.55,0,0,0,1.56,1.544,1.55,1.55,0,0,0,1.729-1.469c.061-1.2.06-2.406,0-3.605a1.669,1.669,0,0,0-1.7-1.548,1.7,1.7,0,0,0-1.59,1.667C-661.544,1654.051-661.521,1654.6-661.518,1655.156Zm9.964.052c0-.585.029-1.172-.007-1.754a1.7,1.7,0,0,0-1.634-1.627,1.681,1.681,0,0,0-1.661,1.6c-.047,1.168-.048,2.341,0,3.509a1.551,1.551,0,0,0,1.681,1.522,1.562,1.562,0,0,0,1.617-1.591C-651.527,1656.315-651.552,1655.761-651.555,1655.208Z" transform="translate(-56.549 -127.282)" fill="#ff9800"/>
    <path id="Trazado_170221" data-name="Trazado 170221" d="M-552.661,1537.3a7.456,7.456,0,0,1-1.165,3.248q-12.2.01-24.395.019-11.808,0-23.615,0H-602.9c-.021-.414.286-.546.476-.735q12.963-12.982,25.923-25.966c.554-.556.822-.505,1.343.019q9.425,9.482,18.9,18.915a6.19,6.19,0,0,1,1.829,3.148A1.631,1.631,0,0,0-552.661,1537.3Z" transform="translate(-117.152 -41.061)" fill="#ff9800"/>
    <path id="Trazado_170222" data-name="Trazado 170222" d="M-696.426,1470.812a6.068,6.068,0,0,1,3.06,1.017c.4.261.456.5.06.808a3.9,3.9,0,0,0-.348.342q-18.225,18.227-36.446,36.458c-1.01,1.011-2.322,1.637-3.24,2.784-4.016,5.018-8.958,9.147-13.346,13.809-.453.481-.639.143-.878-.169a5.04,5.04,0,0,1,.309-6.232c.192-.22.406-.422.613-.63q23.159-23.165,46.311-46.338A5.922,5.922,0,0,1-696.426,1470.812Z" transform="translate(-9.558 -9.538)" fill="#ff9800"/>
    <path id="Trazado_170223" data-name="Trazado 170223" d="M-657.43,1520.592a1.764,1.764,0,0,1,.635-.806q16.389-16.4,32.773-32.808c.6-.607.95-.723,1.574-.027,1.062,1.186,2.222,2.287,3.372,3.391.383.367.437.576.026.985q-14.444,14.411-28.862,28.849a1.027,1.027,0,0,1-.737.417C-651.563,1520.59-654.477,1520.592-657.43,1520.592Z" transform="translate(-76.856 -21.113)" fill="#111e61"/>
    <path id="Trazado_170224" data-name="Trazado 170224" d="M-723.971,1656.935c0,3.078,0,5.928.005,8.778a1.121,1.121,0,0,1-.359.86c-1.338,1.325-2.676,2.649-3.988,4-.335.345-.526.314-.844-.013q-1.867-1.919-3.785-3.789c-.328-.321-.349-.529-.012-.864C-730.007,1662.981-727.076,1660.04-723.971,1656.935Z" transform="translate(-20.864 -147.083)" fill="#111e61"/>
    <path id="Trazado_170225" data-name="Trazado 170225" d="M-704.135,1711.747v4.26a19.621,19.621,0,0,1-2.076-1.939c-.25-.227-.109-.377.06-.557.6-.636,1.182-1.281,1.772-1.923Z" transform="translate(-40.708 -187.472)" fill="#ff9800"/>
    <path id="Trazado_170226" data-name="Trazado 170226" d="M-663.895,1662.737c-1.562,0-3.124.005-4.687,0a3.349,3.349,0,0,1-3.648-3.446c-.062-2.146-.066-4.3,0-6.443a3.35,3.35,0,0,1,3.6-3.41q4.784-.012,9.569,0a3.336,3.336,0,0,1,3.537,3.464q.042,3.222,0,6.444a3.3,3.3,0,0,1-3.394,3.39h-4.98Zm0-9.933c-1.4,0-2.794.024-4.19-.012-.557-.014-.72.165-.71.714q.046,2.582,0,5.165c-.01.556.162.714.714.709q4.239-.038,8.478,0c.556.005.721-.163.711-.714q-.047-2.582,0-5.164c.01-.553-.161-.724-.715-.71C-661.036,1652.827-662.466,1652.8-663.895,1652.8Z" transform="translate(-65.884 -141.537)"/>
    <path id="Trazado_170227" data-name="Trazado 170227" d="M-667.045,1754.79c-1.007,0-2.015.017-3.022,0a1.766,1.766,0,0,1-1.944-1.643,1.706,1.706,0,0,1,1.826-1.751q3.167-.078,6.337,0a1.756,1.756,0,0,1,1.862,1.73,1.8,1.8,0,0,1-1.939,1.663C-664.965,1754.81-666.005,1754.79-667.045,1754.79Z" transform="translate(-66.079 -216.858)"/>
    <path id="Trazado_170228" data-name="Trazado 170228" d="M-615.865,1754.818c-1.006,0-2.014.027-3.019-.007-1.172-.039-1.872-.682-1.888-1.665a1.581,1.581,0,0,1,1.723-1.7c2.172-.073,4.349-.074,6.521,0a1.64,1.64,0,0,1,1.72,1.733,1.745,1.745,0,0,1-1.843,1.631C-613.721,1754.847-614.793,1754.818-615.865,1754.818Z" transform="translate(-103.946 -216.887)"/>
    <path id="Trazado_170229" data-name="Trazado 170229" d="M-564.907,1754.8c-1.006,0-2.014.025-3.019-.007a1.747,1.747,0,0,1-1.887-1.686,1.661,1.661,0,0,1,1.762-1.69q3.211-.1,6.426,0a1.637,1.637,0,0,1,1.776,1.763c-.032.962-.755,1.565-1.942,1.62-.032,0-.065,0-.1,0Z" transform="translate(-141.606 -216.87)"/>
    <path id="Trazado_170230" data-name="Trazado 170230" d="M-667.039,1777.264c1.1,0,2.207-.015,3.31,0a1.732,1.732,0,0,1,1.751,1.49,1.654,1.654,0,0,1-1.556,1.792q-3.452.1-6.908,0a1.658,1.658,0,0,1-1.546-1.8,1.672,1.672,0,0,1,1.738-1.485C-669.181,1777.25-668.11,1777.264-667.039,1777.264Z" transform="translate(-66.093 -236.002)"/>
    <path id="Trazado_170231" data-name="Trazado 170231" d="M-615.838,1780.584c-1.009,0-2.018.016-3.027,0a1.714,1.714,0,0,1-1.907-1.649c-.016-1.076.651-1.666,1.932-1.672q3.076-.015,6.151,0c1.186.007,1.879.63,1.881,1.643a1.733,1.733,0,0,1-1.808,1.67C-613.689,1780.614-614.764,1780.583-615.838,1780.584Z" transform="translate(-103.947 -235.997)"/>
    <path id="Trazado_170232" data-name="Trazado 170232" d="M-672.178,1716.536c0-.52-.03-1.041.008-1.558a1.761,1.761,0,0,1,1.722-1.768,1.758,1.758,0,0,1,1.671,1.723,28.571,28.571,0,0,1-.006,3.213,1.7,1.7,0,0,1-1.715,1.758,1.758,1.758,0,0,1-1.678-1.906C-672.2,1717.511-672.18,1717.023-672.178,1716.536Z" transform="translate(-65.949 -188.67)"/>
    <path id="Trazado_170233" data-name="Trazado 170233" d="M-464.457,1716.58c0,.519.029,1.039,0,1.556a1.738,1.738,0,0,1-1.612,1.763,1.686,1.686,0,0,1-1.745-1.608,23.349,23.349,0,0,1,.014-3.492,1.656,1.656,0,0,1,1.663-1.589,1.785,1.785,0,0,1,1.676,1.717C-464.421,1715.475-464.458,1716.029-464.457,1716.58Z" transform="translate(-216.936 -188.67)"/>
    <path id="Trazado_170234" data-name="Trazado 170234" d="M-493.384,1716.551c0-.519-.028-1.039.006-1.555a1.791,1.791,0,0,1,1.61-1.782,1.706,1.706,0,0,1,1.743,1.611,13.986,13.986,0,0,1-.038,3.584,1.665,1.665,0,0,1-1.636,1.495,1.716,1.716,0,0,1-1.663-1.6,17.277,17.277,0,0,1-.011-1.749Z" transform="translate(-198.078 -188.67)"/>
    <path id="Trazado_170235" data-name="Trazado 170235" d="M-646.281,1716.623c0-.585-.009-1.171,0-1.756a1.512,1.512,0,0,1,1.434-1.575,1.437,1.437,0,0,1,1.715,1.118,10.06,10.06,0,0,1-.008,4.436,1.442,1.442,0,0,1-1.855,1.016,1.434,1.434,0,0,1-1.281-1.482C-646.3,1717.794-646.279,1717.208-646.281,1716.623Z" transform="translate(-85.091 -188.717)"/>
    <path id="Trazado_170236" data-name="Trazado 170236" d="M-620.792,1716.562c0-.585-.026-1.172.006-1.755a1.535,1.535,0,0,1,1.411-1.5,1.428,1.428,0,0,1,1.731,1.084,10.375,10.375,0,0,1,0,4.436,1.432,1.432,0,0,1-1.834,1.047,1.464,1.464,0,0,1-1.32-1.551c-.015-.585,0-1.17,0-1.756Z" transform="translate(-103.924 -188.721)"/>
    <path id="Trazado_170237" data-name="Trazado 170237" d="M-515.571,1716.551c0,.553.016,1.106,0,1.658a1.522,1.522,0,0,1-1.455,1.629,1.523,1.523,0,0,1-1.8-1.381,23.752,23.752,0,0,1,0-3.794,1.621,1.621,0,0,1,1.783-1.445,1.733,1.733,0,0,1,1.47,1.675C-515.554,1715.445-515.571,1716-515.571,1716.551Z" transform="translate(-179.225 -188.669)"/>
    <path id="Trazado_170238" data-name="Trazado 170238" d="M-442,1716.558c0-.585-.027-1.172.006-1.755a1.531,1.531,0,0,1,1.415-1.5,1.437,1.437,0,0,1,1.73,1.09,10.705,10.705,0,0,1,.028,4.345,1.456,1.456,0,0,1-1.87,1.135,1.471,1.471,0,0,1-1.312-1.559c-.012-.585,0-1.17,0-1.755Z" transform="translate(-236.054 -188.724)"/>
    <path id="Trazado_170239" data-name="Trazado 170239" d="M-595.323,1716.569c0-.552-.025-1.106,0-1.657a1.7,1.7,0,0,1,1.59-1.667,1.669,1.669,0,0,1,1.7,1.548c.058,1.2.059,2.406,0,3.605a1.55,1.55,0,0,1-1.729,1.469,1.55,1.55,0,0,1-1.56-1.544C-595.35,1717.74-595.322,1717.154-595.323,1716.569Z" transform="translate(-122.746 -188.694)"/>
    <path id="Trazado_170240" data-name="Trazado 170240" d="M-566.564,1716.612c0,.552.026,1.106,0,1.657a1.562,1.562,0,0,1-1.617,1.591,1.551,1.551,0,0,1-1.681-1.522c-.049-1.168-.048-2.341,0-3.509a1.681,1.681,0,0,1,1.661-1.6,1.7,1.7,0,0,1,1.634,1.627C-566.536,1715.44-566.565,1716.027-566.564,1716.612Z" transform="translate(-141.539 -188.686)"/>
    <path id="Trazado_170241" data-name="Trazado 170241" d="M-654.041,1662.32c1.429,0,2.859.024,4.287-.012.554-.014.725.157.715.71q-.046,2.582,0,5.164c.01.55-.155.719-.711.714q-4.239-.038-8.478,0c-.552,0-.725-.154-.714-.709q.049-2.581,0-5.165c-.01-.549.153-.728.71-.714C-656.835,1662.344-655.438,1662.32-654.041,1662.32Z" transform="translate(-75.738 -151.053)" fill="#ffee58"/>
  </g>
</svg>
