<svg xmlns="http://www.w3.org/2000/svg" width="90" height="90.06" viewBox="0 0 90 90.06">
  <g id="Grupo_110606" data-name="Grupo 110606" transform="translate(1863.517 441.109)">
    <path id="Trazado_169870" data-name="Trazado 169870" d="M-1862.072,9.634a3.054,3.054,0,0,1-1.425-3.167c.092-1.105.017-2.224.019-3.338,0-1.631.738-2.463,2.34-2.534.521-.023.675-.126.7-.678a2.924,2.924,0,0,1,3.06-3.033c1.354-.017,2.756-.286,4.051.4a.4.4,0,0,0,.33.006c1.148-.634,2.4-.415,3.612-.421,3.981-.021,7.962-.006,11.943-.01a4.461,4.461,0,0,1,1.968.336.571.571,0,0,0,.486.082,8.281,8.281,0,0,1,5.557,0,.5.5,0,0,0,.418,0c1.357-.684,2.816-.432,4.226-.371a2.8,2.8,0,0,1,2.814,2.88c.027.669.23.892.867.8a6.333,6.333,0,0,1,.79-.007A3.886,3.886,0,0,0-1818.766.5c.46-.231.165-.9.276-1.374a3.012,3.012,0,0,1,3.076-2.248c1.328.006,2.7-.265,3.965.408a.465.465,0,0,0,.332,0,8.361,8.361,0,0,1,5.643,0,.467.467,0,0,0,.332,0c1.266-.678,2.637-.415,3.964-.412A2.952,2.952,0,0,1-1798.01-.1c.031.527.145.672.687.7a2.212,2.212,0,0,1,2.366,2.523c0,1.23-.059,2.464.017,3.69a2.662,2.662,0,0,1-1.594,2.825h-48.846a2.12,2.12,0,0,1-.872-1.407,1.713,1.713,0,0,1,1.923-1.249q19.149.039,38.3.017c2.576,0,5.153-.019,7.729,0,.514,0,.738-.1.7-.668a23.049,23.049,0,0,1,0-2.372c.017-.459-.065-.691-.608-.674-1.14.035-2.283,0-3.425,0q-28.108,0-56.216,0c-.961,0-2.259-.338-2.8.149-.613.556-.106,1.876-.2,2.858-.055.584.153.727.722.722,2.928-.029,5.856.02,8.783-.032a1.707,1.707,0,0,1,1.924,1.252,2.371,2.371,0,0,1-.879,1.4Zm17.937-9.008q3.468,0,6.935,0c.335,0,.727.108.73-.471,0-.555-.317-.593-.742-.593q-6.935.009-13.871,0c-.437,0-.732.056-.722.6.01.584.406.459.735.46Q-1847.6.63-1844.135.626Zm-11.963,0c.377,0,.754-.015,1.13,0,.335.017.476-.1.457-.448-.017-.294.033-.608-.4-.609-.812,0-1.623-.007-2.435,0-.407,0-.432.294-.439.6-.007.334.144.466.474.454C-1856.91.614-1856.5.625-1856.1.625Zm53.744,0c.38,0,.76-.018,1.138.005.36.022.54-.08.534-.478-.006-.383-.1-.605-.54-.593-.729.021-1.46.019-2.19,0-.442-.011-.524.2-.525.594,0,.407.178.5.532.476S-1802.7.626-1802.353.626Zm-29.908,0c.379,0,.758-.016,1.135,0,.352.019.535-.069.532-.475,0-.383-.073-.608-.52-.6q-1.091.03-2.183,0c-.432-.012-.543.187-.542.583s.171.506.53.487S-1832.611.626-1832.261.626Zm6.112-1.059c-.407,0-.815.01-1.222,0s-.48.2-.483.545.091.536.49.523q1.09-.034,2.182,0c.4.013.574-.09.571-.53s-.189-.559-.578-.54C-1825.508-.423-1825.829-.435-1826.149-.433Zm11.815,1.059c.378,0,.757-.013,1.135,0,.34.015.553-.049.547-.465-.005-.372-.062-.617-.516-.6q-1.09.029-2.182,0c-.421-.011-.538.168-.545.573-.008.475.24.514.6.5C-1814.975.613-1814.654.626-1814.334.626Zm5.95,0c.378,0,.758-.017,1.135,0s.59-.076.583-.525c-.007-.43-.189-.554-.583-.545q-1.048.024-2.1,0c-.392-.008-.57.11-.573.545s.179.554.573.525C-1809.025.607-1808.7.626-1808.383.626Z" transform="translate(0 -360.683)" fill="#080809"/>
    <path id="Trazado_169871" data-name="Trazado 169871" d="M-1464.28,7.152a2.65,2.65,0,0,1-1.6-2.821c.079-1.549.008-3.105.022-4.658a5.992,5.992,0,0,1,5.879-5.878c2.606-.018,5.212-.01,7.818,0a5.94,5.94,0,0,1,6,5.167c.018.116.022.231.154.281v.176c-.238.214-.124.5-.126.744-.012,1.754-.011,3.509-.013,5.263-.111.885-.806,1.283-1.442,1.729Zm4.053-10.67a.3.3,0,0,0-.381.11,3.253,3.253,0,0,0-2.6,3.189c-.033,1.372.016,2.747-.021,4.119-.014.513.16.62.639.617,3.766-.025,7.532-.022,11.3-.028.7.011,1.4.011,2.1.038.338.013.464-.108.459-.452-.025-1.549.04-3.1-.063-4.646a3.222,3.222,0,0,0-3.559-2.952Z" transform="translate(-327.51 -358.201)" fill="#080809"/>
    <path id="Trazado_169872" data-name="Trazado 169872" d="M-1353.863,31.7l-.06.061-.08-.032c0-1.754,0-3.509.013-5.263,0-.249-.112-.53.126-.744Z" transform="translate(-419.653 -384.506)" fill="#707070"/>
    <path id="Trazado_169873" data-name="Trazado 169873" d="M-1775.8-368.794c-.2,1.078-.562,1.391-1.641,1.392q-9.4,0-18.8,0a2.025,2.025,0,0,1-2.247-2.205,12.12,12.12,0,0,1,.151-3.233,4.059,4.059,0,0,1,3.663-3.026,16.328,16.328,0,0,1,2.457-.019c.738.06.91-.232.851-.894a8.713,8.713,0,0,1,0-1.668c.068-.65-.207-.755-.791-.753-6.413.02-12.827-.055-19.239.044a5.263,5.263,0,0,1-5.45-5.414q.089-25.581,0-51.162a5.283,5.283,0,0,1,5.379-5.376q31.362.106,62.724,0a5.231,5.231,0,0,1,5.393,5.378q-.1,25.625-.109,51.25a5.216,5.216,0,0,1-5.363,5.314c-6.383-.08-12.767-.006-19.151-.047-.84-.005-1.067.255-.966,1.021.1.741-.336,1.738.2,2.165.456.362,1.4.118,2.131.119,3.19.007,4.812,1.617,4.812,4.788,0,.586.027,1.174-.01,1.758a2.011,2.011,0,0,1-2.064,1.954c-2.284.015-4.568.007-6.852,0-1.078,0-1.435-.31-1.643-1.392a1.491,1.491,0,0,1,1.715-1.256c1.844.034,3.688-.01,5.533.01.477.005.717-.1.652-.624-.032-.26,0-.527-.007-.79-.041-1.224-.564-1.744-1.8-1.75q-3.908-.018-7.816-.015-9.968,0-19.937-.009a1.618,1.618,0,0,0-1.663.879,4.434,4.434,0,0,0-.175,1.468c-.091.711.192.861.866.857,5.826-.026,11.651,0,17.477-.026A1.493,1.493,0,0,1-1775.8-368.794Zm-4.353-21.814v0q16.557,0,33.114.017c.7,0,.919-.13.917-.886q-.043-16.832,0-33.663c0-.728-.171-.914-.907-.913q-33.114.03-66.227-.006c-.734,0-.913.183-.911.911q.036,16.831,0,33.663c0,.736.18.9.905.9Q-1796.711-390.628-1780.154-390.608Zm.009-38.1v-.02q16.55,0,33.1.017c.73,0,.931-.174.911-.91-.055-2.019-.017-4.041-.02-6.062,0-1.858-.874-2.735-2.736-2.736q-31.213-.008-62.427-.011c-1.9,0-2.78.883-2.788,2.8-.008,1.991.038,3.984-.021,5.974-.023.779.192.969.966.967Q-1796.651-428.732-1780.144-428.71Zm-.025,40.757v-.012q-15.459,0-30.917,0c-.989,0-2.332-.341-2.874.162-.617.573-.173,1.929-.183,2.943-.024,2.223.777,3.013,2.989,3.013h60.342c.761,0,1.524.017,2.283-.024a2.315,2.315,0,0,0,2.377-2.484c.01-.908-.054-1.821.019-2.723.062-.76-.212-.9-.922-.894Q-1763.612-387.934-1780.169-387.953Zm-.067,12.076c2.077,0,4.155.03,6.232-.016.75-.016,1.729.292,2.2-.186s.075-1.451.157-2.2c.074-.681-.15-.885-.856-.882-4.563.019-9.127-.025-13.691-.019-.8,0-1.878-.376-2.342.179-.4.472-.086,1.51-.152,2.292-.055.648.145.858.82.848C-1785.327-375.9-1782.781-375.876-1780.236-375.877Z" transform="translate(-38.441 0)" fill="#080809"/>
    <path id="Trazado_169874" data-name="Trazado 169874" d="M-1677.85-51.747A1.493,1.493,0,0,0-1679.563-53c-5.826.021-11.651,0-17.477.026-.674,0-.957-.146-.866-.857a4.434,4.434,0,0,1,.175-1.468,1.618,1.618,0,0,1,1.663-.879q9.968.022,19.937.009,3.908,0,7.816.015c1.232.006,1.755.527,1.8,1.75.009.263-.025.53.007.79.065.522-.175.63-.652.624-1.844-.021-3.689.024-5.533-.01a1.491,1.491,0,0,0-1.715,1.256Z" transform="translate(-136.392 -317.047)" fill="#b0b0b1"/>
    <path id="Trazado_169875" data-name="Trazado 169875" d="M-1834.307,37.974l-3.169,0a1.707,1.707,0,0,0-1.924-1.252c-2.927.052-5.856,0-8.783.032-.569.005-.777-.138-.722-.722.092-.982-.414-2.3.2-2.858.536-.487,1.834-.149,2.8-.149q28.108,0,56.216,0c1.142,0,2.285.038,3.425,0,.542-.017.625.215.608.674a23.049,23.049,0,0,0,0,2.372c.038.573-.186.672-.7.668-2.576-.02-5.153,0-7.729,0q-19.149,0-38.3-.017A1.713,1.713,0,0,0-1834.307,37.974Z" transform="translate(-11.945 -390.43)" fill="#b0b0b1"/>
    <path id="Trazado_169876" data-name="Trazado 169876" d="M-1789.434,13.528q-3.468,0-6.935,0c-.329,0-.724.124-.735-.46-.01-.548.285-.605.722-.6q6.935.012,13.871,0c.425,0,.745.037.742.593,0,.579-.395.47-.73.471Q-1785.966,13.532-1789.434,13.528Z" transform="translate(-54.701 -373.586)" fill="#8ed1ed"/>
    <path id="Trazado_169877" data-name="Trazado 169877" d="M-1829.343,13.569c-.406,0-.812-.012-1.218,0-.33.012-.481-.12-.473-.454.007-.31.032-.6.439-.6.812-.005,1.623,0,2.435,0,.437,0,.387.315.4.609.02.344-.122.466-.457.448C-1828.589,13.554-1828.966,13.569-1829.343,13.569Z" transform="translate(-26.754 -373.627)" fill="#8ed1ed"/>
    <path id="Trazado_169878" data-name="Trazado 169878" d="M-1524.07,13.528c-.35,0-.7-.016-1.051,0s-.533-.069-.532-.476c0-.39.083-.605.525-.594.729.019,1.46.021,2.19,0,.442-.013.534.209.54.593.006.4-.174.5-.534.478C-1523.31,13.511-1523.691,13.528-1524.07,13.528Z" transform="translate(-278.283 -373.586)" fill="#8ed1ed"/>
    <path id="Trazado_169879" data-name="Trazado 169879" d="M-1693.649,13.528c-.349,0-.7-.015-1.048,0s-.529-.094-.53-.487.111-.6.542-.583q1.091.03,2.183,0c.447-.012.517.212.52.6,0,.406-.18.494-.532.475C-1692.891,13.513-1693.27,13.528-1693.649,13.528Z" transform="translate(-138.612 -373.586)" fill="#8ed1ed"/>
    <path id="Trazado_169880" data-name="Trazado 169880" d="M-1659.579,12.472c.32,0,.641.011.96,0,.389-.018.574.1.578.54s-.173.543-.571.53q-1.09-.036-2.182,0c-.4.012-.493-.165-.49-.523s.088-.558.483-.545S-1659.986,12.473-1659.579,12.472Z" transform="translate(-166.57 -373.59)" fill="#8ed1ed"/>
    <path id="Trazado_169881" data-name="Trazado 169881" d="M-1591.911,13.53c-.32,0-.641-.013-.96,0-.361.018-.61-.021-.6-.5.007-.406.124-.584.545-.573q1.091.028,2.182,0c.453-.012.51.232.516.6.006.415-.207.479-.547.465C-1591.154,13.517-1591.533,13.529-1591.911,13.53Z" transform="translate(-222.422 -373.587)" fill="#8ed1ed"/>
    <path id="Trazado_169882" data-name="Trazado 169882" d="M-1558.038,13.532c-.32,0-.642-.019-.96,0-.395.029-.576-.08-.573-.525s.182-.553.573-.545q1.048.022,2.1,0c.394-.009.576.115.583.545.007.449-.194.547-.583.525S-1557.66,13.532-1558.038,13.532Z" transform="translate(-250.345 -373.589)" fill="#8ed1ed"/>
    <path id="Trazado_169883" data-name="Trazado 169883" d="M-1438.86,17.059c-3.766.006-7.532,0-11.3.028-.479,0-.653-.1-.639-.617.037-1.372-.012-2.746.021-4.119a3.253,3.253,0,0,1,2.6-3.189.269.269,0,0,0,.381-.11l7.876-.006a.824.824,0,0,0,.25.625,3.764,3.764,0,0,1,.833,2.5C-1438.869,13.8-1438.856,15.431-1438.86,17.059Z" transform="translate(-339.937 -370.774)" fill="#b0b0b1"/>
    <path id="Trazado_169884" data-name="Trazado 169884" d="M-1388.088,17.022c0-1.628-.008-3.257.02-4.884a3.764,3.764,0,0,0-.833-2.5.824.824,0,0,1-.25-.625,3.222,3.222,0,0,1,3.559,2.952c.1,1.543.038,3.1.063,4.646.005.344-.121.464-.459.452C-1386.687,17.034-1387.388,17.033-1388.088,17.022Z" transform="translate(-390.71 -370.737)" fill="#b0b0b1"/>
    <path id="Trazado_169885" data-name="Trazado 169885" d="M-1435.574,8.965a.269.269,0,0,1-.381.11A.3.3,0,0,1-1435.574,8.965Z" transform="translate(-352.163 -370.685)" fill="#b0b0b1"/>
    <path id="Trazado_169886" data-name="Trazado 169886" d="M-1767.671-320.331q-16.557,0-33.114.018c-.725,0-.907-.163-.905-.9q.04-16.832,0-33.663c0-.728.178-.912.911-.911q33.114.035,66.227.006c.737,0,.909.185.907.913q-.037,16.831,0,33.663c0,.757-.213.888-.917.886q-16.557-.036-33.114-.017ZM-1785.5-341.08q-4.258,0-8.515,0a2.175,2.175,0,0,0-2.431,2.356q-.034,6.5,0,13a2.2,2.2,0,0,0,2.433,2.374q8.471.019,16.943,0a2.236,2.236,0,0,0,2.473-2.508q.008-6.369,0-12.737a2.208,2.208,0,0,0-2.476-2.486Q-1781.284-341.085-1785.5-341.08Zm11.685-10.59v.008c-2.517,0-5.034-.014-7.551.008a1.229,1.229,0,0,0-1.324,1.219,1.294,1.294,0,0,0,1.178,1.388,3.155,3.155,0,0,0,.525.021q7.2,0,14.4,0c1.085,0,1.72-.488,1.74-1.307.022-.868-.583-1.332-1.768-1.335C-1769.013-351.673-1771.413-351.67-1773.812-351.67Zm20.172,26.942c1.812,0,3.624.005,5.436,0,1.016,0,1.576-.5,1.557-1.357-.018-.807-.571-1.276-1.547-1.277q-5.392-.008-10.784,0c-.994,0-1.59.53-1.566,1.355.023.783.608,1.275,1.556,1.279C-1757.206-324.723-1755.423-324.728-1753.64-324.728Zm-27.477-19.3c1.754,0,3.508.008,5.261,0,1.076-.007,1.607-.444,1.613-1.289.006-.876-.56-1.349-1.667-1.351q-5.173-.01-10.347,0c-.99,0-1.635.536-1.647,1.317-.012.8.6,1.314,1.614,1.322C-1784.566-344.019-1782.841-344.028-1781.117-344.028Zm17.058,10.5c-1.581,0-3.161-.007-4.742,0-.924.006-1.449.468-1.473,1.257a1.332,1.332,0,0,0,1.474,1.374q4.7.02,9.4,0a1.346,1.346,0,0,0,1.489-1.371,1.339,1.339,0,0,0-1.49-1.259C-1760.956-333.535-1762.508-333.527-1764.059-333.528Zm-26.339-18.141c-1.4,0-2.8-.014-4.206,0-.953.013-1.438.451-1.461,1.254a1.3,1.3,0,0,0,1.457,1.377q4.162.031,8.324,0a1.335,1.335,0,0,0,1.488-1.371,1.327,1.327,0,0,0-1.484-1.259C-1787.652-351.681-1789.025-351.667-1790.4-351.668Zm46.34,11.969c-1.228,0-2.456-.009-3.684,0-.929.009-1.543.547-1.531,1.311a1.376,1.376,0,0,0,1.472,1.319q3.771.034,7.542,0a1.375,1.375,0,0,0,1.483-1.39,1.356,1.356,0,0,0-1.511-1.24C-1741.544-339.708-1742.8-339.7-1744.058-339.7Zm-12.143,0c-.993,0-1.986-.015-2.979,0a1.289,1.289,0,0,0-1.365,1.188,1.266,1.266,0,0,0,1.236,1.419q3.108.077,6.219,0a1.26,1.26,0,0,0,1.224-1.425,1.227,1.227,0,0,0-1.357-1.186Zm13.776,6.172c-.819,0-1.638-.019-2.456.005a1.235,1.235,0,0,0-1.281,1.258,1.246,1.246,0,0,0,1.2,1.351c1.636.047,3.275.044,4.912,0a1.33,1.33,0,0,0,1.274-1.32,1.326,1.326,0,0,0-1.37-1.294C-1740.9-333.542-1741.665-333.526-1742.425-333.525Zm-20.051-10.516c.731,0,1.463.012,2.194,0a1.209,1.209,0,0,0,1.263-1.2,1.172,1.172,0,0,0-1.089-1.361,42.217,42.217,0,0,0-4.644,0,1.143,1.143,0,0,0-1.072,1.359,1.181,1.181,0,0,0,1.24,1.2C-1763.883-344.015-1763.179-344.04-1762.477-344.041Zm-4.619,19.313h1.756c.029,0,.059,0,.088,0a1.35,1.35,0,0,0,1.364-1.313,1.319,1.319,0,0,0-1.352-1.317q-1.843-.038-3.688,0a1.288,1.288,0,0,0-1.353,1.306,1.3,1.3,0,0,0,1.341,1.321C-1768.326-324.709-1767.71-324.728-1767.1-324.728Zm.014-14.969v0c-.644,0-1.287-.014-1.93,0a1.174,1.174,0,0,0-1.251,1.192,1.159,1.159,0,0,0,1.061,1.372,32.068,32.068,0,0,0,4.2.007,1.2,1.2,0,0,0,1.1-1.357,1.29,1.29,0,0,0-1.343-1.217C-1765.853-339.713-1766.467-339.7-1767.082-339.7Zm-25.865-4.347c.644,0,1.289.016,1.932,0a1.2,1.2,0,0,0,1.234-1.23,1.164,1.164,0,0,0-1.036-1.319,17.569,17.569,0,0,0-4.284.018,1.133,1.133,0,0,0-.958,1.361,1.154,1.154,0,0,0,1.18,1.165C-1794.236-344.017-1793.59-344.045-1792.946-344.043Zm51.71,16.68c-.438,0-.879-.026-1.315.006a1.352,1.352,0,0,0-1.275,1.314,1.337,1.337,0,0,0,1.283,1.3c.846.036,1.7.043,2.543,0a1.288,1.288,0,0,0,1.218-1.352,1.285,1.285,0,0,0-1.226-1.261C-1740.415-327.4-1740.827-327.363-1741.237-327.363Zm-10.75-3.532v0a12.354,12.354,0,0,0,1.311-.008,1.3,1.3,0,0,0,1.2-1.358,1.262,1.262,0,0,0-1.29-1.255c-.786-.025-1.574-.022-2.361,0a1.241,1.241,0,0,0-1.328,1.211,1.313,1.313,0,0,0,1.242,1.41C-1752.806-330.864-1752.4-330.895-1751.987-330.895Zm-17.774-13.152v0c.436,0,.875.029,1.309-.007a1.158,1.158,0,0,0,1.123-1.129,1.139,1.139,0,0,0-.842-1.35,6.673,6.673,0,0,0-3.1-.012,1.14,1.14,0,0,0-.867,1.411,1.161,1.161,0,0,0,1.159,1.085C-1770.577-344.022-1770.168-344.047-1769.761-344.047Z" transform="translate(-50.924 -70.277)" fill="#8ed1ed"/>
    <path id="Trazado_169887" data-name="Trazado 169887" d="M-1767.443-416.2q-16.507,0-33.014.018c-.774,0-.989-.189-.966-.967.059-1.99.014-3.982.021-5.974.007-1.915.888-2.8,2.788-2.8q31.213,0,62.427.011c1.862,0,2.733.878,2.736,2.736,0,2.021-.035,4.043.02,6.062.02.736-.181.912-.911.91q-16.551-.038-33.1-.017Zm-23.974-4.864a3.444,3.444,0,0,0,3.411,3.393,3.482,3.482,0,0,0,3.4-3.421,3.486,3.486,0,0,0-3.425-3.4A3.45,3.45,0,0,0-1791.416-421.066Zm14.75.05A3.413,3.413,0,0,0-1780-424.49a3.455,3.455,0,0,0-3.438,3.39,3.445,3.445,0,0,0,3.4,3.427A3.413,3.413,0,0,0-1776.666-421.016Zm-15.956-.082a3.408,3.408,0,0,0-3.408-3.393,3.4,3.4,0,0,0-3.326,3.471,3.392,3.392,0,0,0,3.36,3.345A3.4,3.4,0,0,0-1792.622-421.1Z" transform="translate(-51.143 -12.508)" fill="#b0b0b1"/>
    <path id="Trazado_169888" data-name="Trazado 169888" d="M-1768.228-140.247q16.557,0,33.113-.017c.709,0,.983.134.922.894-.073.9-.009,1.815-.019,2.723a2.316,2.316,0,0,1-2.377,2.484c-.759.04-1.522.024-2.283.024h-60.342c-2.212,0-3.013-.79-2.989-3.013.011-1.014-.433-2.37.183-2.943.542-.5,1.885-.162,2.874-.162q15.459-.007,30.917,0Z" transform="translate(-50.382 -247.706)" fill="#b0b0b1"/>
    <path id="Trazado_169889" data-name="Trazado 169889" d="M-1648.991-87.2c-2.546,0-5.091-.023-7.636.016-.674.011-.875-.2-.82-.848.066-.782-.244-1.82.152-2.292.464-.555,1.537-.178,2.342-.179,4.563-.006,9.127.038,13.691.019.707,0,.931.2.856.882-.082.748.308,1.722-.157,2.2s-1.446.169-2.2.186C-1644.836-87.168-1646.914-87.2-1648.991-87.2Z" transform="translate(-169.686 -288.678)" fill="#707070"/>
    <path id="Trazado_169890" data-name="Trazado 169890" d="M-1761.073-272.4q4.214,0,8.427,0a2.208,2.208,0,0,1,2.476,2.486q.007,6.369,0,12.737a2.236,2.236,0,0,1-2.473,2.508q-8.471.016-16.943,0a2.2,2.2,0,0,1-2.433-2.374q-.036-6.5,0-13a2.174,2.174,0,0,1,2.431-2.356Q-1765.331-272.4-1761.073-272.4Zm.005,2.641v0c-2.516,0-5.033.022-7.549-.015-.627-.009-.769.181-.765.784q.042,5.445,0,10.891c0,.6.141.8.771.8q7.549-.039,15.1,0c.609,0,.714-.21.711-.756q-.031-5.49,0-10.979c0-.568-.141-.738-.721-.73C-1756.036-269.738-1758.552-269.757-1761.068-269.757Z" transform="translate(-75.348 -138.959)" fill="#080809"/>
    <path id="Trazado_169891" data-name="Trazado 169891" d="M-1685.067-332.449c2.4,0,4.8,0,7.2,0,1.185,0,1.79.467,1.768,1.335-.021.819-.656,1.307-1.74,1.307q-7.2.006-14.4,0a3.155,3.155,0,0,1-.525-.021,1.294,1.294,0,0,1-1.178-1.388,1.229,1.229,0,0,1,1.324-1.219c2.517-.022,5.034-.008,7.551-.008Z" transform="translate(-139.669 -89.497)" fill="#080809"/>
    <path id="Trazado_169892" data-name="Trazado 169892" d="M-1561.468-191.995c-1.783,0-3.565.005-5.348,0-.948,0-1.534-.5-1.556-1.279-.024-.825.572-1.354,1.566-1.355q5.392-.008,10.784,0c.976,0,1.529.47,1.547,1.277.02.855-.541,1.353-1.557,1.357C-1557.844-191.99-1559.656-191.995-1561.468-191.995Z" transform="translate(-243.096 -203.01)" fill="#080809"/>
    <path id="Trazado_169893" data-name="Trazado 169893" d="M-1716.728-301.476c-1.724,0-3.449.009-5.173,0-1.014-.007-1.626-.524-1.614-1.322.012-.781.657-1.315,1.647-1.317q5.173-.012,10.347,0c1.107,0,1.673.475,1.667,1.351-.006.845-.537,1.282-1.613,1.289C-1713.221-301.469-1714.974-301.476-1716.728-301.476Z" transform="translate(-115.313 -112.829)" fill="#080809"/>
    <path id="Trazado_169894" data-name="Trazado 169894" d="M-1617.328-229.578c1.552,0,3.1-.007,4.654,0a1.339,1.339,0,0,1,1.49,1.259,1.346,1.346,0,0,1-1.489,1.371q-4.7.022-9.4,0a1.332,1.332,0,0,1-1.474-1.374c.023-.789.549-1.251,1.473-1.257C-1620.49-229.585-1618.909-229.578-1617.328-229.578Z" transform="translate(-197.654 -174.226)" fill="#080809"/>
    <path id="Trazado_169895" data-name="Trazado 169895" d="M-1764.127-332.457c1.373,0,2.746-.013,4.118.005a1.327,1.327,0,0,1,1.484,1.259,1.335,1.335,0,0,1-1.488,1.371q-4.162.031-8.324,0a1.3,1.3,0,0,1-1.457-1.377c.023-.8.507-1.242,1.461-1.254C-1766.931-332.471-1765.529-332.458-1764.127-332.457Z" transform="translate(-77.195 -89.487)" fill="#080809"/>
    <path id="Trazado_169896" data-name="Trazado 169896" d="M-1499.235-264.577c1.257,0,2.514-.009,3.771,0a1.356,1.356,0,0,1,1.511,1.24,1.375,1.375,0,0,1-1.483,1.391q-3.771.033-7.542,0a1.376,1.376,0,0,1-1.472-1.319c-.012-.764.6-1.3,1.531-1.311C-1501.691-264.586-1500.463-264.577-1499.235-264.577Z" transform="translate(-295.747 -145.399)" fill="#080809"/>
    <path id="Trazado_169897" data-name="Trazado 169897" d="M-1564.043-264.577h2.979a1.227,1.227,0,0,1,1.357,1.186,1.26,1.26,0,0,1-1.224,1.425q-3.108.075-6.219,0a1.266,1.266,0,0,1-1.236-1.419,1.289,1.289,0,0,1,1.365-1.187C-1566.03-264.592-1565.036-264.577-1564.043-264.577Z" transform="translate(-243.082 -145.397)" fill="#080809"/>
    <path id="Trazado_169898" data-name="Trazado 169898" d="M-1483.079-229.586c.76,0,1.521-.017,2.281,0a1.326,1.326,0,0,1,1.37,1.294,1.33,1.33,0,0,1-1.274,1.32c-1.637.04-3.276.042-4.912,0a1.246,1.246,0,0,1-1.2-1.351,1.235,1.235,0,0,1,1.281-1.258C-1484.718-229.605-1483.9-229.586-1483.079-229.586Z" transform="translate(-310.27 -174.216)" fill="#080809"/>
    <path id="Trazado_169899" data-name="Trazado 169899" d="M-1594.98-301.473c-.7,0-1.406.025-2.107-.006a1.181,1.181,0,0,1-1.24-1.2,1.143,1.143,0,0,1,1.071-1.359,42.217,42.217,0,0,1,4.644,0,1.172,1.172,0,0,1,1.089,1.361,1.209,1.209,0,0,1-1.263,1.2C-1593.516-301.462-1594.248-301.474-1594.98-301.473Z" transform="translate(-218.421 -112.844)" fill="#080809"/>
    <path id="Trazado_169900" data-name="Trazado 169900" d="M-1620.393-192.038c-.615,0-1.23.019-1.844,0a1.3,1.3,0,0,1-1.341-1.321,1.288,1.288,0,0,1,1.353-1.306q1.844-.034,3.688,0a1.319,1.319,0,0,1,1.352,1.317,1.35,1.35,0,0,1-1.364,1.313c-.029,0-.059,0-.088,0Z" transform="translate(-197.626 -202.966)" fill="#080809"/>
    <path id="Trazado_169901" data-name="Trazado 169901" d="M-1620.321-264.577c.614,0,1.229-.017,1.843,0a1.29,1.29,0,0,1,1.343,1.217,1.2,1.2,0,0,1-1.1,1.357,32.073,32.073,0,0,1-4.2-.007,1.159,1.159,0,0,1-1.061-1.372,1.174,1.174,0,0,1,1.251-1.192c.643-.018,1.287,0,1.93,0Z" transform="translate(-197.684 -145.396)" fill="#080809"/>
    <path id="Trazado_169902" data-name="Trazado 169902" d="M-1766.677-301.7c-.644,0-1.29.027-1.932-.009a1.154,1.154,0,0,1-1.18-1.165,1.133,1.133,0,0,1,.958-1.361,17.569,17.569,0,0,1,4.284-.018,1.164,1.164,0,0,1,1.036,1.319,1.2,1.2,0,0,1-1.234,1.23C-1765.388-301.678-1766.033-301.695-1766.677-301.7Z" transform="translate(-77.193 -112.625)" fill="#080809"/>
    <path id="Trazado_169903" data-name="Trazado 169903" d="M-1470.979-194.667c.409,0,.822-.033,1.227.008a1.285,1.285,0,0,1,1.226,1.261,1.288,1.288,0,0,1-1.218,1.352c-.845.046-1.7.04-2.543,0a1.337,1.337,0,0,1-1.283-1.3,1.352,1.352,0,0,1,1.275-1.314C-1471.857-194.693-1471.417-194.668-1470.979-194.667Z" transform="translate(-321.182 -202.972)" fill="#080809"/>
    <path id="Trazado_169904" data-name="Trazado 169904" d="M-1531.37-226.979c-.408,0-.819.031-1.224-.007a1.313,1.313,0,0,1-1.242-1.41,1.241,1.241,0,0,1,1.328-1.211c.786-.02,1.575-.023,2.361,0a1.262,1.262,0,0,1,1.291,1.255,1.3,1.3,0,0,1-1.2,1.358,12.345,12.345,0,0,1-1.311.008Z" transform="translate(-271.541 -174.193)" fill="#080809"/>
    <path id="Trazado_169905" data-name="Trazado 169905" d="M-1631.83-301.729c-.407,0-.816.025-1.221-.006a1.161,1.161,0,0,1-1.159-1.085,1.14,1.14,0,0,1,.867-1.411,6.673,6.673,0,0,1,3.1.012,1.139,1.139,0,0,1,.842,1.35,1.158,1.158,0,0,1-1.123,1.129c-.434.035-.872.007-1.309.007Z" transform="translate(-188.855 -112.594)" fill="#080809"/>
    <path id="Trazado_169906" data-name="Trazado 169906" d="M-1744.673-414.371a3.45,3.45,0,0,1,3.384-3.423,3.486,3.486,0,0,1,3.425,3.4,3.482,3.482,0,0,1-3.4,3.421A3.444,3.444,0,0,1-1744.673-414.371Zm4.125-.026a.707.707,0,0,0-.734-.715.693.693,0,0,0-.726.711.7.7,0,0,0,.775.744A.715.715,0,0,0-1740.549-414.4Z" transform="translate(-97.886 -19.203)" fill="#080809"/>
    <path id="Trazado_169907" data-name="Trazado 169907" d="M-1692.673-414.327a3.413,3.413,0,0,1-3.377,3.342,3.445,3.445,0,0,1-3.4-3.427,3.455,3.455,0,0,1,3.438-3.39A3.413,3.413,0,0,1-1692.673-414.327Zm-2.62-.027c-.044-.5-.318-.805-.78-.8a.7.7,0,0,0-.719.739.706.706,0,0,0,.673.782A.761.761,0,0,0-1695.293-414.354Z" transform="translate(-135.135 -19.197)" fill="#080809"/>
    <path id="Trazado_169908" data-name="Trazado 169908" d="M-1782.963-414.409a3.4,3.4,0,0,1-3.374,3.424,3.392,3.392,0,0,1-3.36-3.345,3.4,3.4,0,0,1,3.326-3.471A3.409,3.409,0,0,1-1782.963-414.409Zm-2.687.02a.614.614,0,0,0-.642-.684.635.635,0,0,0-.728.687.637.637,0,0,0,.644.692A.647.647,0,0,0-1785.65-414.388Z" transform="translate(-60.802 -19.197)" fill="#080809"/>
    <path id="Trazado_169909" data-name="Trazado 169909" d="M-1748.669-257.5c2.516,0,5.033.018,7.549-.014.581-.007.725.162.721.73q-.038,5.49,0,10.979c0,.545-.1.759-.711.756q-7.549-.036-15.1,0c-.631,0-.776-.2-.771-.8q.037-5.445,0-10.891c0-.6.138-.793.765-.784,2.516.037,5.032.015,7.549.015Z" transform="translate(-87.747 -151.215)" fill="#fea300"/>
    <path id="Trazado_169910" data-name="Trazado 169910" d="M-1728.1-401.865a.715.715,0,0,1-.685.74.7.7,0,0,1-.775-.744.693.693,0,0,1,.726-.711A.707.707,0,0,1-1728.1-401.865Z" transform="translate(-110.333 -31.734)" fill="#fea300"/>
    <path id="Trazado_169911" data-name="Trazado 169911" d="M-1682.887-401.984a.761.761,0,0,1-.825.721.706.706,0,0,1-.673-.782.7.7,0,0,1,.719-.739C-1683.205-402.789-1682.931-402.479-1682.887-401.984Z" transform="translate(-147.541 -31.567)" fill="#707070"/>
    <path id="Trazado_169912" data-name="Trazado 169912" d="M-1773.145-401.641a.647.647,0,0,1-.725.7.637.637,0,0,1-.644-.692.634.634,0,0,1,.728-.687A.614.614,0,0,1-1773.145-401.641Z" transform="translate(-73.307 -31.945)" fill="#fea300"/>
  </g>
</svg>
