<svg xmlns="http://www.w3.org/2000/svg" width="272.279" height="263.697" viewBox="0 0 272.279 263.697">
  <g id="Grupo_110711" data-name="Grupo 110711" transform="translate(-911.43 -555)">
    <g id="Grupo_110696" data-name="Grupo 110696" transform="translate(5.998 -677)">
      <path id="Trazado_170320" data-name="Trazado 170320" d="M5.9,0H4.121l2.09-11.992L2.432-10.664l.3-1.719,5.273-1.9H8.32Zm6.7-2.051a1.058,1.058,0,0,1,.791.293,1.009,1.009,0,0,1,.3.781,1.055,1.055,0,0,1-.322.776,1.162,1.162,0,0,1-.781.317,1.009,1.009,0,0,1-.771-.269,1.009,1.009,0,0,1-.3-.767,1.107,1.107,0,0,1,.3-.8A1.1,1.1,0,0,1,12.6-2.051Zm11.641-4.2a5.069,5.069,0,0,1-1.533,1.138,3.591,3.591,0,0,1-1.611.356,3.137,3.137,0,0,1-1.919-.635A3.5,3.5,0,0,1,18.013-7.08a5.6,5.6,0,0,1-.249-2.344A6.317,6.317,0,0,1,18.555-12a4.837,4.837,0,0,1,1.733-1.812,4.248,4.248,0,0,1,2.358-.6,3.352,3.352,0,0,1,2.666,1.23A5.258,5.258,0,0,1,26.357-9.99a13.3,13.3,0,0,1-.244,2.6,9.857,9.857,0,0,1-2.544,5.5A6.9,6.9,0,0,1,18.691.02h-.439l.156-1.533h.361a5.307,5.307,0,0,0,3.442-1.174A7.02,7.02,0,0,0,24.238-6.25Zm-2.773,0a2.822,2.822,0,0,0,1.709-.5,4.254,4.254,0,0,0,1.348-1.46l.078-.713.029-.791a4.577,4.577,0,0,0-.562-2.334,1.765,1.765,0,0,0-1.5-.859,2.5,2.5,0,0,0-2.065.933,4.227,4.227,0,0,0-.991,2.456,4.723,4.723,0,0,0,.02,1.211,3.079,3.079,0,0,0,.352,1.084A1.765,1.765,0,0,0,21.465-6.25ZM31.807.2a3.209,3.209,0,0,1-2.7-1.274,5.657,5.657,0,0,1-.82-3.56q.02-.723.107-1.426l.352-2.373a8.8,8.8,0,0,1,1.787-4.531,4.273,4.273,0,0,1,3.477-1.445,3.247,3.247,0,0,1,2.71,1.245,5.532,5.532,0,0,1,.825,3.5q-.029.732-.117,1.436L37.09-5.937a9.329,9.329,0,0,1-1.826,4.7A4.246,4.246,0,0,1,31.807.2Zm3.916-8.75a15.115,15.115,0,0,0,.127-1.836q-.049-2.48-1.924-2.549a2.567,2.567,0,0,0-2.212,1.011A7.007,7.007,0,0,0,30.537-8.6l-.42,2.832a14.406,14.406,0,0,0-.127,1.846Q30.039-1.338,31.9-1.27a2.509,2.509,0,0,0,2.144-.957,6.786,6.786,0,0,0,1.206-3.223Zm11.162-2.021L46.66-9.395a4.132,4.132,0,0,1,3.213-1.367,3.26,3.26,0,0,1,1.7.459,2.251,2.251,0,0,1,.962,1.24,4.363,4.363,0,0,1,3.506-1.7A2.794,2.794,0,0,1,58.379-9.7a3.8,3.8,0,0,1,.557,2.754L57.773,0H56.016l1.152-6.963a3.679,3.679,0,0,0,0-.928q-.186-1.328-1.738-1.357a2.669,2.669,0,0,0-1.753.6,2.778,2.778,0,0,0-1.011,1.626L51.465,0H49.688l1.172-6.953a2.233,2.233,0,0,0-.327-1.67,1.721,1.721,0,0,0-1.411-.605,2.894,2.894,0,0,0-2.627,1.5L45.156,0H43.389l1.836-10.566Zm18.281-2.549-.449,2.559h1.924L66.4-9.17H64.482L63.379-2.6a2.292,2.292,0,0,0-.01.469.745.745,0,0,0,.83.762,5.062,5.062,0,0,0,.859-.1L64.922.01a4.809,4.809,0,0,1-1.289.176,1.846,1.846,0,0,1-1.582-.776,3,3,0,0,1-.41-2.036L62.715-9.17H60.85l.244-1.4h1.865l.449-2.559ZM73.477-2.861q.146-1.094-1.2-1.543l-1.836-.537q-2.324-.8-2.246-2.656a2.926,2.926,0,0,1,1.274-2.29,4.539,4.539,0,0,1,2.837-.874,3.784,3.784,0,0,1,2.6.933,2.954,2.954,0,0,1,.962,2.378l-1.758-.01a1.649,1.649,0,0,0-.5-1.289,1.971,1.971,0,0,0-1.377-.518,2.573,2.573,0,0,0-1.582.449,1.645,1.645,0,0,0-.713,1.152q-.127.918,1.123,1.338l.889.244a5.722,5.722,0,0,1,2.578,1.221A2.331,2.331,0,0,1,75.234-3a2.963,2.963,0,0,1-.645,1.719A3.685,3.685,0,0,1,73.027-.161,5.226,5.226,0,0,1,70.947.2a4.122,4.122,0,0,1-2.773-.981,3.034,3.034,0,0,1-1.055-2.476l1.768.01a1.873,1.873,0,0,0,.566,1.426,2.165,2.165,0,0,0,1.553.537,3.045,3.045,0,0,0,1.67-.405A1.559,1.559,0,0,0,73.477-2.861Z" transform="translate(903 1339.5)" fill="#12263f"/>
      <path id="Trazado_170319" data-name="Trazado 170319" d="M5.9,0H4.121l2.09-11.992L2.432-10.664l.3-1.719,5.273-1.9H8.32Zm6.7-2.051a1.058,1.058,0,0,1,.791.293,1.009,1.009,0,0,1,.3.781,1.055,1.055,0,0,1-.322.776,1.162,1.162,0,0,1-.781.317,1.009,1.009,0,0,1-.771-.269,1.009,1.009,0,0,1-.3-.767,1.107,1.107,0,0,1,.3-.8A1.1,1.1,0,0,1,12.6-2.051ZM25.479,0H16.426l.215-1.377,5.244-5.1.957-.947a5.6,5.6,0,0,0,1.826-3.047,2.259,2.259,0,0,0-.42-1.753,1.975,1.975,0,0,0-1.543-.718,2.909,2.909,0,0,0-2.139.747,3.431,3.431,0,0,0-1.045,2.153l-1.748.01a4.945,4.945,0,0,1,.806-2.319A4.488,4.488,0,0,1,20.366-13.9a5.135,5.135,0,0,1,2.407-.513,3.945,3.945,0,0,1,2.808,1.069,3.169,3.169,0,0,1,.894,2.671,6.806,6.806,0,0,1-2.158,3.945l-.9.908-4.57,4.346h6.865Zm6.328.2a3.209,3.209,0,0,1-2.7-1.274,5.657,5.657,0,0,1-.82-3.56q.02-.723.107-1.426l.352-2.373a8.8,8.8,0,0,1,1.787-4.531,4.273,4.273,0,0,1,3.477-1.445,3.247,3.247,0,0,1,2.71,1.245,5.532,5.532,0,0,1,.825,3.5q-.029.732-.117,1.436L37.09-5.937a9.329,9.329,0,0,1-1.826,4.7A4.246,4.246,0,0,1,31.807.2Zm3.916-8.75a15.115,15.115,0,0,0,.127-1.836q-.049-2.48-1.924-2.549a2.567,2.567,0,0,0-2.212,1.011A7.007,7.007,0,0,0,30.537-8.6l-.42,2.832a14.406,14.406,0,0,0-.127,1.846Q30.039-1.338,31.9-1.27a2.509,2.509,0,0,0,2.144-.957,6.786,6.786,0,0,0,1.206-3.223Zm11.162-2.021L46.66-9.395a4.132,4.132,0,0,1,3.213-1.367,3.26,3.26,0,0,1,1.7.459,2.251,2.251,0,0,1,.962,1.24,4.363,4.363,0,0,1,3.506-1.7A2.794,2.794,0,0,1,58.379-9.7a3.8,3.8,0,0,1,.557,2.754L57.773,0H56.016l1.152-6.963a3.679,3.679,0,0,0,0-.928q-.186-1.328-1.738-1.357a2.669,2.669,0,0,0-1.753.6,2.778,2.778,0,0,0-1.011,1.626L51.465,0H49.688l1.172-6.953a2.233,2.233,0,0,0-.327-1.67,1.721,1.721,0,0,0-1.411-.605,2.894,2.894,0,0,0-2.627,1.5L45.156,0H43.389l1.836-10.566Zm18.281-2.549-.449,2.559h1.924L66.4-9.17H64.482L63.379-2.6a2.292,2.292,0,0,0-.01.469.745.745,0,0,0,.83.762,5.062,5.062,0,0,0,.859-.1L64.922.01a4.809,4.809,0,0,1-1.289.176,1.846,1.846,0,0,1-1.582-.776,3,3,0,0,1-.41-2.036L62.715-9.17H60.85l.244-1.4h1.865l.449-2.559ZM73.477-2.861q.146-1.094-1.2-1.543l-1.836-.537q-2.324-.8-2.246-2.656a2.926,2.926,0,0,1,1.274-2.29,4.539,4.539,0,0,1,2.837-.874,3.784,3.784,0,0,1,2.6.933,2.954,2.954,0,0,1,.962,2.378l-1.758-.01a1.649,1.649,0,0,0-.5-1.289,1.971,1.971,0,0,0-1.377-.518,2.573,2.573,0,0,0-1.582.449,1.645,1.645,0,0,0-.713,1.152q-.127.918,1.123,1.338l.889.244a5.722,5.722,0,0,1,2.578,1.221A2.331,2.331,0,0,1,75.234-3a2.963,2.963,0,0,1-.645,1.719A3.685,3.685,0,0,1,73.027-.161,5.226,5.226,0,0,1,70.947.2a4.122,4.122,0,0,1-2.773-.981,3.034,3.034,0,0,1-1.055-2.476l1.768.01a1.873,1.873,0,0,0,.566,1.426,2.165,2.165,0,0,0,1.553.537,3.045,3.045,0,0,0,1.67-.405A1.559,1.559,0,0,0,73.477-2.861Z" transform="translate(1060.711 1495.5)" fill="#12263f"/>
      <g id="Grupo_110690" data-name="Grupo 110690" transform="translate(85 -39.5)">
        <line id="Línea_257" data-name="Línea 257" y2="195" transform="translate(915 1274.5)" fill="none" stroke="#ff9800" stroke-linecap="round" stroke-width="4"/>
        <line id="Línea_260" data-name="Línea 260" x1="18" transform="translate(905.998 1274)" fill="none" stroke="#ff9800" stroke-linecap="round" stroke-width="4"/>
        <line id="Línea_261" data-name="Línea 261" x1="18" transform="translate(905.998 1470)" fill="none" stroke="#ff9800" stroke-linecap="round" stroke-width="4"/>
      </g>
      <g id="Grupo_110693" data-name="Grupo 110693" transform="translate(89.713 -39.5)">
        <line id="Línea_258" data-name="Línea 258" x1="133" transform="translate(952.785 1505)" fill="none" stroke="#ff9800" stroke-linecap="round" stroke-width="4"/>
        <line id="Línea_262" data-name="Línea 262" x1="18" transform="translate(952.785 1496) rotate(90)" fill="none" stroke="#ff9800" stroke-linecap="round" stroke-width="4"/>
        <line id="Línea_263" data-name="Línea 263" x1="18" transform="translate(1085.998 1496) rotate(90)" fill="none" stroke="#ff9800" stroke-linecap="round" stroke-width="4"/>
      </g>
      <g id="Grupo_110681" data-name="Grupo 110681" transform="translate(431.213 -635.504)">
        <rect id="Rectángulo_33722" data-name="Rectángulo 33722" width="124.124" height="183.637" transform="translate(615.271 1879.021)" fill="#fff" stroke="#000" stroke-linecap="round" stroke-linejoin="round" stroke-miterlimit="10" stroke-width="4"/>
        <path id="Trazado_170311" data-name="Trazado 170311" d="M-849.482,700.814H-965.106c-3.757,0-6.8-3.614-6.8-8.072V558.1h129.226V692.742C-842.681,697.2-845.727,700.814-849.482,700.814Z" transform="translate(1584.628 1364.367)" fill="#fff1db" stroke="#000" stroke-linecap="round" stroke-linejoin="round" stroke-miterlimit="10" stroke-width="4"/>
        <rect id="Rectángulo_33723" data-name="Rectángulo 33723" width="134.326" height="9.518" transform="translate(610.17 1869.504)" fill="#ff9800" stroke="#000" stroke-linecap="round" stroke-linejoin="round" stroke-miterlimit="10" stroke-width="4"/>
        <path id="Trazado_170312" data-name="Trazado 170312" d="M-891.488,568.346c-.926-9.7-.5-14.569,0-25.151.067-1.426-.682-2.712-2.106-2.613a436.1,436.1,0,0,1-61.468,0,2.124,2.124,0,0,0-2.106,2.613,92.867,92.867,0,0,1,0,25.151,2.117,2.117,0,0,0,2.106,2.613,436.758,436.758,0,0,1,61.468,0C-892.169,571.06-891.352,569.768-891.488,568.346Z" transform="translate(1601.666 1344.084)" fill="#fff" stroke="#000" stroke-linecap="round" stroke-linejoin="round" stroke-miterlimit="10" stroke-width="4"/>
        <path id="Trazado_170313" data-name="Trazado 170313" d="M-842.777,576.2h-126.3c-2.216,0-4.013-2.134-4.013-4.764v-8.577c0-2.63,1.8-4.764,4.013-4.764h126.3c2.218,0,4.016,2.134,4.016,4.764v8.577C-838.762,574.069-840.559,576.2-842.777,576.2Z" transform="translate(1583.259 1364.367)" fill="#ffc571" stroke="#000" stroke-linecap="round" stroke-linejoin="round" stroke-miterlimit="10" stroke-width="4"/>
      </g>
    </g>
  </g>
</svg>
