<svg xmlns="http://www.w3.org/2000/svg" width="48.607" height="100" viewBox="0 0 48.607 100">
  <g id="hotel" transform="translate(-131.569)">
    <g id="Grupo_85026" data-name="Grupo 85026" transform="translate(133.034 1.465)">
      <g id="Grupo_85021" data-name="Grupo 85021" transform="translate(10.996 19.293)">
        <path id="Trazado_148018" data-name="Trazado 148018" d="M195.372,106.278H220.82v42.229H195.372Z" transform="translate(-195.372 -106.278)" fill="#ff9800"/>
      </g>
      <g id="Grupo_85022" data-name="Grupo 85022" transform="translate(6.395 19.293)">
        <path id="Trazado_148019" data-name="Trazado 148019" d="M171.812,106.278H177.5v42.229h-5.692Z" transform="translate(-171.812 -106.278)" fill="#ff9800"/>
      </g>
      <path id="Trazado_148020" data-name="Trazado 148020" d="M251.966,254.608H248.63a1.517,1.517,0,0,0-1.517,1.517v11.742h6.37V256.125A1.517,1.517,0,0,0,251.966,254.608Z" transform="translate(-226.011 -206.345)" fill="#111e61"/>
      <path id="Trazado_148021" data-name="Trazado 148021" d="M225.318,254.608h-6.053a1.517,1.517,0,0,0-1.517,1.517v11.742H223.8V256.125A1.517,1.517,0,0,1,225.318,254.608Z" transform="translate(-202.382 -206.345)" fill="#111e61"/>
      <path id="Trazado_148022" data-name="Trazado 148022" d="M212.515,351.133a15.375,15.375,0,0,0,0,29.789,15.061,15.061,0,0,0,0-29.789Z" transform="translate(-188.866 -284.017)" fill="#ffee58"/>
      <path id="Trazado_148023" data-name="Trazado 148023" d="M177.609,365.345a15.065,15.065,0,0,1,12.071-14.762,15.06,15.06,0,1,0,0,29.524A15.064,15.064,0,0,1,177.609,365.345Z" transform="translate(-165.272 -283.335)" fill="#ffee58"/>
      <path id="Trazado_148024" data-name="Trazado 148024" d="M331.857,25.84a.971.971,0,0,0-.538-1.656l-2.926-.425a.971.971,0,0,1-.731-.531l-.074-.15H327.2l-.6,1.1-4.1.879-.244,1.37,2.6,2.244-.293,2.393.466.264a.972.972,0,0,1,.9,0l2.617,1.376a.971.971,0,0,0,1.409-1.024l-.5-2.914a.97.97,0,0,1,.279-.859Z" transform="translate(-286.476 -20.035)" fill="#ffee58"/>
      <g id="Grupo_85023" data-name="Grupo 85023" transform="translate(32.338)">
        <path id="Trazado_148025" data-name="Trazado 148025" d="M310.862,18.787l.311-1.811a.97.97,0,0,0-.279-.859l-2.117-2.064a.971.971,0,0,1,.538-1.656l2.926-.425a.971.971,0,0,0,.731-.531l.443-.9-1.235-2.5a.971.971,0,0,0-1.741,0l-1.308,2.651a.972.972,0,0,1-.731.531l-2.926.425a.971.971,0,0,0-.538,1.656l2.117,2.064a.971.971,0,0,1,.279.859l-.5,2.914a.971.971,0,0,0,1.409,1.024l2.617-1.376Z" transform="translate(-304.641 -7.5)" fill="#ffee58"/>
      </g>
      <path id="Trazado_148026" data-name="Trazado 148026" d="M249.072,25.84a.971.971,0,0,0-.538-1.656l-2.926-.425a.971.971,0,0,1-.731-.531l-.074-.15h-.386l-.6,1.1-4.1.879-.244,1.37,2.6,2.244-.293,2.393.466.264a.972.972,0,0,1,.9,0l2.617,1.376a.971.971,0,0,0,1.409-1.024l-.5-2.914a.97.97,0,0,1,.279-.859Z" transform="translate(-219.86 -20.035)" fill="#ffee58"/>
      <g id="Grupo_85024" data-name="Grupo 85024" transform="translate(16.169)">
        <path id="Trazado_148027" data-name="Trazado 148027" d="M228.077,18.787l.311-1.811a.97.97,0,0,0-.279-.859l-2.117-2.064a.971.971,0,0,1,.538-1.656l2.926-.425a.971.971,0,0,0,.731-.531l.443-.9-1.235-2.5a.971.971,0,0,0-1.741,0l-1.308,2.651a.972.972,0,0,1-.731.531l-2.926.425a.971.971,0,0,0-.538,1.656l2.117,2.064a.971.971,0,0,1,.279.859l-.5,2.914a.971.971,0,0,0,1.409,1.024l2.617-1.376Z" transform="translate(-221.856 -7.5)" fill="#ffee58"/>
      </g>
      <path id="Trazado_148028" data-name="Trazado 148028" d="M166.287,25.84a.971.971,0,0,0-.538-1.656l-2.926-.425a.971.971,0,0,1-.731-.531l-.074-.15h-.386l-.6,1.1-4.1.879-.244,1.37,2.6,2.244L159,31.061l.466.264a.972.972,0,0,1,.9,0l2.617,1.376a.971.971,0,0,0,1.409-1.024l-.5-2.914a.97.97,0,0,1,.279-.859Z" transform="translate(-153.244 -20.035)" fill="#ffee58"/>
      <g id="Grupo_85025" data-name="Grupo 85025">
        <path id="Trazado_148029" data-name="Trazado 148029" d="M145.292,18.787l.311-1.811a.97.97,0,0,0-.279-.859l-2.117-2.064a.971.971,0,0,1,.538-1.656l2.926-.425a.971.971,0,0,0,.731-.531l.443-.9-1.235-2.5a.971.971,0,0,0-1.741,0l-1.308,2.651a.972.972,0,0,1-.731.531l-2.926.425a.971.971,0,0,0-.538,1.656l2.117,2.064a.971.971,0,0,1,.279.859l-.5,2.914a.971.971,0,0,0,1.409,1.024l2.617-1.376Z" transform="translate(-139.071 -7.5)" fill="#ffee58"/>
      </g>
    </g>
    <g id="Grupo_85027" data-name="Grupo 85027" transform="translate(131.569 0)">
      <path id="Trazado_148030" data-name="Trazado 148030" d="M201.329,138.662h-1.006a1.465,1.465,0,0,0,0,2.93h1.006a1.465,1.465,0,0,0,0-2.93Z" transform="translate(-185.716 -111.58)"/>
      <path id="Trazado_148031" data-name="Trazado 148031" d="M241.134,138.662h-1.006a1.465,1.465,0,0,0,0,2.93h1.006a1.465,1.465,0,0,0,0-2.93Z" transform="translate(-217.746 -111.58)"/>
      <path id="Trazado_148032" data-name="Trazado 148032" d="M280.938,138.662h-1.006a1.465,1.465,0,0,0,0,2.93h1.006a1.465,1.465,0,0,0,0-2.93Z" transform="translate(-249.776 -111.58)"/>
      <path id="Trazado_148033" data-name="Trazado 148033" d="M201.329,173.655h-1.006a1.465,1.465,0,0,0,0,2.93h1.006a1.465,1.465,0,0,0,0-2.93Z" transform="translate(-185.716 -139.738)"/>
      <path id="Trazado_148034" data-name="Trazado 148034" d="M241.134,173.655h-1.006a1.465,1.465,0,0,0,0,2.93h1.006a1.465,1.465,0,0,0,0-2.93Z" transform="translate(-217.746 -139.738)"/>
      <path id="Trazado_148035" data-name="Trazado 148035" d="M280.938,173.655h-1.006a1.465,1.465,0,0,0,0,2.93h1.006a1.465,1.465,0,0,0,0-2.93Z" transform="translate(-249.776 -139.738)"/>
      <path id="Trazado_148036" data-name="Trazado 148036" d="M201.329,208.647h-1.006a1.465,1.465,0,1,0,0,2.93h1.006a1.465,1.465,0,0,0,0-2.93Z" transform="translate(-185.716 -167.896)"/>
      <path id="Trazado_148037" data-name="Trazado 148037" d="M241.134,208.647h-1.006a1.465,1.465,0,0,0,0,2.93h1.006a1.465,1.465,0,0,0,0-2.93Z" transform="translate(-217.746 -167.896)"/>
      <path id="Trazado_148038" data-name="Trazado 148038" d="M280.938,208.647h-1.006a1.465,1.465,0,0,0,0,2.93h1.006a1.465,1.465,0,0,0,0-2.93Z" transform="translate(-249.776 -167.896)"/>
      <path id="Trazado_148039" data-name="Trazado 148039" d="M178.087,4.164l-2.669-.388-1.194-2.418A2.421,2.421,0,0,0,172.041,0h0a2.421,2.421,0,0,0-2.184,1.358l-1.194,2.418-2.669.388A2.422,2.422,0,0,0,163.956,6.1a2.421,2.421,0,0,0-2.038-1.935l-2.669-.388-1.194-2.418A2.421,2.421,0,0,0,155.872,0h0a2.421,2.421,0,0,0-2.184,1.358l-1.194,2.418-2.669.388A2.422,2.422,0,0,0,147.787,6.1a2.421,2.421,0,0,0-2.038-1.935l-2.669-.388-1.194-2.418A2.421,2.421,0,0,0,139.7,0h0a2.421,2.421,0,0,0-2.184,1.358l-1.194,2.418-2.669.388a2.436,2.436,0,0,0-1.35,4.155l1.931,1.882-.456,2.658a2.436,2.436,0,0,0,3.534,2.568l2.387-1.255,2.387,1.255a2.436,2.436,0,0,0,3.534-2.568l-.456-2.658L147.1,8.319a2.428,2.428,0,0,0,.688-1.258,2.428,2.428,0,0,0,.688,1.258l1.931,1.882-.456,2.658a2.436,2.436,0,0,0,3.534,2.568l2.387-1.255,2.387,1.255a2.436,2.436,0,0,0,3.534-2.568l-.456-2.658,1.931-1.882a2.428,2.428,0,0,0,.688-1.258,2.428,2.428,0,0,0,.688,1.258l1.931,1.882-.456,2.658a2.436,2.436,0,0,0,3.534,2.568l2.387-1.255,2.387,1.255a2.436,2.436,0,0,0,3.534-2.568l-.456-2.658,1.931-1.882a2.436,2.436,0,0,0-1.351-4.156Zm-35.15,4.121a2.436,2.436,0,0,0-.7,2.156l.33,1.928-1.731-.91a2.435,2.435,0,0,0-2.267,0l-1.731.91.331-1.928a2.436,2.436,0,0,0-.7-2.156l-1.4-1.365L137,6.638a2.436,2.436,0,0,0,1.834-1.332l.866-1.754.866,1.754A2.435,2.435,0,0,0,142.4,6.638l1.935.281Zm16.169,0a2.436,2.436,0,0,0-.7,2.156l.33,1.928L157,11.458a2.435,2.435,0,0,0-2.267,0l-1.731.91.331-1.928a2.436,2.436,0,0,0-.7-2.156l-1.4-1.365,1.936-.281a2.436,2.436,0,0,0,1.834-1.332l.866-1.754.866,1.754a2.436,2.436,0,0,0,1.834,1.332l1.935.281Zm16.17,0a2.435,2.435,0,0,0-.7,2.156l.33,1.928-1.731-.91a2.435,2.435,0,0,0-2.267,0l-1.731.91.331-1.928a2.436,2.436,0,0,0-.7-2.156l-1.4-1.365,1.936-.281a2.436,2.436,0,0,0,1.834-1.332l.866-1.754.866,1.754a2.436,2.436,0,0,0,1.834,1.332l1.935.281Z" transform="translate(-131.569 0)"/>
      <path id="Trazado_148040" data-name="Trazado 148040" d="M224.109,369.85a1.465,1.465,0,0,0-1.465,1.465v.1a5.59,5.59,0,0,0,0,10.971v5.292a2.7,2.7,0,0,1-1.584-2.391,1.465,1.465,0,0,0-2.93,0,5.736,5.736,0,0,0,4.513,5.485v.1a1.465,1.465,0,0,0,2.93,0v-.1a5.59,5.59,0,0,0,0-10.971V374.5a2.7,2.7,0,0,1,1.584,2.392,1.465,1.465,0,0,0,2.93,0,5.736,5.736,0,0,0-4.513-5.486v-.1a1.465,1.465,0,0,0-1.465-1.465Zm-1.465,9.437a2.6,2.6,0,0,1,0-4.783Zm4.513,5.995a2.7,2.7,0,0,1-1.584,2.391v-4.783a2.7,2.7,0,0,1,1.584,2.391Z" transform="translate(-201.224 -297.614)"/>
      <path id="Trazado_148041" data-name="Trazado 148041" d="M184.407,344.84a1.465,1.465,0,0,0-.663,2.854,13.595,13.595,0,1,1-6.173,0,1.465,1.465,0,1,0-.663-2.854,16.525,16.525,0,1,0,7.5,0Z" transform="translate(-157.773 -277.458)"/>
      <path id="Trazado_148042" data-name="Trazado 148042" d="M190.25,119.749a1.465,1.465,0,0,0,1.465-1.465V101.7a1.464,1.464,0,0,0-.111-2.924H158.847a1.464,1.464,0,0,0-.111,2.924v39.311a1.464,1.464,0,0,0,.111,2.924H191.6a1.464,1.464,0,0,0,.111-2.924V125.12a1.465,1.465,0,1,0-2.93,0v15.888h-6.043V130.73a2.985,2.985,0,0,0-2.982-2.982h-9.071a2.985,2.985,0,0,0-2.982,2.982v10.277h-6.043v-39.3h27.12v16.576A1.465,1.465,0,0,0,190.25,119.749ZM170.637,130.73a.052.052,0,0,1,.052-.052h9.071a.052.052,0,0,1,.052.052v10.277h-9.175Z" transform="translate(-152.34 -79.485)"/>
    </g>
  </g>
</svg>
