<svg xmlns="http://www.w3.org/2000/svg" width="69.327" height="100" viewBox="0 0 69.327 100">
  <g id="Grupo_110629" data-name="Grupo 110629" transform="translate(566.413 -1808.056)">
    <path id="Trazado_170078" data-name="Trazado 170078" d="M-556.389,1878.919c-.295-1.162-.027-1.7,1.059-2.125a11.47,11.47,0,0,1,4.285-.775c2.732.008,5.464,0,8.2,0h.989c-.083-.693-.2-1.3-.219-1.914a2.288,2.288,0,0,1,2.208-2.577c.715-.063.747-.374.83-.968.191-1.367-.458-1.887-1.572-2.61-2.162-1.4-4.528-1.131-6.827-1.484-.737-.114-1.472-.248-2.2-.422a1.784,1.784,0,0,1-1.516-1.78,1.8,1.8,0,0,1,1.312-1.844c.061-.023.125-.037.186-.059,1.4-.5,1.4-.509.631-1.7a20.65,20.65,0,0,1-2.97-7.455c-.09-.477-.1-.722-.75-.527a5.444,5.444,0,0,1-6.721-2.7,12.924,12.924,0,0,1-1.148-10.173c.185-.712.06-.827-.6-.8a4.746,4.746,0,0,1-3.857-1.262,4.183,4.183,0,0,1-1.069-4.57,4.011,4.011,0,0,1,3.763-2.91c2.044-.1,4.1-.074,6.145-.025.774.018.973-.2.969-.971-.031-6.343-.006-12.686-.031-19.029a2.447,2.447,0,0,1,.9-2.2H-525.1c.806.213.921.938,1.165,1.569-.26,1.082-.994,1.378-2.038,1.376-8.424-.021-16.847,0-25.271-.033-.881,0-1.073.254-1.067,1.094q.055,8.489,0,16.978c-.008.96.194,1.262,1.221,1.258,11.643-.041,23.287-.026,34.93-.026,1.366,0,2.732-.01,4.1-.009.574,0,.877-.178.875-.85q-.033-8.831,0-17.662c0-.613-.213-.77-.793-.763-2.244.024-4.489-.035-6.732.018a1.859,1.859,0,0,1-2.121-1.429,1.868,1.868,0,0,1,1.206-1.52h10.546a2.457,2.457,0,0,1,.9,2.2c-.025,6.344,0,12.688-.031,19.032,0,.773.206.99.974.967,1.852-.057,3.708-.032,5.562-.015a4.378,4.378,0,0,1,4.6,4.289,4.407,4.407,0,0,1-4.413,4.492c-1.463.093-1.452.09-1.154,1.557a14.382,14.382,0,0,1-.234,6.855c-1.268,4.485-3.953,6.108-8.48,5.143a20.661,20.661,0,0,1-3.5,8.665c-.24.337-.241.569.164.739.357.15.71.31,1.071.451a1.812,1.812,0,0,1,1.3,1.858,1.776,1.776,0,0,1-1.437,1.749,19.4,19.4,0,0,1-5.206.666,4.357,4.357,0,0,0-2.746.752,6.571,6.571,0,0,1-1.028.55c-1.821.883-1.811.88-1.672,2.875.027.387.117.551.54.622,2.033.342,2.822,1.411,2.383,3.405-.22,1,.037,1.167.987,1.144,2.666-.066,5.335-.031,8-.022a11.215,11.215,0,0,1,11.523,11.326c.046,2.6-.012,5.206.019,7.808a1.721,1.721,0,0,1-1.476,1.96c-1.2-.388-1.527-.8-1.531-2.028-.007-2.536-.087-5.075.016-7.607a8.286,8.286,0,0,0-8.473-8.519c-2.731,0-5.462.02-8.192-.023-.829-.013-1.044.153-.86,1.036.464,2.23-.681,3.666-2.765,3.547a12.387,12.387,0,0,1-6.924-2.572c-.449-.343-.666-.363-1.126-.009a11.977,11.977,0,0,1-6.339,2.513c-2.712.239-3.836-.995-3.318-3.656.155-.8-.155-.857-.789-.852q-4,.032-8,0a9.593,9.593,0,0,0-3.531.59A1.572,1.572,0,0,1-556.389,1878.919ZM-529.782,1867a11.133,11.133,0,0,0,3.536-.807l-1.579-.482a9.1,9.1,0,0,1-3.6-2.578c-.18-.224-.317-.4-.584-.067a9.561,9.561,0,0,1-5.274,3.145A16.8,16.8,0,0,0-529.782,1867Zm11.332-27.915a.861.861,0,0,0-.19-.043q-15.03-.007-30.06-.024c-.667,0-.721.289-.718.818.017,3.188,0,6.377.012,9.565a17.594,17.594,0,0,0,2.95,9.82c.288-.448.552-.852.81-1.26a16.771,16.771,0,0,1,2.354-3.1,8.522,8.522,0,0,1,11.137-.632c.391.31.555.229.865-.048a6.187,6.187,0,0,1,2.846-1.415,8.7,8.7,0,0,1,8.986,2.818l2.447,3.616a16.318,16.318,0,0,0,2.65-6.707c.6-4.294.169-8.62.293-12.93.013-.441-.2-.552-.592-.543C-515.923,1839.05-517.187,1839.063-518.45,1839.082Zm-13.359-2.959v0q14.691,0,29.382,0a6.144,6.144,0,0,0,1.161-.086,1.334,1.334,0,0,0,1.168-1.623c-.088-.873-.572-1.176-1.89-1.176l-59.448-.006a7.007,7.007,0,0,0-.78.017,1.216,1.216,0,0,0-1.15,1.024,1.352,1.352,0,0,0,.659,1.587,3.127,3.127,0,0,0,1.613.273Q-546.451,1836.121-531.808,1836.123Zm-14.367,27.584a32.906,32.906,0,0,0,8.145-.388c2.154-.506,3.94-1.525,4.618-3.835a2.739,2.739,0,0,0-1.283-3.5,5.956,5.956,0,0,0-6.936,1.379C-543.23,1859.318-544.243,1861.677-546.175,1863.707Zm28.858,0a46.16,46.16,0,0,1-4.046-5.728,5.725,5.725,0,0,0-5.551-2.5c-2.941.23-4.169,2.385-2.763,4.985a5.936,5.936,0,0,0,4.216,2.851A33.366,33.366,0,0,0-517.318,1863.709Zm-35.039-19.524c0-1.5-.016-2.991.009-4.486.009-.5-.15-.691-.666-.676-1.039.031-2.083.061-3.119-.009a1.242,1.242,0,0,0-1.454.948,10.359,10.359,0,0,0,.659,8.563,3.072,3.072,0,0,0,1.133,1.187,2.754,2.754,0,0,0,2.691-.022c.893-.385.747-1.1.747-1.8Q-552.356,1846.038-552.356,1844.185Zm41.227-.009c0,1.3.087,2.608-.026,3.9-.1,1.134.479,1.583,1.4,1.866a2.539,2.539,0,0,0,2.919-1.008c1.67-2.09,2.071-6.962.78-9.318a.909.909,0,0,0-.9-.592q-1.754.045-3.51,0c-.507-.012-.683.155-.673.668C-511.111,1841.186-511.128,1842.681-511.129,1844.176Zm-16.229,26.849c0-1.4,0-1.409-1.219-1.217a21.9,21.9,0,0,1-6.882-.066c-.2-.032-.427-.223-.617.036a2.363,2.363,0,0,0,.721,2.549,10.344,10.344,0,0,1,3.121,1.755c.359.308.578.359.963.019a7.867,7.867,0,0,1,2.853-1.632C-527.564,1872.2-527.138,1871.787-527.358,1871.026Zm-11.61,8.88c0,.6.017.659.478.567a9.973,9.973,0,0,0,4.783-2.221.918.918,0,0,0-.033-1.566,10.354,10.354,0,0,0-4.7-2.186c-.4-.089-.617.03-.526.5A11.93,11.93,0,0,1-538.968,1879.905Zm14.5-4.816c.122-.548-.126-.745-.63-.636a10.182,10.182,0,0,0-4.617,2.138c-.738.633-.74,1.149-.012,1.781a10.171,10.171,0,0,0,4.612,2.149c.484.106.746-.056.643-.614A12.024,12.024,0,0,1-524.469,1875.089Z" transform="translate(0)" fill="#040403"/>
    <path id="Trazado_170079" data-name="Trazado 170079" d="M-536.875,2079.572a1.572,1.572,0,0,0,2.114.62,9.593,9.593,0,0,1,3.531-.59q4,.034,8,0c.634-.005.944.056.789.852-.518,2.661.606,3.895,3.318,3.656a11.98,11.98,0,0,0,6.339-2.513c.46-.354.677-.334,1.126.009a12.386,12.386,0,0,0,6.924,2.572c2.084.119,3.229-1.317,2.765-3.547-.184-.883.031-1.049.86-1.036,2.73.044,5.461.022,8.192.023a8.286,8.286,0,0,1,8.473,8.519c-.1,2.532-.023,5.071-.016,7.607,0,1.224.328,1.64,1.531,2.028q0,1.559,0,3.119c-1.266.4-1.511.75-1.538,2.22a2.416,2.416,0,0,1-2.669,2.654c-1.953.013-3.907-.021-5.858.027-.717.018-.953-.174-.942-.921.042-2.961.016-5.924.019-8.885a2.959,2.959,0,0,0-.15-1.153,1.389,1.389,0,0,0-1.334-.962,1.4,1.4,0,0,0-1.411.992,3.04,3.04,0,0,0-.138,1.154c0,2.962-.018,5.924.014,8.886.007.672-.18.888-.872.887q-14.4-.031-28.8,0c-.757,0-.921-.242-.912-.949.036-2.962.012-5.924.018-8.886a2.533,2.533,0,0,0-.3-1.409,1.43,1.43,0,0,0-2.438-.01,2.5,2.5,0,0,0-.3,1.408c.006,2.929-.036,5.86.026,8.788.019.9-.273,1.087-1.1,1.06-1.886-.06-3.775-.012-5.662-.021a2.422,2.422,0,0,1-2.719-2.7c-.009-5.11,0-10.22,0-15.331a7.072,7.072,0,0,1,.87-3.56,2.143,2.143,0,0,0-.048-2.455A7.335,7.335,0,0,1-536.875,2079.572Zm24.657,17.159a4.737,4.737,0,0,0,4.617-4.614,4.729,4.729,0,0,0-4.688-4.643,4.747,4.747,0,0,0-4.566,4.664A4.729,4.729,0,0,0-512.218,2096.731Z" transform="translate(-19.514 -200.653)" fill="#12263f"/>
    <path id="Trazado_170080" data-name="Trazado 170080" d="M-547.664,2087.29a2.143,2.143,0,0,1,.048,2.455,7.073,7.073,0,0,0-.87,3.56c.009,5.11,0,10.22,0,15.331a2.423,2.423,0,0,0,2.719,2.7c1.887.009,3.777-.039,5.662.021.831.027,1.124-.162,1.1-1.06-.061-2.928-.02-5.859-.026-8.788a2.5,2.5,0,0,1,.3-1.408,1.43,1.43,0,0,1,2.438.009,2.534,2.534,0,0,1,.3,1.41c-.006,2.962.018,5.924-.018,8.886-.009.707.155.951.912.949q14.4-.038,28.8,0c.692,0,.879-.215.872-.887-.032-2.962-.013-5.924-.014-8.886a3.04,3.04,0,0,1,.138-1.154,1.4,1.4,0,0,1,1.411-.992,1.389,1.389,0,0,1,1.334.962,2.96,2.96,0,0,1,.15,1.153c0,2.962.023,5.924-.019,8.886-.011.747.225.938.942.92,1.951-.048,3.905-.014,5.858-.027a2.416,2.416,0,0,0,2.669-2.654c.027-1.469.272-1.823,1.538-2.22,1.243.422,1.463.731,1.462,2.056a5.4,5.4,0,0,1-5.713,5.76q-25.071.005-50.143,0a5.322,5.322,0,0,1-5.654-5.51c-.047-5.105-.016-10.211-.006-15.317a11.151,11.151,0,0,1,1.127-4.894C-549.618,2087.071-549.228,2086.889-547.664,2087.29Z" transform="translate(-11.035 -206.221)" fill="#040403"/>
    <path id="Trazado_170081" data-name="Trazado 170081" d="M-484.024,1813.771a15.089,15.089,0,0,1,3.1-.048,1.859,1.859,0,0,0,2.121,1.429c2.243-.053,4.488.006,6.732-.018.58-.006.795.15.793.763q-.029,8.831,0,17.662c0,.672-.3.851-.875.85-1.366,0-2.732.009-4.1.009-11.644,0-23.287-.014-34.93.026-1.026,0-1.228-.3-1.221-1.258q.068-8.489,0-16.978c-.005-.84.186-1.1,1.068-1.094,8.424.036,16.847.012,25.271.033C-485.018,1815.149-484.284,1814.853-484.024,1813.771Z" transform="translate(-39.913 -4.146)" fill="#12263f"/>
    <path id="Trazado_170082" data-name="Trazado 170082" d="M-471.332,1943.248a8.7,8.7,0,0,0-8.986-2.818,6.187,6.187,0,0,0-2.846,1.415c-.31.277-.473.358-.865.048a8.522,8.522,0,0,0-11.137.632,16.773,16.773,0,0,0-2.354,3.1c-.258.408-.522.812-.81,1.26a17.594,17.594,0,0,1-2.95-9.82c-.01-3.188,0-6.377-.012-9.565,0-.53.051-.82.718-.818q15.029.035,30.06.024a.855.855,0,0,1,.189.043c0,3.667.018,7.335-.014,11A17.958,17.958,0,0,1-471.332,1943.248Z" transform="translate(-48.125 -87.664)" fill="#fdc6a2"/>
    <path id="Trazado_170083" data-name="Trazado 170083" d="M-523.3,1907.38q-14.642,0-29.285,0a3.127,3.127,0,0,1-1.613-.273,1.352,1.352,0,0,1-.659-1.587,1.216,1.216,0,0,1,1.15-1.024,7.007,7.007,0,0,1,.78-.017l59.448.006c1.319,0,1.8.3,1.89,1.176a1.334,1.334,0,0,1-1.168,1.623,6.144,6.144,0,0,1-1.161.086q-14.691.006-29.382,0Z" transform="translate(-8.509 -71.257)" fill="#12263f"/>
    <path id="Trazado_170084" data-name="Trazado 170084" d="M-386.5,1943.26a17.958,17.958,0,0,0,.993-5.5c.032-3.667.012-7.335.014-11,1.263-.019,2.527-.032,3.79-.062.393-.009.605.1.592.543-.123,4.31.309,8.636-.293,12.93a16.316,16.316,0,0,1-2.65,6.707Z" transform="translate(-132.96 -87.676)" fill="#fd9c79"/>
    <path id="Trazado_170085" data-name="Trazado 170085" d="M-488.872,1997.8c1.932-2.03,2.945-4.388,4.544-6.342a5.956,5.956,0,0,1,6.936-1.379,2.739,2.739,0,0,1,1.283,3.5c-.678,2.31-2.464,3.329-4.618,3.835A32.894,32.894,0,0,1-488.872,1997.8Z" transform="translate(-57.303 -134.097)" fill="#afafaf"/>
    <path id="Trazado_170086" data-name="Trazado 170086" d="M-414.947,1997.923a33.366,33.366,0,0,1-8.144-.39,5.936,5.936,0,0,1-4.216-2.851c-1.406-2.6-.178-4.756,2.763-4.985a5.725,5.725,0,0,1,5.551,2.5A46.164,46.164,0,0,0-414.947,1997.923Z" transform="translate(-102.371 -134.215)" fill="#afafaf"/>
    <path id="Trazado_170087" data-name="Trazado 170087" d="M-529.133,1931.829q0,1.853,0,3.706c0,.7.146,1.415-.747,1.8a2.754,2.754,0,0,1-2.691.022,3.072,3.072,0,0,1-1.133-1.187,10.359,10.359,0,0,1-.659-8.563,1.242,1.242,0,0,1,1.454-.948c1.035.07,2.08.039,3.119.009.515-.015.674.173.666.676C-529.15,1928.838-529.134,1930.333-529.133,1931.829Z" transform="translate(-23.223 -87.644)" fill="#fd9c79"/>
    <path id="Trazado_170088" data-name="Trazado 170088" d="M-354.7,1931.859c0-1.5.018-2.991-.009-4.485-.009-.513.167-.68.673-.668q1.754.044,3.51,0a.909.909,0,0,1,.9.592c1.291,2.355.889,7.227-.78,9.318a2.539,2.539,0,0,1-2.919,1.008c-.918-.283-1.5-.732-1.4-1.866C-354.608,1934.467-354.7,1933.159-354.7,1931.859Z" transform="translate(-156.434 -87.682)" fill="#fd9c79"/>
    <path id="Trazado_170089" data-name="Trazado 170089" d="M-441.874,2045.417c.221.761-.206,1.178-1.06,1.444a7.867,7.867,0,0,0-2.853,1.632c-.384.339-.6.289-.963-.019a10.343,10.343,0,0,0-3.121-1.755,2.363,2.363,0,0,1-.721-2.549c.19-.259.415-.068.617-.036a21.9,21.9,0,0,0,6.882.066C-441.876,2044.008-441.874,2044.019-441.874,2045.417Z" transform="translate(-85.484 -174.392)" fill="#fd9c79"/>
    <path id="Trazado_170090" data-name="Trazado 170090" d="M-461.31,2067.967a11.929,11.929,0,0,0,0-4.9c-.091-.473.121-.591.526-.5a10.35,10.35,0,0,1,4.7,2.186.918.918,0,0,1,.033,1.566,9.976,9.976,0,0,1-4.783,2.221C-461.293,2068.627-461.307,2068.566-461.31,2067.967Z" transform="translate(-77.658 -188.062)" fill="#ff9800"/>
    <path id="Trazado_170091" data-name="Trazado 170091" d="M-422.133,2063.015a12.024,12.024,0,0,0,0,4.818c.1.559-.159.72-.643.614a10.174,10.174,0,0,1-4.612-2.149c-.728-.632-.726-1.149.012-1.782a10.182,10.182,0,0,1,4.617-2.138C-422.259,2062.27-422.011,2062.467-422.133,2063.015Z" transform="translate(-102.337 -187.926)" fill="#ff9800"/>
    <path id="Trazado_170092" data-name="Trazado 170092" d="M-447.3,2022.226a16.8,16.8,0,0,1-7.5-.789,9.561,9.561,0,0,0,5.274-3.145c.267-.337.4-.157.584.067a9.1,9.1,0,0,0,3.6,2.578C-445.76,2021.721-446.719,2021.685-447.3,2022.226Z" transform="translate(-82.484 -155.228)" fill="#fdc6a2"/>
    <path id="Trazado_170093" data-name="Trazado 170093" d="M-426.06,2030.244c.579-.541,1.538-.5,1.957-1.289l1.579.482A11.133,11.133,0,0,1-426.06,2030.244Z" transform="translate(-103.722 -163.247)" fill="#fd9c79"/>
    <path id="Trazado_170094" data-name="Trazado 170094" d="M-446.664,2119.11a4.729,4.729,0,0,1-4.638-4.592,4.747,4.747,0,0,1,4.566-4.665,4.729,4.729,0,0,1,4.688,4.643A4.737,4.737,0,0,1-446.664,2119.11Zm1.618-4.579a1.6,1.6,0,0,0-1.532-1.671,1.608,1.608,0,0,0-1.725,1.577,1.608,1.608,0,0,0,1.534,1.672A1.6,1.6,0,0,0-445.047,2114.53Z" transform="translate(-85.067 -223.031)" fill="#040403"/>
    <path id="Trazado_170095" data-name="Trazado 170095" d="M-436.557,2123.035a1.6,1.6,0,0,1-1.723,1.578,1.608,1.608,0,0,1-1.534-1.672,1.608,1.608,0,0,1,1.725-1.577A1.6,1.6,0,0,1-436.557,2123.035Z" transform="translate(-93.558 -231.535)" fill="#fefefe"/>
  </g>
</svg>
