<svg xmlns="http://www.w3.org/2000/svg" width="100" height="89.594" viewBox="0 0 100 89.594">
  <g id="Grupo_110609" data-name="Grupo 110609" transform="translate(671.531 -1719.31)">
    <path id="Trazado_169913" data-name="Trazado 169913" d="M-421.865,1829.556c-.416.207-.6.71-1.136.795-.9.143-1.45-.24-1.824-1.374.006-7.354.061-14.708-.008-22.061a6.873,6.873,0,0,0-4.039-6.312c-.595-.31-.885-.189-1.264.3a21.61,21.61,0,0,1-7.076,6.026,21.184,21.184,0,0,1-18.524,1.026,21.916,21.916,0,0,1-9.3-7.036.9.9,0,0,0-1.364-.282,6.888,6.888,0,0,0-3.918,5.877c-.107,1.653-.065,3.317-.063,4.976q.008,8.736.035,17.471c-.231.794-.6,1.433-1.567,1.407-.917-.026-1.257-.651-1.468-1.411.022-.388.061-.776.061-1.164,0-6.635.042-13.27-.013-19.9-.031-3.809,1.245-6.918,4.412-9.146.305-.215.463-.38.2-.772a6.882,6.882,0,0,1-.458-6.777,7.687,7.687,0,0,1,2.492-2.551c.334-.182.28-.475.307-.754a5.638,5.638,0,0,1,1.971-3.991.771.771,0,0,0,.31-.925,10.956,10.956,0,0,1-.442-2.489,3.206,3.206,0,0,0-.523-1.439,20.563,20.563,0,0,1,13.346-30.893,20.559,20.559,0,0,1,24.4,17.185,19.871,19.871,0,0,1-2.9,13.8c-.548.866-.346,1.829-.633,2.713a2.169,2.169,0,0,0,.654,2.694,4.2,4.2,0,0,1,1.318,3.154,1.276,1.276,0,0,0,.61,1.117,6.546,6.546,0,0,1,1.875,9.032c-.174.285-.486.508.012.841a9.782,9.782,0,0,1,4.361,6.75c.007.039.1.064.149.1Zm-14.555-55.585-.232-.015.085.191c.081.176.157.354.243.527a4.665,4.665,0,0,1-.386,5.148,4.608,4.608,0,0,1-4.685,1.97,4.775,4.775,0,0,1-4-3.54,2.075,2.075,0,0,0-2.209-1.59,2.033,2.033,0,0,0-2.2,1.614,4.968,4.968,0,0,1-5.567,3.522,4.91,4.91,0,0,1-4.008-4.112,4.895,4.895,0,0,1,2.878-5.242,5,5,0,0,1,5.72,1.381c.276.364.525.595,1.049.379a5.6,5.6,0,0,1,4.263-.015c.32.123.615.229.863-.122a5.147,5.147,0,0,1,3.455-2.033,2.185,2.185,0,0,0-.352-.257c-.242-.091-.489-.171-.738-.243-3.928-1.129-7.922-2.088-11.419-4.339-.509-.328-.681.005-.922.318a14.461,14.461,0,0,1-3.821,3.431,1.979,1.979,0,0,1-2.573-.008c-.4-1.316-.268-1.764.879-2.424a11.589,11.589,0,0,0,4.032-4.018c.861-1.369,1.539-1.51,2.854-.543a19.791,19.791,0,0,0,4.5,2.494c2.9,1.141,5.95,1.828,8.924,2.745,3.437,1.059,6.528,2.6,8.28,6.116a17.691,17.691,0,0,0,1.257-9.717,17.628,17.628,0,0,0-17.7-14.876,17.515,17.515,0,0,0-16.972,14.8,16.015,16.015,0,0,0,1.65,10.564,1.935,1.935,0,0,0,.525,1.122,6.466,6.466,0,0,1,1.2,3.425,12.611,12.611,0,0,0,3.658,7.7c3.992,4.121,8.886,5.513,14.362,3.858,5.559-1.68,8.826-5.635,9.888-11.343A6.477,6.477,0,0,0-436.421,1773.971Zm-26.222,25.186a18.835,18.835,0,0,0,30.09-.039c-.852-.342-1.722-.625-2.527-1.034a1.477,1.477,0,0,0-2,.368,15.378,15.378,0,0,1-19.68,1.219c-.832-.633-1.406-1.893-2.467-1.848a10.314,10.314,0,0,0-3.076,1.146A3.17,3.17,0,0,0-462.643,1799.157Zm23.312-2.707c-.323-.219-.663-.416-.961-.664a4.426,4.426,0,0,1-.814-.834c-.252-.362-.5-.285-.834-.167a16.739,16.739,0,0,1-11.366-.005c-.24-.083-.482-.253-.685.061a5.981,5.981,0,0,1-1.874,1.617C-451.461,1800.775-443.3,1800.734-439.331,1796.45Zm6.917-9.924a17.66,17.66,0,0,1-6.271,6.736,4.026,4.026,0,0,0,.595.4c2.7,1.1,5.413,2.171,8.108,3.284.483.2.651-.107.865-.367a3.591,3.591,0,0,0-1.242-5.516c-1.155-.549-1.746-1.243-1.474-2.573A2.166,2.166,0,0,0-432.413,1786.526Zm-30.381-.027a2.209,2.209,0,0,0-.6,1.838c.4,1.5-.307,2.186-1.55,2.783a3.608,3.608,0,0,0-1.242,5.336c.342.467.671.689,1.286.379.808-.407,1.676-.694,2.519-1.03,1.716-.684,3.44-1.351,5.143-2.067.275-.116,1.034-.293.26-.8A17.349,17.349,0,0,1-462.794,1786.5Zm6.3-9.531a2.022,2.022,0,0,0,1.984,1.977,2.076,2.076,0,0,0,1.977-2.013,2.053,2.053,0,0,0-2.011-1.967A2.005,2.005,0,0,0-456.5,1776.968Zm17.825.009a2.034,2.034,0,0,0-1.964-2.006,2,2,0,0,0-2,1.953,2.037,2.037,0,0,0,1.943,2.024A2.075,2.075,0,0,0-438.674,1776.977Z" transform="translate(-149.666 -21.478)" fill="#030302"/>
    <path id="Trazado_169914" data-name="Trazado 169914" d="M-668.563,1807.48c-.372,1.146-.879,1.564-1.768,1.384-1-.2-1.2-.95-1.2-1.84q.008-17.674.009-35.347a6.511,6.511,0,0,1,4.8-6.579c3-.959,6.021-1.834,9.04-2.723a1.837,1.837,0,0,0,1.273-1.039c.457-.946.694-2.187,2.191-2.132.246.009.2-.287-.3-.685a17.17,17.17,0,0,1-4.021-4.475,16.3,16.3,0,0,1-2.423-6.924,1.024,1.024,0,0,0-.7-1,4.77,4.77,0,0,1-2.639-6.52c.17-.43.081-.583-.268-.836a5.655,5.655,0,0,1-.372-9.3,1.1,1.1,0,0,0,.434-1.076,4.828,4.828,0,0,1,6.154-5.221,1.035,1.035,0,0,0,1.035-.258,14.587,14.587,0,0,1,9.487-3.521,69.6,69.6,0,0,1,9.75.192,14,14,0,0,1,7.1,3.192,1.5,1.5,0,0,0,1.475.339,4.825,4.825,0,0,1,5.887,5.339.967.967,0,0,0,.412.982,5.671,5.671,0,0,1-.3,9.31c-.4.287-.453.464-.272.922a4.776,4.776,0,0,1-2.648,6.448,1,1,0,0,0-.718.9,16.714,16.714,0,0,1-6.437,11.5c-.19.153-.472.255-.458.7,1.292-.17,1.777.758,2.152,1.74a2.384,2.384,0,0,0,1.8,1.531c2.623.734,5.22,1.565,7.824,2.367,1.554.479,1.839,1.07,1.285,2.6a2.337,2.337,0,0,1-2.22.187c-1.384-.466-2.785-.885-4.188-1.289-1.648-.474-1.26-.6-1.923.909a39.042,39.042,0,0,1-13.689,16.656,1.657,1.657,0,0,1-2.075.021,36.793,36.793,0,0,1-3.767-2.937,39.41,39.41,0,0,1-10.134-14.269c-.243-.593-.492-.806-1.14-.6-1.886.6-3.791,1.146-5.682,1.731a2.262,2.262,0,0,0-1.241.708c1.863,1.852,3.686,3.752,5.6,5.549a9.959,9.959,0,0,1,3.26,7.814c-.083,8.521-.016,17.044-.009,25.565a1.44,1.44,0,0,1-1.44,1.391c-.966.033-1.313-.637-1.554-1.413q.006-13.518,0-27.036a4.38,4.38,0,0,0-1.217-3.011c-1.263-1.356-2.585-2.658-3.882-3.982l-2.314-2.363v1.35q0,13.227,0,26.454C-668.593,1801.754-668.574,1804.617-668.563,1807.48Zm24.526-85.177q-1.611,0-3.221,0a12.457,12.457,0,0,0-7.731,2.521c-.363.273-.481.44-.252.917a4.674,4.674,0,0,1-.6,5.206.938.938,0,0,0-.168.974c1.112,3.564-.411,6.481-3.966,7.642-1.34.438-1.874,1.08-1.813,2.184.055,1,.718,1.6,2.045,1.852,1.153.221,1.464.557,1.548,1.748a16.2,16.2,0,0,0,.847,4.485,14.165,14.165,0,0,0,15.561,9.188,14.177,14.177,0,0,0,11.843-13.444c.058-1.391.336-1.727,1.635-1.979,1.235-.24,1.914-.859,1.989-1.812a2.011,2.011,0,0,0-1.783-2.207,5.757,5.757,0,0,1-4.017-7.625.9.9,0,0,0-.134-.977,4.722,4.722,0,0,1-.6-5.293c.17-.353.185-.545-.162-.8a13.974,13.974,0,0,0-3.958-2.043C-639.29,1722.1-641.673,1722.357-644.037,1722.3Zm-1.5,48.012c-.481.628-.8,1.06-1.136,1.48a3.216,3.216,0,0,1-2.875,1.342,3.265,3.265,0,0,1-2.389-1.336c-.879-1.093-1.761-2.183-2.677-3.318a.488.488,0,0,0-.006.59,35.87,35.87,0,0,0,10.148,11.7c.462.346.7.08,1-.148a35.869,35.869,0,0,0,9.529-10.721,1.627,1.627,0,0,0,.413-1.407c-.968,1.207-1.829,2.335-2.749,3.414a3.188,3.188,0,0,1-5.136-.073c-.357-.438-.681-.9-1.191-1.581,0,.652,0,1,0,1.345,0,1.562.018,3.124-.019,4.685a1.321,1.321,0,0,1-1.343,1.393,1.36,1.36,0,0,1-1.519-1.208,4.693,4.693,0,0,1-.05-.971C-645.542,1773.856-645.539,1772.212-645.539,1770.315Zm-15.576-33.532a2.663,2.663,0,0,0,2.208-1.491,2.722,2.722,0,0,0-.113-2.87c-.971-1.547-.922-1.846.5-2.952a1.889,1.889,0,0,0,.529-2.59,1.948,1.948,0,0,0-2.455-.793,2.029,2.029,0,0,0-1.07,2.445c.6,1.97.6,1.97-1.236,2.974a2.783,2.783,0,0,0-1.377,3.13A2.88,2.88,0,0,0-661.115,1736.783Zm31.565-2.955a2.873,2.873,0,0,0,2.323,2.928,2.831,2.831,0,0,0,3.19-1.958,2.755,2.755,0,0,0-1.449-3.348c-1.705-.871-1.771-1.034-1.149-2.853a2.009,2.009,0,0,0-1.059-2.517,1.937,1.937,0,0,0-2.443.818,1.9,1.9,0,0,0,.633,2.638c1.25.937,1.351,1.469.493,2.745A2.619,2.619,0,0,0-629.55,1733.828Zm-4.157,30.15c0-.889-.682-1.318-1.394-.963-2.032,1.015-4.055,2.05-6.1,3.041-.514.249-.6.453-.234.913.709.888,1.4,1.793,2.046,2.728.419.608.7.6,1.149.02,1.372-1.773,2.793-3.508,4.192-5.261C-633.908,1764.284-633.79,1764.1-633.707,1763.978Zm-12.575,2.415c-2.315-1.16-4.542-2.286-6.783-3.386-.264-.13-.616-.57-.9-.039-.213.4-.653.809-.242,1.325,1.5,1.881,3,3.753,4.5,5.634.268.337.513.364.776.011Zm7.51-4.793-.042-.3a19.412,19.412,0,0,1-10.726.1c1.661.948,3.336,1.778,5,2.619a.841.841,0,0,0,.828.064Q-641.243,1762.833-638.772,1761.6Zm-16.08,6.894c.032-.038.1-.084.091-.116a.179.179,0,0,0-.109-.117c-.092-.024-.177.014-.144.126C-655,1768.431-654.918,1768.453-654.852,1768.494Z" transform="translate(0 0)" fill="#030302"/>
    <path id="Trazado_169915" data-name="Trazado 169915" d="M-644.351,1951.721c-.008-8.522-.074-17.044.009-25.565a9.959,9.959,0,0,0-3.26-7.814c-1.918-1.8-3.741-3.7-5.6-5.549a2.261,2.261,0,0,1,1.241-.708c1.892-.585,3.8-1.128,5.682-1.731.648-.207.9.006,1.14.6a39.409,39.409,0,0,0,10.134,14.269,36.793,36.793,0,0,0,3.767,2.937,1.657,1.657,0,0,0,2.075-.021,39.04,39.04,0,0,0,13.689-16.656c.663-1.5.275-1.383,1.923-.908,1.4.4,2.8.823,4.188,1.289a2.337,2.337,0,0,0,2.22-.187,3.985,3.985,0,0,1,1.6,1.535l-2.786,2.772c-1.141-.607-1.556-.552-2.494.367-.7.683-1.356,1.406-2.074,2.065a9.8,9.8,0,0,0-3.208,7.739c.063,8.519.007,17.04,0,25.559Z" transform="translate(-13.841 -144.219)" fill="#ff9800"/>
    <path id="Trazado_169916" data-name="Trazado 169916" d="M-461.112,1991.6q-.019-8.736-.035-17.471c0-1.659-.043-3.323.063-4.976a6.888,6.888,0,0,1,3.918-5.877.9.9,0,0,1,1.364.282,21.915,21.915,0,0,0,9.3,7.037,21.185,21.185,0,0,0,18.524-1.026,21.609,21.609,0,0,0,7.076-6.026c.379-.494.67-.615,1.264-.3a6.873,6.873,0,0,1,4.039,6.312c.069,7.353.013,14.707.008,22.061l-5.648,0q-.017-9.12-.038-18.238a5.191,5.191,0,0,0-.121-1.253,1.292,1.292,0,0,0-1.454-1.024,1.3,1.3,0,0,0-1.313,1.2,8.026,8.026,0,0,0-.049,1.167q-.021,9.071-.036,18.141h-28.2q-.017-9.168-.037-18.336a4.406,4.406,0,0,0-.08-1.063,1.33,1.33,0,0,0-1.5-1.106,1.354,1.354,0,0,0-1.335,1.3,7.776,7.776,0,0,0-.023.974q-.012,9.12-.023,18.24Z" transform="translate(-158.896 -184.109)" fill="#ffd494"/>
    <path id="Trazado_169917" data-name="Trazado 169917" d="M-659.506,1967.3c-.011-2.863-.03-5.726-.031-8.588q-.006-13.227,0-26.454v-1.35l2.314,2.363c1.3,1.324,2.619,2.626,3.882,3.982a4.379,4.379,0,0,1,1.217,3.011q.02,13.518,0,27.036Z" transform="translate(-9.057 -159.819)" fill="#ffee58"/>
    <path id="Trazado_169918" data-name="Trazado 169918" d="M-484.708,1925.1l2.786-2.772.554.73a6.883,6.883,0,0,0,.457,6.778c.259.393.1.557-.2.772-3.167,2.229-4.443,5.337-4.412,9.146.055,6.635.016,13.27.012,19.9,0,.388-.039.776-.061,1.164l-3.92,0a2.855,2.855,0,0,1-.028-.29q0-13.108,0-26.216a5.6,5.6,0,0,1,1.74-4.1c.9-.9,1.778-1.806,2.694-2.681A1.761,1.761,0,0,0-484.708,1925.1Z" transform="translate(-137.469 -153.341)" fill="#ffee58"/>
    <path id="Trazado_169919" data-name="Trazado 169919" d="M-493.846,1932.425a1.761,1.761,0,0,1-.382,2.434c-.916.875-1.8,1.786-2.694,2.681a5.6,5.6,0,0,0-1.74,4.1q0,13.108,0,26.216a2.862,2.862,0,0,0,.028.29c-.19.823-.593,1.434-1.54,1.413-.9-.02-1.274-.616-1.451-1.4.009-8.52.065-17.04,0-25.56a9.8,9.8,0,0,1,3.208-7.739c.718-.659,1.377-1.382,2.074-2.065C-495.4,1931.872-494.986,1931.817-493.846,1932.425Z" transform="translate(-128.332 -160.664)" fill="#030302"/>
    <path id="Trazado_169920" data-name="Trazado 169920" d="M-310.337,2016.351q.017-9.07.036-18.14a8.023,8.023,0,0,1,.049-1.167,1.3,1.3,0,0,1,1.313-1.2,1.292,1.292,0,0,1,1.454,1.023,5.191,5.191,0,0,1,.121,1.253q.027,9.119.038,18.238c-.254.767-.6,1.438-1.568,1.4C-309.792,2017.721-310.173,2017.145-310.337,2016.351Z" transform="translate(-272.811 -208.865)" fill="#030302"/>
    <path id="Trazado_169921" data-name="Trazado 169921" d="M-437.835,2016.358q.011-9.12.023-18.24a7.787,7.787,0,0,1,.023-.974,1.354,1.354,0,0,1,1.335-1.3,1.33,1.33,0,0,1,1.5,1.106,4.405,4.405,0,0,1,.08,1.063q.023,9.168.037,18.336c-.221.795-.594,1.437-1.551,1.406C-437.28,2017.725-437.672,2017.153-437.835,2016.358Z" transform="translate(-176.511 -208.861)" fill="#030302"/>
    <path id="Trazado_169922" data-name="Trazado 169922" d="M-437.981,1785.2a16.015,16.015,0,0,1-1.65-10.564,17.516,17.516,0,0,1,16.972-14.8,17.628,17.628,0,0,1,17.7,14.877,17.691,17.691,0,0,1-1.257,9.717c-1.752-3.516-4.843-5.057-8.28-6.116-2.975-.916-6.02-1.6-8.924-2.745a19.786,19.786,0,0,1-4.5-2.494c-1.315-.967-1.993-.826-2.854.543a11.59,11.59,0,0,1-4.032,4.018c-1.147.66-1.278,1.108-.879,2.425-.456,0-.666.362-.917.638A5.887,5.887,0,0,0-437.981,1785.2Z" transform="translate(-174.955 -30.594)" fill="#e8e8e8"/>
    <path id="Trazado_169923" data-name="Trazado 169923" d="M-432.112,1835.7a5.888,5.888,0,0,1,1.377-4.507c.252-.276.462-.642.917-.638a1.979,1.979,0,0,0,2.573.007,14.462,14.462,0,0,0,3.821-3.431c.241-.313.413-.646.922-.318,3.5,2.252,7.492,3.21,11.419,4.339.249.072.5.151.738.243a2.167,2.167,0,0,1,.352.257,5.147,5.147,0,0,0-3.455,2.033c-.248.352-.544.245-.863.122a5.6,5.6,0,0,0-4.263.015c-.524.215-.773-.015-1.049-.379a5,5,0,0,0-5.72-1.381,4.895,4.895,0,0,0-2.878,5.242,4.91,4.91,0,0,0,4.008,4.112,4.968,4.968,0,0,0,5.567-3.522,2.033,2.033,0,0,1,2.2-1.614,2.075,2.075,0,0,1,2.209,1.59,4.775,4.775,0,0,0,4,3.54,4.609,4.609,0,0,0,4.685-1.97,4.665,4.665,0,0,0,.386-5.148c-.087-.173-.162-.351-.243-.527l.148-.177a6.479,6.479,0,0,1,2.788,6.869c-1.063,5.708-4.33,9.663-9.888,11.343-5.476,1.655-10.37.263-14.362-3.858a12.611,12.611,0,0,1-3.658-7.7,6.466,6.466,0,0,0-1.2-3.425A1.935,1.935,0,0,1-432.112,1835.7Zm15.656,10.946a5.74,5.74,0,0,0,4.51-2.148,1.462,1.462,0,0,0-.029-2.023,1.466,1.466,0,0,0-2.025.025c-2.087,1.71-2.851,1.712-4.876.013a1.434,1.434,0,0,0-2.016-.038,1.4,1.4,0,0,0,.007,2.086A5.746,5.746,0,0,0-416.456,1846.646Z" transform="translate(-180.824 -81.096)" fill="#b38663"/>
    <path id="Trazado_169924" data-name="Trazado 169924" d="M-429.506,1953.724a3.151,3.151,0,0,1,.341-.188,10.322,10.322,0,0,1,3.076-1.146c1.061-.045,1.636,1.215,2.468,1.848a15.378,15.378,0,0,0,19.68-1.219,1.477,1.477,0,0,1,2-.368c.805.409,1.675.692,2.527,1.034A18.835,18.835,0,0,1-429.506,1953.724Z" transform="translate(-182.802 -176.045)" fill="#ff9800"/>
    <path id="Trazado_169925" data-name="Trazado 169925" d="M-385.273,1941.254c-3.967,4.284-12.13,4.324-16.534.008a5.977,5.977,0,0,0,1.874-1.617c.2-.314.445-.145.685-.061a16.739,16.739,0,0,0,11.366.005c.334-.117.582-.2.834.167a4.425,4.425,0,0,0,.814.834C-385.936,1940.838-385.6,1941.034-385.273,1941.254Z" transform="translate(-203.723 -166.282)" fill="#b38663"/>
    <path id="Trazado_169926" data-name="Trazado 169926" d="M-325.323,1906.225a2.166,2.166,0,0,1,.58,1.969c-.272,1.33.319,2.024,1.474,2.573a3.591,3.591,0,0,1,1.242,5.516c-.214.26-.382.566-.865.367-2.695-1.113-5.406-2.188-8.108-3.284a4.012,4.012,0,0,1-.595-.4A17.662,17.662,0,0,0-325.323,1906.225Z" transform="translate(-256.756 -141.177)" fill="#e8e8e8"/>
    <path id="Trazado_169927" data-name="Trazado 169927" d="M-442.744,1906.114a17.347,17.347,0,0,0,5.815,6.438c.774.507.014.685-.26.8-1.7.715-3.427,1.382-5.143,2.067-.843.336-1.712.623-2.519,1.031-.615.31-.944.088-1.286-.379a3.608,3.608,0,0,1,1.242-5.336c1.242-.6,1.954-1.285,1.55-2.783A2.209,2.209,0,0,1-442.744,1906.114Z" transform="translate(-169.716 -141.094)" fill="#e8e8e8"/>
    <path id="Trazado_169928" data-name="Trazado 169928" d="M-404.4,1860.982a2.005,2.005,0,0,1,1.95-2,2.053,2.053,0,0,1,2.011,1.967,2.076,2.076,0,0,1-1.977,2.012A2.022,2.022,0,0,1-404.4,1860.982Z" transform="translate(-201.768 -105.492)" fill="#fdfdfd"/>
    <path id="Trazado_169929" data-name="Trazado 169929" d="M-343.782,1861.007a2.075,2.075,0,0,1-2.019,1.971,2.037,2.037,0,0,1-1.943-2.024,2,2,0,0,1,2-1.953A2.035,2.035,0,0,1-343.782,1861.007Z" transform="translate(-244.557 -105.509)" fill="#fdfdfd"/>
    <path id="Trazado_169930" data-name="Trazado 169930" d="M-323.21,1855.05l-.085-.191.232.014Z" transform="translate(-263.024 -102.381)" fill="#b38663"/>
    <path id="Trazado_169931" data-name="Trazado 169931" d="M-613.971,1731.537c2.365.055,4.747-.2,7.069.54a13.976,13.976,0,0,1,3.958,2.043c.347.251.332.443.162.8a4.722,4.722,0,0,0,.6,5.293.9.9,0,0,1,.134.977,5.757,5.757,0,0,0,4.017,7.625,2.011,2.011,0,0,1,1.783,2.207c-.075.953-.754,1.572-1.989,1.812-1.3.252-1.577.588-1.635,1.979a14.176,14.176,0,0,1-11.843,13.444,14.165,14.165,0,0,1-15.561-9.188,16.206,16.206,0,0,1-.847-4.485c-.084-1.191-.4-1.527-1.548-1.748-1.327-.254-1.99-.855-2.045-1.852-.061-1.1.472-1.746,1.813-2.184,3.554-1.16,5.078-4.078,3.966-7.642a.938.938,0,0,1,.168-.974,4.674,4.674,0,0,0,.6-5.206c-.229-.476-.111-.643.252-.917a12.457,12.457,0,0,1,7.731-2.521Q-615.582,1731.54-613.971,1731.537Zm-.027,31.136a5.793,5.793,0,0,0,4.566-2.24,1.311,1.311,0,0,0-.083-1.927,1.357,1.357,0,0,0-1.934-.093c-.232.175-.425.4-.646.592a2.792,2.792,0,0,1-3.8,0c-.171-.149-.32-.323-.492-.471a1.463,1.463,0,0,0-2.092-.032,1.436,1.436,0,0,0,.057,2.089A5.793,5.793,0,0,0-614,1762.673Zm8.443-10.8c-.026-.478-.014-.806-.066-1.123a1.454,1.454,0,0,0-1.5-1.354,1.406,1.406,0,0,0-1.376,1.479,14.645,14.645,0,0,0,.042,1.94,1.291,1.291,0,0,0,1.316,1.2,1.3,1.3,0,0,0,1.44-1.043A8.007,8.007,0,0,0-605.556,1751.871Zm-16.841.011c.005.117,0,.476.041.83a1.333,1.333,0,0,0,1.333,1.3,1.317,1.317,0,0,0,1.475-1.132,6.615,6.615,0,0,0,.1-1.255c.008-1.524-.523-2.286-1.541-2.248C-621.961,1749.414-622.405,1750.13-622.4,1751.882Z" transform="translate(-30.066 -9.235)" fill="#eebe86"/>
    <path id="Trazado_169932" data-name="Trazado 169932" d="M-593.643,1922.1c0,1.9,0,3.542,0,5.186a4.7,4.7,0,0,0,.05.971,1.36,1.36,0,0,0,1.519,1.209,1.322,1.322,0,0,0,1.343-1.393c.037-1.561.016-3.124.019-4.685,0-.346,0-.692,0-1.345.509.679.834,1.143,1.191,1.581a3.188,3.188,0,0,0,5.136.073c.92-1.078,1.781-2.207,2.749-3.414a1.627,1.627,0,0,1-.414,1.407,35.866,35.866,0,0,1-9.529,10.721c-.3.228-.538.494-1,.148a35.87,35.87,0,0,1-10.148-11.7.488.488,0,0,1,.006-.59c.916,1.135,1.8,2.225,2.677,3.318a3.265,3.265,0,0,0,2.389,1.336,3.216,3.216,0,0,0,2.875-1.342C-594.444,1923.156-594.124,1922.724-593.643,1922.1Z" transform="translate(-51.896 -151.781)" fill="#ffee58"/>
    <path id="Trazado_169933" data-name="Trazado 169933" d="M-638.542,1757.2a2.88,2.88,0,0,1-3.017-2.146,2.782,2.782,0,0,1,1.377-3.13c1.838-1,1.838-1,1.236-2.974a2.029,2.029,0,0,1,1.07-2.445,1.948,1.948,0,0,1,2.455.793,1.889,1.889,0,0,1-.529,2.59c-1.418,1.106-1.468,1.405-.5,2.952a2.721,2.721,0,0,1,.113,2.87A2.663,2.663,0,0,1-638.542,1757.2Z" transform="translate(-22.574 -20.417)" fill="#afafaf"/>
    <path id="Trazado_169934" data-name="Trazado 169934" d="M-502.682,1754.247a2.619,2.619,0,0,1,.54-1.547c.858-1.277.757-1.809-.493-2.745a1.9,1.9,0,0,1-.633-2.638,1.937,1.937,0,0,1,2.443-.818,2.009,2.009,0,0,1,1.059,2.517c-.622,1.819-.556,1.982,1.149,2.853a2.755,2.755,0,0,1,1.449,3.348,2.831,2.831,0,0,1-3.19,1.958A2.873,2.873,0,0,1-502.682,1754.247Z" transform="translate(-126.868 -20.418)" fill="#afafaf"/>
    <path id="Trazado_169935" data-name="Trazado 169935" d="M-541.5,1898.5c-.083.118-.2.306-.339.479-1.4,1.753-2.819,3.488-4.192,5.261-.452.584-.73.589-1.149-.02-.645-.935-1.337-1.84-2.046-2.728-.368-.46-.28-.664.234-.913,2.044-.991,4.066-2.026,6.1-3.041C-542.179,1897.178-541.5,1897.608-541.5,1898.5Z" transform="translate(-92.21 -134.519)" fill="#ffee58"/>
    <path id="Trazado_169936" data-name="Trazado 169936" d="M-593.322,1900.36l-2.645,3.544c-.264.353-.508.326-.776-.011-1.5-1.881-3.005-3.752-4.5-5.634-.41-.516.03-.923.242-1.325.281-.531.634-.09.9.039C-597.865,1898.073-595.637,1899.2-593.322,1900.36Z" transform="translate(-52.96 -133.967)" fill="#ffee58"/>
    <path id="Trazado_169937" data-name="Trazado 169937" d="M-570.891,1891.2c-1.646.826-3.293,1.648-4.936,2.479a.84.84,0,0,1-.828-.064c-1.669-.841-3.344-1.67-5-2.619a19.41,19.41,0,0,0,10.725-.1Z" transform="translate(-67.881 -129.603)" fill="#b38663"/>
    <path id="Trazado_169938" data-name="Trazado 169938" d="M-603.893,1919.569c-.066-.041-.149-.064-.162-.107-.033-.113.052-.151.144-.126a.179.179,0,0,1,.109.117C-603.8,1919.485-603.861,1919.53-603.893,1919.569Z" transform="translate(-50.959 -151.074)" fill="#0095db"/>
    <path id="Trazado_169939" data-name="Trazado 169939" d="M-383.2,1894.181a5.745,5.745,0,0,1-4.43-2.085,1.4,1.4,0,0,1-.007-2.086,1.434,1.434,0,0,1,2.016.038c2.025,1.7,2.789,1.7,4.876-.013a1.466,1.466,0,0,1,2.025-.024,1.462,1.462,0,0,1,.029,2.023A5.739,5.739,0,0,1-383.2,1894.181Z" transform="translate(-214.075 -128.631)" fill="#030302"/>
    <path id="Trazado_169940" data-name="Trazado 169940" d="M-574.439,1844.522a5.794,5.794,0,0,1-4.43-2.084,1.437,1.437,0,0,1-.057-2.089,1.463,1.463,0,0,1,2.092.031c.172.148.321.323.492.472a2.792,2.792,0,0,0,3.8,0c.22-.191.414-.417.646-.592a1.357,1.357,0,0,1,1.934.093,1.311,1.311,0,0,1,.083,1.927A5.793,5.793,0,0,1-574.439,1844.522Z" transform="translate(-69.626 -91.083)" fill="#030302"/>
    <path id="Trazado_169941" data-name="Trazado 169941" d="M-533.905,1806.966a7.985,7.985,0,0,1-.146,1.1,1.3,1.3,0,0,1-1.44,1.043,1.292,1.292,0,0,1-1.316-1.2,14.645,14.645,0,0,1-.042-1.94,1.405,1.405,0,0,1,1.376-1.479,1.454,1.454,0,0,1,1.5,1.354C-533.92,1806.16-533.931,1806.488-533.905,1806.966Z" transform="translate(-101.717 -64.33)" fill="#030302"/>
    <path id="Trazado_169942" data-name="Trazado 169942" d="M-593.606,1806.948c-.008-1.752.436-2.467,1.406-2.5,1.018-.038,1.549.725,1.541,2.249a6.612,6.612,0,0,1-.1,1.255,1.317,1.317,0,0,1-1.475,1.131,1.333,1.333,0,0,1-1.333-1.3C-593.6,1807.425-593.6,1807.066-593.606,1806.948Z" transform="translate(-58.857 -64.301)" fill="#030302"/>
  </g>
</svg>
