<svg xmlns="http://www.w3.org/2000/svg" width="88.275" height="90" viewBox="0 0 88.275 90">
  <g id="Grupo_110675" data-name="Grupo 110675" transform="translate(597.255 -1397.016)">
    <path id="Trazado_170285" data-name="Trazado 170285" d="M-537.06,1433a27.846,27.846,0,0,1,11.213,1.971,27.393,27.393,0,0,1,8.414,5.421,1.45,1.45,0,0,1,.307,2.027c-.906.71-1.331.66-2.341-.257a24.031,24.031,0,0,0-17.642-6.5.884.884,0,0,0-.985.718,13.273,13.273,0,0,1-2.341,4.19,25.471,25.471,0,0,1-6.154,5.319c-.569.373-1.167.819-1.035,1.6a1.885,1.885,0,0,0,1.451,1.392,3.981,3.981,0,0,0,4.208-1c1.327-1.24,2.62-2.519,3.992-3.706a3.571,3.571,0,0,1,5.766,1.637,5.353,5.353,0,0,1-.092,3.365,13.674,13.674,0,0,1-2.257,4.04,7.12,7.12,0,0,0-1.291,2.474c-.341,1.331.143,2.017,1.512,2.165a10.479,10.479,0,0,0,2.714-.092,10.854,10.854,0,0,1,2.882-.164,14.159,14.159,0,0,1,5.474,2.014c3.43,1.966,6.68,4.217,10.022,6.321.205.129.377.368.691.3a18.8,18.8,0,0,0,.715-3.79,24.084,24.084,0,0,0-3.554-15.359,1.459,1.459,0,0,1,.259-2.105c1.091-.311,1.465-.174,2.049.754a27.035,27.035,0,0,1-17.831,40.8A26.956,26.956,0,0,1-560,1472.448a1.142,1.142,0,0,0-1.21-.7q-13.885.024-27.771.01c-5.012,0-8.277-3.28-8.278-8.308q0-28.957,0-57.913c0-4.523,2.044-7.195,6.414-8.393.04-.011.062-.086.092-.132h52.219c2.112.75,2.83,2.283,2.815,4.466-.059,8.759-.024,17.519-.026,26.278,0,1.206-.245,1.536-1.321,1.828-1.074-.274-1.314-.578-1.315-1.724q0-10.313,0-20.626c0-2.106-.006-4.213,0-6.319,0-.748-.227-1.266-1.082-1.265l-20.536.03a2.5,2.5,0,0,0-.262-.027c-8.582,0-17.165.007-25.747-.021-.717,0-.7.321-.7.839q.013,27.416-.006,54.832c0,.661.131.894.852.891q11.116-.042,22.232,0c.672,0,.916-.2,1.005-.848a23.116,23.116,0,0,1,1.481-5.308,28.357,28.357,0,0,1,6.269-9.435A27.512,27.512,0,0,1-537.06,1433Zm-22.573,21a29.109,29.109,0,0,1,6.291-.363,10.713,10.713,0,0,1,4.087.908,3.8,3.8,0,0,1,2.155,4.941c-.158.5-.4.972-.6,1.456a10.671,10.671,0,0,0,1,10.522,3.673,3.673,0,0,0,4.084,1.556,6.46,6.46,0,0,0,2.755-1.294c1.13-.883,2.207-1.833,3.327-2.729,2.755-2.2,4.93-1.676,6.206,1.622a7.651,7.651,0,0,0,2.821,3.587q1.11.788,2.2,1.607a10.218,10.218,0,0,1,3.152,3.373c.29.566.494.529.942.18a24.562,24.562,0,0,0,7.519-9.673c.255-.58.081-.808-.383-1.1-2.373-1.5-4.724-3.042-7.091-4.555a48.119,48.119,0,0,0-5.081-2.949,7.668,7.668,0,0,0-5.026-.727,11.083,11.083,0,0,1-3.237.139,4.092,4.092,0,0,1-3.88-5.468,12.625,12.625,0,0,1,2.2-4.063,6.737,6.737,0,0,0,1.573-3.741,1.154,1.154,0,0,0-.674-1.218c-.5-.22-.841.029-1.174.342-1.239,1.162-2.474,2.329-3.718,3.485a6.77,6.77,0,0,1-5.382,1.879,5.132,5.132,0,0,1-4.6-3.5c-.458-1.764.314-3.315,2.328-4.677q.327-.221.656-.44a21.964,21.964,0,0,0,2.709-2.091,13.692,13.692,0,0,0,3.585-4.744C-548.071,1437.244-557.042,1443.639-559.633,1454Zm-.79,5.951a26.9,26.9,0,0,0,.306,3.853,24.344,24.344,0,0,0,33.88,18.5c2.443-1.059,2.508-1.417.554-3.289a35.334,35.334,0,0,0-3.546-2.733,8.805,8.805,0,0,1-3.468-4.509,4.088,4.088,0,0,0-.319-.72c-.457-.859-.628-.919-1.386-.343s-1.451,1.185-2.167,1.79a15.471,15.471,0,0,1-4,2.667c-3.111,1.288-6.343.591-8.173-2.052a13.02,13.02,0,0,1-1.316-13.32c.926-2.117.652-2.828-1.621-3.3-.114-.024-.232-.032-.348-.05a25.483,25.483,0,0,0-7.608.209.643.643,0,0,0-.643.674C-560.319,1458.192-560.374,1459.069-560.423,1459.946Zm-15.608,9.171c4.538,0,9.076-.015,13.613.015.731,0,.955-.064.682-.873a25.18,25.18,0,0,1-1.3-8.628c.013-.618-.156-.784-.771-.783q-12.647.029-25.295.014a5.966,5.966,0,0,0-2.156.316,5.151,5.151,0,0,0-3.272,5.6,5.051,5.051,0,0,0,4.975,4.335C-585.048,1469.134-580.54,1469.116-576.031,1469.117Zm-18.585-11.017a7.629,7.629,0,0,1,4.448-1.84c.718-.019.846-.288.845-.938q-.024-27.425.007-54.851c0-.853-.336-.877-.979-.755a5.2,5.2,0,0,0-4.32,5.391q0,26.063,0,52.126Z" transform="translate(0 0)" fill="#020302"/>
    <path id="Trazado_170286" data-name="Trazado 170286" d="M-353.6,1570.746a1.459,1.459,0,0,0-.259,2.105,24.084,24.084,0,0,1,3.554,15.359,18.8,18.8,0,0,1-.715,3.789c-.314.066-.485-.173-.691-.3-3.342-2.1-6.592-4.355-10.022-6.321a14.163,14.163,0,0,0-5.474-2.014,10.859,10.859,0,0,0-2.882.164,10.467,10.467,0,0,1-2.714.092c-1.369-.148-1.853-.834-1.512-2.165a7.12,7.12,0,0,1,1.291-2.474,13.673,13.673,0,0,0,2.257-4.04,5.353,5.353,0,0,0,.092-3.364,3.571,3.571,0,0,0-5.766-1.637c-1.372,1.187-2.666,2.466-3.992,3.706a3.981,3.981,0,0,1-4.208,1,1.885,1.885,0,0,1-1.451-1.392c-.132-.778.466-1.223,1.035-1.6a25.477,25.477,0,0,0,6.154-5.319,13.276,13.276,0,0,0,2.341-4.191.884.884,0,0,1,.985-.718,24.032,24.032,0,0,1,17.642,6.5c1.01.917,1.435.967,2.341.257Z" transform="translate(-161.528 -125.765)" fill="#b9ea69"/>
    <path id="Trazado_170287" data-name="Trazado 170287" d="M-438.675,1408.275l20.536-.03c.855,0,1.085.517,1.082,1.265-.009,2.106,0,4.213,0,6.319q0,10.313,0,20.626c0,1.146.241,1.45,1.315,1.724q0,1.705,0,3.411a27.511,27.511,0,0,0-17.812,7.607,69.119,69.119,0,0,0,.486-7.234,84.781,84.781,0,0,0-.5-11.888q4.081-.014,8.163-.029a2.83,2.83,0,0,0,3.11-3.1q.011-4.784,0-9.569c0-2.1-1.082-3.166-3.2-3.172l-11.235-.031A47.649,47.649,0,0,0-438.675,1408.275Z" transform="translate(-121.318 -8.59)" fill="#ff9800"/>
    <path id="Trazado_170288" data-name="Trazado 170288" d="M-520.55,1430.013a84.775,84.775,0,0,1,.5,11.888,69.15,69.15,0,0,1-.486,7.234,28.357,28.357,0,0,0-6.268,9.435,23.115,23.115,0,0,0-1.481,5.308c-.089.645-.334.851-1.005.848q-11.116-.04-22.232,0c-.72,0-.852-.23-.852-.891q.025-27.416.006-54.832c0-.518-.015-.841.7-.839,8.582.028,17.165.019,25.747.021a2.5,2.5,0,0,1,.262.027,47.664,47.664,0,0,1,1.953,5.9c-.351.01-.7.029-1.052.029q-9.7,0-19.4,0a2.744,2.744,0,0,0-2.968,2.949q-.021,4.96,0,9.921a2.781,2.781,0,0,0,2.97,2.961q6.234.02,12.467,0c1.085,0,1.435-.3,1.674-1.38l3.13,0c.3,1.128.609,1.369,1.779,1.377Q-522.83,1430-520.55,1430.013Zm-12.283,18.1c2.138,0,4.276,0,6.413,0,1.015,0,1.633-.515,1.622-1.317s-.628-1.315-1.647-1.317q-6.326-.011-12.651,0c-1,0-1.628.541-1.622,1.342s.617,1.289,1.646,1.292C-536.992,1448.121-534.912,1448.116-532.833,1448.116Zm-2.037,3.99c-1.433,0-2.866-.009-4.3,0-.95.008-1.548.524-1.549,1.3a1.378,1.378,0,0,0,1.538,1.333q4.255.022,8.51,0c.964,0,1.522-.517,1.526-1.321,0-.819-.535-1.3-1.514-1.309C-532.062,1452.1-533.466,1452.106-534.87,1452.106Z" transform="translate(-34.332 -8.53)" fill="#ff9800"/>
    <path id="Trazado_170289" data-name="Trazado 170289" d="M-437.144,1581.772c2.591-10.357,11.562-16.751,18.745-17.734a13.691,13.691,0,0,1-3.585,4.744,21.948,21.948,0,0,1-2.709,2.091q-.329.218-.656.44c-2.014,1.363-2.786,2.914-2.328,4.677a5.132,5.132,0,0,0,4.6,3.5,6.771,6.771,0,0,0,5.382-1.879c1.245-1.156,2.479-2.323,3.718-3.485.333-.312.675-.561,1.173-.342a1.154,1.154,0,0,1,.674,1.218,6.737,6.737,0,0,1-1.573,3.741,12.627,12.627,0,0,0-2.2,4.064,4.092,4.092,0,0,0,3.88,5.468,11.088,11.088,0,0,0,3.237-.139,7.668,7.668,0,0,1,5.026.727,48.125,48.125,0,0,1,5.081,2.949c2.367,1.513,4.718,3.052,7.091,4.555.464.294.638.522.383,1.1a24.563,24.563,0,0,1-7.519,9.673c-.449.348-.652.386-.942-.18a10.219,10.219,0,0,0-3.152-3.373q-1.086-.821-2.2-1.607a7.649,7.649,0,0,1-2.821-3.587c-1.275-3.3-3.451-3.826-6.206-1.622-1.12.9-2.2,1.846-3.327,2.729a6.457,6.457,0,0,1-2.755,1.294,3.673,3.673,0,0,1-4.084-1.556,10.671,10.671,0,0,1-1-10.522c.205-.484.443-.957.6-1.456a3.8,3.8,0,0,0-2.155-4.941,10.711,10.711,0,0,0-4.087-.908A29.1,29.1,0,0,0-437.144,1581.772Z" transform="translate(-122.489 -127.776)" fill="#459dff"/>
    <path id="Trazado_170290" data-name="Trazado 170290" d="M-440.507,1652.737c.05-.877.1-1.754.146-2.631a.643.643,0,0,1,.643-.674,25.479,25.479,0,0,1,7.608-.209c.116.017.233.026.348.05,2.273.474,2.547,1.185,1.621,3.3a13.021,13.021,0,0,0,1.316,13.32c1.83,2.644,5.061,3.341,8.173,2.052a15.473,15.473,0,0,0,4-2.667c.715-.6,1.421-1.224,2.167-1.79s.929-.516,1.386.343a4.086,4.086,0,0,1,.319.72,8.806,8.806,0,0,0,3.468,4.509,35.342,35.342,0,0,1,3.546,2.733c1.954,1.871,1.889,2.229-.554,3.288a24.344,24.344,0,0,1-33.88-18.5A26.9,26.9,0,0,1-440.507,1652.737Z" transform="translate(-119.916 -192.791)" fill="#b9ea69"/>
    <path id="Trazado_170291" data-name="Trazado 170291" d="M-567.39,1670.428c-4.509,0-9.017.018-13.526-.008a5.05,5.05,0,0,1-4.975-4.335,5.15,5.15,0,0,1,3.272-5.6,5.964,5.964,0,0,1,2.156-.316q12.647,0,25.295-.014c.615,0,.783.165.771.783a25.181,25.181,0,0,0,1.3,8.629c.273.809.049.878-.682.873C-558.314,1670.413-562.852,1670.428-567.39,1670.428Z" transform="translate(-8.641 -201.311)" fill="#fefdfd"/>
    <path id="Trazado_170292" data-name="Trazado 170292" d="M-586.026,1466.713v-.867q0-26.063,0-52.126a5.2,5.2,0,0,1,4.32-5.391c.643-.123.98-.1.979.755q-.038,27.425-.007,54.851c0,.65-.127.919-.845.938A7.626,7.626,0,0,0-586.026,1466.713Z" transform="translate(-8.59 -8.614)" fill="#ff9800"/>
    <path id="Trazado_170293" data-name="Trazado 170293" d="M-503.5,1449.386q-2.28-.014-4.559-.029c-1.169-.008-1.478-.249-1.779-1.377a1.51,1.51,0,0,1,1.763-1.277c1.418.037,2.838,0,4.257-.011,2.807.011,5.615.016,8.422.042.427,0,.55-.15.548-.559q-.018-4.739,0-9.478c0-.416-.13-.556-.551-.553-3.45.027-6.9.035-10.352.049-7.025-.01-14.051-.01-21.076-.044-.633,0-.621.295-.62.745.011,3.015.031,6.031-.013,9.045-.01.708.246.793.855.789,3.981-.025,7.963,0,11.944-.022.926-.005,1.52.323,1.691,1.27-.24,1.078-.589,1.378-1.674,1.38q-6.234.008-12.467,0a2.781,2.781,0,0,1-2.97-2.961q-.022-4.96,0-9.921a2.743,2.743,0,0,1,2.967-2.949q9.7-.012,19.4,0c.351,0,.7-.019,1.052-.029l11.235.031c2.113.006,3.192,1.072,3.2,3.172q.007,4.785,0,9.569a2.83,2.83,0,0,1-3.11,3.1Q-499.417,1449.378-503.5,1449.386Z" transform="translate(-51.384 -27.903)" fill="#020302"/>
    <path id="Trazado_170294" data-name="Trazado 170294" d="M-495.25,1455.35c-1.419.008-2.839.048-4.257.011a1.51,1.51,0,0,0-1.763,1.277l-3.13,0c-.172-.946-.766-1.275-1.691-1.27-3.981.021-7.963,0-11.944.022-.609,0-.866-.081-.856-.79.044-3.015.024-6.03.013-9.045,0-.45-.013-.748.62-.745,7.025.034,14.051.034,21.075.044q.444,1.927.889,3.854c-.32.014-.641.041-.962.041q-7.726,0-15.453,0a5.436,5.436,0,0,0-.875.036,1.281,1.281,0,0,0-1.165,1.321,1.292,1.292,0,0,0,1.29,1.283c.291.024.585.012.877.013l16.768.025A30.953,30.953,0,0,1-495.25,1455.35Z" transform="translate(-59.951 -36.561)" fill="#fff1db"/>
    <path id="Trazado_170295" data-name="Trazado 170295" d="M-494.869,1569.587c-2.079,0-4.159,0-6.238,0-1.03,0-1.64-.491-1.646-1.292s.619-1.34,1.622-1.342q6.326-.013,12.651,0c1.018,0,1.636.514,1.647,1.317s-.607,1.313-1.622,1.317C-490.593,1569.592-492.731,1569.587-494.869,1569.587Z" transform="translate(-72.296 -130.001)" fill="#020302"/>
    <path id="Trazado_170296" data-name="Trazado 170296" d="M-496.906,1595.155c1.4,0,2.807-.01,4.211,0,.98.009,1.518.49,1.514,1.309,0,.8-.562,1.316-1.526,1.321q-4.255.021-8.51,0a1.378,1.378,0,0,1-1.538-1.333c0-.773.6-1.289,1.549-1.3C-499.772,1595.146-498.339,1595.155-496.906,1595.155Z" transform="translate(-72.296 -151.579)" fill="#020302"/>
    <path id="Trazado_170297" data-name="Trazado 170297" d="M-424.572,1455.333a30.94,30.94,0,0,0-.562-3.925c1.426-.018,2.851-.028,4.277-.056a1.208,1.208,0,0,0,1.276-1.18,1.174,1.174,0,0,0-.9-1.323,3.726,3.726,0,0,0-.949-.1c-1.395-.029-2.79-.044-4.184-.064q-.445-1.927-.889-3.854c3.451-.014,6.9-.022,10.352-.049.42,0,.552.137.551.553q-.02,4.739,0,9.478c0,.41-.121.563-.548.559C-418.957,1455.349-421.765,1455.345-424.572,1455.333Z" transform="translate(-130.629 -36.544)" fill="#fff1db"/>
    <path id="Trazado_170298" data-name="Trazado 170298" d="M-482.807,1461.4c1.395.02,2.79.036,4.184.064a3.726,3.726,0,0,1,.949.1,1.174,1.174,0,0,1,.9,1.323,1.208,1.208,0,0,1-1.276,1.18c-1.425.028-2.851.038-4.277.056l-16.768-.025c-.293,0-.587.012-.877-.013a1.292,1.292,0,0,1-1.29-1.283,1.281,1.281,0,0,1,1.165-1.321,5.437,5.437,0,0,1,.875-.036q7.726,0,15.453,0C-483.448,1461.437-483.127,1461.41-482.807,1461.4Z" transform="translate(-73.437 -49.252)" fill="#020302"/>
  </g>
</svg>
