<svg xmlns="http://www.w3.org/2000/svg" width="89.799" height="89.811" viewBox="0 0 89.799 89.811">
  <g id="Grupo_110594" data-name="Grupo 110594" transform="translate(-353.037 -557.453)">
    <path id="Trazado_169698" data-name="Trazado 169698" d="M443.449,593.651v4.209c-.182.054-.159.212-.18.352a15.909,15.909,0,0,1-1.6,4.861c-.725,1.4-.724,1.4-2.05.627a1.476,1.476,0,0,0-.276-.214c-.793-.361-.874-.762-.419-1.584a12.955,12.955,0,1,0-3.329,4.01c.387-.3.751-.879,1.13-.882s.749.563,1.123.879a2.879,2.879,0,0,0,.21.273c.791.817.8.828-.037,1.531a15.584,15.584,0,0,1-14.012,3.514c-.586-.129-.807-.089-.8.609q.046,6.748,0,13.5c-.006.709.24.784.84.779,3.241-.027,6.483.016,9.724-.033.811-.012,1.115.135,1.068,1.024-.084,1.573-.03,3.154-.021,4.731a12.984,12.984,0,0,1-.216,3.136,7.3,7.3,0,0,1-7.428,5.668q-26.02.007-52.041,0a4.657,4.657,0,0,1-.613,0c-.44-.059-.53.143-.525.547.024,2.219.022,4.439.03,6.659H353.684q0-6.268,0-12.535c0-2,0-1.983,1.964-2,.692-.008,1.58.3,2.021-.142.363-.367-.078-1.212-.121-1.849-.017-.261-.065-.52-.1-.78-.307-2.576-.8-5.146-.885-7.73a113.108,113.108,0,0,1,1.181-22.431,6.78,6.78,0,0,1,1.184-3.242q2.98-3.78,5.965-7.557a1.531,1.531,0,0,0,.368-1.027c-.015-3.156-.023-6.312.006-9.467.005-.574-.149-.722-.719-.717-3.359.028-6.719-.008-10.078.032-.675.008-.809-.183-.8-.824.031-4.12.007-8.24.018-12.36a7.182,7.182,0,0,1,7.113-7.151q27.65-.012,55.3-.008a6.594,6.594,0,0,1,1.893.286,7.335,7.335,0,0,1,5.228,7.423c.012,4.529,0,9.058.007,13.587a1.9,1.9,0,0,0,.084.953,1.457,1.457,0,0,0,.259-.017,15.9,15.9,0,0,1,19.269,10.984C443.071,592.049,443.247,592.854,443.449,593.651Zm-69.468,43.687a4.119,4.119,0,0,0,2.843-3.83c.024-2.133.057-4.269-.015-6.4-.03-.869.226-1.03,1.052-1.029,13.85.028,27.7.014,41.549.038.73,0,.909-.174.9-.9q-.065-7.233-.022-14.466a1.3,1.3,0,0,0-.76-1.282c-5.159-3.151-7.957-7.766-7.914-13.813a15.365,15.365,0,0,1,8.033-13.75,1.149,1.149,0,0,0,.66-1.156c-.026-4.939-.087-9.88.014-14.817a4.68,4.68,0,0,0-4.989-4.99c-15.836.075-31.673.034-47.509.034h-1.116c1.618,2.125,1.494,4.471,1.487,6.806-.015,5.494-.006,10.989,0,16.484a1.7,1.7,0,0,0,.105.929,3.982,3.982,0,0,1,3.965-.885,4.7,4.7,0,0,1,2.226,7.362c-1.729,2.457-3.469,4.907-5.243,7.332a5.182,5.182,0,0,0-1.058,3.251c.032,2.338.121,4.683-.023,7.012-.135,2.171.929,3.839,1.866,5.7,1.624-1.632,3.189-3.2,4.751-4.774a4.544,4.544,0,0,1,7.461,1.2,4.452,4.452,0,0,1-.885,5.021c-2.417,2.459-4.87,4.883-7.306,7.323-.99.992-2.369,1.829-2.856,3.027-.5,1.232-.15,2.818-.135,4.249.008.751-.325,1.715.142,2.193.427.438,1.388.134,2.11.114.56-.015.7.193.68.712C373.958,635.1,373.981,636.182,373.981,637.338Zm4.4.285a3.5,3.5,0,0,0,.364.051q24.453,0,48.906-.006a4.213,4.213,0,0,0,4.074-3.336,21.009,21.009,0,0,0,.144-4.106c.032-1.172.007-1.173-1.129-1.173q-23.8,0-47.591.009c-1.1,0-2.54-.475-3.2.193-.609.618-.173,2.055-.155,3.129A8.462,8.462,0,0,1,378.377,637.623ZM359.512,616.26c0,2.715-.147,4.977.036,7.212.251,3.077.771,6.132,1.123,9.2.063.553.244.664.744.659,2.016-.023,4.033-.036,6.048.006.628.013.7-.242.7-.765-.023-2.017.018-4.034-.024-6.05a2.091,2.091,0,0,1,.68-1.686c3.328-3.284,6.623-6.6,9.928-9.909.165-.165.338-.324.491-.5a1.631,1.631,0,0,0,.03-2.289,1.6,1.6,0,0,0-2.339.057c-2.08,2.052-4.138,4.127-6.2,6.194-.265.266-.492.541-.948.52-.845-.04-1.694-.008-2.542-.014-.191,0-.5.07-.512-.188-.03-.872-.285-1.917.1-2.569a.858.858,0,0,0-.041-1.094,11.18,11.18,0,0,1-1.544-6.442c.1-2.129.043-4.267.016-6.4a7.686,7.686,0,0,1,1.517-4.739c1.762-2.435,3.484-4.9,5.254-7.327a2.493,2.493,0,0,0,.425-1.9,1.359,1.359,0,0,0-1.137-1.177,1.094,1.094,0,0,0-1.2.5q-4.293,5.538-8.613,11.054a3.4,3.4,0,0,0-.774,1.728C360.1,605.787,359.052,611.2,359.512,616.26Zm4.343,28.627c2.131,0,4.262-.019,6.392.013.577.009.808-.1.8-.746-.036-2.393-.026-4.788.012-7.182.009-.579-.16-.721-.726-.718-4.32.023-8.64.032-12.96-.006-.709-.006-.8.246-.785.849.041,2.335.065,4.671.028,7-.011.694.228.809.848.8C359.593,644.864,361.724,644.886,363.855,644.886ZM356.616,569.8h.011c0,1.606.023,3.213-.012,4.819-.013.578.1.813.749.8,2.394-.04,4.789-.036,7.182,0,.592.008.717-.183.713-.738-.023-3.066,0-6.133-.006-9.2a4.287,4.287,0,0,0-4.255-4.49,4.231,4.231,0,0,0-4.379,4.428C356.6,566.879,356.616,568.339,356.616,569.8Z" transform="translate(-0.631 -0.593)" fill="#0c0b0a"/>
    <path id="Trazado_169699" data-name="Trazado 169699" d="M437.714,772.609c-.007-2.219-.006-4.439-.03-6.659,0-.4.085-.605.525-.547a4.657,4.657,0,0,0,.612,0q26.02,0,52.041,0a7.3,7.3,0,0,0,7.428-5.668,12.986,12.986,0,0,0,.216-3.136c-.009-1.578-.063-3.158.021-4.731.047-.888-.258-1.036-1.068-1.024-3.241.048-6.483.006-9.724.033-.6,0-.847-.07-.84-.779q.059-6.747,0-13.5c0-.7.216-.738.8-.609a15.584,15.584,0,0,0,14.012-3.514c.839-.7.828-.714.037-1.531a2.869,2.869,0,0,1-.21-.273,14.671,14.671,0,0,0,1.77-2.21c1.326.776,1.325.776,2.05-.627a15.908,15.908,0,0,0,1.6-4.861c.022-.139,0-.3.18-.351q0,24.639.017,49.279c0,.6-.118.719-.718.718Q472.077,772.6,437.714,772.609Z" transform="translate(-64.323 -125.362)" fill="#fff"/>
    <path id="Trazado_169701" data-name="Trazado 169701" d="M414.844,646.406c0-1.155-.023-2.235.01-3.314.016-.519-.12-.727-.68-.712-.722.02-1.682.324-2.11-.114-.467-.478-.134-1.442-.142-2.193-.014-1.431-.366-3.018.135-4.249.488-1.2,1.866-2.035,2.856-3.027,2.436-2.44,4.889-4.864,7.306-7.323a4.452,4.452,0,0,0,.885-5.021,4.544,4.544,0,0,0-7.461-1.2c-1.562,1.573-3.127,3.142-4.751,4.774-.937-1.858-2-3.526-1.866-5.7.144-2.329.056-4.675.023-7.012a5.182,5.182,0,0,1,1.058-3.251c1.774-2.425,3.514-4.875,5.243-7.332a4.7,4.7,0,0,0-2.226-7.362,3.982,3.982,0,0,0-3.965.885,1.7,1.7,0,0,1-.105-.929c-.005-5.495-.015-10.989,0-16.484.007-2.334.131-4.681-1.487-6.806h1.116c15.836,0,31.673.041,47.509-.034a4.68,4.68,0,0,1,4.989,4.99c-.1,4.937-.039,9.878-.014,14.817a1.149,1.149,0,0,1-.66,1.156,15.365,15.365,0,0,0-8.033,13.75c-.043,6.046,2.756,10.662,7.914,13.813a1.3,1.3,0,0,1,.76,1.282q-.04,7.233.022,14.466c.007.73-.172.905-.9.9-13.849-.024-27.7-.01-41.549-.038-.826,0-1.081.16-1.052,1.029.072,2.131.039,4.266.015,6.4A4.119,4.119,0,0,1,414.844,646.406Zm20.266-54.668c6.925,0,13.85-.016,20.775.022.8,0,.934-.231.93-.966q-.047-8.549,0-17.1c0-.661-.163-.807-.812-.806q-20.907.031-41.813,0c-.682,0-.87.162-.866.858q.045,8.549,0,17.1c0,.746.212.91.926.907C421.2,591.726,428.155,591.737,435.109,591.737Zm-.065,20.276H422.607c-2,0-1.945,0-2.017,1.961-.032.859.282.974,1.031.972q12.92-.036,25.84-.015c2.138,0,2.109,0,2.144-2.118.011-.649-.144-.822-.808-.817C444.213,612.028,439.629,612.013,435.045,612.013Zm10.165,11.576c-3.153,0-6.305-.011-9.458.008-.687,0-1.6-.316-2,.148-.336.391-.05,1.283-.125,1.943-.081.718.205.852.87.85,6.685-.024,13.37-.01,20.055-.022.721,0,1.658.319,2.106-.135s.06-1.391.147-2.108c.075-.617-.2-.7-.736-.7C452.45,623.6,448.83,623.589,445.21,623.589Zm-17.331-17.366h-2.274c-2.154,0-2.125,0-2.141,2.176,0,.656.233.757.807.747,1.894-.032,3.79-.012,5.685-.012,2.353,0,2.338,0,2.275-2.333-.013-.46-.134-.6-.591-.589C430.387,606.241,429.133,606.223,427.879,606.223Zm10.1,26.094h2.1c2.362,0,2.343,0,2.281-2.332-.014-.521-.2-.621-.665-.616-1.952.022-3.9.009-5.857.009-2.3,0-2.291,0-2.21,2.359.015.454.133.6.594.59C435.474,632.3,436.728,632.317,437.981,632.317Zm14.506-2.939H450.3c-2.283,0-2.262,0-2.213,2.287.012.565.211.67.719.663,1.921-.026,3.842-.01,5.764-.01,2.261,0,2.234,0,2.241-2.26,0-.615-.219-.7-.747-.69C454.875,629.4,453.681,629.378,452.487,629.378Zm-10.095-23.155h-2.279c-2.158,0-2.136,0-2.135,2.186,0,.57.143.75.728.739,1.9-.036,3.8-.014,5.7-.014,2.346,0,2.33,0,2.266-2.345-.013-.468-.15-.586-.6-.576C444.847,606.241,443.62,606.223,442.393,606.223Zm-14.53-2.89h2.185c2.223,0,2.2,0,2.188-2.246,0-.56-.176-.674-.694-.666-1.951.028-3.9.011-5.855.011-2.272,0-2.257,0-2.216,2.267.008.49.132.658.635.644C425.357,603.311,426.61,603.333,427.863,603.333Zm14.46-2.9h-2.191c-2.168,0-2.14,0-2.155,2.169,0,.652.225.755.8.744,1.9-.034,3.8-.013,5.7-.013,2.224,0,2.205,0,2.2-2.228,0-.523-.108-.708-.668-.687C444.778,600.464,443.549,600.432,442.322,600.432Z" transform="translate(-41.493 -9.661)" fill="#e6e6e6"/>
    <path id="Trazado_169702" data-name="Trazado 169702" d="M455.812,859.661a8.462,8.462,0,0,0,1.415-5.24c-.019-1.074-.455-2.511.155-3.129.659-.668,2.1-.192,3.2-.193q23.8-.019,47.591-.009c1.135,0,1.16,0,1.128,1.173a21,21,0,0,1-.144,4.106,4.213,4.213,0,0,1-4.074,3.336q-24.453.016-48.906.006A3.494,3.494,0,0,1,455.812,859.661Z" transform="translate(-78.066 -222.631)" fill="#f89221"/>
    <path id="Trazado_169703" data-name="Trazado 169703" d="M630.307,680.992a14.678,14.678,0,0,1-1.77,2.21c-.375-.316-.751-.882-1.123-.879s-.743.578-1.13.882a13.042,13.042,0,1,1,3.329-4.01c-.456.821-.375,1.223.419,1.583A1.479,1.479,0,0,1,630.307,680.992Zm-14.774-5.13c-.431,0-.7.024-.956,0-.64-.071-.8.139-.654.792a3.4,3.4,0,0,0,1.487,2.474c1.405.7,1.5,1.784,1.363,3.069-.016.144.012.294,0,.438-.048.424.144.531.553.554,2.364.134,2.384.145,2.352-2.182a1.375,1.375,0,0,1,.775-1.443,3.992,3.992,0,0,0,2.078-4.205,4.164,4.164,0,0,0-3.026-3.607,12.25,12.25,0,0,0-1.547-.265,1.318,1.318,0,0,1-1.16-1.329,1.344,1.344,0,0,1,1.055-1.43,1.173,1.173,0,0,1,1.543.653c.25.767.721.754,1.315.723a9.364,9.364,0,0,1,1.313,0c.51.044.608-.193.52-.621a3.348,3.348,0,0,0-1.487-2.571c-1.533-.708-1.418-1.906-1.367-3.177,0-.117-.008-.234,0-.351.032-.365-.112-.489-.494-.52-2.422-.2-2.421-.21-2.422,2.17a1.088,1.088,0,0,0,0,.175c.094.562-.135.85-.657,1.133a4.047,4.047,0,0,0-2.255,3.868,4.2,4.2,0,0,0,2.655,3.894,5.2,5.2,0,0,0,1.783.371,1.424,1.424,0,0,1,.509,2.7c-.637.273-1.44.228-1.691-.438A1.235,1.235,0,0,0,615.533,675.862Zm-6.032-1.41c1.492,0,1.492,0,1.492-1.415,0-1.524,0-1.524-1.492-1.524-1.46,0-1.46,0-1.46,1.482C608.041,674.452,608.041,674.452,609.5,674.452Zm17.447,0c1.405,0,1.405,0,1.406-.969,0-2.007,0-1.984-2.167-1.985-.609,0-.861.174-.777.787a4.534,4.534,0,0,1,0,.61C625.415,674.452,625.415,674.452,626.948,674.452Z" transform="translate(-191.32 -77.885)" fill="#f89221"/>
    <path id="Trazado_169704" data-name="Trazado 169704" d="M377.472,707.065c-.46-5.059.591-10.472,1.21-15.918a3.4,3.4,0,0,1,.774-1.728q4.329-5.509,8.613-11.054a1.094,1.094,0,0,1,1.2-.5,1.359,1.359,0,0,1,1.137,1.177,2.493,2.493,0,0,1-.425,1.9c-1.77,2.429-3.492,4.893-5.254,7.327a7.686,7.686,0,0,0-1.517,4.739c.027,2.133.087,4.271-.016,6.4a11.18,11.18,0,0,0,1.544,6.442.858.858,0,0,1,.041,1.094c-.384.652-.13,1.7-.1,2.569.009.258.321.186.512.188.847.007,1.7-.025,2.542.014.456.021.682-.254.948-.52,2.066-2.067,4.124-4.142,6.2-6.194a1.6,1.6,0,0,1,2.339-.057,1.631,1.631,0,0,1-.03,2.289c-.153.176-.326.335-.491.5-3.305,3.307-6.6,6.625-9.928,9.91a2.091,2.091,0,0,0-.68,1.686c.042,2.016,0,4.033.024,6.05.006.523-.069.778-.7.765-2.015-.043-4.032-.029-6.048-.006-.5.006-.68-.105-.744-.659-.352-3.07-.872-6.125-1.123-9.2C377.325,712.042,377.472,709.78,377.472,707.065Z" transform="translate(-18.591 -91.398)" fill="#fad692"/>
    <path id="Trazado_169705" data-name="Trazado 169705" d="M373,889.951c-2.131,0-4.262-.022-6.392.014-.62.01-.859-.1-.848-.8.037-2.334.014-4.67-.028-7-.011-.6.076-.856.785-.849,4.319.038,8.64.03,12.96.006.566,0,.735.139.726.718-.038,2.393-.048,4.788-.012,7.182.01.65-.221.755-.8.746C377.264,889.932,375.133,889.951,373,889.951Z" transform="translate(-9.778 -245.658)" fill="#ffee58"/>
    <path id="Trazado_169706" data-name="Trazado 169706" d="M365.835,579.028c0-1.46-.018-2.921,0-4.381a4.231,4.231,0,0,1,4.379-4.428,4.287,4.287,0,0,1,4.255,4.49c0,3.067-.017,6.134.006,9.2,0,.555-.121.746-.713.738-2.394-.035-4.789-.039-7.182,0-.65.011-.762-.224-.749-.8.036-1.606.012-3.213.012-4.819Z" transform="translate(-9.849 -9.821)" fill="#f89221"/>
    <path id="Trazado_169707" data-name="Trazado 169707" d="M453.134,600.769c-6.954,0-13.908-.011-20.862.016-.714,0-.93-.161-.926-.907q.05-8.549,0-17.1c0-.7.185-.859.866-.858q20.906.031,41.813,0c.65,0,.816.145.812.806q-.044,8.549,0,17.1c0,.735-.125.971-.93.966C466.984,600.753,460.059,600.769,453.134,600.769Zm-.107-2.88c6.019,0,12.037-.013,18.056.017.708,0,.868-.209.863-.881q-.045-5.654,0-11.31c.007-.706-.208-.865-.882-.864q-17.969.029-35.937,0c-.731,0-.842.241-.837.886q.041,5.655,0,11.31c-.006.68.16.867.855.864C441.107,597.877,447.067,597.889,453.027,597.889Z" transform="translate(-59.518 -18.693)" fill="#0c0b0a"/>
    <path id="Trazado_169708" data-name="Trazado 169708" d="M475.842,743.595c4.584,0,9.168.015,13.752-.017.664,0,.819.168.808.817-.035,2.118-.006,2.118-2.144,2.118q-12.92,0-25.84.015c-.749,0-1.062-.113-1.031-.972.072-1.959.021-1.961,2.017-1.961Z" transform="translate(-82.291 -141.243)" fill="#0c0b0a"/>
    <path id="Trazado_169709" data-name="Trazado 169709" d="M526.737,791.2c3.62,0,7.24.01,10.859-.011.532,0,.811.078.736.695-.087.717.3,1.656-.147,2.108s-1.385.134-2.106.135c-6.685.012-13.37,0-20.055.022-.665,0-.951-.131-.87-.85.075-.66-.212-1.552.125-1.943.4-.464,1.312-.144,2-.148C520.432,791.193,523.585,791.2,526.737,791.2Z" transform="translate(-123.02 -177.275)" fill="#0c0b0a"/>
    <path id="Trazado_169710" data-name="Trazado 169710" d="M477.693,719.684c1.254,0,2.508.018,3.761-.009.458-.01.579.129.591.589.063,2.333.078,2.332-2.275,2.332-1.895,0-3.79-.02-5.685.012-.574.009-.812-.091-.807-.748.016-2.176-.013-2.176,2.141-2.176Z" transform="translate(-91.306 -123.122)" fill="#0c0b0a"/>
    <path id="Trazado_169711" data-name="Trazado 169711" d="M519.569,818.344c-1.253,0-2.506-.019-3.759.01-.461.011-.578-.136-.594-.59-.081-2.359-.095-2.359,2.21-2.359,1.952,0,3.9.013,5.857-.009.469-.005.651.095.665.616.062,2.333.081,2.332-2.281,2.332Z" transform="translate(-123.082 -195.687)" fill="#0c0b0a"/>
    <path id="Trazado_169712" data-name="Trazado 169712" d="M579.435,815.4c1.194,0,2.388.023,3.58-.01.528-.015.748.075.747.69-.007,2.259.02,2.26-2.241,2.26-1.921,0-3.843-.016-5.764.01-.508.007-.707-.1-.719-.663-.049-2.287-.071-2.287,2.213-2.287Z" transform="translate(-168.441 -195.68)" fill="#0c0b0a"/>
    <path id="Trazado_169713" data-name="Trazado 169713" d="M537.69,719.683c1.227,0,2.455.018,3.681-.01.447-.01.584.108.6.576.064,2.346.079,2.345-2.266,2.345-1.9,0-3.8-.023-5.7.014-.585.011-.728-.17-.728-.739,0-2.186-.023-2.186,2.135-2.186Z" transform="translate(-136.791 -123.121)" fill="#0c0b0a"/>
    <path id="Trazado_169714" data-name="Trazado 169714" d="M477.663,698.641c-1.253,0-2.506-.022-3.758.011-.5.013-.627-.155-.635-.644-.04-2.267-.056-2.267,2.216-2.267,1.952,0,3.9.017,5.855-.011.517-.008.691.106.694.666.012,2.246.035,2.246-2.188,2.246Z" transform="translate(-91.293 -104.969)" fill="#0c0b0a"/>
    <path id="Trazado_169715" data-name="Trazado 169715" d="M537.61,695.726c1.227,0,2.456.032,3.681-.014.56-.021.666.165.668.687.009,2.228.027,2.228-2.2,2.228-1.9,0-3.8-.021-5.7.013-.576.01-.806-.092-.8-.744.016-2.169-.013-2.169,2.155-2.169Z" transform="translate(-136.781 -104.955)" fill="#0c0b0a"/>
    <path id="Trazado_169716" data-name="Trazado 169716" d="M642.648,684.565a1.235,1.235,0,0,1,1.584.876c.251.666,1.055.711,1.691.438a1.424,1.424,0,0,0-.509-2.7,5.2,5.2,0,0,1-1.783-.371,4.2,4.2,0,0,1-2.655-3.894,4.047,4.047,0,0,1,2.255-3.868c.522-.282.751-.57.657-1.133a1.089,1.089,0,0,1,0-.175c0-2.38,0-2.369,2.422-2.17.382.031.526.155.494.52-.01.116,0,.234,0,.351-.051,1.272-.166,2.469,1.367,3.177a3.348,3.348,0,0,1,1.487,2.571c.088.428-.011.666-.52.621a9.364,9.364,0,0,0-1.313,0c-.594.031-1.065.044-1.315-.723a1.173,1.173,0,0,0-1.543-.653,1.344,1.344,0,0,0-1.055,1.43,1.318,1.318,0,0,0,1.16,1.329,12.25,12.25,0,0,1,1.547.265,4.164,4.164,0,0,1,3.026,3.607,3.993,3.993,0,0,1-2.078,4.205,1.374,1.374,0,0,0-.775,1.443c.032,2.327.012,2.316-2.352,2.182-.409-.023-.6-.13-.553-.554.016-.144-.011-.293,0-.438.14-1.285.042-2.367-1.363-3.069a3.4,3.4,0,0,1-1.487-2.474c-.148-.652.014-.862.654-.792C641.952,684.589,642.217,684.565,642.648,684.565Z" transform="translate(-218.435 -86.588)" fill="#0c0b0a"/>
    <path id="Trazado_169717" data-name="Trazado 169717" d="M618.385,710.521c-1.461,0-1.461,0-1.461-1.458,0-1.482,0-1.482,1.46-1.482,1.492,0,1.492,0,1.492,1.524C619.876,710.521,619.876,710.521,618.385,710.521Z" transform="translate(-200.203 -113.954)" fill="#0c0b0a"/>
    <path id="Trazado_169718" data-name="Trazado 169718" d="M690.218,710.475c-1.533,0-1.533,0-1.533-1.558a4.534,4.534,0,0,0,0-.61c-.084-.613.168-.787.777-.787,2.168,0,2.168-.022,2.167,1.985C691.623,710.475,691.623,710.475,690.218,710.475Z" transform="translate(-254.59 -113.909)" fill="#0c0b0a"/>
    <path id="Trazado_169719" data-name="Trazado 169719" d="M462.257,607.055c-5.96,0-11.921-.013-17.881.017-.7,0-.862-.184-.855-.864q.05-5.654,0-11.31c0-.645.106-.888.837-.886q17.968.039,35.937,0c.674,0,.888.158.882.864q-.054,5.654,0,11.31c.006.672-.155.885-.863.881C474.294,607.043,468.275,607.055,462.257,607.055Z" transform="translate(-68.747 -27.859)" fill="#ffee58"/>
  </g>
</svg>
