<svg xmlns="http://www.w3.org/2000/svg" width="100" height="90.84" viewBox="0 0 100 90.84">
  <g id="hotel-2" transform="translate(0 -21.982)">
    <path id="Trazado_148043" data-name="Trazado 148043" d="M68.838,29.982h-57.5A3.333,3.333,0,0,0,8,33.316v3.75A3.333,3.333,0,0,0,11.334,40.4h2.083v77.089H66.754V40.4h2.083a3.333,3.333,0,0,0,3.334-3.334v-3.75A3.333,3.333,0,0,0,68.838,29.982Z" transform="translate(-6.333 -6.333)" fill="#ff9800"/>
    <path id="Trazado_148046" data-name="Trazado 148046" d="M72.172,33.316v3.75A3.333,3.333,0,0,1,68.838,40.4h-57.5A3.333,3.333,0,0,1,8,37.066v-3.75a3.333,3.333,0,0,1,3.334-3.334h57.5A3.333,3.333,0,0,1,72.172,33.316Z" transform="translate(-6.333 -6.333)" fill="#ffb74d"/>
    <path id="Trazado_148047" data-name="Trazado 148047" d="M69.049,29.988a1.458,1.458,0,0,1-.136,2.91H16.334A3.331,3.331,0,0,0,13,36.231c0,1.136,0,1.934,0,2.5A1.666,1.666,0,0,1,11.334,40.4,3.333,3.333,0,0,1,8,37.065v-3.75a3.333,3.333,0,0,1,3.334-3.334s57.646,0,57.715.007Z" transform="translate(-6.333 -6.332)" fill="#ffb74d"/>
    <path id="Trazado_148048" data-name="Trazado 148048" d="M110,344.982h21.668v21.877H110Z" transform="translate(-87.081 -255.703)" fill="#111e61"/>
    <path id="Trazado_148050" data-name="Trazado 148050" d="M196.417,242.649v7.084a1.667,1.667,0,0,1-1.667,1.667h-7.084A1.667,1.667,0,0,1,186,249.733v-7.084a1.667,1.667,0,0,1,1.667-1.667h7.084A1.667,1.667,0,0,1,196.417,242.649Z" transform="translate(-147.247 -173.372)" fill="#ffee58"/>
    <path id="Trazado_148052" data-name="Trazado 148052" d="M196.417,135.649v7.084a1.667,1.667,0,0,1-1.667,1.667h-7.084A1.667,1.667,0,0,1,186,142.733v-7.084a1.667,1.667,0,0,1,1.667-1.667h7.084A1.667,1.667,0,0,1,196.417,135.649Z" transform="translate(-147.247 -88.665)" fill="#ffee58"/>
    <path id="Trazado_148054" data-name="Trazado 148054" d="M98.417,135.649v7.084a1.667,1.667,0,0,1-1.667,1.667H89.667A1.667,1.667,0,0,1,88,142.733v-7.084a1.667,1.667,0,0,1,1.667-1.667h7.084A1.667,1.667,0,0,1,98.417,135.649Z" transform="translate(-69.665 -88.665)" fill="#ffee58"/>
    <path id="Trazado_148056" data-name="Trazado 148056" d="M98.417,242.649v7.084a1.667,1.667,0,0,1-1.667,1.667H89.667A1.667,1.667,0,0,1,88,249.733v-7.084a1.667,1.667,0,0,1,1.667-1.667h7.084A1.667,1.667,0,0,1,98.417,242.649Z" transform="translate(-69.665 -173.372)" fill="#ffee58"/>
    <path id="Trazado_148058" data-name="Trazado 148058" d="M318.67,152.089a3.353,3.353,0,0,1-.823,4.309l-1.408,1.115a18.1,18.1,0,0,1,0,8.9l1.408,1.115a3.353,3.353,0,0,1,.823,4.309l-1.288,2.234a3.353,3.353,0,0,1-4.14,1.442l-1.677-.667a17.966,17.966,0,0,1-7.7,4.448l-.26,1.786a3.354,3.354,0,0,1-3.319,2.865h-2.575a3.351,3.351,0,0,1-3.317-2.865l-.263-1.786a17.978,17.978,0,0,1-7.7-4.448l-1.677.667a3.35,3.35,0,0,1-4.138-1.442l-1.29-2.234a3.358,3.358,0,0,1,.823-4.309l1.408-1.115a18.1,18.1,0,0,1,0-8.9l-1.408-1.115a3.358,3.358,0,0,1-.823-4.309l1.29-2.234a3.35,3.35,0,0,1,4.138-1.442l1.677.667a17.991,17.991,0,0,1,7.7-4.448l.263-1.786a3.351,3.351,0,0,1,3.317-2.865h2.575a3.356,3.356,0,0,1,3.319,2.867l.26,1.783a17.966,17.966,0,0,1,7.7,4.448l1.677-.667a3.353,3.353,0,0,1,4.14,1.442Z" transform="translate(-220.779 -93.415)" fill="#ffee58"/>
    <g id="Grupo_85030" data-name="Grupo 85030" transform="translate(0 21.982)">
      <path id="Trazado_148061" data-name="Trazado 148061" d="M98.1,72.807l-1.409-1.116a1.667,1.667,0,1,0-2.07,2.613l1.408,1.116a1.7,1.7,0,0,1,.414,2.168l-1.289,2.234a1.7,1.7,0,0,1-2.081.724L91.4,79.882a1.667,1.667,0,0,0-1.78.357,16.345,16.345,0,0,1-6.981,4.036,1.667,1.667,0,0,0-1.2,1.362l-.262,1.784a1.7,1.7,0,0,1-1.668,1.441H76.935a1.7,1.7,0,0,1-1.668-1.441L75,85.637a1.667,1.667,0,0,0-1.2-1.362,16.349,16.349,0,0,1-6.982-4.036,1.666,1.666,0,0,0-1.779-.357l-1.677.665a1.694,1.694,0,0,1-2.081-.724L60,77.589a1.7,1.7,0,0,1,.414-2.169L61.82,74.3a1.667,1.667,0,0,0,.581-1.717,16.442,16.442,0,0,1,0-8.079,1.667,1.667,0,0,0-.581-1.717l-1.408-1.116A1.7,1.7,0,0,1,60,59.508l1.289-2.234a1.694,1.694,0,0,1,2.081-.724l1.677.665a1.666,1.666,0,0,0,1.779-.357,16.349,16.349,0,0,1,6.982-4.036A1.667,1.667,0,0,0,75,51.459l.262-1.784a1.7,1.7,0,0,1,1.668-1.441h2.574a1.7,1.7,0,0,1,1.67,1.443l.262,1.783a1.666,1.666,0,0,0,1.2,1.362,16.346,16.346,0,0,1,6.981,4.036,1.666,1.666,0,0,0,1.78.357l1.677-.665a1.693,1.693,0,0,1,2.081.724l1.289,2.234a1.7,1.7,0,0,1-.414,2.168l-1.409,1.116a1.667,1.667,0,1,0,2.07,2.613L98.1,64.289a5.052,5.052,0,0,0,1.232-6.447l-1.289-2.234a5.047,5.047,0,0,0-6.2-2.157l-.7.279a19.71,19.71,0,0,0-6.558-3.792l-.11-.746A5.051,5.051,0,0,0,79.509,44.9H76.935a5.048,5.048,0,0,0-4.966,4.29l-.11.748A19.709,19.709,0,0,0,65.3,53.73l-.7-.279a5.046,5.046,0,0,0-6.2,2.157L57.11,57.842a5.052,5.052,0,0,0,1.232,6.447l.588.466a19.816,19.816,0,0,0,0,7.586l-.588.466a5.052,5.052,0,0,0-1.232,6.448,25.352,25.352,0,0,0,1.644,2.758v27.475H35.419V96.753a1.667,1.667,0,1,0-3.334,0v12.736h-7.5V90.946H42.92V103.03a1.667,1.667,0,0,0,3.334,0V90.946H47.5a1.667,1.667,0,0,0,0-3.334H20a1.667,1.667,0,0,0,0,3.334h1.25v18.543H8.751V34.066A1.667,1.667,0,0,0,7.084,32.4H5a1.669,1.669,0,0,1-1.667-1.667v-3.75A1.669,1.669,0,0,1,5,25.316H62.5a1.669,1.669,0,0,1,1.667,1.667v3.75A1.669,1.669,0,0,1,62.5,32.4H16.016a1.667,1.667,0,0,0,0,3.334H58.755v11.93a1.667,1.667,0,1,0,3.334,0V35.733H62.5a5.006,5.006,0,0,0,5-5v-3.75a5.006,5.006,0,0,0-5-5H5a5.006,5.006,0,0,0-5,5v3.75a5.006,5.006,0,0,0,5,5h.417v73.756H1.667a1.667,1.667,0,1,0,0,3.334H65.838a1.667,1.667,0,1,0,0-3.334h-3.75V83.944a5.647,5.647,0,0,0,3.212-.578,19.708,19.708,0,0,0,6.558,3.791l.11.748a5.049,5.049,0,0,0,4.966,4.29h2.576a5.049,5.049,0,0,0,4.966-4.29l.11-.748a19.708,19.708,0,0,0,6.558-3.792l.7.279a5.047,5.047,0,0,0,6.2-2.157l1.289-2.234A5.052,5.052,0,0,0,98.1,72.807Z" transform="translate(0 -21.982)"/>
      <path id="Trazado_148062" data-name="Trazado 148062" d="M351.839,215.275a1.667,1.667,0,0,0,1.667-1.667v-1.137c2.558-.608,4.437-2.577,4.437-4.907,0-3.887-3.472-4.6-5.77-5.068-2.718-.557-3.1-.884-3.1-1.8,0-.837,1.138-1.769,2.771-1.769a3.2,3.2,0,0,1,2.5,1.038A1.667,1.667,0,0,0,357,197.947a6.071,6.071,0,0,0-3.489-2.165v-1.134a1.667,1.667,0,1,0-3.334,0v1.137c-2.558.608-4.437,2.577-4.437,4.907,0,3.887,3.472,4.6,5.77,5.068,2.718.557,3.1.884,3.1,1.8,0,.837-1.138,1.769-2.771,1.769a3.2,3.2,0,0,1-2.5-1.038,1.667,1.667,0,1,0-2.655,2.016,6.072,6.072,0,0,0,3.489,2.165v1.134A1.667,1.667,0,0,0,351.839,215.275Z" transform="translate(-273.701 -157.354)"/>
      <path id="Trazado_148063" data-name="Trazado 148063" d="M93.751,127.649a1.667,1.667,0,0,0-1.667-1.667H81.667A1.667,1.667,0,0,0,80,127.649v10.417a1.667,1.667,0,0,0,1.667,1.667H92.084a1.667,1.667,0,0,0,1.667-1.667ZM90.417,136.4H83.334v-7.084h7.084Z" transform="translate(-63.332 -104.314)"/>
      <path id="Trazado_148064" data-name="Trazado 148064" d="M191.751,127.649a1.667,1.667,0,0,0-1.667-1.667H179.667A1.667,1.667,0,0,0,178,127.649v10.417a1.667,1.667,0,0,0,1.667,1.667h10.417a1.667,1.667,0,0,0,1.667-1.667Zm-3.334,8.751h-7.084v-7.084h7.084Z" transform="translate(-140.914 -104.314)"/>
      <path id="Trazado_148065" data-name="Trazado 148065" d="M92.084,232.982H81.667A1.667,1.667,0,0,0,80,234.649v10.417a1.667,1.667,0,0,0,1.667,1.667H92.084a1.667,1.667,0,0,0,1.667-1.667V234.649A1.667,1.667,0,0,0,92.084,232.982ZM90.417,243.4H83.334v-7.084h7.084Z" transform="translate(-63.332 -189.02)"/>
      <path id="Trazado_148066" data-name="Trazado 148066" d="M190.084,232.982H179.667A1.667,1.667,0,0,0,178,234.649v10.417a1.667,1.667,0,0,0,1.667,1.667h10.417a1.667,1.667,0,0,0,1.667-1.667V234.649A1.667,1.667,0,0,0,190.084,232.982ZM188.417,243.4h-7.084v-7.084h7.084Z" transform="translate(-140.914 -189.02)"/>
    </g>
  </g>
</svg>
