<svg xmlns="http://www.w3.org/2000/svg" width="100" height="96.325" viewBox="0 0 100 96.325">
  <g id="hotel-3" transform="translate(0 -9.273)">
    <g id="Grupo_85080" data-name="Grupo 85080" transform="translate(1.981 11.255)">
      <path id="Trazado_148218" data-name="Trazado 148218" d="M10,19.629H74.595v92.292H10Z" transform="translate(-10 -19.559)" fill="#ff9800"/>
      <path id="Trazado_148219" data-name="Trazado 148219" d="M375.122,22.356V42.213A3.082,3.082,0,0,0,378.2,45.3h17.529a3.082,3.082,0,0,0,3.082-3.082V22.356a3.082,3.082,0,0,0-3.082-3.082H378.2A3.082,3.082,0,0,0,375.122,22.356Z" transform="translate(-302.779 -19.274)" fill="#ffee58"/>
      <g id="Grupo_85079" data-name="Grupo 85079" transform="translate(10.965 11.755)">
        <path id="Trazado_148220" data-name="Trazado 148220" d="M65.343,78.6h8.982v8.982H65.343Z" transform="translate(-65.343 -78.603)" fill="#fff1db"/>
        <path id="Trazado_148221" data-name="Trazado 148221" d="M150.676,78.6h8.982v8.982h-8.982Z" transform="translate(-133.769 -78.603)" fill="#fff1db"/>
        <path id="Trazado_148222" data-name="Trazado 148222" d="M235.339,78.6h8.982v8.982h-8.982Z" transform="translate(-201.657 -78.603)" fill="#fff1db"/>
        <path id="Trazado_148223" data-name="Trazado 148223" d="M65.343,163.642h8.982v8.982H65.343Z" transform="translate(-65.343 -146.793)" fill="#fff1db"/>
        <path id="Trazado_148224" data-name="Trazado 148224" d="M150.676,163.642h8.982v8.982h-8.982Z" transform="translate(-133.769 -146.793)" fill="#fff1db"/>
        <path id="Trazado_148225" data-name="Trazado 148225" d="M235.339,163.642h8.982v8.982h-8.982Z" transform="translate(-201.657 -146.793)" fill="#fff1db"/>
        <path id="Trazado_148226" data-name="Trazado 148226" d="M65.343,248.682h8.982v8.982H65.343Z" transform="translate(-65.343 -214.984)" fill="#fff1db"/>
        <path id="Trazado_148227" data-name="Trazado 148227" d="M150.676,248.682h8.982v8.982h-8.982Z" transform="translate(-133.769 -214.984)" fill="#fff1db"/>
        <path id="Trazado_148228" data-name="Trazado 148228" d="M235.339,248.682h8.982v8.982h-8.982Z" transform="translate(-201.657 -214.984)" fill="#fff1db"/>
        <path id="Trazado_148229" data-name="Trazado 148229" d="M65.343,333.721h8.982V342.7H65.343Z" transform="translate(-65.343 -283.173)" fill="#fff1db"/>
        <path id="Trazado_148230" data-name="Trazado 148230" d="M150.676,333.721h8.982V342.7h-8.982Z" transform="translate(-133.769 -283.173)" fill="#fff1db"/>
        <path id="Trazado_148231" data-name="Trazado 148231" d="M235.339,333.721h8.982V342.7h-8.982Z" transform="translate(-201.657 -283.173)" fill="#fff1db"/>
      </g>
      <path id="Trazado_148232" data-name="Trazado 148232" d="M128.007,433.486V420.77h17.832v12.812" transform="translate(-104.626 -341.22)" fill="#111e61"/>
    </g>
    <g id="Grupo_85081" data-name="Grupo 85081" transform="translate(0 9.273)">
      <path id="Trazado_148233" data-name="Trazado 148233" d="M415.123,46.681a1.981,1.981,0,0,0-1.981,1.981v3.647h-3.808V48.662a1.981,1.981,0,0,0-3.963,0V59.919a1.981,1.981,0,0,0,3.963,0V56.272h3.808v3.647a1.981,1.981,0,1,0,3.963,0V48.662a1.981,1.981,0,0,0-1.981-1.981Z" transform="translate(-325.053 -39.269)"/>
      <path id="Trazado_148234" data-name="Trazado 148234" d="M94.936,9.273H77.407a5.07,5.07,0,0,0-5.064,5.064v7.976H68.557V11.325a1.981,1.981,0,0,0-1.981-1.981H1.981A1.981,1.981,0,0,0,0,11.325v92.292A1.981,1.981,0,0,0,1.981,105.6H66.576a1.981,1.981,0,0,0,1.981-1.981V68.267a1.981,1.981,0,0,0-3.963,0v33.369H45.176V90.8a1.981,1.981,0,0,0-1.981-1.981H25.363A1.981,1.981,0,0,0,23.381,90.8v10.831H3.963V13.306H64.595V50.088a1.981,1.981,0,0,0,3.963,0V26.276h3.786v7.918a5.07,5.07,0,0,0,5.064,5.064H94.936A5.07,5.07,0,0,0,100,34.194V14.337a5.07,5.07,0,0,0-5.064-5.064ZM27.344,92.786H41.213v8.849H27.344ZM96.037,34.194a1.1,1.1,0,0,1-1.1,1.1H77.407a1.1,1.1,0,0,1-1.1-1.1V14.337a1.1,1.1,0,0,1,1.1-1.1H94.936a1.1,1.1,0,0,1,1.1,1.1Z" transform="translate(0 -9.273)"/>
      <path id="Trazado_148235" data-name="Trazado 148235" d="M68.288,70.584A1.981,1.981,0,0,0,66.306,68.6H57.324a1.981,1.981,0,0,0-1.981,1.981v8.982a1.981,1.981,0,0,0,1.981,1.981h8.982a1.981,1.981,0,0,0,1.981-1.981Zm-3.963,7H59.306V72.566h5.019Z" transform="translate(-44.378 -56.848)"/>
      <path id="Trazado_148236" data-name="Trazado 148236" d="M153.621,70.584a1.981,1.981,0,0,0-1.981-1.981h-8.982a1.981,1.981,0,0,0-1.981,1.981v8.982a1.981,1.981,0,0,0,1.981,1.981h8.982a1.981,1.981,0,0,0,1.981-1.981Zm-3.963,7h-5.019V72.566h5.019Z" transform="translate(-112.803 -56.848)"/>
      <path id="Trazado_148237" data-name="Trazado 148237" d="M238.284,70.584A1.981,1.981,0,0,0,236.3,68.6H227.32a1.981,1.981,0,0,0-1.981,1.981v8.982a1.981,1.981,0,0,0,1.981,1.981H236.3a1.981,1.981,0,0,0,1.981-1.981Zm-3.963,7H229.3V72.566h5.019Z" transform="translate(-180.692 -56.848)"/>
      <path id="Trazado_148238" data-name="Trazado 148238" d="M68.288,155.623a1.981,1.981,0,0,0-1.981-1.981H57.324a1.981,1.981,0,0,0-1.981,1.981v8.982a1.981,1.981,0,0,0,1.981,1.981h8.982a1.981,1.981,0,0,0,1.981-1.981Zm-3.963,7H59.306V157.6h5.019Z" transform="translate(-44.378 -125.038)"/>
      <path id="Trazado_148239" data-name="Trazado 148239" d="M153.621,155.623a1.981,1.981,0,0,0-1.981-1.981h-8.982a1.981,1.981,0,0,0-1.981,1.981v8.982a1.981,1.981,0,0,0,1.981,1.981h8.982a1.981,1.981,0,0,0,1.981-1.981Zm-3.963,7h-5.019V157.6h5.019Z" transform="translate(-112.803 -125.038)"/>
      <path id="Trazado_148240" data-name="Trazado 148240" d="M238.284,155.623a1.981,1.981,0,0,0-1.981-1.981H227.32a1.981,1.981,0,0,0-1.981,1.981v8.982a1.981,1.981,0,0,0,1.981,1.981H236.3a1.981,1.981,0,0,0,1.981-1.981Zm-3.963,7H229.3V157.6h5.019Z" transform="translate(-180.692 -125.038)"/>
      <path id="Trazado_148241" data-name="Trazado 148241" d="M68.288,240.663a1.981,1.981,0,0,0-1.981-1.981H57.324a1.981,1.981,0,0,0-1.981,1.981v8.982a1.981,1.981,0,0,0,1.981,1.981h8.982a1.981,1.981,0,0,0,1.981-1.981Zm-3.963,7H59.306v-5.019h5.019Z" transform="translate(-44.378 -193.228)"/>
      <path id="Trazado_148242" data-name="Trazado 148242" d="M153.621,240.663a1.981,1.981,0,0,0-1.981-1.981h-8.982a1.981,1.981,0,0,0-1.981,1.981v8.982a1.981,1.981,0,0,0,1.981,1.981h8.982a1.981,1.981,0,0,0,1.981-1.981Zm-3.963,7h-5.019v-5.019h5.019Z" transform="translate(-112.803 -193.228)"/>
      <path id="Trazado_148243" data-name="Trazado 148243" d="M238.284,240.663a1.981,1.981,0,0,0-1.981-1.981H227.32a1.981,1.981,0,0,0-1.981,1.981v8.982a1.981,1.981,0,0,0,1.981,1.981H236.3a1.981,1.981,0,0,0,1.981-1.981Zm-3.963,7H229.3v-5.019h5.019Z" transform="translate(-180.692 -193.228)"/>
      <path id="Trazado_148244" data-name="Trazado 148244" d="M66.306,323.721H57.324a1.981,1.981,0,0,0-1.981,1.981v8.982a1.981,1.981,0,0,0,1.981,1.981h8.982a1.981,1.981,0,0,0,1.981-1.981V325.7A1.981,1.981,0,0,0,66.306,323.721ZM64.325,332.7H59.306v-5.019h5.019Z" transform="translate(-44.378 -261.418)"/>
      <path id="Trazado_148245" data-name="Trazado 148245" d="M151.639,323.721h-8.982a1.981,1.981,0,0,0-1.981,1.981v8.982a1.981,1.981,0,0,0,1.981,1.981h8.982a1.981,1.981,0,0,0,1.981-1.981V325.7A1.981,1.981,0,0,0,151.639,323.721Zm-1.981,8.982h-5.019v-5.019h5.019Z" transform="translate(-112.803 -261.418)"/>
      <path id="Trazado_148246" data-name="Trazado 148246" d="M236.3,323.721H227.32a1.981,1.981,0,0,0-1.981,1.981v8.982a1.981,1.981,0,0,0,1.981,1.981H236.3a1.981,1.981,0,0,0,1.981-1.981V325.7A1.981,1.981,0,0,0,236.3,323.721Zm-1.981,8.982H229.3v-5.019h5.019Z" transform="translate(-180.692 -261.418)"/>
      <circle id="Elipse_4206" data-name="Elipse 4206" cx="1.981" cy="1.981" r="1.981" transform="translate(64.6 48.014)"/>
    </g>
  </g>
</svg>
