<svg xmlns="http://www.w3.org/2000/svg" width="90" height="89.983" viewBox="0 0 90 89.983">
  <g id="Grupo_110602" data-name="Grupo 110602" transform="translate(1861.099 80.472)">
    <path id="Trazado_169806" data-name="Trazado 169806" d="M-1814.238,130.752c-1.375,0-2.75-.019-4.125.01-.377.008-10.768,3.5-16.256,3.422-.508-.007-3.139.014-3.543,0-1.087-.038.01-3.305,0-3.41-.093-1.019,3.292-11.784,4.212-12.281.688-.371,2.691-4.87,3.341-5.315s3.561.774,3.429-.012c-.295-1.755,11.361,8.052,11.079,6.3a15.418,15.418,0,0,1,.33-3.991c.035-.361.269-.309.494-.333,1.885-.2,3.8.017,5.668-.473a1.2,1.2,0,0,1,.585.127q6.066,1.972,12.3,3.319c1.021.222.623.941.777,1.477.174.608-.287.708-.713.838a23.213,23.213,0,0,1-6.053.863,60.984,60.984,0,0,1-7.89-.219,1.444,1.444,0,0,0-1.472.549,1.461,1.461,0,0,0,.054,1.647,25.39,25.39,0,0,1,2.5,6.585c.155.633.135.961-.684.919C-1811.543,130.7-1812.892,130.752-1814.238,130.752Z" transform="translate(-17.182 -148.002)" fill="#ffc571"/>
    <path id="Trazado_169807" data-name="Trazado 169807" d="M-1772.427-17.075c.607-.038.925.434,1.328.756V1.6c-.231.066-.156.278-.206.431a6.529,6.529,0,0,1-4.316,4.45c-.566.186-.738.426-.685.97a1.8,1.8,0,0,1-.943,2.056h-.879a1.9,1.9,0,0,1-.864-2.019c.059-.465-.064-.658-.6-.653-3.245.026-6.491.03-9.736,0-.6-.006-.7.227-.631.712a2.072,2.072,0,0,1-.824,1.964h-1.054a2.061,2.061,0,0,1-.865-1.951c.023-.288.186-.666-.151-.89-.7-.464-1.272.114-1.9.26-.444.1-.361.475-.343.783a1.688,1.688,0,0,1-.962,1.8h-.879a1.766,1.766,0,0,1-.86-1.756c.079-.509-.19-.554-.6-.552q-3.987.02-7.975,0c-.443,0-.657.1-.58.573a1.61,1.61,0,0,1-.878,1.737h-.879a1.612,1.612,0,0,1-.877-1.743c.093-.572-.173-.767-.7-.954a5.786,5.786,0,0,1-3.838-5.36q-.046-8.169,0-16.337a5.9,5.9,0,0,1,4.576-5.617c.573-.129,1.389.149,1.67-.384.254-.482.057-1.2.058-1.816a1.038,1.038,0,0,1,0-.175c.066-.36-.11-.54-.441-.622a8.763,8.763,0,0,1-3.253-1.644.783.783,0,0,0-.863-.129,22.893,22.893,0,0,1-7.039,1.227c-2.1.106-4.2.006-6.454-.025a29.8,29.8,0,0,1,2.462,11.29,46.066,46.066,0,0,1-1.511,15.794.8.8,0,0,0,.269,1.037,5.176,5.176,0,0,1,1.822,3.111c.183.922.177,1.817-.817,2.348h-12.3c-.369-.357-.824-.68-.824-1.254a28.213,28.213,0,0,1,.074-4.555,27.344,27.344,0,0,0,.22-8.466,8.282,8.282,0,0,0-1.14-3.4,15.964,15.964,0,0,0-1.237,8.426,62.051,62.051,0,0,1,.47,7.512,1.868,1.868,0,0,1-.9,1.74h-12.3c-1.088-.739-.911-1.774-.622-2.805a5.074,5.074,0,0,1,1.8-2.728.6.6,0,0,0,.235-.794,36.679,36.679,0,0,1-1.559-8.765c-.036-.476-.141-.583-.611-.485a6.737,6.737,0,0,1-2.958-.079,3.309,3.309,0,0,1-2.616-3.023,6.318,6.318,0,0,1,.168-2.608,18.949,18.949,0,0,0,.518-4.768c.1-1.637.308-3.256.56-4.872a1.359,1.359,0,0,1,1.467-1.212,1.277,1.277,0,0,1,1.18,1.459c-.2,2.005-.533,4-.573,6.019-.013.642.159.815.762.75.693-.074,1.613.29,2.03-.132.4-.4.272-1.311.39-1.995a29.761,29.761,0,0,1,1.088-4.32,1.391,1.391,0,0,1,1.742-1.054,1.416,1.416,0,0,1,.8,1.946c-.207.7-.416,1.395-.618,2.094-.12.416-.049.627.478.623,2.811-.024,5.622-.018,8.433,0,.406,0,.525-.107.57-.531a2.064,2.064,0,0,0-1.135-2.367c-.516-.258-.929-.721-1.441-.993a2.183,2.183,0,0,1-1.124-2.65c.318-1.752.6-3.513.811-5.28a15.981,15.981,0,0,0-.392-3.47c-.031-.316-.272-.308-.517-.333a49.8,49.8,0,0,1-5.248-.368c-.377-.08-.522.213-.714.406a17.5,17.5,0,0,0-3.8,6.227c-.521,1.365-1.164,1.827-2.047,1.462-.84-.347-.988-1.094-.484-2.418a21.287,21.287,0,0,1,4.025-6.788,12.175,12.175,0,0,1-3.5-2.935,11.539,11.539,0,0,1-2.538-7.645,1.227,1.227,0,0,0-.888-1.4,5.208,5.208,0,0,1-1.837-8.319,1.471,1.471,0,0,0,.37-1.336,73.232,73.232,0,0,1-.977-11.258,16.546,16.546,0,0,1,1.106-5.9,10.111,10.111,0,0,1,7.9-6.213,47.955,47.955,0,0,1,11.848-1.079,22.776,22.776,0,0,1,10.645,2.763,11.1,11.1,0,0,1,2.384,1.776.7.7,0,0,0,1.035.111,7.273,7.273,0,0,1,5.371-1.043c2.886.658,4.362,2.757,5.176,5.411a20.224,20.224,0,0,1,.467,7.916,41.262,41.262,0,0,1-1.466,7.633.925.925,0,0,0,.289,1,5.243,5.243,0,0,1-1.944,8.676.747.747,0,0,0-.548.749,18.932,18.932,0,0,1-.462,4,11.5,11.5,0,0,1-3.6,5.684c-.26.224-.523.444-.858.728a94.3,94.3,0,0,0,11.14,2.8c1.589.277,3.272.05,4.871.464,1.974.511,3.8,1.238,4.438,3.47.118.415.443.311.715.314,1.113.01,2.226-.009,3.338.009,1.143.019,1.574.463,1.582,1.605.009,1.426,0,2.851,0,4.48a7.027,7.027,0,0,1,4.447-2.95,7.9,7.9,0,0,1,1.837-.072c.481.022.578-.155.573-.6-.021-2.079-.013-4.158-.007-6.237,0-1.216.471-1.7,1.7-1.7q4.129-.02,8.258,0c1.283.005,1.748.475,1.755,1.754.011,2.02.025,4.041-.011,6.061-.01.57.14.726.718.725a6.35,6.35,0,0,1,5.478,2.926,1.465,1.465,0,0,1-.372,2.326,1.712,1.712,0,0,1-1.9-.891,3.7,3.7,0,0,0-3.269-1.725q-6.759-.025-13.519.008a3.8,3.8,0,0,0-3.372,1.845,1.172,1.172,0,0,0,.224.18,5.872,5.872,0,0,1,3.781,5.93c-.024,4.711-.012,9.421,0,14.132a8.6,8.6,0,0,1-.654,4.227,2.686,2.686,0,0,0,.41.076c4.36.011,8.72.059,13.079.01a3.859,3.859,0,0,0,4.029-4.208q0-7.681,0-15.361C-1773.734-16.467-1773.446-16.818-1772.427-17.075Zm-65.134-18.414c2.758.094,5.477-.086,8.2-.175a8.784,8.784,0,0,0,8.525-8.1c.178-3.039.22-6.081.178-9.126a2.342,2.342,0,0,0-.94-2.059c-1.722-1.364-2.411-3.384-3.058-5.4a3.871,3.871,0,0,0-6.337-2c-4.3,3.3-8.888,3.294-13.171-.028a3.891,3.891,0,0,0-6.281,1.909c-.093.276-.162.56-.256.836a9.55,9.55,0,0,1-3.4,5.175.715.715,0,0,0-.3.67c-.066,3.131-.06,6.263.065,9.393a8.788,8.788,0,0,0,8.564,8.721C-1843.026-35.57-1840.279-35.383-1837.56-35.489Zm20.614-30.889a11.853,11.853,0,0,0-1.124-5.788,3.726,3.726,0,0,0-4.911-1.79,9.451,9.451,0,0,0-2.275,1.3,1.311,1.311,0,0,1-2.122-.247,10.454,10.454,0,0,0-4.632-3.343,23.14,23.14,0,0,0-8.482-1.535,45.563,45.563,0,0,0-10.936,1.233,7.108,7.108,0,0,0-5.093,3.933,14.849,14.849,0,0,0-1.112,6.849,66.965,66.965,0,0,0,.782,8.272c.051.371-.062.863.31,1.036.438.2.83-.13,1.17-.422a7.594,7.594,0,0,0,2.2-3.915c1.427-5.074,6.627-6.8,10.775-3.565a7.274,7.274,0,0,0,9.706-.067,6.42,6.42,0,0,1,4.536-1.563,6.589,6.589,0,0,1,6.076,4.89,18.451,18.451,0,0,0,.774,2.138,4.829,4.829,0,0,0,1.962,2.407c.489.269.825.3,1.007-.409A39.618,39.618,0,0,0-1816.946-66.378Zm23.7,59.672c0-2.605.011-5.211,0-7.816a3.17,3.17,0,0,0-3.4-3.4q-5.665-.014-11.331.011a3.161,3.161,0,0,0-3.467,3.5q-.017,7.685,0,15.369a3.211,3.211,0,0,0,3.531,3.555q5.577.049,11.155.015a3.249,3.249,0,0,0,3.513-3.588C-1793.238-1.612-1793.243-4.159-1793.243-6.706Zm-43-7.84q-4.655,0-9.31,0c-.433,0-.841-.011-.917.551-.185,1.385-.469,2.766-.53,4.156a54.377,54.377,0,0,0,.677,11.78c.093.529.31.75.864.732,1.053-.035,2.11-.057,3.161.006.752.045.981-.207.884-.937a24.31,24.31,0,0,1,.017-6.727,10.772,10.772,0,0,1,2.723-6.236,1.336,1.336,0,0,1,2.193.008c.514.491.794,1.183,1.31,1.639a8.643,8.643,0,0,1,2.574,4.955,15.1,15.1,0,0,1,0,6.422c-.137.631.047.9.75.874,1.169-.051,2.342-.039,3.512,0a.76.76,0,0,0,.9-.673,36.668,36.668,0,0,0,1.178-7.677,60.572,60.572,0,0,0,0-8.145c-.047-.664-.314-.734-.864-.731C-1830.154-14.536-1833.2-14.547-1836.243-14.546Zm4.823-2.7c1.346,0,2.694-.05,4.037.019.82.042.839-.286.684-.919a25.4,25.4,0,0,0-2.5-6.585,1.461,1.461,0,0,1-.054-1.647,1.444,1.444,0,0,1,1.472-.549,60.984,60.984,0,0,0,7.89.219,23.211,23.211,0,0,0,6.052-.863c.426-.131.887-.23.713-.838-.153-.536.244-1.255-.777-1.477q-6.228-1.357-12.3-3.319a1.2,1.2,0,0,0-.585-.127c-1.864.489-3.783.275-5.668.473-.225.024-.459-.028-.494.333a15.418,15.418,0,0,0-.33,3.991c.282,1.757.528,3.52.822,5.275a1.664,1.664,0,0,1-.752,1.811,22.533,22.533,0,0,1-1.935,1.355,2,2,0,0,0-1.126,2.2c.051.563.222.671.728.66C-1834.171-17.269-1832.8-17.249-1831.42-17.249Zm47.2-7.676c.846,0,1.693-.016,2.539.007.411.011.625-.043.613-.552-.036-1.575-.025-3.151-.005-4.727.005-.4-.078-.562-.522-.556q-2.626.037-5.253,0c-.433-.005-.543.148-.538.557q.029,2.363,0,4.727c-.005.414.111.566.54.551C-1785.973-24.946-1785.1-24.925-1784.221-24.925Zm-53.391-3.185a5.082,5.082,0,0,1-.7-.005c-.654-.092-.992.07-1.044.834a32.2,32.2,0,0,1-.469,3.284.963.963,0,0,0,.469,1.087c1.793,1.273,1.781,1.29,3.558,0a1.332,1.332,0,0,1,.144-.1.732.732,0,0,0,.388-.874c-.157-.889-.27-1.785-.43-2.674C-1835.975-28.112-1835.984-28.11-1837.612-28.11Zm35.3,7.461c.671,0,1.346-.048,2.011.014.648.061.78-.194.744-.781-.05-.814-.012-1.632-.012-2.449,0-1.426,0-1.394-1.466-1.437-1.027-.03-1.989-.083-2.581,1.03a1.877,1.877,0,0,1-.986.682.747.747,0,0,0-.554.834c-.025,2.107-.039,2.107,2.058,2.107Zm-7.41-8.853c-.271.044-.735-.1-.733.118.006.637-.293,1.381.3,1.9a6.382,6.382,0,0,0,3.511,1.617c.586.064,1.2-.022,1.436-.713a1.419,1.419,0,0,0-.464-1.795,4.936,4.936,0,0,0-.922-.484A12.324,12.324,0,0,0-1809.719-29.5Zm-39.611,36.361c2.716,0,5.3,0,7.886,0,.589,0,.368-.478.4-.782.035-.336.016-.639-.472-.635-1.927.016-3.856-.018-5.782.031A2.362,2.362,0,0,0-1849.329,6.859Zm23.535,0a2.354,2.354,0,0,0-2.123-1.4c-1.843-.035-3.687,0-5.53-.027-.555-.008-.61.275-.6.71.006.414.006.734.583.729C-1830.955,6.85-1828.441,6.863-1825.795,6.863Zm-27.57-18.6c-.409,0-.818,0-1.227,0-.2,0-.434-.044-.494.234a3.285,3.285,0,0,0-.038,2.387c.4.685,1.25.556,1.923.462,1.674-.234,1.354.149,1.391-1.5C-1851.774-11.737-1851.787-11.737-1853.364-11.737Zm15.84-21.092c-2.015,0-1.979,0-1.79,1.384.069.508.261.622.714.6a19.174,19.174,0,0,1,2.006,0c.518.033.72-.178.8-.664.225-1.329.239-1.327-1.121-1.327Zm-19.653-16.158v-4.266C-1858.814-52.37-1858.858-50.223-1857.177-48.987Zm39.188-.017c1.7-.8,1.557-3.714,0-4.261Z" fill="#0b090a"/>
    <path id="Trazado_169808" data-name="Trazado 169808" d="M-1555.775,172.5c-1.02.256-1.307.607-1.308,1.641q0,7.681,0,15.361a3.859,3.859,0,0,1-4.029,4.208c-4.359.05-8.719,0-13.079-.01a2.691,2.691,0,0,1-.41-.076,8.6,8.6,0,0,0,.654-4.227c-.009-4.711-.021-9.421,0-14.132a5.872,5.872,0,0,0-3.781-5.93,1.171,1.171,0,0,1-.224-.18,3.8,3.8,0,0,1,3.372-1.845q6.759-.042,13.519-.008a3.7,3.7,0,0,1,3.269,1.725,1.712,1.712,0,0,0,1.9.891Z" transform="translate(-216.652 -189.575)" fill="#ff9800"/>
    <path id="Trazado_169809" data-name="Trazado 169809" d="M-1815.881,20.4c-2.718.106-5.466-.082-8.214-.187a8.788,8.788,0,0,1-8.565-8.721c-.125-3.13-.13-6.261-.065-9.393a.714.714,0,0,1,.3-.67,9.55,9.55,0,0,0,3.4-5.175c.094-.276.163-.559.256-.836a3.891,3.891,0,0,1,6.281-1.909c4.283,3.323,8.876,3.333,13.171.028a3.871,3.871,0,0,1,6.337,2c.647,2.016,1.336,4.037,3.058,5.4a2.342,2.342,0,0,1,.94,2.059c.042,3.045,0,6.088-.178,9.126a8.784,8.784,0,0,1-8.525,8.1C-1810.4,20.319-1813.123,20.5-1815.881,20.4Zm.037-12.678V7.67c-1.375,0-2.75,0-4.125,0a6.062,6.062,0,0,0-4.568,1.855c-1.512,1.551-1.635,3.475-1.555,5.468.043,1.065.505,1.541,1.574,1.55,1.316.012,2.633,0,3.95-.006a5.757,5.757,0,0,0,4.269-1.709c.313-.319.471-.349.8-.011a5.317,5.317,0,0,0,3.221,1.623,39.149,39.149,0,0,0,5.345.071,1.259,1.259,0,0,0,1.255-1.329,16.626,16.626,0,0,0-.006-2.017,5.7,5.7,0,0,0-5.247-5.413C-1812.561,7.622-1814.207,7.727-1815.844,7.727Zm-6.844-4.485a2.529,2.529,0,0,0-.336-1.39,1.481,1.481,0,0,0-1.261-.937,1.434,1.434,0,0,0-1.354.927,3.175,3.175,0,0,0-.177,2.619c.256.71.661,1.368,1.521,1.343.8-.023,1.176-.639,1.439-1.329A3.336,3.336,0,0,0-1822.689,3.243Zm16.871.054a2.641,2.641,0,0,0-.388-1.555,1.343,1.343,0,0,0-2.493.005,3.15,3.15,0,0,0-.239,2.7c.237.685.628,1.333,1.438,1.353.856.022,1.247-.623,1.521-1.349A3.261,3.261,0,0,0-1805.818,3.3Z" transform="translate(-21.679 -55.894)" fill="#e8be8e"/>
    <path id="Trazado_169810" data-name="Trazado 169810" d="M-1805.671-57.638a39.618,39.618,0,0,1-1.388,9.414c-.182.709-.518.678-1.007.409a4.829,4.829,0,0,1-1.962-2.407,18.451,18.451,0,0,1-.774-2.138,6.589,6.589,0,0,0-6.076-4.89,6.42,6.42,0,0,0-4.536,1.563,7.274,7.274,0,0,1-9.706.067c-4.148-3.234-9.348-1.509-10.775,3.565a7.594,7.594,0,0,1-2.2,3.915c-.339.292-.732.626-1.17.422-.372-.173-.259-.665-.31-1.036a66.965,66.965,0,0,1-.782-8.272,14.849,14.849,0,0,1,1.112-6.849,7.108,7.108,0,0,1,5.093-3.933,45.563,45.563,0,0,1,10.936-1.233,23.14,23.14,0,0,1,8.482,1.535,10.454,10.454,0,0,1,4.632,3.343,1.311,1.311,0,0,0,2.122.247,9.451,9.451,0,0,1,2.275-1.3,3.726,3.726,0,0,1,4.911,1.79A11.853,11.853,0,0,1-1805.671-57.638Z" transform="translate(-11.275 -8.74)" fill="#94422d"/>
    <path id="Trazado_169811" data-name="Trazado 169811" d="M-1631.486,197.069c0,2.547,0,5.094,0,7.641A3.249,3.249,0,0,1-1635,208.3q-5.577.029-11.155-.015a3.211,3.211,0,0,1-3.531-3.555q-.016-7.685,0-15.369a3.161,3.161,0,0,1,3.467-3.5q5.665-.024,11.331-.011a3.17,3.17,0,0,1,3.4,3.4C-1631.475,191.858-1631.486,194.464-1631.486,197.069Z" transform="translate(-161.757 -203.775)" fill="#ffee58"/>
    <path id="Trazado_169812" data-name="Trazado 169812" d="M-1790.511,200.211c3.045,0,6.089.01,9.134-.01.549,0,.817.066.864.731a60.572,60.572,0,0,1,0,8.145,36.668,36.668,0,0,1-1.178,7.677.76.76,0,0,1-.9.673c-1.17-.036-2.343-.048-3.512,0-.7.031-.887-.243-.75-.874a15.1,15.1,0,0,0,0-6.422,8.643,8.643,0,0,0-2.574-4.955c-.516-.456-.8-1.147-1.31-1.639a1.336,1.336,0,0,0-2.193-.008,10.772,10.772,0,0,0-2.723,6.236,24.31,24.31,0,0,0-.017,6.727c.1.73-.132.982-.884.937-1.05-.063-2.108-.041-3.161-.006-.554.018-.771-.2-.864-.732a54.377,54.377,0,0,1-.677-11.78c.061-1.39.345-2.771.53-4.156.075-.562.484-.552.917-.551Q-1795.166,200.219-1790.511,200.211Z" transform="translate(-45.732 -214.758)" fill="#111e61"/>
    <path id="Trazado_169813" data-name="Trazado 169813" d="M-1768.38,142.395c1.627,0,1.636,0,1.916,1.55.16.888.273,1.785.43,2.674a.732.732,0,0,1-.388.874,1.32,1.32,0,0,0-.144.1c-1.777,1.291-1.765,1.275-3.558,0a.963.963,0,0,1-.469-1.087,32.163,32.163,0,0,0,.469-3.284c.052-.764.39-.926,1.044-.834A5.084,5.084,0,0,0-1768.38,142.395Z" transform="translate(-69.231 -170.505)" fill="#dd6635"/>
    <path id="Trazado_169814" data-name="Trazado 169814" d="M-1644.933,136.542a12.324,12.324,0,0,1,3.132.641,4.937,4.937,0,0,1,.922.484,1.419,1.419,0,0,1,.464,1.795c-.232.691-.85.777-1.436.713a6.382,6.382,0,0,1-3.511-1.617c-.6-.517-.3-1.261-.3-1.9C-1645.669,136.443-1645.2,136.586-1644.933,136.542Z" transform="translate(-164.785 -166.044)" fill="#e8be8e"/>
    <path id="Trazado_169815" data-name="Trazado 169815" d="M-1810.984,286.76a2.362,2.362,0,0,1,2.032-1.39c1.927-.049,3.855-.014,5.782-.031.488,0,.507.3.472.635-.032.3.189.78-.4.782C-1805.683,286.765-1808.268,286.76-1810.984,286.76Z" transform="translate(-38.346 -279.901)" fill="#ff9800"/>
    <path id="Trazado_169816" data-name="Trazado 169816" d="M-1737.672,286.746c-2.647,0-5.16-.012-7.674.009-.576,0-.577-.315-.583-.729-.006-.435.048-.718.6-.71,1.843.028,3.687-.008,5.53.027A2.354,2.354,0,0,1-1737.672,286.746Z" transform="translate(-88.123 -279.883)" fill="#ff9800"/>
    <path id="Trazado_169817" data-name="Trazado 169817" d="M-1834.616,212.2c1.577,0,1.591,0,1.555,1.589-.037,1.645.282,1.262-1.391,1.5-.673.094-1.522.223-1.923-.462a3.285,3.285,0,0,1,.038-2.387c.061-.278.3-.231.494-.234C-1835.434,212.2-1835.025,212.2-1834.616,212.2Z" transform="translate(-18.749 -223.939)" fill="#e8be8e"/>
    <path id="Trazado_169818" data-name="Trazado 169818" d="M-1766.822,122.4h.611c1.36,0,1.347,0,1.121,1.327-.082.486-.284.7-.8.664a19.176,19.176,0,0,0-2.006,0c-.453.019-.645-.1-.714-.6C-1768.8,122.391-1768.838,122.4-1766.822,122.4Z" transform="translate(-70.702 -155.225)" fill="#dd6635"/>
    <path id="Trazado_169819" data-name="Trazado 169819" d="M-1848.454,39.7c-1.681-1.236-1.637-3.383,0-4.266Z" transform="translate(-8.723 -88.683)" fill="#e8be8e"/>
    <path id="Trazado_169820" data-name="Trazado 169820" d="M-1677.534,39.64V35.379C-1675.978,35.926-1675.829,38.836-1677.534,39.64Z" transform="translate(-140.455 -88.644)" fill="#e8be8e"/>
    <path id="Trazado_169821" data-name="Trazado 169821" d="M-1794.165,56.9c1.637,0,3.283-.1,4.91.023a5.7,5.7,0,0,1,5.247,5.413,16.626,16.626,0,0,1,.006,2.017,1.259,1.259,0,0,1-1.255,1.329,39.15,39.15,0,0,1-5.345-.071,5.317,5.317,0,0,1-3.221-1.623c-.328-.337-.486-.308-.8.011a5.757,5.757,0,0,1-4.269,1.709c-1.317.005-2.633.018-3.95.006-1.069-.009-1.531-.485-1.574-1.55-.08-1.993.043-3.917,1.555-5.468a6.062,6.062,0,0,1,4.568-1.855c1.375,0,2.75,0,4.125,0Zm3.469,2.652c-.636,0-1.163.014-1.689,0-.442-.015-.547.19-.5.6a3.2,3.2,0,0,0,2.513,2.8,17.944,17.944,0,0,0,3.233.116c.373.015.508-.177.49-.548a3.185,3.185,0,0,0-2.154-2.823A7.092,7.092,0,0,0-1790.7,59.551Zm-6.854,0v.015c-.5,0-1-.029-1.493.006a3.092,3.092,0,0,0-2.691,2.795c-.02.441.035.732.594.707.789-.036,1.582.023,2.371-.018a3.169,3.169,0,0,0,3.14-2.455c.22-.876.1-1.042-.779-1.049C-1796.788,59.547-1797.169,59.549-1797.55,59.549Z" transform="translate(-43.359 -105.064)" fill="#0b090a"/>
    <path id="Trazado_169822" data-name="Trazado 169822" d="M-1800.707,30.409a3.336,3.336,0,0,1-.167,1.234c-.263.689-.637,1.305-1.439,1.329-.86.025-1.265-.633-1.521-1.343a3.175,3.175,0,0,1,.177-2.619,1.434,1.434,0,0,1,1.354-.927,1.481,1.481,0,0,1,1.261.937A2.529,2.529,0,0,1-1800.707,30.409Z" transform="translate(-43.662 -83.06)" fill="#0b090a"/>
    <path id="Trazado_169823" data-name="Trazado 169823" d="M-1728.827,30.418a3.261,3.261,0,0,1-.161,1.159c-.274.726-.666,1.371-1.521,1.349-.81-.02-1.2-.668-1.438-1.353a3.15,3.15,0,0,1,.239-2.7,1.343,1.343,0,0,1,2.493-.005A2.641,2.641,0,0,1-1728.827,30.418Z" transform="translate(-98.67 -83.015)" fill="#0b090a"/>
    <path id="Trazado_169824" data-name="Trazado 169824" d="M-1753.114,68.365a7.092,7.092,0,0,1,1.89.137,3.185,3.185,0,0,1,2.154,2.823c.018.372-.116.564-.49.548a17.944,17.944,0,0,1-3.233-.116,3.2,3.2,0,0,1-2.513-2.8c-.044-.406.061-.61.5-.6C-1754.277,68.379-1753.75,68.365-1753.114,68.365Z" transform="translate(-80.941 -113.879)" fill="#94422d"/>
    <path id="Trazado_169825" data-name="Trazado 169825" d="M-1788.77,68.374c.381,0,.761,0,1.142,0,.877.007,1,.173.779,1.049a3.169,3.169,0,0,1-3.14,2.455c-.789.041-1.582-.018-2.371.018-.559.026-.614-.266-.594-.707a3.092,3.092,0,0,1,2.691-2.795c.5-.034.995-.006,1.493-.006Z" transform="translate(-52.139 -113.889)" fill="#94422d"/>
  </g>
</svg>
