<svg xmlns="http://www.w3.org/2000/svg" width="58.18" height="90" viewBox="0 0 58.18 90">
  <g id="Grupo_110597" data-name="Grupo 110597" transform="translate(706.131 -489.369)">
    <path id="Trazado_169741" data-name="Trazado 169741" d="M-676.975,579.368q-5.669,0-11.338,0c-1.139,0-1.564-.327-1.761-1.48-.79-4.6-1.594-9.2-2.307-13.813a3.65,3.65,0,0,0-2.269-3.32,9.355,9.355,0,0,1-5.552-8.929c-.05-3.6-.033-7.2.009-10.794.008-.725-.2-.882-.89-.872-2.606.036-4.276-1.042-4.773-3.238a12.186,12.186,0,0,1-.022-5.035,4.165,4.165,0,0,1,4.357-3.323c1.309,0,1.309,0,1.309-1.324q0-5.125,0-10.25a10.084,10.084,0,0,1,6.779-9.622.911.911,0,0,0,.716-.849q1.295-7.891,2.662-15.77c.177-1.029.623-1.376,1.664-1.377q11.384-.005,22.767,0c1.094,0,1.529.337,1.715,1.427.851,4.988,1.7,9.976,2.5,14.973A1.983,1.983,0,0,0-660,507.6a9.966,9.966,0,0,1,6.236,9.347c0,1.27.019,2.54-.009,3.809-.01.438.122.565.557.555a6.5,6.5,0,0,1,2.243.172,4.347,4.347,0,0,1,3.014,4.083q.013,1.542,0,3.084a4.3,4.3,0,0,1-4.265,4.263c-1.54.018-1.54.018-1.54,1.547v.181c0,1.174,0,1.174,1.186,1.175a4.315,4.315,0,0,1,4.621,4.633c0,.907.008,1.814,0,2.721a4.3,4.3,0,0,1-4.269,4.258c-1.536.018-1.524.018-1.538,1.551-.02,2.106.213,4.238-.581,6.271a10.177,10.177,0,0,1-6.154,6.107c-.43.16-.667.3-.752.817q-1.29,7.892-2.658,15.772c-.185,1.08-.625,1.415-1.725,1.416Q-671.306,579.372-676.975,579.368Zm12.272-75.506c-.331-1.93-.559-3.879-1.015-5.787-.266-1.756-.543-3.51-.793-5.268-.077-.544-.417-.541-.838-.54q-9.65.012-19.3-.007c-.521,0-.754.136-.84.658q-1.079,6.6-2.193,13.194c-.08.474-.006.69.566.689q12.143-.027,24.285,0c.508,0,.63-.172.544-.626C-664.434,505.4-664.565,504.633-664.7,503.863Zm-24.569,61.012c.331,1.932.555,3.882,1.014,5.791.267,1.756.544,3.51.794,5.268.078.547.422.537.84.537q9.65-.011,19.3.008c.524,0,.752-.141.837-.66q1.08-6.6,2.193-13.192c.08-.475,0-.69-.567-.689q-12.142.027-24.284,0c-.507,0-.63.17-.543.625C-689.541,563.333-689.41,564.1-689.272,564.875Zm32.607-30.484q0-8.527,0-17.055a7.292,7.292,0,0,0-7.621-7.643q-12.7-.008-25.4,0a7.286,7.286,0,0,0-7.62,7.642q-.006,17.01,0,34.019a7.3,7.3,0,0,0,7.666,7.69q12.655.006,25.31,0a7.3,7.3,0,0,0,7.667-7.69Q-656.66,542.873-656.665,534.391Zm2.9-7.307c0,.783-.006,1.565,0,2.347,0,.195-.082.425.159.562a1.977,1.977,0,0,0,2.731-1.5c.037-.69.009-1.384.009-2.076,0-1.829-.583-2.346-2.416-2.22-.413.028-.5.175-.492.541C-653.748,525.518-653.762,526.3-653.762,527.084Zm-46.452,7.291c0-.783.006-1.566,0-2.348,0-.192.081-.416-.179-.545-.971-.484-2.588.221-2.68,1.258a19.037,19.037,0,0,0,0,3.246c.083,1.008.965,1.443,2.4,1.281.954-.107.35-.844.441-1.272A7.942,7.942,0,0,0-700.213,534.375Zm46.452,7.187c0,.813-.006,1.625,0,2.438,0,.188-.081.4.208.522a1.935,1.935,0,0,0,2.688-1.747c.01-.632,0-1.264,0-1.9,0-1.732-.467-2.167-2.2-2.167-.527,0-.764.1-.719.685C-653.721,540.114-653.762,540.84-653.762,541.562Z" transform="translate(0)" fill="#050506"/>
    <path id="Trazado_169742" data-name="Trazado 169742" d="M-629.116,597.866q0,8.482,0,16.964a7.3,7.3,0,0,1-7.667,7.69q-12.655.006-25.31,0a7.3,7.3,0,0,1-7.666-7.69q0-17.009,0-34.019a7.286,7.286,0,0,1,7.62-7.642q12.7-.008,25.4,0a7.292,7.292,0,0,1,7.621,7.643Q-629.109,589.338-629.116,597.866Zm-2.9-.024q0-8.616,0-17.233a4.325,4.325,0,0,0-4.561-4.537q-12.835,0-25.669,0a4.337,4.337,0,0,0-4.605,4.585q0,17.188,0,34.376a4.338,4.338,0,0,0,4.607,4.584q12.789,0,25.578,0a4.342,4.342,0,0,0,4.651-4.632Q-632.017,606.413-632.02,597.842Z" transform="translate(-27.549 -63.475)" fill="#a2b0b7"/>
    <path id="Trazado_169743" data-name="Trazado 169743" d="M-637.989,791.556c-.138-.77-.269-1.542-.416-2.311-.087-.455.036-.626.543-.625q12.142.023,24.284,0c.571,0,.647.214.567.689q-1.108,6.594-2.193,13.192c-.085.519-.313.662-.837.66q-9.65-.03-19.3-.008c-.418,0-.762.01-.84-.537-.251-1.758-.527-3.513-.794-5.268,4.227,0,8.453,0,12.68-.012a2.9,2.9,0,0,0,2.943-2.9,2.915,2.915,0,0,0-2.87-2.89C-628.812,791.532-633.4,791.549-637.989,791.556Z" transform="translate(-51.283 -226.681)" fill="#81949d"/>
    <path id="Trazado_169744" data-name="Trazado 169744" d="M-613.4,512.894c.137.77.269,1.542.415,2.311.086.453-.035.627-.544.626q-12.143-.023-24.285,0c-.572,0-.645-.215-.566-.689q1.107-6.6,2.193-13.194c.086-.522.318-.659.839-.658q9.651.029,19.3.007c.421,0,.76,0,.838.54.25,1.758.527,3.513.793,5.268-4.228,0-8.457,0-12.686.009a2.855,2.855,0,0,0-2.937,2.9,2.9,2.9,0,0,0,2.864,2.89C-622.587,512.918-618,512.9-613.4,512.894Z" transform="translate(-51.298 -9.031)" fill="#81949d"/>
    <path id="Trazado_169745" data-name="Trazado 169745" d="M-636.61,800.679c4.589-.007,9.178-.023,13.766-.014a2.915,2.915,0,0,1,2.87,2.89,2.9,2.9,0,0,1-2.943,2.9c-4.227.013-8.453.009-12.68.012C-636.055,804.561-636.279,802.61-636.61,800.679Z" transform="translate(-52.662 -235.804)" fill="#a2b0b7"/>
    <path id="Trazado_169746" data-name="Trazado 169746" d="M-587.263,531.06c-4.591.007-9.182.025-13.773.014a2.9,2.9,0,0,1-2.864-2.89,2.855,2.855,0,0,1,2.937-2.9c4.228-.013,8.457-.008,12.686-.009C-587.822,527.182-587.594,529.13-587.263,531.06Z" transform="translate(-77.44 -27.197)" fill="#a2b0b7"/>
    <path id="Trazado_169747" data-name="Trazado 169747" d="M-490.2,635.814c0-.783.013-1.566-.006-2.348-.009-.366.079-.513.492-.541,1.833-.126,2.416.391,2.416,2.22,0,.692.028,1.386-.009,2.076a1.977,1.977,0,0,1-2.731,1.5c-.241-.137-.157-.367-.159-.562C-490.209,637.379-490.2,636.6-490.2,635.814Z" transform="translate(-163.558 -108.73)" fill="#81949d"/>
    <path id="Trazado_169748" data-name="Trazado 169748" d="M-690.893,665.434a7.965,7.965,0,0,1-.026,1.62c-.091.428.513,1.165-.441,1.272-1.434.161-2.316-.273-2.4-1.281a19.042,19.042,0,0,1,0-3.246c.092-1.037,1.709-1.742,2.68-1.258.26.13.177.354.179.545C-690.887,663.868-690.893,664.651-690.893,665.434Z" transform="translate(-9.32 -131.059)" fill="#81949d"/>
    <path id="Trazado_169749" data-name="Trazado 169749" d="M-490.235,695.691c0-.722.041-1.448-.013-2.166-.045-.59.192-.685.719-.685,1.73,0,2.2.436,2.2,2.167,0,.632.009,1.264,0,1.9a1.935,1.935,0,0,1-2.688,1.747c-.289-.119-.205-.334-.208-.522C-490.241,697.317-490.235,696.5-490.235,695.691Z" transform="translate(-163.527 -154.129)" fill="#81949d"/>
    <path id="Trazado_169750" data-name="Trazado 169750" d="M-622.948,606.916q0,8.571,0,17.143a4.341,4.341,0,0,1-4.651,4.632q-12.789,0-25.578,0a4.338,4.338,0,0,1-4.607-4.584q0-17.188,0-34.376a4.337,4.337,0,0,1,4.605-4.585q12.835,0,25.669,0a4.325,4.325,0,0,1,4.561,4.537Q-622.943,598.3-622.948,606.916Zm-31.9,11.612c-.01,1.753-.024,3.505-.029,5.258,0,1.546.447,2,1.969,2h25.029c1.594,0,2.032-.438,2.032-2.034,0-10.973-.034-21.946.023-32.919.015-2.789-.643-2.919-2.929-2.758-.271-.01-.542-.029-.813-.029q-11.687,0-23.374,0c-1.466,0-1.939.474-1.939,1.945q0,7.791,0,15.583Q-654.875,612.052-654.852,618.529Z" transform="translate(-36.621 -72.549)" fill="#050506"/>
    <path id="Trazado_169751" data-name="Trazado 169751" d="M-645.787,627.6q-.015-6.477-.029-12.953-.007-7.791,0-15.583c0-1.471.473-1.945,1.939-1.945q11.687,0,23.374,0c.271,0,.542.019.813.029q0,13.058-.006,26.116l-21.031-.017c-2.256,0-2.237,0-2.2,2.27.008.522.163.654.664.644,1.6-.03,3.2-.013,4.8-.011l17.4.031a3.344,3.344,0,0,1-3.023,1.436C-630.649,627.584-638.218,627.6-645.787,627.6Zm20.419-13.062c.621-.778,1.141-1.4,1.628-2.046a11.829,11.829,0,0,0,2.33-3.516,4.4,4.4,0,0,0-1.225-4.947,4.028,4.028,0,0,0-4.625-.711,4.407,4.407,0,0,0-2.619,4.282c-.021.958.253,1.283,1.178,1.138.557-.087,1.252.222,1.649-.143.249-.23.07-.909.111-1.384a1.458,1.458,0,0,1,1.59-1.377,1.479,1.479,0,0,1,1.3,1.668,3.445,3.445,0,0,1-.881,1.843c-1.477,1.832-2.94,3.675-4.416,5.508a1.512,1.512,0,0,0-.356,1.735,1.568,1.568,0,0,0,1.642.859c1.57-.017,3.141-.005,4.712-.005,2.267,0,2.239,0,2.229-2.244,0-.6-.22-.685-.733-.67C-622.966,614.56-624.078,614.537-625.368,614.537Zm-13.191-6.731c0,2.209-.023,4.129.015,6.047.011.568-.151.713-.705.7-.712-.017-1.67-.332-2.08.128-.438.492-.09,1.439-.132,2.187,0,.03,0,.061,0,.09-.036.328.062.489.439.487q3.9-.019,7.792,0c.429,0,.467-.185.487-.541.126-2.338.134-2.361-2.182-2.355-.6,0-.749-.162-.743-.75.03-3.05.007-6.1.019-9.151a1.529,1.529,0,0,0-.913-1.607,1.5,1.5,0,0,0-1.779.5q-1.311,1.316-2.624,2.629c-1.552,1.552-1.539,1.539.033,3.1.379.375.622.483.994.019S-639.14,608.423-638.559,607.806Z" transform="translate(-45.686 -81.619)" fill="#ffee58"/>
    <path id="Trazado_169752" data-name="Trazado 169752" d="M-619.688,623.218q0-13.058.006-26.116c2.286-.16,2.943-.031,2.929,2.758-.057,10.973-.023,21.946-.024,32.919,0,1.6-.438,2.034-2.032,2.034h-25.029c-1.522,0-1.974-.456-1.969-2,0-1.753.019-3.505.029-5.258,7.569,0,15.138-.015,22.708.018a3.344,3.344,0,0,0,3.023-1.436c.4-.007.372-.29.369-.566C-619.685,624.785-619.685,624-619.688,623.218Zm-11.6,8.692h9.513c2.107,0,2.071,0,2.111-2.094.014-.709-.211-.826-.86-.824-6.735.024-13.469.015-20.2.015-2.219,0-2.192,0-2.2,2.185,0,.619.2.734.766.73C-638.532,631.9-634.908,631.91-631.284,631.91Z" transform="translate(-45.695 -81.573)" fill="#ffee58"/>
    <path id="Trazado_169753" data-name="Trazado 169753" d="M-575.577,632.557c1.29,0,2.4.023,3.514-.01.513-.015.73.065.733.67.01,2.244.038,2.244-2.229,2.244-1.571,0-3.141-.012-4.712.005a1.568,1.568,0,0,1-1.642-.859,1.512,1.512,0,0,1,.355-1.735c1.476-1.833,2.939-3.676,4.416-5.508a3.445,3.445,0,0,0,.882-1.843,1.479,1.479,0,0,0-1.3-1.668,1.458,1.458,0,0,0-1.59,1.377c-.041.475.138,1.154-.111,1.384-.4.366-1.091.056-1.649.143-.925.145-1.2-.18-1.178-1.138a4.407,4.407,0,0,1,2.619-4.282,4.028,4.028,0,0,1,4.625.711,4.4,4.4,0,0,1,1.225,4.947,11.829,11.829,0,0,1-2.33,3.517C-574.436,631.157-574.956,631.779-575.577,632.557Z" transform="translate(-95.477 -99.639)" fill="#050506"/>
    <path id="Trazado_169754" data-name="Trazado 169754" d="M-627.011,625.927c-.581.617-1.012,1.023-1.38,1.481s-.615.356-.994-.019c-1.572-1.557-1.585-1.544-.033-3.1q1.313-1.313,2.624-2.629a1.5,1.5,0,0,1,1.779-.5,1.529,1.529,0,0,1,.913,1.607c-.012,3.05.011,6.1-.019,9.151-.006.588.147.752.743.75,2.316-.005,2.308.017,2.182,2.355-.019.355-.058.543-.487.541q-3.9-.027-7.792,0c-.377,0-.476-.159-.439-.487,0-.03,0-.06,0-.091.042-.747-.307-1.7.132-2.187.41-.461,1.368-.145,2.08-.128.554.013.716-.132.705-.7C-627.035,630.055-627.011,628.136-627.011,625.927Z" transform="translate(-57.234 -99.74)" fill="#050506"/>
    <path id="Trazado_169755" data-name="Trazado 169755" d="M-610.694,704.883c0,.784,0,1.567.009,2.351,0,.276.034.559-.369.566l-17.4-.031c-1.6,0-3.2-.019-4.8.011-.5.009-.656-.122-.664-.644-.036-2.27-.055-2.271,2.2-2.27Z" transform="translate(-54.689 -163.239)" fill="#050506"/>
    <path id="Trazado_169756" data-name="Trazado 169756" d="M-622.273,731.666c-3.624,0-7.248-.012-10.872.012-.565,0-.768-.111-.766-.73.007-2.185-.02-2.185,2.2-2.185,6.735,0,13.469.009,20.2-.015.649,0,.873.115.86.824-.041,2.093,0,2.094-2.111,2.094Z" transform="translate(-54.706 -181.329)" fill="#050506"/>
  </g>
</svg>
