<svg xmlns="http://www.w3.org/2000/svg" width="65.432" height="90" viewBox="0 0 65.432 90">
  <g id="Grupo_110598" data-name="Grupo 110598" transform="translate(583.741 -784.054)">
    <path id="Trazado_169757" data-name="Trazado 169757" d="M-581.594,845.945c-1.138-.413-1.4-.859-1.183-2.065a13.334,13.334,0,0,1,3.3-6.749c1.034-1.132,1.613-1.163,2.685-.092q5.5,5.495,10.995,11c.2.2.381.436.569.653.468-.328.334-.757.412-1.1.468-2.052,1.294-3.983,1.953-5.97.453-1.367.129-2.787.2-4.181.013-.268-.263-.358-.455-.485A8.415,8.415,0,0,1-566,833.832a1.529,1.529,0,0,0-.67-.653,14.694,14.694,0,0,1-7.827-10.892,17.234,17.234,0,0,1-.206-3.15c.02-2.753-.016-5.506.025-8.259a.86.86,0,0,0-.685-.99,5.151,5.151,0,0,1-1.983-1.254c-1.54-1.524-3.109-3.024-4.586-4.608a6.5,6.5,0,0,1,.111-9.107c2.969-3.036,6-6.006,9-9.018a10.2,10.2,0,0,1,3.188-1.847H-567c.03.141.139.148.257.174a5.849,5.849,0,0,1,4.492,3.646c.461,1.214,1.031,1.354,2.209,1.335,5.907-.093,11.816-.046,17.725-.043a5.874,5.874,0,0,1,1.4.075c.5.125.661-.074.777-.493a6.461,6.461,0,0,1,2.014-3.111,9.142,9.142,0,0,1,3.118-1.582h2.285c3.28.685,4.965,3.456,7.179,5.526a1.18,1.18,0,0,1-.125,1.788,1.238,1.238,0,0,1-1.812-.026c-1.118-1.073-2.2-2.189-3.3-3.278a3.066,3.066,0,0,0-1.585-1.027,3.515,3.515,0,0,0-4.045.662,3.783,3.783,0,0,0-1.154,4.292c.46,1.411.991,2.8,1.49,4.2,1.056,2.961,2.127,5.916,3.162,8.884a3.927,3.927,0,0,0,5.487,2.2,24.173,24.173,0,0,0,6.061-6.109,3.609,3.609,0,0,0-.756-4.436c-.561-.6-1.184-1.139-1.719-1.758a1.229,1.229,0,0,1,.048-1.749,1.136,1.136,0,0,1,1.656-.187c1.612,1.434,3.269,2.852,3.692,5.165a6.277,6.277,0,0,1-1.468,5.634c-1.578,1.729-3.287,3.338-4.957,4.981a4.564,4.564,0,0,1-1.867,1.107c-.479.147-.587.407-.583.882.023,2.9.035,5.8.007,8.7-.059,6.095-2.677,10.707-8.034,13.7a1.562,1.562,0,0,0-.665.655,8.126,8.126,0,0,1-2.818,3.068,1.126,1.126,0,0,0-.537.988,13.724,13.724,0,0,0,1.244,6.63,16.446,16.446,0,0,1,1.007,3.609,1.11,1.11,0,0,0,.553.831,13.145,13.145,0,0,1,6.379,11.844,1.506,1.506,0,0,1,0,.176,2.424,2.424,0,0,0,1.54,2.956,5.159,5.159,0,0,1,2.418,6.107,5.463,5.463,0,0,1-5.262,3.989q-19.508.006-39.016,0a5.509,5.509,0,0,1-5.406-4.486,5.442,5.442,0,0,1,3.3-6.045,1.093,1.093,0,0,0,.814-1.274c-.044-.934.325-2.036-.057-2.765s-1.66-.574-2.508-.922a13.264,13.264,0,0,1-7.815-8.03c-.371-1.026-.182-1.475.765-2.011.988-.15,1.451.359,1.793,1.239a10.416,10.416,0,0,0,7.738,6.734c.334.078.723.27.7-.355a13.874,13.874,0,0,1,3.587-5.5c.327-.291.2-.45-.039-.688q-4.075-4.032-8.138-8.076c-.585-.605-1.208-1.179-1.744-1.825-.462-.558-.672-.346-.983.133a10.266,10.266,0,0,0-1.631,4.193A1.586,1.586,0,0,1-581.594,845.945Zm15.806-58.372a3.8,3.8,0,0,0-5.167.237q-4.546,4.448-8.993,9a3.847,3.847,0,0,0,0,5.458c1.43,1.5,2.9,2.979,4.406,4.4a3.8,3.8,0,0,0,5.231.081,3.151,3.151,0,0,0,1.2-1.666c1.558-4.353,3.128-8.7,4.652-13.068A3.79,3.79,0,0,0-565.788,787.573Zm7.125,24.844a5.316,5.316,0,0,1,2.418-1.674.6.6,0,0,0,.5-.676c-.026-4.858-.03-9.717-.04-14.576.01-1.024,0-2.049.038-3.073.016-.468-.157-.61-.61-.6-1.55.049-3.1-.039-4.652.1-.543.047-.711.269-.872.728q-2.347,6.694-4.743,13.37a6.376,6.376,0,0,1-4.711,4.183c-.522.131-.648.316-.645.8.019,3.133,0,6.267.024,9.4a11.565,11.565,0,0,0,2.84,7.469,6.424,6.424,0,0,0,2.065,1.828c0-.391,0-.676,0-.961.009-2.489-.037-4.98.042-7.466a8.488,8.488,0,0,1,6.889-7.82A1.673,1.673,0,0,0-558.663,812.417Zm1.144,7.319a5.429,5.429,0,0,1-2.16-3.646,5.81,5.81,0,0,0-4.668,5.17c-.085,3.01-.119,6.028,0,9.035a5.934,5.934,0,0,0,8.614,4.747,5.669,5.669,0,0,0,3.145-3.649,19.624,19.624,0,0,0,.3-1.987,1.227,1.227,0,0,1,1.231-1.042,1.211,1.211,0,0,1,1.314,1.04,8.574,8.574,0,0,1,.127,1.043,6.053,6.053,0,0,0,6.106,5.274,5.977,5.977,0,0,0,5.838-5.457c.086-2.982.072-5.969,0-8.952a5.875,5.875,0,0,0-4.248-5.136c-.33-.08-.414-.081-.5.293a4.935,4.935,0,0,1-4.174,4.055c-.5.1-.654.259-.643.773a3.67,3.67,0,0,1-1.5,3.2,3.615,3.615,0,0,1-3.882.406,3.588,3.588,0,0,1-2.168-3.508c0-.579-.141-.838-.725-.886A5.343,5.343,0,0,1-557.518,819.736Zm.188,24.448c-.357-.12-.711-.249-1.072-.357-.691-.207-1.524-.732-2.042-.515-.611.256-.62,1.3-.886,2a18.449,18.449,0,0,0-.7,11.431c.608,2.343,1.564,4.577,2.354,6.864.441,1.276-.039,2.011-1.4,2.162a2.869,2.869,0,0,0-2.578,2.554,2.872,2.872,0,0,0,2.044,2.926,9.071,9.071,0,0,0,2.872.139c.936.009,1.873.029,2.809.026a3.257,3.257,0,0,0,3.564-3.529c.013-2.811-.011-5.623.015-8.434a1.061,1.061,0,0,0-.665-1.145,4.248,4.248,0,0,1-2.35-3.389,1.43,1.43,0,0,1,1.145-1.775c.788-.1,1.316.369,1.5,1.34.207,1.107.772,1.652,1.714,1.654s1.518-.546,1.724-1.643c.187-1,.776-1.5,1.576-1.341a1.47,1.47,0,0,1,1.058,1.843,4.4,4.4,0,0,1-2.4,3.365c-.36.187-.609.333-.605.818.026,3.016-.009,6.033.027,9.049a3.157,3.157,0,0,0,3.189,3.18q2.59.063,5.182,0a2.924,2.924,0,0,0,2.907-2.729,2.838,2.838,0,0,0-2.67-2.914c-1.247-.155-1.739-.9-1.33-2.081q.8-2.315,1.653-4.614a20.15,20.15,0,0,0,1.3-7.553,24.493,24.493,0,0,0-1.771-7.644c-.214-.6-.435-.729-1.053-.5a26.06,26.06,0,0,1-9.112,1.524A39.736,39.736,0,0,1-557.33,844.184Zm27.3-27.69c0-2.087,0-3.816,0-5.544,0-.379-.032-.617-.52-.728a6.5,6.5,0,0,1-4.932-4.407q-2.371-6.638-4.692-13.294a.753.753,0,0,0-.779-.6c-1.551-.155-3.1-.042-4.653-.107-.585-.024-.662.221-.661.721q.022,8.7,0,17.4c0,.439.094.681.548.822a4.532,4.532,0,0,1,2.574,2.008,1.307,1.307,0,0,0,1.049.648,8.486,8.486,0,0,1,7.093,7.914c.09,2.546.034,5.1.051,7.645,0,.194-.106.457.1.571.262.147.412-.134.575-.275a12.212,12.212,0,0,0,3.842-6.06C-529.786,820.882-530.139,818.5-530.035,816.494Zm-35.627,54.9a1.107,1.107,0,0,0-.047-.293,5.483,5.483,0,0,1,2.6-7.549c.5-.209.378-.505.26-.841-.492-1.4-1.025-2.8-1.478-4.212a19.515,19.515,0,0,1-.954-6.142.405.405,0,0,0-.454.158,10.446,10.446,0,0,0-3.192,5.72,37.94,37.94,0,0,0-.184,5.866,1.51,1.51,0,0,1-1.522,1.672,2.825,2.825,0,0,0-2.684,2.808,2.838,2.838,0,0,0,2.726,2.8C-568.958,871.449-567.321,871.4-565.662,871.4Zm29.237-.012c1.779,0,3.471.08,5.152-.024a2.784,2.784,0,0,0,2.575-2.839,2.827,2.827,0,0,0-2.657-2.745,1.5,1.5,0,0,1-1.543-1.734c-.01-1.288,0-2.576,0-3.864a10.276,10.276,0,0,0-2.744-7.015,2.3,2.3,0,0,0-1.095-.879,20.164,20.164,0,0,1-.3,3.56,40.474,40.474,0,0,1-2.06,6.68c-.193.553-.215.853.4,1.149a5.188,5.188,0,0,1,2.853,3.578A5.753,5.753,0,0,1-536.424,871.387ZM-548.906,801.2c0-2.9-.012-5.794.011-8.69,0-.519-.1-.725-.669-.7-.992.052-1.989.037-2.983.017-.4-.008-.563.093-.562.532q.015,8.778-.008,17.556c0,.428.13.549.546.537.935-.027,1.874-.047,2.808,0,.651.036.89-.109.878-.834C-548.935,806.818-548.906,804.008-548.906,801.2Zm-2.217,11.913a29.727,29.727,0,0,0-3.894.119,2.252,2.252,0,0,0-1.949,2.143,2.3,2.3,0,0,0,1.721,2.426,6.61,6.61,0,0,0,1.564.162,1.462,1.462,0,0,1,1.618,1.63c.027.671-.019,1.346.022,2.016a.963.963,0,0,0,1.052.946.93.93,0,0,0,1.051-.927,13.574,13.574,0,0,0,.025-1.4c0-1.967.257-2.232,2.185-2.263a2.446,2.446,0,0,0,2.718-2.438c0-1.451-1.058-2.39-2.736-2.411C-548.8,813.1-549.851,813.112-551.122,813.112Zm.29,29.148a24.029,24.029,0,0,0,7.193-1.2c1.74-.584,1.731-.57,1.639-2.332-.022-.425-.1-.542-.56-.456a6.771,6.771,0,0,1-3.042-.158,1.914,1.914,0,0,0-1.416.141,8.775,8.775,0,0,1-6.732.443,5.707,5.707,0,0,0-3.86-.383,2.611,2.611,0,0,1-1.392.008c-.892-.225-.988.112-1.035.927-.06,1.027.343,1.409,1.251,1.7A26.466,26.466,0,0,0-550.832,842.26Zm1.45-5.94c-.506-.607-.937-1.108-1.348-1.625-.189-.238-.322-.284-.532-.015-.41.522-.848,1.022-1.37,1.646A8.666,8.666,0,0,0-549.383,836.32Z" fill="#0b0909"/>
    <path id="Trazado_169758" data-name="Trazado 169758" d="M-377.806,815.779a3.927,3.927,0,0,1-5.487-2.2c-1.035-2.968-2.106-5.923-3.162-8.884-.5-1.4-1.029-2.786-1.49-4.2a3.783,3.783,0,0,1,1.154-4.292,3.515,3.515,0,0,1,4.045-.662,9.391,9.391,0,0,0-1.243,2.68,6.17,6.17,0,0,0,.387,3.317q2.165,6.047,4.344,12.089c.2.546.474,1.064.724,1.59A.88.88,0,0,0-377.806,815.779Z" transform="translate(-149.623 -8.506)" fill="#ffc571"/>
    <path id="Trazado_169759" data-name="Trazado 169759" d="M-564.236,1037.452c.026.625-.363.433-.7.355a10.416,10.416,0,0,1-7.738-6.734c-.342-.88-.8-1.389-1.793-1.239a12.792,12.792,0,0,1-.175-2.573,1.586,1.586,0,0,0,1.455-1.568,10.266,10.266,0,0,1,1.631-4.193c.311-.479.521-.69.983-.133.536.646,1.159,1.22,1.744,1.825-.446.047-.42.454-.506.728a11.559,11.559,0,0,0,1.133,9.6A9.427,9.427,0,0,0-564.236,1037.452Z" transform="translate(-6.956 -181.316)" fill="#d1d0e6"/>
    <path id="Trazado_169760" data-name="Trazado 169760" d="M-479.521,1037.034a39.742,39.742,0,0,0,5.994.7,26.059,26.059,0,0,0,9.112-1.524c.618-.225.839-.092,1.053.5a24.494,24.494,0,0,1,1.771,7.644,20.151,20.151,0,0,1-1.3,7.553q-.847,2.3-1.653,4.614c-.408,1.177.083,1.926,1.33,2.081a2.838,2.838,0,0,1,2.67,2.914,2.924,2.924,0,0,1-2.907,2.729q-2.59.06-5.182,0a3.157,3.157,0,0,1-3.189-3.18c-.036-3.016,0-6.033-.027-9.049,0-.485.245-.631.605-.818a4.4,4.4,0,0,0,2.4-3.365A1.47,1.47,0,0,0-469.9,1046c-.8-.155-1.389.346-1.576,1.341q-.309,1.646-1.724,1.643c-.941,0-1.506-.547-1.714-1.654-.182-.971-.711-1.444-1.5-1.34a1.431,1.431,0,0,0-1.145,1.775,4.248,4.248,0,0,0,2.35,3.389,1.061,1.061,0,0,1,.665,1.145c-.025,2.811,0,5.623-.015,8.434a3.257,3.257,0,0,1-3.564,3.529c-.936,0-1.873-.017-2.809-.026a4.158,4.158,0,0,1,2.314-6.946c.684-.149.626-.37.456-.838-.618-1.7-1.253-3.394-1.831-5.107a21.285,21.285,0,0,1-.762-9.588C-480.55,1040.125-479.882,1038.621-479.521,1037.034Z" transform="translate(-77.809 -192.85)" fill="#ffb74d"/>
    <path id="Trazado_169761" data-name="Trazado 169761" d="M-407.982,841.783c-.1,2,.249,4.388-.407,6.719a12.212,12.212,0,0,1-3.842,6.06c-.163.14-.313.422-.575.275-.2-.114-.1-.377-.1-.571-.017-2.548.039-5.1-.051-7.645a8.486,8.486,0,0,0-7.093-7.913,1.307,1.307,0,0,1-1.049-.648,4.533,4.533,0,0,0-2.574-2.008c-.454-.141-.549-.383-.548-.822q.021-8.7,0-17.4c0-.5.076-.745.661-.721,1.55.065,3.1-.048,4.653.107a.753.753,0,0,1,.779.6q2.316,6.657,4.692,13.294a6.5,6.5,0,0,0,4.932,4.407c.488.111.521.348.52.728C-407.986,837.967-407.982,839.7-407.982,841.783Zm-8.172-8.021a4.647,4.647,0,0,0-.887-2.8,1.515,1.515,0,0,0-2.537-.02,4.78,4.78,0,0,0-.014,5.483,1.529,1.529,0,0,0,2.592-.05A4.679,4.679,0,0,0-416.154,833.762Z" transform="translate(-122.053 -25.288)" fill="#ffb74d"/>
    <path id="Trazado_169762" data-name="Trazado 169762" d="M-473.891,924.228a5.344,5.344,0,0,0,2.02.774c.584.049.728.307.725.887a3.588,3.588,0,0,0,2.168,3.508,3.615,3.615,0,0,0,3.882-.406,3.671,3.671,0,0,0,1.5-3.2c-.011-.514.138-.678.643-.773a4.935,4.935,0,0,0,4.174-4.055c.084-.374.169-.373.5-.293a5.875,5.875,0,0,1,4.248,5.136c.071,2.983.084,5.97,0,8.952a5.977,5.977,0,0,1-5.838,5.457,6.053,6.053,0,0,1-6.106-5.275,8.58,8.58,0,0,0-.127-1.043,1.212,1.212,0,0,0-1.314-1.04,1.227,1.227,0,0,0-1.231,1.042,19.635,19.635,0,0,1-.3,1.987,5.668,5.668,0,0,1-3.145,3.649,6.086,6.086,0,0,1-2.272-4.47c-.116-3.183-.046-6.373-.018-9.56C-474.389,925.052-474.427,924.506-473.891,924.228Z" transform="translate(-83.628 -104.492)" fill="#fff1db"/>
    <path id="Trazado_169763" data-name="Trazado 169763" d="M-520.346,837.719a1.673,1.673,0,0,1-1.454,1.036,8.488,8.488,0,0,0-6.889,7.82c-.08,2.487-.033,4.978-.042,7.466,0,.285,0,.57,0,.961a6.425,6.425,0,0,1-2.065-1.828,11.565,11.565,0,0,1-2.84-7.469c-.026-3.133,0-6.267-.024-9.4,0-.487.123-.672.645-.8a6.376,6.376,0,0,0,4.711-4.183q2.407-6.673,4.743-13.37c.161-.459.329-.681.872-.728,1.552-.134,3.1-.046,4.652-.1.452-.014.626.128.609.6-.036,1.023-.028,2.048-.038,3.073a12.735,12.735,0,0,0-3.11,8.153c-.107,2.628-.025,5.264-.02,7.9C-520.6,837.152-520.683,837.5-520.346,837.719Zm-.808-4.034a4.69,4.69,0,0,0-.9-2.707,1.51,1.51,0,0,0-2.536-.02,4.75,4.75,0,0,0,.032,5.552,1.506,1.506,0,0,0,2.429.011A4.551,4.551,0,0,0-521.154,833.685Z" transform="translate(-38.317 -25.302)" fill="#ffb74d"/>
    <path id="Trazado_169764" data-name="Trazado 169764" d="M-539.43,799.035a3.79,3.79,0,0,1,1.329,4.441c-1.524,4.366-3.094,8.715-4.652,13.068a3.151,3.151,0,0,1-1.2,1.666c-1.329-1.106-2.477-2.4-3.7-3.612a5.211,5.211,0,0,1,0-7.584q3.715-3.734,7.45-7.45C-539.981,799.343-539.8,799.05-539.43,799.035Z" transform="translate(-26.358 -11.462)" fill="#fff1db"/>
    <path id="Trazado_169765" data-name="Trazado 169765" d="M-494.594,924.087c-.537.277-.5.824-.5,1.275-.027,3.187-.1,6.377.018,9.56a6.086,6.086,0,0,0,2.272,4.47,5.934,5.934,0,0,1-8.613-4.747c-.121-3.007-.088-6.025,0-9.035a5.81,5.81,0,0,1,4.668-5.17A5.429,5.429,0,0,0-494.594,924.087Z" transform="translate(-62.924 -104.351)" fill="#fff1db"/>
    <path id="Trazado_169766" data-name="Trazado 169766" d="M-557.133,796.113c-.368.015-.55.308-.773.53q-3.729,3.721-7.45,7.45a5.211,5.211,0,0,0,0,7.584c1.225,1.213,2.373,2.506,3.7,3.612a3.8,3.8,0,0,1-5.231-.081c-1.511-1.423-2.976-2.9-4.406-4.4a3.847,3.847,0,0,1,0-5.458q4.44-4.554,8.993-9A3.8,3.8,0,0,1-557.133,796.113Z" transform="translate(-8.655 -8.54)" fill="#fff1db"/>
    <path id="Trazado_169767" data-name="Trazado 169767" d="M-491.944,1037.037c-.361,1.587-1.029,3.091-1.234,4.722a21.284,21.284,0,0,0,.762,9.588c.578,1.714,1.213,3.408,1.831,5.108.17.468.228.689-.456.838a4.158,4.158,0,0,0-2.314,6.946,9.071,9.071,0,0,1-2.872-.139,2.872,2.872,0,0,1-2.044-2.926,2.869,2.869,0,0,1,2.578-2.554c1.359-.152,1.839-.886,1.4-2.162-.79-2.287-1.746-4.521-2.354-6.864a18.449,18.449,0,0,1,.7-11.431c.266-.7.275-1.741.886-2,.518-.217,1.352.308,2.042.515C-492.656,1036.788-492.3,1036.917-491.944,1037.037Z" transform="translate(-65.386 -192.853)" fill="#ffb74d"/>
    <path id="Trazado_169768" data-name="Trazado 169768" d="M-531.707,1093.839c-1.659,0-3.3.05-4.929-.014a2.838,2.838,0,0,1-2.726-2.8,2.825,2.825,0,0,1,2.684-2.808,1.51,1.51,0,0,0,1.522-1.672,37.94,37.94,0,0,1,.184-5.866,10.446,10.446,0,0,1,3.192-5.72.4.4,0,0,1,.454-.158,19.514,19.514,0,0,0,.954,6.142c.453,1.417.986,2.807,1.478,4.212.117.335.235.632-.26.841a5.483,5.483,0,0,0-2.6,7.549A1.106,1.106,0,0,1-531.707,1093.839Z" transform="translate(-33.955 -222.44)" fill="#ffb74d"/>
    <path id="Trazado_169769" data-name="Trazado 169769" d="M-391.4,1093.643a5.753,5.753,0,0,0,.582-4.132,5.188,5.188,0,0,0-2.853-3.579c-.617-.3-.595-.6-.4-1.149a40.468,40.468,0,0,0,2.06-6.68,20.167,20.167,0,0,0,.3-3.56,2.3,2.3,0,0,1,1.095.879,10.275,10.275,0,0,1,2.744,7.015c0,1.288-.006,2.576,0,3.864a1.5,1.5,0,0,0,1.543,1.734,2.827,2.827,0,0,1,2.657,2.745,2.784,2.784,0,0,1-2.575,2.839C-387.928,1093.723-389.62,1093.643-391.4,1093.643Z" transform="translate(-145.025 -222.256)" fill="#ffb74d"/>
    <path id="Trazado_169770" data-name="Trazado 169770" d="M-449.153,826.465c0,2.809-.029,5.618.02,8.426.013.726-.227.87-.878.834-.933-.051-1.872-.032-2.808,0-.416.012-.547-.109-.546-.537q.024-8.778.008-17.556c0-.439.159-.54.562-.532.994.02,1.991.035,2.983-.017.567-.03.673.176.668.7C-449.165,820.672-449.153,823.569-449.153,826.465Z" transform="translate(-99.752 -25.266)" fill="#fefefe"/>
    <path id="Trazado_169771" data-name="Trazado 169771" d="M-548.769,1044.481a9.427,9.427,0,0,1-3.964-3.932,11.559,11.559,0,0,1-1.133-9.6c.087-.274.061-.681.506-.728q4.067,4.04,8.138,8.076c.24.237.366.4.039.688A13.874,13.874,0,0,0-548.769,1044.481Z" transform="translate(-22.423 -188.345)" fill="#fefefe"/>
    <path id="Trazado_169772" data-name="Trazado 169772" d="M-463.919,907.737c1.272,0,2.324-.011,3.376,0,1.678.021,2.735.96,2.736,2.411a2.446,2.446,0,0,1-2.718,2.438c-1.928.031-2.183.3-2.185,2.263a13.591,13.591,0,0,1-.025,1.4.93.93,0,0,1-1.051.927.963.963,0,0,1-1.052-.946c-.04-.67.005-1.345-.022-2.016a1.462,1.462,0,0,0-1.618-1.63,6.61,6.61,0,0,1-1.564-.162A2.3,2.3,0,0,1-469.762,910a2.252,2.252,0,0,1,1.949-2.143A29.727,29.727,0,0,1-463.919,907.737Z" transform="translate(-87.203 -94.625)" fill="#636363"/>
    <path id="Trazado_169773" data-name="Trazado 169773" d="M-473.643,1018.1a26.468,26.468,0,0,1-7.955-1.311c-.908-.29-1.31-.672-1.251-1.7.047-.816.143-1.152,1.035-.927a2.611,2.611,0,0,0,1.392-.008,5.707,5.707,0,0,1,3.86.383,8.775,8.775,0,0,0,6.732-.443,1.915,1.915,0,0,1,1.416-.141,6.772,6.772,0,0,0,3.042.158c.455-.086.538.031.56.456.092,1.762.1,1.748-1.639,2.332A24.031,24.031,0,0,1-473.643,1018.1Z" transform="translate(-77.19 -175.843)" fill="#111e61"/>
    <path id="Trazado_169774" data-name="Trazado 169774" d="M-477.9,849.671c-.338-.219-.249-.566-.25-.877,0-2.632-.088-5.268.02-7.9a12.735,12.735,0,0,1,3.11-8.153c.01,4.859.014,9.717.04,14.576a.6.6,0,0,1-.5.676A5.316,5.316,0,0,0-477.9,849.671Z" transform="translate(-80.759 -37.254)" fill="#ffb74d"/>
    <path id="Trazado_169775" data-name="Trazado 169775" d="M-448.055,1000.626a8.666,8.666,0,0,1-3.25.005c.522-.623.96-1.123,1.37-1.646.21-.268.343-.223.532.015C-448.992,999.518-448.561,1000.019-448.055,1000.626Z" transform="translate(-101.328 -164.306)" fill="#ffb74d"/>
    <path id="Trazado_169776" data-name="Trazado 169776" d="M-403.882,876.626a4.679,4.679,0,0,1-.846,2.614,1.529,1.529,0,0,1-2.592.05,4.78,4.78,0,0,1,.014-5.483,1.515,1.515,0,0,1,2.537.02A4.647,4.647,0,0,1-403.882,876.626Z" transform="translate(-134.325 -68.153)" fill="#0b0909"/>
    <path id="Trazado_169777" data-name="Trazado 169777" d="M-494.465,876.531a4.551,4.551,0,0,1-.973,2.837,1.506,1.506,0,0,1-2.429-.011,4.75,4.75,0,0,1-.032-5.552,1.51,1.51,0,0,1,2.536.02A4.69,4.69,0,0,1-494.465,876.531Z" transform="translate(-65.006 -68.148)" fill="#0b0909"/>
  </g>
</svg>
