<svg xmlns="http://www.w3.org/2000/svg" width="89.997" height="90" viewBox="0 0 89.997 90">
  <g id="Grupo_110604" data-name="Grupo 110604" transform="translate(2202.706 504.688)">
    <path id="Trazado_169840" data-name="Trazado 169840" d="M-2201.631-414.688a2.777,2.777,0,0,1-1.075-2.544c.034-11.306.021-22.612.021-33.919,0-1.643.563-2.2,2.208-2.2,3.69,0,7.38-.021,11.07.019.682.008.812-.189.8-.823-.045-1.786-.02-3.573-.014-5.36a1.729,1.729,0,0,1,1.522-1.923c2.065-.51,4.128-1.03,6.2-1.5a.794.794,0,0,0,.714-.712c2.07-9.785,7.977-15.888,17.653-18.361a11.138,11.138,0,0,1,2.245-.361c.613-.028.86-.239.856-.94-.035-6.385-.021-12.771-.021-19.156,0-1.641.563-2.2,2.213-2.2,6.765,0,13.53.008,20.3-.01a1.838,1.838,0,0,1,1.978,1.119,1.857,1.857,0,0,1-.592,2.131c-1.667,1.646-3.293,3.335-4.987,4.953-.529.5-.434.763.031,1.213,1.64,1.59,3.232,3.229,4.861,4.831a1.936,1.936,0,0,1,.673,2.264c-.386.932-1.167,1.09-2.088,1.086-6-.02-12.007,0-18.011-.023-.639,0-.934.09-.876.829a18.936,18.936,0,0,1,0,2.9c-.054.71.174.957.874,1.02a20.7,20.7,0,0,1,9.041,3.016,22.488,22.488,0,0,1,10.829,15.625.815.815,0,0,0,.743.774c2.073.467,4.134.99,6.194,1.514a1.724,1.724,0,0,1,1.508,1.935c.006,1.816.027,3.633-.013,5.448-.013.581.155.719.722.715,3.6-.027,7.2.022,10.806-.035a2.743,2.743,0,0,1,2.545,1.077v36.383a2.782,2.782,0,0,1-1.23,1.23h-36.377a2.007,2.007,0,0,1-1.259-1.756c.264-1.289.812-1.753,2.089-1.758,1.259,0,2.519,0,3.778,0,4.891,0,9.782-.012,14.673.015.609,0,.827-.132.766-.76a8.623,8.623,0,0,1,0-1.842c.092-.774-.167-.948-.938-.946q-26.49.038-52.98.02a3.335,3.335,0,0,1-.439,0c-.385-.052-.509.1-.494.488a17.1,17.1,0,0,1-.006,2.2c-.063.7.176.854.854.851,6.092-.028,12.184-.017,18.275-.016,1.371,0,1.9.433,2.178,1.758a2.014,2.014,0,0,1-1.259,1.756Zm43.862-38.667h12.911c4.6,0,9.193-.016,13.789.018.67,0,.835-.171.8-.818-.057-1.11-.051-2.226,0-3.337.026-.6-.126-.841-.751-.99q-12.969-3.1-25.922-6.258a3.028,3.028,0,0,0-1.46-.006q-13.04,3.159-26.088,6.288c-.489.117-.655.312-.634.822.044,1.111.059,2.227,0,3.337-.041.731.109.97.922.967C-2175.394-453.369-2166.582-453.356-2157.769-453.356Zm18.892-10.654a19.169,19.169,0,0,0-19.591-14.981,19,19,0,0,0-17.986,14.863c.232.127.446.007.668-.046q8.671-2.086,17.341-4.175a2.98,2.98,0,0,1,1.463-.01q5.476,1.337,10.961,2.642C-2143.678-465.154-2141.334-464.6-2138.877-464.009ZM-2199.17-434q0,7.51,0,15.02c0,.4-.118.8.573.787,3.132-.035,6.265-.025,9.4-.005.477,0,.6-.16.582-.606-.031-.76-.035-1.523,0-2.283.024-.492-.123-.658-.632-.647-1.463.032-2.927.016-4.391.01a1.775,1.775,0,0,1-2.014-1.979q-.012-3.294,0-6.588a1.758,1.758,0,0,1,1.927-1.975q3.337-.015,6.675,0a1.761,1.761,0,0,1,1.938,1.965c.009,1.493.019,2.987-.008,4.479-.009.465.137.614.6.591a16.763,16.763,0,0,1,2.106,0c.634.049.841-.116.838-.8q-.041-11.506,0-23.013c0-.658-.164-.824-.82-.82q-7.992.043-15.984,0c-.693,0-.8.219-.8.842C-2199.159-444.009-2199.17-439-2199.17-434Zm82.946,0c0-4.978-.014-9.955.016-14.932,0-.7-.116-.94-.886-.934q-7.9.058-15.808,0c-.728,0-.916.172-.913.907.03,7,.016,14,.021,20.993,0,.873-.3,2.078.145,2.535.562.577,1.767.11,2.689.2.537.05.705-.124.691-.675-.039-1.492-.023-2.986-.01-4.479a1.728,1.728,0,0,1,1.845-1.878q3.425-.023,6.85,0a1.71,1.71,0,0,1,1.839,1.8q.029,3.469,0,6.939a1.721,1.721,0,0,1-1.833,1.8c-.82.017-1.639,0-2.459.006-.874.01-2.042-.3-2.543.142-.575.507-.092,1.708-.2,2.6-.088.72.243.793.846.787,2.956-.028,5.914-.038,8.87.006.711.011.857-.207.853-.876C-2116.237-424.039-2116.224-429.016-2116.224-433.994Zm-46.745-3.494c0-3.893-.01-7.787.012-11.68,0-.527-.109-.7-.668-.687q-3.379.053-6.76,0c-.539-.008-.681.129-.68.675q.029,11.636,0,23.272c0,.527.109.7.668.687q3.336-.053,6.672,0c.614.011.775-.145.771-.765C-2162.985-429.818-2162.97-433.653-2162.97-437.488Zm10.545-.143c0,3.893.011,7.786-.012,11.68,0,.558.122.742.712.732q3.336-.056,6.673,0c.569.008.726-.141.724-.719q-.03-11.592,0-23.184c0-.558-.121-.742-.712-.732-2.194.037-4.39.042-6.585,0-.653-.013-.823.148-.816.81C-2152.407-445.241-2152.425-441.436-2152.425-437.63Zm11.565-63.532c-5.009,0-9.775.011-14.542-.013-.623,0-.539.345-.538.724,0,3.017.026,6.034-.018,9.05-.01.69.209.8.836.8,4.48-.027,8.961-.012,13.442-.021.207,0,.465.13.654-.161-1.183-1.177-2.371-2.349-3.548-3.532-1.14-1.146-1.136-2,.011-3.158C-2143.389-498.655-2142.2-499.825-2140.86-501.162Zm-37.222,63.627c0,3.192-.012,6.385.008,9.577.006.895-.392,2.093.173,2.6.494.44,1.674.069,2.543.143.669.057.809-.161.807-.81-.026-7-.01-14-.024-21,0-.924.4-2.163-.177-2.682-.509-.455-1.727-.083-2.628-.144-.583-.039-.719.154-.715.721C-2178.07-445.267-2178.082-441.4-2178.082-437.535Zm22.142,0c0-3.192.012-6.384-.008-9.577-.006-.895.392-2.093-.173-2.6-.494-.44-1.674-.069-2.543-.143-.669-.057-.809.161-.806.811.026,7,.01,14,.024,21,0,.924-.4,2.163.177,2.682.509.455,1.728.083,2.628.144.583.039.719-.154.715-.721C-2155.952-429.807-2155.94-433.673-2155.94-437.539Zm18.628,0c0-3.192.012-6.384-.008-9.576-.006-.9.391-2.094-.173-2.6-.493-.44-1.673-.07-2.542-.143-.667-.056-.81.157-.808.809.026,7,.01,14,.024,21,0,.924-.4,2.163.176,2.682.508.455,1.727.084,2.627.144.581.039.721-.15.717-.719C-2137.325-429.806-2137.312-433.672-2137.312-437.538Zm-53,12.3c1.686,0,1.686,0,1.686-1.654,0-1.861,0-1.861-1.829-1.861-1.685,0-1.685,0-1.685,1.654C-2192.141-425.234-2192.141-425.234-2190.312-425.234Zm67.059-1.715c0-1.8,0-1.8-1.8-1.8-1.712,0-1.712,0-1.712,1.715,0,1.8,0,1.8,1.8,1.8C-2123.254-425.234-2123.254-425.234-2123.254-426.949Z" fill="#060607"/>
    <path id="Trazado_169841" data-name="Trazado 169841" d="M-2016.18-132.925h-1.406c-.519-.488-1.1-.939-1.083-1.756.237-1.169.835-1.758,1.786-1.758s1.546.587,1.787,1.758C-2015.085-133.866-2015.661-133.413-2016.18-132.925Z" transform="translate(-140.815 -281.763)" fill="#060607"/>
    <path id="Trazado_169842" data-name="Trazado 169842" d="M-2008.069-127.2c.519-.488,1.095-.941,1.084-1.756h4.335a2.006,2.006,0,0,0,1.259,1.756Z" transform="translate(-148.926 -287.491)" fill="#fff"/>
    <path id="Trazado_169843" data-name="Trazado 169843" d="M-2036.895-128.954c-.014.817.564,1.269,1.083,1.756h-6.678a2.014,2.014,0,0,0,1.259-1.756Z" transform="translate(-122.589 -287.491)" fill="#fff"/>
    <path id="Trazado_169844" data-name="Trazado 169844" d="M-1824.745-125.483a2.782,2.782,0,0,0,1.23-1.23C-1823.515-125.483-1823.515-125.483-1824.745-125.483Z" transform="translate(-289.195 -289.205)" fill="#eaf7fd"/>
    <path id="Trazado_169845" data-name="Trazado 169845" d="M-2100.52-323.507c-8.812,0-17.625-.014-26.437.023-.812,0-.963-.236-.922-.967.062-1.109.046-2.225,0-3.337-.02-.51.146-.7.634-.822q13.049-3.125,26.088-6.288a3.029,3.029,0,0,1,1.46.006q12.959,3.136,25.922,6.258c.625.149.778.394.752.99-.049,1.11-.055,2.227,0,3.337.034.647-.132.822-.8.818-4.6-.034-9.193-.018-13.789-.018Z" transform="translate(-57.249 -129.849)" fill="#eaf7fd"/>
    <path id="Trazado_169846" data-name="Trazado 169846" d="M-2053.348-380.34c-2.457-.587-4.8-1.145-7.144-1.707q-5.482-1.315-10.961-2.642a2.979,2.979,0,0,0-1.463.01q-8.667,2.1-17.341,4.175c-.222.053-.436.173-.668.046a19,19,0,0,1,17.986-14.863A19.168,19.168,0,0,1-2053.348-380.34Z" transform="translate(-85.529 -83.669)" fill="#ffc571"/>
    <path id="Trazado_169847" data-name="Trazado 169847" d="M-2187.7-255.364c0-5.007.011-10.013-.014-15.02,0-.623.105-.846.8-.842q7.992.049,15.984,0c.657,0,.823.162.82.82q-.037,11.506,0,23.013c0,.686-.2.85-.838.8a16.762,16.762,0,0,0-2.106,0c-.46.023-.605-.126-.6-.591.027-1.493.016-2.986.008-4.479a1.761,1.761,0,0,0-1.938-1.966q-3.337-.015-6.675,0a1.759,1.759,0,0,0-1.927,1.975q-.011,3.294,0,6.588a1.776,1.776,0,0,0,2.014,1.979c1.464.007,2.928.023,4.391-.01.51-.011.656.155.632.647-.037.76-.032,1.523,0,2.283.018.446-.1.609-.582.606-3.132-.02-6.265-.03-9.4.005-.69.008-.572-.392-.573-.787Q-2187.7-247.854-2187.7-255.364Zm8.755-12.329c-1.111,0-2.221-.009-3.332,0a1.747,1.747,0,0,0-1.906,1.9q-.016,3.376,0,6.752a1.743,1.743,0,0,0,1.923,1.886q3.332.016,6.664,0a1.756,1.756,0,0,0,1.951-1.947q.014-3.332,0-6.665a1.762,1.762,0,0,0-1.969-1.93C-2176.719-267.7-2177.83-267.693-2178.94-267.693Z" transform="translate(-11.475 -178.632)" fill="#ff9800"/>
    <path id="Trazado_169848" data-name="Trazado 169848" d="M-1892.04-255.369c0,4.977-.012,9.955.015,14.932,0,.669-.142.887-.854.876-2.956-.044-5.913-.034-8.87-.006-.6.006-.934-.067-.846-.787.108-.889-.375-2.089.2-2.6.5-.442,1.669-.132,2.543-.142.82-.009,1.64.011,2.459-.006a1.721,1.721,0,0,0,1.833-1.8q.029-3.469,0-6.939a1.711,1.711,0,0,0-1.839-1.8q-3.425-.023-6.85,0a1.728,1.728,0,0,0-1.845,1.878c-.014,1.493-.029,2.987.01,4.479.014.551-.154.725-.691.675-.922-.086-2.127.381-2.69-.2-.446-.458-.144-1.662-.144-2.535,0-7,.01-14-.021-20.993,0-.735.185-.912.913-.908q7.9.05,15.808,0c.77-.006.891.239.886.934C-1892.053-265.324-1892.04-260.346-1892.04-255.369Zm-8.812-1.786c1.14,0,2.28.011,3.419,0a1.732,1.732,0,0,0,1.873-1.848q.023-3.42,0-6.84a1.727,1.727,0,0,0-1.868-1.851q-3.375-.02-6.751,0a1.741,1.741,0,0,0-1.917,1.89q-.018,3.376,0,6.752a1.749,1.749,0,0,0,1.912,1.9C-1903.073-257.145-1901.962-257.154-1900.851-257.154Z" transform="translate(-224.185 -178.625)" fill="#ff9800"/>
    <path id="Trazado_169849" data-name="Trazado 169849" d="M-2102.241-146.2h-4.335c-.275-1.325-.807-1.758-2.178-1.758-6.092,0-12.183-.012-18.275.016-.678,0-.918-.152-.854-.851a17.017,17.017,0,0,0,.006-2.2c-.015-.387.109-.54.494-.488a3.336,3.336,0,0,0,.439,0q26.491,0,52.98-.02c.771,0,1.03.172.938.946a8.592,8.592,0,0,0,0,1.842c.062.629-.157.764-.766.76-4.891-.027-9.782-.015-14.673-.015-1.26,0-2.519,0-3.778,0-1.277,0-1.825.469-2.089,1.758h-4.335q-.362-1.756-1.787-1.758C-2101.406-147.956-2102-147.368-2102.241-146.2Z" transform="translate(-57.242 -270.246)" fill="#eaf7fd"/>
    <path id="Trazado_169850" data-name="Trazado 169850" d="M-2059.888-258.845c0,3.835-.015,7.669.016,11.5,0,.62-.157.776-.771.765q-3.335-.059-6.672,0c-.559.009-.669-.16-.668-.687q.026-11.636,0-23.272c0-.547.141-.683.68-.675q3.38.048,6.76,0c.559-.009.672.16.668.687C-2059.9-266.632-2059.888-262.738-2059.888-258.845Z" transform="translate(-103.082 -178.642)" fill="#111e61"/>
    <path id="Trazado_169851" data-name="Trazado 169851" d="M-1988.67-259c0-3.805.018-7.611-.017-11.416-.006-.663.163-.823.816-.81,2.194.044,4.39.039,6.585,0,.591-.01.713.174.712.732q-.026,11.592,0,23.184c0,.578-.155.727-.724.719q-3.336-.05-6.673,0c-.59.01-.715-.174-.712-.732C-1988.658-251.211-1988.67-255.1-1988.67-259Z" transform="translate(-163.756 -178.633)" fill="#111e61"/>
    <path id="Trazado_169852" data-name="Trazado 169852" d="M-1988.561-489.717c-1.344,1.338-2.529,2.508-3.7,3.688-1.147,1.153-1.151,2.012-.011,3.158,1.177,1.183,2.365,2.355,3.548,3.532-.189.29-.447.16-.654.161-4.481.009-8.961-.006-13.442.021-.626,0-.846-.107-.836-.8.044-3.016.02-6.034.018-9.05,0-.38-.085-.727.538-.724C-1998.336-489.706-1993.569-489.717-1988.561-489.717Z" transform="translate(-152.299 -11.445)" fill="#ff9800"/>
    <path id="Trazado_169853" data-name="Trazado 169853" d="M-2098.26-259.166c0-3.866.012-7.731-.013-11.6,0-.567.132-.76.715-.721.9.061,2.12-.311,2.628.144.58.519.175,1.758.177,2.682.014,7,0,14,.024,21,0,.65-.138.867-.806.81-.869-.074-2.049.3-2.543-.143-.565-.5-.167-1.7-.173-2.6C-2098.272-252.781-2098.26-255.973-2098.26-259.166Z" transform="translate(-79.823 -178.369)" fill="#eaf7fd"/>
    <path id="Trazado_169854" data-name="Trazado 169854" d="M-2015.447-259.146c0,3.866-.012,7.731.013,11.6,0,.567-.132.76-.715.721-.9-.061-2.12.311-2.628-.144-.58-.519-.175-1.758-.177-2.682-.014-7,0-14-.024-21,0-.649.137-.867.807-.811.869.074,2.049-.3,2.543.143.566.5.168,1.7.173,2.6C-2015.434-265.531-2015.447-262.338-2015.447-259.146Z" transform="translate(-140.493 -178.393)" fill="#eaf7fd"/>
    <path id="Trazado_169855" data-name="Trazado 169855" d="M-1936.131-259.143c0,3.866-.012,7.731.013,11.6,0,.569-.135.758-.717.719-.9-.06-2.12.311-2.628-.144-.578-.519-.174-1.758-.176-2.682-.014-7,0-14-.024-21,0-.652.142-.865.808-.809.869.073,2.049-.3,2.543.144.564.5.167,1.7.173,2.6C-1936.118-265.528-1936.131-262.336-1936.131-259.143Z" transform="translate(-201.182 -178.394)" fill="#eaf7fd"/>
    <path id="Trazado_169856" data-name="Trazado 169856" d="M-2155.891-177.829c-1.829,0-1.829,0-1.829-1.861,0-1.654,0-1.654,1.685-1.654,1.829,0,1.829,0,1.829,1.861C-2154.206-177.829-2154.206-177.829-2155.891-177.829Z" transform="translate(-34.421 -247.405)" fill="#eaf7fd"/>
    <path id="Trazado_169857" data-name="Trazado 169857" d="M-1875.853-179.544c0,1.715,0,1.715-1.712,1.715-1.8,0-1.8,0-1.8-1.8,0-1.715,0-1.715,1.712-1.715C-1875.853-181.344-1875.853-181.344-1875.853-179.544Z" transform="translate(-247.401 -247.405)" fill="#eaf7fd"/>
    <path id="Trazado_169858" data-name="Trazado 169858" d="M-2167.463-256.194c1.11,0,2.221-.006,3.332,0a1.762,1.762,0,0,1,1.969,1.93q.015,3.332,0,6.665a1.756,1.756,0,0,1-1.951,1.947q-3.332.014-6.664,0a1.743,1.743,0,0,1-1.923-1.886q-.019-3.376,0-6.752a1.747,1.747,0,0,1,1.906-1.9C-2169.684-256.2-2168.574-256.194-2167.463-256.194Zm-1.726,5.2c0,1.829,0,1.829,1.861,1.829,1.653,0,1.653,0,1.653-1.686,0-1.829,0-1.829-1.861-1.829C-2169.189-252.679-2169.189-252.679-2169.189-250.993Z" transform="translate(-22.952 -190.131)" fill="#060607"/>
    <path id="Trazado_169859" data-name="Trazado 169859" d="M-1889.1-245.655c-1.111,0-2.221.009-3.332,0a1.749,1.749,0,0,1-1.912-1.9q-.018-3.376,0-6.752a1.741,1.741,0,0,1,1.917-1.89q3.375-.016,6.751,0a1.727,1.727,0,0,1,1.868,1.851q.022,3.42,0,6.84a1.732,1.732,0,0,1-1.873,1.848C-1886.824-245.644-1887.964-245.655-1889.1-245.655Zm-.021-3.515c1.8,0,1.8,0,1.8-1.8,0-1.716,0-1.716-1.711-1.716-1.8,0-1.8,0-1.8,1.8C-1890.836-249.17-1890.836-249.17-1889.125-249.17Z" transform="translate(-235.932 -190.124)" fill="#060607"/>
    <path id="Trazado_169860" data-name="Trazado 169860" d="M-2157.72-239.528c0-1.686,0-1.686,1.653-1.686,1.861,0,1.861,0,1.861,1.829,0,1.686,0,1.686-1.653,1.686C-2157.72-237.7-2157.72-237.7-2157.72-239.528Z" transform="translate(-34.421 -201.596)" fill="#eaf7fd"/>
    <path id="Trazado_169861" data-name="Trazado 169861" d="M-1877.656-237.7c-1.711,0-1.711,0-1.711-1.716,0-1.8,0-1.8,1.8-1.8,1.711,0,1.711,0,1.711,1.716C-1875.853-237.7-1875.853-237.7-1877.656-237.7Z" transform="translate(-247.401 -201.596)" fill="#eaf7fd"/>
  </g>
</svg>
