<svg xmlns="http://www.w3.org/2000/svg" width="100" height="86.048" viewBox="0 0 100 86.048">
  <g id="Grupo_85681" data-name="Grupo 85681" transform="translate(-218.975 -595.535)">
    <path id="Trazado_149444" data-name="Trazado 149444" d="M219.035,693.01v-6.627c.059-.069.158-.13.173-.208a10.607,10.607,0,0,1,6.613-8.049,112.051,112.051,0,0,1,13.986-5.206c.295-.085.672-.061.865-.353a3.661,3.661,0,0,0-.558-2.928,24.18,24.18,0,0,1-2.832-2.533c-2.547-2.663-4.468-5.643-4.556-9.482-.011-.493-.29-.436-.617-.507a4.518,4.518,0,0,1-3.7-3.307,7.325,7.325,0,0,1,.213-4.946,2.943,2.943,0,0,0,.236-1.223c-.007-2.4,0-4.807,0-7.211a5.653,5.653,0,0,1,3.548-5.718.924.924,0,0,0,.537-.619c1.316-3.779,3.78-5.506,7.853-5.511q11.717-.012,23.434,0a6.79,6.79,0,0,1,1.161.1,1.613,1.613,0,0,1,1.464,1.581,17.424,17.424,0,0,1-.292,5.421,1.286,1.286,0,0,0,.033,1.2,5.94,5.94,0,0,1,.885,3.518c-.028,2.389-.008,4.779-.008,7.177.263-.026.2-.2.238-.3a43.954,43.954,0,0,1,4.9-10.409c2.721-4.035,6.091-7.323,10.714-9.135a2.08,2.08,0,0,0,.891-.714,8.68,8.68,0,0,1,12.452-1.481,27.491,27.491,0,0,0,5.561,3.735,7.208,7.208,0,0,1,.817.526c4.931,3.461,8.045,8.29,10.283,13.745a68.065,68.065,0,0,1,4.7,20.726,4.725,4.725,0,0,1-3.391,5.15,28.342,28.342,0,0,1-3.053.953c-.972.215-1.279.674-1.211,1.666.094,1.363-.3,1.8-1.5,2.091-1.2-.309-1.509-.716-1.512-2.1-.007-3.893.006-7.787-.021-11.681,0-.279.34-.913-.393-.822-.448.056-1.066.009-1.007.843a9.125,9.125,0,0,1-.633,3.61,14.576,14.576,0,0,1-6.175,7.752c-.307.194-.713.284-.8.766a2.379,2.379,0,0,0,1.747,2.862,76.922,76.922,0,0,1,8.774,2.461c.289.128.573.273.869.382,3.208,1.183,6,2.86,7.64,6.047a28.356,28.356,0,0,1,1.665,4.463v17.933c-.914,2.254-2.628,2.948-4.995,2.945q-45.005-.067-90.01,0c-2.367,0-4.081-.691-4.995-2.945v-7.8a1.781,1.781,0,0,1,1.355-.986c1.133.136,1.566.582,1.572,1.677.011,1.884,0,3.768.006,5.652,0,1.051.343,1.406,1.39,1.426,1.106.021,2.218-.055,3.318.024.941.068,1.151-.305,1.135-1.173-.048-2.6-.031-5.2-.008-7.8a1.408,1.408,0,0,1,1.837-1.525,1.571,1.571,0,0,1,1.106,1.74c0,2.631.014,5.262-.013,7.893-.006.615.146.855.81.854q16.6-.026,33.2,0c.65,0,.832-.219.825-.849-.03-2.436-.006-4.872-.017-7.308a4.136,4.136,0,0,1,.2-1.436,1.329,1.329,0,0,1,1.524-.934c.883.087,1.363.74,1.369,1.921.012,2.566.023,5.132-.009,7.7-.008.66.16.925.867.9,1.3-.051,2.605-.059,3.9,0,.767.036.913-.256.91-.955-.026-5.944-.019-11.889-.016-17.833a7.087,7.087,0,0,0-.4-2.281c-1.272-3.781-4.675-4.787-7.979-6.2.258.95.477,1.723.675,2.5a2.492,2.492,0,0,1-1.247,3.148c-.686.435-1.367.878-2.056,1.308-2.5,1.562-2.525,1.563-2.215,4.458a2.483,2.483,0,0,1-.909,2.415q-5.437,4.276-10.883,8.539a1.666,1.666,0,0,1-2.3-.038q-5.318-4.191-10.657-8.354a2.346,2.346,0,0,1-1.067-1.775,16.493,16.493,0,0,1,.1-2.914,1.082,1.082,0,0,0-.6-1.258q-1.981-1.245-3.93-2.539a2.287,2.287,0,0,1-1.081-2.923c.222-.8.427-1.6.678-2.547a27.537,27.537,0,0,0-4.394,1.947,7.4,7.4,0,0,0-3.893,5.414,35.9,35.9,0,0,0-.169,5.441c-.04,1.187-.38,1.6-1.578,1.809A1.877,1.877,0,0,1,219.035,693.01Zm33.4,2.339c1.612-.974,2.924-2.357,4.5-3.361a2.452,2.452,0,0,0,1.141-2.716c-.033-.256-.086-.51-.122-.766a2.968,2.968,0,0,1,1.488-3.3c1.233-.719,2.407-1.536,3.607-2.311.3-.2.62-.374.488-.834-.338-1.182-.614-2.383-1.012-3.544-.282-.824-1.187-.664-1.826-.859-.512-.155-.532.437-.684.768-1.878,4.094-3.775,8.181-5.62,12.29a28.344,28.344,0,0,0-1.957,4.633l-.1.087c.022,0,.053,0,.063-.009A.264.264,0,0,0,252.433,695.349Zm-8.4.191.061.036-.068-.028a1.352,1.352,0,0,0-.187-.742q-3.741-8.173-7.489-16.342c-.154-.333-.194-.986-.784-.789-.654.218-1.566.051-1.822,1.017-.289,1.094-.566,2.192-.908,3.269a.623.623,0,0,0,.326.863,22.973,22.973,0,0,0,2.709,1.714c2.29.988,2.813,2.749,2.479,4.983-.038.256-.074.512-.125.766a1,1,0,0,0,.422,1.095C240.456,692.754,242.243,694.151,244.037,695.539Zm29.507-21.405c-1.2-.3-1.564-.693-1.459-2.105.076-1.03-.317-1.423-1.245-1.646a28.634,28.634,0,0,1-3.239-1.006,4.538,4.538,0,0,1-3.182-4.135,19.626,19.626,0,0,1,.245-3.584c.182-1.6.429-3.19.654-4.823a2.669,2.669,0,0,1-.633.164c-.929-.021-1.069.56-1.081,1.3a8.112,8.112,0,0,1-.5,2.463,18.956,18.956,0,0,1-6.347,8.442,2.748,2.748,0,0,0-1.207,2.512,1.142,1.142,0,0,0,.98,1.238,106,106,0,0,1,13.619,5.057,3.223,3.223,0,0,0,3.4-.189c.43-.136.865-.26,1.291-.41a52.431,52.431,0,0,1,7.22-1.954,2.324,2.324,0,0,0,1.979-1.88c.26-1.087-.309-1.59-1.134-2.149a13.767,13.767,0,0,1-6.424-11.1c-.049-.9-.675-.791-1.114-.815-.566-.032-.3.532-.3.816-.02,3.931-.009,7.862-.017,11.793C275.057,673.411,274.727,673.826,273.544,674.134Zm18.736,32.494v0c4.748,0,9.5-.006,14.244.008.521,0,.816-.02.811-.7-.033-4.576-.02-9.152-.012-13.729a1.414,1.414,0,0,0-.348-.976,7.275,7.275,0,0,0-5.4-2.706,8.147,8.147,0,0,0-6.428,2.9,3.918,3.918,0,0,1-5.669.059c-.308-.289-.606-.588-.909-.882a7.487,7.487,0,0,0-10.714.354,2.043,2.043,0,0,0-.579,1.477q.037,6.621,0,13.242c-.006.745.159.988.956.981C282.914,706.607,287.6,706.628,292.28,706.628Zm-43.74-63.089v-.009c-2.506,0-5.013.028-7.519-.019a.89.89,0,0,0-1.057.788,6.042,6.042,0,0,1-3.7,4.224.878.878,0,0,0-.648.989c.029,2.566.007,5.133.024,7.7a8.831,8.831,0,0,0,1.476,4.96,21.937,21.937,0,0,0,5.72,5.794c3.629,2.53,7.23,2.482,10.856-.086a23.142,23.142,0,0,0,5.23-5.208,8.918,8.918,0,0,0,1.8-5.438c-.009-3.021.009-6.043-.049-9.063a4.525,4.525,0,0,0-4.812-4.629C253.423,643.532,250.982,643.539,248.541,643.539Zm28.737,43.845c.367.03.578-.2.823-.348a10.367,10.367,0,0,1,12.92,1.81c1.091,1.161,1.456,1.158,2.6-.025a10.348,10.348,0,0,1,13.1-1.682c2.309,1.427,3.756,3.265,3.6,6.271-.207,4.083-.036,8.184-.067,12.277-.005.688.1.993.888.943,1.134-.074,2.277-.014,3.417-.02,1.276-.007,1.539-.269,1.54-1.539,0-4.808.008-9.616-.008-14.424a7.606,7.606,0,0,0-.2-1.93c-.81-3.015-2.216-5.528-5.3-6.882a52.224,52.224,0,0,0-10.706-3.441,5.081,5.081,0,0,1-4.357-4.139c-.112-.523-.3-.608-.788-.426a9.728,9.728,0,0,1-7.041-.006c-.6-.229-.7,0-.8.5a5.022,5.022,0,0,1-2.169,3.226,8.263,8.263,0,0,1-3.113,1.034,42.038,42.038,0,0,0-7.214,2.182A10.875,10.875,0,0,1,277.278,687.384Zm25.671-31.16h.111q0-2.046,0-4.093c0-1.574-.081-1.706-1.7-1.77a16.457,16.457,0,0,1-9.633-3.458.724.724,0,0,0-1.081.051,13.912,13.912,0,0,1-2.983,1.82,17.591,17.591,0,0,1-6.867,1.6c-1.3.044-1.438.255-1.436,1.528,0,2.631.014,5.263.015,7.894a10.019,10.019,0,0,0,.558,3.437c1.466,4.055,4.616,6.293,8.472,7.718a6.944,6.944,0,0,0,3.615.515,14.765,14.765,0,0,0,6.269-2.737,10.4,10.4,0,0,0,4.622-7.255A44.508,44.508,0,0,0,302.949,656.224Zm-51.394-24.642v0c-3.805,0-7.611-.02-11.417.007a4.329,4.329,0,0,0-4.463,3.905,1.892,1.892,0,0,1-1.662,1.829,2.488,2.488,0,0,0-2.133,2.717c-.028,1.4-.007,2.792-.007,4.188,0,1.809,0,1.809,1.832,1.8a3.4,3.4,0,0,0,3.487-2.656c.548-2.079,1.45-2.784,3.58-2.785q7.562,0,15.125,0c4.948,0,8.067-3.166,8.075-8.112,0-.719-.162-.922-.9-.915C259.231,631.6,255.393,631.582,251.554,631.582Zm39.68,4.1c-.618,0-1.237.021-1.854,0a13.386,13.386,0,0,0-11.391,5.258,12.481,12.481,0,0,0-2.9,7.575c-.008.214-.128.7.2.6.7-.215,1.549.135,2.127-.447a4.648,4.648,0,0,1,3.382-1.246,13.572,13.572,0,0,0,8.944-3.528c1.262-1.124,1.689-1.131,2.919-.022a13.438,13.438,0,0,0,8.936,3.538,4.209,4.209,0,0,1,2.769.755,4.069,4.069,0,0,0,2.157.869c.836.148.853-.109.79-.733-.538-5.332-3.357-9.057-8.089-11.423A15.474,15.474,0,0,0,291.234,635.685Zm-8.843-4.062a1.057,1.057,0,0,0-.3,0,3.348,3.348,0,0,0-.333.2,21.085,21.085,0,0,0-7.156,7.429c-4.676,7.859-6.532,16.536-7.232,25.525a1.766,1.766,0,0,0,1.385,1.881c.829.273,1.679.492,2.492.805.751.29.877.062.873-.681-.031-5.647-.018-11.295-.016-16.942a17.8,17.8,0,0,1,.374-4.152,16.286,16.286,0,0,1,9.3-11.5.884.884,0,0,0,.616-1.027C282.352,632.655,282.391,632.139,282.391,631.623Zm17.715-.142a5.857,5.857,0,0,1-.008.993c-.214,1.09.268,1.584,1.256,2.083a15.963,15.963,0,0,1,8.367,10.218,24.47,24.47,0,0,1,.638,6.945c0,5.034.015,10.068-.014,15.1,0,.718.141.9.839.64.816-.309,1.669-.519,2.494-.806a1.868,1.868,0,0,0,1.389-2.166c-.206-2.064-.372-4.133-.719-6.182a56.671,56.671,0,0,0-5.45-17.216A23.071,23.071,0,0,0,300.106,631.481Zm-8.942,1.28a25.847,25.847,0,0,1,5.443.182c.654.149.55-.315.546-.7a6.008,6.008,0,0,0-5.92-5.681,6.1,6.1,0,0,0-5.976,5.871c0,.441.144.605.561.51A24.772,24.772,0,0,1,291.164,632.762Zm-42.986,64.329c.578-1.273,1.057-2.369,1.575-3.446a2.251,2.251,0,0,0,.2-1.483c-.332-1.814-.591-3.643-.838-5.471-.071-.525-.081-.917-.811-.9-.643.014-1,.1-1.09.834-.231,1.83-.547,3.649-.8,5.476a2.012,2.012,0,0,0,.01,1.154C246.977,694.482,247.543,695.708,248.178,697.091Zm4.352-25.16c-.422.14-.812.288-1.213.4a11.391,11.391,0,0,1-6.875-.211c-.259-.088-.665-.428-.729.1-.073.6-.2,1.244.456,1.761,1.217.966,2.369,2.016,3.524,3.057.353.319.578.347.949,0a37.423,37.423,0,0,1,3.013-2.606A2.079,2.079,0,0,0,252.53,671.931Zm-11.563,3.76c-.339.131-.908.361-1.484.569-.5.18-.631.441-.384.954.644,1.339,1.244,2.7,1.857,4.053.177.391.38.55.816.276,1.122-.707,2.266-1.381,3.406-2.058.3-.181.463-.309.095-.62-1.162-.98-2.3-1.988-3.445-2.988A.871.871,0,0,0,240.967,675.691Zm14.42,0c-.428-.064-.621-.049-.779.089q-1.756,1.527-3.509,3.059c-.317.276-.22.486.1.674,1.111.662,2.224,1.323,3.328,2,.424.258.686.209.9-.278.621-1.42,1.277-2.824,1.92-4.235.094-.207.232-.415-.1-.549C256.551,676.17,255.866,675.885,255.387,675.69ZM264.5,639.8a10.33,10.33,0,0,1-2.881,2.39c-.365.2-.471.355-.118.692a6.427,6.427,0,0,1,1.718,2.762c.161.516.6.391.961.445s.318-.228.318-.449C264.5,643.776,264.5,641.914,264.5,639.8Zm-.83,14.369a1.771,1.771,0,0,0,1.547-1.833c.038-1.115.258-2.314-.913-3.085a.478.478,0,0,0-.086-.045c-.34-.135-.557-.109-.553.344C263.68,651.063,263.674,652.581,263.674,654.165Zm-30.978.028c0-1.587-.017-3.109.009-4.63.009-.538-.253-.537-.586-.356a1.71,1.71,0,0,0-.974,1.471c-.025.584-.037,1.17-.007,1.753A1.786,1.786,0,0,0,232.7,654.193Zm73.336.129h-.02c0,.485-.019.971.008,1.455.015.267-.179.663.145.778.38.134.652-.216.871-.49a4.414,4.414,0,0,0,.053-3.448,2.011,2.011,0,0,0-.327-.353c-.17-.151-.376-.308-.6-.211s-.12.342-.123.523C306.025,653.158,306.032,653.74,306.032,654.322Zm-29.6-2.366c-.9.231-1.349.719-1.341,1.469.011,1.051-.4,2.238.728,3.022.388.269.63.244.62-.338C276.416,654.756,276.433,653.4,276.433,651.956Zm-32.417,36.09c.181-1.208.3-2.192.485-3.164a1.2,1.2,0,0,0-.293-1.156c-.318-.269-.637.169-.873.355-.3.235-1.081.179-.694.962C243.093,685.957,243.494,686.9,244.016,688.046Zm8.307,0c.514-1.115.913-1.958,1.289-2.811.116-.263.451-.573-.014-.822s-.9-.812-1.432-.705c-.315.063-.39.683-.325,1.118C251.987,685.811,252.136,686.794,252.324,688.047Zm-4.158-5.23c.957,0,1.27-.149,1.289-.613.01-.235-1.056-1.064-1.307-.941-.459.226-1.19.319-1.213.911C246.905,682.989,247.643,682.8,248.166,682.817Z" transform="translate(-0.06 -28.016)" fill="#0b0a09"/>
    <path id="Trazado_149447" data-name="Trazado 149447" d="M219.035,979.053a1.877,1.877,0,0,0,1.357.984q0,1.939,0,3.878a1.781,1.781,0,0,0-1.355.986Z" transform="translate(-0.06 -314.059)" fill="#fff"/>
    <path id="Trazado_149448" data-name="Trazado 149448" d="M225.972,927.706q0-1.939,0-3.878c1.2-.212,1.538-.623,1.578-1.81a35.9,35.9,0,0,1,.169-5.441,7.4,7.4,0,0,1,3.893-5.414,27.543,27.543,0,0,1,4.394-1.947c-.251.945-.456,1.748-.678,2.547a2.287,2.287,0,0,0,1.081,2.923q1.95,1.293,3.93,2.539a1.082,1.082,0,0,1,.6,1.258,16.492,16.492,0,0,0-.1,2.914,2.346,2.346,0,0,0,1.067,1.775q5.334,4.17,10.657,8.354a1.666,1.666,0,0,0,2.3.038q5.44-4.272,10.883-8.539a2.483,2.483,0,0,0,.909-2.416c-.31-2.9-.286-2.9,2.215-4.458.689-.43,1.37-.872,2.056-1.308a2.492,2.492,0,0,0,1.248-3.148c-.2-.778-.418-1.551-.675-2.5,3.3,1.418,6.706,2.424,7.979,6.2a7.089,7.089,0,0,1,.4,2.281c0,5.944-.01,11.889.016,17.833,0,.7-.143.991-.91.955-1.3-.062-2.6-.053-3.9,0-.707.027-.875-.238-.867-.9.031-2.566.021-5.132.009-7.7-.006-1.182-.486-1.834-1.369-1.921a1.33,1.33,0,0,0-1.524.934,4.138,4.138,0,0,0-.2,1.437c.012,2.436-.013,4.873.017,7.308.008.629-.175.849-.825.849q-16.6-.023-33.2,0c-.664,0-.817-.239-.81-.854.028-2.631.008-5.262.013-7.893a1.571,1.571,0,0,0-1.105-1.74,1.408,1.408,0,0,0-1.837,1.525c-.022,2.6-.039,5.2.008,7.8.016.867-.194,1.241-1.135,1.172-1.1-.079-2.212,0-3.318-.024-1.047-.02-1.386-.375-1.39-1.426-.008-1.884.005-3.768-.006-5.652C227.538,928.288,227.1,927.842,225.972,927.706Z" transform="translate(-5.641 -257.85)" fill="#111e61"/>
    <path id="Trazado_149449" data-name="Trazado 149449" d="M532.125,974.133c-4.683,0-9.366-.021-14.049.02-.8.007-.961-.236-.956-.981q.051-6.62,0-13.242a2.043,2.043,0,0,1,.578-1.477,7.487,7.487,0,0,1,10.714-.354c.3.294.6.593.909.882a3.918,3.918,0,0,0,5.669-.059,8.147,8.147,0,0,1,6.428-2.9,7.275,7.275,0,0,1,5.4,2.706,1.414,1.414,0,0,1,.348.976c-.007,4.576-.02,9.152.012,13.729,0,.68-.29.7-.811.7-4.748-.014-9.5-.008-14.244-.008Z" transform="translate(-239.904 -295.521)" fill="#ddebf3"/>
    <path id="Trazado_149450" data-name="Trazado 149450" d="M316.825,725.735c2.441,0,4.882-.007,7.324,0a4.525,4.525,0,0,1,4.812,4.629c.057,3.02.04,6.042.049,9.063a8.918,8.918,0,0,1-1.8,5.438,23.14,23.14,0,0,1-5.23,5.208c-3.626,2.568-7.226,2.616-10.856.086a21.937,21.937,0,0,1-5.72-5.794,8.832,8.832,0,0,1-1.476-4.96c-.017-2.566.005-5.133-.024-7.7a.878.878,0,0,1,.648-.989,6.041,6.041,0,0,0,3.7-4.224.89.89,0,0,1,1.057-.788c2.506.047,5.013.019,7.519.019Zm-.33,22.211a6.8,6.8,0,0,0,5.679-2.678,1.468,1.468,0,0,0-.117-2.164,1.442,1.442,0,0,0-2.133.329c-1.451,2.037-5.354,2.116-6.926.021a1.439,1.439,0,0,0-2.129-.349,1.519,1.519,0,0,0-.068,2.245A6.969,6.969,0,0,0,316.5,747.946Zm-1.8-10.259h-.01c0,.26.01.52,0,.779-.111,2.38,1.312,2.972,3.328,2.636a1.307,1.307,0,0,0,1.117-1.183,1.2,1.2,0,0,0-.749-1.433c-.766-.227-.815-.681-.762-1.3a7.212,7.212,0,0,0,0-.973,1.441,1.441,0,0,0-1.4-1.543,1.467,1.467,0,0,0-1.511,1.462C314.655,736.645,314.7,737.168,314.7,737.687Zm10.387-3.7c-.017-.344-.019-.636-.049-.926a1.343,1.343,0,0,0-1.334-1.3,1.319,1.319,0,0,0-1.457,1.033,3.775,3.775,0,0,0,.047,2.389,1.433,1.433,0,0,0,2.724-.281A7.112,7.112,0,0,0,325.083,733.987Zm-14.341-.089h.011c0-.194.008-.388,0-.582a1.46,1.46,0,1,0-2.913-.012,6.6,6.6,0,0,0,.037,1.547,1.445,1.445,0,0,0,2.859-.082A5.444,5.444,0,0,0,310.743,733.9Z" transform="translate(-68.344 -110.212)" fill="#f5c9a3"/>
    <path id="Trazado_149451" data-name="Trazado 149451" d="M505.3,894.038a10.874,10.874,0,0,0-2.873-6.623,42.033,42.033,0,0,1,7.214-2.182,8.263,8.263,0,0,0,3.113-1.034,5.022,5.022,0,0,0,2.169-3.226c.1-.5.194-.725.8-.5a9.728,9.728,0,0,0,7.041.006c.489-.182.676-.1.788.426a5.081,5.081,0,0,0,4.357,4.139,52.223,52.223,0,0,1,10.706,3.441c3.083,1.354,4.49,3.867,5.3,6.882a7.611,7.611,0,0,1,.2,1.93c.016,4.808.01,9.616.008,14.424,0,1.27-.264,1.532-1.54,1.539-1.139.006-2.282-.054-3.417.02-.784.051-.893-.255-.888-.943.031-4.093-.14-8.194.067-12.277.153-3.005-1.3-4.844-3.6-6.271a10.348,10.348,0,0,0-13.1,1.682c-1.143,1.183-1.508,1.186-2.6.025a10.366,10.366,0,0,0-12.92-1.81C505.876,893.837,505.665,894.068,505.3,894.038Z" transform="translate(-228.08 -234.67)" fill="#f5c9a3"/>
    <path id="Trazado_149452" data-name="Trazado 149452" d="M551.379,751.484a44.5,44.5,0,0,1-.037,5.254,10.4,10.4,0,0,1-4.622,7.255,14.764,14.764,0,0,1-6.269,2.737,6.945,6.945,0,0,1-3.615-.515c-3.856-1.425-7.006-3.664-8.472-7.718a10.019,10.019,0,0,1-.558-3.437c0-2.631-.012-5.262-.015-7.894,0-1.273.137-1.484,1.436-1.528a17.594,17.594,0,0,0,6.866-1.6,13.907,13.907,0,0,0,2.983-1.82.725.725,0,0,1,1.081-.051,16.456,16.456,0,0,0,9.633,3.458c1.619.065,1.7.2,1.7,1.77q0,2.046,0,4.093Zm-12.046,11.627A7.065,7.065,0,0,0,545,760.737c.734-.916.759-1.7.073-2.324-.667-.6-1.5-.471-2.282.364a4.219,4.219,0,0,1-6.284.008c-.785-.832-1.62-.967-2.281-.367s-.648,1.453.094,2.334A6.74,6.74,0,0,0,539.333,763.111Zm-1.376-9.89h-.022c0,.357,0,.714,0,1.071a2.334,2.334,0,0,0,3.423,2.232c1.051-.436,1.34-1.924.348-2.4s-.812-1.129-.837-1.861a3.882,3.882,0,0,0-.109-.861,1.421,1.421,0,0,0-2.8.259C537.939,752.183,537.957,752.7,537.957,753.221Zm-3.7-3.582h.016c0-.193,0-.387,0-.58a1.407,1.407,0,0,0-1.331-1.5,1.435,1.435,0,0,0-1.568,1.373,4.068,4.068,0,0,0,.112,1.913,1.429,1.429,0,0,0,2.766-.331A8.189,8.189,0,0,0,534.261,749.639Zm10.757-.053h-.006a6.951,6.951,0,0,0,.006.873,1.389,1.389,0,0,0,1.413,1.335,1.329,1.329,0,0,0,1.448-1.173,5.879,5.879,0,0,0-.008-1.93,1.321,1.321,0,0,0-1.469-1.142,1.38,1.38,0,0,0-1.378,1.263A4.718,4.718,0,0,0,545.017,749.587Z" transform="translate(-248.49 -123.276)" fill="#f5c9a3"/>
    <path id="Trazado_149453" data-name="Trazado 149453" d="M304.393,664.578c3.838,0,7.676.022,11.514-.019.741-.008.9.2.9.915-.008,4.946-3.127,8.107-8.075,8.112q-7.563.008-15.125,0c-2.13,0-3.031.706-3.58,2.785a3.4,3.4,0,0,1-3.487,2.656c-1.832.007-1.832.007-1.832-1.8,0-1.4-.021-2.792.007-4.187a2.488,2.488,0,0,1,2.133-2.717,1.892,1.892,0,0,0,1.662-1.829,4.329,4.329,0,0,1,4.463-3.905c3.805-.027,7.611-.008,11.417-.008Z" transform="translate(-52.898 -61.011)" fill="#636363"/>
    <path id="Trazado_149454" data-name="Trazado 149454" d="M521.974,685.424a15.475,15.475,0,0,1,8,1.191c4.732,2.366,7.551,6.091,8.089,11.423.063.624.046.881-.79.733a4.07,4.07,0,0,1-2.157-.869,4.209,4.209,0,0,0-2.769-.755,13.438,13.438,0,0,1-8.937-3.538c-1.23-1.109-1.657-1.1-2.919.022a13.571,13.571,0,0,1-8.944,3.528,4.649,4.649,0,0,0-3.382,1.246c-.578.583-1.422.232-2.127.447-.332.1-.213-.385-.2-.6a12.481,12.481,0,0,1,2.9-7.575,13.386,13.386,0,0,1,11.391-5.258C520.737,685.445,521.355,685.424,521.974,685.424Z" transform="translate(-230.799 -77.754)" fill="#feab23"/>
    <path id="Trazado_149455" data-name="Trazado 149455" d="M423.923,814.9a3.223,3.223,0,0,1-3.4.189,106.008,106.008,0,0,0-13.619-5.057,1.141,1.141,0,0,1-.98-1.238,2.747,2.747,0,0,1,1.207-2.512,18.956,18.956,0,0,0,6.347-8.442,8.114,8.114,0,0,0,.5-2.463c.012-.745.152-1.326,1.081-1.3a2.666,2.666,0,0,0,.633-.164c-.225,1.633-.472,3.224-.654,4.823a19.63,19.63,0,0,0-.245,3.584,4.538,4.538,0,0,0,3.182,4.135,28.6,28.6,0,0,0,3.239,1.005c.928.222,1.321.615,1.245,1.646-.1,1.413.26,1.807,1.459,2.106Q423.916,813.053,423.923,814.9Z" transform="translate(-150.426 -165.088)" fill="#fff"/>
    <path id="Trazado_149456" data-name="Trazado 149456" d="M481.422,664.835c0,.516-.038,1.031.011,1.538a.884.884,0,0,1-.616,1.027,16.285,16.285,0,0,0-9.3,11.5,17.8,17.8,0,0,0-.374,4.152c0,5.647-.015,11.295.016,16.942,0,.744-.122.971-.873.682-.813-.313-1.663-.532-2.492-.8a1.766,1.766,0,0,1-1.385-1.881c.7-8.989,2.557-17.667,7.232-25.525a21.086,21.086,0,0,1,7.155-7.429,3.355,3.355,0,0,1,.333-.2A1.053,1.053,0,0,1,481.422,664.835Z" transform="translate(-199.09 -61.227)" fill="#ddebf3"/>
    <path id="Trazado_149457" data-name="Trazado 149457" d="M633.728,664.14a23.07,23.07,0,0,1,8.79,9.611,56.672,56.672,0,0,1,5.45,17.216c.347,2.049.513,4.117.719,6.182a1.868,1.868,0,0,1-1.389,2.166c-.825.287-1.678.5-2.494.806-.7.264-.843.077-.839-.64.03-5.034.018-10.068.014-15.1a24.467,24.467,0,0,0-.638-6.945,15.963,15.963,0,0,0-8.367-10.218c-.988-.5-1.47-.993-1.256-2.083A5.856,5.856,0,0,0,633.728,664.14Z" transform="translate(-333.682 -60.674)" fill="#ddebf3"/>
    <path id="Trazado_149458" data-name="Trazado 149458" d="M498.033,825.958q-.006-1.847-.013-3.694c1.183-.308,1.513-.724,1.516-2,.008-3.931,0-7.862.017-11.793,0-.284-.268-.848.3-.816.439.025,1.065-.084,1.114.815a13.766,13.766,0,0,0,6.424,11.1c.826.559,1.394,1.062,1.134,2.149a2.324,2.324,0,0,1-1.979,1.88,52.416,52.416,0,0,0-7.22,1.954C498.9,825.7,498.463,825.822,498.033,825.958Z" transform="translate(-224.536 -176.145)" fill="#feab23"/>
    <path id="Trazado_149459" data-name="Trazado 149459" d="M635.284,822.294q-.008,1.845-.015,3.689a76.947,76.947,0,0,0-8.774-2.461,2.379,2.379,0,0,1-1.747-2.862c.084-.483.49-.572.8-.766a14.576,14.576,0,0,0,6.175-7.752,9.127,9.127,0,0,0,.633-3.61c-.059-.833.559-.787,1.007-.843.733-.092.391.543.393.822.028,3.893.014,7.787.021,11.681C633.775,821.578,634.081,821.984,635.284,822.294Z" transform="translate(-326.467 -176.169)" fill="#feab23"/>
    <path id="Trazado_149460" data-name="Trazado 149460" d="M563.875,645.163a24.74,24.74,0,0,0-5.346.181c-.417.095-.557-.069-.561-.51a6.1,6.1,0,0,1,5.976-5.871,6.008,6.008,0,0,1,5.92,5.681c0,.386.109.849-.546.7A25.806,25.806,0,0,0,563.875,645.163Z" transform="translate(-272.771 -40.416)" fill="#ff9800"/>
    <path id="Trazado_149461" data-name="Trazado 149461" d="M300.644,918.276c-1.794-1.388-3.581-2.785-5.386-4.159a1,1,0,0,1-.422-1.095c.051-.253.086-.51.125-.766.334-2.234-.188-3.995-2.479-4.983a22.964,22.964,0,0,1-2.709-1.715.623.623,0,0,1-.326-.863c.342-1.078.619-2.176.908-3.269.255-.966,1.168-.8,1.822-1.017.59-.2.63.456.784.789q3.763,8.163,7.489,16.342a1.351,1.351,0,0,1,.187.742Z" transform="translate(-56.667 -250.753)" fill="#111e61"/>
    <path id="Trazado_149462" data-name="Trazado 149462" d="M389.972,918.071a28.358,28.358,0,0,1,1.957-4.633c1.845-4.109,3.742-8.2,5.62-12.29.152-.331.172-.923.684-.768.639.194,1.543.035,1.826.858.4,1.161.674,2.363,1.012,3.544.132.461-.185.639-.488.834-1.2.775-2.374,1.593-3.607,2.311a2.968,2.968,0,0,0-1.488,3.3c.036.256.089.51.122.766a2.452,2.452,0,0,1-1.141,2.716c-1.575,1-2.886,2.387-4.5,3.361Z" transform="translate(-137.598 -250.738)" fill="#111e61"/>
    <path id="Trazado_149463" data-name="Trazado 149463" d="M360.559,953.393c-.635-1.382-1.2-2.609-1.761-3.838a2.013,2.013,0,0,1-.01-1.154c.257-1.827.573-3.646.8-5.476.092-.729.447-.82,1.09-.833.731-.016.74.376.811.9.248,1.828.506,3.657.838,5.471a2.251,2.251,0,0,1-.2,1.483C361.616,951.024,361.138,952.121,360.559,953.393Z" transform="translate(-112.441 -284.318)" fill="#feab23"/>
    <path id="Trazado_149464" data-name="Trazado 149464" d="M353.916,871.167a2.078,2.078,0,0,1-.876,2.5,37.429,37.429,0,0,0-3.013,2.606c-.371.343-.6.315-.949,0-1.155-1.042-2.306-2.092-3.524-3.057-.651-.516-.529-1.156-.456-1.761.064-.528.47-.188.729-.1a11.393,11.393,0,0,0,6.875.211C353.1,871.455,353.494,871.307,353.916,871.167Z" transform="translate(-101.446 -227.252)" fill="#f5c9a3"/>
    <path id="Trazado_149465" data-name="Trazado 149465" d="M323.1,890.292a.872.872,0,0,1,.86.186c1.145,1,2.283,2.009,3.445,2.988.368.311.21.439-.095.62-1.141.677-2.284,1.351-3.407,2.058-.436.274-.639.115-.816-.276-.613-1.354-1.213-2.714-1.857-4.054-.246-.512-.113-.774.384-.953C322.19,890.652,322.758,890.423,323.1,890.292Z" transform="translate(-82.19 -242.617)" fill="#fff"/>
    <path id="Trazado_149466" data-name="Trazado 149466" d="M386.628,890.256c.479.2,1.164.48,1.853.756.334.134.2.342.1.549-.642,1.41-1.3,2.815-1.92,4.235-.213.487-.476.536-.9.278-1.1-.674-2.217-1.334-3.328-2-.317-.189-.413-.4-.1-.675q1.755-1.529,3.509-3.059C386.007,890.207,386.2,890.192,386.628,890.256Z" transform="translate(-131.301 -242.582)" fill="#fff"/>
    <path id="Trazado_149467" data-name="Trazado 149467" d="M438.509,706.7c0,2.119,0,3.98,0,5.841,0,.22.042.5-.318.449s-.8.071-.962-.444a6.425,6.425,0,0,0-1.718-2.762c-.353-.338-.247-.5.118-.692A10.331,10.331,0,0,0,438.509,706.7Z" transform="translate(-174.065 -94.915)" fill="#636363"/>
    <path id="Trazado_149468" data-name="Trazado 149468" d="M447.487,759.5c0-1.584.006-3.1,0-4.62,0-.453.214-.479.553-.344a.471.471,0,0,1,.086.045c1.171.771.951,1.97.913,3.085A1.771,1.771,0,0,1,447.487,759.5Z" transform="translate(-183.873 -133.354)" fill="#f5c9a3"/>
    <path id="Trazado_149469" data-name="Trazado 149469" d="M282.467,759.4a1.786,1.786,0,0,1-1.558-1.762c-.03-.583-.018-1.169.007-1.753a1.71,1.71,0,0,1,.974-1.471c.333-.182.6-.183.586.356C282.449,756.292,282.467,757.813,282.467,759.4Z" transform="translate(-49.83 -133.223)" fill="#f5c9a3"/>
    <path id="Trazado_149470" data-name="Trazado 149470" d="M664.067,771.576c0-.582-.007-1.164,0-1.746,0-.181-.094-.431.123-.523s.432.061.6.211a2.013,2.013,0,0,1,.327.353,4.413,4.413,0,0,1-.053,3.448c-.22.273-.491.624-.871.49-.324-.115-.13-.51-.145-.778-.027-.484-.008-.97-.008-1.455Z" transform="translate(-358.095 -145.27)" fill="#f5c9a3"/>
    <path id="Trazado_149471" data-name="Trazado 149471" d="M507.013,768.93c0,1.448-.016,2.8.008,4.152.01.582-.232.607-.62.338-1.133-.783-.718-1.97-.729-3.022C505.664,769.649,506.108,769.161,507.013,768.93Z" transform="translate(-230.64 -144.99)" fill="#f5c9a3"/>
    <path id="Trazado_149472" data-name="Trazado 149472" d="M340.794,935.5c-.522-1.148-.923-2.088-1.375-3-.388-.782.4-.727.694-.962.236-.186.555-.624.873-.355a1.2,1.2,0,0,1,.293,1.156C341.1,933.313,340.974,934.3,340.794,935.5Z" transform="translate(-96.837 -275.475)" fill="#ddebf3"/>
    <path id="Trazado_149473" data-name="Trazado 149473" d="M387.339,935.733c-.188-1.253-.336-2.237-.482-3.22-.064-.434.011-1.055.325-1.118.53-.107.953.449,1.432.705s.13.559.014.822C388.251,933.774,387.852,934.617,387.339,935.733Z" transform="translate(-135.075 -275.701)" fill="#ddebf3"/>
    <path id="Trazado_149474" data-name="Trazado 149474" d="M363.061,920.435c-.523-.017-1.261.173-1.231-.642.022-.592.754-.685,1.213-.911.251-.124,1.317.706,1.307.941C364.331,920.286,364.018,920.435,363.061,920.435Z" transform="translate(-114.954 -265.634)" fill="#feab23"/>
    <path id="Trazado_149475" data-name="Trazado 149475" d="M389.576,991.022a.262.262,0,0,1-.033.079c-.01.012-.041.007-.063.009l.1-.086Z" transform="translate(-137.203 -323.689)" fill="#414352"/>
    <path id="Trazado_149476" data-name="Trazado 149476" d="M346.961,992.006l.068.028-.061-.036Z" transform="translate(-102.991 -324.475)" fill="#414352"/>
    <path id="Trazado_149477" data-name="Trazado 149477" d="M343.03,818.225a6.969,6.969,0,0,1-5.693-2.594,1.519,1.519,0,0,1,.068-2.245,1.439,1.439,0,0,1,2.129.349c1.571,2.1,5.475,2.016,6.925-.021a1.442,1.442,0,0,1,2.133-.329,1.468,1.468,0,0,1,.117,2.164A6.8,6.8,0,0,1,343.03,818.225Z" transform="translate(-94.879 -180.491)" fill="#0b0a09"/>
    <path id="Trazado_149478" data-name="Trazado 149478" d="M359.084,774.595c0-.519-.042-1.042.009-1.556a1.467,1.467,0,0,1,1.511-1.462,1.441,1.441,0,0,1,1.4,1.543,7.216,7.216,0,0,1,0,.973c-.053.62,0,1.075.762,1.3a1.2,1.2,0,0,1,.749,1.433,1.308,1.308,0,0,1-1.117,1.183c-2.016.336-3.439-.255-3.328-2.636.012-.259,0-.519,0-.779Z" transform="translate(-112.732 -147.119)" fill="#0b0a09"/>
    <path id="Trazado_149479" data-name="Trazado 149479" d="M399.918,758.907a7.128,7.128,0,0,1-.069.917,1.433,1.433,0,0,1-2.724.281,3.775,3.775,0,0,1-.046-2.388,1.319,1.319,0,0,1,1.457-1.033,1.343,1.343,0,0,1,1.334,1.3C399.9,758.271,399.9,758.563,399.918,758.907Z" transform="translate(-143.178 -135.132)" fill="#0b0a09"/>
    <path id="Trazado_149480" data-name="Trazado 149480" d="M326.849,758.791a5.444,5.444,0,0,1-.008.871,1.445,1.445,0,0,1-2.859.082,6.6,6.6,0,0,1-.037-1.547,1.46,1.46,0,1,1,2.913.012c.01.193,0,.388,0,.582Z" transform="translate(-84.451 -135.104)" fill="#0b0a09"/>
    <path id="Trazado_149481" data-name="Trazado 149481" d="M563.831,829.4a6.739,6.739,0,0,1-5.016-2.36c-.741-.881-.764-1.726-.094-2.334s1.5-.465,2.281.367a4.22,4.22,0,0,0,6.284-.007c.785-.835,1.615-.968,2.282-.365.686.621.661,1.408-.073,2.324A7.064,7.064,0,0,1,563.831,829.4Z" transform="translate(-272.988 -189.561)" fill="#0b0a09"/>
    <path id="Trazado_149482" data-name="Trazado 149482" d="M579.725,787.684c0-.519-.018-1.039,0-1.557a1.421,1.421,0,0,1,2.8-.259,3.9,3.9,0,0,1,.109.861c.024.732-.142,1.4.837,1.861s.7,1.961-.348,2.4a2.334,2.334,0,0,1-3.423-2.232c-.006-.357,0-.714,0-1.071Z" transform="translate(-290.258 -157.739)" fill="#0b0a09"/>
    <path id="Trazado_149483" data-name="Trazado 149483" d="M548.789,772.7a8.206,8.206,0,0,1-.005.869,1.429,1.429,0,0,1-2.766.331,4.068,4.068,0,0,1-.112-1.913,1.435,1.435,0,0,1,1.568-1.373,1.407,1.407,0,0,1,1.331,1.5c0,.193,0,.387,0,.58Z" transform="translate(-263.018 -146.333)" fill="#0b0a09"/>
    <path id="Trazado_149484" data-name="Trazado 149484" d="M615.884,772.661a4.724,4.724,0,0,1,.007-.775,1.38,1.38,0,0,1,1.378-1.263,1.321,1.321,0,0,1,1.469,1.142,5.882,5.882,0,0,1,.008,1.93,1.329,1.329,0,0,1-1.448,1.174,1.389,1.389,0,0,1-1.413-1.335,6.949,6.949,0,0,1-.006-.873Z" transform="translate(-319.356 -146.35)" fill="#0b0a09"/>
  </g>
</svg>
