<svg xmlns="http://www.w3.org/2000/svg" width="89.659" height="89.823" viewBox="0 0 89.659 89.823">
  <g id="Grupo_110593" data-name="Grupo 110593" transform="translate(-326.054 -351.748)">
    <path id="Trazado_169682" data-name="Trazado 169682" d="M330.48,442.385c-2.059-.782-2.837-2.255-2.834-4.464q.063-40.687.028-81.374a3.659,3.659,0,0,1,2.75-3.863,4.04,4.04,0,0,1,1.128-.089c9.383,0,18.765.007,28.147-.018a1.608,1.608,0,0,1,1.826,1.241c-.387,1.262-.586,1.413-1.918,1.413q-11.8,0-23.6,0c-.552,0-1.105.025-1.658.038-.729-.013-1.458-.035-2.187-.037-1.642-.005-1.844.2-1.844,1.866v80.777c0,.234-.005.467,0,.7a1.059,1.059,0,0,0,1.141,1.159c.962.012,1.925-.019,2.887-.031.262.013.524.038.786.038q25.426,0,50.852,0c.2,0,.408-.016.612-.024.191.016.4.138.559-.069l-.279-.195a20.1,20.1,0,0,1,2.459-35.579,1.085,1.085,0,0,0,.774-1.213q-.028-22.827-.015-45.654c0-1.54-.237-1.78-1.76-1.78q-11.26,0-22.52,0c-1.158,0-1.518-.308-1.707-1.415a1.368,1.368,0,0,1,1.528-1.228c7.86.008,15.721,0,23.581.013a3.571,3.571,0,0,1,3.511,3.521c.028,1.607.008,3.214.008,4.821q0,20.338,0,40.676v1.1a20.888,20.888,0,0,1,8.2-.164,19.8,19.8,0,0,1,11.851,7.007,19.273,19.273,0,0,1,4.346,9.849c.009.065.1.119.151.178v2.631a3.361,3.361,0,0,1-1.238.713,1.694,1.694,0,0,1-1.414-1.808,16.822,16.822,0,0,0-6.431-12.358c-5.84-4.636-12.208-5.115-18.836-1.834a17.118,17.118,0,0,0-8.545,20.914,17.451,17.451,0,0,0,27.508,7.879,16.885,16.885,0,0,0,5.739-8.889,1.553,1.553,0,0,1,1.736-1.353c.934.5,1.185.954.906,1.9a19.941,19.941,0,0,1-13.722,14.147c-1.237.4-2.534.468-3.766.853h-4.034c-.592-.336-1.309-.166-1.9-.419a3.175,3.175,0,0,0-3.364.419Z" transform="translate(-1.592 -0.829)" fill="#080607"/>
    <path id="Trazado_169683" data-name="Trazado 169683" d="M751.684,749.464a3.361,3.361,0,0,0,1.238-.713c0,6.518-.008,13.036.015,19.555,0,.523-.105.631-.629.629-5.816-.024-11.633-.015-17.45-.015,1.232-.385,2.529-.453,3.766-.853a19.941,19.941,0,0,0,13.722-14.147c.279-.95.029-1.4-.905-1.9Q751.563,750.74,751.684,749.464Z" transform="translate(-337.225 -327.363)" fill="#fff"/>
    <path id="Trazado_169684" data-name="Trazado 169684" d="M681.981,860.108a3.175,3.175,0,0,1,3.364-.419c.588.252,1.3.083,1.9.419Z" transform="translate(-293.642 -418.552)" fill="#e5e5eb"/>
    <path id="Trazado_169685" data-name="Trazado 169685" d="M417.92,445.527c-.2.008-.408.024-.612.024q-25.426,0-50.852,0c-.262,0-.524-.025-.786-.038q0-4.772-.008-9.543c0-.255-.069-.531.139-.751a1.426,1.426,0,0,0,1.537,1.034q12.972,0,25.943,0c.994,0,1.594-.566,1.566-1.378s-.57-1.268-1.561-1.268q-12.972-.011-25.943-.009a1.467,1.467,0,0,0-1.53.915,1.244,1.244,0,0,1-.145-.392c-.009-2.092-.007-4.184-.007-6.276,0-.206,0-.411.212-.534a1.82,1.82,0,0,0,1.584.727q17.438-.022,34.877-.012c1.062,0,1.7-.533,1.667-1.364-.03-.809-.619-1.271-1.664-1.271q-17.439,0-34.877-.011a1.593,1.593,0,0,0-1.643.892c-.181-.154-.156-.365-.156-.567q0-3.112,0-6.224c0-.2-.026-.414.155-.568.357.8,1.029.9,1.811.9q18.357-.018,36.714-.009a6.125,6.125,0,0,0,.7-.018,1.271,1.271,0,0,0,1.164-1.374c-.041-.842-.608-1.252-1.763-1.252q-18.445,0-36.889-.011a1.922,1.922,0,0,0-1.679.727c-.28-.173-.212-.457-.213-.709q-.006-3.541,0-7.081c0-.227-.049-.474.175-.642a4.357,4.357,0,0,0,2.988,1.234q22.663-.006,45.326-.007a3.969,3.969,0,0,0,3.831-2.434,3.731,3.731,0,0,0-.651-4.529,3.507,3.507,0,0,1-1.06-3.167c.03-.524.007-1.052,0-1.578a24.153,24.153,0,0,0-2.962-12.087C408.94,379.185,402.365,374.808,393.5,374c-.532-.048-.694-.226-.668-.748.042-.845.041-1.7,0-2.541-.024-.5.139-.642.635-.629,1.226.033,2.456.039,3.681,0a1.405,1.405,0,0,0,1.458-1.328c0-.721-.574-1.249-1.458-1.332-.145-.014-.292-.008-.438-.008q-5.172,0-10.345,0a3.837,3.837,0,0,0-.953.1,1.212,1.212,0,0,0-.95,1.376c.051.735.635,1.176,1.573,1.2q1.8.04,3.594,0c.465-.012.6.137.584.593a24.181,24.181,0,0,0,0,2.541c.038.586-.181.754-.729.78a23.018,23.018,0,0,0-6.963,1.541,1.6,1.6,0,0,0-1.238,1.582.8.8,0,0,1-.5.636c-.55.3-1.078.65-1.615.978a1.467,1.467,0,0,0-2.1-.256,24.953,24.953,0,0,0-8.8,11.669,28.25,28.25,0,0,0-1.486,11.086,2.106,2.106,0,0,1-1.109,2.282l-.008-42.442c.553-.013,1.105-.038,1.658-.038q11.8,0,23.6,0c1.332,0,1.531-.15,1.918-1.413l2.582,0c.189,1.106.548,1.414,1.707,1.415q11.26,0,22.52,0c1.522,0,1.76.24,1.76,1.78q0,22.827.015,45.654a1.085,1.085,0,0,1-.774,1.213,20.1,20.1,0,0,0-2.459,35.579Zm-15.449-9.272c1.109,0,2.218.013,3.327,0,1.019-.016,1.606-.525,1.6-1.347s-.589-1.3-1.618-1.3q-3.326-.016-6.653,0c-1.042.005-1.592.48-1.59,1.318,0,.82.584,1.317,1.606,1.332C400.253,436.268,401.362,436.255,402.471,436.255Z" transform="translate(-32.917 -6.636)" fill="#e5e5eb"/>
    <path id="Trazado_169686" data-name="Trazado 169686" d="M661.04,667.867q-.121,1.276-.243,2.553a1.553,1.553,0,0,0-1.736,1.353,16.885,16.885,0,0,1-5.739,8.889,17.341,17.341,0,1,1-18.963-28.794c6.628-3.282,13-2.8,18.836,1.834a16.822,16.822,0,0,1,6.431,12.358A1.694,1.694,0,0,0,661.04,667.867Zm-25.081,10a3.837,3.837,0,0,0,2.586-1.285c1.078-1.07,2.165-2.132,3.213-3.232.384-.4.616-.453,1.026-.016,1.019,1.086,2.1,2.117,3.146,3.174a4.2,4.2,0,0,0,2.685,1.33,3.9,3.9,0,0,0,3.876-2.163,3.84,3.84,0,0,0-.632-4.461c-1.1-1.174-2.238-2.307-3.4-3.412-.451-.428-.534-.667-.026-1.134,1.1-1.006,2.128-2.085,3.174-3.146a4.11,4.11,0,0,0,1.266-3.486,3.67,3.67,0,0,0-2.528-3.179,3.729,3.729,0,0,0-4.133.827c-1.084,1.065-2.183,2.115-3.217,3.226-.516.555-.84.667-1.4.032-.93-1.047-1.958-2.007-2.958-2.99a4.034,4.034,0,0,0-5.785-.229,3.9,3.9,0,0,0,.131,5.82c.982,1,1.954,2.014,2.983,2.965.556.514.665.836.033,1.409-1.167,1.058-2.277,2.187-3.338,3.352a3.723,3.723,0,0,0-.642,4.239A3.863,3.863,0,0,0,635.959,677.87Z" transform="translate(-246.581 -245.767)" fill="#ff9800"/>
    <path id="Trazado_169687" data-name="Trazado 169687" d="M346.978,441.871c-.208.22-.138.5-.139.751q0,4.772.008,9.543c-.962.012-1.925.043-2.887.031a1.059,1.059,0,0,1-1.141-1.159c-.008-.233,0-.467,0-.7V369.56c0-1.663.2-1.872,1.844-1.866.729,0,1.458.024,2.187.037q0,21.221.008,42.442c-1.439,2.228-1.4,3.851.159,5.915-.224.169-.175.415-.175.642q0,3.541,0,7.081c0,.253-.067.536.213.709q-.03.52-.059,1.039c-.181.154-.155.365-.155.568q0,3.112,0,6.224c0,.2-.025.414.156.567l.056,1.04c-.21.123-.212.329-.212.534,0,2.092,0,4.184.007,6.276a1.244,1.244,0,0,0,.145.392Z" transform="translate(-14.094 -13.288)" fill="#c7c7cd"/>
    <path id="Trazado_169688" data-name="Trazado 169688" d="M663,847.092l.28-.263.279.195C663.4,847.231,663.193,847.109,663,847.092Z" transform="translate(-277.999 -408.201)" fill="#c7c7cd"/>
    <path id="Trazado_169689" data-name="Trazado 169689" d="M397.086,458.055c.537-.329,1.064-.674,1.615-.978a.8.8,0,0,0,.5-.636c.519,1.146,1.043,1.354,2.3.888a22.3,22.3,0,0,1,28.66,12.834c1.323,3.325,1.386,6.825,1.356,10.34-.007.791-.219.941-.968.94q-18.932-.037-37.864-.018c-1.519,0-3.038-.036-4.557-.008-.551.01-.777-.114-.743-.714.052-.9.013-1.811.014-2.716a21.989,21.989,0,0,1,2.847-10.948,22.213,22.213,0,0,1,6.171-6.952A1.538,1.538,0,0,0,397.086,458.055Z" transform="translate(-50.829 -85.952)" fill="#c7c7cd"/>
    <path id="Trazado_169690" data-name="Trazado 169690" d="M374.4,415.267a1.538,1.538,0,0,1-.668,2.031,22.213,22.213,0,0,0-6.171,6.952,21.99,21.99,0,0,0-2.847,10.948c0,.906.037,1.814-.014,2.716-.034.6.192.724.743.714,1.518-.028,3.038.008,4.557.008q18.932,0,37.864.018c.749,0,.961-.149.968-.94.031-3.516-.033-7.015-1.356-10.34a22.3,22.3,0,0,0-28.66-12.834c-1.255.465-1.779.258-2.3-.888a1.6,1.6,0,0,1,1.238-1.582,23.018,23.018,0,0,1,6.963-1.541c.548-.026.767-.194.729-.78a24.181,24.181,0,0,1,0-2.541c.018-.457-.119-.605-.584-.593q-1.8.045-3.594,0c-.938-.021-1.522-.462-1.573-1.2a1.212,1.212,0,0,1,.95-1.376,3.837,3.837,0,0,1,.953-.1q5.172-.01,10.345,0c.146,0,.293-.006.438.008.884.083,1.459.611,1.458,1.332a1.405,1.405,0,0,1-1.458,1.328c-1.226.043-2.455.037-3.681,0-.5-.013-.658.126-.635.629.04.846.042,1.7,0,2.541-.026.522.136.7.668.748,8.86.8,15.435,5.18,19.808,12.862a24.153,24.153,0,0,1,2.962,12.087c0,.526.026,1.054,0,1.578a3.507,3.507,0,0,0,1.06,3.167,3.731,3.731,0,0,1,.651,4.529,3.969,3.969,0,0,1-3.831,2.434q-22.663.016-45.326.007a4.357,4.357,0,0,1-2.988-1.234c-1.555-2.064-1.6-3.687-.159-5.915a2.106,2.106,0,0,0,1.109-2.282A28.25,28.25,0,0,1,363.5,426.68a24.953,24.953,0,0,1,8.8-11.669A1.467,1.467,0,0,1,374.4,415.267Zm12.422,26.094h-21.9a9.54,9.54,0,0,0-.962.024,1.435,1.435,0,0,0-1.362,1.44c-.063,1.124.626,1.729,2.009,1.73q22.166,0,44.332,0a3.059,3.059,0,0,0,.776-.09,1.468,1.468,0,0,0,1.192-1.677c-.066-.974-.654-1.424-1.916-1.425Q397.9,441.357,386.82,441.361Z" transform="translate(-28.141 -43.164)" fill="#080607"/>
    <path id="Trazado_169691" data-name="Trazado 169691" d="M366.585,688.608q.03-.52.059-1.039a1.922,1.922,0,0,1,1.679-.727q18.445.022,36.889.011c1.154,0,1.722.41,1.763,1.252a1.271,1.271,0,0,1-1.164,1.374,6.111,6.111,0,0,1-.7.018q-18.357,0-36.714.009C367.614,689.508,366.942,689.407,366.585,688.608Z" transform="translate(-33.687 -276.337)" fill="#080607"/>
    <path id="Trazado_169692" data-name="Trazado 169692" d="M366.644,735.616l-.056-1.04a1.593,1.593,0,0,1,1.643-.892q17.439.019,34.877.011c1.045,0,1.633.462,1.664,1.271.031.832-.605,1.364-1.667,1.364q-17.439,0-34.877.012A1.82,1.82,0,0,1,366.644,735.616Z" transform="translate(-33.689 -314.945)" fill="#080607"/>
    <path id="Trazado_169693" data-name="Trazado 169693" d="M366.5,782.064l.012-.71a1.467,1.467,0,0,1,1.53-.915q12.972.012,25.943.009c.991,0,1.533.469,1.561,1.268s-.572,1.377-1.566,1.379q-12.972.014-25.943,0A1.426,1.426,0,0,1,366.5,782.064Z" transform="translate(-33.618 -353.481)" fill="#080607"/>
    <path id="Trazado_169694" data-name="Trazado 169694" d="M551.983,783.1c-1.109,0-2.218.012-3.327,0-1.022-.015-1.6-.512-1.606-1.332,0-.838.548-1.312,1.59-1.318q3.326-.017,6.653,0c1.029,0,1.614.493,1.618,1.3s-.583,1.331-1.6,1.347C554.2,783.112,553.092,783.1,551.983,783.1Z" transform="translate(-182.429 -353.48)" fill="#080607"/>
    <path id="Trazado_169695" data-name="Trazado 169695" d="M667.471,709.847a3.863,3.863,0,0,1-3.948-2.358,3.723,3.723,0,0,1,.642-4.239c1.061-1.165,2.171-2.294,3.338-3.352.632-.573.523-.9-.032-1.409-1.029-.951-2-1.965-2.983-2.965a3.9,3.9,0,0,1-.131-5.82,4.034,4.034,0,0,1,5.785.229c1,.983,2.028,1.943,2.958,2.99.564.635.887.523,1.4-.032,1.034-1.111,2.134-2.162,3.217-3.226a3.729,3.729,0,0,1,4.133-.827,3.67,3.67,0,0,1,2.528,3.179,4.11,4.11,0,0,1-1.266,3.486c-1.046,1.061-2.077,2.14-3.174,3.146-.508.466-.426.706.026,1.134,1.165,1.1,2.307,2.238,3.4,3.412a3.84,3.84,0,0,1,.632,4.461,3.9,3.9,0,0,1-3.876,2.163,4.2,4.2,0,0,1-2.685-1.33c-1.05-1.057-2.128-2.088-3.146-3.174-.41-.437-.641-.388-1.026.016-1.048,1.1-2.135,2.161-3.213,3.232A3.837,3.837,0,0,1,667.471,709.847Zm-.424-18.567a3.452,3.452,0,0,0-.393.116,1.266,1.266,0,0,0-.268,2.167c1.336,1.389,2.724,2.728,4.074,4.1,1.09,1.11,1.081,1.986-.018,3.1-1.293,1.309-2.605,2.6-3.9,3.907-.712.72-.821,1.542-.307,2.085.56.592,1.235.5,2.042-.3,1.265-1.254,2.518-2.521,3.783-3.775,1.285-1.273,2.138-1.268,3.423,0,1.349,1.335,2.684,2.685,4.055,4a1.175,1.175,0,0,0,1.786.061,1.19,1.19,0,0,0-.073-1.779c-1.35-1.414-2.745-2.785-4.112-4.183-1.1-1.126-1.1-2.064,0-3.18,1.314-1.329,2.644-2.642,3.958-3.971a1.364,1.364,0,0,0,.269-1.937c-.494-.569-1.179-.575-1.9.109-1.377,1.3-2.7,2.663-4.057,3.992-1.211,1.19-2.068,1.182-3.286-.028q-1.9-1.883-3.779-3.779A2.2,2.2,0,0,0,667.047,691.279Z" transform="translate(-278.092 -277.743)" fill="#080607"/>
    <path id="Trazado_169696" data-name="Trazado 169696" d="M399.632,616.821q11.083,0,22.166,0c1.262,0,1.85.451,1.916,1.425a1.468,1.468,0,0,1-1.192,1.677,3.061,3.061,0,0,1-.776.09q-22.166.006-44.332,0c-1.384,0-2.072-.606-2.009-1.73a1.435,1.435,0,0,1,1.362-1.44,9.54,9.54,0,0,1,.962-.024Z" transform="translate(-40.953 -218.623)" fill="#6a6f74"/>
    <path id="Trazado_169697" data-name="Trazado 169697" d="M680.119,704.064a2.2,2.2,0,0,1,1.3.707q1.884,1.9,3.779,3.779c1.219,1.21,2.075,1.217,3.286.028,1.354-1.33,2.68-2.688,4.057-3.992.722-.684,1.406-.677,1.9-.109a1.364,1.364,0,0,1-.27,1.937c-1.314,1.329-2.644,2.642-3.958,3.971-1.1,1.116-1.1,2.054,0,3.18,1.367,1.4,2.761,2.769,4.112,4.183a1.19,1.19,0,0,1,.073,1.779,1.176,1.176,0,0,1-1.786-.061c-1.371-1.312-2.706-2.662-4.055-4-1.285-1.271-2.138-1.276-3.423,0-1.265,1.254-2.518,2.52-3.783,3.775-.807.8-1.482.894-2.042.3-.514-.544-.405-1.365.307-2.085,1.293-1.308,2.606-2.6,3.9-3.907,1.1-1.113,1.108-1.989.018-3.1-1.35-1.375-2.737-2.714-4.074-4.1a1.266,1.266,0,0,1,.268-2.167A3.447,3.447,0,0,1,680.119,704.064Z" transform="translate(-291.164 -290.529)" fill="#ffee58"/>
  </g>
</svg>
