<svg xmlns="http://www.w3.org/2000/svg" width="100" height="80.223" viewBox="0 0 100 80.223">
  <g id="Grupo_110662" data-name="Grupo 110662" transform="translate(1384.371 -1657.759)">
    <path id="Trazado_170187" data-name="Trazado 170187" d="M-1384.371,1674.738c.7-1.7,1.979-2.24,3.777-2.233,11.877.048,23.755.015,35.633.045.853,0,1.088-.189,1.072-1.06a47.386,47.386,0,0,1,.108-5.556,9.438,9.438,0,0,1,10.174-8.122,9.455,9.455,0,0,1,8.437,9.579c-.016,1.432.036,2.865-.019,4.295-.027.7.2.862.871.858,4.946-.028,9.893-.015,14.839-.015q10.739,0,21.478,0c2.618,0,3.63,1.029,3.63,3.674q0,29.041,0,58.083c0,2.614-1.05,3.669-3.661,3.669q-46.128,0-92.256.025c-1.817,0-3.234-.418-4.083-2.116Zm66.689,40.227q14.256,0,28.512.018c.719,0,.906-.154.9-.893q-.04-18.355,0-36.711c0-.767-.2-.949-.953-.947q-15.379.04-30.758.018c-1.5,0-2.995.023-4.491-.012-.556-.013-.731.153-.709.71.041,1.072.026,2.148.008,3.221a1.978,1.978,0,0,1-2.239,2.217q-7.128.023-14.256,0a2.017,2.017,0,0,1-2.254-2.224,26.489,26.489,0,0,1,.013-2.927c.067-.82-.191-1.007-1-1q-17.283.044-34.565,0c-.8,0-1.01.172-1.009.995q.046,18.307.021,36.614a2.753,2.753,0,0,1,0,.39c-.062.432.119.559.544.546.943-.029,1.889-.045,2.83,0,.587.031.787-.112.764-.739a23.024,23.024,0,0,1,.139-4.483c.781-4.874,2.391-9.16,7.809-10.642.254-.069.515-.127.352-.517-1.033-2.472-.713-5.059-.542-7.607a6.7,6.7,0,0,1,5.348-6.058,6.958,6.958,0,0,1,7.647,3.215c1.695,3.265,1.295,6.73.5,10.16-.106.458-.3.707.362.872,3.3.817,5.162,3.167,6.447,6.126a19.194,19.194,0,0,1,1.216,8.612c-.035.843.166,1.073,1.045,1.069C-1336.56,1714.951-1327.121,1714.965-1317.682,1714.965Zm-16.576,3.911q-22.6,0-45.2-.018c-.784,0-1.042.149-1.033.992.046,4.424.037,8.85.006,13.274,0,.7.133.944.9.943q45.2-.031,90.391,0c.713,0,.938-.158.932-.909q-.057-6.588,0-13.177c.009-.864-.181-1.128-1.1-1.126Q-1311.807,1718.9-1334.258,1718.876Zm-27.411-3.921c3.286,0,6.571.006,9.857-.009.329,0,.855.23.848-.452-.023-2.141.2-4.306-.46-6.392a8.963,8.963,0,0,0-2.244-4.049c-1.584-1.476-3.583-1.324-5.534-1.289-.506.009-.392.428-.4.73-.012,1.139.036,2.279-.021,3.415-.072,1.42-.915,2.271-2.079,2.209s-1.827-.886-1.848-2.309c-.017-1.106,0-2.212,0-3.318,0-.367.021-.672-.511-.75-3.729-.544-6.149.887-7.5,4.382a19.31,19.31,0,0,0-.868,6.917c-.009.709.149.944.9.934C-1368.24,1714.93-1364.954,1714.955-1361.669,1714.955Zm25.193-52.843a5.188,5.188,0,0,0-3.542,5.029c-.043,3.608,0,7.216-.023,10.824,0,.525.116.748.7.744,3.218-.024,6.436-.017,9.655,0,.436,0,.642-.093.639-.588-.024-3.868.026-7.737-.055-11.6a4.947,4.947,0,0,0-3.507-4.4c0,.758.007,1.5,0,2.233-.016,1.38-.734,2.256-1.865,2.291-1.15.036-1.955-.877-1.992-2.287C-1336.492,1663.612-1336.476,1662.874-1336.476,1662.112Zm-21.991,32.969c.005-1.338,0-1.358-1.24-.959-1.528.492-2.973,1.306-4.667,1.129-.421-.044-.328.289-.324.539a3.049,3.049,0,0,0,2.869,2.992C-1359.771,1698.909-1358.476,1697.484-1358.467,1695.081Zm-.687-5.109c-1.718-1.911-4.55-1.45-5.332.7-.179.492-.078.647.416.64a2.443,2.443,0,0,0,.856-.1A20.854,20.854,0,0,1-1359.154,1689.972Z" transform="translate(0 0)" fill="#020202"/>
    <path id="Trazado_170188" data-name="Trazado 170188" d="M-1301.7,1791.67c-9.439,0-18.878-.014-28.316.023-.879,0-1.08-.226-1.045-1.07a19.194,19.194,0,0,0-1.216-8.612c-1.285-2.959-3.152-5.309-6.447-6.126-.666-.165-.468-.414-.362-.872.793-3.43,1.193-6.9-.5-10.16a6.957,6.957,0,0,0-7.647-3.215,6.7,6.7,0,0,0-5.348,6.058c-.172,2.548-.491,5.135.542,7.607.163.39-.1.447-.352.517-5.418,1.482-7.027,5.768-7.809,10.642a23,23,0,0,0-.139,4.483c.023.627-.178.77-.764.739-.941-.049-1.888-.033-2.831,0-.426.013-.606-.115-.544-.546a2.753,2.753,0,0,0,0-.39q0-18.307-.021-36.614c0-.823.207-1,1.009-1q17.283.044,34.565,0c.812,0,1.069.185,1,1.005a26.516,26.516,0,0,0-.013,2.927,2.017,2.017,0,0,0,2.254,2.224q7.128.024,14.256,0a1.978,1.978,0,0,0,2.239-2.217c.018-1.074.033-2.149-.008-3.221-.021-.557.154-.723.709-.71,1.5.036,2.994.012,4.491.012q15.379,0,30.758-.018c.756,0,.954.181.953.948q-.039,18.355,0,36.711c0,.74-.186.9-.9.893Q-1287.446,1791.647-1301.7,1791.67Zm2.732-20.52h-19.316c-1.808,0-2.718.631-2.75,1.9-.033,1.312.924,2.013,2.754,2.013h38.535a4.121,4.121,0,0,0,1.35-.14,1.815,1.815,0,0,0,1.24-1.259c.418-1.4-.538-2.514-2.2-2.516Q-1289.165,1771.14-1298.97,1771.15Zm-4.047-3.7h10.535c1.788,0,3.577.022,5.365-.007a1.976,1.976,0,0,0,2.118-2.538c-.256-.9-1.033-1.371-2.317-1.371q-15.656,0-31.311,0a3.9,3.9,0,0,0-.965.093,1.912,1.912,0,0,0-1.439,1.858c0,1.209.9,1.958,2.408,1.96Q-1310.82,1767.462-1303.016,1767.455Zm-8.315,10.722c-2.6,0-5.2-.012-7.8.005a1.979,1.979,0,0,0-2.192,1.867,1.98,1.98,0,0,0,2.136,2.034c5.234.025,10.468.014,15.7.006a2.107,2.107,0,0,0,1.657-.688,1.843,1.843,0,0,0,.334-2,1.927,1.927,0,0,0-1.934-1.218Q-1307.381,1778.178-1311.331,1778.177Zm24.56,0c-2.568,0-5.136-.01-7.7,0-1.375.007-2.227.744-2.253,1.9-.027,1.188.847,1.987,2.253,2.011,1.333.023,2.666.005,4,.005,3.706,0,7.411.005,11.117,0,1.429,0,2.28-.651,2.382-1.771a1.918,1.918,0,0,0-2.09-2.136C-1281.635,1778.16-1284.2,1778.178-1286.771,1778.177Zm7.686-14.456a1.886,1.886,0,0,0-2,1.806,2.062,2.062,0,0,0,1.968,2.1,1.943,1.943,0,0,0,1.941-1.892A1.94,1.94,0,0,0-1279.086,1763.721Z" transform="translate(-15.98 -76.704)" fill="#fdfdfd"/>
    <path id="Trazado_170189" data-name="Trazado 170189" d="M-1318.3,1969.886q22.451,0,44.9-.023c.916,0,1.106.262,1.1,1.126q-.065,6.588,0,13.177c.006.751-.219.91-.932.909q-45.2-.026-90.391,0c-.765,0-.9-.244-.9-.943.031-4.425.04-8.85-.006-13.274-.009-.843.249-.993,1.033-.992Q-1340.9,1969.9-1318.3,1969.886Zm6.072,7.748a5.553,5.553,0,0,0,5.622,5.531,5.657,5.657,0,0,0,5.533-5.566,5.644,5.644,0,0,0-5.616-5.575A5.548,5.548,0,0,0-1312.23,1977.634Zm37.576-.073a5.572,5.572,0,0,0-5.623-5.537,5.6,5.6,0,0,0-5.52,5.552,5.609,5.609,0,0,0,5.585,5.589A5.576,5.576,0,0,0-1274.654,1977.561Zm-13.22-.013a5.548,5.548,0,0,0-5.624-5.524,5.641,5.641,0,0,0-5.526,5.564,5.644,5.644,0,0,0,5.615,5.576A5.553,5.553,0,0,0-1287.874,1977.548Z" transform="translate(-15.957 -251.009)" fill="#ff9800"/>
    <path id="Trazado_170190" data-name="Trazado 170190" d="M-1312.611,1899.305c-3.285,0-6.572-.025-9.856.019-.756.01-.913-.225-.9-.934a19.31,19.31,0,0,1,.868-6.917c1.352-3.495,3.772-4.925,7.5-4.382.532.078.511.383.511.75,0,1.106-.013,2.212,0,3.318.021,1.423.693,2.246,1.848,2.309s2.007-.788,2.079-2.209c.058-1.136.01-2.276.021-3.415,0-.3-.111-.721.4-.73,1.951-.035,3.95-.187,5.534,1.289a8.963,8.963,0,0,1,2.244,4.049c.657,2.087.438,4.251.46,6.392.007.682-.519.45-.848.452C-1306.04,1899.311-1309.325,1899.305-1312.611,1899.305Z" transform="translate(-49.058 -184.35)" fill="#ffee58"/>
    <path id="Trazado_170191" data-name="Trazado 170191" d="M-1154.343,1679.994c0,.762-.016,1.5,0,2.237.037,1.41.842,2.323,1.992,2.287,1.131-.035,1.849-.911,1.865-2.291.009-.738,0-1.476,0-2.233a4.947,4.947,0,0,1,3.507,4.4c.082,3.866.031,7.736.055,11.6,0,.5-.2.589-.639.588-3.218-.012-6.436-.019-9.655,0-.58,0-.7-.219-.7-.744.019-3.608-.02-7.217.023-10.824A5.188,5.188,0,0,1-1154.343,1679.994Zm3.877,10.347a1.96,1.96,0,0,0-1.929-1.921,1.946,1.946,0,0,0-1.915,1.938,2,2,0,0,0,1.967,1.9A1.823,1.823,0,0,0-1150.466,1690.34Z" transform="translate(-182.134 -17.881)" fill="#8f8f94"/>
    <path id="Trazado_170192" data-name="Trazado 170192" d="M-1277.688,1843.549c-.009,2.4-1.3,3.828-3.362,3.7a3.049,3.049,0,0,1-2.869-2.992c0-.25-.1-.583.324-.539,1.693.178,3.138-.637,4.667-1.129C-1277.69,1842.191-1277.683,1842.211-1277.688,1843.549Z" transform="translate(-80.779 -148.468)" fill="#ffd494"/>
    <path id="Trazado_170193" data-name="Trazado 170193" d="M-1277.792,1817.375a20.846,20.846,0,0,0-4.059,1.242,2.443,2.443,0,0,1-.856.1c-.494.007-.595-.148-.416-.64C-1282.342,1815.926-1279.51,1815.464-1277.792,1817.375Z" transform="translate(-81.362 -127.403)" fill="#111e61"/>
    <path id="Trazado_170194" data-name="Trazado 170194" d="M-1120.394,1845.168q9.8,0,19.609,0c1.665,0,2.621,1.117,2.2,2.516a1.815,1.815,0,0,1-1.24,1.259,4.12,4.12,0,0,1-1.35.14h-38.535c-1.829,0-2.787-.7-2.753-2.013.032-1.273.943-1.9,2.75-1.9Z" transform="translate(-194.556 -150.722)" fill="#020202"/>
    <path id="Trazado_170195" data-name="Trazado 170195" d="M-1124.416,1810.2q-7.8,0-15.607,0c-1.5,0-2.406-.751-2.408-1.96a1.912,1.912,0,0,1,1.439-1.858,3.9,3.9,0,0,1,.965-.093q15.655-.007,31.311,0c1.284,0,2.06.47,2.317,1.371a1.976,1.976,0,0,1-2.118,2.538c-1.788.029-3.576.007-5.365.007Z" transform="translate(-194.581 -119.45)" fill="#020202"/>
    <path id="Trazado_170196" data-name="Trazado 170196" d="M-1133.95,1881.056h7.9a1.927,1.927,0,0,1,1.934,1.218,1.843,1.843,0,0,1-.333,2,2.108,2.108,0,0,1-1.657.688c-5.234.008-10.469.02-15.7-.006a1.98,1.98,0,0,1-2.136-2.034,1.98,1.98,0,0,1,2.192-1.867C-1139.152,1881.043-1136.551,1881.055-1133.95,1881.056Z" transform="translate(-193.361 -179.582)" fill="#020202"/>
    <path id="Trazado_170197" data-name="Trazado 170197" d="M-1008.324,1881.05c2.568,0,5.136-.017,7.7.008a1.918,1.918,0,0,1,2.09,2.136c-.1,1.12-.953,1.767-2.382,1.771-3.706.009-7.411,0-11.117,0-1.333,0-2.666.018-4-.005-1.407-.024-2.28-.823-2.253-2.011.026-1.154.878-1.89,2.253-1.9C-1013.46,1881.04-1010.892,1881.049-1008.324,1881.05Z" transform="translate(-294.428 -179.577)" fill="#020202"/>
    <path id="Trazado_170198" data-name="Trazado 170198" d="M-936.378,1807.217a1.94,1.94,0,0,1,1.909,2.018,1.943,1.943,0,0,1-1.941,1.892,2.062,2.062,0,0,1-1.968-2.1A1.886,1.886,0,0,1-936.378,1807.217Z" transform="translate(-358.689 -120.2)" fill="#020202"/>
    <path id="Trazado_170199" data-name="Trazado 170199" d="M-1097.351,1986.513a5.548,5.548,0,0,1,5.539-5.61,5.644,5.644,0,0,1,5.616,5.575,5.657,5.657,0,0,1-5.533,5.566A5.553,5.553,0,0,1-1097.351,1986.513Zm5.556-1.68a1.588,1.588,0,0,0-1.614,1.59,1.608,1.608,0,0,0,1.616,1.694,1.7,1.7,0,0,0,1.649-1.7A1.678,1.678,0,0,0-1091.795,1984.833Z" transform="translate(-230.836 -259.888)" fill="#020202"/>
    <path id="Trazado_170200" data-name="Trazado 170200" d="M-951.173,1986.437a5.576,5.576,0,0,1-5.558,5.6,5.609,5.609,0,0,1-5.585-5.589,5.6,5.6,0,0,1,5.52-5.552A5.572,5.572,0,0,1-951.173,1986.437Zm-5.548-1.626a1.685,1.685,0,0,0-1.685,1.664,1.7,1.7,0,0,0,1.6,1.656,1.676,1.676,0,0,0,1.724-1.621A1.653,1.653,0,0,0-956.721,1984.81Z" transform="translate(-339.438 -259.886)" fill="#020202"/>
    <path id="Trazado_170201" data-name="Trazado 170201" d="M-1018.742,1986.424a5.553,5.553,0,0,1-5.535,5.617,5.644,5.644,0,0,1-5.615-5.577,5.641,5.641,0,0,1,5.526-5.564A5.548,5.548,0,0,1-1018.742,1986.424Zm-3.927,0a1.609,1.609,0,0,0-1.7-1.605,1.7,1.7,0,0,0-1.6,1.642,1.712,1.712,0,0,0,1.685,1.661A1.623,1.623,0,0,0-1022.669,1986.427Z" transform="translate(-285.09 -259.886)" fill="#020202"/>
    <path id="Trazado_170202" data-name="Trazado 170202" d="M-1135.687,1724.96a1.823,1.823,0,0,1-1.877,1.92,2,2,0,0,1-1.967-1.9,1.946,1.946,0,0,1,1.915-1.938A1.96,1.96,0,0,1-1135.687,1724.96Z" transform="translate(-196.912 -52.501)" fill="#020202"/>
    <path id="Trazado_170203" data-name="Trazado 170203" d="M-1075.6,2000.98a1.678,1.678,0,0,1,1.651,1.588,1.7,1.7,0,0,1-1.649,1.7,1.608,1.608,0,0,1-1.616-1.694A1.588,1.588,0,0,1-1075.6,2000.98Z" transform="translate(-247.03 -276.035)" fill="#ffee58"/>
    <path id="Trazado_170204" data-name="Trazado 170204" d="M-940.659,2000.878a1.653,1.653,0,0,1,1.638,1.7,1.676,1.676,0,0,1-1.724,1.621,1.7,1.7,0,0,1-1.6-1.656A1.685,1.685,0,0,1-940.659,2000.878Z" transform="translate(-355.5 -275.953)" fill="#111e61"/>
    <path id="Trazado_170205" data-name="Trazado 170205" d="M-1006.535,2002.532a1.623,1.623,0,0,1-1.611,1.7,1.712,1.712,0,0,1-1.685-1.661,1.7,1.7,0,0,1,1.6-1.642A1.609,1.609,0,0,1-1006.535,2002.532Z" transform="translate(-301.224 -275.991)" fill="#ffee58"/>
  </g>
</svg>
