<svg xmlns="http://www.w3.org/2000/svg" width="610" height="427.982" viewBox="0 0 610 427.982">
  <g id="Grupo_84992" data-name="Grupo 84992" transform="translate(-59.365 -46)">
    <path id="Trazado_147769" data-name="Trazado 147769" d="M77.744,446.475H647.211c9.881,0,18.267-13.315,19.667-31.261,5.24-67.119,8.936-223.476-62.793-279.671-35.84-28.078.469,40.2-38.076,11.561s-41.858-60.6-98.613-85.5C424.263,42.689,330.146,34.263,236.833,78.7c-67.936,32.352-14.385,53.334-26.353,56.842-48.025,14.081-81.883-12.213-110.9,35.684C84.286,196.476,31.953,338.727,77.744,446.475Z" transform="translate(0 -0.088)" fill="#ffd495"/>
    <g id="Grupo_84956" data-name="Grupo 84956" transform="translate(495.525 46)">
      <path id="Trazado_147770" data-name="Trazado 147770" d="M722.636,304.027s-33.168-18.894-30.6-36.6,14.937-8.528,14.623-24-18.766-21.768-4.783-43.418,32.009-17.482,36.494-31.135,3.856-41.814,14.107-68.265,40.773-59.722,64.665-53.952S804.1,117.486,805.8,128.794s15.894,1.82,13.857,27.741-42.159,58.335-33.207,80.953-19.327,47.675-37.038,56.2S722.636,304.027,722.636,304.027Z" transform="translate(-691.893 -46)" fill="#536efa"/>
      <path id="Trazado_147771" data-name="Trazado 147771" d="M810.695,81.02c-12.337,31.572-32.936,94.823-33.766,96.912S750.1,257.779,750.1,257.779l-12.944,47.037c2.047-.482,10.905-2.815,26.312-10.232,17.711-8.527,45.99-33.585,37.038-56.2s31.17-55.032,33.207-80.953S821.557,141,819.854,129.688c-1.616-10.734,31.579-69.9,14.51-80.807C825.295,56.869,815.922,67.644,810.695,81.02Z" transform="translate(-705.945 -46.894)" fill="#1738e2"/>
      <path id="Trazado_147772" data-name="Trazado 147772" d="M745.354,310.916s-38.16-34.789-39.85-32.141c-7.175,11.244,38.4,37.041,38.4,37.041Z" transform="translate(-695.881 -118.22)" fill="#768cff"/>
      <path id="Trazado_147773" data-name="Trazado 147773" d="M708.015,315.656l20.6,16.69-19.147-6.84c-.379,4.217-2.012,6.052-4.07,7.4l30.044,15.582,5.379-18.579-39.632-27.727C703.084,306.807,706.169,310.906,708.015,315.656Z" transform="translate(-694.778 -125.532)" fill="#768cff"/>
      <path id="Trazado_147774" data-name="Trazado 147774" d="M776.913,286.761,807.747,275.2l-33.817,2.867-7.131,26.8,39.418-4.679.962-5.6-23.523,3.031,23.871-6.151s2.75-9.146,4.991-11.119Z" transform="translate(-715.148 -117.155)" fill="#536efa"/>
      <path id="Trazado_147775" data-name="Trazado 147775" d="M787.826,217.631s50.222-13.075,50.729-13.315,7.313-6.434,7.313-6.434l1.415-13.751-37.434,19.478,34.064-22.472-40.929,11,39.85-20.573s-5.812-3.416-6.9-5.416L819.418,176.52,834.171,162.2a26.569,26.569,0,0,1,2.166-14.854l-5.58,2.413a49.3,49.3,0,0,0-25.473,25.2l-3.794,8.524Z" transform="translate(-721.676 -77.464)" fill="#536efa"/>
      <path id="Trazado_147776" data-name="Trazado 147776" d="M761.566,274.295s-22.147-37.318-18.759-39.1a30.13,30.13,0,0,0,4.6-2.86c1.561-1.005,2.335-2.685,3.694.649s10.365,23.446,10.365,23.446-8.39-27.445-7.749-29.1,2.8-8.186,2.911-9.733,7.351,24.325,7.751,26.325,2.643,15.285,2.643,15.285Z" transform="translate(-707.59 -99.251)" fill="#768cfe"/>
      <path id="Trazado_147777" data-name="Trazado 147777" d="M831.508,47.471c-2.218,1.935-4.643,4.012-7.315,6.25-17.088,14.314-29.431,55.026-39.35,87.738-4.039,13.32-7.526,24.823-10.569,31.82-10.1,23.214-37.6,122.023-39.9,130.338.921.563,1.453.866,1.453.866s.617-.125,1.818-.45c2.87-10.312,29.9-107.086,39.624-129.452,3.119-7.171,6.633-18.758,10.7-32.175,9.275-30.593,21.979-72.493,38.322-86.183,3.031-2.539,5.756-4.878,8.213-7.031A9.375,9.375,0,0,0,831.508,47.471Z" transform="translate(-705.08 -46.457)" fill="#768cfe"/>
      <path id="Trazado_147778" data-name="Trazado 147778" d="M782.869,201.334s-15.9-28.719-16.1-32.008.965-12.3.965-12.3l11.617,26.708L775.2,170.324l7.517,8.484L771.67,147.548l2.708-14.685,16.117,21s-15.031-25.749-14.621-27.4,4.787-11.679,4.787-11.679l20.968,29.557Z" transform="translate(-715.133 -67.354)" fill="#768cfe"/>
    </g>
    <g id="Grupo_84957" data-name="Grupo 84957" transform="translate(536.517 170.561)">
      <path id="Trazado_147779" data-name="Trazado 147779" d="M762.015,385.636s-16.631-25.892-8.375-41.961,40.475-25.089,43.325-38.6,10.75-29.509,21.776-37.256,17.675-52.245,35.19-38.593,15.035,78.858-6.684,109.077S771.472,388.555,762.015,385.636Z" transform="translate(-751.34 -226.641)" fill="#536efa"/>
      <path id="Trazado_147780" data-name="Trazado 147780" d="M859.542,229.226c-4.87-3.8-8.9-3.092-12.418.064a209.129,209.129,0,0,1,.005,30.146c-1.876,23.254-1.083,40.429-14.234,51.651s-50.528,49.272-55.227,60.249a112.349,112.349,0,0,1-8.252,14.565c13.1.581,62.83-18.921,83.442-47.6C874.577,308.084,877.058,242.879,859.542,229.226Z" transform="translate(-756.952 -226.641)" fill="#1738e2"/>
      <path id="Trazado_147781" data-name="Trazado 147781" d="M849.84,227.258a10.58,10.58,0,0,0-3.41,2.076c-1.033,15.431-3.084,45.871-4.094,59.615-.917,12.469-11.3,21.656-24.445,33.286-5.867,5.191-12.517,11.075-19.043,17.926-15.567,16.342-27.172,36.155-32.209,45.465l.126.2a10.062,10.062,0,0,0,3.342.251c5.231-9.541,16.368-28.2,31.1-43.666,6.431-6.75,13.025-12.585,18.843-17.732,13.7-12.122,24.522-21.7,25.537-35.491C846.655,274.716,848.87,241.754,849.84,227.258Z" transform="translate(-756.09 -226.832)" fill="#768cfe"/>
      <path id="Trazado_147782" data-name="Trazado 147782" d="M789.676,395.1s-3.8-30.857-2.948-32.83,4.962-4.319,4.962-4.319l1.645,22.135,2.249-24.854s7.656-4.717,8.51-6,.339,19.068.339,19.068,2.249-20.694,2.862-22.48,2.883-7.093,2.883-7.093l1.534,32Z" transform="translate(-762.288 -261.438)" fill="#768cfe"/>
      <path id="Trazado_147783" data-name="Trazado 147783" d="M829.538,350.838s-5.064-30.05-4.783-32.787,4.428-12.069,4.428-12.069l3.619,18.136s-3.015-20.2-2.107-22.135,5.034-7.2,5.034-7.2l2.555,12.8s-1.008-14.312-.154-15.592,5.085-2.772,5.085-2.772,4.517,43.009.746,47.275S829.538,350.838,829.538,350.838Z" transform="translate(-774.128 -246.069)" fill="#768cfe"/>
    </g>
    <g id="Grupo_84960" data-name="Grupo 84960" transform="translate(186.598 159.34)">
      <path id="Trazado_147914" data-name="Trazado 147914" d="M0,0H261.8V286.751H0Z" transform="translate(0)" fill="#cb7908"/>
      <g id="Grupo_84959" data-name="Grupo 84959" transform="translate(35.015 0)">
        <rect id="Rectángulo_32439" data-name="Rectángulo 32439" width="3.691" height="71.627" transform="translate(0 215.124)" fill="#ffc7c7"/>
        <g id="Grupo_84958" data-name="Grupo 84958">
          <path id="Trazado_147784" data-name="Trazado 147784" d="M294.66,210.368V440.84H525.132V210.368Zm226.781,45.356H479.777V214.059h41.665ZM389.064,346.437V304.772h41.665v41.665Zm41.665,3.691v41.665H389.064V350.128Zm-45.356-3.691H343.708V304.772h41.665Zm3.691-45.357V259.415h41.665V301.08Zm45.357,3.691h41.665v41.665H434.421Zm0-3.691V259.415h41.665V301.08Zm0-45.357V214.059h41.665v41.665Zm-3.692,0H389.064V214.059h41.665Zm-45.356,0H343.708V214.059h41.665Zm0,3.691V301.08H343.708V259.415ZM340.016,301.08H298.351V259.415h41.665Zm0,3.691v41.665H298.351V304.772Zm0,45.357v41.665H298.351V350.128Zm3.692,0h41.665v41.665H343.708Zm41.665,45.356v41.665H343.708V395.484Zm3.691,0h41.665v41.665H389.064Zm45.357,0h41.665v41.665H434.421Zm0-3.691V350.128h41.665v41.665Zm45.356-41.665h41.665v41.665H479.777Zm0-3.691V304.772h41.665v41.665Zm0-45.357V259.415h41.665V301.08ZM340.016,214.059v41.665H298.351V214.059ZM298.351,395.484h41.665v41.665H298.351Zm181.425,41.665V395.484h41.665v41.665Z" transform="translate(-294.66 -210.368)" fill="#fa960b"/>
          <path id="Trazado_147785" data-name="Trazado 147785" d="M341.678,215.721l-41.665,41.665V215.721Z" transform="translate(-296.322 -212.03)" fill="#a86405"/>
          <path id="Trazado_147786" data-name="Trazado 147786" d="M407.455,215.721,365.79,257.386V215.721Z" transform="translate(-316.742 -212.03)" fill="#a86405"/>
          <path id="Trazado_147787" data-name="Trazado 147787" d="M473.231,215.721l-41.665,41.665V215.721Z" transform="translate(-337.163 -212.03)" fill="#a86405"/>
          <path id="Trazado_147788" data-name="Trazado 147788" d="M539.008,215.721l-41.665,41.665V215.721Z" transform="translate(-357.583 -212.03)" fill="#a86405"/>
          <path id="Trazado_147789" data-name="Trazado 147789" d="M604.784,215.721l-41.665,41.665V215.721Z" transform="translate(-378.003 -212.03)" fill="#a86405"/>
          <path id="Trazado_147790" data-name="Trazado 147790" d="M341.679,281.5l-41.665,41.665V281.5Z" transform="translate(-296.322 -232.45)" fill="#a86405"/>
          <path id="Trazado_147791" data-name="Trazado 147791" d="M407.456,281.5l-41.665,41.665V281.5Z" transform="translate(-316.743 -232.45)" fill="#a86405"/>
          <path id="Trazado_147792" data-name="Trazado 147792" d="M473.232,281.5l-41.665,41.665V281.5Z" transform="translate(-337.163 -232.45)" fill="#a86405"/>
          <path id="Trazado_147793" data-name="Trazado 147793" d="M539.009,281.5l-41.665,41.665V281.5Z" transform="translate(-357.583 -232.45)" fill="#a86405"/>
          <path id="Trazado_147794" data-name="Trazado 147794" d="M604.785,281.5,563.12,323.163V281.5Z" transform="translate(-378.003 -232.45)" fill="#a86405"/>
          <path id="Trazado_147795" data-name="Trazado 147795" d="M341.68,347.274l-41.665,41.665V347.274Z" transform="translate(-296.323 -252.871)" fill="#a86405"/>
          <path id="Trazado_147796" data-name="Trazado 147796" d="M407.457,347.274l-41.665,41.665V347.274Z" transform="translate(-316.743 -252.871)" fill="#a86405"/>
          <path id="Trazado_147797" data-name="Trazado 147797" d="M473.233,347.274l-41.665,41.665V347.274Z" transform="translate(-337.163 -252.871)" fill="#a86405"/>
          <path id="Trazado_147798" data-name="Trazado 147798" d="M539.01,347.274l-41.665,41.665V347.274Z" transform="translate(-357.583 -252.871)" fill="#a86405"/>
          <path id="Trazado_147799" data-name="Trazado 147799" d="M604.786,347.274l-41.665,41.665V347.274Z" transform="translate(-378.004 -252.871)" fill="#d95f76"/>
          <path id="Trazado_147800" data-name="Trazado 147800" d="M341.681,413.051l-41.665,41.665V413.051Z" transform="translate(-296.323 -273.291)" fill="#d95f76"/>
          <path id="Trazado_147801" data-name="Trazado 147801" d="M407.458,413.051l-41.665,41.665V413.051Z" transform="translate(-316.743 -273.291)" fill="#d95f76"/>
          <path id="Trazado_147802" data-name="Trazado 147802" d="M473.234,413.051l-41.665,41.665V413.051Z" transform="translate(-337.163 -273.291)" fill="#d95f76"/>
          <path id="Trazado_147803" data-name="Trazado 147803" d="M539.011,413.051l-41.665,41.665V413.051Z" transform="translate(-357.584 -273.291)" fill="#d95f76"/>
          <path id="Trazado_147804" data-name="Trazado 147804" d="M604.787,413.051l-41.665,41.665V413.051Z" transform="translate(-378.004 -273.291)" fill="#d95f76"/>
          <path id="Trazado_147805" data-name="Trazado 147805" d="M341.682,478.828l-41.665,41.665V478.828Z" transform="translate(-296.323 -293.711)" fill="#d95f76"/>
          <path id="Trazado_147806" data-name="Trazado 147806" d="M407.459,478.828l-41.665,41.665V478.828Z" transform="translate(-316.744 -293.711)" fill="#d95f76"/>
          <path id="Trazado_147807" data-name="Trazado 147807" d="M473.235,478.828,431.57,520.492V478.828Z" transform="translate(-337.164 -293.711)" fill="#d95f76"/>
          <path id="Trazado_147808" data-name="Trazado 147808" d="M539.012,478.828l-41.665,41.665V478.828Z" transform="translate(-357.584 -293.711)" fill="#d95f76"/>
          <path id="Trazado_147809" data-name="Trazado 147809" d="M604.788,478.828l-41.665,41.665V478.828Z" transform="translate(-378.004 -293.711)" fill="#d95f76"/>
        </g>
      </g>
    </g>
    <g id="Grupo_84969" data-name="Grupo 84969" transform="translate(263.792 182.006)">
      <path id="Trazado_147810" data-name="Trazado 147810" d="M406.917,244.325a6.654,6.654,0,0,0-6.756-.347c-7.5,3.538-9.354,26.828-16.9,35.429-5.965,6.8,5.954,21.956,19.073,16.362C415.37,290.212,418.86,238.254,406.917,244.325Z" transform="translate(-363.856 -243.238)" fill="#111e61"/>
      <g id="Grupo_84962" data-name="Grupo 84962" transform="translate(43.714 84.413)">
        <g id="Grupo_84961" data-name="Grupo 84961" transform="translate(11.265 157.37)">
          <path id="Trazado_147811" data-name="Trazado 147811" d="M439.582,598.521c1.414,1.255,7.148,8.649,9.157,8.838a7.827,7.827,0,0,0,2.557-.172c-1.284-.994-2.7-3.346-4-5.911a16.131,16.131,0,0,1-1.4-7.4l-6.272.33a2.85,2.85,0,0,0-2.647,2.319,11.064,11.064,0,0,1-.251,1.125A4.15,4.15,0,0,1,439.582,598.521Z" transform="translate(-435.92 -593.876)" fill="#ff6161"/>
          <path id="Trazado_147812" data-name="Trazado 147812" d="M456.131,611.649a12.736,12.736,0,0,0-4.471-2.344,2.614,2.614,0,0,1-.725-.419,7.829,7.829,0,0,1-2.557.172c-2.009-.189-7.743-7.583-9.157-8.838a4.15,4.15,0,0,0-2.861-.871c-.421,1.232-1.052,3.446-.7,4.834.514,2,1.754,7.729,1.565,9.528l2.509-.016-.032-5.221a3.853,3.853,0,0,1,2.917.886,6.994,6.994,0,0,1,1.056,1.845,4.077,4.077,0,0,0,3.782,2.443l7.89-.048A1.132,1.132,0,0,0,456.131,611.649Z" transform="translate(-435.56 -595.574)" fill="#ffb0b0"/>
        </g>
        <path id="Trazado_147813" data-name="Trazado 147813" d="M448.624,377.763c.451,1.61,5.718,44.108-7.672,149.71-.422,3.328-9.9-1.3-12.708-7.276-7.557-16.08-12.978-50.417-5.3-81.351,4.125-16.621,1.329-36.4,2.454-44.261,1-6.977,3.994-20.6,7.6-27.355C435.5,362.522,446.187,369.06,448.624,377.763Z" transform="translate(-419.224 -365.655)" fill="#ff6161"/>
        <path id="Trazado_147814" data-name="Trazado 147814" d="M455.071,406.908c-4.994,6.065-15.133,19.71-15.2,30.618-.085,14.477.086,40.275,0,47.513s-5.17,12.22-3.333,24.5c3.333,22.272,9.473,32.242,9.663,30.741C455.093,470.177,455.759,427.892,455.071,406.908Z" transform="translate(-424.476 -378.462)" fill="#ad263d"/>
        <path id="Trazado_147815" data-name="Trazado 147815" d="M441.313,504.552c1.568-8.079-12.1-3.859-21.87.09-.212,3.957-.26,7.88-.165,11.724C426.263,515.847,439.546,513.658,441.313,504.552Z" transform="translate(-419.226 -407.347)" fill="#311e69"/>
      </g>
      <g id="Grupo_84964" data-name="Grupo 84964" transform="translate(18.421 85.341)">
        <g id="Grupo_84963" data-name="Grupo 84963" transform="translate(6.748 156.903)">
          <path id="Trazado_147816" data-name="Trazado 147816" d="M396.352,599.191c1.413,1.255,7.148,8.65,9.157,8.838a7.805,7.805,0,0,0,2.556-.171c-1.283-.994-2.7-3.346-4-5.911a16.133,16.133,0,0,1-1.4-7.4l-6.272.331a2.849,2.849,0,0,0-2.647,2.318,11.217,11.217,0,0,1-.251,1.126A4.151,4.151,0,0,1,396.352,599.191Z" transform="translate(-392.69 -594.546)" fill="#ff6161"/>
          <path id="Trazado_147817" data-name="Trazado 147817" d="M412.9,612.32a12.739,12.739,0,0,0-4.472-2.344,2.662,2.662,0,0,1-.725-.419,7.807,7.807,0,0,1-2.556.171c-2.009-.188-7.744-7.583-9.157-8.838a4.151,4.151,0,0,0-2.861-.87c-.421,1.232-1.052,3.445-.7,4.833.514,2,1.754,7.73,1.564,9.528l2.51-.015-.032-5.221a3.855,3.855,0,0,1,2.917.885,7,7,0,0,1,1.056,1.845,4.075,4.075,0,0,0,3.782,2.442l7.89-.048A1.131,1.131,0,0,0,412.9,612.32Z" transform="translate(-392.33 -596.245)" fill="#ffb0b0"/>
        </g>
        <path id="Trazado_147818" data-name="Trazado 147818" d="M421.386,380.294c.3,1.646,1.488,44.452-21.9,148.3-.737,3.273-9.73-2.233-11.957-8.454-5.99-16.728-8.113-51.425,2.476-81.486,5.69-16.152,4.792-36.105,6.662-43.825,1.659-6.851,5.939-20.13,10.168-26.507C409.779,363.871,419.79,371.4,421.386,380.294Z" transform="translate(-382.544 -367.001)" fill="#ff6161"/>
        <path id="Trazado_147819" data-name="Trazado 147819" d="M425.609,410.029c-5.55,5.561-16.943,18.178-18.047,29.031-1.465,14.4-3.753,40.1-4.528,47.3s-6.311,11.671-5.652,24.069c1.2,22.488,6.357,33,6.689,31.522C419.6,473.012,424.293,430.983,425.609,410.029Z" transform="translate(-387.133 -380.359)" fill="#ad263d"/>
        <path id="Trazado_147820" data-name="Trazado 147820" d="M406.172,505.824c2.331-7.893-11.677-4.994-21.779-2-.588,3.92-1.009,7.819-1.282,11.656C390.114,515.633,403.545,514.72,406.172,505.824Z" transform="translate(-382.72 -408.519)" fill="#311e69"/>
      </g>
      <path id="Trazado_147821" data-name="Trazado 147821" d="M430.261,277.532c9.867,7.044,23.183,26.748,27.486,25.241,5.171-1.81,16.315-25.471,22.883-22.035,6.2,3.244-6.587,37.232-21.155,39.918-19.394,3.575-37.2-34.089-38.178-37.964C419.3,274.826,426.516,274.86,430.261,277.532Z" transform="translate(-376.047 -253.383)" fill="#ffd494"/>
      <path id="Trazado_147822" data-name="Trazado 147822" d="M408.607,244.115c.893,2.963,1.443,7.473-1.352,11.564-2.982,4.364-12.572,10.9-19.123,15.067a30.465,30.465,0,0,1-4.868,8.933c-5.965,6.8,5.954,21.956,19.073,16.362C414.711,290.763,418.482,243.664,408.607,244.115Z" transform="translate(-363.856 -243.509)" fill="#070e34"/>
      <g id="Grupo_84965" data-name="Grupo 84965" transform="translate(44.906 22.533)">
        <path id="Trazado_147823" data-name="Trazado 147823" d="M448.651,296.14c-5.643-6.007-12.608-14.481-18.391-18.608-3.745-2.673-10.962-2.706-8.965,5.161.621,2.447,7.955,18.376,18.16,28.878C445.73,307.648,447.9,300.512,448.651,296.14Z" transform="translate(-420.953 -275.916)" fill="#d8e7eb"/>
      </g>
      <path id="Trazado_147825" data-name="Trazado 147825" d="M436.656,320.314a114.429,114.429,0,0,1-5.086-11.093c-1.916-8.506-4.017-13.366-3.5-14.955,1.808-5.5,1.491-9.319.924-10.371a13.93,13.93,0,0,0-1.976-2.323c-1.249-1.211-5.342-5-8.332-6.395-10.379-4.833-20.849,1.06-21.482,4.388-.648,3.4,4.147,17.852,4.856,21.7a19.825,19.825,0,0,1,.253,6.943c-.225.807-2.331,4.654-5.078,9.5C402.824,319.18,419.888,323.055,436.656,320.314Z" transform="translate(-368.657 -252.585)" fill="#f0f8fa"/>
      <path id="Trazado_147826" data-name="Trazado 147826" d="M442.089,321.106a120.509,120.509,0,0,1-5.475-11.86c-1.916-8.506-4.017-13.366-3.5-14.955,1.808-5.5,1.491-9.319.924-10.371a13.93,13.93,0,0,0-1.976-2.323c-1.249-1.211-5.342-5-8.333-6.395a19.443,19.443,0,0,0-6.779-1.774c3.339,2.866,9.463,8.286,10.889,10.663,1.985,3.308,1.853,8.535-3.506,9.4s-11.538-.463-10.9,2.911,14.536,8.2,16.256,12.439,1.522,14.556,6.484,19.981c2.8,3.066,7.4,5.054,10.875,6.2A77.478,77.478,0,0,0,442.089,321.106Z" transform="translate(-373.7 -252.611)" fill="#d8e7eb"/>
      <path id="Trazado_147827" data-name="Trazado 147827" d="M425.033,341.05c-.131-.256-.259-.511-.389-.766-16.768,2.741-33.833-1.134-39.417-2.612-5.03,8.869-12.212,21.084-13.956,24.116a36.341,36.341,0,0,0-5.054,18.7c.141,7.673,6.792,53.546-7.764,77.286,20.562,4.083,35.062,6.386,48.96,4.277,16.36-2.482,23.418-8.39,25.135-8.888C442.613,383.225,428.173,347.19,425.033,341.05Z" transform="translate(-356.644 -272.555)" fill="#111e61"/>
      <path id="Trazado_147828" data-name="Trazado 147828" d="M450.308,454.343c10.065-69.942-4.375-105.978-7.516-112.117-.131-.256-.259-.511-.389-.766a80.308,80.308,0,0,1-15.625.9c.743,4.672,1.76,9.994,3.157,15.785,5.029,20.839.265,33.807-6.351,56.3-3.857,13.115-6.441,34.232-7.926,49.566a71.877,71.877,0,0,0,9.514-.781C441.533,460.749,448.591,454.841,450.308,454.343Z" transform="translate(-374.403 -273.731)" fill="#07103e"/>
      <path id="Trazado_147829" data-name="Trazado 147829" d="M393.1,287.6c-4.855,13.118-21.386,33.307-19.024,37.912,2.838,5.534,28.951,3.672,26.945,12.1-1.894,7.957-38.451,10.435-44.086-5.743-7.5-21.537,25.677-51.287,29.266-53.368C393.481,274.27,394.938,282.617,393.1,287.6Z" transform="translate(-355.829 -253.825)" fill="#ffd494"/>
      <path id="Trazado_147830" data-name="Trazado 147830" d="M413.5,261.039l1.632,6.546c.352,1.434,6.522,5.264,2.649,7.56-1.445.856-7.508-3.278-7.234-4.918l-.06-7.9Z" transform="translate(-372.798 -248.764)" fill="#ffd494"/>
      <path id="Trazado_147831" data-name="Trazado 147831" d="M402.945,304.872c.071.388.134.78.193,1.174,5.114-5.171,3.666-21.066,3.666-21.066l-6.816,8.8C401.2,298.323,402.589,302.939,402.945,304.872Z" transform="translate(-369.538 -256.197)" fill="#311e69"/>
      <path id="Trazado_147832" data-name="Trazado 147832" d="M415.368,266.524l.689,2.764a.893.893,0,0,0,.049.14c-1.1-.234-2.453-.722-2.63-1.722C413.331,266.893,414.306,266.6,415.368,266.524Z" transform="translate(-373.721 -250.467)" fill="#ffb74d"/>
      <path id="Trazado_147833" data-name="Trazado 147833" d="M378.463,333.094c-1.993-3.885,9.455-18.854,16-31.317-6.736,5.4-21.119,17.1-22.752,19.662-2.141,3.365-2.935,8.131,1.365,11.491,1.838,1.435,5.149,2.071,8.339,2.329A5.462,5.462,0,0,1,378.463,333.094Z" transform="translate(-360.221 -261.412)" fill="#ffc571"/>
      <path id="Trazado_147834" data-name="Trazado 147834" d="M505.233,283.8s-.353,3.079.727,4.352,4.081.911,4.345.148-.705-3.639-.705-3.639Z" transform="translate(-402.194 -255.832)" fill="#ffd494"/>
      <g id="Grupo_84967" data-name="Grupo 84967" transform="translate(36.05 6.266)">
        <path id="Trazado_147835" data-name="Trazado 147835" d="M410.606,257.225a5.152,5.152,0,0,0,2.849,6.576,4.419,4.419,0,0,0,6-3.1c.856-2.708-.652-5.477-1.123-6.866-.7-2.079-1.871-1.993-3.331.123C414.131,255.225,410.606,257.225,410.606,257.225Z" transform="translate(-408.787 -252.325)" fill="#ffd494"/>
        <path id="Trazado_147836" data-name="Trazado 147836" d="M410.1,259.066a4.3,4.3,0,0,1-.31-.861c-.147-.563-.5-1.367-1.225-.738-1.06.915-.113,3.874,1.339,3.739C410.98,261.108,410.444,259.755,410.1,259.066Z" transform="translate(-408.11 -253.85)" fill="#ffd494"/>
        <path id="Trazado_147837" data-name="Trazado 147837" d="M418.769,261.814a8.624,8.624,0,0,0,3.012-.43,1.858,1.858,0,0,1-.473,1.32C420.694,263.223,419.468,263.2,418.769,261.814Z" transform="translate(-411.419 -255.138)" fill="#fff"/>
        <g id="Grupo_84966" data-name="Grupo 84966" transform="translate(1.647 7.928)">
          <path id="Trazado_147838" data-name="Trazado 147838" d="M414.03,266.327a6.757,6.757,0,0,0,3.747-.3,6.99,6.99,0,0,0,1.783-1.9c-.014.05-.023.1-.039.15a4.419,4.419,0,0,1-6,3.1,4.946,4.946,0,0,1-3.022-3.548A6.392,6.392,0,0,0,414.03,266.327Z" transform="translate(-410.498 -263.823)" fill="#ffc571"/>
        </g>
      </g>
      <path id="Trazado_147839" data-name="Trazado 147839" d="M410.262,272.58s5.184,4.319,6.048,3.87c.823-.428-.235-3.7-.235-3.7a7.358,7.358,0,0,1,2.7,1.767l1.933,4.328-2.893-.32-2.331,1.665s-5.891-3.738-5.891-5A6.969,6.969,0,0,1,410.262,272.58Z" transform="translate(-372.52 -252.347)" fill="#fff"/>
      <g id="Grupo_84968" data-name="Grupo 84968" transform="translate(6.098 23.514)">
        <path id="Trazado_147840" data-name="Trazado 147840" d="M379.068,317.576c4.393-8.343,13.4-20.866,16.772-29.981,1.842-4.979.385-13.325-6.9-9.1-2.244,1.3-16.066,13.429-24.269,27.6C366.3,310.195,370.252,316.69,379.068,317.576Z" transform="translate(-364.672 -277.339)" fill="#f0f8fa"/>
      </g>
      <path id="Trazado_147841" data-name="Trazado 147841" d="M509.9,286.742c-1.765-.043-5.249,7.1-4.764,9.4s4.764,2.338,4.764,2.338,4.279-.044,4.763-2.338S511.663,286.7,509.9,286.742Z" transform="translate(-402.167 -256.744)" fill="#bf7d3b"/>
      <path id="Trazado_147842" data-name="Trazado 147842" d="M395.156,277.358c.227,1.833,1.039,10-2.085,12.857-3.529,3.229-3.529-1.563-7.058,5.313s-5.558,11.355-8.381,13.855a66.6,66.6,0,0,0-5.137,4.474,16.107,16.107,0,0,0,9,3.724c4.393-8.343,13.4-20.866,16.772-29.981C399.731,283.651,399.112,277.587,395.156,277.358Z" transform="translate(-361.003 -253.831)" fill="#d8e7eb"/>
      <path id="Trazado_147843" data-name="Trazado 147843" d="M516.3,292.091a2.531,2.531,0,1,0-3.046,3.012l1.423,6.309a.72.72,0,0,0,.86.544l.186-.042a.721.721,0,0,0,.454-.324l.432-.7a.719.719,0,0,0,.09-.536l-.232-1.026-.516.117-.092-.409.516-.116-.155-.689-.559.126.462-.556-.8-.543.645-.145-.563-2.494A2.522,2.522,0,0,0,516.3,292.091Zm-2.88-1.267a.59.59,0,1,1-.446.705A.589.589,0,0,1,513.421,290.824Z" transform="translate(-404.095 -257.792)" fill="#ffee58"/>
      <path id="Trazado_147844" data-name="Trazado 147844" d="M503.353,281.846s2.369-2.911,4.382-3.308,5.718,1.72,6.2,2.955-.265,3.22-1.191,3.088-2.029-1.456-2.029-1.456,1.317,3.453-.352,3c-1.092-.3-2.911-3.44-3.353-3.043S501.985,283.743,503.353,281.846Z" transform="translate(-401.549 -254.182)" fill="#ffd494"/>
      <path id="Trazado_147845" data-name="Trazado 147845" d="M385.891,357.092c-9.13,1.579-6.484-1.032-14.424-4.236s-5.028-.781-10.387-3.077c-2.45-1.05-4.083-3.8-5.135-6.467a21.228,21.228,0,0,0,.987,9.032c5.635,16.178,42.192,13.7,44.086,5.744a3.305,3.305,0,0,0-.163-2.171C397.642,355.312,392.589,355.934,385.891,357.092Z" transform="translate(-355.831 -274.306)" fill="#ffc571"/>
      <path id="Trazado_147846" data-name="Trazado 147846" d="M415.019,358.8s6.692-.689,8.644-.156c2.864.781,6.667,3.828,5.874,5.313s-12.735,1.64-14.085,0S415.019,358.8,415.019,358.8Z" transform="translate(-374.11 -279.005)" fill="#ffd494"/>
    </g>
    <path id="Trazado_147847" data-name="Trazado 147847" d="M468.024,350.128a2.88,2.88,0,0,0,.035-.348,3.006,3.006,0,0,0-6.011,0,2.88,2.88,0,0,0,.035.348A13.211,13.211,0,0,0,451.839,363h26.429A13.211,13.211,0,0,0,468.024,350.128Z" transform="translate(-121.843 -93.376)" fill="#ffee58"/>
    <g id="Grupo_84973" data-name="Grupo 84973" transform="translate(202.664 267.413)">
      <rect id="Rectángulo_32440" data-name="Rectángulo 32440" width="307.559" height="17.058" transform="translate(108.539)" fill="#cb7908"/>
      <rect id="Rectángulo_32441" data-name="Rectángulo 32441" width="112.565" height="17.058" fill="#b46902"/>
      <path id="Trazado_147913" data-name="Trazado 147913" d="M0,0H86.837V161.62H0Z" transform="translate(15.234 17.058)" fill="#a86400"/>
      <path id="Trazado_147912" data-name="Trazado 147912" d="M0,0H294.529V161.62H0Z" transform="translate(101.586 17.058)" fill="#cb7900"/>
      <g id="Grupo_84972" data-name="Grupo 84972" transform="translate(155.999 68.552)">
        <g id="Grupo_84970" data-name="Grupo 84970">
          <path id="Trazado_147848" data-name="Trazado 147848" d="M493.413,467.665h9.743v16.607h14.877V467.665h9.744v43.1h-9.744V492.771H503.156v17.991h-9.743Z" transform="translate(-493.413 -466.871)" fill="#ac9d20"/>
          <path id="Trazado_147849" data-name="Trazado 147849" d="M555.048,488.669c0-14.081,7.951-22.155,19.574-22.155s19.573,8.129,19.573,22.155c0,14.081-7.95,22.529-19.573,22.529S555.048,502.75,555.048,488.669Zm29.163,0c0-8.641-3.71-13.743-9.589-13.743s-9.589,5.1-9.589,13.743,3.709,14.117,9.589,14.117S584.211,497.31,584.211,488.669Z" transform="translate(-512.548 -466.514)" fill="#ac9d20"/>
          <path id="Trazado_147850" data-name="Trazado 147850" d="M627.823,475.836H615.961v-8.171h33.468v8.171H637.567v34.926h-9.743Z" transform="translate(-531.458 -466.871)" fill="#ac9d20"/>
          <path id="Trazado_147851" data-name="Trazado 147851" d="M674.277,467.665h27v8.171H684.02v8.654h14.694v8.171H684.02v9.93h17.921v8.171H674.277Z" transform="translate(-549.562 -466.871)" fill="#ac9d20"/>
          <path id="Trazado_147852" data-name="Trazado 147852" d="M726.819,467.665h9.743v34.926h17.012v8.171H726.819Z" transform="translate(-565.874 -466.871)" fill="#ac9d20"/>
        </g>
        <g id="Grupo_84971" data-name="Grupo 84971" transform="translate(6.389)">
          <path id="Trazado_147853" data-name="Trazado 147853" d="M502.679,467.665h9.743v16.607H527.3V467.665h9.743v43.1H527.3V492.771H512.422v17.991h-9.743Z" transform="translate(-502.679 -466.871)" fill="#ffee58"/>
          <path id="Trazado_147854" data-name="Trazado 147854" d="M564.313,488.669c0-14.081,7.951-22.155,19.574-22.155s19.574,8.129,19.574,22.155c0,14.081-7.95,22.529-19.574,22.529S564.313,502.75,564.313,488.669Zm29.163,0c0-8.641-3.71-13.743-9.589-13.743s-9.589,5.1-9.589,13.743,3.709,14.117,9.589,14.117S593.476,497.31,593.476,488.669Z" transform="translate(-521.813 -466.514)" fill="#ffee58"/>
          <path id="Trazado_147855" data-name="Trazado 147855" d="M637.089,475.836H625.227v-8.171H658.7v8.171H646.833v34.926h-9.743Z" transform="translate(-540.724 -466.871)" fill="#ffee58"/>
          <path id="Trazado_147856" data-name="Trazado 147856" d="M683.543,467.665h27v8.171h-17.26v8.654H707.98v8.171H693.286v9.93h17.921v8.171H683.543Z" transform="translate(-558.828 -466.871)" fill="#ffee58"/>
          <path id="Trazado_147857" data-name="Trazado 147857" d="M736.085,467.665h9.743v34.926H762.84v8.171H736.085Z" transform="translate(-575.14 -466.871)" fill="#ffee58"/>
        </g>
      </g>
      <path id="Trazado_147858" data-name="Trazado 147858" d="M414.5,391.836l294.529,13.552V391.836Z" transform="translate(-312.917 -374.778)" fill="#a86405"/>
    </g>
    <g id="Grupo_84975" data-name="Grupo 84975" transform="translate(239.754 92.282)">
      <g id="Grupo_84974" data-name="Grupo 84974" transform="translate(0 0)">
        <path id="Trazado_147859" data-name="Trazado 147859" d="M346.622,160.552s.12-15.507.211-27.365.155-20.067.155-20.067h-5.951c-11.092,0-20.068,10.445-20.068,23.716s8.9,23.716,19.99,23.716Z" transform="translate(-320.969 -113.12)" fill="#111e61"/>
        <ellipse id="Elipse_4196" data-name="Elipse 4196" cx="20.083" cy="23.716" rx="20.083" ry="23.716" transform="translate(5.752)" fill="#fff"/>
        <path id="Trazado_147860" data-name="Trazado 147860" d="M349.395,114.82c10.136,0,18.383,9.876,18.383,22.015s-8.246,22.015-18.383,22.015-18.383-9.876-18.383-22.015,8.247-22.015,18.383-22.015m0-1.7c-11.092,0-20.084,10.618-20.084,23.716s8.992,23.716,20.084,23.716,20.083-10.618,20.083-23.716-8.992-23.716-20.083-23.716Z" transform="translate(-323.559 -113.12)" fill="#111e61"/>
      </g>
      <path id="Trazado_147861" data-name="Trazado 147861" d="M354.751,139.845l6.242-15.119-1.281,16.306a2.582,2.582,0,1,1-5.149-.4A2.653,2.653,0,0,1,354.751,139.845Z" transform="translate(-331.396 -116.723)" fill="#ff9800"/>
      <path id="Trazado_147862" data-name="Trazado 147862" d="M356.885,143.562l9.673-1.157-7.762,5.887a2.643,2.643,0,0,1-3.194-4.212A2.675,2.675,0,0,1,356.885,143.562Z" transform="translate(-331.396 -122.211)" fill="#ff9800"/>
    </g>
    <g id="Grupo_84977" data-name="Grupo 84977" transform="translate(311.909 92.282)">
      <g id="Grupo_84976" data-name="Grupo 84976" transform="translate(0 0)">
        <path id="Trazado_147863" data-name="Trazado 147863" d="M451.262,160.552l.367-47.432h-5.952c-11.092,0-20.068,10.445-20.068,23.716s8.9,23.716,19.99,23.716Z" transform="translate(-425.609 -113.12)" fill="#111e61"/>
        <ellipse id="Elipse_4197" data-name="Elipse 4197" cx="20.083" cy="23.716" rx="20.083" ry="23.716" transform="translate(5.752)" fill="#fff"/>
        <path id="Trazado_147864" data-name="Trazado 147864" d="M454.035,114.82c10.136,0,18.383,9.876,18.383,22.015s-8.246,22.015-18.383,22.015-18.383-9.876-18.383-22.015,8.247-22.015,18.383-22.015m0-1.7c-11.092,0-20.084,10.618-20.084,23.716s8.992,23.716,20.084,23.716,20.083-10.618,20.083-23.716-8.992-23.716-20.083-23.716Z" transform="translate(-428.199 -113.12)" fill="#111e61"/>
      </g>
      <path id="Trazado_147865" data-name="Trazado 147865" d="M459.858,148.091l-12.715,8.242,9.259-11.995a2.588,2.588,0,0,1,4.1,3.162A2.63,2.63,0,0,1,459.858,148.091Z" transform="translate(-432.294 -122.499)" fill="#ff9800"/>
      <path id="Trazado_147866" data-name="Trazado 147866" d="M459.813,140.2l2.734-13.158,2.367,13.229a2.6,2.6,0,0,1-5.115.915A2.644,2.644,0,0,1,459.813,140.2Z" transform="translate(-436.211 -117.442)" fill="#ff9800"/>
    </g>
    <g id="Grupo_84979" data-name="Grupo 84979" transform="translate(384.063 92.282)">
      <g id="Grupo_84978" data-name="Grupo 84978" transform="translate(0 0)">
        <path id="Trazado_147867" data-name="Trazado 147867" d="M555.9,160.552l.367-47.432h-5.951c-11.092,0-20.068,10.445-20.068,23.716s8.9,23.716,19.99,23.716Z" transform="translate(-530.249 -113.12)" fill="#111e61"/>
        <path id="Trazado_147911" data-name="Trazado 147911" d="M20.083,0C31.175,0,40.167,10.618,40.167,23.716S31.175,47.432,20.083,47.432,0,36.814,0,23.716,8.992,0,20.083,0Z" transform="translate(5.752)" fill="#fff"/>
        <path id="Trazado_147868" data-name="Trazado 147868" d="M558.675,114.82c10.136,0,18.383,9.876,18.383,22.015s-8.246,22.015-18.383,22.015-18.383-9.876-18.383-22.015,8.247-22.015,18.383-22.015m0-1.7c-11.092,0-20.084,10.618-20.084,23.716s8.992,23.716,20.084,23.716,20.083-10.618,20.083-23.716-8.992-23.716-20.083-23.716Z" transform="translate(-532.839 -113.12)" fill="#111e61"/>
      </g>
      <path id="Trazado_147869" data-name="Trazado 147869" d="M569.085,146.059l-2.629,10.1-2.472-10.138a2.63,2.63,0,1,1,5.111-1.247A2.657,2.657,0,0,1,569.085,146.059Z" transform="translate(-540.699 -122.323)" fill="#ff9800"/>
      <path id="Trazado_147870" data-name="Trazado 147870" d="M566.8,142.766l16.347.676-15.761,4.392A2.582,2.582,0,0,1,566,142.859,2.661,2.661,0,0,1,566.8,142.766Z" transform="translate(-540.761 -122.323)" fill="#ff9800"/>
    </g>
    <g id="Grupo_84988" data-name="Grupo 84988" transform="translate(364.466 178.54)">
      <path id="Trazado_147871" data-name="Trazado 147871" d="M554.691,281.522c-14.832,7.113-29.437,53.008-29.437,53.008s-4.726-29.62-13.479-30.769-14.154,56.782,7.464,60.507c27.218,4.689,39.962-41.133,39.962-41.133S564.126,277,554.691,281.522Z" transform="translate(-502.535 -251.561)" fill="#111e61"/>
      <g id="Grupo_84980" data-name="Grupo 84980" transform="translate(89.876 263.175)">
        <path id="Trazado_147872" data-name="Trazado 147872" d="M653.245,625.856a2.546,2.546,0,0,0,.419-.478,6.226,6.226,0,0,0,.638-1.359,5.983,5.983,0,0,1,5.677-4.145l3.651.012a19.169,19.169,0,0,0,1.361,5.959c-1.794,1.2-6.327,4.094-8.309,4.176C654.672,630.105,655.688,627.1,653.245,625.856Z" transform="translate(-638.711 -619.874)" fill="#b0c0d2"/>
        <path id="Trazado_147873" data-name="Trazado 147873" d="M641.832,631.018c2.257-.941,3.981-1.645,4.87-2.473,2.443,1.24,1.427,4.25,3.437,4.166,1.982-.082,6.515-2.979,8.309-4.176a13.169,13.169,0,0,0,1.172,2.164c1.994,2.964,3.5,5.592,1.33,6.807-4.152,2.321-29.089,2.313-28.779-.1C632.356,635.962,637.592,633.177,641.832,631.018Z" transform="translate(-632.168 -622.562)" fill="#111e61"/>
      </g>
      <g id="Grupo_84981" data-name="Grupo 84981" transform="translate(43.068 263.175)">
        <path id="Trazado_147874" data-name="Trazado 147874" d="M585.363,625.856a2.517,2.517,0,0,0,.418-.478,6.2,6.2,0,0,0,.639-1.359,5.983,5.983,0,0,1,5.677-4.145l3.651.012a19.169,19.169,0,0,0,1.361,5.959c-1.794,1.2-6.327,4.094-8.309,4.176C586.79,630.105,587.806,627.1,585.363,625.856Z" transform="translate(-570.829 -619.874)" fill="#b0c0d2"/>
        <path id="Trazado_147875" data-name="Trazado 147875" d="M573.95,631.018a18.66,18.66,0,0,0,4.87-2.473c2.443,1.24,1.427,4.25,3.437,4.166,1.983-.082,6.515-2.979,8.309-4.176a13.128,13.128,0,0,0,1.172,2.164c1.994,2.964,3.5,5.592,1.33,6.807-4.151,2.321-29.088,2.313-28.778-.1C564.474,635.962,569.71,633.177,573.95,631.018Z" transform="translate(-564.286 -622.562)" fill="#111e61"/>
      </g>
      <path id="Trazado_147876" data-name="Trazado 147876" d="M575.374,380.28c19.764,3.68,39.964,2.415,47.783,1.7.491,1.861,1.043,3.809,1.68,5.871,6.855,22.208-2.647,65.679-.816,87.471,1.618,19.26,29.133,75.248,8.4,75.248-40.832,0-36.2-101.152-38.907-111.384-5.032,10.679-7.453,25.228-7.189,37.531.4,18.751,10.811,75.017-.757,75.017-34.172,0-23.612-131.968-16.969-153.293C570.469,392.435,572.951,386.163,575.374,380.28Z" transform="translate(-520.409 -282.317)" fill="#111e61"/>
      <path id="Trazado_147877" data-name="Trazado 147877" d="M568.219,364.239c-.919-6.368,2.693-20.109,2.551-32.393-.14-12.124-.425-32.085-.659-43.875a11.067,11.067,0,0,1,7.378-10.7c17.2-5.995,43.089-9.925,58.339,11.924,8.342,11.953-1.036,37.795-2.252,43.638-1.467,7.051-3.714,19.547-3.83,30.539-4.464,5.89-16.205,12.574-29.28,11.632-2.869-.206-6.491-8.812-9.482-9.274-1.855-.286-5.241,7.666-7.115,7.273C579.367,372.06,569.793,369.225,568.219,364.239Z" transform="translate(-522.392 -248.877)" fill="#111e61"/>
      <path id="Trazado_147878" data-name="Trazado 147878" d="M621.954,277.152l-12.18,49.28-7.919,10.862-4.435-14.614s.747-22.712.954-24.248C599.187,292.4,603.539,265.384,621.954,277.152Z" transform="translate(-531.505 -249.39)" fill="#f0f8fa"/>
      <path id="Trazado_147879" data-name="Trazado 147879" d="M610.588,250.689s-2.451-17.43,9.349-11.087c6.728,3.617,5.4,8.6,4.768,12.2s-2.24,3.6-7.233,3.511A7.9,7.9,0,0,1,610.588,250.689Z" transform="translate(-535.527 -238.212)" fill="#111e61"/>
      <g id="Grupo_84982" data-name="Grupo 84982" transform="translate(74.853 1.148)">
        <path id="Trazado_147880" data-name="Trazado 147880" d="M619.938,240.119c-.17-.091-.326-.161-.49-.242.716,1.023,1.466,2.508.7,3.522-1.112,1.47-6.127-.6-9.5.863a26.407,26.407,0,0,0-.055,6.944,7.9,7.9,0,0,0,6.884,4.621c4.993.086,6.605.08,7.233-3.511S626.665,243.736,619.938,240.119Z" transform="translate(-610.381 -239.877)" fill="#0a144a"/>
      </g>
      <path id="Trazado_147881" data-name="Trazado 147881" d="M623.228,257.844l3.9,12.435c-.019,1.794-9.763,6.579-12.55,4.256-.816-.681-.552-2.394.265-4.241l4.838-10.049Z" transform="translate(-536.677 -244.307)" fill="#ffc571"/>
      <path id="Trazado_147882" data-name="Trazado 147882" d="M619.368,263.907c1.983-.312,4.69-.772,4.69-.772a8.541,8.541,0,0,1-3.035,5.458,8.185,8.185,0,0,1-4.814,1.876Z" transform="translate(-537.338 -245.95)" fill="#f4a634"/>
      <path id="Trazado_147883" data-name="Trazado 147883" d="M515.222,314.895s1.724-4.062-.148-6.519-1.558-5.937-2.735-6.387-.474,3.564-.819,4.316-3.837-1.2-6.149-3.964-1.46,1.464-1.46,1.464-1.887-1.465-2.065.61a8.684,8.684,0,0,0,1.044,4.262s-1.32-.254.159,1.718S511.6,318.789,515.222,314.895Z" transform="translate(-501.828 -257.831)" fill="#ffc571"/>
      <path id="Trazado_147884" data-name="Trazado 147884" d="M651.152,289.9a36.974,36.974,0,0,0-21.066-15.069c1.093,5.157,3.932,19.782,3.126,29.108-.945,10.934-16.966,57.74-15.713,71.834,12.378.277,23.3-6.063,27.572-11.695.116-10.993,2.363-23.488,3.83-30.539C650.116,327.691,659.494,301.849,651.152,289.9Z" transform="translate(-537.716 -249.579)" fill="#081140"/>
      <path id="Trazado_147885" data-name="Trazado 147885" d="M619.36,249.718l1.5,3.963L622,256.7a4.555,4.555,0,0,1-2.983,5.61,12.588,12.588,0,0,1-5.556.471c-2.038-.155-3.164-2.053-3.283-4.71a24.85,24.85,0,0,1,1.228-8.36C612.648,245.849,617.307,245.291,619.36,249.718Z" transform="translate(-535.459 -240.817)" fill="#ffc571"/>
      <path id="Trazado_147886" data-name="Trazado 147886" d="M618.878,246.782s3.505,2.082,1.56,5.7c-.967,1.8.949,2.692,1.7.818s1.867-4.683.945-5.441S618.878,246.782,618.878,246.782Z" transform="translate(-538.166 -240.873)" fill="#09144a"/>
      <path id="Trazado_147887" data-name="Trazado 147887" d="M623.556,254.823a6.512,6.512,0,0,0,.064-1.381c-.039-.879.108-2.193,1.44-1.609,1.938.85,1.886,5.543-.27,5.995C623.188,258.163,623.36,255.973,623.556,254.823Z" transform="translate(-539.58 -242.396)" fill="#ffc571"/>
      <path id="Trazado_147888" data-name="Trazado 147888" d="M615.323,258.9a12.26,12.26,0,0,1-4.04.3s0,1.547.965,2.041S614.846,260.766,615.323,258.9Z" transform="translate(-535.808 -244.634)" fill="#fff"/>
      <g id="Grupo_84983" data-name="Grupo 84983" transform="translate(75.313 15.735)">
        <path id="Trazado_147889" data-name="Trazado 147889" d="M612.989,264.657c2.247-.556,4.124,2.8,8.01-.633a5.833,5.833,0,0,0,1.219-2.993l.057.153a4.555,4.555,0,0,1-2.983,5.61,12.588,12.588,0,0,1-5.556.471,3.174,3.174,0,0,1-2.688-2.008A10.9,10.9,0,0,0,612.989,264.657Z" transform="translate(-611.049 -261.031)" fill="#ffb74d"/>
      </g>
      <path id="Trazado_147890" data-name="Trazado 147890" d="M618.061,282.011s-.354,1.93-1.257,1.858-2.8-1.351-2.09-2.5a2.274,2.274,0,0,1,2.213-.893S618.22,281.4,618.061,282.011Z" transform="translate(-536.825 -251.324)" fill="#ff9800"/>
      <g id="Grupo_84984" data-name="Grupo 84984" transform="translate(74.898 22.92)">
        <path id="Trazado_147891" data-name="Trazado 147891" d="M617.993,277.679s4.44-.8,6.538-2.134c1.38-.874,2.853-4.093,2.853-4.093s2.5,3.366,2.465,6.148l-10.258,5.19a31.517,31.517,0,0,0-.785-3.484C618.63,278.855,617.993,277.679,617.993,277.679Z" transform="translate(-612.79 -271.452)" fill="#d8e7eb"/>
        <path id="Trazado_147892" data-name="Trazado 147892" d="M615.65,277.882s-1.252-4.408-.677-5.776c0,0-1.562,1.15-2.7,1.9a12.18,12.18,0,0,0-1.831,1.472l1.236,5.407S614.566,277.522,615.65,277.882Z" transform="translate(-610.447 -271.655)" fill="#d8e7eb"/>
      </g>
      <path id="Trazado_147893" data-name="Trazado 147893" d="M650,290.868c-16.453,9,22.781,45.831,18.612,62.565S651.323,396.8,661.2,400.627c13.59,5.27,32.1-36.179,29.619-60.812S658.871,286.012,650,290.868Z" transform="translate(-546.569 -254.393)" fill="#111e61"/>
      <path id="Trazado_147894" data-name="Trazado 147894" d="M665.193,400.8a4.894,4.894,0,0,1-2.049-1.469c3.026-6.277,14.1-14.651,19.467-20.06,6.779-6.832,6.838-16.776,2.788-24.6s4.127-15.538,3.5-22.045-4.385-15.376-12.319-17.707S666,305.045,660.45,293.845a29.254,29.254,0,0,0-1.655-2.944c11.789,3.368,33.88,27.907,36.017,49.09C697.3,364.624,678.782,406.074,665.193,400.8Z" transform="translate(-550.559 -254.57)" fill="#081140"/>
      <g id="Grupo_84985" data-name="Grupo 84985" transform="translate(65.698 24.827)">
        <path id="Trazado_147895" data-name="Trazado 147895" d="M610.217,280.388c1.371-.883,1.532,1,1.532,1-.873,2.677-1.643,27.871-2.073,45.049,7.3-15.39,12.18-49.28,12.18-49.28-18.415-11.767-22.768,15.247-23.579,21.28a141.167,141.167,0,0,0-1,23.651c2.2-11.2,4.936-24.429,6.536-29.411C606.427,284.515,610.217,280.388,610.217,280.388Z" transform="translate(-597.104 -274.217)" fill="none"/>
        <path id="Trazado_147896" data-name="Trazado 147896" d="M601.833,339.966s6.248-7.339,7.919-10.862c.43-17.178,1.2-42.372,2.073-45.049,0,0-.161-1.878-1.532-1,0,0-3.79,4.128-6.409,12.284-1.6,4.981-4.339,18.21-6.536,29.411C597.863,332.5,601.833,339.966,601.833,339.966Z" transform="translate(-597.18 -276.889)" fill="#ff9800"/>
      </g>
      <g id="Grupo_84987" data-name="Grupo 84987" transform="translate(82.997 148.228)">
        <g id="Grupo_84986" data-name="Grupo 84986" transform="translate(13.138)">
          <path id="Trazado_147897" data-name="Trazado 147897" d="M668.105,465.659a2.1,2.1,0,0,0,1.987-1.427l2.8-8.287a2.1,2.1,0,0,0-1.987-2.769H643.343a2.1,2.1,0,0,0-1.942,2.89l3.379,8.287a2.1,2.1,0,0,0,3.884-1.584l-2.2-5.4H667.98l-1.862,5.519a2.1,2.1,0,0,0,1.987,2.769Z" transform="translate(-641.245 -453.176)" fill="#714201"/>
        </g>
        <path id="Trazado_147917" data-name="Trazado 147917" d="M0,0H52.612V38.816H0Z" transform="translate(52.612 47.453) rotate(180)" fill="#b56c00"/>
        <path id="Trazado_147916" data-name="Trazado 147916" d="M0,0H52.612V38.816H0Z" transform="translate(58.643 47.453) rotate(180)" fill="#ffac31"/>
        <path id="Trazado_147898" data-name="Trazado 147898" d="M683.549,465.7s-11.128,16.167-26.306,15.971S630.937,465.7,630.937,465.7Z" transform="translate(-624.907 -457.065)" fill="#b56c06"/>
        <path id="Trazado_147899" data-name="Trazado 147899" d="M669.7,483.425h-3.64a1.478,1.478,0,0,0-1.444,1.794l1.161,5.317a1.479,1.479,0,0,0,1.445,1.163h1.58a1.479,1.479,0,0,0,1.458-1.232l.9-5.317A1.478,1.478,0,0,0,669.7,483.425Z" transform="translate(-635.35 -462.567)" fill="#ffee58"/>
      </g>
      <path id="Trazado_147900" data-name="Trazado 147900" d="M664.006,444.346s-4.938.321-5.889,1.952a28.858,28.858,0,0,0-1.819,4.137s1.567.346,1.214,1.469c-.336,1.07-2,4.144-.6,4.4.6.112,2.164-.512,3.566-.481a14.261,14.261,0,0,0,4.5-.493c1.123-.519,4.121-7.06,3.17-8.7S664.006,444.346,664.006,444.346Z" transform="translate(-549.783 -302.207)" fill="#ff6161"/>
    </g>
    <g id="Grupo_84991" data-name="Grupo 84991" transform="translate(70.195 167.159)">
      <g id="Grupo_84989" data-name="Grupo 84989" transform="translate(49.251 246.636)">
        <path id="Trazado_147901" data-name="Trazado 147901" d="M225.316,590.493c-6.393-12.131-39.2-11.087-39.2-11.087s-32.806-1.045-39.2,11.087c-.956,1.814,0,9.463,0,9.463,6.973,44.074,39.2,39.477,39.2,39.477s32.225,4.6,39.2-39.477C225.316,599.957,226.272,592.307,225.316,590.493Z" transform="translate(-146.495 -579.384)" fill="#ffee58"/>
        <path id="Trazado_147915" data-name="Trazado 147915" d="M36.86,0C57.217,0,73.72,4.287,73.72,9.574s-16.5,9.574-36.86,9.574S0,14.862,0,9.574,16.5,0,36.86,0Z" transform="translate(2.763 2.786)" fill="#988900"/>
        <path id="Trazado_147902" data-name="Trazado 147902" d="M224.285,609.042c-4.464,4.259-18.111,8.112-20.662,8.112s-2.806,7.706-5.357,10.748-7.78,3.65-15.3,6.287c-5.025,1.76-18.743-5.333-26.093-7.045,11.814,21.459,32.47,18.537,32.47,18.537s32.225,4.6,39.2-39.477a57.092,57.092,0,0,0,.417-6.7C228.05,602.876,226.57,606.86,224.285,609.042Z" transform="translate(-149.715 -585.63)" fill="#e3d236"/>
      </g>
      <path id="Trazado_147903" data-name="Trazado 147903" d="M236.059,352.879a1.655,1.655,0,0,0-2.72-1.885c-.9,1.306-22.187,32.2-24.278,50.19-1.36,11.692-5.3,49.031-8.122,80.188q-.9,3.015-1.737,6c.585-8.819,1.151-18.471,1.589-28.188,3.093-68.641-3.152-73.609-5.2-75.242a14.382,14.382,0,0,0-2.325-1.509c.065-12.5.067-21.516.067-21.77a1.655,1.655,0,1,0-3.31,0c0,.245,0,8.7-.061,20.561-7.785-1.723-15.243,3.851-15.629,4.145A1.655,1.655,0,0,0,176.335,388c.082-.063,7.005-5.25,13.6-3.338-.129,23.023-.469,56.173-1.365,69.357-1.435,21.106-1.452,71.169-1.452,71.673a1.655,1.655,0,1,0,3.309,0c0-.5.017-50.453,1.444-71.448.881-12.947,1.227-44.947,1.364-67.923.1.071.192.134.286.21,2.1,1.668,6.681,12.073,3.959,72.493-.829,18.4-2.121,36.58-3.122,49.268a85.221,85.221,0,0,0-1.46,17.468,1.654,1.654,0,0,0,1.611,1.585h.043a1.655,1.655,0,0,0,1.647-1.5c.014-.145.627-6.751,1.437-17,.456-2.63,1.01-5.361,1.64-8.164-.939,11.755-1.509,21-1.4,25.058a1.655,1.655,0,0,0,1.654,1.611h.045a1.655,1.655,0,0,0,1.609-1.7c-.159-5.966,1.172-23.306,2.985-43.362,10.263-34.18,26.783-70.794,27.029-71.336a1.655,1.655,0,0,0-3.014-1.367c-.861,1.9-12.8,28.367-22.569,57.162,2.6-27.208,5.583-55.325,6.729-65.182C214.345,384.393,235.843,353.192,236.059,352.879Z" transform="translate(-105.683 -261.623)" fill="#536efa"/>
      <path id="Trazado_147904" data-name="Trazado 147904" d="M152.45,326.553c3.885,7.713,9.891,14.255,20.473,12.324,6.137-1.119,5.617-9.447,6.964-8.566,10.343,6.758,16.93,3.561,20.548-1.931,8.274-12.559,10.343-55.18-6.206-67.72S139.068,229,132.449,240.769C126.82,250.772,139.139,300.131,152.45,326.553Z" transform="translate(-92.45 -226.483)" fill="#1738e2"/>
      <path id="Trazado_147905" data-name="Trazado 147905" d="M186.616,272.077s-1.045-2.04-2.284-4.84c-2.847-6.44-10.023-16.756-31.477-14.514-6.493.679-13.259,6.907-20.022,14.715-1.323,1.527-5.549-5.7-6.87-4.081-.862,1.057,1.178,10.941.319,12.015-3.329,4.16-6.636,8.392-9.887,12.215-1.035,1.217-5.405-5.921-6.429-4.8-.71.776,1.925,9.84,1.222,10.556-4.9,4.992-9.62,8.4-14.047,8.474-8.833.148-18.217-17.439-21.145-36.079-.208-1.321,6.254-5.9,6.114-7.222-.173-1.64-6.93-.03-6.991-1.656-.5-13.263,2.858-25.714,12.646-31.257C113.415,211.075,186.535,239.546,186.616,272.077Z" transform="translate(-75.071 -221.707)" fill="#536efa"/>
      <path id="Trazado_147906" data-name="Trazado 147906" d="M279.011,381.181s-33.1,2.889-43.027,8.995c-3.435,2.113-7.565,6.095-11.24,10.623-.566.7,3.024,3.942,2.483,4.661-.628.836-5.382-.85-5.963,0-5.048,7.386-8.067,15.023-4.725,17.92,6.206,5.378,25.98,1.647,25.98,1.647s23.872,11.384,34.215-1.234c2.586-3.155,4.021-7.4,4.719-11.982.157-1.03-4.806-.27-4.719-1.326s5.225-3.95,5.252-5.025A97.961,97.961,0,0,0,279.011,381.181Z" transform="translate(-118.552 -271.216)" fill="#1738e2"/>
      <g id="Grupo_84990" data-name="Grupo 84990" transform="translate(96.579 60.734)">
        <path id="Trazado_147907" data-name="Trazado 147907" d="M302.041,317.346a53.278,53.278,0,0,1,8.6,5.121c.784.579-2.553,2.344-1.8,3,.67.579,5.44.041,6.051.674,5.028,5.212,7.476,12.154-2.624,19.173-8,5.558-71.627-32.4-54.424-32.668C276.436,312.362,302.041,317.346,302.041,317.346Z" transform="translate(-227.482 -310.669)" fill="#1738e2"/>
        <path id="Trazado_147908" data-name="Trazado 147908" d="M245.591,341.764s-10.845,6.687-24.038,3.253c-8.9-2.316-7.319-13.934-2.656-22.576.478-.887,7.15-2.944,7.685-3.755.461-.7-5.222-.16-4.73-.783a16,16,0,0,1,5.123-4.516c19.61-9.624,62.716,3.073,62.716,3.073a6.079,6.079,0,0,0-5.354,2.892,32.94,32.94,0,0,0-3.235,8.2c-.321,1.117-4.04-1.7-4.357-.527-.306,1.136,2.792,6.27,2.473,7.423-2.652,9.612-6.054,19.167-15.191,17.614C245.953,348.993,245.591,341.764,245.591,341.764Z" transform="translate(-215.132 -309.784)" fill="#536efa"/>
      </g>
      <path id="Trazado_147909" data-name="Trazado 147909" d="M245.373,388.544s16.641-6.512,30.971-1.962,34.432,13.239,44.55,9.516.188-17.79-9.534-19.651-19.445,1.862-31.235,1.862S248.476,384.506,245.373,388.544Z" transform="translate(-127.941 -269.584)" fill="#536efa"/>
      <path id="Trazado_147910" data-name="Trazado 147910" d="M148.262,396.884s7.447-11.584-19.858-9.516c-7.543.572-14.975,4.063-21.708,9.119-.857.644,3.924,1.085,3.091,1.776-.9.745-7.409,1.745-8.277,2.54a85.976,85.976,0,0,0-12.657,14.665c-.713,1.04,4.9.93,4.248,1.973-.7,1.129-7.664,3.411-8.289,4.532-4.868,8.721-7.3,17.026-6.053,22.073,1.676,6.8,26.053,3.144,44.474-2.069,3.929-1.112.858-5.434,4.758-6.827,2.655-.947,5.167,3.136,7.7,2.095,12.891-5.3,23.631-11.611,26.43-16.988C169.982,405.158,160.467,396.057,148.262,396.884Z" transform="translate(-76.116 -273.06)" fill="#536efa"/>
    </g>
  </g>
</svg>
