<svg xmlns="http://www.w3.org/2000/svg" width="76.873" height="90" viewBox="0 0 76.873 90">
  <g id="Grupo_110605" data-name="Grupo 110605" transform="translate(2112.945 491.101)">
    <path id="Trazado_169862" data-name="Trazado 169862" d="M-2073.8-491.1a46.339,46.339,0,0,0,4.63,2.7,149.159,149.159,0,0,0,30.911,12.605c1.822.513,2.17.966,2.161,2.841-.033,7.118.141,14.237-.1,21.352a54.176,54.176,0,0,1-5.7,22.642,57.346,57.346,0,0,1-23.5,24.519,26.011,26.011,0,0,1-8.069,3.242,9.108,9.108,0,0,1-5.1-.865,53.075,53.075,0,0,1-17.625-11.853,54.721,54.721,0,0,1-13.21-20.335,52.878,52.878,0,0,1-3.25-14.9c-.529-8.046-.159-16.1-.254-24.154-.017-1.469.452-2.026,1.988-2.45a145.96,145.96,0,0,0,21.794-7.949c4.753-2.167,9.328-4.675,13.871-7.244.032-.018.03-.095.044-.144Zm-35.305,30.032c0,2.08-.022,4.16,0,6.24a55.516,55.516,0,0,0,1.738,14.239c4.514,16.245,14.576,27.758,29.814,34.847a6.945,6.945,0,0,0,6.068.017,52.9,52.9,0,0,0,22.951-19.388c5.985-8.908,8.572-18.853,8.623-29.512.027-5.625-.005-11.25.02-16.874,0-.612-.186-.839-.77-1.01a153.118,153.118,0,0,1-33.119-14.094,1.252,1.252,0,0,0-1.436-.011,148.163,148.163,0,0,1-33.2,14.12.824.824,0,0,0-.709.967C-2109.1-468.041-2109.109-464.555-2109.109-461.069Z" fill="#080909"/>
    <path id="Trazado_169863" data-name="Trazado 169863" d="M-2095.573-445.969c0-3.486.012-6.972-.012-10.458a.824.824,0,0,1,.709-.967,148.16,148.16,0,0,0,33.2-14.12,1.252,1.252,0,0,1,1.436.011,153.115,153.115,0,0,0,33.119,14.094c.584.171.773.4.77,1.01-.025,5.625.007,11.25-.02,16.874-.052,10.658-2.638,20.6-8.623,29.512a52.9,52.9,0,0,1-22.951,19.388,6.945,6.945,0,0,1-6.068-.017c-15.238-7.089-25.3-18.6-29.814-34.847a55.516,55.516,0,0,1-1.738-14.239C-2095.595-441.809-2095.573-443.889-2095.573-445.969Zm28.1,32.774a6.56,6.56,0,0,0,5.136-2.1q6.73-6.753,13.479-13.487c3.106-3.107,6.23-6.2,9.313-9.326a6.164,6.164,0,0,0-1.491-10.095c-2.41-1.216-5.189-.657-7.359,1.51q-8.892,8.878-17.772,17.768c-.884.884-.883.883-1.76.007q-2.889-2.889-5.778-5.778a5.954,5.954,0,0,0-5.843-1.8,6.056,6.056,0,0,0-3.194,10.113c3.734,4,7.7,7.789,11.6,11.635A5.3,5.3,0,0,0-2067.475-413.2Zm-24.421-36.218q0,1.535,0,3.071a4.984,4.984,0,0,0,.014.613,1.942,1.942,0,0,0,2,1.9,1.92,1.92,0,0,0,1.822-2.074c.024-1.638.042-3.277-.011-4.914a.946.946,0,0,1,.8-1.1c2.753-.86,5.458-1.863,8.144-2.912a1.936,1.936,0,0,0,1.376-2.54,1.937,1.937,0,0,0-2.7-1.03c-3.267,1.244-6.563,2.4-9.881,3.5a2,2,0,0,0-1.565,2.154C-2091.912-451.637-2091.9-450.526-2091.9-449.414Zm54.308,36.051a1.8,1.8,0,0,0-1.8-1.857,2.133,2.133,0,0,0-1.908,1.179,44.7,44.7,0,0,1-7.338,8.478c-1.069.955-2.2,1.841-3.264,2.8a1.885,1.885,0,0,0-.3,2.734,1.871,1.871,0,0,0,2.745.145,51.674,51.674,0,0,0,11.372-12.11A2.181,2.181,0,0,0-2037.588-413.363Zm-19.733,15.325a1.859,1.859,0,0,0,1.917,1.845,2.115,2.115,0,0,0,1.96-1.984,1.924,1.924,0,0,0-1.911-1.872A1.967,1.967,0,0,0-2057.32-398.038Zm-14.91-60.891a1.991,1.991,0,0,0-1.9-1.931,2.043,2.043,0,0,0-1.939,1.9,1.99,1.99,0,0,0,1.81,1.924A2.015,2.015,0,0,0-2072.231-458.929Z" transform="translate(-13.536 -15.099)" fill="#ffee58"/>
    <path id="Trazado_169864" data-name="Trazado 169864" d="M-2027.98-332.14a5.3,5.3,0,0,1-3.67-1.557c-3.9-3.845-7.864-7.633-11.6-11.635a6.056,6.056,0,0,1,3.194-10.113,5.954,5.954,0,0,1,5.843,1.8q2.887,2.892,5.778,5.778c.876.876.876.876,1.76-.007q8.885-8.885,17.772-17.768c2.171-2.167,4.949-2.726,7.359-1.51a6.164,6.164,0,0,1,1.491,10.095c-3.083,3.13-6.207,6.22-9.313,9.326q-6.741,6.742-13.479,13.487A6.56,6.56,0,0,1-2027.98-332.14Zm26.113-29.475a2.324,2.324,0,0,0-1.655-2.231,2.544,2.544,0,0,0-2.73.928q-9.722,9.731-19.454,19.452c-1.421,1.421-2.277,1.421-3.7,0q-3.7-3.7-7.4-7.4a2.573,2.573,0,0,0-2.172-.919,2.2,2.2,0,0,0-1.965,1.527,2.4,2.4,0,0,0,.7,2.637q5.355,5.334,10.694,10.685c1.386,1.383,2.606,1.372,4-.023q4.231-4.222,8.453-8.452,7.116-7.116,14.236-14.228A2.762,2.762,0,0,0-2001.867-361.615Z" transform="translate(-53.03 -96.155)" fill="#090907"/>
    <path id="Trazado_169865" data-name="Trazado 169865" d="M-2078.856-402.857c0-1.112-.017-2.223,0-3.334a2,2,0,0,1,1.565-2.154c3.318-1.1,6.615-2.253,9.882-3.5a1.937,1.937,0,0,1,2.7,1.03,1.936,1.936,0,0,1-1.376,2.54c-2.687,1.048-5.391,2.052-8.144,2.912a.946.946,0,0,0-.8,1.1c.054,1.636.035,3.276.011,4.914a1.92,1.92,0,0,1-1.822,2.074,1.942,1.942,0,0,1-2-1.9,4.936,4.936,0,0,1-.014-.613Q-2078.857-401.321-2078.856-402.857Z" transform="translate(-26.575 -61.656)" fill="#070b06"/>
    <path id="Trazado_169866" data-name="Trazado 169866" d="M-1885.614-213.306a2.182,2.182,0,0,1-.49,1.373,51.673,51.673,0,0,1-11.372,12.11,1.871,1.871,0,0,1-2.745-.145,1.885,1.885,0,0,1,.3-2.734c1.062-.963,2.194-1.848,3.264-2.8a44.7,44.7,0,0,0,7.338-8.478,2.133,2.133,0,0,1,1.908-1.179A1.8,1.8,0,0,1-1885.614-213.306Z" transform="translate(-165.509 -215.155)" fill="#070b06"/>
    <path id="Trazado_169867" data-name="Trazado 169867" d="M-1921.868-144.269a1.967,1.967,0,0,1,1.966-2.01,1.924,1.924,0,0,1,1.911,1.872,2.115,2.115,0,0,1-1.96,1.984A1.859,1.859,0,0,1-1921.868-144.269Z" transform="translate(-148.988 -268.868)" fill="#070b06"/>
    <path id="Trazado_169868" data-name="Trazado 169868" d="M-2003.136-420.426a2.015,2.015,0,0,1-2.026,1.9,1.99,1.99,0,0,1-1.81-1.924,2.043,2.043,0,0,1,1.939-1.9A1.991,1.991,0,0,1-2003.136-420.426Z" transform="translate(-82.63 -53.602)" fill="#070b06"/>
    <path id="Trazado_169869" data-name="Trazado 169869" d="M-1988.247-348.1a2.762,2.762,0,0,1-.987,1.983q-7.127,7.106-14.237,14.228-4.226,4.226-8.453,8.452c-1.4,1.4-2.618,1.406-4,.023q-5.351-5.338-10.694-10.685a2.4,2.4,0,0,1-.7-2.637,2.2,2.2,0,0,1,1.965-1.527,2.573,2.573,0,0,1,2.173.919q3.689,3.708,7.4,7.4c1.421,1.419,2.277,1.419,3.7,0q9.729-9.725,19.454-19.452a2.544,2.544,0,0,1,2.73-.928A2.324,2.324,0,0,1-1988.247-348.1Z" transform="translate(-66.651 -109.668)" fill="#ff9800"/>
  </g>
</svg>
