<svg xmlns="http://www.w3.org/2000/svg" width="100" height="100.082" viewBox="0 0 100 100.082">
  <g id="Grupo_110613" data-name="Grupo 110613" transform="translate(711.666 -1628.018)">
    <path id="Trazado_169943" data-name="Trazado 169943" d="M-638.476,1649.715h11.294a12.628,12.628,0,0,1,3.2.313,11.672,11.672,0,0,1,9.019,11.738c0,15.938.054,31.875-.044,47.832a17.826,17.826,0,0,0,1.841,8.906,19.956,19.956,0,0,1,1.187,2.871,4.94,4.94,0,0,1-4.634,6.709q-45.073.029-90.141,0a4.923,4.923,0,0,1-4.58-6.738c.8-2.139,1.729-4.228,2.632-6.328a4.16,4.16,0,0,0,.342-1.709q-.007-25.781,0-51.582a11.664,11.664,0,0,1,9.048-11.709,11.83,11.83,0,0,1,2.993-.3c4.028,0,8.057-.029,12.09.01.732.01.918-.166.9-.908-.039-2.949-.029-5.9-.02-8.857a11.669,11.669,0,0,1,11.914-11.924q15.278-.044,30.537,0a4.978,4.978,0,0,1,5.146,6.113C-636.654,1639.315-637.558,1644.462-638.476,1649.715Zm-4.844,11.934c0-3.428.029-6.211,0-8.984a8.182,8.182,0,0,0-7.1-7.988,9.99,9.99,0,0,0-5.811,1.191,12.312,12.312,0,0,1-7.393,1.133,25.636,25.636,0,0,1-4.98-1.777,8.207,8.207,0,0,0-11.4,7.627c-.024,5.283-.1,10.576.024,15.85a14.453,14.453,0,0,0,8.774,13.535c2.5,1.191,5.093,2.188,7.656,3.232a4.9,4.9,0,0,0,3.857-.029c2.529-1.055,5.088-2.031,7.563-3.193a14.393,14.393,0,0,0,8.628-11.562C-643.031,1667.469-643.441,1664.227-643.319,1661.649Zm-61.708,44.17.181.02c.913-2.158,1.787-4.326,2.749-6.475a11.338,11.338,0,0,1,8.853-6.934c1.919-.352,3.853-.557,5.776-.811,3.848-.527,7.7-1.045,11.558-1.523.747-.088.957-.342.927-1.084-.073-1.436-.048-2.861,0-4.277a1.229,1.229,0,0,0-.629-1.182,17.859,17.859,0,0,1-7.114-10.3,1.9,1.9,0,0,0-.781-1.162c-1.46-1.064-2.925-2.119-4.331-3.252a6.921,6.921,0,0,1-2.52-7.354,6.434,6.434,0,0,1,5.073-4.961c.645-.166,1.563.225,1.88-.4a5.153,5.153,0,0,0,.063-2.061c0-.1-.01-.205,0-.3.083-.527-.083-.723-.664-.723-4.375.039-8.75-.049-13.125.049a8.156,8.156,0,0,0-7.847,7.734c-.132,4.033-.034,8.057-.049,12.09,0,.391.068.645.5.771,1.357.4,2.69.908,4.072,1.25a17.988,17.988,0,0,0,10.806-.977c2.524-.918,2.534-.84,3.306,1.7.156.527.063.742-.449.9-1.03.313-2.041.664-3.062,1.006a20.479,20.479,0,0,1-13.882-.088,2.354,2.354,0,0,0-1.289-.293c0,1.9.034,3.77-.02,5.654-.015.576.308.654.7.82a19.191,19.191,0,0,0,14.795.215c2.476-.947,2.5-.85,3.223,1.748.132.469.073.684-.425.83-1.1.322-2.173.693-3.252,1.064a20.394,20.394,0,0,1-10.576.762c-1.494-.273-2.91-.85-4.4-1.27-.02.254-.039.42-.039.586Zm86.728-28.76c-.61.205-1.138.371-1.655.547a21.842,21.842,0,0,1-7.271,1.113,26.731,26.731,0,0,1-8.184-1.807c-1.777-.625-1.782-.615-1.177-2.412.454-1.367.488-1.436,1.792-.9a19.683,19.683,0,0,0,15.684.205c.527-.225.84-.391.835-1.074-.044-3.818.01-7.637-.039-11.455a7.973,7.973,0,0,0-6.812-8.008c-4.478-.586-9.014-.127-13.525-.225-.352-.01-.479.146-.513.488-.029.381-.132.752-.19,1.123-.249,1.563-.244,1.563,1.216,1.865.269.068.542.127.8.205a6.345,6.345,0,0,1,4.419,4.961,6.864,6.864,0,0,1-2.324,6.943c-1.46,1.221-3.027,2.324-4.561,3.457a1.859,1.859,0,0,0-.771,1.064,17.914,17.914,0,0,1-7.212,10.469,1.069,1.069,0,0,0-.542,1.006c.029,1.523.034,3.057-.01,4.59-.01.557.156.742.723.811,5.024.654,10.049,1.338,15.063,2.012a20.118,20.118,0,0,1,4.683.938,11.819,11.819,0,0,1,6.821,6.758c.854,2.051,1.724,4.092,2.583,6.143l.142-.049v-18.75a2.266,2.266,0,0,0-1.113.273,21.342,21.342,0,0,1-9.624,1.152,44.562,44.562,0,0,1-7.7-2.119c-.459-.146-.317-.439-.234-.762.708-2.646.708-2.646,3.3-1.758.166.068.337.107.5.176,4.858,1.9,9.644,1.475,14.39-.439.313-.127.522-.234.513-.635C-618.314,1681.024-618.3,1679.081-618.3,1677.059Zm-23.188-30.02a4.422,4.422,0,0,0,.2-.547q1.15-6.5,2.295-13.008a1.7,1.7,0,0,0-1.9-2.119c-10.312,0-20.625-.029-30.937.01a8.214,8.214,0,0,0-8,6.768,42.568,42.568,0,0,0-.176,6.26c.137.02.176.039.2.02a6.108,6.108,0,0,0,.488-.391,11.484,11.484,0,0,1,9.1-2.676,17.008,17.008,0,0,1,4.81,1.6,8.6,8.6,0,0,0,5.684.654,22.307,22.307,0,0,0,3.379-1.338,11.691,11.691,0,0,1,7.222-.762A11.735,11.735,0,0,1-641.488,1647.04Zm-38.813,77.724c-2.227-2.588-4.282-4.99-6.348-7.392a4.151,4.151,0,0,1-.864-4.619,1.068,1.068,0,0,0-.415-1.445c-.791-.557-1.562-1.162-2.339-1.748-2.671-1.992-3.052-3.613-1.543-6.621,1.284-2.568,2.568-5.137,3.94-7.9-1.816.254-3.467.42-5.088.723a7.837,7.837,0,0,0-6.016,4.795c-3.086,7.207-6.108,14.434-9.141,21.66a1.7,1.7,0,0,0,1.665,2.549,1.506,1.506,0,0,0,.21,0H-680.3Zm45.068-29.678a2.04,2.04,0,0,0,.4,1.191c1.211,2.461,2.451,4.9,3.662,7.363a4.12,4.12,0,0,1-1.26,5.459c-.986.771-2,1.514-3,2.246a1,1,0,0,0-.4,1.357,4.271,4.271,0,0,1-.947,4.795c-1.831,2.09-3.633,4.2-5.43,6.318-.229.273-.566.488-.62.947,8.711,0,17.358.01,26.011,0a1.673,1.673,0,0,0,1.616-2.51c-3.062-7.295-6.1-14.58-9.224-21.846a7.756,7.756,0,0,0-5.3-4.5A39.952,39.952,0,0,0-635.233,1695.087Zm-37.148,29.668c-.1-.361-.146-.557-.21-.752q-4.8-14.385-9.614-28.779c-.1-.322-.024-.869-.586-.84a1.32,1.32,0,0,0-1.357.713c-1.611,3.3-3.262,6.582-4.922,9.863a1.077,1.077,0,0,0,.371,1.592c.991.7,1.963,1.436,2.92,2.188a4.121,4.121,0,0,1,1.47,4.98,1.324,1.324,0,0,0,.249,1.5q3.918,4.526,7.793,9.082a1.041,1.041,0,0,0,.874.459C-674.428,1724.725-673.456,1724.754-672.382,1724.754Zm23.33,0c.6-.186,1.377.313,2.021-.459,2.539-3.027,5.127-6.016,7.715-9a1.408,1.408,0,0,0,.288-1.6,4.079,4.079,0,0,1,1.509-4.971c.933-.723,1.87-1.436,2.837-2.119a1.123,1.123,0,0,0,.42-1.66c-1.66-3.252-3.291-6.494-4.878-9.775a1.341,1.341,0,0,0-1.323-.781c-.7-.059-.586.605-.7.957q-4.636,13.843-9.238,27.7C-650.976,1724.754-650.966,1724.754-649.052,1724.754Zm-12.617.02c1.885,0,3.755-.01,5.635.01.488,0,.684-.068.537-.635-.283-1.113-.493-2.227-.732-3.359q-1.494-6.973-2.969-13.936c-.112-.5-.205-.908-.923-.654a5.1,5.1,0,0,1-3.081.01c-.557-.176-.791-.01-.908.537q-1.838,8.716-3.721,17.4c-.122.566.049.635.537.635C-665.414,1724.764-663.539,1724.774-661.669,1724.774Zm-10-39.053c0,1.445.029,2.734-.015,4.014-.015.479.21.654.586.82q4.446,1.89,8.872,3.789a1.084,1.084,0,0,0,.981.068q4.526-1.948,9.063-3.877c.288-.127.532-.234.527-.645-.029-1.348-.015-2.7-.015-4.16-2.046.859-4.009,1.6-5.918,2.48a9.4,9.4,0,0,1-8.125.02C-667.626,1687.362-669.584,1686.59-671.664,1685.721Zm1.367,34.082c1.011-4.707,1.982-9.385,3.022-14.033.254-1.152.459-2.2-.405-3.184a2.106,2.106,0,0,1-.405-1.064c-.083-.625-.342-.615-.84-.4-1.982.811-3.965,1.631-5.981,2.373-.727.273-.81.566-.566,1.27,1.542,4.521,3.032,9.063,4.555,13.584A3.224,3.224,0,0,0-670.3,1719.8Zm17.266.039c.146-.186.21-.234.229-.293q2.52-7.529,5.044-15.068c.181-.518.02-.713-.464-.908q-3.091-1.187-6.172-2.451c-.474-.2-.713-.234-.85.391A5.362,5.362,0,0,1-656,1703.2a1.863,1.863,0,0,0-.273,1.543C-655.175,1709.745-654.115,1714.755-653.031,1719.842Zm-4.253-23.486c3.6,1.445,6.973,2.793,10.332,4.16.562.225.576-.2.679-.488.605-1.807,1.157-3.623,1.812-5.42.273-.742-.068-.811-.62-.879-1.274-.146-2.554-.312-3.828-.479a1.992,1.992,0,0,0-1.216.029C-652.44,1694.3-654.77,1695.282-657.284,1696.356Zm-8.75,0c-2.573-1.094-4.946-2.109-7.319-3.125a1.1,1.1,0,0,0-.5-.078c-1.547.2-3.1.42-4.643.615-.464.059-.566.254-.415.693.635,1.875,1.26,3.74,1.875,5.615.146.459.313.586.806.381,1.3-.576,2.636-1.064,3.955-1.582C-670.268,1698.065-668.246,1697.245-666.034,1696.356Zm-17.319-28.32c0-2.754-.015-5.283,0-7.812.01-.547-.3-.5-.654-.5a3.394,3.394,0,0,0-3.037,2.168,3.937,3.937,0,0,0,1.035,4.1C-685.223,1666.678-684.374,1667.264-683.353,1668.036Zm43.378.01c1.021-.781,1.875-1.367,2.651-2.041a3.93,3.93,0,0,0,1.03-4.1,3.415,3.415,0,0,0-3.022-2.178c-.469-.01-.679.059-.674.605C-639.955,1662.811-639.975,1665.3-639.975,1668.046Zm-21.7,35.039a3.4,3.4,0,0,0,3.311-2.773.757.757,0,0,0-.459-.986c-1.7-.83-3.389-1.406-5.151-.2a.967.967,0,0,1-.386.166c-.654.127-.693.557-.586,1.084A3.422,3.422,0,0,0-661.679,1703.085Z" transform="translate(-0.001 0)" fill="#020202"/>
    <path id="Trazado_169944" data-name="Trazado 169944" d="M-561.474,1704.522c-.122,2.578.288,5.82-.186,9.023a14.365,14.365,0,0,1-8.628,11.563c-2.48,1.172-5.039,2.148-7.563,3.2a4.9,4.9,0,0,1-3.857.02c-2.563-1.035-5.161-2.031-7.661-3.223a14.482,14.482,0,0,1-8.77-13.555c-.122-5.273-.049-10.547-.024-15.84a8.2,8.2,0,0,1,11.4-7.617,26.3,26.3,0,0,0,4.98,1.777,12.383,12.383,0,0,0,7.392-1.133,10.149,10.149,0,0,1,5.811-1.211,8.213,8.213,0,0,1,7.1,8.008C-561.445,1698.311-561.474,1701.084-561.474,1704.522Zm-24,5.84a5.07,5.07,0,0,0,3.13,4.824c2.021.879,3.813.391,5.649-.586.83-.43.986-.762.474-1.5-.386-.586-.493-1.5-.991-1.777-.61-.332-1.274.449-1.909.742a2.157,2.157,0,0,1-2.5-.371c-.7-.605-.557-1.406-.254-2.207.918-2.422,1.816-4.844,2.729-7.266.923-2.461.913-2.441-1.5-3.32-.62-.234-.825-.059-1.03.508-1.128,3.086-2.29,6.152-3.442,9.219A4.6,4.6,0,0,0-585.472,1710.362Zm5.5,12.7a12.368,12.368,0,0,0,6.04-1.5c1.543-.8,1.548-.781.767-2.344-.718-1.445-.747-1.484-2.163-.723a8.7,8.7,0,0,1-8.271.352c-.713-.332-1.509-1.152-2.1-.879s-.791,1.328-1.162,2.012c-.059.117-.117.254-.186.371-.181.332-.059.488.254.645C-584.633,1722.119-582.44,1723.155-579.969,1723.057Zm-9.971-30.039a14.1,14.1,0,0,0-4.585.9c-.85.313-1.152.684-.562,1.543.371.508.459,1.348.933,1.68.576.43,1.235-.254,1.855-.449,2.178-.605,4.263-.059,6.362.391,2.568.547,2.563.547,2.979-2.051a1.15,1.15,0,0,1,.044-.312c.127-.371-.083-.488-.4-.547A58.361,58.361,0,0,0-589.94,1693.018Zm20.346.02a5.471,5.471,0,0,0-.771.039c-1.3.234-2.588.449-3.887.7-.835.176-2.055,0-2.392.664-.312.586.254,1.621.352,2.48.068.605.322.625.82.508.977-.254,1.968-.41,2.949-.605a11.127,11.127,0,0,1,4.946-.2c.713.176,1.5.938,2.065.547.576-.41.723-1.387,1.133-2.07.366-.605.137-.82-.41-1.055A13.278,13.278,0,0,0-569.594,1693.037Zm-17.729,6.211c-2.573,0-2.573,0-2.5,2.6a.471.471,0,0,1,0,.117c-.078.488.127.645.63.645,1.177-.039,2.358-.059,3.535,0,.669.039.859-.156.859-.859C-584.813,1699.248-584.789,1699.248-587.323,1699.248Zm14.96,3.34c2.744,0,2.729,0,2.563-2.773-.024-.449-.142-.586-.6-.566-1.177.02-2.358.039-3.53-.02-.737-.039-.918.2-.913.918C-574.8,1702.588-574.838,1702.588-572.363,1702.588Z" transform="translate(-81.846 -42.875)" fill="#f7c5b0"/>
    <path id="Trazado_169945" data-name="Trazado 169945" d="M-687.907,1770.551v-18.223c0-.176.02-.332.039-.586,1.494.41,2.91,1,4.4,1.27a20.478,20.478,0,0,0,10.571-.762c1.084-.371,2.158-.742,3.252-1.074.5-.137.557-.352.43-.82-.723-2.6-.752-2.7-3.223-1.758a19.147,19.147,0,0,1-14.795-.215c-.391-.156-.713-.234-.7-.82.059-1.875.024-3.73.024-5.645a2.354,2.354,0,0,1,1.289.293,20.421,20.421,0,0,0,13.882.078c1.016-.332,2.031-.684,3.062-1,.513-.156.605-.371.444-.9-.767-2.539-.781-2.617-3.3-1.7a18,18,0,0,1-10.811.977c-1.377-.332-2.71-.859-4.072-1.25-.43-.137-.5-.391-.5-.781.01-4.023-.088-8.047.049-12.09a8.163,8.163,0,0,1,7.842-7.734c4.375-.1,8.755,0,13.13-.039.581,0,.747.2.664.723-.01.1,0,.2,0,.293a5.2,5.2,0,0,1-.063,2.07c-.322.625-1.235.234-1.885.391a6.467,6.467,0,0,0-5.068,4.961,6.936,6.936,0,0,0,2.52,7.363c1.406,1.133,2.871,2.188,4.326,3.242a1.9,1.9,0,0,1,.781,1.172,17.844,17.844,0,0,0,7.119,10.293,1.249,1.249,0,0,1,.625,1.191c-.039,1.406-.063,2.832.01,4.277.029.742-.186,1-.928,1.074q-5.786.732-11.562,1.523c-1.924.254-3.857.469-5.771.82a11.357,11.357,0,0,0-8.853,6.934c-.962,2.148-1.836,4.316-2.749,6.484Z" transform="translate(-17.118 -64.745)" fill="#fff1db"/>
    <path id="Trazado_169946" data-name="Trazado 169946" d="M-454.344,1741.621c0,2.031-.015,3.965.01,5.918,0,.391-.205.508-.513.625-4.746,1.914-9.536,2.344-14.395.449l-.488-.176c-2.6-.9-2.6-.9-3.306,1.758-.083.313-.229.605.229.762a47.438,47.438,0,0,0,7.7,2.129,21.5,21.5,0,0,0,9.624-1.172,2.362,2.362,0,0,1,1.113-.273v18.75l-.146.059c-.859-2.051-1.724-4.082-2.578-6.133a11.805,11.805,0,0,0-6.826-6.777,21.194,21.194,0,0,0-4.678-.937c-5.024-.664-10.044-1.348-15.068-1.992-.562-.078-.732-.254-.713-.82.039-1.523.029-3.066,0-4.59a1.039,1.039,0,0,1,.547-1,18,18,0,0,0,7.211-10.488,1.809,1.809,0,0,1,.767-1.055c1.533-1.133,3.105-2.227,4.561-3.457a6.879,6.879,0,0,0,2.329-6.953,6.284,6.284,0,0,0-4.419-4.941,5.764,5.764,0,0,0-.806-.215c-1.46-.312-1.46-.312-1.216-1.875.063-.352.166-.742.2-1.113.034-.332.156-.508.513-.488,4.507.1,9.043-.371,13.525.215a8,8,0,0,1,6.812,8.008c.044,3.828-.01,7.637.034,11.465,0,.684-.3.84-.84,1.074a19.713,19.713,0,0,1-15.679-.215c-1.3-.527-1.333-.449-1.792.918-.6,1.8-.6,1.777,1.177,2.4a26.188,26.188,0,0,0,8.188,1.8,21.844,21.844,0,0,0,7.271-1.094C-455.482,1742.012-454.96,1741.836-454.344,1741.621Z" transform="translate(-163.957 -64.572)" fill="#fff1db"/>
    <path id="Trazado_169947" data-name="Trazado 169947" d="M-559.612,1655.664a11.732,11.732,0,0,0-7.651-5.527,11.609,11.609,0,0,0-7.217.781,23.165,23.165,0,0,1-3.383,1.328,8.639,8.639,0,0,1-5.679-.645,17.34,17.34,0,0,0-4.814-1.621,11.416,11.416,0,0,0-9.092,2.7c-.156.137-.322.254-.488.391a1.315,1.315,0,0,1-.2-.02,42.625,42.625,0,0,1,.176-6.27,8.192,8.192,0,0,1,8-6.758c10.313-.039,20.625-.02,30.937-.02a1.709,1.709,0,0,1,1.9,2.129c-.757,4.336-1.528,8.652-2.295,12.988A3.916,3.916,0,0,1-559.612,1655.664Z" transform="translate(-81.878 -8.64)" fill="#727997"/>
    <path id="Trazado_169948" data-name="Trazado 169948" d="M-671.64,1898.277h-25.937a.721.721,0,0,1-.205,0,1.688,1.688,0,0,1-1.67-2.539c3.037-7.227,6.055-14.453,9.146-21.66a7.833,7.833,0,0,1,6.011-4.8c1.621-.293,3.271-.469,5.088-.723-1.372,2.773-2.651,5.332-3.94,7.91-1.509,3.008-1.128,4.629,1.543,6.621.776.586,1.553,1.191,2.339,1.738a1.073,1.073,0,0,1,.415,1.445,4.169,4.169,0,0,0,.864,4.629C-675.922,1893.277-673.867,1895.7-671.64,1898.277Z" transform="translate(-8.661 -173.512)" fill="#111e61"/>
    <path id="Trazado_169949" data-name="Trazado 169949" d="M-457.011,1868.717a36.039,36.039,0,0,1,5.513.82,7.71,7.71,0,0,1,5.3,4.492c3.12,7.266,6.167,14.551,9.224,21.855a1.67,1.67,0,0,1-1.621,2.5c-8.647.02-17.295,0-26.006,0,.054-.449.386-.664.615-.937,1.8-2.129,3.6-4.238,5.43-6.328a4.259,4.259,0,0,0,.952-4.785,1.013,1.013,0,0,1,.4-1.367c1.006-.723,2.012-1.484,3-2.246a4.106,4.106,0,0,0,1.26-5.449c-1.206-2.461-2.446-4.922-3.662-7.363A2.163,2.163,0,0,1-457.011,1868.717Z" transform="translate(-178.223 -173.632)" fill="#111e61"/>
    <path id="Trazado_169950" data-name="Trazado 169950" d="M-614.409,1896.549c-1.074,0-2.046-.039-3.008,0a1.026,1.026,0,0,1-.874-.449c-2.588-3.047-5.181-6.055-7.8-9.082a1.335,1.335,0,0,1-.249-1.5,4.109,4.109,0,0,0-1.47-4.98c-.957-.762-1.929-1.484-2.92-2.187a1.071,1.071,0,0,1-.371-1.582c1.66-3.3,3.311-6.582,4.922-9.883a1.33,1.33,0,0,1,1.357-.7c.566-.039.483.508.586.84q4.827,14.385,9.614,28.77C-614.556,1895.982-614.507,1896.177-614.409,1896.549Z" transform="translate(-57.974 -171.799)" fill="#111e61"/>
    <path id="Trazado_169951" data-name="Trazado 169951" d="M-491.3,1896.557c-1.914,0-1.919,0-1.353-1.719,3.071-9.219,6.143-18.477,9.243-27.7.117-.352,0-1.016.7-.977a1.384,1.384,0,0,1,1.318.781c1.592,3.3,3.223,6.543,4.878,9.785a1.118,1.118,0,0,1-.425,1.66c-.957.684-1.9,1.406-2.837,2.129a4.086,4.086,0,0,0-1.5,4.961,1.4,1.4,0,0,1-.288,1.6c-2.587,2.988-5.175,5.977-7.714,9C-489.925,1896.87-490.707,1896.362-491.3,1896.557Z" transform="translate(-157.752 -171.792)" fill="#111e61"/>
    <path id="Trazado_169952" data-name="Trazado 169952" d="M-548.282,1926.986c-1.87,0-3.745-.02-5.625,0-.488,0-.659-.078-.537-.625q1.9-8.7,3.721-17.422c.117-.547.347-.7.9-.527a5.046,5.046,0,0,0,3.086-.02c.718-.234.811.156.918.664q1.487,6.973,2.974,13.945c.239,1.113.444,2.246.732,3.359.146.547-.049.625-.537.625C-544.527,1926.966-546.4,1926.986-548.282,1926.986Z" transform="translate(-113.387 -202.201)" fill="#ff9800"/>
    <path id="Trazado_169953" data-name="Trazado 169953" d="M-568.141,1835.105c2.08.859,4.038,1.621,5.957,2.5a9.4,9.4,0,0,0,8.125-.02c1.909-.879,3.872-1.621,5.918-2.48,0,1.465-.015,2.813.015,4.16,0,.41-.239.527-.527.645q-4.526,1.934-9.062,3.867a1.083,1.083,0,0,1-.981-.059q-4.431-1.9-8.872-3.789c-.376-.176-.6-.332-.586-.82C-568.112,1837.84-568.141,1836.531-568.141,1835.105Z" transform="translate(-103.523 -149.385)" fill="#f7c5b0"/>
    <path id="Trazado_169954" data-name="Trazado 169954" d="M-576.909,1908.718a3.269,3.269,0,0,1-.625-1.465c-1.519-4.512-3.008-9.062-4.551-13.574-.244-.7-.161-1,.566-1.27,2.017-.742,4-1.562,5.981-2.383.493-.215.757-.215.835.41a2.113,2.113,0,0,0,.41,1.055c.859,1,.659,2.031.405,3.184C-574.926,1899.323-575.9,1904.01-576.909,1908.718Z" transform="translate(-93.387 -188.912)" fill="#fefefe"/>
    <path id="Trazado_169955" data-name="Trazado 169955" d="M-509.763,1908.743c-1.089-5.078-2.144-10.1-3.242-15.1a1.881,1.881,0,0,1,.273-1.543,5.277,5.277,0,0,0,.742-1.68c.142-.625.381-.586.859-.391,2.051.84,4.106,1.641,6.172,2.441.479.2.645.391.469.918-1.7,5.02-3.369,10.039-5.049,15.059A1.365,1.365,0,0,1-509.763,1908.743Z" transform="translate(-143.266 -188.917)" fill="#fefefe"/>
    <path id="Trazado_169956" data-name="Trazado 169956" d="M-516.5,1865.03c2.515-1.074,4.849-2.07,7.163-3.086a1.975,1.975,0,0,1,1.211-.02c1.279.156,2.554.332,3.828.488.557.059.9.117.625.879-.654,1.777-1.211,3.613-1.816,5.41-.1.293-.117.7-.674.488C-509.526,1867.823-512.895,1866.475-516.5,1865.03Z" transform="translate(-140.788 -168.668)" fill="#ddd"/>
    <path id="Trazado_169957" data-name="Trazado 169957" d="M-581.419,1864.976c-2.207.879-4.229,1.7-6.24,2.5-1.318.527-2.656,1.016-3.955,1.6-.5.2-.664.078-.811-.391-.615-1.875-1.235-3.75-1.87-5.605-.151-.449-.049-.645.415-.7,1.548-.2,3.1-.41,4.644-.605a1.112,1.112,0,0,1,.5.078C-586.36,1862.866-583.987,1863.882-581.419,1864.976Z" transform="translate(-84.621 -168.619)" fill="#ddd"/>
    <path id="Trazado_169958" data-name="Trazado 169958" d="M-620.119,1750.1c-1.016-.762-1.87-1.348-2.651-2.031a3.944,3.944,0,0,1-1.03-4.1,3.367,3.367,0,0,1,3.032-2.168c.356,0,.664-.059.659.488C-620.134,1744.826-620.119,1747.346-620.119,1750.1Z" transform="translate(-63.238 -82.076)" fill="#f7c5b0"/>
    <path id="Trazado_169959" data-name="Trazado 169959" d="M-454.4,1750.106c0-2.754.02-5.234-.015-7.715,0-.547.205-.625.669-.605a3.4,3.4,0,0,1,3.027,2.168,3.925,3.925,0,0,1-1.03,4.1C-452.531,1748.739-453.381,1749.325-454.4,1750.106Z" transform="translate(-185.571 -82.067)" fill="#f7c5b0"/>
    <path id="Trazado_169960" data-name="Trazado 169960" d="M-540.861,1885.4a3.431,3.431,0,0,1-3.271-2.715c-.107-.527-.068-.957.586-1.074a1.381,1.381,0,0,0,.386-.176c1.763-1.211,3.447-.645,5.151.2a.767.767,0,0,1,.459,1A3.416,3.416,0,0,1-540.861,1885.4Z" transform="translate(-120.82 -182.301)" fill="#ff9800"/>
    <path id="Trazado_169961" data-name="Trazado 169961" d="M-552.515,1739.76a4.6,4.6,0,0,1,.347-1.738c1.157-3.066,2.314-6.133,3.442-9.219.21-.566.41-.742,1.035-.508,2.412.879,2.422.859,1.5,3.32-.908,2.422-1.812,4.844-2.729,7.266-.3.8-.449,1.582.259,2.207a2.117,2.117,0,0,0,2.5.352c.635-.273,1.3-1.055,1.909-.723.5.273.605,1.191.991,1.777.513.742.361,1.074-.469,1.5-1.841.957-3.633,1.465-5.654.566A5.025,5.025,0,0,1-552.515,1739.76Z" transform="translate(-114.803 -72.264)" fill="#020202"/>
    <path id="Trazado_169962" data-name="Trazado 169962" d="M-551.28,1801.923c-2.476.078-4.668-.937-6.826-2.07-.3-.156-.435-.312-.249-.645.063-.117.122-.254.181-.371.371-.7.586-1.738,1.162-2.012s1.392.547,2.1.879a8.707,8.707,0,0,0,8.276-.352c1.416-.762,1.44-.723,2.158.723.781,1.563.776,1.543-.767,2.344A12.338,12.338,0,0,1-551.28,1801.923Z" transform="translate(-110.532 -121.733)" fill="#020202"/>
    <path id="Trazado_169963" data-name="Trazado 169963" d="M-582.663,1707.463a63.122,63.122,0,0,1,6.626,1.133c.317.059.527.176.4.566a1.135,1.135,0,0,0-.039.313c-.415,2.6-.41,2.578-2.979,2.051-2.1-.449-4.18-1-6.362-.391-.62.176-1.279.879-1.855.449-.473-.352-.561-1.172-.932-1.7-.591-.859-.288-1.23.562-1.543A14.615,14.615,0,0,1-582.663,1707.463Z" transform="translate(-89.125 -57.309)" fill="#020202"/>
    <path id="Trazado_169964" data-name="Trazado 169964" d="M-514.01,1707.472a13.292,13.292,0,0,1,4.8,1.035c.552.234.776.449.41,1.055-.41.664-.557,1.641-1.128,2.051-.566.391-1.353-.371-2.07-.527a11.109,11.109,0,0,0-4.941.2c-.981.2-1.973.352-2.949.586-.5.117-.757.117-.825-.488-.1-.859-.664-1.895-.347-2.5.337-.645,1.558-.488,2.393-.664,1.294-.234,2.588-.469,3.882-.684A5.778,5.778,0,0,1-514.01,1707.472Z" transform="translate(-137.426 -57.316)" fill="#020202"/>
    <path id="Trazado_169965" data-name="Trazado 169965" d="M-565.674,1729.806c2.534,0,2.51,0,2.52,2.5,0,.7-.19.9-.859.859-1.177-.059-2.358-.039-3.535,0-.5,0-.708-.156-.63-.645a.471.471,0,0,0,0-.117C-568.247,1729.806-568.247,1729.806-565.674,1729.806Z" transform="translate(-103.493 -73.427)" fill="#020202"/>
    <path id="Trazado_169966" data-name="Trazado 169966" d="M-511.855,1733.089c-2.471,0-2.441,0-2.471-2.461,0-.723.171-.937.908-.9,1.172.059,2.358.039,3.535,0,.449,0,.566.117.591.586C-509.126,1733.089-509.106,1733.089-511.855,1733.089Z" transform="translate(-142.354 -73.369)" fill="#020202"/>
  </g>
</svg>
