<svg xmlns="http://www.w3.org/2000/svg" width="83.651" height="90" viewBox="0 0 83.651 90">
  <g id="Grupo_85682" data-name="Grupo 85682" transform="translate(-274.294 -1172.511)">
    <path id="Trazado_149486" data-name="Trazado 149486" d="M283.256,1262.511a17.879,17.879,0,0,1-1.66-.87,4.963,4.963,0,0,1-2.378-4.336c-.011-5.888,0-11.777-.005-17.666a4.849,4.849,0,0,1,1.933-4.036c.586-.447.43-.7.136-1.155-1.512-2.358-3.165-4.63-4.443-7.134a21.157,21.157,0,0,1-2.531-10.513,14.357,14.357,0,0,1,11.422-13.62,9.4,9.4,0,0,1,2.714-.071.715.715,0,0,0,.81-.46,13.281,13.281,0,0,1,.864-1.42c.835-1.235,1.545-1.41,2.888-.738.8,1.183.8,1.59.011,2.771a13.721,13.721,0,0,0-2.332,8.64,20.728,20.728,0,0,0,2.519,8.677c2.444,4.557,5.213,8.928,7.792,13.408a.753.753,0,0,0,.776.4q5.975-.014,11.95,0c.472,0,.656-.095.656-.617q-.022-16.212-.006-32.424a1.092,1.092,0,0,0-.327-.859,12.08,12.08,0,0,0-7.9-3.541c-1.458-.1-1.889-.378-2.335-1.765.337-1.464.841-1.826,2.317-1.782a14.361,14.361,0,0,1,3.7.619c.483.145.552.029.541-.4-.019-.7-.04-1.408.007-2.108.034-.509-.2-.568-.612-.556-.82.024-1.64.013-2.46.006a3.457,3.457,0,0,1-3.48-3.513q-.013-2.2,0-4.394a3.453,3.453,0,0,1,3.562-3.518c.791,0,1.583-.033,2.372.011.517.029.638-.156.618-.641-.037-.936-.035-1.875,0-2.812a3.537,3.537,0,0,1,3.712-3.589q2.021,0,4.042,0a3.551,3.551,0,0,1,3.756,3.636c.027.937.028,1.875,0,2.811-.016.451.1.615.577.594.848-.038,1.7-.02,2.548-.009a3.452,3.452,0,0,1,3.425,3.39q.027,2.328,0,4.657a3.453,3.453,0,0,1-3.353,3.374c-.849.016-1.7.026-2.548-.006-.468-.018-.679.08-.65.609.046.84.012,1.684.012,2.582a18.221,18.221,0,0,1,21.069,8.422c.207.365.377.591.848.536,5.836-.681,12.391,4.156,13.808,11.258.951,4.767-.209,9.141-2.4,13.328-1.25,2.384-2.834,4.563-4.281,6.826-.254.4-.411.62.113,1.02a5,5,0,0,1,2,4.184q-.015,8.612,0,17.223a5.186,5.186,0,0,1-4.132,5.428c-.039.011-.058.088-.087.134ZM316.114,1259h31.1c1.679,0,2.3-.607,2.3-2.255q0-8.3,0-16.608c0-1.6-.633-2.228-2.237-2.229h-62.3c-1.651,0-2.255.617-2.255,2.3q0,8.216,0,16.432c0,1.793.571,2.363,2.368,2.363Zm1.769-41.452c0,5.36.01,10.72-.014,16.079,0,.608.14.784.766.779q5.842-.045,11.685,0a1.091,1.091,0,0,0,1.083-.652c2.151-3.681,4.33-7.346,6.484-11.026a24.452,24.452,0,0,0,3.593-10.139,13.8,13.8,0,0,0-8.741-14.52c-5.1-2.006-9.954-1.682-14.24,2.133a1.739,1.739,0,0,0-.631,1.44C317.892,1206.94,317.882,1212.241,317.882,1217.543Zm17.232,16.843c3.87,0,7.583-.008,11.3.011.42,0,.542-.261.713-.524,1.256-1.937,2.525-3.865,3.763-5.812a20.19,20.19,0,0,0,3.441-9.076,11.354,11.354,0,0,0-4.223-10.415,8.64,8.64,0,0,0-4.7-1.96c-.594-.056-.882-.041-.694.767a17.568,17.568,0,0,1,.151,6.8,29.509,29.509,0,0,1-3.958,10.4C339,1227.794,337.105,1231.011,335.115,1234.386Zm-38.009,0c-.235-.419-.4-.721-.571-1.018-2.049-3.5-4.181-6.963-6.128-10.523-2.6-4.75-3.949-9.788-2.928-15.258.2-1.054.146-1.1-.937-.962-.115.014-.229.047-.343.07-5.394,1.108-8.817,6.438-8.323,12.072a18.541,18.541,0,0,0,2.744,8.051c1.47,2.422,3.054,4.776,4.568,7.172a.8.8,0,0,0,.785.4C289.633,1234.382,293.293,1234.386,297.106,1234.386Zm21.185-42c0-.966-.02-1.933,0-2.9a1.823,1.823,0,0,1,2.075-2.032c1.318,0,2.636-.018,3.953.008.448.009.615-.1.6-.58-.035-1.082-.035-2.168,0-3.25.015-.474-.143-.594-.6-.583-1.229.029-2.459.01-3.689.01-1.774,0-2.342-.575-2.346-2.382,0-1.289-.029-2.578.012-3.865.019-.583-.1-.837-.751-.8a24.907,24.907,0,0,1-2.9,0c-.615-.035-.72.21-.707.751.032,1.4.029,2.811.005,4.217a1.842,1.842,0,0,1-2.121,2.076c-1.318,0-2.636.015-3.953-.007-.412-.007-.563.1-.552.536q.041,1.668,0,3.338c-.011.433.143.543.553.536,1.229-.023,2.46-.009,3.689-.008,1.832,0,2.385.561,2.388,2.428,0,1.786.016,3.573-.01,5.359a1.036,1.036,0,0,0,.511,1.013,12.474,12.474,0,0,1,1.317,1.02.447.447,0,0,0,.669.032c1.839-1.285,1.846-1.275,1.846-3.514Q318.29,1193.089,318.29,1192.386Z" fill="#111e61"/>
    <path id="Trazado_149488" data-name="Trazado 149488" d="M370.838,1269.426c.148,1.711-.561,2.587-1.949,2.442a2.046,2.046,0,0,1-1.33-.878c-.33-1.186-.04-2.028.843-2.453S370.089,1268.409,370.838,1269.426Z" transform="translate(-71.256 -73.327)" fill="#111e61"/>
    <path id="Trazado_149494" data-name="Trazado 149494" d="M436.463,1470a8.161,8.161,0,0,1-2.563,6.12,6.463,6.463,0,0,1-9.663-.77,8.6,8.6,0,0,1,.188-10.9c3.461-4.023,9.612-2.663,11.5,2.547A8.168,8.168,0,0,1,436.463,1470Zm-3.525.452a5.04,5.04,0,0,0-1.406-3.907,2.857,2.857,0,0,0-4.21-.006,4.97,4.97,0,0,0-.037,6.924,2.866,2.866,0,0,0,4.272.006A4.6,4.6,0,0,0,432.938,1470.451Z" transform="translate(-113.301 -221.572)" fill="#111e61"/>
    <path id="Trazado_149495" data-name="Trazado 149495" d="M356.122,1477.13a5.72,5.72,0,0,1-5.752,5.725,5.732,5.732,0,0,1,.016-11.464A5.714,5.714,0,0,1,356.122,1477.13Zm-3.529.028a2.129,2.129,0,0,0-2.178-2.223,2.187,2.187,0,1,0,.016,4.373A2.122,2.122,0,0,0,352.592,1477.158Z" transform="translate(-53.859 -228.674)" fill="#111e61"/>
    <path id="Trazado_149496" data-name="Trazado 149496" d="M522.814,1477.116a5.792,5.792,0,0,1-5.684,5.739,5.732,5.732,0,1,1-.011-11.465A5.789,5.789,0,0,1,522.814,1477.116Zm-5.735-2.18a2.187,2.187,0,0,0,0,4.373,2.187,2.187,0,1,0,0-4.373Z" transform="translate(-181.396 -228.674)" fill="#111e61"/>
  </g>
</svg>
