<svg xmlns="http://www.w3.org/2000/svg" width="78.914" height="100" viewBox="0 0 78.914 100">
  <g id="Grupo_110665" data-name="Grupo 110665" transform="translate(728.633 -1721.255)">
    <path id="Trazado_170206" data-name="Trazado 170206" d="M-615.655,1783.561l.009-15.144a1.976,1.976,0,0,1-.424-1,8.037,8.037,0,0,1-.019-.975c0-9.7-.013-19.4.02-29.1,0-.918-.132-1.229-1.169-1.227q-29.728.059-59.455.012c-.829,0-1.127.126-1.126,1.067q.046,38.816,0,77.632c0,.9.264,1.025,1.071,1.025q29.825-.035,59.651.007c.9,0,1.028-.26,1.026-1.07q-.043-14.647-.018-29.3a7.135,7.135,0,0,1,.024-.975A1.949,1.949,0,0,1-615.655,1783.561Zm-20.368,26.009q-10.924.006-21.847,0c-1.424,0-2.318-.74-2.345-1.912-.028-1.217.874-1.989,2.353-1.991q5.511-.007,11.021,0,5.413,0,10.826,0c1.446,0,2.317.717,2.345,1.9C-633.642,1808.781-634.555,1809.569-636.023,1809.57Zm7.884-9.4a5.933,5.933,0,0,1-.876.026q-17.952,0-35.9,0c-.228,0-.457.012-.682-.011a1.969,1.969,0,0,1-1.838-2.021,1.922,1.922,0,0,1,1.887-1.86c.974-.039,1.951-.014,2.926-.014h33.465c.293,0,.587-.012.878.011a1.935,1.935,0,0,1,1.837,1.912A1.961,1.961,0,0,1-628.139,1800.17Zm2.378-23.6c-1.709,1.649-3.366,3.353-5.049,5.029-1.386,1.38-2.613,1.257-3.657-.38-2.286-3.587-4.561-7.182-6.889-10.849a54.6,54.6,0,0,1-4.218,3.922c-.307.23-.184.521-.128.8.345,1.719.665,3.444,1.05,5.155a2.764,2.764,0,0,1-.864,2.9c-1.43,1.327-2.766,2.755-4.158,4.124-1.442,1.417-3.041,1-3.6-.952q-.977-3.415-1.887-6.85c-.157-.6-.378-.9-1.046-.727-2.806.708-4.19-.455-3.452-3.521.156-.646-.163-.831-.693-.975q-3.475-.941-6.939-1.925c-1.888-.54-2.318-2.149-.948-3.543,1.459-1.486,2.949-2.942,4.411-4.425a2.233,2.233,0,0,1,2.2-.7c1.811.378,3.64.676,5.445,1.081a1.008,1.008,0,0,0,1.226-.416,49.912,49.912,0,0,1,3.636-3.908l-7.427-4.718c-1.124-.714-2.25-1.424-3.372-2.141q-2.481-1.588-.439-3.645c1.7-1.708,3.427-3.385,5.1-5.12a2.34,2.34,0,0,1,2.817-.594c4.2,1.622,8.441,3.164,12.623,4.84a2.081,2.081,0,0,0,2.734-.565,12.165,12.165,0,0,1,9.609-3.932c3.319.082,4.12.86,4.206,4.184a12.427,12.427,0,0,1-4.2,9.9,1.574,1.574,0,0,0-.443,2.066c1.69,4.318,3.291,8.67,4.97,12.992A2.4,2.4,0,0,1-625.761,1776.57Z" transform="translate(-37.553 -10.98)" fill="#ffee58"/>
    <path id="Trazado_170207" data-name="Trazado 170207" d="M-721.987,1821.255c-.151-.328-.5-.263-.754-.342a8.163,8.163,0,0,1-5.878-7.861c-.026-4.589-.007-9.179-.007-13.769q0-34.568,0-69.136c0-5.479,3.4-8.891,8.869-8.891h67.265c2.2,0,2.754.557,2.754,2.778q0,15.722,0,31.443a7.545,7.545,0,0,1-.022.975,1.959,1.959,0,0,1-1.939,1.712,1.956,1.956,0,0,1-1.924-1.729,8.038,8.038,0,0,1-.019-.975c0-9.7-.013-19.4.02-29.1,0-.918-.132-1.229-1.169-1.227q-29.728.059-59.455.012c-.829,0-1.127.126-1.126,1.067q.046,38.816,0,77.632c0,.9.264,1.025,1.071,1.024q29.825-.034,59.651.007c.9,0,1.028-.26,1.026-1.07q-.043-14.647-.018-29.295a7.139,7.139,0,0,1,.024-.975,1.955,1.955,0,0,1,1.96-1.687,1.961,1.961,0,0,1,1.891,1.655,6.447,6.447,0,0,1,.028.975q0,22.069.02,44.138a2.641,2.641,0,0,1-1.386,2.641Zm34.461-3.927q16.446,0,32.891.021c.827,0,1.013-.21.991-1.009-.061-2.179-.069-4.361,0-6.539.029-.869-.21-1.046-1.055-1.045q-32.55.039-65.1.021c-.293,0-.586-.01-.878.009a4.291,4.291,0,0,0-3.812,5.591,4.347,4.347,0,0,0,4.361,2.95Q-703.825,1817.331-687.526,1817.328Zm-37.2-11.269a7.786,7.786,0,0,1,4.387-1.19c.89.054,1.1-.213,1.1-1.1q-.039-38.762-.021-77.524a3.744,3.744,0,0,1,0-.488c.061-.461-.116-.59-.588-.61a4.384,4.384,0,0,0-4.881,4.684q0,37.688,0,75.376Z"/>
    <path id="Trazado_170208" data-name="Trazado 170208" d="M-626.454,1782.633l-7.427-4.718c-1.124-.714-2.25-1.424-3.372-2.141q-2.481-1.588-.439-3.645c1.7-1.708,3.427-3.385,5.1-5.12a2.34,2.34,0,0,1,2.817-.594c4.2,1.622,8.441,3.164,12.623,4.84a2.081,2.081,0,0,0,2.734-.565,12.164,12.164,0,0,1,9.61-3.932c3.319.082,4.12.86,4.206,4.183a12.427,12.427,0,0,1-4.2,9.9,1.575,1.575,0,0,0-.443,2.066c1.69,4.317,3.291,8.67,4.97,12.992a2.4,2.4,0,0,1-.615,2.9c-1.709,1.649-3.365,3.353-5.049,5.029-1.386,1.38-2.613,1.257-3.657-.38-2.286-3.587-4.561-7.182-6.889-10.849a54.6,54.6,0,0,1-4.218,3.922c-.307.23-.184.521-.128.8.345,1.719.665,3.444,1.05,5.155a2.764,2.764,0,0,1-.864,2.9c-1.43,1.327-2.766,2.755-4.158,4.124-1.442,1.417-3.041,1-3.6-.952q-.977-3.415-1.887-6.85c-.157-.6-.378-.9-1.046-.727-2.806.708-4.19-.455-3.452-3.521.156-.646-.163-.831-.693-.975q-3.475-.941-6.939-1.925c-1.888-.54-2.318-2.148-.948-3.543,1.459-1.486,2.949-2.942,4.411-4.425a2.234,2.234,0,0,1,2.2-.7c1.811.378,3.64.676,5.445,1.081a1.008,1.008,0,0,0,1.226-.416A49.925,49.925,0,0,1-626.454,1782.633Zm21.078-11.986a8.735,8.735,0,0,0-6,2.5c-4.928,4.913-9.86,9.822-14.744,14.779a17.848,17.848,0,0,0-4.477,8.2c-.155.593-.127.814.606.628a18.186,18.186,0,0,0,8.485-4.73q7.278-7.207,14.49-14.481a8.677,8.677,0,0,0,2.505-5.762C-604.454,1770.933-604.612,1770.417-605.376,1770.647Zm-13.225,4.2c-3.9-1.48-7.653-2.906-11.408-4.338a.651.651,0,0,0-.775.212c-.773.791-1.546,1.582-2.347,2.344-.365.347-.318.51.1.772q4.5,2.82,8.97,5.684c.269.171.486.282.766,0C-621.762,1777.985-620.218,1776.458-618.6,1774.85Zm9.91,9.917c-1.622,1.621-3.127,3.139-4.652,4.636a.5.5,0,0,0-.081.746q2.9,4.554,5.786,9.117c.2.32.35.4.646.091.811-.842,1.641-1.666,2.478-2.482a.631.631,0,0,0,.117-.787C-605.815,1792.367-607.223,1788.642-608.691,1784.767Zm-29.611,6.88c1.417.392,2.81.771,4.2,1.168.255.073.415.084.528-.209.209-.542.449-1.073.686-1.6.137-.306,0-.383-.282-.431-.637-.11-1.268-.253-1.9-.379C-636.921,1789.827-637.15,1789.927-638.3,1791.647Zm12.815,12.841c1.488-.863,2.027-1.98,1.414-3.524a1.748,1.748,0,0,1-.076-.281c-.4-1.894-.59-1.96-2.3-.961-.33.193-.265.352-.19.617C-626.25,1801.7-625.879,1803.065-625.487,1804.488Z" transform="translate(-62.419 -33.206)"/>
    <path id="Trazado_170209" data-name="Trazado 170209" d="M-617.525,1966.7h17.757c.293,0,.587-.012.878.011a1.935,1.935,0,0,1,1.837,1.912,1.961,1.961,0,0,1-1.694,1.956,5.95,5.95,0,0,1-.876.026h-35.9c-.228,0-.457.011-.682-.01a1.97,1.97,0,0,1-1.838-2.021,1.922,1.922,0,0,1,1.887-1.86c.974-.039,1.951-.013,2.926-.014Z" transform="translate(-66.945 -181.386)"/>
    <path id="Trazado_170210" data-name="Trazado 170210" d="M-596.986,2002.64q5.413,0,10.826,0c1.447,0,2.317.717,2.345,1.9.028,1.213-.886,2-2.353,2q-10.923.006-21.847,0c-1.424,0-2.318-.74-2.345-1.912-.029-1.217.874-1.988,2.353-1.991Q-602.5,2002.635-596.986,2002.64Z" transform="translate(-87.408 -207.955)"/>
    <path id="Trazado_170211" data-name="Trazado 170211" d="M-437.354,1883.39a1.969,1.969,0,0,1-2,1.946,1.969,1.969,0,0,1-1.9-1.951,1.966,1.966,0,0,1,2-1.944A1.969,1.969,0,0,1-437.354,1883.39Z" transform="translate(-212.389 -118.383)"/>
    <path id="Trazado_170212" data-name="Trazado 170212" d="M-676.372,2065.132q-16.3,0-32.6,0a4.348,4.348,0,0,1-4.361-2.95,4.291,4.291,0,0,1,3.812-5.591c.292-.02.586-.009.878-.009q32.55,0,65.1-.021c.845,0,1.084.177,1.055,1.045-.073,2.178-.064,4.361,0,6.539.022.8-.164,1.012-.991,1.009Q-659.926,2065.1-676.372,2065.132Z" transform="translate(-11.153 -247.804)" fill="#fefefe"/>
    <path id="Trazado_170213" data-name="Trazado 170213" d="M-713.642,1817.065v-.851q0-37.688,0-75.376a4.384,4.384,0,0,1,4.881-4.684c.472.021.649.15.588.61a3.746,3.746,0,0,0,0,.488q0,38.762.021,77.524c0,.886-.211,1.154-1.1,1.1A7.786,7.786,0,0,0-713.642,1817.065Z" transform="translate(-11.078 -11.007)" fill="#ff9800"/>
    <path id="Trazado_170214" data-name="Trazado 170214" d="M-567.134,1783.123c.763-.23.922.286.867,1.125a8.677,8.677,0,0,1-2.505,5.762q-7.224,7.262-14.49,14.481a18.185,18.185,0,0,1-8.484,4.73c-.733.186-.762-.034-.606-.628a17.849,17.849,0,0,1,4.477-8.2c4.884-4.957,9.816-9.866,14.744-14.779A8.735,8.735,0,0,1-567.134,1783.123Z" transform="translate(-100.66 -45.683)" fill="#fefefe"/>
    <path id="Trazado_170215" data-name="Trazado 170215" d="M-588.025,1786.949c-1.617,1.608-3.162,3.135-4.694,4.675-.28.281-.5.17-.766,0q-4.478-2.852-8.97-5.684c-.417-.261-.464-.425-.1-.772.8-.761,1.575-1.553,2.347-2.344a.651.651,0,0,1,.774-.213C-595.678,1784.043-591.92,1785.469-588.025,1786.949Z" transform="translate(-92.995 -45.305)" fill="#ffd494"/>
    <path id="Trazado_170216" data-name="Trazado 170216" d="M-521.971,1837.388c1.468,3.875,2.876,7.6,4.294,11.322a.631.631,0,0,1-.117.787c-.837.816-1.667,1.64-2.478,2.482-.3.306-.444.229-.646-.091q-2.883-4.565-5.786-9.117a.5.5,0,0,1,.081-.746C-525.1,1840.527-523.593,1839.009-521.971,1837.388Z" transform="translate(-149.138 -85.827)" fill="#ffd494"/>
    <path id="Trazado_170217" data-name="Trazado 170217" d="M-621.672,1859.144c1.151-1.72,1.38-1.82,3.227-1.455.634.126,1.266.269,1.9.379.28.048.418.125.282.431-.237.531-.477,1.061-.686,1.6-.113.293-.273.282-.528.209C-618.862,1859.915-620.256,1859.536-621.672,1859.144Z" transform="translate(-79.048 -100.703)" fill="#ffd494"/>
    <path id="Trazado_170218" data-name="Trazado 170218" d="M-575.991,1897.652c-.392-1.423-.763-2.788-1.149-4.149-.075-.265-.14-.423.19-.617,1.706-1,1.9-.933,2.3.961a1.754,1.754,0,0,0,.076.281C-573.964,1895.672-574.5,1896.79-575.991,1897.652Z" transform="translate(-111.915 -126.37)" fill="#ffd494"/>
  </g>
</svg>
