<svg xmlns="http://www.w3.org/2000/svg" width="100" height="92.26" viewBox="0 0 100 92.26">
  <g id="cargo" transform="translate(0 -10)">
    <path id="Trazado_148067" data-name="Trazado 148067" d="M178.682,31.79h-3.323a.917.917,0,0,1-.9-.7,18.87,18.87,0,0,0-1.876-4.5.889.889,0,0,1,.156-1.095l2.346-2.346a.969.969,0,0,0,0-1.329l-4.848-4.887a.969.969,0,0,0-1.329,0l-2.346,2.346a.889.889,0,0,1-1.095.156,18.87,18.87,0,0,0-4.5-1.876,1,1,0,0,1-.7-.9V13.338a.951.951,0,0,0-.938-.938h-6.841a.951.951,0,0,0-.938.938v3.323a.917.917,0,0,1-.7.9,18.87,18.87,0,0,0-4.5,1.876.889.889,0,0,1-1.095-.156l-2.346-2.346a.969.969,0,0,0-1.329,0l-4.848,4.848a.969.969,0,0,0,0,1.329l2.346,2.346a.889.889,0,0,1,.156,1.095,18.87,18.87,0,0,0-1.876,4.5,1,1,0,0,1-.9.7h-3.323a.951.951,0,0,0-.938.938v6.841c0,.508.43.782.938.782h3.323a1.041,1.041,0,0,1,.9.821,18.87,18.87,0,0,0,1.876,4.5.889.889,0,0,1-.156,1.095l-2.346,2.346a.969.969,0,0,0,0,1.329l4.848,4.848a.969.969,0,0,0,1.329,0l2.346-2.346a.889.889,0,0,1,1.095-.156,18.87,18.87,0,0,0,4.5,1.876,1,1,0,0,1,.7.9v3.323a.951.951,0,0,0,.938.938h6.841a.951.951,0,0,0,.938-.938V55.52a.917.917,0,0,1,.7-.9,18.87,18.87,0,0,0,4.5-1.876.889.889,0,0,1,1.095.156l2.346,2.346a.969.969,0,0,0,1.329,0l4.848-4.848a.969.969,0,0,0,0-1.329l-2.346-2.346a.889.889,0,0,1-.156-1.095,18.87,18.87,0,0,0,1.876-4.5,1.082,1.082,0,0,1,.9-.821h3.323c.508,0,.938-.274.938-.782V32.689A.918.918,0,0,0,178.682,31.79Z" transform="translate(-80.519 -1.462)" fill="#ff9800"/>
    <path id="Trazado_148087" data-name="Trazado 148087" d="M12.783,0A12.783,12.783,0,1,1,0,12.783,12.783,12.783,0,0,1,12.783,0Z" transform="translate(62.627 21.884)" fill="#ffee58"/>
    <path id="Trazado_148068" data-name="Trazado 148068" d="M178.826,70.409,175,66.578a2.156,2.156,0,0,1,3.049-3.049l2.306,2.306,4.887-4.887A2.156,2.156,0,0,1,188.287,64l-6.411,6.411A2.2,2.2,0,0,1,178.826,70.409Z" transform="translate(-106.191 -30.659)" fill="#edf4fc"/>
    <path id="Trazado_148069" data-name="Trazado 148069" d="M60.24,82.008a18.87,18.87,0,0,1-1.876-4.5,1.082,1.082,0,0,0-.9-.821H54.142c-.508,0-.938-.274-.938-.782V72H4.885A2.394,2.394,0,0,0,2.5,74.385v42.377a2.394,2.394,0,0,0,2.385,2.385h7.936V84.705a2.394,2.394,0,0,1,2.385-2.385H60.358a2.694,2.694,0,0,0-.117-.313Z" transform="translate(-1.523 -37.762)" fill="#87d147"/>
    <path id="Trazado_148070" data-name="Trazado 148070" d="M67.488,89.317a18.87,18.87,0,0,1-1.876-4.5,1.082,1.082,0,0,0-.9-.821H24.173a.962.962,0,0,0-.938.7A12.116,12.116,0,0,1,15.1,92.835a.962.962,0,0,0-.7.938V112.03a.962.962,0,0,0,.7.938,11.9,11.9,0,0,1,4.965,2.932V92.014a2.394,2.394,0,0,1,2.385-2.385H67.606A2.694,2.694,0,0,0,67.488,89.317Z" transform="translate(-8.771 -45.071)" fill="#b2e26d"/>
    <path id="Trazado_148071" data-name="Trazado 148071" d="M11.3,118.5H3.362A3.362,3.362,0,0,1,0,115.139V72.762A3.362,3.362,0,0,1,3.362,69.4H51.681a.968.968,0,0,1,.977.977v3.675h3.284a2.081,2.081,0,0,1,1.876,1.564,18.478,18.478,0,0,0,1.759,4.261,1.925,1.925,0,0,1,.235.665.972.972,0,0,1-.821,1.095H13.683a1.4,1.4,0,0,0-1.407,1.407v34.441A.977.977,0,0,1,11.3,118.5ZM3.362,71.394A1.4,1.4,0,0,0,1.955,72.8v42.377a1.4,1.4,0,0,0,1.407,1.407h6.959V83.122a3.362,3.362,0,0,1,3.362-3.362H57.271a22.037,22.037,0,0,1-1.368-3.6c0-.039-.039-.078-.078-.117H52.619A1.792,1.792,0,0,1,50.7,74.287V71.394Z" transform="translate(0 -36.179)"/>
    <path id="Trazado_148072" data-name="Trazado 148072" d="M171.026,232.516H170.2v-.821a1.095,1.095,0,0,0-2.189,0v.821h-.821a1.095,1.095,0,0,0,0,2.189h.821v.821a1.095,1.095,0,0,0,2.189,0V234.7h.821a1.095,1.095,0,0,0,0-2.189Z" transform="translate(-101.166 -134.361)" fill="#70d6f9"/>
    <path id="Trazado_148073" data-name="Trazado 148073" d="M110.872,35.824a3.836,3.836,0,0,1-3.088-3.01c0-.039-.039-.078-.078-.039a.038.038,0,0,0-.039.039,3.787,3.787,0,0,1-3.088,3.01.084.084,0,0,0-.078.078c0,.039.039.039.078.078a3.836,3.836,0,0,1,3.088,3.01c0,.039.039.078.078.039a.038.038,0,0,0,.039-.039,3.787,3.787,0,0,1,3.088-3.01.084.084,0,0,0,.078-.078C110.95,35.824,110.911,35.824,110.872,35.824Z" transform="translate(-63.648 -13.862)" fill="#f5c84c"/>
    <circle id="Elipse_4199" data-name="Elipse 4199" cx="1.173" cy="1.173" r="1.173" transform="translate(49.648 13.792)" fill="#fc657e"/>
    <circle id="Elipse_4200" data-name="Elipse 4200" cx="1.173" cy="1.173" r="1.173" transform="translate(14.855 26.693)" fill="#87d147"/>
    <circle id="Elipse_4201" data-name="Elipse 4201" cx="1.173" cy="1.173" r="1.173" transform="translate(57.076 95.106)" fill="#f5c84c"/>
    <path id="Trazado_148074" data-name="Trazado 148074" d="M18.546,115.255a.943.943,0,0,1-.665-.274,11.112,11.112,0,0,0-4.574-2.7,1.97,1.97,0,0,1-1.407-1.876V92.151a1.924,1.924,0,0,1,1.407-1.876,11.017,11.017,0,0,0,7.467-7.467A1.97,1.97,0,0,1,22.651,81.4H63.19a2.081,2.081,0,0,1,1.876,1.564,18.478,18.478,0,0,0,1.759,4.261,1.925,1.925,0,0,1,.235.665.972.972,0,0,1-.821,1.095H20.93a1.4,1.4,0,0,0-1.407,1.407v23.886A.968.968,0,0,1,18.546,115.255Zm-.977-24.9a14.2,14.2,0,0,1-3.714,1.8v18.3a13.068,13.068,0,0,1,3.714,1.8V90.352Zm5.082-7a13.068,13.068,0,0,1-1.8,3.714H64.48a22.037,22.037,0,0,1-1.368-3.6c0-.039-.039-.078-.078-.117Z" transform="translate(-7.248 -43.488)"/>
    <path id="Trazado_148075" data-name="Trazado 148075" d="M107.321,107.7a.969.969,0,0,1-1.329,0l-2.346-2.346a.889.889,0,0,0-1.095-.156,18.87,18.87,0,0,1-4.5,1.876,1,1,0,0,0-.7.9V111.3a.951.951,0,0,1-.938.938H89.572a.951.951,0,0,1-.938-.938v-3.323a.917.917,0,0,0-.7-.9,18.87,18.87,0,0,1-4.5-1.876.889.889,0,0,0-1.095.156L79.995,107.7a.969.969,0,0,1-1.329,0l-4.848-4.848a.969.969,0,0,1,0-1.329l2.346-2.346a.972.972,0,0,0,.274-.782H31.285a2.394,2.394,0,0,0-2.385,2.385v42.377a2.394,2.394,0,0,0,2.385,2.385h74.12a2.394,2.394,0,0,0,2.385-2.385V107.274Z" transform="translate(-17.602 -53.842)" fill="#87d147"/>
    <path id="Trazado_148076" data-name="Trazado 148076" d="M109.643,119.135a12.091,12.091,0,0,1-5.043-3.01v2.424a.951.951,0,0,1-.938.938h-6.88a.951.951,0,0,1-.938-.938v-3.323a.917.917,0,0,0-.7-.9,18.87,18.87,0,0,1-4.5-1.876.889.889,0,0,0-1.095.156L87.2,114.952a.969.969,0,0,1-1.329,0L81.222,110.3H50.573a.962.962,0,0,0-.938.7,12.116,12.116,0,0,1-8.131,8.131.962.962,0,0,0-.7.938V138.33a.962.962,0,0,0,.7.938,12.116,12.116,0,0,1,8.131,8.131.962.962,0,0,0,.938.7h50a.962.962,0,0,0,.938-.7,12.116,12.116,0,0,1,8.131-8.131.962.962,0,0,0,.7-.938V120.073a.962.962,0,0,0-.7-.938Z" transform="translate(-24.85 -61.09)" fill="#b2e26d"/>
    <circle id="Elipse_4202" data-name="Elipse 4202" cx="13.292" cy="13.292" r="13.292" transform="translate(37.451 54.801)" fill="#87d147"/>
    <path id="Trazado_148077" data-name="Trazado 148077" d="M122.754,154.883h-5.2a.977.977,0,1,1,0-1.955h5.2a1.955,1.955,0,1,0,0-3.909h-3.245a3.909,3.909,0,0,1,0-7.819h4.613a.977.977,0,1,1,0,1.955h-4.613a1.955,1.955,0,0,0,0,3.909h3.245a3.909,3.909,0,1,1,0,7.819Z" transform="translate(-70.408 -79.91)"/>
    <path id="Trazado_148078" data-name="Trazado 148078" d="M128.277,153.709a.968.968,0,0,1-.977-.977V136.977a.977.977,0,1,1,1.955,0v15.755A.968.968,0,0,1,128.277,153.709Z" transform="translate(-77.535 -76.743)"/>
    <path id="Trazado_148079" data-name="Trazado 148079" d="M103.882,144.9H29.762a3.362,3.362,0,0,1-3.362-3.362V99.162A3.362,3.362,0,0,1,29.762,95.8H74.914a1,1,0,0,1,.977.821,1.859,1.859,0,0,1-.547,1.6l-2.306,2.306,4.769,4.769,2.306-2.306a1.885,1.885,0,0,1,2.306-.313,16.9,16.9,0,0,0,4.261,1.759,1.935,1.935,0,0,1,1.407,1.876V109.6h6.763v-3.284a1.97,1.97,0,0,1,1.407-1.876,18.477,18.477,0,0,0,4.261-1.759,1.9,1.9,0,0,1,2.306.313l2.306,2.306.391-.391a.958.958,0,0,1,1.642.7V141.5a3.282,3.282,0,0,1-3.284,3.4ZM29.762,97.794A1.4,1.4,0,0,0,28.355,99.2v42.377a1.4,1.4,0,0,0,1.407,1.407h74.12a1.4,1.4,0,0,0,1.407-1.407V107.372a1.779,1.779,0,0,1-1.446-.547l-2.346-2.346a20.118,20.118,0,0,1-4.652,1.916v3.284a1.919,1.919,0,0,1-1.916,1.916H88.089a1.919,1.919,0,0,1-1.916-1.916v-3.284a19.436,19.436,0,0,1-4.652-1.916l-2.346,2.346a1.911,1.911,0,0,1-2.7,0l-4.887-4.848a1.911,1.911,0,0,1,0-2.7l1.486-1.486Z" transform="translate(-16.079 -52.258)"/>
    <path id="Trazado_148080" data-name="Trazado 148080" d="M71.392,158.055H68.577a.977.977,0,0,1,0-1.955h2.815a.968.968,0,0,1,.977.977A.993.993,0,0,1,71.392,158.055Z" transform="translate(-41.173 -88.985)"/>
    <path id="Trazado_148081" data-name="Trazado 148081" d="M183.592,158.055h-2.815a.977.977,0,0,1,0-1.955h2.815a.968.968,0,0,1,.977.977A.993.993,0,0,1,183.592,158.055Z" transform="translate(-109.511 -88.985)"/>
    <path id="Trazado_148082" data-name="Trazado 148082" d="M99.051,147.558h-50a1.97,1.97,0,0,1-1.876-1.407,11.017,11.017,0,0,0-7.467-7.467,1.97,1.97,0,0,1-1.407-1.876V118.551a1.924,1.924,0,0,1,1.407-1.876,11.017,11.017,0,0,0,7.467-7.467,1.97,1.97,0,0,1,1.876-1.407H79.739a1.124,1.124,0,0,1,.7.274l4.613,4.613,2.306-2.306a1.885,1.885,0,0,1,2.306-.313,16.9,16.9,0,0,0,4.261,1.759,1.935,1.935,0,0,1,1.407,1.876v3.284H102.1V114.6a.968.968,0,0,1,.977-.977,1.124,1.124,0,0,1,.7.274,11.3,11.3,0,0,0,4.652,2.776,1.97,1.97,0,0,1,1.407,1.876v18.256a1.97,1.97,0,0,1-1.407,1.876,11.017,11.017,0,0,0-7.467,7.467A2.056,2.056,0,0,1,99.051,147.558Zm-50-37.8a13.009,13.009,0,0,1-8.8,8.757v18.3a13.009,13.009,0,0,1,8.757,8.8h50a13.009,13.009,0,0,1,8.8-8.757v-18.3a12.622,12.622,0,0,1-3.792-1.837v.313a1.919,1.919,0,0,1-1.916,1.916H95.259a1.919,1.919,0,0,1-1.916-1.916v-3.284a19.436,19.436,0,0,1-4.652-1.916l-2.346,2.346a1.911,1.911,0,0,1-2.7,0l-4.378-4.378Z" transform="translate(-23.327 -59.567)"/>
    <path id="Trazado_148083" data-name="Trazado 148083" d="M107.569,150.738a14.269,14.269,0,1,1,14.269-14.269A14.248,14.248,0,0,1,107.569,150.738Zm0-26.622a12.314,12.314,0,1,0,12.314,12.314A12.313,12.313,0,0,0,107.569,124.116Z" transform="translate(-56.826 -68.338)"/>
    <path id="Trazado_148084" data-name="Trazado 148084" d="M157.808,59.375h-6.841a1.919,1.919,0,0,1-1.916-1.916V54.175A19.436,19.436,0,0,1,144.4,52.26l-2.346,2.346a1.911,1.911,0,0,1-2.7,0l-4.848-4.887a1.911,1.911,0,0,1,0-2.7l2.346-2.346a20.528,20.528,0,0,1-1.955-4.691c0-.039-.039-.078-.078-.117h-3.206a1.792,1.792,0,0,1-1.916-1.759v-6.88a1.919,1.919,0,0,1,1.916-1.916H134.9a19.436,19.436,0,0,1,1.916-4.652l-2.346-2.346a1.911,1.911,0,0,1,0-2.7l4.848-4.848a1.911,1.911,0,0,1,2.7,0l2.346,2.346a20.118,20.118,0,0,1,4.652-1.916V11.916A1.919,1.919,0,0,1,150.928,10h6.841a1.919,1.919,0,0,1,1.916,1.916V15.2a19.436,19.436,0,0,1,4.652,1.916l2.346-2.346a1.911,1.911,0,0,1,2.7,0l4.848,4.848a1.911,1.911,0,0,1,0,2.7l-2.346,2.346a20.118,20.118,0,0,1,1.916,4.652h3.284A1.919,1.919,0,0,1,179,31.228v6.841a1.792,1.792,0,0,1-1.916,1.759h-3.206c-.039.039-.039.078-.078.117a18.92,18.92,0,0,1-1.955,4.691l2.346,2.346a1.911,1.911,0,0,1,0,2.7l-4.769,4.887a1.911,1.911,0,0,1-2.7,0l-2.346-2.346a20.118,20.118,0,0,1-4.652,1.916V57.42A1.927,1.927,0,0,1,157.808,59.375Zm-6.8-1.955h6.763V54.136a1.97,1.97,0,0,1,1.407-1.876,18.478,18.478,0,0,0,4.261-1.759,1.9,1.9,0,0,1,2.306.313l2.306,2.306,4.808-4.769-2.306-2.306a1.885,1.885,0,0,1-.313-2.306A16.9,16.9,0,0,0,172,39.476a2.089,2.089,0,0,1,1.876-1.564h3.284V31.306h-3.284A1.97,1.97,0,0,1,172,29.9a18.478,18.478,0,0,0-1.759-4.261,1.9,1.9,0,0,1,.313-2.306l2.306-2.306-4.769-4.769-2.306,2.306a1.885,1.885,0,0,1-2.306.313,16.9,16.9,0,0,0-4.261-1.759,1.935,1.935,0,0,1-1.407-1.876V11.955h-6.763v3.284a1.97,1.97,0,0,1-1.407,1.876,18.478,18.478,0,0,0-4.261,1.759,1.9,1.9,0,0,1-2.306-.313l-2.306-2.306-4.808,4.769,2.306,2.306a1.885,1.885,0,0,1,.313,2.306,16.9,16.9,0,0,0-1.759,4.261,1.935,1.935,0,0,1-1.876,1.407h-3.284v6.607h3.284a2.081,2.081,0,0,1,1.876,1.564,18.478,18.478,0,0,0,1.759,4.261,1.9,1.9,0,0,1-.313,2.306l-2.306,2.306,4.769,4.769,2.306-2.306a1.885,1.885,0,0,1,2.306-.313A16.9,16.9,0,0,0,149.6,52.26a1.935,1.935,0,0,1,1.407,1.876Z" transform="translate(-78.996)"/>
    <path id="Trazado_148085" data-name="Trazado 148085" d="M171.461,65.422a13.761,13.761,0,1,1,13.761-13.761A13.756,13.756,0,0,1,171.461,65.422Zm0-25.567a11.806,11.806,0,1,0,11.767,11.806,11.8,11.8,0,0,0-11.767-11.806Z" transform="translate(-96.05 -16.993)"/>
    <path id="Trazado_148086" data-name="Trazado 148086" d="M178.79,70.519a3.166,3.166,0,0,1-2.228-.9l-3.831-3.831a3.124,3.124,0,0,1,4.378-4.457l.039.039,1.642,1.642,4.183-4.183a3.1,3.1,0,0,1,4.418-.039,3.138,3.138,0,0,1,.039,4.418l-.039.039-6.411,6.411a3.071,3.071,0,0,1-2.189.86Zm-.821-2.306a1.125,1.125,0,0,0,.821.352,1.065,1.065,0,0,0,.821-.352l6.411-6.411a1.18,1.18,0,0,0,0-1.681,1.256,1.256,0,0,0-1.681,0l-4.887,4.887a.944.944,0,0,1-1.368,0L175.78,62.7a1.256,1.256,0,0,0-1.681,0,1.18,1.18,0,0,0,0,1.681Z" transform="translate(-104.63 -29.167)"/>
  </g>
</svg>
