<svg id="companero-de-negocios" xmlns="http://www.w3.org/2000/svg" width="99.998" height="100" viewBox="0 0 99.998 100">
  <path id="Trazado_148088" data-name="Trazado 148088" d="M41.125,75.624a3.975,3.975,0,0,1-1.953,2.214,4.062,4.062,0,0,1-4.3-.652L13,60V35H33.312l25,31.249-14.062,12.5Z" transform="translate(7.312 19.687)" fill="#fff1db"/>
  <path id="Trazado_148089" data-name="Trazado 148089" d="M1,35H19.75V60H1Z" transform="translate(0.562 19.687)" fill="#ff9800"/>
  <path id="Trazado_148090" data-name="Trazado 148090" d="M52,35H69.187V60H52Z" transform="translate(29.249 19.687)" fill="#ff9800"/>
  <path id="Trazado_148091" data-name="Trazado 148091" d="M40.492,35,20.614,49.576a2.283,2.283,0,0,0,.625,4.006l1.806.6a8.6,8.6,0,0,0,6.562-.469l9.322-4.653L54.554,66.249,70.179,60V35Z" transform="translate(11.07 19.687)" fill="#fff1db"/>
  <path id="Trazado_148092" data-name="Trazado 148092" d="M60.43,25.813A21.154,21.154,0,1,1,57,9.973a21.093,21.093,0,0,1,3.433,15.84Z" transform="translate(10.456 0.498)" fill="#ffee58"/>
  <g id="Grupo_85054" data-name="Grupo 85054">
    <path id="Trazado_148097" data-name="Trazado 148097" d="M39.869,17.262A1.562,1.562,0,0,0,41.431,15.7v-.48a5.094,5.094,0,0,0-5.087-5.089h-.587V6.562a1.562,1.562,0,1,0-3.125,0v3.627A5.078,5.078,0,0,0,28.1,15.22a5.133,5.133,0,0,0,2.206,4.191l7.173,4.519a1.962,1.962,0,0,1,.82,1.6v1.334a1.966,1.966,0,0,1-1.962,1.962H33.194a1.966,1.966,0,0,1-1.969-1.962V25.045a1.562,1.562,0,0,0-3.125,0v1.814a5.076,5.076,0,0,0,4.531,5.031v2.8a1.562,1.562,0,1,0,3.125,0V31.946h.586a5.094,5.094,0,0,0,5.087-5.087V25.525a5.126,5.126,0,0,0-2.206-4.191l-7.172-4.517a1.964,1.964,0,0,1,1.141-3.561h3.15A1.966,1.966,0,0,1,38.3,15.22v.48A1.562,1.562,0,0,0,39.869,17.262Z" transform="translate(15.806 2.812)"/>
    <path id="Trazado_148098" data-name="Trazado 148098" d="M39.562,34a1.562,1.562,0,0,0,0,3.125h3.125a1.562,1.562,0,0,0,0-3.125Z" transform="translate(21.374 19.124)"/>
    <path id="Trazado_148099" data-name="Trazado 148099" d="M70.311,34a1.562,1.562,0,1,0,0,3.125h9.375V59.5L66.05,64.957,50.359,47.7l-10.37,5.184a6.778,6.778,0,0,1-5.376.381s-2.092-.339-2.289-1.172a.684.684,0,0,1,.286-.692L52.073,37.125h2.614a1.562,1.562,0,1,0,0-3.125H51.051l-5.642,4.137L41.271,34H0V62.125H9.375a1.562,1.562,0,1,0,0-3.125H3.125V37.125H18.75V59H15.625a1.562,1.562,0,1,0,0,3.125h4.148L41.195,78.955a5.869,5.869,0,0,0,3.711,1.355,5.228,5.228,0,0,0,2.248-.5,5.117,5.117,0,0,0,1.555-1.144l1.748,1.748.011-.011a1.531,1.531,0,0,0,2.131.075L66.455,68.163l15.093-6.039H100V34Zm-24.5,42.99a2.539,2.539,0,0,1-2.656-.469L21.875,59.8V37.125h18.1l2.881,2.881-12.1,8.872a3.847,3.847,0,0,0,1.058,6.75l1.8.6a10.1,10.1,0,0,0,7.762-.552l8.253-4.126L63.4,66.692,61.549,68.34,47.977,54.768a1.562,1.562,0,1,0-2.21,2.21L59.205,70.415l-2.617,2.334-13.3-13.3a1.562,1.562,0,1,0-2.21,2.21L54.249,74.829l-2.625,2.336L38.6,64.145a1.562,1.562,0,1,0-2.21,2.21L46.488,76.448a2.02,2.02,0,0,1-.675.542ZM96.873,59H82.811V37.125H96.873Z" transform="translate(0 19.124)"/>
    <path id="Trazado_148100" data-name="Trazado 148100" d="M40.231,0A22.656,22.656,0,1,0,62.887,22.656,22.656,22.656,0,0,0,40.231,0Zm0,42.2A19.531,19.531,0,1,1,59.762,22.67,19.531,19.531,0,0,1,40.231,42.2Z" transform="translate(9.885)"/>
  </g>
</svg>
