<svg xmlns="http://www.w3.org/2000/svg" width="100" height="99.983" viewBox="0 0 100 99.983">
  <g id="Grupo_110625" data-name="Grupo 110625" transform="translate(483.992 -1738.69)">
    <path id="Trazado_170032" data-name="Trazado 170032" d="M-468.072,1765.037a9.685,9.685,0,0,1-.042-13.945,9.646,9.646,0,0,1,13.376-.059,9.7,9.7,0,0,1-.017,14.046,10.142,10.142,0,0,1,4.993,4.331,34.72,34.72,0,0,1,2.687-3.041c.455-.467.166-1.156.181-1.741a9.645,9.645,0,0,1,5.652-8.925c.173-.088.352-.167.619-.293a9.683,9.683,0,0,1-2.97-8.143,9.4,9.4,0,0,1,3.475-6.374,9.641,9.641,0,0,1,13.062.733,9.669,9.669,0,0,1-.195,13.679c.036.356.382.323.591.431a9.472,9.472,0,0,1,5.544,8.871,3.137,3.137,0,0,0,1.1,2.706,17.258,17.258,0,0,1,1.82,2.046,9.937,9.937,0,0,1,5-4.251,10.387,10.387,0,0,1-2.635-4.27,9.66,9.66,0,0,1,10.03-12.429,1.337,1.337,0,0,0,1.265-.534,8.009,8.009,0,0,1,9.172-2.1,8.142,8.142,0,0,1,4.891,8.062,8.044,8.044,0,0,1-6.137,7.139,1.357,1.357,0,0,0-1.129.922,9.4,9.4,0,0,1-2.118,3.1c.085.223.258.251.407.324a9.582,9.582,0,0,1,5.765,9.043,1.825,1.825,0,0,0,.385,1.191,13.207,13.207,0,0,1-1.106,17.6,6.845,6.845,0,0,0-1.708,2.531,7.813,7.813,0,0,1-2.743,3.656c-.735.549-.212,1.07-.161,1.605a.971.971,0,0,0,.876,1.018c1.649.291,3.307.578,4.919,1.022a12.552,12.552,0,0,1,9.2,11.87c.055,7.691.012,15.383.03,23.074,0,.545-.107.825-.7.726a2.514,2.514,0,0,0-.4,0q-48.87,0-97.74.019c-.87,0-1.161-.154-1.155-1.109.047-7.322.023-14.644.027-21.966a12.741,12.741,0,0,1,10.743-13c1.119-.216,2.233-.465,3.359-.635a.957.957,0,0,0,.909-.986c.057-.573.55-1.105-.207-1.683a8.7,8.7,0,0,1-3.018-4.417,2.392,2.392,0,0,0-.723-1.052,14.13,14.13,0,0,1-4.62-10.96c.029-2.317,0-4.635.008-6.953a4.778,4.778,0,0,1,3.181-4.665,1.173,1.173,0,0,0,.78-.672,9.477,9.477,0,0,1,5.206-5.314A1.534,1.534,0,0,0-468.072,1765.037Zm17.965,24.609c0,3.324,0,6.648.006,9.972,0,.349-.172.94.566.667a36.778,36.778,0,0,1,6.388-1.314,3.318,3.318,0,0,0,2.086-1.29c.506-.646.6-1.12-.239-1.695a12.311,12.311,0,0,1-5.411-8.595,53.653,53.653,0,0,1-.164-7.238c-.043-2.505-.014-2.532,2.492-2.972a13.362,13.362,0,0,0,7.756-3.918,3.057,3.057,0,0,0,1.046-2.574,20.392,20.392,0,0,1-.018-2.415c0-.279,0-.567.394-.556.9.024,1.93-.3,2.656.144.5.31.123,1.313.17,2a7.628,7.628,0,0,1,0,1.208,2.112,2.112,0,0,0,.555,1.645,12.769,12.769,0,0,0,4.092,3.2,22.007,22.007,0,0,0,5.8,1.563c.638.125.874.352.861,1.037-.047,2.416.013,4.835-.026,7.251a12.392,12.392,0,0,1-5.128,10.117c-1.273.971-1.268,1.6.078,2.542a3.423,3.423,0,0,0,1.388.551,33.589,33.589,0,0,1,5.9,1.182c.815.3,1.012.154,1.007-.715-.032-5.808-.012-11.617-.02-17.425a28.019,28.019,0,0,0-.15-3.515,16.2,16.2,0,0,0-15-14.008,16.163,16.163,0,0,0-17.092,16.18C-450.113,1783.67-450.107,1786.658-450.107,1789.646Zm17.774,38.577h-.04c0,2.148.027,4.3-.016,6.445-.013.639.183.779.79.771,2.685-.033,5.371-.043,8.056,0,.742.013.925-.235.849-.909a9.068,9.068,0,0,1,.985-5.147c.371-.748.628-1.552.944-2.327a16.714,16.714,0,0,0,.464-11.61c-.662-2.128-.64-2.094,1.529-2.851.7-.243.9-.069,1.122.571a21.524,21.524,0,0,1,1.363,8.681c-.037.535.111.694.646.685q2.618-.044,5.236,0c.5.008.628-.168.61-.636-.091-2.344.124-4.692-.18-7.037a14.486,14.486,0,0,0-11.508-12.088.994.994,0,0,0-1.248.613c-2.1,3.967-4.251,7.91-6.379,11.864-1.08,2.006-2.576,3.912-3.1,6.055C-432.752,1823.49-432.333,1825.908-432.333,1828.223Zm-3.265.023c0-2.048-.01-4.1.007-6.143a2.833,2.833,0,0,0-.35-1.433q-4.667-8.619-9.285-17.264a1.013,1.013,0,0,0-1.339-.614,14.316,14.316,0,0,0-10.79,9.417c-1.2,3.209-.722,6.565-.818,9.87-.016.566.374.443.684.444,1.645.006,3.291-.029,4.934.018.683.02.92-.118.87-.869a18.849,18.849,0,0,1,.936-7.138c.725-2.229.706-2.215,2.958-1.471.641.212.821.438.553,1.131a17.352,17.352,0,0,0,.508,14.056c.956,2.071,1.829,4.185,1.457,6.561-.094.6.266.62.719.618,2.753-.013,5.505-.024,8.258.007.6.007.715-.2.708-.748C-435.614,1832.543-435.6,1830.394-435.6,1828.246Zm48.359-3.519h0c0-3.257.088-6.518-.023-9.771a9.218,9.218,0,0,0-5.306-8.289c-.629-.33-.979-.355-1.382.408-2.974,5.625-6.007,11.219-9.034,16.816a2.653,2.653,0,0,0-.364,1.326c.017,3.123.036,6.247-.011,9.369-.011.75.244.855.907.846,2.619-.038,5.239-.047,7.858,0,.753.015.936-.173.93-.928-.039-4.836-.02-9.671-.02-14.507,0-2.33,0-2.3,2.319-2.339.723-.012.954.128.947.913-.043,4.835-.022,9.671-.022,14.507,0,2.365,0,2.336,2.4,2.352.672,0,.822-.191.815-.834C-387.256,1831.309-387.238,1828.018-387.238,1824.727Zm-93.5-.185v8.559c0,2.343,0,2.3,2.328,2.347.8.016.916-.25.911-.962-.03-4.866-.016-9.733-.016-14.6,0-2.2,0-2.168,2.255-2.216.785-.017,1,.189.99.984-.038,5.3,0,10.606-.037,15.909,0,.715.189.89.889.879q4.027-.064,8.055,0c.657.01.764-.216.759-.8-.027-3.155-.017-6.31-.007-9.464a2.306,2.306,0,0,0-.278-1.149q-4.609-8.534-9.186-17.086c-.331-.623-.636-.621-1.176-.351a9.214,9.214,0,0,0-5.463,8.388C-480.827,1818.162-480.739,1821.354-480.741,1824.542Zm56.429-40.8c0-.941-.018-1.881.008-2.821.012-.443-.107-.642-.586-.728a15.419,15.419,0,0,1-8.656-4.563c-.336-.351-.539-.356-.878,0a15.478,15.478,0,0,1-8.655,4.569c-.389.071-.6.176-.586.621a46.414,46.414,0,0,0,.206,6.534,9.764,9.764,0,0,0,8.794,7.745,9.465,9.465,0,0,0,9.876-6.372A14.81,14.81,0,0,0-424.311,1783.738Zm-48.467,5.027c.262-3.434,1.578-4.873,4.88-5.433,1.122-.191,2.257-.315,3.373-.535a3.166,3.166,0,0,0,2.734-2.375c.279-1.551,1.14-1.584,2.293-1.467a4.269,4.269,0,0,0,.8,0c.445-.039.617.154.55.583a5.658,5.658,0,0,1-.174.985c-.206.589,0,.843.552,1.111a7.629,7.629,0,0,1,3.665,3.723c.249.532.445,1.088.691,1.694.178-3-.191-5.927.232-8.832a1.286,1.286,0,0,0-.431-1.07,7.762,7.762,0,0,0-5.946-2.93c-4.294-.062-8.589-.029-12.883-.017a1.6,1.6,0,0,0-1.811,1.8c-.016,2.617-.041,5.235.02,7.85A9.621,9.621,0,0,0-472.779,1788.765Zm58.1-1.768a8.785,8.785,0,0,1,4.358-5.282c.66-.327.888-.671.625-1.346a2.949,2.949,0,0,1-.11-.489c-.131-.645,0-1.026.793-.933a8.03,8.03,0,0,0,1.609,0c.6-.051.844.122.976.768a3.719,3.719,0,0,0,3.241,3.13c.825.143,1.654.27,2.486.359,1.9.2,3.622.7,4.712,2.453a5.453,5.453,0,0,1,.748,3.143,9.417,9.417,0,0,0-5.566-14.31,21.754,21.754,0,0,0-7.7-.114,8.654,8.654,0,0,0-5.728,3.409,1.482,1.482,0,0,0-.447.974C-414.67,1781.506-414.679,1784.251-414.679,1787Zm16.165,3.507c0-3.684-.029-3.707-2.88-4.068-2.126-.269-4.285-.474-5.961-2.058-.308-.291-.613-.141-.93-.026a4.8,4.8,0,0,0-3.117,4.3c-.036,1.105-.026,2.213-.006,3.319a6.478,6.478,0,0,0,5.835,6.355,6.481,6.481,0,0,0,6.919-5.149A15.761,15.761,0,0,0-398.515,1790.5Zm-70.939-.221c0,.57-.011,1.14,0,1.71a6.483,6.483,0,0,0,5.862,6.33,6.415,6.415,0,0,0,6.862-5.08,16.478,16.478,0,0,0,.091-5.107,4.551,4.551,0,0,0-2.78-3.684,1.215,1.215,0,0,0-1.534.175,6.161,6.161,0,0,1-3.258,1.448c-.994.143-1.99.28-2.982.433-2,.308-2.264.621-2.264,2.671C-469.455,1789.545-469.455,1789.914-469.453,1790.282Zm35.413,17.734c1.51,0,3.02-.014,4.53.009a.9.9,0,0,0,.945-.536c.83-1.606,1.7-3.194,2.559-4.782.216-.4.359-.616-.283-.815a5.977,5.977,0,0,1-3.858-3.424c-.207-.473-.417-.536-.906-.426a12.2,12.2,0,0,1-5.779-.062c-.5-.127-.764-.053-.991.473a5.941,5.941,0,0,1-3.846,3.436c-.622.191-.527.393-.3.809.867,1.586,1.731,3.175,2.562,4.78a.9.9,0,0,0,.938.547C-436.994,1808-435.517,1808.016-434.041,1808.016Zm.074-59.655c-1.909,0-3.82.029-5.728-.016-.648-.016-.79.175-.712.788a6.525,6.525,0,0,0,6.4,5.675,6.53,6.53,0,0,0,6.437-5.639c.1-.678-.117-.838-.773-.823C-430.215,1748.389-432.092,1748.362-433.967,1748.362Zm-27.44,9.674c-1.876,0-3.752.026-5.627-.014-.645-.014-.875.129-.779.817a6.528,6.528,0,0,0,6.432,5.644,6.525,6.525,0,0,0,6.408-5.67c.078-.6-.048-.81-.706-.794C-457.588,1758.066-459.5,1758.036-461.408,1758.036Zm54.885,0c-1.943,0-3.886.024-5.828-.014-.616-.012-.712.2-.65.75a6.525,6.525,0,0,0,6.37,5.711,6.52,6.52,0,0,0,6.477-5.7c.062-.532-.007-.773-.641-.759C-402.7,1758.063-404.614,1758.036-406.523,1758.036Zm-6.5,72.626c0-1.409-.018-2.818.01-4.226.01-.493-.077-.728-.646-.7-.9.048-1.811.036-2.716,0-.462-.016-.6.179-.74.6-.5,1.454-1,2.915-1.63,4.314a9.044,9.044,0,0,0-.759,3.887c.006.8.263.926.969.9,1.508-.052,3.019-.053,4.527,0,.743.026,1.061-.116,1.006-.957C-413.086,1833.215-413.025,1831.937-413.025,1830.662Zm-41.919-.075c0,1.409.006,2.817,0,4.226,0,.37,0,.63.51.622,1.811-.026,3.622-.019,5.433,0,.391,0,.524-.123.516-.515a7.962,7.962,0,0,0-.558-3.823c-.454-.85-.69-1.814-1.1-2.691-.4-.861-.3-2.155-1.11-2.55-.786-.386-1.9-.1-2.876-.1a1.417,1.417,0,0,1-.2,0c-.482-.073-.631.127-.62.611C-454.926,1827.769-454.945,1829.178-454.945,1830.587Zm53.261-80.916a9.885,9.885,0,0,1,4.805,7.933,4.608,4.608,0,0,0,3.183-4.123,4.883,4.883,0,0,0-2.86-4.688A4.562,4.562,0,0,0-401.684,1749.671Zm-5.283,74.4a3,3,0,0,1-2.159,1.589c-.669.086-.678.4-.673.911.018,2.142.008,4.285.008,6.427,0,2.445,0,2.416,2.411,2.432.678,0,.814-.2.808-.836-.032-3.146-.014-6.293-.015-9.44A1.117,1.117,0,0,0-406.967,1824.075Zm-54.427,5.753v3.113c0,2.677,0,2.665,2.66,2.5.43-.027.574-.134.572-.574q-.025-4.268,0-8.535c0-.409-.1-.568-.533-.63a3.118,3.118,0,0,1-1.89-1.053c-.165-.182-.255-.6-.561-.457-.269.127-.251.511-.249.821C-461.39,1826.615-461.393,1828.221-461.393,1829.828Zm60.343-75.038a6.338,6.338,0,0,0-6.137-3.145,6.185,6.185,0,0,0-4.887,3.145Zm-38.342-9.762h10.838a6.278,6.278,0,0,0-5.666-3.047A6.18,6.18,0,0,0-439.392,1745.027Zm-27.524,9.783h11.065a6.389,6.389,0,0,0-5.6-3.2A6.3,6.3,0,0,0-466.917,1754.81Zm32.935,62.716,3.337-6.221h-6.688Zm-19.352-23.394c-.2.155-.284.184-.3.233a10.461,10.461,0,0,1-3.455,5.175c-.5.4.116,2.225.768,2.374.716.164,1.441.292,2.164.428.527.1.831-.053.828-.662C-453.34,1799.209-453.333,1796.737-453.333,1794.132Zm38.958.058-.262.06c0,2.5,0,4.992,0,7.488,0,.49.259.69.688.62.825-.134,1.648-.292,2.458-.5.523-.132,1.044-1.978.639-2.3A10.253,10.253,0,0,1-414.375,1794.191Zm7.9-26.481c-.9,0-1.808.021-2.711-.009-.467-.016-.67.073-.574.6a3.334,3.334,0,0,0,3.139,2.628,3.312,3.312,0,0,0,3.232-2.633c.07-.407.02-.618-.475-.6C-404.737,1767.734-405.608,1767.71-406.479,1767.709Zm-54.947,3.222a3.312,3.312,0,0,0,3.2-2.552c.123-.542-.02-.692-.574-.682-1.74.032-3.482.035-5.222,0-.621-.013-.634.245-.522.72A3.3,3.3,0,0,0-461.425,1770.932Zm27.5-12.9c-.9,0-1.809.027-2.711-.01-.523-.021-.619.167-.525.64a3.315,3.315,0,0,0,3.165,2.592,3.3,3.3,0,0,0,3.179-2.572c.092-.444.061-.685-.5-.66C-432.183,1758.064-433.055,1758.036-433.925,1758.036Zm29.032,62.533a10.437,10.437,0,0,1,.844-1.518,2.922,2.922,0,0,0,.01-3.955c-.059-.079-.083-.183-.137-.266a3.657,3.657,0,0,0-2.5-.265c-.066.084-.047.244-.046.369A8.1,8.1,0,0,0-404.893,1820.569Zm-58.185,0a8.122,8.122,0,0,0,1.831-5.646c0-.192.066-.355-.223-.447a2.2,2.2,0,0,0-2.687,1.085c-.178.358-.337.726-.534,1.073a.847.847,0,0,0-.015.931C-464.151,1818.54-463.631,1819.539-463.078,1820.565Zm47.459-46.261c.738-.519,1.452-1.059,2.206-1.538.534-.339,1.384-.463,1.617-.923.281-.555-.488-1.119-.754-1.7-.214-.468.022-1.349-.653-1.354-.538,0-.988.633-1.391,1.084a6.989,6.989,0,0,0-1.239,2.055A2.288,2.288,0,0,0-415.62,1774.3Zm-49.713,26.962c-.245-.136-.439.03-.458.356-.021.353-.419.741.11,1.069.768.476,1.51.994,2.261,1.5.23.155.427.281.719.076.795-.558,1.612-1.083,2.419-1.624.5-.335.064-.73.041-1.086-.025-.383-.321-.3-.607-.236A9.351,9.351,0,0,1-465.333,1801.266Zm58.043,0c-.243-.135-.439.027-.459.354-.021.354-.42.741.109,1.069.768.477,1.51.994,2.261,1.5.229.154.427.283.72.078.8-.557,1.612-1.083,2.419-1.623.5-.335.065-.73.042-1.087-.024-.382-.318-.3-.606-.238A9.345,9.345,0,0,1-407.289,1801.266Zm-44.589-28.361a6.307,6.307,0,0,0-2.247-3.745c-.533-.442-.97-.786-1.121.309a3.433,3.433,0,0,1-.571,1.379c-.343.512-.365.737.295.968a9.91,9.91,0,0,1,2.772,1.6c.185.143.333.511.648.292C-451.871,1773.544-451.882,1773.237-451.879,1772.906Zm27.44-9.126a6.264,6.264,0,0,0-2.53-4.47c-.476-.378-.7-.354-.817.324a4.428,4.428,0,0,1-.793,1.833c-.29.4-.171.548.267.674A21.473,21.473,0,0,1-424.439,1763.779Zm-19.109.033a19.325,19.325,0,0,1,3.968-1.7c.457-.134.406-.315.2-.632a5.34,5.34,0,0,1-.843-2.028c-.075-.428-.234-.524-.591-.267A6.289,6.289,0,0,0-443.548,1763.812Zm-18.589,47.427c.479,0,.88-.008,1.279,0,.752.018.586-.684.82-1.06.274-.44-.144-.564-.429-.708-.712-.36-1.422-.724-2.146-1.059-.553-.256-1.66.225-1.546.672a6.6,6.6,0,0,0,.77,2.03C-463.16,1811.46-462.513,1811.184-462.137,1811.239Zm56.309.007c1.043.339,1.633-.259,1.777-1.414.047-.377.607-.788.027-1.146-.47-.29-.937-.6-1.56-.193a14.606,14.606,0,0,1-1.971,1c-.417.19-.443.4-.347.854C-407.651,1811.547-406.77,1811.208-405.828,1811.247Zm-60.555-4.961c-1.269-1.746-2.826-1.248-4.369-.887-.322.075-.393.216-.25.486.313.592.638,1.178.951,1.77.129.244.278.333.554.191C-468.465,1807.317-467.424,1806.805-466.383,1806.285Zm64.821-.008c1.011.509,2.018,1.01,3.019,1.525.291.15.479.124.636-.189.286-.568.6-1.123.9-1.68.182-.331.071-.452-.282-.54C-398.8,1805.012-400.316,1804.6-401.562,1806.278Zm4.311-33.981a6.45,6.45,0,0,0-2.132-3.179c-.613-.527-.895-.5-1.043.357a9.566,9.566,0,0,1-.587,1.617A15.274,15.274,0,0,1-397.251,1772.3Zm-72.859-1.4h3.1l-.881-2.2a4.788,4.788,0,0,0-1.973,1.758A4.531,4.531,0,0,0-470.109,1770.9Zm3.248,42.674c.863-1.02.082-1.8-.082-2.617-.075-.371-.18-.727-.725-.448-.44.226-.727.394-.367.948C-467.621,1812.094-467.293,1812.787-466.862,1813.575Zm65.764-.04c.425-.778.79-1.448,1.155-2.118a1.477,1.477,0,0,1,.09-.178c.186-.251.118-.448-.154-.545s-.489-.424-.813-.2C-401.283,1810.815-401.519,1812.859-401.1,1813.535Zm-55.806-8.39a3.323,3.323,0,0,0-2.629.907c-.083.156-.025.224.074.327a1.006,1.006,0,0,0,1.644-.057C-457.531,1805.958-457.25,1805.593-456.9,1805.145Zm48.565,1.068c-1.556-1.346-1.737-1.412-2.624-.99C-409.412,1807.2-409.974,1807.12-408.338,1806.213Z" fill="#020201"/>
    <path id="Trazado_170033" data-name="Trazado 170033" d="M-358.217,1859.6c0-2.988-.006-5.976,0-8.965a16.163,16.163,0,0,1,17.092-16.18,16.2,16.2,0,0,1,15,14.008,28.019,28.019,0,0,1,.15,3.515c.007,5.808-.012,11.617.02,17.425,0,.868-.193,1.019-1.007.715a33.589,33.589,0,0,0-5.9-1.182,3.423,3.423,0,0,1-1.388-.551c-1.346-.946-1.35-1.571-.078-2.542a12.392,12.392,0,0,0,5.128-10.117c.038-2.417-.021-4.835.026-7.251.013-.686-.222-.912-.861-1.037a22.007,22.007,0,0,1-5.8-1.563,12.769,12.769,0,0,1-4.092-3.2,2.113,2.113,0,0,1-.555-1.645,7.632,7.632,0,0,0,0-1.208c-.047-.691.332-1.694-.17-2-.726-.448-1.756-.12-2.656-.144-.393-.01-.394.277-.394.556a20.385,20.385,0,0,0,.018,2.415,3.057,3.057,0,0,1-1.046,2.574,13.362,13.362,0,0,1-7.756,3.918c-2.507.44-2.535.467-2.492,2.972a53.658,53.658,0,0,0,.164,7.238,12.311,12.311,0,0,0,5.411,8.595c.838.575.745,1.049.239,1.695a3.318,3.318,0,0,1-2.086,1.29,36.778,36.778,0,0,0-6.388,1.314c-.738.273-.565-.318-.566-.667C-358.221,1866.246-358.217,1862.922-358.217,1859.6Z" transform="translate(-91.891 -69.952)" fill="#12263f"/>
    <path id="Trazado_170034" data-name="Trazado 170034" d="M-292.618,2001.979c0-2.315-.419-4.733.119-6.915.528-2.143,2.025-4.049,3.1-6.055,2.128-3.953,4.276-7.9,6.379-11.864a.994.994,0,0,1,1.248-.613,14.486,14.486,0,0,1,11.508,12.088c.3,2.345.088,4.693.18,7.037.018.469-.112.644-.61.636q-2.618-.041-5.236,0c-.535.009-.683-.15-.646-.685a21.526,21.526,0,0,0-1.363-8.681c-.224-.64-.425-.814-1.122-.57-2.169.756-2.191.722-1.529,2.85a16.714,16.714,0,0,1-.464,11.61c-.316.775-.573,1.579-.944,2.327a9.069,9.069,0,0,0-.985,5.147c.077.674-.107.922-.849.909-2.685-.048-5.371-.037-8.056,0-.607.007-.8-.133-.79-.771.043-2.147.016-4.3.016-6.445Z" transform="translate(-139.715 -173.755)" fill="#ffee58"/>
    <path id="Trazado_170035" data-name="Trazado 170035" d="M-365.6,2001.977c0,2.149-.016,4.3.011,6.445.007.544-.111.754-.708.747-2.752-.031-5.505-.02-8.258-.007-.453,0-.813-.014-.719-.618.372-2.376-.5-4.489-1.457-6.561a17.352,17.352,0,0,1-.508-14.056c.268-.693.088-.92-.553-1.132-2.252-.744-2.233-.758-2.958,1.471a18.849,18.849,0,0,0-.936,7.138c.05.751-.187.888-.87.869-1.644-.047-3.289-.012-4.934-.018-.31,0-.7.122-.684-.444.1-3.306-.377-6.662.818-9.871a14.316,14.316,0,0,1,10.79-9.417,1.013,1.013,0,0,1,1.339.615q4.6,8.656,9.285,17.264a2.833,2.833,0,0,1,.35,1.433C-365.606,1997.882-365.6,1999.93-365.6,2001.977Z" transform="translate(-70.002 -173.731)" fill="#ffee58"/>
    <path id="Trazado_170036" data-name="Trazado 170036" d="M-168.514,2008.535c0,3.291-.018,6.582.015,9.873.006.643-.143.839-.815.834-2.4-.016-2.4.012-2.4-2.352,0-4.836-.022-9.672.022-14.507.007-.785-.224-.925-.947-.913-2.319.04-2.319.009-2.319,2.339,0,4.836-.019,9.672.02,14.507.006.755-.177.943-.93.928-2.618-.052-5.239-.042-7.858,0-.662.009-.918-.1-.907-.846.048-3.122.029-6.246.011-9.369a2.653,2.653,0,0,1,.364-1.326c3.026-5.6,6.06-11.191,9.034-16.816.4-.763.753-.738,1.382-.408a9.218,9.218,0,0,1,5.306,8.289c.111,3.253.023,6.514.023,9.771Z" transform="translate(-218.725 -183.808)" fill="#ffd494"/>
    <path id="Trazado_170037" data-name="Trazado 170037" d="M-472.006,2008.264c0-3.188-.087-6.38.023-9.564a9.214,9.214,0,0,1,5.463-8.388c.54-.27.844-.272,1.176.351q4.558,8.562,9.186,17.086a2.307,2.307,0,0,1,.278,1.149c-.01,3.155-.02,6.31.007,9.464,0,.587-.1.813-.759.8q-4.027-.061-8.055,0c-.7.011-.893-.165-.889-.879.032-5.3,0-10.606.037-15.909.006-.8-.205-1-.99-.984-2.254.047-2.255.011-2.255,2.216,0,4.867-.015,9.733.016,14.6,0,.712-.113.978-.911.962-2.327-.046-2.328,0-2.328-2.347Q-472.006,2012.543-472.006,2008.264Z" transform="translate(-8.734 -183.722)" fill="#ff9800"/>
    <path id="Trazado_170038" data-name="Trazado 170038" d="M-314.95,1883.216a14.81,14.81,0,0,1-.476,4.984,9.465,9.465,0,0,1-9.876,6.372,9.764,9.764,0,0,1-8.794-7.745,46.414,46.414,0,0,1-.206-6.534c-.018-.446.2-.551.586-.621a15.478,15.478,0,0,0,8.655-4.569c.339-.354.542-.349.878,0a15.419,15.419,0,0,0,8.656,4.563c.479.086.6.285.586.728C-314.968,1881.334-314.95,1882.275-314.95,1883.216Zm-9.778,8.171a6.853,6.853,0,0,0,5.459-2.615c1.127-1.409,1.119-1.423-.44-2.207a5.661,5.661,0,0,1-.715-.361c-.559-.391-.848-.259-1.231.329a3.582,3.582,0,0,1-5.575.519c-.356-.359-.4-1.137-1.018-1.072a4.814,4.814,0,0,0-1.442.674,3.7,3.7,0,0,1-.539.266c-.6.183-.667.46-.334,1.007A6.889,6.889,0,0,0-324.728,1891.387Z" transform="translate(-109.361 -99.478)" fill="#edceb2"/>
    <path id="Trazado_170039" data-name="Trazado 170039" d="M-446.4,1885.043a9.622,9.622,0,0,1-1.451-4.917c-.061-2.616-.035-5.234-.02-7.85a1.6,1.6,0,0,1,1.811-1.8c4.294-.011,8.59-.045,12.883.017a7.762,7.762,0,0,1,5.946,2.93,1.286,1.286,0,0,1,.431,1.07c-.423,2.905-.054,5.83-.232,8.832-.245-.606-.442-1.162-.691-1.694a7.63,7.63,0,0,0-3.665-3.723c-.553-.268-.758-.523-.552-1.111a5.658,5.658,0,0,0,.174-.985c.067-.428-.1-.622-.55-.583a4.268,4.268,0,0,1-.8,0c-1.153-.117-2.014-.083-2.293,1.467a3.166,3.166,0,0,1-2.734,2.375c-1.116.221-2.251.344-3.373.535C-444.821,1880.17-446.137,1881.609-446.4,1885.043Z" transform="translate(-26.379 -96.278)" fill="#ffb74d"/>
    <path id="Trazado_170040" data-name="Trazado 170040" d="M-226.68,1883.029c0-2.745.009-5.49-.01-8.235a1.483,1.483,0,0,1,.447-.974,8.654,8.654,0,0,1,5.728-3.409,21.751,21.751,0,0,1,7.7.114,9.417,9.417,0,0,1,5.566,14.31,5.453,5.453,0,0,0-.748-3.143c-1.09-1.754-2.816-2.25-4.712-2.453-.832-.089-1.661-.217-2.486-.359a3.719,3.719,0,0,1-3.241-3.13c-.131-.646-.377-.819-.976-.768a8.012,8.012,0,0,1-1.609,0c-.789-.093-.924.287-.793.933a2.955,2.955,0,0,0,.11.49c.264.674.036,1.019-.625,1.346A8.785,8.785,0,0,0-226.68,1883.029Z" transform="translate(-187.999 -96.033)" fill="#afafaf"/>
    <path id="Trazado_170041" data-name="Trazado 170041" d="M-201.666,1913.981a15.763,15.763,0,0,1-.14,2.669,6.481,6.481,0,0,1-6.919,5.149,6.477,6.477,0,0,1-5.835-6.355c-.02-1.106-.03-2.214.006-3.319a4.8,4.8,0,0,1,3.117-4.3c.317-.115.623-.265.93.026,1.676,1.584,3.834,1.789,5.961,2.058C-201.695,1910.274-201.666,1910.3-201.666,1913.981Z" transform="translate(-196.849 -123.478)" fill="#edceb2"/>
    <path id="Trazado_170042" data-name="Trazado 170042" d="M-430.026,1913.894q0-.553,0-1.106c0-2.05.262-2.363,2.264-2.671.993-.153,1.988-.289,2.982-.433a6.161,6.161,0,0,0,3.258-1.448,1.215,1.215,0,0,1,1.534-.175,4.551,4.551,0,0,1,2.78,3.684,16.476,16.476,0,0,1-.091,5.107,6.415,6.415,0,0,1-6.862,5.08,6.483,6.483,0,0,1-5.862-6.33C-430.036,1915.034-430.025,1914.464-430.026,1913.894Z" transform="translate(-39.428 -123.612)" fill="#edceb2"/>
    <path id="Trazado_170043" data-name="Trazado 170043" d="M-320.517,1968.71c-1.476,0-2.953-.016-4.429.01a.9.9,0,0,1-.938-.547c-.831-1.605-1.7-3.194-2.562-4.78-.227-.415-.323-.618.3-.809a5.941,5.941,0,0,0,3.846-3.436c.227-.526.492-.6.991-.473a12.2,12.2,0,0,0,5.779.062c.489-.111.7-.048.906.426a5.977,5.977,0,0,0,3.858,3.424c.642.2.5.417.283.815-.864,1.588-1.729,3.176-2.559,4.782a.9.9,0,0,1-.945.536C-317.5,1968.7-319.007,1968.71-320.517,1968.71Z" transform="translate(-113.524 -160.694)" fill="#edceb2"/>
    <path id="Trazado_170044" data-name="Trazado 170044" d="M-315.787,1774.553c1.876,0,3.752.027,5.627-.015.656-.015.869.145.773.823a6.53,6.53,0,0,1-6.437,5.639,6.525,6.525,0,0,1-6.4-5.675c-.078-.613.064-.8.712-.788C-319.607,1774.582-317.7,1774.553-315.787,1774.553Z" transform="translate(-118.18 -26.191)" fill="#edceb2"/>
    <path id="Trazado_170045" data-name="Trazado 170045" d="M-417.578,1810.467c1.909,0,3.82.03,5.728-.017.657-.016.784.19.706.794a6.525,6.525,0,0,1-6.408,5.67,6.528,6.528,0,0,1-6.432-5.644c-.1-.688.134-.831.779-.817C-421.33,1810.493-419.454,1810.467-417.578,1810.467Z" transform="translate(-43.83 -52.432)" fill="#edceb2"/>
    <path id="Trazado_170046" data-name="Trazado 170046" d="M-213.99,1810.472c1.909,0,3.819.027,5.728-.015.634-.014.7.227.641.759a6.52,6.52,0,0,1-6.477,5.7,6.525,6.525,0,0,1-6.37-5.711c-.062-.547.034-.762.65-.75C-217.876,1810.5-215.933,1810.472-213.99,1810.472Z" transform="translate(-192.533 -52.436)" fill="#edceb2"/>
    <path id="Trazado_170047" data-name="Trazado 170047" d="M-238.094,2066.792c0,1.275-.061,2.553.022,3.823.054.84-.264.983-1.006.957-1.508-.053-3.019-.052-4.527,0-.706.024-.963-.1-.969-.9a9.044,9.044,0,0,1,.759-3.887c.63-1.4,1.132-2.86,1.63-4.314.142-.417.279-.612.74-.6.9.032,1.813.045,2.716,0,.569-.031.656.2.646.7C-238.112,2063.975-238.094,2065.384-238.094,2066.792Z" transform="translate(-174.931 -236.13)" fill="#edceb2"/>
    <path id="Trazado_170048" data-name="Trazado 170048" d="M-376.177,2066.49c0-1.409.019-2.818-.011-4.226-.01-.484.138-.684.62-.611a1.417,1.417,0,0,0,.2,0c.972.006,2.09-.284,2.876.1.806.4.708,1.689,1.11,2.55.41.877.646,1.841,1.1,2.691a7.961,7.961,0,0,1,.558,3.823c.008.393-.125.519-.516.515-1.811-.016-3.622-.023-5.433,0-.506.007-.513-.253-.51-.622C-376.171,2069.308-376.177,2067.9-376.177,2066.49Z" transform="translate(-78.768 -235.903)" fill="#edceb2"/>
    <path id="Trazado_170049" data-name="Trazado 170049" d="M-178.406,1775.926a4.562,4.562,0,0,1,5.128-.877,4.882,4.882,0,0,1,2.86,4.688,4.608,4.608,0,0,1-3.183,4.123A9.885,9.885,0,0,0-178.406,1775.926Z" transform="translate(-223.278 -26.256)" fill="#fdfdfd"/>
    <path id="Trazado_170050" data-name="Trazado 170050" d="M-205.7,2055.7a1.117,1.117,0,0,1,.38,1.083c0,3.147-.016,6.293.015,9.44.006.633-.13.841-.808.836-2.411-.016-2.411.013-2.411-2.432,0-2.142.011-4.285-.008-6.427,0-.507,0-.826.673-.911A3,3,0,0,0-205.7,2055.7Z" transform="translate(-201.263 -231.625)" fill="#ffd494"/>
    <path id="Trazado_170051" data-name="Trazado 170051" d="M-400.1,2061.677c0-1.607,0-3.213,0-4.82,0-.309-.019-.693.249-.82.306-.145.4.275.561.457a3.12,3.12,0,0,0,1.89,1.053c.43.062.536.22.533.63q-.023,4.268,0,8.535c0,.439-.142.547-.572.574-2.661.169-2.66.181-2.66-2.5Z" transform="translate(-61.295 -231.849)" fill="#ff9800"/>
    <path id="Trazado_170052" data-name="Trazado 170052" d="M-205.961,1789.849h-11.025a6.185,6.185,0,0,1,4.887-3.145A6.338,6.338,0,0,1-205.961,1789.849Z" transform="translate(-195.089 -35.06)" fill="#fdfdfd"/>
    <path id="Trazado_170053" data-name="Trazado 170053" d="M-318.406,1753.938a6.18,6.18,0,0,1,5.172-3.047,6.278,6.278,0,0,1,5.666,3.047Z" transform="translate(-120.986 -8.911)" fill="#fd816d"/>
    <path id="Trazado_170054" data-name="Trazado 170054" d="M-420.6,1789.848a6.3,6.3,0,0,1,5.469-3.2,6.389,6.389,0,0,1,5.6,3.2H-420.6Z" transform="translate(-46.322 -35.037)" fill="#646c77"/>
    <path id="Trazado_170055" data-name="Trazado 170055" d="M-307.408,2014.509l-3.351-6.221h6.688Z" transform="translate(-126.574 -196.983)" fill="#edceb2"/>
    <path id="Trazado_170056" data-name="Trazado 170056" d="M-205.184,1846.4c.871,0,1.742.025,2.611-.01.495-.019.545.191.475.6a3.312,3.312,0,0,1-3.232,2.633,3.334,3.334,0,0,1-3.139-2.628c-.1-.53.107-.619.574-.6C-206.992,1846.424-206.087,1846.4-205.184,1846.4Z" transform="translate(-201.295 -78.693)" fill="#edceb2"/>
    <path id="Trazado_170057" data-name="Trazado 170057" d="M-408.825,1849.618a3.3,3.3,0,0,1-3.122-2.514c-.112-.475-.1-.733.522-.72,1.74.036,3.482.033,5.222,0,.554-.01.7.14.575.682A3.312,3.312,0,0,1-408.825,1849.618Z" transform="translate(-52.6 -78.686)" fill="#edceb2"/>
    <path id="Trazado_170058" data-name="Trazado 170058" d="M-306.974,1810.483c.87,0,1.742.029,2.611-.01.558-.025.589.217.5.66a3.3,3.3,0,0,1-3.179,2.572,3.315,3.315,0,0,1-3.165-2.592c-.094-.474,0-.661.525-.64C-308.783,1810.509-307.878,1810.483-306.974,1810.483Z" transform="translate(-126.951 -52.447)" fill="#edceb2"/>
    <path id="Trazado_170059" data-name="Trazado 170059" d="M-195.3,2026.05a8.1,8.1,0,0,1-1.832-5.635c0-.125-.02-.285.046-.369a3.656,3.656,0,0,1,2.5.265c.054.083.078.188.137.266a2.922,2.922,0,0,1-.01,3.955A10.436,10.436,0,0,0-195.3,2026.05Z" transform="translate(-209.592 -205.481)" fill="#ff9800"/>
    <path id="Trazado_170060" data-name="Trazado 170060" d="M-411.119,2025.829c-.553-1.027-1.073-2.025-1.628-3a.847.847,0,0,1,.015-.931c.2-.347.355-.715.534-1.073a2.2,2.2,0,0,1,2.687-1.085c.289.092.227.255.223.447A8.122,8.122,0,0,1-411.119,2025.829Z" transform="translate(-51.959 -205.264)" fill="#111e61"/>
    <path id="Trazado_170061" data-name="Trazado 170061" d="M-231.357,1855.95a2.288,2.288,0,0,1-.215-2.377,6.988,6.988,0,0,1,1.239-2.055c.4-.451.853-1.087,1.391-1.084.675,0,.44.886.653,1.354.265.582,1.034,1.146.754,1.7-.233.461-1.083.584-1.617.923C-229.905,1854.891-230.619,1855.431-231.357,1855.95Z" transform="translate(-184.262 -81.646)" fill="#ff9800"/>
    <path id="Trazado_170062" data-name="Trazado 170062" d="M-416.4,1970.888a9.351,9.351,0,0,0,4.484.052c.287-.065.582-.147.607.236.023.356.458.752-.041,1.086-.807.541-1.624,1.066-2.419,1.624-.292.2-.489.079-.719-.076-.75-.5-1.493-1.022-2.261-1.5-.529-.328-.132-.715-.11-1.069C-416.84,1970.918-416.646,1970.752-416.4,1970.888Z" transform="translate(-48.932 -169.622)" fill="#edceb2"/>
    <path id="Trazado_170063" data-name="Trazado 170063" d="M-200.907,1970.888a9.342,9.342,0,0,0,4.485.052c.288-.065.582-.144.606.238.023.356.458.752-.042,1.087-.807.541-1.624,1.066-2.419,1.623-.293.205-.49.076-.72-.078-.75-.5-1.493-1.022-2.261-1.5-.529-.328-.13-.716-.109-1.069C-201.347,1970.915-201.15,1970.753-200.907,1970.888Z" transform="translate(-206.382 -169.622)" fill="#edceb2"/>
    <path id="Trazado_170064" data-name="Trazado 170064" d="M-376.088,1854.418c0,.331.008.639-.225.8-.314.219-.463-.149-.648-.292a9.91,9.91,0,0,0-2.772-1.6c-.66-.231-.638-.456-.295-.968a3.433,3.433,0,0,0,.571-1.379c.151-1.094.589-.751,1.121-.309A6.307,6.307,0,0,1-376.088,1854.418Z" transform="translate(-75.791 -81.512)" fill="#ff9800"/>
    <path id="Trazado_170065" data-name="Trazado 170065" d="M-274.55,1819.051a21.482,21.482,0,0,0-3.874-1.638c-.438-.126-.556-.27-.267-.674a4.428,4.428,0,0,0,.793-1.833c.112-.678.34-.7.817-.324A6.264,6.264,0,0,1-274.55,1819.051Z" transform="translate(-149.889 -55.272)" fill="#ffd494"/>
    <path id="Trazado_170066" data-name="Trazado 170066" d="M-333.834,1819.039a6.289,6.289,0,0,1,2.73-4.623c.357-.256.516-.161.591.267a5.34,5.34,0,0,0,.843,2.028c.211.317.262.5-.2.632A19.325,19.325,0,0,0-333.834,1819.039Z" transform="translate(-109.714 -55.227)" fill="#ffd494"/>
    <path id="Trazado_170067" data-name="Trazado 170067" d="M-408.36,2000.184c-.376-.055-1.022.221-1.252-.124a6.6,6.6,0,0,1-.77-2.03c-.114-.447.993-.928,1.546-.672.724.335,1.435.7,2.146,1.059.286.145.7.268.429.708-.234.376-.068,1.078-.82,1.06C-407.481,2000.176-407.881,2000.184-408.36,2000.184Z" transform="translate(-53.777 -188.945)" fill="#111e61"/>
    <path id="Trazado_170068" data-name="Trazado 170068" d="M-199.544,2000.07c-.942-.039-1.823.3-2.074-.9-.1-.457-.07-.664.347-.854a14.605,14.605,0,0,0,1.971-1c.623-.409,1.089-.1,1.56.193.58.358.02.77-.027,1.146C-197.912,1999.81-198.5,2000.408-199.544,2000.07Z" transform="translate(-206.284 -188.823)" fill="#ff9800"/>
    <path id="Trazado_170069" data-name="Trazado 170069" d="M-431.335,1986.286c-1.041.52-2.082,1.032-3.114,1.56-.276.141-.425.052-.554-.191-.314-.592-.638-1.178-.951-1.77-.143-.27-.072-.411.25-.486C-434.161,1985.039-432.6,1984.54-431.335,1986.286Z" transform="translate(-35.048 -180.001)" fill="#fff"/>
    <path id="Trazado_170070" data-name="Trazado 170070" d="M-177.953,1986.3c1.246-1.678,2.757-1.265,4.275-.884.353.089.464.209.282.54-.306.557-.617,1.112-.9,1.68-.157.313-.345.339-.636.189C-175.935,1987.311-176.942,1986.81-177.953,1986.3Z" transform="translate(-223.609 -180.023)" fill="#fff"/>
    <path id="Trazado_170071" data-name="Trazado 170071" d="M-172.155,1853.884a15.269,15.269,0,0,0-3.763-1.206,9.568,9.568,0,0,0,.587-1.617c.149-.861.43-.884,1.043-.357A6.451,6.451,0,0,1-172.155,1853.884Z" transform="translate(-225.096 -81.587)" fill="#ff9800"/>
    <path id="Trazado_170072" data-name="Trazado 170072" d="M-432.449,1852.321a4.531,4.531,0,0,1,.242-.439,4.788,4.788,0,0,1,1.973-1.758l.881,2.2Z" transform="translate(-37.66 -81.42)" fill="#ff9800"/>
    <path id="Trazado_170073" data-name="Trazado 170073" d="M-424.02,2008.13c-.431-.787-.76-1.481-1.174-2.117-.36-.553-.074-.722.367-.948.545-.279.651.077.725.448C-423.938,2006.328-423.157,2007.11-424.02,2008.13Z" transform="translate(-42.842 -194.555)" fill="#fff"/>
    <path id="Trazado_170074" data-name="Trazado 170074" d="M-176.825,2008.112c-.421-.676-.186-2.72.277-3.04.324-.225.551.105.813.2s.341.293.154.545a1.482,1.482,0,0,0-.09.178C-176.035,2006.664-176.4,2007.333-176.825,2008.112Z" transform="translate(-224.272 -194.577)" fill="#fff"/>
    <path id="Trazado_170075" data-name="Trazado 170075" d="M-390.658,1985.319c-.347.448-.628.813-.911,1.177a1.006,1.006,0,0,1-1.644.057c-.1-.1-.158-.171-.074-.327A3.323,3.323,0,0,1-390.658,1985.319Z" transform="translate(-66.245 -180.174)" fill="#fff"/>
    <path id="Trazado_170076" data-name="Trazado 170076" d="M-210.227,1986.073c-1.636.907-1.074.986-2.624-.99C-211.964,1984.66-211.783,1984.727-210.227,1986.073Z" transform="translate(-198.11 -179.86)" fill="#fff"/>
    <path id="Trazado_170077" data-name="Trazado 170077" d="M-315.087,1921.6a6.889,6.889,0,0,1-5.835-3.461c-.333-.547-.269-.824.334-1.007a3.7,3.7,0,0,0,.539-.266,4.814,4.814,0,0,1,1.442-.674c.62-.065.663.712,1.018,1.072a3.582,3.582,0,0,0,5.575-.519c.382-.587.672-.72,1.231-.329a5.659,5.659,0,0,0,.715.361c1.558.784,1.567.8.44,2.207A6.853,6.853,0,0,1-315.087,1921.6Z" transform="translate(-119.002 -129.689)" fill="#020201"/>
  </g>
</svg>
