<svg xmlns="http://www.w3.org/2000/svg" width="100" height="100.009" viewBox="0 0 100 100.009">
  <g id="Grupo_110658" data-name="Grupo 110658" transform="translate(662.638 -1362.385)">
    <path id="Trazado_170158" data-name="Trazado 170158" d="M-662.638,1368.935c.355-.175.292-.552.4-.842a8.006,8.006,0,0,1,6.89-5.635,7.763,7.763,0,0,1,7.89,3.716,7.886,7.886,0,0,1,.086,8.8c-.343.58-.474.776.349.99a56.253,56.253,0,0,0,19.176,1.414c8.748-.761,17.281-2.691,25.874-4.341a107.533,107.533,0,0,1,21.957-2.262,52.6,52.6,0,0,1,14.811,2.428,3.359,3.359,0,0,1,2.564,3.358c.007.165,0,.331,0,.5q0,25.9,0,51.792a4.135,4.135,0,0,1-.481,2.2,3.3,3.3,0,0,1-3.858,1.475,51.79,51.79,0,0,0-17.253-1.978,139.922,139.922,0,0,0-22.341,3.22,149.957,149.957,0,0,1-24.488,3.57,53.975,53.975,0,0,1-18.261-2.141v1.109q0,10.468,0,20.935a4.955,4.955,0,0,1-4.318,5.1,5.009,5.009,0,0,1-5.627-4.463c-.031-.461-.021-.926-.021-1.389q0-39.092.013-78.184a1.868,1.868,0,0,0-.685-1.614,7.554,7.554,0,0,1-2.311-3.625c-.08-.257-.024-.611-.364-.753Zm93.289,59.516c.732.2,1.462.4,2.2.592,1.158.305,1.159.3,1.159-.907q.005-25.269.01-50.537c0-.165-.013-.331,0-.5a.675.675,0,0,0-.6-.843c-1-.219-1.977-.5-2.965-.751a48.275,48.275,0,0,0-12.06-1.445c-.912-.007-1.063.268-1.061,1.1q.037,24,.019,47.994c0,1.091.025,2.182-.01,3.272-.018.555.155.733.725.726A58.81,58.81,0,0,1-569.349,1428.45Zm-16.671-27.664q0-12.8.014-25.592c0-.686-.07-1.007-.887-.9-2.554.337-5.122.57-7.676.9-5.176.675-10.274,1.779-15.378,2.854a155.909,155.909,0,0,1-18.617,2.709c-.578.05-.756.2-.755.812q.029,25.79,0,51.581c0,.621.142.768.765.71,4.344-.4,8.675-.921,12.96-1.734,9.533-1.809,19-4.029,28.708-4.745.745-.055.883-.312.88-1.007C-586.029,1417.848-586.02,1409.317-586.02,1400.787Zm-63.3,4.475c0,8.5.009,17-.016,25.5a1.051,1.051,0,0,0,.9,1.231,52.564,52.564,0,0,0,14.869,2.076c.748-.006.925-.2.924-.936q-.032-25.6,0-51.2c0-.816-.263-.966-1.006-.962a52.259,52.259,0,0,1-14.691-1.933c-.914-.26-1,0-1,.822C-649.31,1388.326-649.32,1396.794-649.32,1405.261Zm-3.36,13.2v-37.492c0-2.042,0-2.042-2.005-2.078-1.243-.022-1.244-.022-1.244,1.265q0,38.236,0,76.472c0,1.656.542,2.437,1.665,2.406,1.094-.03,1.584-.766,1.584-2.385Q-652.68,1437.558-652.68,1418.465Zm3.2-47.833a4.881,4.881,0,0,0-5.03-4.87,4.9,4.9,0,0,0-4.78,4.923,4.92,4.92,0,0,0,4.884,4.938A4.908,4.908,0,0,0-649.481,1370.632Z" fill="#030302"/>
    <path id="Trazado_170159" data-name="Trazado 170159" d="M-493.738,1433.719c0,8.531-.009,17.062.017,25.592,0,.694-.135.952-.88,1.007-9.711.715-19.175,2.936-28.708,4.745-4.285.813-8.616,1.331-12.96,1.734-.623.057-.766-.09-.765-.71q.026-25.79,0-51.581c0-.61.177-.761.755-.812a155.96,155.96,0,0,0,18.617-2.709c5.1-1.075,10.2-2.179,15.378-2.854,2.555-.333,5.122-.566,7.676-.9.817-.108.888.214.887.9Q-493.756,1420.923-493.738,1433.719Zm-29.254-1.156c-.4-.352-.593-.519-.784-.69-2.4-2.144-3.159-1.995-4.367.933a.837.837,0,0,1-1.036.6c-1.116-.13-2.239-.205-3.357-.323-1.752-.185-2.646.881-2.1,2.542.369,1.128.718,2.266,1.164,3.363.3.734.124,1.063-.573,1.425-1.75.909-1.789,2.378-.14,3.5q3.111,2.12,6.25,4.2c1.775,1.174,1.795,1.164,1.1,3.23a1.949,1.949,0,0,0,.31,2.208,1.915,1.915,0,0,0,2.209.241c2.218-.755,4.377-1.661,6.533-2.571.644-.271.784-.151.77.517-.034,1.653-.027,3.307,0,4.961a1.69,1.69,0,0,0,1.613,1.88c.987.025,1.67-.726,1.683-1.908.017-1.587,0-3.175,0-4.762,0-1.834,0-1.844,1.875-1.8,2.083.046,4.166.152,6.248.156a1.708,1.708,0,0,0,1.739-2.467,10.775,10.775,0,0,0-.536-1.381.98.98,0,0,1,.313-1.343c2.647-2.446,5.26-4.93,7.881-7.4,1.351-1.275,1.086-2.738-.659-3.344-.574-.2-.587-.435-.429-.908.438-1.313.84-2.638,1.271-3.954a1.721,1.721,0,0,0-.374-1.923,1.736,1.736,0,0,0-1.935-.309c-1.022.37-2.088.632-3.085,1.058-.849.364-1.266.27-1.648-.659a1.744,1.744,0,0,0-3.11-.4c-.219.247-.423.509-.622.773-.129.171-.29.325-.493.233-.265-.119-.062-.318-.028-.5.327-1.684.651-3.37.956-5.058a1.738,1.738,0,0,0-.833-1.956,1.642,1.642,0,0,0-2.011.252c-.511.418-1.07.78-1.56,1.22-.423.379-.606.262-.85-.19-.721-1.335-1.481-2.649-2.239-3.964a1.691,1.691,0,0,0-1.724-.927,1.69,1.69,0,0,0-1.456,1.164c-.579,1.33-1.2,2.642-1.81,3.957-.319.684-.5,1.668-1.042,1.948-.558.29-1.376-.384-2.074-.657-.061-.024-.125-.044-.187-.064a1.661,1.661,0,0,0-2.191,1.115,3.353,3.353,0,0,0,.128,1.847C-523.834,1428.394-523.433,1430.349-522.992,1432.563Z" transform="translate(-92.282 -32.932)" fill="#f3f3f3"/>
    <path id="Trazado_170160" data-name="Trazado 170160" d="M-612.48,1451.117c0-8.467.01-16.935-.017-25.4,0-.821.088-1.082,1-.822a52.259,52.259,0,0,0,14.691,1.933c.743,0,1.007.146,1.006.962q-.038,25.6,0,51.2c0,.735-.176.93-.924.936a52.569,52.569,0,0,1-14.869-2.076,1.051,1.051,0,0,1-.9-1.231C-612.471,1468.118-612.48,1459.617-612.48,1451.117Z" transform="translate(-36.84 -45.856)" fill="#f24335"/>
    <path id="Trazado_170161" data-name="Trazado 170161" d="M-347.862,1460.8a58.81,58.81,0,0,0-12.586-1.291c-.57.007-.743-.172-.725-.726.035-1.09.01-2.181.01-3.272q0-24-.019-47.994c0-.836.149-1.11,1.061-1.1a48.281,48.281,0,0,1,12.06,1.446,4.742,4.742,0,0,1,.216,1.159Q-347.863,1434.906-347.862,1460.8Z" transform="translate(-221.487 -32.347)" fill="#f24335"/>
    <path id="Trazado_170162" data-name="Trazado 170162" d="M-634.1,1464.179q0,19.094,0,38.187c0,1.62-.49,2.355-1.584,2.385-1.123.031-1.665-.749-1.665-2.406q0-38.236,0-76.472c0-1.287,0-1.287,1.244-1.265,2.005.036,2.005.036,2.005,2.078Z" transform="translate(-18.58 -45.714)" fill="#90562d"/>
    <path id="Trazado_170163" data-name="Trazado 170163" d="M-311.519,1464.8q.005-25.891.018-51.782a4.741,4.741,0,0,0-.216-1.16c.988.254,1.97.532,2.965.751a.676.676,0,0,1,.6.843c-.015.164,0,.33,0,.5q-.005,25.268-.01,50.537c0,1.21,0,1.212-1.159.907C-310.056,1465.2-310.787,1465-311.519,1464.8Z" transform="translate(-257.83 -36.351)" fill="#f24335"/>
    <path id="Trazado_170164" data-name="Trazado 170164" d="M-640.21,1379.985a4.908,4.908,0,0,1-4.926,4.991,4.92,4.92,0,0,1-4.884-4.938,4.9,4.9,0,0,1,4.78-4.923A4.881,4.881,0,0,1-640.21,1379.985Z" transform="translate(-9.271 -9.352)" fill="#f24335"/>
    <path id="Trazado_170165" data-name="Trazado 170165" d="M-518.437,1460c-.442-2.214-.843-4.169-1.217-6.13a3.353,3.353,0,0,1-.128-1.847,1.661,1.661,0,0,1,2.191-1.115c.063.021.126.04.187.064.7.273,1.516.947,2.074.657.54-.28.722-1.263,1.042-1.948.614-1.314,1.231-2.627,1.81-3.957a1.69,1.69,0,0,1,1.456-1.164,1.691,1.691,0,0,1,1.724.927c.758,1.315,1.518,2.629,2.239,3.964.245.453.427.57.85.19.491-.44,1.049-.8,1.56-1.22a1.642,1.642,0,0,1,2.011-.252,1.738,1.738,0,0,1,.833,1.956c-.305,1.688-.629,3.374-.956,5.058-.035.179-.237.377.028.5.2.091.364-.063.493-.233.2-.264.4-.526.622-.773a1.744,1.744,0,0,1,3.11.4c.382.928.8,1.022,1.648.659,1-.426,2.063-.688,3.085-1.058a1.736,1.736,0,0,1,1.935.309,1.721,1.721,0,0,1,.374,1.923c-.431,1.316-.833,2.641-1.271,3.954-.158.473-.145.708.429.908,1.746.607,2.011,2.069.659,3.344-2.621,2.474-5.234,4.958-7.881,7.4a.98.98,0,0,0-.313,1.343,10.775,10.775,0,0,1,.536,1.381,1.708,1.708,0,0,1-1.739,2.467c-2.083,0-4.165-.11-6.248-.156-1.874-.041-1.875-.031-1.875,1.8,0,1.587.013,3.175,0,4.762-.013,1.182-.7,1.933-1.683,1.908a1.69,1.69,0,0,1-1.613-1.88c-.022-1.654-.029-3.308,0-4.961.014-.668-.127-.789-.77-.517-2.156.91-4.314,1.816-6.533,2.571a1.915,1.915,0,0,1-2.209-.241,1.949,1.949,0,0,1-.31-2.208c.7-2.066.678-2.056-1.1-3.23q-3.14-2.077-6.25-4.2c-1.649-1.123-1.61-2.592.14-3.5.7-.362.872-.691.573-1.425-.446-1.1-.8-2.235-1.164-3.363-.544-1.661.35-2.727,2.1-2.542,1.118.118,2.24.193,3.357.323a.837.837,0,0,0,1.036-.6c1.208-2.928,1.969-3.077,4.367-.933C-519.03,1459.483-518.837,1459.651-518.437,1460Zm12.583-6.324c-1.986.423-2.513.162-3.556-1.615a10,10,0,0,0-1.314-2.112c-.514,1.106-1,2.155-1.488,3.2a3.835,3.835,0,0,1-1.34,1.913,2.983,2.983,0,0,1-2.436.114c.451,2.259.873,4.39,1.3,6.52a2.559,2.559,0,0,1-1.14,3c-.99.56-1.887.4-2.968-.547-.666-.581-1.33-1.165-2.041-1.788a2.493,2.493,0,0,1-2.213,1.85c-1.009.036-2.024-.085-3.145-.142.337,1.034.632,1.973.949,2.9a2.082,2.082,0,0,1-.413,2.223c-.524.537-.253.7.19.984,1.83,1.185,3.624,2.427,5.474,3.58,1.2.746,2.281,1.5,1.933,3.272,1.248-.511,2.359-.861,3.369-1.4a13.141,13.141,0,0,1,7.646-1.452c1.224.115,2.467.02,3.78.02-.781-1.534-.154-2.634.98-3.674,2.094-1.923,4.127-3.912,6.174-5.886.215-.207.726-.364.256-.827a2.456,2.456,0,0,1-.443-2.757,5.25,5.25,0,0,0,.538-2.184c-.445.156-.824.27-1.189.419-1.192.488-2.345.757-3.353-.386-.324-.367-.445.048-.583.214-.654.788-1.28,1.6-1.935,2.388a2.394,2.394,0,0,1-2.951.952c-1.075-.489-1.474-1.486-1.193-2.937C-506.591,1457.584-506.228,1455.645-505.855,1453.678Z" transform="translate(-96.836 -60.372)" fill="#030302"/>
    <path id="Trazado_170166" data-name="Trazado 170166" d="M-492.993,1468.628c-.373,1.966-.736,3.906-1.111,5.843-.281,1.451.118,2.448,1.193,2.937a2.394,2.394,0,0,0,2.951-.952c.654-.788,1.281-1.6,1.935-2.388.138-.166.259-.581.583-.214,1.008,1.143,2.162.875,3.353.387.365-.15.744-.263,1.189-.419a5.25,5.25,0,0,1-.538,2.184,2.455,2.455,0,0,0,.443,2.757c.47.463-.041.62-.256.827-2.047,1.973-4.08,3.963-6.174,5.886-1.133,1.04-1.76,2.14-.98,3.674-1.313,0-2.556.095-3.78-.02a13.141,13.141,0,0,0-7.646,1.452c-1.009.541-2.121.891-3.369,1.4.349-1.772-.736-2.525-1.933-3.272-1.85-1.153-3.644-2.4-5.474-3.58-.443-.286-.714-.447-.19-.984a2.082,2.082,0,0,0,.412-2.223c-.316-.932-.612-1.87-.949-2.9,1.122.058,2.136.179,3.145.143a2.494,2.494,0,0,0,2.213-1.85c.711.623,1.375,1.207,2.041,1.788,1.081.943,1.978,1.108,2.968.547a2.559,2.559,0,0,0,1.14-3c-.429-2.13-.851-4.261-1.3-6.52a2.982,2.982,0,0,0,2.436-.114,3.834,3.834,0,0,0,1.34-1.913c.49-1.045.974-2.093,1.488-3.2a10,10,0,0,1,1.314,2.112C-495.505,1468.79-494.979,1469.051-492.993,1468.628Z" transform="translate(-109.699 -75.321)" fill="#f24335"/>
  </g>
</svg>
