<svg xmlns="http://www.w3.org/2000/svg" width="74.195" height="100" viewBox="0 0 74.195 100">
  <g id="coupon" transform="translate(-9 -1.001)">
    <path id="Trazado_148101" data-name="Trazado 148101" d="M10,8H80.969V49.936H10Z" transform="translate(0.613 4.29)" fill="#ff9800"/>
    <path id="Trazado_148103" data-name="Trazado 148103" d="M14,12H43.033V41.033H14Z" transform="translate(3.065 6.742)" fill="#111e61"/>
    <path id="Trazado_148105" data-name="Trazado 148105" d="M17,54.742l9.082-9.082A18.549,18.549,0,0,1,39.2,40.226a5.836,5.836,0,0,1,5.219,3.226H55.71a3.226,3.226,0,0,1,3.226,3.226,2.229,2.229,0,0,1-.01.255L68.9,38.516a4.437,4.437,0,0,1,7.778,2.921v.311a4.443,4.443,0,0,1-1.138,2.969L64.088,57.445a6.452,6.452,0,0,1-4.8,2.136H34.742L28.29,66.033Z" transform="translate(4.903 22.065)" fill="#fbe1ca"/>
    <path id="Trazado_148106" data-name="Trazado 148106" d="M0,0H11.4V25.091H0Z" transform="translate(10.602 81.641) rotate(-45)" fill="#111e61"/>
    <circle id="Elipse_4203" data-name="Elipse 4203" cx="14.516" cy="14.516" r="14.516" transform="translate(31.581 2.613)" fill="#ffee58"/>
    <path id="Trazado_148109" data-name="Trazado 148109" d="M0,0H18.249V3.226H0Z" transform="translate(38.498 22.443) rotate(-45)" fill="#fce797"/>
    <path id="Trazado_148110" data-name="Trazado 148110" d="M30.419,11.839a2.419,2.419,0,1,1,2.419-2.419,2.419,2.419,0,0,1-2.419,2.419Z" transform="translate(11.646 3.677)" fill="#fce797"/>
    <path id="Trazado_148111" data-name="Trazado 148111" d="M35.419,16.839a2.419,2.419,0,1,1,2.419-2.419A2.419,2.419,0,0,1,35.419,16.839Z" transform="translate(14.71 6.742)" fill="#fce797"/>
    <g id="Grupo_85057" data-name="Grupo 85057" transform="translate(50.936 26.806)">
      <path id="Trazado_148112" data-name="Trazado 148112" d="M35,29H60.807v3.226H35Z" transform="translate(-35 -9.645)" fill="#e2e7f6"/>
      <path id="Trazado_148113" data-name="Trazado 148113" d="M35,25H60.807v3.226H35Z" transform="translate(-35 -12.097)" fill="#e2e7f6"/>
      <path id="Trazado_148114" data-name="Trazado 148114" d="M35,21H60.807v3.226H35Z" transform="translate(-35 -14.548)" fill="#e2e7f6"/>
      <path id="Trazado_148115" data-name="Trazado 148115" d="M43,17H55.9v3.226H43Z" transform="translate(-30.097 -17)" fill="#e2e7f6"/>
    </g>
    <path id="Trazado_148116" data-name="Trazado 148116" d="M77.143,36a6.053,6.053,0,0,0-4.466,1.967L64.691,44.71a4.829,4.829,0,0,0-4.077-2.258H50.241A7.4,7.4,0,0,0,44.1,39.226a20.021,20.021,0,0,0-14.257,5.907L21.9,53.074l-2.086-2.086a1.613,1.613,0,0,0-2.281,0L9.472,59.054a1.613,1.613,0,0,0,0,2.281L27.215,79.076a1.613,1.613,0,0,0,2.281,0l8.065-8.065a1.613,1.613,0,0,0,0-2.281l-2.086-2.086,4.839-4.839H64.193a8.076,8.076,0,0,0,5.994-2.669L81.638,46.41a6.047,6.047,0,0,0,1.556-4.048V42.05A6.058,6.058,0,0,0,77.143,36ZM28.355,75.655,12.893,60.194l5.784-5.784L34.139,69.871ZM79.969,42.361a2.824,2.824,0,0,1-.724,1.89L67.793,56.979a4.839,4.839,0,0,1-3.6,1.6H39.645a1.613,1.613,0,0,0-1.14.472l-5.312,5.312-9.01-9.01,7.944-7.942A16.82,16.82,0,0,1,44.1,42.452a4.194,4.194,0,0,1,3.768,2.334,1.613,1.613,0,0,0,1.452.892h11.29a1.613,1.613,0,1,1,0,3.226H49.323v3.226h11.29a4.839,4.839,0,0,0,4.7-3.723l9.532-8.045a1.761,1.761,0,0,0,.176-.171,2.824,2.824,0,0,1,4.95,1.86Z" transform="translate(0 21.452)"/>
    <path id="Trazado_148117" data-name="Trazado 148117" d="M81.582,10.677H60.87a16.115,16.115,0,0,0-29.546,0H10.613A1.613,1.613,0,0,0,9,12.29V54.226a1.613,1.613,0,0,0,1.613,1.613H81.582a1.613,1.613,0,0,0,1.613-1.613V12.29A1.613,1.613,0,0,0,81.582,10.677ZM46.1,4.225a12.9,12.9,0,1,1-12.9,12.9,12.9,12.9,0,0,1,12.9-12.9Zm-1.613,28.95V46.162H18.678V20.355H30.291A16.163,16.163,0,0,0,44.484,33.176ZM79.969,52.613H12.226V13.9H30.291a16.1,16.1,0,0,0-.323,3.226h-12.9a1.613,1.613,0,0,0-1.613,1.613V47.774a1.613,1.613,0,0,0,1.613,1.613H46.1a1.613,1.613,0,0,0,1.613-1.613v-14.6A16.129,16.129,0,0,0,61.9,13.9H79.969Z" transform="translate(0)"/>
    <path id="Trazado_148118" data-name="Trazado 148118" d="M0,0H18.249V3.226H0Z" transform="translate(38.498 22.443) rotate(-45)"/>
    <path id="Trazado_148119" data-name="Trazado 148119" d="M30.419,11.839A2.419,2.419,0,1,0,28,9.419a2.419,2.419,0,0,0,2.419,2.419Z" transform="translate(11.646 3.677)"/>
    <path id="Trazado_148120" data-name="Trazado 148120" d="M35.419,12a2.419,2.419,0,1,0,2.419,2.419A2.419,2.419,0,0,0,35.419,12Z" transform="translate(14.71 6.742)"/>
    <path id="Trazado_148121" data-name="Trazado 148121" d="M35,29H60.807v3.226H35Z" transform="translate(15.936 17.162)"/>
    <path id="Trazado_148122" data-name="Trazado 148122" d="M35,25H60.807v3.226H35Z" transform="translate(15.936 14.71)"/>
    <path id="Trazado_148123" data-name="Trazado 148123" d="M35,21H60.807v3.226H35Z" transform="translate(15.936 12.258)"/>
    <path id="Trazado_148124" data-name="Trazado 148124" d="M43,17H55.9v3.226H43Z" transform="translate(20.839 9.806)"/>
  </g>
</svg>
