<svg xmlns="http://www.w3.org/2000/svg" xmlns:xlink="http://www.w3.org/1999/xlink" width="100" height="100" viewBox="0 0 100 100">
  <defs>
    <linearGradient id="linear-gradient" x1="-0.81" y1="-37.424" x2="-0.19" y2="-36.414" gradientUnits="objectBoundingBox">
      <stop offset="0.015" stop-color="#a6a6b9"/>
      <stop offset="1" stop-color="#cacad5"/>
    </linearGradient>
    <linearGradient id="linear-gradient-2" x1="-0.412" y1="-104.67" x2="0.55" y2="-101.063" xlink:href="#linear-gradient"/>
  </defs>
  <g id="_22-invoice" data-name="22-invoice" transform="translate(-4 -4)">
    <g id="linear_color" data-name="linear color" transform="translate(4 4)">
      <path id="Trazado_148210" data-name="Trazado 148210" d="M182.349,302.181A6.349,6.349,0,0,1,176,308.531h41.27a6.349,6.349,0,0,0,6.349-6.349V287.87h-41.27Z" transform="translate(-141.873 -231.547)" fill="#f6f6f6"/>
      <circle id="Elipse_4205" data-name="Elipse 4205" cx="33.333" cy="33.333" r="33.333" transform="translate(30.952 2.381)" fill="#ffb74d"/>
      <path id="Trazado_148217" data-name="Trazado 148217" d="M23.81,0A23.81,23.81,0,1,1,0,23.81,23.81,23.81,0,0,1,23.81,0Z" transform="translate(40.476 11.905)" fill="#fff1db"/>
      <path id="Trazado_148211" data-name="Trazado 148211" d="M124.7,258.135a6.349,6.349,0,0,1-6.349-6.349V231.349A6.349,6.349,0,0,0,112,225h41.27a6.349,6.349,0,0,1,6.349,6.349v20.436a6.349,6.349,0,0,0,6.349,6.349Z" transform="translate(-90.571 -181.151)" fill="url(#linear-gradient)"/>
      <path id="Trazado_148212" data-name="Trazado 148212" d="M60.7,225a6.349,6.349,0,0,0-6.349,6.349v41.071A6.349,6.349,0,0,1,48,278.77H89.27a6.349,6.349,0,0,0,6.349-6.349V231.349A6.349,6.349,0,0,1,101.968,225Z" transform="translate(-39.27 -181.151)" fill="#fff"/>
      <path id="Trazado_148213" data-name="Trazado 148213" d="M57.27,438.349V432H16v6.349a6.349,6.349,0,0,0,6.349,6.349h41.27A6.349,6.349,0,0,1,57.27,438.349Z" transform="translate(-13.619 -347.079)" fill="url(#linear-gradient-2)"/>
      <path id="Trazado_148214" data-name="Trazado 148214" d="M68.286,4A35.722,35.722,0,0,0,33.037,45.468H25.429A8.74,8.74,0,0,0,16.7,54.2V86.54H6.381A2.381,2.381,0,0,0,4,88.921V95.27A8.74,8.74,0,0,0,12.73,104H54a8.74,8.74,0,0,0,8.73-8.73v-11.9H79.4a8.74,8.74,0,0,0,8.73-8.73V69.41A35.714,35.714,0,0,0,68.286,4ZM12.73,99.238A3.973,3.973,0,0,1,8.762,95.27V91.3H45.27V95.27a8.68,8.68,0,0,0,.955,3.968ZM57.968,95.27a3.968,3.968,0,0,1-7.937,0V88.921a2.381,2.381,0,0,0-2.381-2.381H21.46V54.2a3.973,3.973,0,0,1,3.968-3.968H58.923a8.68,8.68,0,0,0-.955,3.968ZM46.993,42.1h3.833a2.381,2.381,0,0,0,0-4.762H46.99A21.468,21.468,0,0,1,65.9,18.419v3.835a2.381,2.381,0,0,0,4.762,0V18.419A21.468,21.468,0,0,1,89.581,37.333H85.746a2.381,2.381,0,0,0,0,4.762h3.829A21.518,21.518,0,0,1,75.429,59.921V54.2a8.74,8.74,0,0,0-8.73-8.73H47.642a21.276,21.276,0,0,1-.649-3.373ZM62.73,78.6V54.2a3.968,3.968,0,0,1,7.937,0V74.635a8.68,8.68,0,0,0,.955,3.968Zm20.635-3.968a3.967,3.967,0,1,1-7.933.074,35.535,35.535,0,0,0,7.933-2.617Zm-7.937-4.8V64.917a26.176,26.176,0,1,0-32.7-19.448H37.869a30.954,30.954,0,1,1,37.56,24.367Z" transform="translate(-4 -4)"/>
      <path id="Trazado_148215" data-name="Trazado 148215" d="M294.3,137.5l9.623-9.425a2.381,2.381,0,1,0-3.333-3.4l-7.94,7.776-4.583-4.583a2.381,2.381,0,1,0-3.367,3.367l6.25,6.25a2.381,2.381,0,0,0,3.35.017Z" transform="translate(-228.443 -100.189)"/>
      <path id="Trazado_148216" data-name="Trazado 148216" d="M147.717,263.7h-3.373a2.381,2.381,0,0,1,0-4.762h4.923a.7.7,0,0,1,.694.726,2.381,2.381,0,0,0,4.758.2,5.458,5.458,0,0,0-5.453-5.692h-.755v-.794a2.381,2.381,0,1,0-4.762,0v.82a7.142,7.142,0,0,0,.6,14.259h3.373a2.384,2.384,0,0,1,2.381,2.381v.2a2.384,2.384,0,0,1-2.381,2.381h-5a.7.7,0,0,1-.7-.709l0-.206a2.381,2.381,0,0,0-2.338-2.423h-.043a2.381,2.381,0,0,0-2.381,2.338l0,.2a5.458,5.458,0,0,0,5.457,5.557h1.034v.794a2.381,2.381,0,0,0,4.762,0v-.839a7.152,7.152,0,0,0,6.35-7.1v-.2A7.151,7.151,0,0,0,147.717,263.7Z" transform="translate(-110.773 -201.992)"/>
    </g>
  </g>
</svg>
