<svg xmlns="http://www.w3.org/2000/svg" width="90.019" height="90" viewBox="0 0 90.019 90">
  <g id="Grupo_110596" data-name="Grupo 110596" transform="translate(690.868 -519.827)">
    <path id="Trazado_169727" data-name="Trazado 169727" d="M-627,548.233c4.98-4.983,9.8-9.821,14.64-14.641a6.8,6.8,0,0,1,8.211-1.363,6.641,6.641,0,0,1,1.328,10.476c-2.113,2.2-4.3,4.336-6.473,6.481a1.028,1.028,0,0,0-.331,1.238,4.232,4.232,0,0,1-1.068,4.508q-7.537,7.6-15.128,15.144c-.064.064-.123.164-.2.18-1.256.264-.979,1.247-.979,2.089q-.005,10.521.011,21.041a2.374,2.374,0,0,1-.743,1.842q-6.949,6.9-13.854,13.852a2.381,2.381,0,0,1-1.84.747q-22.767-.025-45.533-.013c-1.492,0-1.912-.428-1.912-1.945q0-43.035,0-86.07c0-1.572.4-1.973,1.973-1.973h59.957c1.514,0,1.94.42,1.94,1.917q0,12.7,0,25.395Zm-35.589,35.456h-20.48c-2,0-1.956,0-2.016-2-.024-.778.209-.921.943-.918,7.953.029,15.905.019,23.858.013.317,0,.65.1.936-.188,1.823-1.826,3.657-3.642,5.64-5.612h-29.507c-1.849,0-1.788,0-1.874-1.877-.042-.919.263-1.048,1.095-1.046,10.795.03,21.59.017,32.385.029a1.6,1.6,0,0,0,1.268-.494q9.954-9.993,19.945-19.95a1.508,1.508,0,0,0,.5-1.172q-.023-13.469.008-26.939c0-.716-.219-.815-.859-.815q-28.167.026-56.334-.007c-.792,0-.906.236-.906.953q.028,41.134-.006,82.268c0,.867.266,1,1.045,1q20.728-.034,41.456,0c.833,0,1.109-.131,1.094-1.046-.062-3.869-.027-7.74-.025-11.609,0-1.415.471-1.878,1.909-1.878,3.931,0,7.862-.02,11.793.018.692.007.832-.18.83-.845-.026-6.984-.015-13.968-.023-20.952,0-.216.125-.476-.173-.706-.245.266-.479.539-.733.793q-11.126,11.131-22.255,22.259a3.879,3.879,0,0,1-.969.808q-4.239,2.117-8.478,4.234c-.448.223-1,.4-1.369.029-.873-.863-1.355-.251-1.891.371-.216.251-.467.473-.7.708-1.677,1.677-1.664,1.665-3.291-.1-.312-.339-.273-.511.02-.795.847-.82,1.679-1.656,2.5-2.5.146-.15.527-.326.261-.563-.949-.845-.718-1.749-.113-2.762h-15.875c-2.1,0-2.067,0-2.109-2.09-.014-.694.182-.833.847-.83,5.9.028,11.793,0,17.689.032a1.219,1.219,0,0,0,1.3-.782A40.211,40.211,0,0,1-662.586,583.689Zm29.778-18.8a1.713,1.713,0,0,1,.6-1.283q7.505-7.5,15.013-15a3.745,3.745,0,0,1,3.609-1.272c1.533.456,2.351-.173,3.2-1.18A9.4,9.4,0,0,1-609.237,545c.43-.36.419-.6.008-1-1.351-1.3-2.692-2.611-3.972-3.979-.559-.6-.868-.6-1.458-.008q-13.758,13.818-27.562,27.588-8.433,8.432-16.882,16.848c-.594.588-.529.871.027,1.394,1.342,1.263,2.636,2.579,3.915,3.907.41.426.649.529,1.13.046q11.1-11.15,22.253-22.251c.472-.47.426-.729-.031-1.13C-632.3,565.987-632.846,565.551-632.809,564.887Zm18.9-14.751a2.211,2.211,0,0,0-1.491.79q-6.655,6.67-13.335,13.314c-.513.508-.46.78.039,1.188a6.669,6.669,0,0,1,1.086,1.089c.462.6.777.455,1.25-.022q6.573-6.623,13.186-13.207a4.267,4.267,0,0,0,.6-.672,1.5,1.5,0,0,0,.055-1.63A1.69,1.69,0,0,0-613.908,550.136Zm-27.6,54.318,9.163-9.153c-2.781,0-5.709,0-8.638,0-.281,0-.532-.027-.531.4C-641.507,598.677-641.512,601.656-641.512,604.454Zm34.1-70.078c-.156.022-.305.047-.455.062-1.6.16-2.481,1.373-3.532,2.356-.4.375-.319.593.032.93,1,.962,1.972,1.958,2.955,2.941,1.913,1.912,1.934,1.93,3.649-.208a3.691,3.691,0,0,0,.6-4.143A3.621,3.621,0,0,0-607.417,534.376Zm-54.04,53.308q-1.154,2.294-2.306,4.586c-.714,1.422-.712,1.421.492,2.416.162.134.273.285.539.149,1.863-.949,3.737-1.879,5.628-2.825Z" fill="#060707"/>
    <path id="Trazado_169728" data-name="Trazado 169728" d="M-653.584,592.7a40.207,40.207,0,0,0-2.657,5.039,1.22,1.22,0,0,1-1.3.782c-5.9-.028-11.793,0-17.689-.033-.664,0-.861.136-.847.83.042,2.089.008,2.09,2.109,2.09h15.875c-.605,1.013-.836,1.917.113,2.762.266.237-.115.413-.261.563-.825.843-1.656,1.679-2.5,2.5-.294.284-.333.456-.02.795,1.627,1.764,1.614,1.776,3.291.1.235-.235.486-.457.7-.708.536-.622,1.018-1.234,1.891-.371.371.367.921.194,1.369-.029q4.241-2.111,8.478-4.234a3.879,3.879,0,0,0,.969-.808q11.128-11.129,22.255-22.259c.254-.254.488-.528.733-.793.3.23.173.49.173.706.008,6.984,0,13.969.023,20.953,0,.665-.138.852-.83.845-3.931-.038-7.862-.019-11.793-.018-1.437,0-1.908.463-1.909,1.878,0,3.87-.036,7.741.025,11.609.015.914-.261,1.047-1.094,1.046q-20.728-.042-41.456,0c-.778,0-1.046-.131-1.045-1q.041-41.134.006-82.268c0-.717.113-.954.906-.953q28.167.04,56.334.007c.639,0,.861.1.859.815q-.044,13.469-.008,26.939a1.508,1.508,0,0,1-.5,1.172q-9.988,9.96-19.945,19.95a1.6,1.6,0,0,1-1.268.494c-10.8-.012-21.59,0-32.385-.029-.832,0-1.137.127-1.095,1.046.086,1.875.025,1.878,1.874,1.878H-644.7c-1.983,1.97-3.817,3.786-5.64,5.612-.285.286-.619.188-.936.188-7.952.006-15.905.016-23.858-.013-.734,0-.967.14-.943.918.06,2,.018,2,2.016,2h20.48Zm3.605-49.348q10.75,0,21.5,0c1.246,0,1.768-.516,1.772-1.744q.01-2.631,0-5.261c-.006-1.175-.535-1.7-1.722-1.7q-21.5,0-43,0c-1.192,0-1.719.522-1.724,1.7-.008,1.693,0,3.386,0,5.08,0,1.478.457,1.931,1.949,1.931Zm.013,34.832a15.967,15.967,0,0,0,16-15.884,15.97,15.97,0,0,0-15.753-16.045A15.958,15.958,0,0,0-665.9,562.044,15.956,15.956,0,0,0-649.966,578.18Zm-19.59,31.932h4.442c2.14,0,2.109,0,2.138-2.147.009-.664-.2-.776-.811-.771-3.354.03-6.708.015-10.062.015-2.306,0-2.287,0-2.225,2.329.013.5.177.589.626.583C-673.484,610.1-671.52,610.112-669.556,610.112Z" transform="translate(-9.002 -9.006)" fill="#fff1db"/>
    <path id="Trazado_169729" data-name="Trazado 169729" d="M-534.88,626.581c-.038.664.507,1.1,1,1.532.457.4.5.66.032,1.13Q-545,640.346-556.1,651.5c-.481.483-.72.38-1.13-.046-1.279-1.328-2.573-2.644-3.915-3.907-.556-.524-.621-.806-.027-1.394q8.473-8.391,16.882-16.848,13.788-13.787,27.562-27.588c.59-.593.9-.589,1.458.008,1.28,1.368,2.621,2.68,3.972,3.979.41.394.422.638-.008,1a9.394,9.394,0,0,0-1.155,1.151c-.846,1.006-1.664,1.636-3.2,1.18a3.745,3.745,0,0,0-3.609,1.272q-7.52,7.486-15.013,15A1.712,1.712,0,0,0-534.88,626.581Z" transform="translate(-97.929 -61.694)" fill="#111e61"/>
    <path id="Trazado_169730" data-name="Trazado 169730" d="M-420.923,644.823a1.69,1.69,0,0,1,1.392.85,1.505,1.505,0,0,1-.055,1.63,4.271,4.271,0,0,1-.6.672q-6.6,6.6-13.186,13.207c-.473.477-.788.626-1.25.022a6.672,6.672,0,0,0-1.086-1.089c-.5-.408-.553-.68-.039-1.188q6.7-6.626,13.335-13.314A2.211,2.211,0,0,1-420.923,644.823Z" transform="translate(-192.985 -94.687)" fill="#c1b6a7"/>
    <path id="Trazado_169731" data-name="Trazado 169731" d="M-487.339,840.24c0-2.8.006-5.777-.006-8.756,0-.425.25-.4.531-.4,2.929,0,5.857,0,8.638,0Z" transform="translate(-154.174 -235.786)" fill="#c1b6a7"/>
    <path id="Trazado_169732" data-name="Trazado 169732" d="M-359.995,579.828a3.621,3.621,0,0,1,3.251,1.939,3.691,3.691,0,0,1-.6,4.143c-1.715,2.137-1.737,2.12-3.65.208-.983-.983-1.953-1.979-2.955-2.941-.351-.337-.432-.556-.032-.93,1.051-.983,1.935-2.2,3.532-2.356C-360.3,579.875-360.151,579.85-359.995,579.828Z" transform="translate(-247.422 -45.452)" fill="#f3f9ff"/>
    <path id="Trazado_169733" data-name="Trazado 169733" d="M-578.291,799.679l4.352,4.325c-1.891.947-3.764,1.877-5.628,2.825-.266.136-.376-.015-.539-.149-1.2-.995-1.206-.993-.492-2.416Q-579.446,801.972-578.291,799.679Z" transform="translate(-83.166 -211.995)" fill="#dee4f0"/>
    <path id="Trazado_169734" data-name="Trazado 169734" d="M-631.779,552.479h-21.228c-1.492,0-1.948-.453-1.949-1.931,0-1.693-.006-3.386,0-5.08.006-1.174.533-1.7,1.724-1.7q21.5,0,43,0c1.187,0,1.716.526,1.722,1.7q.012,2.63,0,5.261c0,1.228-.526,1.743-1.772,1.744Q-621.029,552.481-631.779,552.479Zm.038-5.806h-18.4c-1.913,0-1.867,0-1.922,1.924-.023.806.2.987.991.985q18.852-.041,37.7-.019c1.959,0,1.918,0,1.978-1.983.023-.781-.225-.928-.957-.924C-618.81,546.686-625.276,546.673-631.741,546.673Z" transform="translate(-27.202 -18.137)" fill="#060707"/>
    <path id="Trazado_169735" data-name="Trazado 169735" d="M-609.082,623.588a15.956,15.956,0,0,1-15.932-16.136,15.958,15.958,0,0,1,16.181-15.793A15.97,15.97,0,0,1-593.08,607.7,15.967,15.967,0,0,1-609.082,623.588Zm-13.032-15.948a13.107,13.107,0,0,0,13.034,13.045,13.13,13.13,0,0,0,13.1-12.991,13.128,13.128,0,0,0-12.951-13.138A13.107,13.107,0,0,0-622.114,607.64Z" transform="translate(-49.886 -54.414)" fill="#060707"/>
    <path id="Trazado_169736" data-name="Trazado 169736" d="M-660.519,845.917c-1.964,0-3.928-.012-5.892.009-.449.005-.613-.082-.626-.583-.062-2.33-.081-2.329,2.225-2.329,3.354,0,6.708.016,10.062-.015.607-.005.82.106.811.771-.029,2.147,0,2.147-2.138,2.147Z" transform="translate(-18.039 -244.811)" fill="#060707"/>
    <path id="Trazado_169737" data-name="Trazado 169737" d="M-622.7,555.69c6.465,0,12.931.013,19.4-.017.732,0,.98.143.957.924-.06,1.982-.019,1.983-1.978,1.983q-18.852,0-37.7.019c-.794,0-1.014-.18-.991-.985.055-1.922.009-1.924,1.922-1.924Z" transform="translate(-36.246 -27.154)" fill="#ff9800"/>
    <path id="Trazado_169738" data-name="Trazado 169738" d="M-613.055,616.694a13.107,13.107,0,0,1,13.18-13.083,13.128,13.128,0,0,1,12.951,13.138,13.13,13.13,0,0,1-13.1,12.991A13.107,13.107,0,0,1-613.055,616.694Zm23.228-2.891a1.652,1.652,0,0,0-.607-1.262c-.814-.81-1.62-1.628-2.439-2.434-.974-.959-1.663-.951-2.63.016-1.9,1.9-3.794,3.815-5.709,5.7-.551.544-1.032,1.518-1.7,1.479-.572-.034-1.093-.936-1.637-1.454l-.066-.062a1.483,1.483,0,0,0-2.37.025q-1.3,1.264-2.565,2.564a1.461,1.461,0,0,0-.034,2.364q2.738,2.776,5.514,5.514a1.465,1.465,0,0,0,2.367,0q5.658-5.627,11.293-11.277A1.644,1.644,0,0,0-589.827,613.8Z" transform="translate(-58.945 -63.468)" fill="#c1b6a7"/>
    <path id="Trazado_169739" data-name="Trazado 169739" d="M-580.819,631.872a1.648,1.648,0,0,1-.587,1.18q-5.645,5.64-11.293,11.277a1.465,1.465,0,0,1-2.367,0q-2.773-2.74-5.514-5.514a1.461,1.461,0,0,1,.034-2.364q1.266-1.3,2.565-2.564a1.483,1.483,0,0,1,2.37-.025l.066.062c.544.518,1.065,1.421,1.637,1.454.671.039,1.152-.935,1.7-1.479,1.915-1.889,3.807-3.8,5.709-5.7.966-.967,1.656-.975,2.63-.016.818.806,1.625,1.624,2.439,2.434A1.655,1.655,0,0,1-580.819,631.872Zm-3.638-.142a3.535,3.535,0,0,0-.6-.558c-.287-.17-.415.158-.569.311q-3.371,3.352-6.728,6.717c-1.266,1.264-1.788,1.258-3.078-.031-.3-.3-.613-.583-.893-.9s-.5-.451-.865-.064c-.319.336-.359.531-.005.869q1.474,1.406,2.882,2.88c.324.338.521.356.863.011q4.334-4.373,8.7-8.716C-584.636,632.127-584.457,632.033-584.458,631.73Z" transform="translate(-67.952 -81.535)" fill="#060707"/>
    <path id="Trazado_169740" data-name="Trazado 169740" d="M-572.852,643.176c0,.3-.178.4-.3.519q-4.35,4.358-8.7,8.716c-.342.345-.539.328-.863-.011q-1.41-1.471-2.882-2.88c-.354-.338-.314-.533.005-.869.367-.387.584-.253.865.064s.594.6.893.9c1.29,1.289,1.812,1.295,3.078.031q3.363-3.36,6.728-6.717c.154-.153.282-.481.569-.311A3.54,3.54,0,0,1-572.852,643.176Z" transform="translate(-79.557 -92.981)" fill="#ff9800"/>
  </g>
</svg>
