<svg xmlns="http://www.w3.org/2000/svg" width="99.785" height="100" viewBox="0 0 99.785 100">
  <g id="presupuesto" transform="translate(-0.549)">
    <path id="Trazado_148125" data-name="Trazado 148125" d="M164.592,24.974V83.983c0,.118,0,.236-.008.354a7.619,7.619,0,0,1-7.611,7.263H114.142a7.618,7.618,0,0,1-7.619-7.617V15.663a7.607,7.607,0,0,1,7.619-7.619h34.022a7.594,7.594,0,0,1,3.309.758c2.058.991,2.638,2.242,6.337,6.024,4.255,4.621,5.271,5.094,6.138,7.095A7.535,7.535,0,0,1,164.592,24.974Z" transform="translate(-85.276 -6.473)" fill="#f3f9ff"/>
    <path id="Trazado_148127" data-name="Trazado 148127" d="M299.925,185.663V228.5a10.767,10.767,0,0,1-10.767,10.767H261.181A10.767,10.767,0,0,1,250.414,228.5V185.663A10.762,10.762,0,0,1,261.181,174.9h27.978A10.766,10.766,0,0,1,299.925,185.663Z" transform="translate(-201.063 -140.737)" fill="#ffee58"/>
    <path id="Trazado_148128" data-name="Trazado 148128" d="M318.265,185.663V228.5a10.71,10.71,0,0,1-2.085,6.368,10.722,10.722,0,0,1-4.23.864H283.973a10.767,10.767,0,0,1-10.767-10.767V182.128a10.71,10.71,0,0,1,2.085-6.368,10.722,10.722,0,0,1,4.23-.864H307.5A10.766,10.766,0,0,1,318.265,185.663Z" transform="translate(-219.404 -140.737)" fill="#ffee58"/>
    <path id="Trazado_148129" data-name="Trazado 148129" d="M364.29,367.579v5.031a1.609,1.609,0,0,1-1.608,1.61h-5.033a1.61,1.61,0,0,1-1.61-1.61v-5.031a1.61,1.61,0,0,1,1.61-1.61h5.033A1.609,1.609,0,0,1,364.29,367.579Z" transform="translate(-286.058 -294.491)" fill="#ffd494"/>
    <path id="Trazado_148130" data-name="Trazado 148130" d="M323.01,210.55v5.39a3.472,3.472,0,0,1-3.472,3.472h-27.77a3.473,3.473,0,0,1-3.472-3.472v-5.39a3.473,3.473,0,0,1,3.472-3.472h27.77A3.472,3.472,0,0,1,323.01,210.55Z" transform="translate(-231.547 -166.633)" fill="#d2e1f1"/>
    <g id="Grupo_85059" data-name="Grupo 85059" transform="translate(56.75 58.322)">
      <path id="Trazado_148132" data-name="Trazado 148132" d="M296.55,367.579v5.031a1.61,1.61,0,0,1-1.61,1.61h-5.033a1.611,1.611,0,0,1-1.61-1.61v-5.031a1.611,1.611,0,0,1,1.61-1.61h5.033A1.61,1.61,0,0,1,296.55,367.579Z" transform="translate(-288.297 -352.813)" fill="#ffd494"/>
      <path id="Trazado_148133" data-name="Trazado 148133" d="M364.29,300.218v5.031a1.61,1.61,0,0,1-1.608,1.61h-5.033a1.61,1.61,0,0,1-1.61-1.61v-5.031a1.61,1.61,0,0,1,1.61-1.61h5.033A1.61,1.61,0,0,1,364.29,300.218Z" transform="translate(-342.808 -298.608)" fill="#ffd494"/>
    </g>
    <path id="Trazado_148134" data-name="Trazado 148134" d="M432.847,300.218v5.031a1.61,1.61,0,0,1-1.61,1.61h-5.031a1.61,1.61,0,0,1-1.61-1.61v-5.031a1.61,1.61,0,0,1,1.61-1.61h5.031A1.61,1.61,0,0,1,432.847,300.218Z" transform="translate(-341.225 -240.286)" fill="#ff9800"/>
    <g id="Grupo_85060" data-name="Grupo 85060" transform="translate(56.75 58.322)">
      <path id="Trazado_148135" data-name="Trazado 148135" d="M296.55,300.218v5.031a1.61,1.61,0,0,1-1.61,1.61h-5.033a1.611,1.611,0,0,1-1.61-1.61v-5.031a1.611,1.611,0,0,1,1.61-1.61h5.033A1.61,1.61,0,0,1,296.55,300.218Z" transform="translate(-288.297 -298.608)" fill="#ffd494"/>
      <path id="Trazado_148136" data-name="Trazado 148136" d="M364.29,431.639v5.033a1.61,1.61,0,0,1-1.608,1.61h-5.033a1.61,1.61,0,0,1-1.61-1.61v-5.033a1.609,1.609,0,0,1,1.61-1.608h5.033A1.609,1.609,0,0,1,364.29,431.639Z" transform="translate(-342.808 -404.362)" fill="#ffd494"/>
      <path id="Trazado_148137" data-name="Trazado 148137" d="M296.55,431.639v5.033a1.61,1.61,0,0,1-1.61,1.61h-5.033a1.611,1.611,0,0,1-1.61-1.61v-5.033a1.611,1.611,0,0,1,1.61-1.608h5.033A1.609,1.609,0,0,1,296.55,431.639Z" transform="translate(-288.297 -404.362)" fill="#ffd494"/>
    </g>
    <path id="Trazado_148138" data-name="Trazado 148138" d="M432.847,368.36v15.625a2.746,2.746,0,0,1-2.745,2.747h-2.761a2.746,2.746,0,0,1-2.745-2.747V368.36a2.392,2.392,0,0,1,2.392-2.392h3.468A2.391,2.391,0,0,1,432.847,368.36Z" transform="translate(-341.225 -294.49)" fill="#ff9800"/>
    <path id="Trazado_148147" data-name="Trazado 148147" d="M349.137,25.043H339.59a2.929,2.929,0,0,1-2.929-2.929V11.924a7.609,7.609,0,0,1,2.258,1.66L343,17.948l4.669,4.886A7.543,7.543,0,0,1,349.137,25.043Z" transform="translate(-270.465 -9.595)" fill="#dee4f0"/>
    <path id="Trazado_148148" data-name="Trazado 148148" d="M99.774,465.382a3.741,3.741,0,0,1-3.731,3.731H73.187a3.731,3.731,0,0,1,0-7.462H96.044A3.742,3.742,0,0,1,99.774,465.382Z" transform="translate(-55.449 -371.485)" fill="#ffee58"/>
    <path id="Trazado_148149" data-name="Trazado 148149" d="M99.774,427.177a3.741,3.741,0,0,1-3.731,3.731H73.187a3.731,3.731,0,0,1,0-7.462H96.044A3.742,3.742,0,0,1,99.774,427.177Z" transform="translate(-55.449 -340.742)" fill="#ffee58"/>
    <path id="Trazado_148150" data-name="Trazado 148150" d="M99.774,388.973a3.741,3.741,0,0,1-3.731,3.731H73.187a3.731,3.731,0,0,1,0-7.462H96.044A3.742,3.742,0,0,1,99.774,388.973Z" transform="translate(-55.449 -309.999)" fill="#ffee58"/>
    <path id="Trazado_148151" data-name="Trazado 148151" d="M99.774,350.767a3.741,3.741,0,0,1-3.731,3.731H73.187a3.742,3.742,0,0,1-3.731-3.731,3.741,3.741,0,0,1,3.731-3.731H96.044A3.742,3.742,0,0,1,99.774,350.767Z" transform="translate(-55.449 -279.256)" fill="#ffee58"/>
    <path id="Trazado_148152" data-name="Trazado 148152" d="M96.043,316.3H73.187a3.742,3.742,0,0,1-3.731-3.731h0a3.742,3.742,0,0,1,3.731-3.731H96.043a3.742,3.742,0,0,1,3.731,3.731h0A3.742,3.742,0,0,1,96.043,316.3Z" transform="translate(-55.449 -248.515)" fill="#ffee58"/>
    <path id="Trazado_148153" data-name="Trazado 148153" d="M37.7,389.255A12.139,12.139,0,0,0,25.046,377.63H20.289c-10.785.468-15.812,13.9-7.553,21.23a12.114,12.114,0,0,0,8.593,3.059h3.717v0c.339.014.681.017,1.027,0a12.352,12.352,0,0,0,2.258-.308A12.156,12.156,0,0,0,37.7,390.213V390.2C37.711,389.887,37.711,389.573,37.7,389.255Z" transform="translate(-6.497 -303.865)" fill="#ffee58"/>
    <path id="Trazado_148155" data-name="Trazado 148155" d="M88.1,32.687H80.887V18.5a9.213,9.213,0,0,0-2.547-6.348L73.682,7.279C69.729,3.206,69.231,2.056,66.876.913A9.211,9.211,0,0,0,62.888,0H28.866a9.2,9.2,0,0,0-9.19,9.19V58.748H17.738a5.3,5.3,0,0,0-3.762,9.033,5.282,5.282,0,0,0-1.539,3.731,5.439,5.439,0,0,0,.1,1.049,13.365,13.365,0,0,0,1.91,26.648l26.144-.01a5.3,5.3,0,0,0,3.762-9.033A5.274,5.274,0,0,0,45.889,86.7h1.989v1.062A12.253,12.253,0,0,0,60.117,100H88.1a12.253,12.253,0,0,0,12.239-12.239V44.926A12.253,12.253,0,0,0,88.1,32.687ZM67.768,5.555c6.17,6.521,7.56,7.992,7.821,8.269,0,0,0,0,0,0h0a.043.043,0,0,0,.008.01l0,0a.033.033,0,0,0,.012.012.027.027,0,0,1,.006.008s0,0,0,0,0,0,.006.006.006.006.008.008H67.767V5.555ZM17.738,61.89H40.595a2.16,2.16,0,1,1,0,4.32H17.738a2.16,2.16,0,1,1,0-4.32Zm0,7.462H40.595a2.16,2.16,0,1,1,0,4.32H24.807a12.794,12.794,0,0,0-1.989-.719,13.243,13.243,0,0,0-3.142-.462c-.308-.008-.617-.006-.925.008H15.82a2.124,2.124,0,0,1-.242-.988A2.164,2.164,0,0,1,17.738,69.352Zm25.017,9.622a2.163,2.163,0,0,1-2.16,2.16H31.8a13.214,13.214,0,0,0-2.667-4.32H40.595A2.164,2.164,0,0,1,42.755,78.973ZM10.1,76.154a13.555,13.555,0,0,0-2.474,3.173H5.791A10.374,10.374,0,0,1,10.1,76.154ZM4.12,82.272H6.408a13.561,13.561,0,0,0-.428,2.354H3.563A10.322,10.322,0,0,1,4.12,82.272Zm.253,7.786a10.3,10.3,0,0,1-.738-2.486h2.4A11.854,11.854,0,0,0,6.6,90.058ZM6.333,93c.964,0,1.524,0,1.655,0A13.266,13.266,0,0,0,10.1,95.556,10.378,10.378,0,0,1,6.333,93Zm13.4,3.262a10.421,10.421,0,1,1,6.6-18.087A10.412,10.412,0,0,1,19.737,96.265Zm20.858-.208H27.916a13.457,13.457,0,0,0,3.375-4.32h9.3a2.16,2.16,0,0,1,0,4.32ZM42.737,86.7a2.161,2.161,0,0,1-2.142,1.9h-8.22a13.5,13.5,0,0,0,.19-4.32h8.029A2.162,2.162,0,0,1,42.737,86.7Zm5.141-3.142H45.042a5.212,5.212,0,0,0-.685-.852,5.29,5.29,0,0,0,0-7.462,5.291,5.291,0,0,0,0-7.462,5.306,5.306,0,0,0-3.762-9.033H22.818V9.19a6.056,6.056,0,0,1,6.048-6.048h35.76V15.448A1.57,1.57,0,0,0,66.2,17.019H77.558c.328,1.272.126.852.187,15.668H60.117A12.253,12.253,0,0,0,47.878,44.926V83.556Zm49.511,4.2A9.3,9.3,0,0,1,88.1,97.055H60.117a9.305,9.305,0,0,1-9.294-9.294V44.926a9.305,9.305,0,0,1,9.294-9.294H88.1a9.3,9.3,0,0,1,9.294,9.294V87.761Z" transform="translate(0)"/>
    <path id="Trazado_148156" data-name="Trazado 148156" d="M291.044,211.872H285.7a2,2,0,0,1-2-2v-5.39a2,2,0,0,1,2-2h27.77a2,2,0,0,1,2,2v5.39a2,2,0,0,1-2,2H297.395a1.473,1.473,0,0,0,0,2.945h16.076a4.95,4.95,0,0,0,4.944-4.944v-5.39a4.95,4.95,0,0,0-4.944-4.944H285.7a4.944,4.944,0,0,0-4.944,4.944v5.39a4.944,4.944,0,0,0,4.944,4.944h5.343a1.473,1.473,0,1,0,0-2.945Z" transform="translate(-225.48 -160.566)"/>
    <path id="Trazado_148157" data-name="Trazado 148157" d="M283.84,369.625h5.033a3.086,3.086,0,0,0,3.083-3.083v-5.031a3.086,3.086,0,0,0-3.083-3.083H283.84a3.087,3.087,0,0,0-3.083,3.083v5.031A3.087,3.087,0,0,0,283.84,369.625Zm-.138-8.114a.138.138,0,0,1,.138-.137h5.033a.138.138,0,0,1,.138.137v5.031a.138.138,0,0,1-.138.138H283.84a.138.138,0,0,1-.138-.138Z" transform="translate(-225.48 -288.423)"/>
    <path id="Trazado_148158" data-name="Trazado 148158" d="M425.17,291.068h-5.031a3.085,3.085,0,0,0-3.083,3.083v5.031a3.085,3.085,0,0,0,3.083,3.083h5.031a3.086,3.086,0,0,0,3.083-3.083v-5.031A3.086,3.086,0,0,0,425.17,291.068Zm.138,8.114a.137.137,0,0,1-.138.137h-5.031a.138.138,0,0,1-.138-.137c.061-4.978-.128-5.168.138-5.168h5.031a.137.137,0,0,1,.138.138Z" transform="translate(-335.158 -234.219)"/>
    <path id="Trazado_148159" data-name="Trazado 148159" d="M283.84,302.264h5.033a3.086,3.086,0,0,0,3.083-3.083v-5.031a3.086,3.086,0,0,0-3.083-3.083H283.84a3.087,3.087,0,0,0-3.083,3.083v5.031A3.087,3.087,0,0,0,283.84,302.264Zm-.138-8.114a.138.138,0,0,1,.138-.137h5.033a.138.138,0,0,1,.138.137v5.031a.138.138,0,0,1-.138.137H283.84a.138.138,0,0,1-.138-.137Z" transform="translate(-225.48 -234.219)"/>
    <path id="Trazado_148160" data-name="Trazado 148160" d="M291.158,423.53a3.081,3.081,0,0,0-2.307-1.039h-5.033a3.074,3.074,0,0,0-2.305,1.039,4.213,4.213,0,0,0-.778,3.142V430.6a3.087,3.087,0,0,0,3.083,3.083h5.033a3.086,3.086,0,0,0,3.083-3.083v-3.933A4.248,4.248,0,0,0,291.158,423.53Zm-2.307,7.213c-4.972-.061-5.17.128-5.17-.138,0-5.327-.059-5.168.137-5.168h5.033c.242,0,.092.336.137,1.235C288.988,426.672,289.116,430.742,288.851,430.742Z" transform="translate(-225.458 -339.973)"/>
    <path id="Trazado_148161" data-name="Trazado 148161" d="M424.387,358.428h-3.468a3.869,3.869,0,0,0-3.864,3.864v15.625a4.224,4.224,0,0,0,4.218,4.22h2.761a4.223,4.223,0,0,0,4.218-4.22V362.292A3.868,3.868,0,0,0,424.387,358.428Zm.919,19.489a1.274,1.274,0,0,1-1.272,1.274h-2.761A1.275,1.275,0,0,1,420,377.917V362.292a.92.92,0,0,1,.919-.919h3.468a.92.92,0,0,1,.919.919v15.625Z" transform="translate(-335.157 -288.423)"/>
    <path id="Trazado_148162" data-name="Trazado 148162" d="M168.945,177.393h0c-1.8-.66-3.093-1.136-3.093-2.8,0-1.516,1.007-2.285,2.993-2.285,2.108,0,2.676.928,3.418.928a1.414,1.414,0,0,0,1.255-1.451c0-1.227-2-1.835-3.79-2v-1.106a1.4,1.4,0,0,0-2.791,0v1.283a4.564,4.564,0,0,0-3.79,4.774c0,3.428,2.523,4.376,4.552,5.138,1.986.746,3.554,1.336,3.554,3.6,0,1.872-1.04,2.822-3.091,2.822-3,0-3.03-2.027-4.175-2.027a1.472,1.472,0,0,0-1.28,1.451c0,1.161,1.728,2.686,4.23,3.082v1.069a1.4,1.4,0,0,0,2.791,0v-1.1c2.691-.506,4.23-2.482,4.23-5.446C173.958,179.235,171.179,178.214,168.945,177.393Z" transform="translate(-130.486 -134.615)"/>
    <path id="Trazado_148163" data-name="Trazado 148163" d="M356.595,422.491h-5.033a3.081,3.081,0,0,0-2.307,1.039,4.229,4.229,0,0,0-.776,3.142V430.6a3.086,3.086,0,0,0,3.083,3.083h5.033a3.085,3.085,0,0,0,3.081-3.083v-5.033a3.086,3.086,0,0,0-3.081-3.081Zm0,8.251c-4.972-.061-5.17.128-5.17-.138v-5.033a.138.138,0,0,1,.137-.136h5.033a.136.136,0,0,1,.136.136C356.671,430.556,356.856,430.742,356.595,430.742Z" transform="translate(-279.971 -339.973)"/>
    <path id="Trazado_148164" data-name="Trazado 148164" d="M356.615,291.068h-5.033a3.086,3.086,0,0,0-3.083,3.083v5.031a3.086,3.086,0,0,0,3.083,3.083h5.033a3.036,3.036,0,0,0,1.121-.212,3.087,3.087,0,0,0,1.96-2.871v-5.031A3.087,3.087,0,0,0,356.615,291.068Zm.136,8.114a.136.136,0,0,1-.136.137h-5.033a.138.138,0,0,1-.138-.137v-5.031c0-.265.183-.079,5.17-.138a.136.136,0,0,1,.136.138v5.031Z" transform="translate(-279.991 -234.219)"/>
    <path id="Trazado_148165" data-name="Trazado 148165" d="M357.736,358.64a3.036,3.036,0,0,0-1.121-.212h-5.033a3.086,3.086,0,0,0-3.083,3.083v5.031a3.086,3.086,0,0,0,3.083,3.083h5.033a3.085,3.085,0,0,0,3.081-3.083v-5.031A3.086,3.086,0,0,0,357.736,358.64Zm-.986,7.9a.136.136,0,0,1-.136.138h-5.033a.138.138,0,0,1-.138-.138v-5.031a.138.138,0,0,1,.138-.138h5.033a.136.136,0,0,1,.136.138Z" transform="translate(-279.991 -288.423)"/>
    <path id="Trazado_148166" data-name="Trazado 148166" d="M321.52,105.987h3.7a1.473,1.473,0,0,0,0-2.945h-3.7a1.473,1.473,0,0,0,0,2.945Z" transform="translate(-257.096 -82.917)"/>
    <path id="Trazado_148167" data-name="Trazado 148167" d="M157.643,105.987h26.116a1.473,1.473,0,0,0,0-2.945H157.643a1.473,1.473,0,0,0,0,2.945Z" transform="translate(-125.226 -82.917)"/>
    <path id="Trazado_148168" data-name="Trazado 148168" d="M162.324,143.417a1.473,1.473,0,0,0,0-2.945h-4.681a1.473,1.473,0,0,0,0,2.945Z" transform="translate(-125.226 -113.036)"/>
    <path id="Trazado_148169" data-name="Trazado 148169" d="M238.379,141.945a1.473,1.473,0,0,0-1.473-1.473H211.772a1.473,1.473,0,0,0,0,2.945h25.135A1.473,1.473,0,0,0,238.379,141.945Z" transform="translate(-168.783 -113.036)"/>
    <path id="Trazado_148170" data-name="Trazado 148170" d="M80.567,403.383c0-.37.136-.476.264-.547a2.531,2.531,0,0,1,2.135.144,1.684,1.684,0,0,0,.8.242c1.453,0,2.6-2.7-.868-3.3v-.093a1.492,1.492,0,0,0-2.985,0v.283a3.349,3.349,0,0,0-2.276,3.354c0,2.512,1.825,3.2,3.158,3.7,1.271.478,1.71.687,1.71,1.551,0,.54-.146,1.041-1.2,1.041-1.539,0-1.355-1.217-2.507-1.217a1.539,1.539,0,0,0-1.423,1.525c0,1.02,1.061,1.989,2.541,2.381v.112a1.492,1.492,0,0,0,2.985,0v-.151a3.69,3.69,0,0,0,2.54-3.779C85.435,404.157,80.567,404.829,80.567,403.383Z" transform="translate(-61.816 -320.541)"/>
  </g>
</svg>
