<svg xmlns="http://www.w3.org/2000/svg" xmlns:xlink="http://www.w3.org/1999/xlink" width="317.5" height="380" viewBox="0 0 317.5 380">
  <defs>
    <clipPath id="clip-path">
      <ellipse id="Elipse_4227" data-name="Elipse 4227" cx="10.5" cy="10" rx="10.5" ry="10" transform="translate(0.005 0.003)" fill="#fff" stroke="#707070" stroke-width="1"/>
    </clipPath>
    <clipPath id="clip-path-2">
      <circle id="Elipse_4228" data-name="Elipse 4228" cx="10.483" cy="10.483" r="10.483" transform="translate(0)" fill="#fff" stroke="#707070" stroke-width="1"/>
    </clipPath>
  </defs>
  <g id="Grupo_110847" data-name="Grupo 110847" transform="translate(-305.998 -1110.5)">
    <path id="Trazado_149385" data-name="Trazado 149385" d="M158.75,0A158.75,158.75,0,1,1,0,158.75,158.75,158.75,0,0,1,158.75,0Z" transform="translate(305.998 1111.549)" fill="#ffc571" opacity="0.246"/>
    <g id="Grupo_85445" data-name="Grupo 85445" transform="translate(343.306 1127.979)">
      <g id="Grupo_85443" data-name="Grupo 85443">
        <path id="Trazado_148928" data-name="Trazado 148928" d="M103.482,95.448a12.746,12.746,0,0,0,20.347,10.237l6.247,1.594-2.6-5.816a12.751,12.751,0,1,0-23.994-6.015Z" transform="translate(-103.482 -82.697)" fill="#f6f6f6" stroke="#263238" stroke-miterlimit="10" stroke-width="1"/>
      </g>
    </g>
    <path id="Trazado_148930" data-name="Trazado 148930" d="M382.825,76.132a12.746,12.746,0,0,1-20.347,10.237l-6.247,1.595,2.6-5.817a12.751,12.751,0,1,1,23.994-6.015Z" transform="translate(204.866 1054.387)" fill="#fff" stroke="#263238" stroke-miterlimit="10" stroke-width="1"/>
    <g id="Enmascarar_grupo_26" data-name="Enmascarar grupo 26" transform="translate(345.993 1130.996)" clip-path="url(#clip-path)">
      <g id="Grupo_85493" data-name="Grupo 85493" transform="translate(-2.326 -0.658)">
        <g id="Grupo_85481" data-name="Grupo 85481" transform="translate(0 1.741)">
          <rect id="Rectángulo_32734" data-name="Rectángulo 32734" width="43.12" height="1.43" transform="translate(0 17.096)" fill="#fff"/>
          <rect id="Rectángulo_32735" data-name="Rectángulo 32735" width="43.12" height="1.741" transform="translate(0 13.926)" fill="#fff"/>
          <rect id="Rectángulo_32736" data-name="Rectángulo 32736" width="43.12" height="1.741" transform="translate(0 10.444)" fill="#fff"/>
          <rect id="Rectángulo_32737" data-name="Rectángulo 32737" width="43.12" height="1.741" transform="translate(0 6.963)" fill="#fff"/>
          <rect id="Rectángulo_32738" data-name="Rectángulo 32738" width="43.12" height="1.741" transform="translate(0 3.481)" fill="#fff"/>
          <rect id="Rectángulo_32739" data-name="Rectángulo 32739" width="43.12" height="1.741" fill="#fff"/>
        </g>
        <g id="Grupo_85482" data-name="Grupo 85482" transform="translate(0 0)">
          <rect id="Rectángulo_32740" data-name="Rectángulo 32740" width="43.12" height="1.43" transform="translate(0 20.267)" fill="red"/>
          <rect id="Rectángulo_32741" data-name="Rectángulo 32741" width="43.12" height="1.43" transform="translate(0 17.407)" fill="red"/>
          <rect id="Rectángulo_32742" data-name="Rectángulo 32742" width="43.12" height="1.741" transform="translate(0 13.926)" fill="red"/>
          <rect id="Rectángulo_32743" data-name="Rectángulo 32743" width="43.12" height="1.741" transform="translate(0 10.444)" fill="red"/>
          <rect id="Rectángulo_32744" data-name="Rectángulo 32744" width="43.12" height="1.741" transform="translate(0 6.963)" fill="red"/>
          <rect id="Rectángulo_32745" data-name="Rectángulo 32745" width="43.12" height="1.741" transform="translate(0 3.481)" fill="red"/>
          <rect id="Rectángulo_32746" data-name="Rectángulo 32746" width="43.12" height="1.741" fill="red"/>
        </g>
        <rect id="Rectángulo_32747" data-name="Rectángulo 32747" width="14.516" height="12.185" transform="translate(0 0)" fill="#4d59a1"/>
        <g id="Grupo_85492" data-name="Grupo 85492" transform="translate(0.776 0.137)">
          <g id="Grupo_85483" data-name="Grupo 85483" transform="translate(0.014)">
            <path id="Trazado_149038" data-name="Trazado 149038" d="M342.459-530.891l.126.382h.406l-.329.236.126.382-.329-.236-.329.236.126-.382-.329-.236h.406Z" transform="translate(-341.927 530.891)" fill="#fff"/>
            <path id="Trazado_149039" data-name="Trazado 149039" d="M349.491-530.891l.126.382h.406l-.329.236.126.382-.329-.236-.329.236.126-.382-.329-.236h.406Z" transform="translate(-346.669 530.891)" fill="#fff"/>
            <path id="Trazado_149040" data-name="Trazado 149040" d="M356.522-530.891l.126.382h.406l-.329.236.126.382-.329-.236-.329.236.126-.382-.329-.236h.406Z" transform="translate(-351.411 530.891)" fill="#fff"/>
            <path id="Trazado_149041" data-name="Trazado 149041" d="M363.554-530.891l.126.382h.406l-.329.236.126.382-.329-.236-.329.236.126-.382-.329-.236h.406Z" transform="translate(-356.152 530.891)" fill="#fff"/>
            <path id="Trazado_149042" data-name="Trazado 149042" d="M370.586-530.891l.126.382h.406l-.329.236.126.382-.329-.236-.329.236.126-.382-.329-.236h.406Z" transform="translate(-360.894 530.891)" fill="#fff"/>
            <path id="Trazado_149043" data-name="Trazado 149043" d="M377.617-530.891l.126.382h.406l-.329.236.126.382-.329-.236-.329.236.126-.382-.329-.236h.406Z" transform="translate(-365.636 530.891)" fill="#fff"/>
          </g>
          <g id="Grupo_85484" data-name="Grupo 85484" transform="translate(0 2.671)">
            <path id="Trazado_149044" data-name="Trazado 149044" d="M342.416-522.691l.126.382h.406l-.329.236.126.381-.329-.236-.329.236.126-.381-.329-.236h.406Z" transform="translate(-341.884 522.691)" fill="#fff"/>
            <path id="Trazado_149045" data-name="Trazado 149045" d="M349.447-522.691l.126.382h.407l-.329.236.126.381-.329-.236-.329.236.126-.381-.329-.236h.406Z" transform="translate(-346.625 522.691)" fill="#fff"/>
            <path id="Trazado_149046" data-name="Trazado 149046" d="M356.479-522.691l.126.382h.406l-.329.236.126.381-.329-.236-.329.236.126-.381-.329-.236h.406Z" transform="translate(-351.367 522.691)" fill="#fff"/>
            <path id="Trazado_149047" data-name="Trazado 149047" d="M363.511-522.691l.126.382h.407l-.329.236.126.381-.329-.236-.329.236.126-.381-.329-.236h.407Z" transform="translate(-356.109 522.691)" fill="#fff"/>
            <path id="Trazado_149048" data-name="Trazado 149048" d="M370.542-522.691l.126.382h.406l-.329.236.126.381-.329-.236-.329.236.126-.381-.329-.236h.406Z" transform="translate(-360.851 522.691)" fill="#fff"/>
            <path id="Trazado_149049" data-name="Trazado 149049" d="M377.574-522.691l.126.382h.406l-.329.236.126.381-.329-.236-.329.236.126-.381-.329-.236h.406Z" transform="translate(-365.592 522.691)" fill="#fff"/>
          </g>
          <g id="Grupo_85485" data-name="Grupo 85485" transform="translate(0 5.456)">
            <path id="Trazado_149050" data-name="Trazado 149050" d="M342.416-514.138l.126.382h.406l-.329.236.126.382-.329-.236-.329.236.126-.382-.329-.236h.406Z" transform="translate(-341.884 514.138)" fill="#fff"/>
            <path id="Trazado_149051" data-name="Trazado 149051" d="M349.447-514.138l.126.382h.407l-.329.236.126.382-.329-.236-.329.236.126-.382-.329-.236h.406Z" transform="translate(-346.625 514.138)" fill="#fff"/>
            <path id="Trazado_149052" data-name="Trazado 149052" d="M356.479-514.138l.126.382h.406l-.329.236.126.382-.329-.236-.329.236.126-.382-.329-.236h.406Z" transform="translate(-351.367 514.138)" fill="#fff"/>
            <path id="Trazado_149053" data-name="Trazado 149053" d="M363.511-514.138l.126.382h.407l-.329.236.126.382-.329-.236-.329.236.126-.382-.329-.236h.407Z" transform="translate(-356.109 514.138)" fill="#fff"/>
            <path id="Trazado_149054" data-name="Trazado 149054" d="M370.542-514.138l.126.382h.406l-.329.236.126.382-.329-.236-.329.236.126-.382-.329-.236h.406Z" transform="translate(-360.851 514.138)" fill="#fff"/>
            <path id="Trazado_149055" data-name="Trazado 149055" d="M377.574-514.138l.126.382h.406l-.329.236.126.382-.329-.236-.329.236.126-.382-.329-.236h.406Z" transform="translate(-365.592 514.138)" fill="#fff"/>
          </g>
          <g id="Grupo_85486" data-name="Grupo 85486" transform="translate(0 8.278)">
            <path id="Trazado_149056" data-name="Trazado 149056" d="M342.416-505.471l.126.382h.406l-.329.236.126.382-.329-.236-.329.236.126-.382-.329-.236h.406Z" transform="translate(-341.884 505.471)" fill="#fff"/>
            <path id="Trazado_149057" data-name="Trazado 149057" d="M349.447-505.471l.126.382h.407l-.329.236.126.382-.329-.236-.329.236.126-.382-.329-.236h.406Z" transform="translate(-346.625 505.471)" fill="#fff"/>
            <path id="Trazado_149058" data-name="Trazado 149058" d="M356.479-505.471l.126.382h.406l-.329.236.126.382-.329-.236-.329.236.126-.382-.329-.236h.406Z" transform="translate(-351.367 505.471)" fill="#fff"/>
            <path id="Trazado_149059" data-name="Trazado 149059" d="M363.511-505.471l.126.382h.407l-.329.236.126.382-.329-.236-.329.236.126-.382-.329-.236h.407Z" transform="translate(-356.109 505.471)" fill="#fff"/>
            <path id="Trazado_149060" data-name="Trazado 149060" d="M370.542-505.471l.126.382h.406l-.329.236.126.382-.329-.236-.329.236.126-.382-.329-.236h.406Z" transform="translate(-360.851 505.471)" fill="#fff"/>
            <path id="Trazado_149061" data-name="Trazado 149061" d="M377.574-505.471l.126.382h.406l-.329.236.126.382-.329-.236-.329.236.126-.382-.329-.236h.406Z" transform="translate(-365.592 505.471)" fill="#fff"/>
          </g>
          <g id="Grupo_85487" data-name="Grupo 85487" transform="translate(0 10.438)">
            <path id="Trazado_149062" data-name="Trazado 149062" d="M342.416-498.84l.126.382h.406l-.329.236.126.382-.329-.236-.329.236.126-.382-.329-.236h.406Z" transform="translate(-341.884 498.84)" fill="#fff"/>
            <path id="Trazado_149063" data-name="Trazado 149063" d="M349.447-498.84l.126.382h.407l-.329.236.126.382-.329-.236-.329.236.126-.382-.329-.236h.406Z" transform="translate(-346.625 498.84)" fill="#fff"/>
            <path id="Trazado_149064" data-name="Trazado 149064" d="M356.479-498.84l.126.382h.406l-.329.236.126.382-.329-.236-.329.236.126-.382-.329-.236h.406Z" transform="translate(-351.367 498.84)" fill="#fff"/>
            <path id="Trazado_149065" data-name="Trazado 149065" d="M363.511-498.84l.126.382h.407l-.329.236.126.382-.329-.236-.329.236.126-.382-.329-.236h.407Z" transform="translate(-356.109 498.84)" fill="#fff"/>
            <path id="Trazado_149066" data-name="Trazado 149066" d="M370.542-498.84l.126.382h.406l-.329.236.126.382-.329-.236-.329.236.126-.382-.329-.236h.406Z" transform="translate(-360.851 498.84)" fill="#fff"/>
            <path id="Trazado_149067" data-name="Trazado 149067" d="M377.574-498.84l.126.382h.406l-.329.236.126.382-.329-.236-.329.236.126-.382-.329-.236h.406Z" transform="translate(-365.592 498.84)" fill="#fff"/>
          </g>
          <g id="Grupo_85488" data-name="Grupo 85488" transform="translate(1.156 1.35)">
            <path id="Trazado_149068" data-name="Trazado 149068" d="M345.966-526.745l.126.382h.406l-.329.236.125.381-.329-.236-.329.236.126-.381-.329-.236h.406Z" transform="translate(-345.434 526.745)" fill="#fff"/>
            <path id="Trazado_149069" data-name="Trazado 149069" d="M352.981-526.745l.126.382h.406l-.329.236.126.381-.329-.236-.329.236.126-.381-.329-.236h.407Z" transform="translate(-350.164 526.745)" fill="#fff"/>
            <path id="Trazado_149070" data-name="Trazado 149070" d="M359.995-526.745l.126.382h.406l-.329.236.126.381-.329-.236-.329.236.126-.381-.329-.236h.406Z" transform="translate(-354.894 526.745)" fill="#fff"/>
            <path id="Trazado_149071" data-name="Trazado 149071" d="M367.009-526.745l.126.382h.406l-.329.236.126.381-.329-.236-.329.236.126-.381-.329-.236h.406Z" transform="translate(-359.624 526.745)" fill="#fff"/>
            <path id="Trazado_149072" data-name="Trazado 149072" d="M374.024-526.745l.126.382h.406l-.329.236.126.381-.329-.236-.329.236.126-.381-.329-.236h.406Z" transform="translate(-364.354 526.745)" fill="#fff"/>
          </g>
          <g id="Grupo_85489" data-name="Grupo 85489" transform="translate(1.156 4.086)">
            <path id="Trazado_149073" data-name="Trazado 149073" d="M345.966-518.344l.126.382h.406l-.329.236.125.382-.329-.236-.329.236.126-.382-.329-.236h.406Z" transform="translate(-345.434 518.344)" fill="#fff"/>
            <path id="Trazado_149074" data-name="Trazado 149074" d="M352.981-518.344l.126.382h.406l-.329.236.126.382-.329-.236-.329.236.126-.382-.329-.236h.407Z" transform="translate(-350.164 518.344)" fill="#fff"/>
            <path id="Trazado_149075" data-name="Trazado 149075" d="M359.995-518.344l.126.382h.406l-.329.236.126.382-.329-.236-.329.236.126-.382-.329-.236h.406Z" transform="translate(-354.894 518.344)" fill="#fff"/>
            <path id="Trazado_149076" data-name="Trazado 149076" d="M367.009-518.344l.126.382h.406l-.329.236.126.382-.329-.236-.329.236.126-.382-.329-.236h.406Z" transform="translate(-359.624 518.344)" fill="#fff"/>
            <path id="Trazado_149077" data-name="Trazado 149077" d="M374.024-518.344l.126.382h.406l-.329.236.126.382-.329-.236-.329.236.126-.382-.329-.236h.406Z" transform="translate(-364.354 518.344)" fill="#fff"/>
          </g>
          <g id="Grupo_85490" data-name="Grupo 85490" transform="translate(1.156 6.796)">
            <path id="Trazado_149078" data-name="Trazado 149078" d="M345.966-510.024l.126.382h.406l-.329.236.125.382-.329-.236-.329.236.126-.382-.329-.236h.406Z" transform="translate(-345.434 510.024)" fill="#fff"/>
            <path id="Trazado_149079" data-name="Trazado 149079" d="M352.981-510.024l.126.382h.406l-.329.236.126.382-.329-.236-.329.236.126-.382-.329-.236h.407Z" transform="translate(-350.164 510.024)" fill="#fff"/>
            <path id="Trazado_149080" data-name="Trazado 149080" d="M359.995-510.024l.126.382h.406l-.329.236.126.382-.329-.236-.329.236.126-.382-.329-.236h.406Z" transform="translate(-354.894 510.024)" fill="#fff"/>
            <path id="Trazado_149081" data-name="Trazado 149081" d="M367.009-510.024l.126.382h.406l-.329.236.126.382-.329-.236-.329.236.126-.382-.329-.236h.406Z" transform="translate(-359.624 510.024)" fill="#fff"/>
            <path id="Trazado_149082" data-name="Trazado 149082" d="M374.024-510.024l.126.382h.406l-.329.236.126.382-.329-.236-.329.236.126-.382-.329-.236h.406Z" transform="translate(-364.354 510.024)" fill="#fff"/>
          </g>
          <g id="Grupo_85491" data-name="Grupo 85491" transform="translate(1.228 9.439)">
            <path id="Trazado_149083" data-name="Trazado 149083" d="M346.187-501.908l.126.382h.406l-.329.236.126.382-.329-.236-.329.236.126-.382-.329-.236h.406Z" transform="translate(-345.655 501.908)" fill="#fff"/>
            <path id="Trazado_149084" data-name="Trazado 149084" d="M353.2-501.908l.126.382h.406l-.329.236.126.382-.329-.236-.329.236.126-.382-.329-.236h.406Z" transform="translate(-350.385 501.908)" fill="#fff"/>
            <path id="Trazado_149085" data-name="Trazado 149085" d="M360.215-501.908l.126.382h.406l-.329.236.126.382-.329-.236-.329.236.126-.382-.329-.236h.406Z" transform="translate(-355.115 501.908)" fill="#fff"/>
            <path id="Trazado_149086" data-name="Trazado 149086" d="M367.23-501.908l.126.382h.406l-.329.236.126.382-.329-.236-.329.236.126-.382-.329-.236h.406Z" transform="translate(-359.845 501.908)" fill="#fff"/>
            <path id="Trazado_149087" data-name="Trazado 149087" d="M374.244-501.908l.126.382h.406l-.329.236.126.382-.329-.236-.329.236.126-.382-.329-.236h.406Z" transform="translate(-364.575 501.908)" fill="#fff"/>
          </g>
        </g>
      </g>
    </g>
    <g id="Grupo_85622" data-name="Grupo 85622" transform="translate(343.401 1111)">
      <g id="Grupo_85572" data-name="Grupo 85572" transform="translate(94.079 0)">
        <g id="Grupo_85569" data-name="Grupo 85569" transform="translate(0 25.922)">
          <g id="Grupo_85531" data-name="Grupo 85531" transform="translate(17.804 99.055)">
            <g id="Grupo_85529" data-name="Grupo 85529" transform="translate(0 0.232)">
              <g id="Grupo_85525" data-name="Grupo 85525">
                <g id="Grupo_85523" data-name="Grupo 85523" transform="translate(0 186.431)">
                  <path id="Trazado_149188" data-name="Trazado 149188" d="M84.209,453.305c2.257.738,66.673.138,69.109-1.444.936-.586,1.4-9.976,1.626-21.339,0-.119,0-.237,0-.356.052-2.341-2.843-41.622-2.843-41.622L110,388.817l3.151,34.419.235,6.853.022.705s-24.555,11.258-27.051,13.28C83.879,446.087,81.951,452.578,84.209,453.305Z" transform="translate(-83.204 -388.543)" fill="#ad6359"/>
                  <path id="Trazado_149189" data-name="Trazado 149189" d="M154.8,442.015c-.27,8.559-.714,14.967-1.486,15.449-2.432,1.573-66.852,2.181-69.11,1.438-2.259-.723-.329-7.218,2.151-9.225a95.773,95.773,0,0,1,10.065-5.288c-2.528,2.74-3.8,5.77,2.962,5.77C111.407,450.16,132.385,448.181,154.8,442.015Z" transform="translate(-83.203 -394.142)" fill="#23274c"/>
                </g>
                <g id="Grupo_85524" data-name="Grupo 85524" transform="translate(22.352)">
                  <path id="Trazado_149190" data-name="Trazado 149190" d="M116,407.7h41.563s-6.555-108.351-6.191-110.243c.463-2.424,3.2-13.391,6.848-27.718,1.143-4.483,2.375-9.291,3.656-14.277,3.459-13.48,7.272-28.211,10.592-41.031,4.986-19.205,8.878-34.123,8.878-34.123H142.028s-4.581,14.524-10.356,33.423c-9.41,30.714-21.983,72.987-23.225,83.264C106.438,313.591,116,407.7,116,407.7Z" transform="translate(-108.17 -180.31)" fill="#ad6359"/>
                </g>
              </g>
              <g id="Grupo_85528" data-name="Grupo 85528" transform="translate(50.014)">
                <g id="Grupo_85526" data-name="Grupo 85526" transform="translate(0 186.431)">
                  <path id="Trazado_149191" data-name="Trazado 149191" d="M140.071,453.305c2.257.738,66.673.138,69.109-1.444.936-.586,1.4-9.976,1.626-21.339,0-.119,0-.237,0-.356.053-2.341-1.976-41.622-1.976-41.622l-41.041.274,1.176,33.107.044,1.312.235,6.853.022.705s-24.554,11.258-27.051,13.28C139.741,446.087,137.813,452.578,140.071,453.305Z" transform="translate(-139.066 -388.543)" fill="#ad6359"/>
                  <path id="Trazado_149192" data-name="Trazado 149192" d="M210.663,442.015c-.27,8.559-.714,14.967-1.486,15.449-2.432,1.573-66.852,2.181-69.11,1.438-2.258-.723-.328-7.218,2.152-9.225a95.723,95.723,0,0,1,10.064-5.288c-2.528,2.74-3.8,5.77,2.963,5.77C167.269,450.16,188.248,448.181,210.663,442.015Z" transform="translate(-139.066 -394.142)" fill="#23274c"/>
                </g>
                <g id="Grupo_85527" data-name="Grupo 85527" transform="translate(7.469)">
                  <path id="Trazado_149193" data-name="Trazado 149193" d="M147.408,180.31s.907,18.81,5.212,33.71c.345,1.231.72,2.443,1.124,3.606a69.939,69.939,0,0,1,11.332,5.823s1.931,71.932,1.823,76.4c-.394,16.7,3.221,108.538,3.221,108.538l41.417.187s-4.553-102.557-4.494-108.676c.089-9.834-2.246-53.3-4.049-85a250.523,250.523,0,0,0-4.333-34.586Z" transform="translate(-147.408 -180.31)" fill="#ad6359"/>
                </g>
              </g>
            </g>
            <g id="Grupo_85530" data-name="Grupo 85530" transform="translate(20.136)">
              <path id="Trazado_149194" data-name="Trazado 149194" d="M141.769,180.283S109.794,279.1,107.911,291.126a196.483,196.483,0,0,0-2.217,19.883s27.8,13.985,46.729,13.508,52.517-7.995,52.517-7.995-5.23-99.206-5.347-100.249c-.111-1,6.962-12.2-3.708-36.223Z" transform="translate(-105.694 -180.051)" fill="#23274c"/>
              <path id="Trazado_149195" data-name="Trazado 149195" d="M158.016,261.644a126.11,126.11,0,0,0-6.911-20.282c-1.612-3.681-3.49-7.208-5.387-10.744-.043-.081-.158-.006-.119.073,1.57,3.216,2.928,6.557,4.237,9.888,1.28,3.259,2.5,6.544,3.593,9.87a183.387,183.387,0,0,1,5.532,20.481c.811,3.939,1.507,7.89,2.008,11.882.037.289.488.288.462-.012A137.512,137.512,0,0,0,158.016,261.644Z" transform="translate(-109.871 -185.342)" fill="#335991"/>
              <path id="Trazado_149196" data-name="Trazado 149196" d="M153.55,265.178c-.233-1.967-.51-3.93-.8-5.889-.139-.933-.278-1.865-.432-2.8-.083-.5-.159-1.01-.256-1.511-.107-.563-.29-1.12-.375-1.684-.013-.087-.15-.087-.14,0,.122,1.007.115,2.043.224,3.057.1.947.212,1.892.329,2.837q.371,3,.806,6a67.638,67.638,0,0,1,.912,11.939c0,.087.124.079.133,0A54.968,54.968,0,0,0,153.55,265.178Z" transform="translate(-110.495 -187.713)" fill="#335991"/>
            </g>
          </g>
          <g id="Grupo_85568" data-name="Grupo 85568">
            <path id="Trazado_149197" data-name="Trazado 149197" d="M170.476,113.817a4.665,4.665,0,0,0,7.784-3.308,4.285,4.285,0,0,0,5.233.265,4.109,4.109,0,0,0,1.025-5.356c-.007-.013-.031,0-.025.011a4.21,4.21,0,0,1-1.193,5.058,3.774,3.774,0,0,1-4.194.121,5.156,5.156,0,0,0,4-.961,4,4,0,0,0,1.331-4.217,5.886,5.886,0,0,0,4.045-3.394,4,4,0,0,0-.943-4.271,4.466,4.466,0,0,0-.4-8.2,3.749,3.749,0,0,0,.071-6.312,2.526,2.526,0,0,0,.676-2.641,4.22,4.22,0,0,0-2.233-2.351A3.013,3.013,0,0,0,185,75.449a2.736,2.736,0,0,0-3.527-.369,7.548,7.548,0,0,0-3.61-3.963,3.924,3.924,0,0,0-4.271.714,5.421,5.421,0,0,0-8.034-1.12,3.816,3.816,0,0,0-3.758-.608,5.622,5.622,0,0,0-2.3,1.455,2.853,2.853,0,0,0-3.333.05,3.77,3.77,0,0,0-1.427,2.9,2.167,2.167,0,0,1-.734.62,4.961,4.961,0,0,0-2.647,3.868,3.382,3.382,0,0,0-2.561,4.382,3.8,3.8,0,0,0-1.544,5.11,5.535,5.535,0,0,0-2.47,3.892,3.207,3.207,0,0,0,1.306,3.274,1.943,1.943,0,0,0-.117,2.583,4.814,4.814,0,0,0,.727.788c.316.283.8.56.994.945a3.087,3.087,0,0,1,.1,1.323,4.433,4.433,0,0,0,.143.905,5.033,5.033,0,0,0,5.143,3.636c.088,1.642,1.493,2.761,2.955,3.311a8.733,8.733,0,0,0,1.475.37,2.2,2.2,0,0,1,1.222.529c.216.206.383.46.6.669a3.467,3.467,0,0,0,2.665.758C162.407,115.846,167.705,116.738,170.476,113.817Zm-14.5-41.562a3.007,3.007,0,0,1,3.43-.593c-.059.073-.1.124-.1.124s-.411-.063-.613-.072a3.805,3.805,0,0,0-1.1.131,3.927,3.927,0,0,0-1.939,1.2,4.157,4.157,0,0,0-.559.862c-.021.041-.041.073-.062.112A3.647,3.647,0,0,1,155.976,72.256Zm28.746,4.177a2.9,2.9,0,0,0-3.134-1.108c-.013-.029-.029-.058-.043-.087,1.131-.517,2.3-.675,3.271.392a2.52,2.52,0,0,1,.51,2.471l-.016-.008A3.187,3.187,0,0,0,184.722,76.432Zm-22.528,35.029h.044a5.234,5.234,0,0,0,6.588,3.119C166.047,115.75,162.965,115.15,162.194,111.461Z" transform="translate(-71.843 -69.413)" fill="#23274c"/>
            <g id="Grupo_85540" data-name="Grupo 85540" transform="translate(0 35.558)">
              <g id="Grupo_85536" data-name="Grupo 85536">
                <path id="Trazado_149198" data-name="Trazado 149198" d="M159.047,137.548c-9.534,19.678-21.641,40.984-32.973,44.329-10.778,3.182-37.518-23.066-42.195-31.917-1.612-3.051,20.545-17.229,23.518-15.041,5.6,4.124,15.879,17.3,17.57,16.907,1.76-.42,15.785-13.794,28.522-25.079C161.211,119.907,165.651,123.918,159.047,137.548Z" transform="translate(-65.461 -110.631)" fill="#ad6359"/>
                <g id="Grupo_85535" data-name="Grupo 85535">
                  <g id="Grupo_85533" data-name="Grupo 85533">
                    <path id="Trazado_149199" data-name="Trazado 149199" d="M82.912,149.845c-1.287-1.122-11.807-8.919-15.266-15.559-1.832-3.516-5.777-13.751-3.777-15.132,1.826-1.262,3.6,1.277,3.6,1.277s-1.692-4.588.866-6.312,5.324,2.714,5.324,2.714-1.394-4.839,1.28-6.376,4.708,3.391,4.708,3.391-1.482-4.365,1.255-4.7c3.292-.408,5.113,7.948,7.8,11.422.61.789,13.488,15.112,13.488,15.112Z" transform="translate(-63.317 -109.129)" fill="#ad6359"/>
                    <g id="Grupo_85532" data-name="Grupo 85532" transform="translate(4.153 4.536)">
                      <path id="Trazado_149200" data-name="Trazado 149200" d="M81.715,114.4c1.355,6.142,3.009,8.595,7.363,13,.085.086-.023.232-.121.15-4.656-3.922-7.175-6.7-7.543-13.1C81.4,114.135,81.65,114.105,81.715,114.4Z" transform="translate(-69.365 -114.195)" fill="#23274c"/>
                      <path id="Trazado_149201" data-name="Trazado 149201" d="M75.031,117.711c1.963,6.256,3.734,8.932,7.957,13.877.059.071-.053.179-.119.113-4.547-4.5-7-7.333-8.137-13.841C74.679,117.565,74.942,117.425,75.031,117.711Z" transform="translate(-68.665 -114.547)" fill="#23274c"/>
                      <path id="Trazado_149202" data-name="Trazado 149202" d="M68.162,121.984c2.338,5.92,4.153,8.938,8.868,13.213a.117.117,0,0,1-.147.183c-5.231-3.892-7.525-7.64-8.894-13.305C67.9,121.688,68.014,121.611,68.162,121.984Z" transform="translate(-67.956 -114.985)" fill="#23274c"/>
                    </g>
                  </g>
                  <g id="Grupo_85534" data-name="Grupo 85534" transform="translate(24.599 4.394)">
                    <path id="Trazado_149203" data-name="Trazado 149203" d="M109.65,137.342s-1.718-9.84-3.453-12.932-12.439-12.235-14.545-10.035c-2.719,2.841,2.421,9.336,5.354,12.189,0,0-6.3,6.564-3.616,12.024S109.65,137.342,109.65,137.342Z" transform="translate(-90.802 -114.037)" fill="#ad6359"/>
                    <path id="Trazado_149204" data-name="Trazado 149204" d="M91.151,115.557c-.611,4.378,3.481,7.874,6.119,10.855a.363.363,0,0,1-.115.586c-2.455,2.928-5.067,7.773-4.011,11.665a.093.093,0,0,1-.174.064c-1.7-4.022.479-8.991,3.373-12.025-2.754-3.014-6.7-6.7-5.235-11.153A.021.021,0,1,1,91.151,115.557Z" transform="translate(-90.792 -114.193)" fill="#23274c"/>
                  </g>
                </g>
              </g>
              <g id="Grupo_85539" data-name="Grupo 85539" transform="translate(26.383 12.503)">
                <g id="Grupo_85538" data-name="Grupo 85538">
                  <path id="Trazado_149205" data-name="Trazado 149205" d="M113.382,138.11l-20.6,23.306s23.343,24.526,33.834,21.543S156.18,150.7,162,132.317c4.03-12.72-2.9-10.475-10.051-4.071s-25.869,22.329-26.716,22.129S113.382,138.11,113.382,138.11Z" transform="translate(-92.785 -123.094)" fill="#ffee58"/>
                  <g id="Grupo_85537" data-name="Grupo 85537" transform="translate(4.874 2.863)">
                    <path id="Trazado_149206" data-name="Trazado 149206" d="M110.817,152.882c-4.521,4.906-9.526,9.553-12.454,15.65-.045-.054-.09-.09-.134-.134a44.658,44.658,0,0,1,7.673-10.529c2.355-2.534,4.808-4.969,7.055-7.61a44.3,44.3,0,0,0,3.205-4.19,14.855,14.855,0,0,0,1.191-2.077.808.808,0,0,1,.081.09,8.888,8.888,0,0,1-.466.922A44.227,44.227,0,0,1,110.817,152.882Z" transform="translate(-98.229 -128.145)" fill="#fff"/>
                    <path id="Trazado_149207" data-name="Trazado 149207" d="M132.894,177.347a27.346,27.346,0,0,0-.367,7.109c-.054.045-.107.072-.152.107a20.594,20.594,0,0,1-.054-3.483c.322-5.685,2.668-11.29,1.558-17.029a9.133,9.133,0,0,0-4.861-6.777,8.752,8.752,0,0,0-8.523.68c-2.543,1.791-3.68,4.826-4.387,7.726-.788,3.241-1.271,6.518-2.256,9.705-.483,1.576-1.012,3.187-1.656,4.754-.036-.027-.081-.054-.125-.081.689-1.71,1.253-3.483,1.764-5.2.94-3.134,1.406-6.357,2.22-9.508.68-2.65,1.737-5.336,3.9-7.127a8.644,8.644,0,0,1,7.252-1.674A8.437,8.437,0,0,1,133,161.044C135.589,166.111,133.771,172.1,132.894,177.347Z" transform="translate(-99.678 -129.44)" fill="#fff"/>
                    <path id="Trazado_149208" data-name="Trazado 149208" d="M151.364,164.913a.815.815,0,0,1-.072.116c-.152-.2-.322-.385-.483-.573-4.074-4.665-9.365-8.21-12.857-13.385a24.125,24.125,0,0,1-1.683-2.928.35.35,0,0,1,.09-.072,26.3,26.3,0,0,0,3.572,5.434C143.4,157.625,147.89,160.785,151.364,164.913Z" transform="translate(-102.212 -128.572)" fill="#fff"/>
                    <path id="Trazado_149209" data-name="Trazado 149209" d="M164.369,134.591c-1.629,6.088-8.38,10.018-8.389,16.688a7.138,7.138,0,0,0,1.71,4.575c-.027.036-.045.072-.072.107a6.421,6.421,0,0,1-1.316-2.05c-1.173-2.963-.027-6.312,1.549-8.881s3.59-4.826,5.076-7.449c1.5-2.641,2.265-5.784.689-8.586a7.962,7.962,0,0,0-2.4-2.605c.036-.036.081-.063.116-.1A8.708,8.708,0,0,1,162.7,127.5,7.463,7.463,0,0,1,164.369,134.591Z" transform="translate(-104.259 -126.292)" fill="#fff"/>
                  </g>
                </g>
                <path id="Trazado_149210" data-name="Trazado 149210" d="M100.633,167.485c2.988-3.219,14.735-16.836,17.074-19.95.162-.217.064-.372-.133-.168-9.187,9.429-14.3,16.689-17.064,20C100.441,167.446,100.557,167.567,100.633,167.485Z" transform="translate(-93.592 -125.626)" fill="#23274c"/>
              </g>
            </g>
            <g id="Grupo_85544" data-name="Grupo 85544" transform="translate(72.963 46.8)">
              <g id="Grupo_85542" data-name="Grupo 85542">
                <path id="Trazado_149211" data-name="Trazado 149211" d="M201.074,176.512l-56.262.924,4.408-16.846a17.617,17.617,0,0,1-2.533-14.688c1.346-4.954,7.752-12.391,11.676-17.107,9.56-11.49,17.867-6.3,20.518-3.34C189,136.741,201.074,176.512,201.074,176.512Z" transform="translate(-144.812 -121.685)" fill="#ffee58"/>
                <g id="Grupo_85541" data-name="Grupo 85541" transform="translate(2.576 0.355)">
                  <path id="Trazado_149212" data-name="Trazado 149212" d="M157.34,176.135a18.138,18.138,0,0,1,.036,5.255h-.152a17.87,17.87,0,0,0-.448-7.189A21.415,21.415,0,0,0,152,165.848a56.06,56.06,0,0,0-4.235-4.271c-.027-.063-.054-.134-.081-.206a44.985,44.985,0,0,1,6.1,6.491A18.989,18.989,0,0,1,157.34,176.135Z" transform="translate(-147.689 -126.196)" fill="#fff"/>
                  <path id="Trazado_149213" data-name="Trazado 149213" d="M161.961,157.285c-2.489.322-4.781-1.6-5.658-3.814-1.173-2.963-.027-6.312,1.549-8.881s3.59-4.826,5.076-7.449c1.5-2.641,2.265-5.784.689-8.586a8.209,8.209,0,0,0-1.826-2.176c.036-.036.072-.063.1-.09a7.261,7.261,0,0,1,.806.77,7.463,7.463,0,0,1,1.674,7.091c-1.629,6.088-8.38,10.018-8.389,16.688-.009,3.107,2.337,6.616,5.784,6.348,3.232-.26,5.622-3.662,6.679-6.419,2.211-5.739,1.03-11.961,1.5-17.933a17.733,17.733,0,0,1,2.525-8.478,11.506,11.506,0,0,1,1.943-2.274.744.744,0,0,1,.188.054,12.2,12.2,0,0,0-2.928,3.984,23.346,23.346,0,0,0-1.674,9.392c-.081,5.631.636,11.737-2.149,16.894C166.67,154.59,164.566,156.954,161.961,157.285Z" transform="translate(-148.54 -122.082)" fill="#fff"/>
                  <path id="Trazado_149214" data-name="Trazado 149214" d="M192.786,150.332a30.537,30.537,0,0,1-8.926,7.574,69.029,69.029,0,0,1-8.013,3.7,25.112,25.112,0,0,0-7.5,4.333,10.042,10.042,0,0,0-3.33,8.246,9.439,9.439,0,0,0,2.713,5.891H167.6a9.881,9.881,0,0,1-1.039-12.3c3.151-4.593,9.1-6.07,13.886-8.273a32.312,32.312,0,0,0,12.266-9.338A.971.971,0,0,0,192.786,150.332Z" transform="translate(-149.49 -125.022)" fill="#fff"/>
                  <path id="Trazado_149215" data-name="Trazado 149215" d="M198.58,161.232a.7.7,0,0,1,.045.125c-.376.278-.734.573-1.083.877-5,4.378-6.768,11.03-10.815,16.133a19.08,19.08,0,0,1-2.48,2.623l-.2.009a22.5,22.5,0,0,0,4.047-4.8c1.844-2.865,3.241-5.981,5.049-8.855A22.778,22.778,0,0,1,198.58,161.232Z" transform="translate(-151.496 -126.181)" fill="#fff"/>
                  <path id="Trazado_149216" data-name="Trazado 149216" d="M207.013,181.907c-.3.1-.591.206-.877.313-.537.2-1.074.4-1.612.627l-.385.009c.94-.385,1.889-.734,2.838-1.074C206.986,181.827,207,181.872,207.013,181.907Z" transform="translate(-153.599 -128.333)" fill="#fff"/>
                </g>
              </g>
              <g id="Grupo_85543" data-name="Grupo 85543" transform="translate(4.952 37.705)">
                <path id="Trazado_149217" data-name="Trazado 149217" d="M164.853,164.008a48.82,48.82,0,0,0-7.237-.121c-1.2.085-2.384.226-3.573.391-.593.082-1.184.145-1.779.205a7.706,7.706,0,0,1-1.872.012.043.043,0,0,0-.014.085,13.145,13.145,0,0,0,1.749.285,12.663,12.663,0,0,0,1.719-.012c1.216-.074,2.427-.206,3.642-.294,2.45-.176,4.9-.352,7.358-.351C164.96,164.208,164.967,164.017,164.853,164.008Z" transform="translate(-150.344 -163.8)" fill="#23274c"/>
                <path id="Trazado_149218" data-name="Trazado 149218" d="M171.274,167.348A52.791,52.791,0,0,0,165.455,166c-.983-.167-1.969-.275-2.963-.358q-.712-.059-1.424-.1c-.524-.028-1.051.014-1.573-.021-.055,0-.07.08-.014.085.492.048.978.178,1.466.254s.981.15,1.472.227c.982.154,1.962.319,2.946.463,1.969.29,3.926.6,5.884.955C171.353,167.529,171.373,167.376,171.274,167.348Z" transform="translate(-151.297 -163.981)" fill="#23274c"/>
              </g>
              <path id="Trazado_149219" data-name="Trazado 149219" d="M154.314,135.211c.021-.028-.016-.066-.04-.038-.854.964-1.714,1.933-2.555,2.917.15-.271.3-.544.451-.811.284-.488.552-.982.85-1.462.023-.037-.032-.077-.062-.045a9.444,9.444,0,0,0-1.058,1.357,6.154,6.154,0,0,0-.75,1.552.086.086,0,0,0,.007.068c-1.727,2.063-7.445,8.54-5.1,17.095a20.1,20.1,0,0,0,1.142,3.207,10.518,10.518,0,0,0,.882,1.611c.051.073.454.615.741.98a.4.4,0,0,0-.124.178c-.476,1.347-.748,2.8-1.1,4.179s-.707,2.793-1.058,4.191c-.341,1.361-.62,2.74-.921,4.11q-.239,1.082-.442,2.174c-.134.724-.183,1.484-.342,2.2a.07.07,0,0,0,.135.034c.193-.706.506-1.4.725-2.1q.314-1.006.6-2.022c.383-1.389.792-2.773,1.136-4.171.334-1.364.671-2.726,1-4.092.341-1.425.79-2.869,1-4.318a.4.4,0,0,0-.059-.289,7.23,7.23,0,0,0-.6-1.357c-.21-.5-.449-.994-.664-1.5a18.407,18.407,0,0,1-1.581-6.384c-.176-3.947.828-6.393,3.263-10.961A47.552,47.552,0,0,1,154.314,135.211Z" transform="translate(-144.813 -123.096)" fill="#27294b"/>
            </g>
            <g id="Grupo_85560" data-name="Grupo 85560" transform="translate(73.507 4.566)">
              <g id="Grupo_85545" data-name="Grupo 85545" transform="translate(13.309 26.684)">
                <path id="Trazado_149220" data-name="Trazado 149220" d="M174.738,121.073c-.081,1.028-3.837,8.188-8.405,8.665-1.487.153-2.684-7.93-2.684-7.93l-.225-.577-3.139-8.073,8.858-7.791,1.292-1.049s.714,2.265,1.573,5.094c.04.132.081.262.123.4.053.159.1.308.147.458.134.422.269.852.395,1.284.1.328.192.646.281.995s.187.686.286,1.033A55.811,55.811,0,0,1,174.738,121.073Z" transform="translate(-160.285 -104.318)" fill="#ad6359"/>
                <path id="Trazado_149221" data-name="Trazado 149221" d="M172.008,109.412a17.374,17.374,0,0,1-8.584,11.819l-3.139-8.073,8.858-7.791,1.292-1.049S171.149,106.583,172.008,109.412Z" transform="translate(-160.285 -104.318)" fill="#23274c"/>
              </g>
              <g id="Grupo_85559" data-name="Grupo 85559">
                <path id="Trazado_149222" data-name="Trazado 149222" d="M146.144,95.852c-3.246,14.85,5.282,18.472,8.485,19.168,2.908.632,12.889,2.416,17.653-12.02s-1.116-20.639-7.689-22.437S149.391,81,146.144,95.852Z" transform="translate(-145.42 -75.091)" fill="#ad6359"/>
                <g id="Grupo_85552" data-name="Grupo 85552" transform="translate(1.869 18.086)">
                  <path id="Trazado_149223" data-name="Trazado 149223" d="M149.054,96.652a9.972,9.972,0,0,0,1.048-.066,1.7,1.7,0,0,0,1.056-.27.54.54,0,0,0,.095-.654,1.339,1.339,0,0,0-1.262-.5,1.971,1.971,0,0,0-1.324.51A.577.577,0,0,0,149.054,96.652Z" transform="translate(-147.61 -94.761)" fill="#23274c"/>
                  <path id="Trazado_149224" data-name="Trazado 149224" d="M160.175,97.845a10.048,10.048,0,0,1-.985-.364,1.7,1.7,0,0,1-.935-.562.541.541,0,0,1,.1-.653,1.342,1.342,0,0,1,1.354-.119,1.972,1.972,0,0,1,1.122.868A.577.577,0,0,1,160.175,97.845Z" transform="translate(-148.625 -94.851)" fill="#23274c"/>
                  <g id="Grupo_85547" data-name="Grupo 85547" transform="translate(8.664 4.648)">
                    <g id="Grupo_85546" data-name="Grupo 85546">
                      <path id="Trazado_149225" data-name="Trazado 149225" d="M157.43,100.926c.014-.038.072.062.064.1-.206,1.014-.271,2.211.594,2.707.027.015.015.066-.018.056C156.97,103.443,157.072,101.854,157.43,100.926Z" transform="translate(-157.184 -100.012)" fill="#23274c"/>
                      <path id="Trazado_149226" data-name="Trazado 149226" d="M158.532,99.91c1.662.155,1.23,3.468-.31,3.324C156.707,103.093,157.138,99.78,158.532,99.91Z" transform="translate(-157.193 -99.906)" fill="#23274c"/>
                    </g>
                    <path id="Trazado_149227" data-name="Trazado 149227" d="M159.355,100.2c.264.226.5.594.85.673.4.092.748-.215,1.056-.514.032-.031.056,0,.052.046-.073.636-.4,1.255-1.1,1.261-.632.005-1-.615-1.08-1.274C159.123,100.268,159.249,100.106,159.355,100.2Z" transform="translate(-157.388 -99.934)" fill="#23274c"/>
                  </g>
                  <g id="Grupo_85549" data-name="Grupo 85549" transform="translate(0 2.795)">
                    <g id="Grupo_85548" data-name="Grupo 85548" transform="translate(0.934 0.328)">
                      <path id="Trazado_149228" data-name="Trazado 149228" d="M150.99,99.551c0-.04-.086.039-.09.081-.093,1.031-.373,2.2-1.345,2.424-.03.007-.033.059,0,.058C150.711,102.093,151.067,100.543,150.99,99.551Z" transform="translate(-148.653 -98.342)" fill="#23274c"/>
                      <path id="Trazado_149229" data-name="Trazado 149229" d="M150.1,98.225c-1.637-.329-2.172,2.97-.655,3.274C150.939,101.8,151.474,98.5,150.1,98.225Z" transform="translate(-148.55 -98.202)" fill="#23274c"/>
                    </g>
                    <path id="Trazado_149230" data-name="Trazado 149230" d="M149.27,98.292c-.289.132-.6.408-.913.379-.364-.035-.574-.435-.748-.815-.019-.039-.048-.016-.057.028-.119.628-.017,1.318.569,1.537.535.2,1.028-.275,1.28-.878C149.446,98.43,149.386,98.239,149.27,98.292Z" transform="translate(-147.507 -97.835)" fill="#23274c"/>
                  </g>
                  <path id="Trazado_149231" data-name="Trazado 149231" d="M155.994,110.613c-.268.221-.543.533-.919.533a2.738,2.738,0,0,1-1.086-.354.036.036,0,0,0-.049.049,1.394,1.394,0,0,0,1.261.671,1.1,1.1,0,0,0,.888-.843C156.11,110.61,156.033,110.581,155.994,110.613Z" transform="translate(-148.18 -96.377)" fill="#23274c"/>
                  <g id="Grupo_85550" data-name="Grupo 85550" transform="translate(2.298)">
                    <path id="Trazado_149232" data-name="Trazado 149232" d="M151.832,104.637s-.429,1.5-.532,2.222c-.009.068.16.124.4.174.011.005.017.011.028.005a3.469,3.469,0,0,0,3.516-.808c.06-.064-.021-.151-.093-.115a5.23,5.23,0,0,1-3.262.452c-.023-.207.821-2.545.707-2.57a6.342,6.342,0,0,0-1.692.139c.8-3.151,2.106-6.148,2.859-9.3a.1.1,0,0,0-.182-.073,52.7,52.7,0,0,0-3.505,9.884C149.963,105.049,151.526,104.718,151.832,104.637Z" transform="translate(-150.074 -94.714)" fill="#23274c"/>
                  </g>
                  <g id="Grupo_85551" data-name="Grupo 85551" transform="translate(4.04 11.463)">
                    <path id="Trazado_149233" data-name="Trazado 149233" d="M152.019,108.117a4.2,4.2,0,0,0,1.386,1.612,1.888,1.888,0,0,0,1.109.3c.856-.048,1.029-.79,1.009-1.458a4.493,4.493,0,0,0-.165-1.051A5.437,5.437,0,0,1,152.019,108.117Z" transform="translate(-152.019 -107.518)" fill="#23274c"/>
                    <path id="Trazado_149234" data-name="Trazado 149234" d="M153.567,109.85a1.888,1.888,0,0,0,1.109.3c.856-.048,1.029-.79,1.009-1.458A1.95,1.95,0,0,0,153.567,109.85Z" transform="translate(-152.181 -107.64)" fill="#d8702e"/>
                  </g>
                </g>
                <path id="Trazado_149235" data-name="Trazado 149235" d="M171.558,104.976c-2.535-.329-2.014-5.678-2.014-5.678s-5.073-1.044-5.222-8.682a11.473,11.473,0,0,0,.985,6.5s-8.739-2.814-10.94-11.08c0,0,.7,4.124,1.829,5.773a10.7,10.7,0,0,1-4.722-5.255s-2.467,3.99-3.921,4.931c0,0,3.636-15.561,17.776-10.872,0,0,8.946,2.5,10.7,10.359S171.558,104.976,171.558,104.976Z" transform="translate(-145.643 -75.059)" fill="#23274c"/>
                <g id="Grupo_85556" data-name="Grupo 85556" transform="translate(8.439)">
                  <path id="Trazado_149236" data-name="Trazado 149236" d="M174.218,103.337c-.718,2.041,4.938-7.234,5.049-8.738s-2.04-9.142-8-12.887c-4.994-3.137-11.644-1.959-12.8-1.74a9.266,9.266,0,0,0-3.613,1.505s8.711-1.571,15.691,1.266C173.9,84.111,176.908,95.692,174.218,103.337Z" transform="translate(-154.846 -75.043)" fill="#d8702e"/>
                  <g id="Grupo_85555" data-name="Grupo 85555" transform="translate(13.694)">
                    <g id="Grupo_85553" data-name="Grupo 85553">
                      <path id="Trazado_149237" data-name="Trazado 149237" d="M175.623,80.781s-1.2-4.614-5-6.268c0,0-1.042,3.953-.052,5.664.492.851,3.5,2.066,4.014,1.664A7.423,7.423,0,0,0,175.623,80.781Z" transform="translate(-170.141 -74.513)" fill="#d8702e"/>
                      <path id="Trazado_149238" data-name="Trazado 149238" d="M175.907,81.332a7.661,7.661,0,0,1-1.038,1.053.163.163,0,0,1-.081.041.3.3,0,0,1-.106.031c-.027,0-.053.006-.088,0a4.546,4.546,0,0,1-1.733-.433,9.823,9.823,0,0,1,.944-1.564,2.689,2.689,0,0,1,1.506-.713A9.893,9.893,0,0,1,175.907,81.332Z" transform="translate(-170.426 -75.062)" fill="#23274c"/>
                    </g>
                    <g id="Grupo_85554" data-name="Grupo 85554" transform="translate(5.132 7.097)">
                      <path id="Trazado_149239" data-name="Trazado 149239" d="M177.02,82.442s5.745.836,8.019,2.835a7.76,7.76,0,0,1-5.278,2.281c-1.328-.06-4.245-3.4-3.852-3.986A5.787,5.787,0,0,1,177.02,82.442Z" transform="translate(-175.874 -82.44)" fill="#d8702e"/>
                      <path id="Trazado_149240" data-name="Trazado 149240" d="M178.316,82.673a3.357,3.357,0,0,1-.654,1.786,2.868,2.868,0,0,1-1,.679c-.56-.7-.9-1.338-.754-1.568a5.829,5.829,0,0,1,1.111-1.13S177.535,82.513,178.316,82.673Z" transform="translate(-175.874 -82.44)" fill="#23274c"/>
                    </g>
                    <path id="Trazado_149241" data-name="Trazado 149241" d="M176.993,83.652a1.886,1.886,0,1,1-.024-2.667A1.886,1.886,0,0,1,176.993,83.652Z" transform="translate(-170.52 -75.134)" fill="#d8702e"/>
                  </g>
                </g>
                <g id="Grupo_85558" data-name="Grupo 85558" transform="translate(22.172 24.044)">
                  <g id="Grupo_85557" data-name="Grupo 85557">
                    <path id="Trazado_149242" data-name="Trazado 149242" d="M171.541,104.5s3.9-4.28,5.883-2.831-1.373,7.951-4,8.56a2.57,2.57,0,0,1-3.238-1.812Z" transform="translate(-170.185 -101.369)" fill="#ad6359"/>
                    <path id="Trazado_149243" data-name="Trazado 149243" d="M176.575,103.759a.035.035,0,0,1,0,.069c-1.85.484-2.986,1.995-3.852,3.6a1.42,1.42,0,0,1,2.156-.113c.041.038-.012.1-.06.088a1.583,1.583,0,0,0-1.8.324,7.616,7.616,0,0,0-1.006,1.289c-.1.147-.376.026-.293-.148l.02-.038C171.993,106.583,174.14,103.673,176.575,103.759Z" transform="translate(-170.345 -101.619)" fill="#23274c"/>
                  </g>
                </g>
              </g>
            </g>
            <g id="Grupo_85567" data-name="Grupo 85567" transform="translate(100.328 48.412)">
              <g id="Grupo_85563" data-name="Grupo 85563" transform="translate(0.999 1.01)">
                <path id="Trazado_149244" data-name="Trazado 149244" d="M186.537,130.774c6.791,11.381,17.065,31.551,17.854,32.924,2.036,3.546,19.575,23.584,22.042,25.451,4.354,3.294-21.843,16.5-23.363,13.07-1.041-2.346-14.266-21.49-16.9-29.2a198.688,198.688,0,0,1-9.453-40.185C175.128,120.7,182.348,123.753,186.537,130.774Z" transform="translate(-176.494 -124.614)" fill="#ad6359"/>
                <g id="Grupo_85562" data-name="Grupo 85562" transform="translate(26.577 64.534)">
                  <path id="Trazado_149245" data-name="Trazado 149245" d="M206.179,209.765c.653,4.22,3.7,12.677,5.864,13.931s13.383.748,19.04.632,6.738-1.715,6.606-3.661-12.011-2.074-12.011-2.074,15.947,4.22,19.95,4.881,13.238,2.792,14.5-.543c.569-1.5-1.978-2.96-1.978-2.96s3.878,1.047,4.452-.882c.654-2.2-2.435-3.335-2.435-3.335s2.418.437,2.438-1.342c.042-3.975-15.076-5.62-15.076-5.62s11.66,5.385,11.965,2.135c.422-4.5-23.34-8.936-25.844-10.842s-4.108-3.39-4.108-3.39Z" transform="translate(-206.179 -196.695)" fill="#ad6359"/>
                  <g id="Grupo_85561" data-name="Grupo 85561" transform="translate(19.395 10.068)">
                    <path id="Trazado_149246" data-name="Trazado 149246" d="M239.893,224.016a1.736,1.736,0,0,0-.569-1.5,4.9,4.9,0,0,0-1.4-.866,18.622,18.622,0,0,0-3.263-.986c-2.241-.521-4.535-.874-6.822-1.416a27.687,27.687,0,0,1,7,.643,12.85,12.85,0,0,1,3.361,1.207,4.532,4.532,0,0,1,1.415,1.168A1.809,1.809,0,0,1,239.893,224.016Z" transform="translate(-227.842 -209.122)" fill="#23274c"/>
                    <path id="Trazado_149247" data-name="Trazado 149247" d="M261.967,222.069c-1.639-.365-3.256-.793-4.871-1.224s-3.22-.89-4.827-1.339l-4.806-1.4c-1.6-.467-3.2-.929-4.822-1.375a37.241,37.241,0,0,1,4.972.783c1.644.339,3.263.775,4.876,1.228,1.607.47,3.209.959,4.787,1.521S260.429,221.393,261.967,222.069Z" transform="translate(-229.391 -208.861)" fill="#23274c"/>
                    <path id="Trazado_149248" data-name="Trazado 149248" d="M246.826,212.221a31.7,31.7,0,0,1,4.587.539,42.815,42.815,0,0,1,4.5,1.06,40.614,40.614,0,0,1,4.363,1.529,32.624,32.624,0,0,1,4.148,2.031c-1.468-.473-2.9-1-4.358-1.458s-2.907-.924-4.374-1.339c-1.459-.44-2.934-.828-4.408-1.229S248.32,212.594,246.826,212.221Z" transform="translate(-229.83 -208.388)" fill="#23274c"/>
                    <path id="Trazado_149249" data-name="Trazado 149249" d="M249.345,207.94a30.708,30.708,0,0,1,14.075,4.5c-2.361-.788-4.659-1.622-7-2.351C254.079,209.33,251.727,208.653,249.345,207.94Z" transform="translate(-230.093 -207.94)" fill="#23274c"/>
                  </g>
                </g>
              </g>
              <g id="Grupo_85566" data-name="Grupo 85566">
                <g id="Grupo_85565" data-name="Grupo 85565" transform="translate(0.422)">
                  <path id="Trazado_149250" data-name="Trazado 149250" d="M225.868,186.844l-26.1,14.5s-9.028-14.908-14.257-27.71c-5.414-13.253-7.828-28.244-9.032-35.769-2.945-18.4,5.14-17.094,10.677-7.512,3.5,6.059,10.11,18.842,16.764,30.3C205.044,162.591,225.868,186.844,225.868,186.844Z" transform="translate(-175.849 -123.486)" fill="#ffee58"/>
                  <g id="Grupo_85564" data-name="Grupo 85564" transform="translate(4.441 21.761)">
                    <path id="Trazado_149251" data-name="Trazado 149251" d="M185.527,157.658a44.452,44.452,0,0,1-4.682,2.3.743.743,0,0,1-.036-.134c.448-.188.877-.376,1.307-.573,5.452-2.507,10.574-6.267,13.716-11.46.027.054.063.107.09.17A29.047,29.047,0,0,1,185.527,157.658Z" transform="translate(-180.809 -147.792)" fill="#fff"/>
                    <path id="Trazado_149252" data-name="Trazado 149252" d="M187.029,178.141l-.027.027c-.018-.054-.045-.107-.063-.161a22.8,22.8,0,0,0,1.459-2.032c1.844-2.865,3.241-5.981,5.049-8.855a22.117,22.117,0,0,1,6.267-6.715,19.2,19.2,0,0,1,2.328-1.343.665.665,0,0,0,.063.107,20.075,20.075,0,0,0-4.262,2.838C192.848,166.386,191.075,173.038,187.029,178.141Z" transform="translate(-181.451 -148.972)" fill="#fff"/>
                    <path id="Trazado_149253" data-name="Trazado 149253" d="M215.2,178.072c-.367.17-.734.331-1.1.492-3.008,1.271-6.178,2.131-9.24,3.259-4.727,1.746-9.589,4.163-12.821,8.076l-.054-.107a26.214,26.214,0,0,1,9.624-6.813c3.178-1.388,6.509-2.4,9.786-3.519a38.956,38.956,0,0,0,3.733-1.477A.35.35,0,0,1,215.2,178.072Z" transform="translate(-181.98 -150.953)" fill="#fff"/>
                    <path id="Trazado_149254" data-name="Trazado 149254" d="M222.24,185.192c.036.045.081.09.116.134a9.708,9.708,0,0,0-2.256,1.137c-5.7,3.877-7.055,11.3-10.726,16.733a17.093,17.093,0,0,1-1.531,1.961l-.385.215a25.678,25.678,0,0,0,3.877-5.918C213.914,194.279,216.251,187.3,222.24,185.192Z" transform="translate(-183.599 -151.708)" fill="#fff"/>
                  </g>
                </g>
                <path id="Trazado_149255" data-name="Trazado 149255" d="M185.544,174.063c-.435-1.313-.887-2.62-1.339-3.926-.879-2.54-1.782-5.074-2.664-7.612a63.289,63.289,0,0,1-1.856-8.02c-.566-2.743-1.108-5.492-1.733-8.222q-1.07-4.673-2.143-9.346c-.006-.029-.047-.015-.042.013.265,1.507.536,3.013.8,4.519l-1.09-2.614a.052.052,0,0,0-.1.03,17.642,17.642,0,0,0,1.336,3.41c.682,3.827,1.377,7.653,2.134,11.467.538,2.708,1.005,5.446,1.715,8.113.7,2.635,1.665,5.162,2.619,7.71.555,1.483,1.135,2.956,1.717,4.428.552,1.4,1.081,2.848,1.764,4.187.043.082.159.019.14-.064C186.483,176.759,185.988,175.4,185.544,174.063Z" transform="translate(-175.377 -124.892)" fill="#23274c"/>
                <path id="Trazado_149256" data-name="Trazado 149256" d="M200.5,201.422c3.734-1.744,18.714-9.446,21.822-11.333.216-.131.174-.3-.07-.2-11.338,4.952-18.266,9.476-21.827,11.377C200.338,201.317,200.406,201.466,200.5,201.422Z" transform="translate(-177.996 -130.435)" fill="#23274c"/>
              </g>
            </g>
          </g>
        </g>
        <g id="Grupo_85571" data-name="Grupo 85571" transform="translate(25.564)">
          <path id="Trazado_149257" data-name="Trazado 149257" d="M148.967,48.758V65.477a8.3,8.3,0,0,1-8.3,8.3h.509v8.077L133.1,73.776H100.17a8.3,8.3,0,0,1-8.3-8.3V48.758a8.3,8.3,0,0,1,8.3-8.3h40.5A8.3,8.3,0,0,1,148.967,48.758Z" transform="translate(-91.871 -40.459)" fill="none" stroke="#b2c6db" stroke-miterlimit="10" stroke-width="1"/>
          <g id="Grupo_85570" data-name="Grupo 85570" transform="translate(12.345 13.953)">
            <path id="Trazado_149258" data-name="Trazado 149258" d="M111.071,58.749a2.706,2.706,0,1,1-2.706-2.7A2.706,2.706,0,0,1,111.071,58.749Z" transform="translate(-105.66 -56.044)" fill="#b2c6db"/>
            <path id="Trazado_149259" data-name="Trazado 149259" d="M126.15,58.749a2.705,2.705,0,1,1-2.706-2.7A2.706,2.706,0,0,1,126.15,58.749Z" transform="translate(-107.239 -56.044)" fill="#b2c6db"/>
            <path id="Trazado_149260" data-name="Trazado 149260" d="M141.229,58.749a2.705,2.705,0,1,1-2.706-2.7A2.706,2.706,0,0,1,141.229,58.749Z" transform="translate(-108.818 -56.044)" fill="#b2c6db"/>
          </g>
        </g>
      </g>
      <g id="Grupo_85621" data-name="Grupo 85621" transform="translate(0 20.94)">
        <g id="Grupo_85618" data-name="Grupo 85618" transform="translate(0 14.003)">
          <g id="Grupo_85590" data-name="Grupo 85590" transform="translate(0 107.133)">
            <g id="Grupo_85580" data-name="Grupo 85580" transform="translate(28.21 0.034)">
              <g id="Grupo_85577" data-name="Grupo 85577" transform="translate(21.09 173.108)">
                <path id="Trazado_149261" data-name="Trazado 149261" d="M79.32,453.2c-2.108.68-62.2-.1-64.47-1.583-.872-.549-1.269-9.312-1.444-19.914l0-.332c-.041-2.185-.069-4.435-.073-6.715,0-.314,0-.628-.012-.941-.084-15.3.158-31.176.158-31.176l40.2.4-1.21,30.883-.046,1.223-.243,6.393-.023.658s22.869,10.586,25.192,12.481C79.652,446.468,81.429,452.53,79.32,453.2Z" transform="translate(-13.301 -392.54)" fill="#eb9481"/>
                <path id="Trazado_149262" data-name="Trazado 149262" d="M79.322,456.847c-2.108.68-62.2-.1-64.47-1.583-.872-.549-1.269-9.312-1.444-19.914l0-.332c-.041-2.185-.069-4.435-.073-6.715,0-.314,0-.628-.012-.941l39.149.109-.046,1.223-.243,6.393-.023.658s22.869,10.586,25.192,12.481C79.654,450.114,81.431,456.176,79.322,456.847Z" transform="translate(-13.303 -396.186)" fill="#fff"/>
                <g id="Grupo_85576" data-name="Grupo 85576" transform="translate(0.097 29.145)">
                  <path id="Trazado_149263" data-name="Trazado 149263" d="M79.333,457.742c-1.305.423-24.581.285-42.811-.23-11.381-.312-20.785-.781-21.659-1.351C14,455.618,13.6,447.1,13.429,436.69c0-.147-.01-.294-.01-.441,0-.11,0-.229-.009-.34l38.776.074-.019.662s22.872,10.581,25.189,12.475S81.438,457.071,79.333,457.742Z" transform="translate(-13.41 -426.225)" fill="#d8702e"/>
                  <g id="Grupo_85575" data-name="Grupo 85575" transform="translate(4.162)">
                    <g id="Grupo_85574" data-name="Grupo 85574">
                      <path id="Trazado_149264" data-name="Trazado 149264" d="M79.169,457.6c-10.128-.38-51.009-.958-61.048-.564-.082,0-.083.059,0,.064,10.029.6,50.914.843,61.047.666C79.38,457.764,79.382,457.61,79.169,457.6Z" transform="translate(-18.058 -428.424)" fill="#23274c"/>
                      <path id="Trazado_149265" data-name="Trazado 149265" d="M60.142,436.138c-3.976-.8-8.86-.247-11.942,2.553-.12.108.037.277.166.238a56.029,56.029,0,0,1,11.754-2.288A.255.255,0,0,0,60.142,436.138Z" transform="translate(-21.21 -426.214)" fill="#23274c"/>
                      <path id="Trazado_149266" data-name="Trazado 149266" d="M63.331,438.116c-3.977-.8-8.86-.247-11.942,2.553-.12.109.036.278.166.238a56.086,56.086,0,0,1,11.754-2.288A.255.255,0,0,0,63.331,438.116Z" transform="translate(-21.544 -426.422)" fill="#23274c"/>
                      <path id="Trazado_149267" data-name="Trazado 149267" d="M66.52,440.1c-3.977-.8-8.86-.247-11.943,2.553-.119.108.037.277.167.237A56.084,56.084,0,0,1,66.5,440.6.255.255,0,0,0,66.52,440.1Z" transform="translate(-21.878 -426.629)" fill="#23274c"/>
                      <g id="Grupo_85573" data-name="Grupo 85573" transform="translate(18.363)">
                        <path id="Trazado_149268" data-name="Trazado 149268" d="M66.008,426.389c-1.538-2.177-4.468-1.245-6.15.132a21.28,21.28,0,0,0-6.258,9.052.106.106,0,0,0,.092.144c.008.3.276.628.619.507,3.308-1.176,6.99-2.024,9.838-4.18C65.811,430.784,67.464,428.449,66.008,426.389Zm-7.047,7.025c-1.613.618-3.245,1.153-4.836,1.831a64,64,0,0,1,3.771-5.206,22.973,22.973,0,0,1,2.142-2.255c1.2-1.064,5.925-3.3,5.166,1.065C64.786,431.255,60.883,432.677,58.961,433.414Z" transform="translate(-40.142 -425.093)" fill="#23274c"/>
                        <path id="Trazado_149269" data-name="Trazado 149269" d="M41.909,434.665c3.267,1.443,7.045,1.421,10.535,1.8a.5.5,0,0,0,.485-.635.106.106,0,0,0,.056-.162,21.273,21.273,0,0,0-8.172-7.369c-1.954-.954-5.02-1.186-6.016,1.287C37.855,431.93,40,433.823,41.909,434.665ZM40.146,431.8c-1.743-4.073,3.37-2.984,4.782-2.224a22.833,22.833,0,0,1,2.6,1.7,63.926,63.926,0,0,1,4.868,4.2c-1.7-.294-3.416-.439-5.126-.669C45.233,434.532,41.107,434.046,40.146,431.8Z" transform="translate(-38.569 -425.359)" fill="#23274c"/>
                      </g>
                    </g>
                  </g>
                  <path id="Trazado_149270" data-name="Trazado 149270" d="M36.523,457.6c-11.381-.312-20.785-.781-21.659-1.351-.864-.543-1.259-9.064-1.433-19.471C18.1,440.946,29.693,451.288,36.523,457.6Z" transform="translate(-13.412 -426.317)" fill="#23274c"/>
                </g>
              </g>
              <g id="Grupo_85579" data-name="Grupo 85579" transform="translate(8.932)">
                <path id="Trazado_149271" data-name="Trazado 149271" d="M-.279,199.188s9.023,101.546,10.494,109.3c.34,1.765.552,11.363.689,23.7.312,26.917.126,75.468.126,75.468H53.392s-1.258-84.118-3.133-99.6S36.4,199.188,36.4,199.188Z" transform="translate(0.279 -199.188)" fill="#335991"/>
                <g id="Grupo_85578" data-name="Grupo 85578" transform="translate(5.356 4.754)">
                  <path id="Trazado_149272" data-name="Trazado 149272" d="M52.982,423.748c-6.609-.138-4.71-.192-11.322-.255-3.235-.031-24.495-.217-27.516.284a.071.071,0,0,0,0,.135c3.023.5,24.281.315,27.516.284,6.612-.064,4.713-.117,11.322-.255A.1.1,0,0,0,52.982,423.748Z" transform="translate(-6.582 -227.42)" fill="#23274c"/>
                  <path id="Trazado_149273" data-name="Trazado 149273" d="M19.706,352.739q-.07-9.217-.137-18.432c-.043-5.951-.035-11.908-.318-17.853-.574-12.038-3.016-23.874-4.752-35.776s-3.187-23.859-4.5-35.822C8.528,231.435,7.227,218,5.848,204.565c-.01-.091-.152-.09-.144,0,2,23.98,4.223,47.954,7.543,71.792q1.24,8.894,2.707,17.752c.988,5.979,1.971,11.959,2.443,18.005.461,5.918.536,11.856.6,17.789q.094,9.21.183,18.42c.133,13.639.265,34.633.4,48.272a.205.205,0,0,0,.41-.01C19.891,384.424,19.8,364.9,19.706,352.739Z" transform="translate(-5.704 -204.498)" fill="#23274c"/>
                </g>
              </g>
              <path id="Trazado_149274" data-name="Trazado 149274" d="M-10.255,199.188S7.7,300.734,9.17,308.483c.34,1.765.552,11.363.689,23.7l.009.038L30.057,199.188Z" transform="translate(10.255 -199.188)" fill="#23274c"/>
            </g>
            <g id="Grupo_85589" data-name="Grupo 85589">
              <g id="Grupo_85585" data-name="Grupo 85585" transform="translate(1.386 172.213)">
                <path id="Trazado_149275" data-name="Trazado 149275" d="M24.525,456.674c-2.151.529-62.04-4.5-64.2-6.145-.83-.61-.605-9.379-.03-19.967.007-.11.014-.221.021-.331.115-2.182.245-4.429.4-6.7.021-.313.043-.627.055-.94,1-15.268,2.366-31.086,2.366-31.086L3.215,394.75l-3.394,30.72-.133,1.217-.695,6.359-.07.654s22.062,12.181,24.245,14.235C25.332,449.982,26.676,456.154,24.525,456.674Z" transform="translate(40.216 -391.502)" fill="#eb9481"/>
                <path id="Trazado_149276" data-name="Trazado 149276" d="M24.525,460.31c-2.151.529-62.04-4.5-64.2-6.145-.83-.61-.605-9.379-.03-19.967.007-.11.014-.221.021-.331.115-2.182.245-4.429.4-6.7.021-.313.043-.627.055-.94l39.043,2.883-.133,1.217-.695,6.359-.07.654s22.062,12.181,24.245,14.235C25.332,453.617,26.676,459.79,24.525,460.31Z" transform="translate(40.216 -395.137)" fill="#fff"/>
                <g id="Grupo_85584" data-name="Grupo 85584" transform="translate(0 32.303)">
                  <path id="Trazado_149277" data-name="Trazado 149277" d="M24.525,461.2c-2.151.529-62.04-4.5-64.2-6.145-.83-.61-.605-9.379-.03-19.967.007-.11.014-.221.021-.331l38.674,2.816-.07.654s22.062,12.181,24.245,14.235C25.332,454.511,26.676,460.683,24.525,461.2Z" transform="translate(40.216 -428.334)" fill="#d8702e"/>
                  <g id="Grupo_85583" data-name="Grupo 85583" transform="translate(3.34)">
                    <g id="Grupo_85582" data-name="Grupo 85582">
                      <path id="Trazado_149278" data-name="Trazado 149278" d="M24.433,461.068c-10.075-1.1-50.813-4.568-60.854-4.887-.081,0-.087.053-.005.064,9.962,1.3,50.727,4.446,60.846,4.989C24.633,461.244,24.645,461.091,24.433,461.068Z" transform="translate(36.485 -430.577)" fill="#23274c"/>
                      <path id="Trazado_149279" data-name="Trazado 149279" d="M6.952,438.36c-3.91-1.075-8.82-.874-12.094,1.7-.127.1.017.278.149.249a56.051,56.051,0,0,1,11.887-1.449A.255.255,0,0,0,6.952,438.36Z" transform="translate(33.209 -428.647)" fill="#23274c"/>
                      <path id="Trazado_149280" data-name="Trazado 149280" d="M9.993,440.56c-3.911-1.076-8.82-.875-12.094,1.7-.127.1.017.278.149.249a56.041,56.041,0,0,1,11.887-1.45A.255.255,0,0,0,9.993,440.56Z" transform="translate(32.89 -428.877)" fill="#23274c"/>
                      <path id="Trazado_149281" data-name="Trazado 149281" d="M13.034,442.759c-3.911-1.075-8.821-.874-12.095,1.7-.126.1.017.278.15.249a56.042,56.042,0,0,1,11.887-1.449A.255.255,0,0,0,13.034,442.759Z" transform="translate(32.572 -429.108)" fill="#23274c"/>
                      <g id="Grupo_85581" data-name="Grupo 85581" transform="translate(19.958)">
                        <path id="Trazado_149282" data-name="Trazado 149282" d="M13.431,429.066c-1.381-2.281-4.368-1.559-6.144-.3A21.283,21.283,0,0,0,.4,437.347a.107.107,0,0,0,.081.151c-.013.3.231.646.582.548,3.382-.938,7.115-1.524,10.108-3.473C12.923,433.436,14.737,431.223,13.431,429.066ZM5.9,435.574c-1.652.5-3.319.92-4.953,1.483a63.734,63.734,0,0,1,4.131-4.926,22.73,22.73,0,0,1,2.3-2.1c1.271-.977,6.144-2.872,5.077,1.428C11.867,433.833,7.873,434.975,5.9,435.574Z" transform="translate(12.666 -427.583)" fill="#23274c"/>
                        <path id="Trazado_149283" data-name="Trazado 149283" d="M-11.133,435.561c3.157,1.672,6.927,1.917,10.38,2.547.358.065.57-.3.529-.6a.106.106,0,0,0,.068-.158,21.274,21.274,0,0,0-7.63-7.93c-1.882-1.09-4.923-1.539-6.092.857C-14.983,432.545-12.976,434.586-11.133,435.561Zm-1.556-2.983c-1.45-4.186,3.573-2.738,4.928-1.88a22.827,22.827,0,0,1,2.476,1.882,63.662,63.662,0,0,1,4.558,4.533c-1.678-.414-3.375-.68-5.067-1.031C-7.809,435.663-11.889,434.886-12.689,432.578Z" transform="translate(14.193 -427.683)" fill="#23274c"/>
                      </g>
                    </g>
                  </g>
                </g>
              </g>
              <g id="Grupo_85588" data-name="Grupo 85588">
                <path id="Trazado_149284" data-name="Trazado 149284" d="M.558,409.935l-42.322-1.794S-30.212,315.27-30,309.562c.555-14.808,10.4-110.412,10.4-110.412H32.09s-3.26,22.068-8.84,36.062a64.9,64.9,0,0,0-10.813,4.937S7.6,303.374,7.415,311.26C7.057,326.849.558,409.935.558,409.935Z" transform="translate(41.764 -199.15)" fill="#335991"/>
                <g id="Grupo_85587" data-name="Grupo 85587" transform="translate(2.338 5.52)">
                  <path id="Trazado_149285" data-name="Trazado 149285" d="M-.294,425.723c-6.6-.417-4.7-.39-11.3-.734-3.231-.168-24.463-1.254-27.5-.882a.07.07,0,0,0-.006.134c3,.629,24.247,1.344,27.48,1.45,6.608.217,4.713.082,11.323.225A.1.1,0,0,0-.294,425.723Z" transform="translate(39.152 -228.215)" fill="#23274c"/>
                  <path id="Trazado_149286" data-name="Trazado 149286" d="M-15.094,205.462c-1.92,24.078-3.889,48.156-6.093,72.211-2.21,24.137-4.8,48.248-7.947,72.281-1.76,13.428-3.71,32.34-5.793,45.721-.014.09.123.129.139.038,4.263-23.775,7.4-53.273,10.069-77.273s4.844-48.06,6.79-72.125c1.1-13.614,2.092-27.237,3.136-40.855C-14.778,205.266-15.079,205.269-15.094,205.462Z" transform="translate(38.71 -205.316)" fill="#23274c"/>
                  <g id="Grupo_85586" data-name="Grupo 85586" transform="translate(51.784 0.194)">
                    <path id="Trazado_149287" data-name="Trazado 149287" d="M31.425,238.356a80.283,80.283,0,0,0-12.66,5.9.143.143,0,0,0,.118.261c4.264-1.832,8.613-3.584,12.771-5.648A.279.279,0,0,0,31.425,238.356Z" transform="translate(-18.688 -208.967)" fill="#23274c"/>
                    <path id="Trazado_149288" data-name="Trazado 149288" d="M33.412,205.659c-.012-.148-.27-.181-.269-.021a141.99,141.99,0,0,1-.715,14.249c-.2,2.2-1.965,14.336-5.774,13.451-.637-.149-.963-.776-1.064-1.738a15.3,15.3,0,0,1,.506-3.723c.423-2.541.763-5.091.98-7.658a69.609,69.609,0,0,0-.155-14.361.123.123,0,0,0-.245.013A131.834,131.834,0,0,1,25.516,225.7c-.477,3.158-2.067,7.911,1.235,8.4,3.365.5,5.539-7.468,5.95-9.646A72.756,72.756,0,0,0,33.412,205.659Z" transform="translate(-19.319 -205.532)" fill="#23274c"/>
                    <path id="Trazado_149289" data-name="Trazado 149289" d="M26.85,236.923a20.4,20.4,0,0,0-.857,2.516,5.7,5.7,0,0,0-.355,2.069c.014.133.192.147.263.055a7.273,7.273,0,0,0,.885-2.013c.289-.778.6-1.551.863-2.337A.426.426,0,0,0,26.85,236.923Z" transform="translate(-19.414 -208.791)" fill="#23274c"/>
                  </g>
                  <path id="Trazado_149290" data-name="Trazado 149290" d="M5.938,209.919a6.775,6.775,0,0,0-.163-1.577.081.081,0,0,0-.154,0,6.277,6.277,0,0,0-.177,1.361c-.054.522-.123,1.043-.179,1.567a23.068,23.068,0,0,1-.558,3.171A11.275,11.275,0,0,1,1.8,219.672a15.156,15.156,0,0,1-4.919,3.239,56.372,56.372,0,0,1-6.312,1.81.08.08,0,0,0,.025.157,18.177,18.177,0,0,0,6.835-1.346,14.617,14.617,0,0,0,5.13-3.273,11.425,11.425,0,0,0,2.991-5.376,16.047,16.047,0,0,0,.41-3.181A14.615,14.615,0,0,0,5.938,209.919Z" transform="translate(36.047 -205.627)" fill="#23274c"/>
                </g>
              </g>
            </g>
          </g>
          <g id="Grupo_85617" data-name="Grupo 85617" transform="translate(4.259)">
            <g id="Grupo_85596" data-name="Grupo 85596" transform="translate(42.368 33.632)">
              <path id="Trazado_149291" data-name="Trazado 149291" d="M12.982,136.822c2.438,7.8,23.357,44.821,35.537,48.179,9.925,2.738,37.373-14.674,40.607-16.067C98,165.114,77.9,139.661,73.414,143.147c-7.5,5.825-17.5,15.55-19.079,15.024-5.555-1.849-23.1-19.3-34.2-28.274C13.435,124.481,10.286,128.2,12.982,136.822Z" transform="translate(-10.494 -118.132)" fill="#eb9481"/>
              <g id="Grupo_85591" data-name="Grupo 85591" transform="translate(0 8.268)">
                <path id="Trazado_149292" data-name="Trazado 149292" d="M24.642,166.617l18.522-17.4s-10.943-11.357-20.329-18.677-16.842-6.222-9.626,11.583S24.642,166.617,24.642,166.617Z" transform="translate(-10.316 -126.287)" fill="#ffc571"/>
                <path id="Trazado_149293" data-name="Trazado 149293" d="M24.205,164.437a203.294,203.294,0,0,0,15.8-15.088c.062-.059-.046-.15-.1-.088-1.218,1.289-10.148,9.174-15.815,15.08C24.024,164.409,24.133,164.5,24.205,164.437Z" transform="translate(-11.756 -128.69)" fill="#23274c"/>
                <path id="Trazado_149294" data-name="Trazado 149294" d="M13.207,142.12c7.218,17.8,11.432,24.5,11.432,24.5l13.02-12.236-22.253-27.9C10.339,125.3,8.1,129.536,13.207,142.12Z" transform="translate(-10.316 -126.288)" opacity="0.1"/>
              </g>
              <g id="Grupo_85595" data-name="Grupo 85595" transform="translate(58.915)">
                <g id="Grupo_85592" data-name="Grupo 85592">
                  <path id="Trazado_149295" data-name="Trazado 149295" d="M85.494,171.609c-3.389-.692-11.275-23.69-8.952-26.374a14.015,14.015,0,0,1,2.863-2.1l0-.011a50.3,50.3,0,0,0,7.1-12.858c1.873-5.563,4.016-14.038,7.045-13.143,4.421,1.292,3,12.335,1.8,18.623,3.3-1.108,6.245-1.752,8.1-1.5,6.153.842,11.7,22.774,6.281,26.017C104.5,163.388,88.883,172.3,85.494,171.609Z" transform="translate(-76.121 -117.053)" fill="#eb9481"/>
                </g>
                <g id="Grupo_85594" data-name="Grupo 85594" transform="translate(11.972 14.011)">
                  <path id="Trazado_149296" data-name="Trazado 149296" d="M95.386,136.5c-1.578,2.815,2.643,3.064,2.643,3.064s-6.162,1.106-6.667,4.638c-.477,3.406,4.632,3.526,5,3.539-.326.062-5.962,1.227-6.1,4.827-.145,3.743,5.006,2.983,5.338,2.933-.288.154-4.077,2.261-3.563,5.021.886,4.743,10.722-.376,14.4.954,0,0-.324,1.147-.329,1.345,0,0,8.068-1.541,9.755-4.4,1.415-2.4-1.526-3.937-1.526-3.937s3.216-1.172,3.417-4c.1-1.454-2.138-2.906-2.138-2.906A4.224,4.224,0,0,0,118.164,144c.024-2.019-2.224-3.161-2.224-3.161s1.969-2.134,1.323-4.2C115.971,132.457,98.771,130.476,95.386,136.5Z" transform="translate(-89.572 -132.702)" fill="#eb9481"/>
                  <g id="Grupo_85593" data-name="Grupo 85593" transform="translate(5.51 5.903)">
                    <path id="Trazado_149297" data-name="Trazado 149297" d="M116.479,141.3a.046.046,0,0,0,.028-.087,30.029,30.029,0,0,0-17.838-.99c-.186.052-.183.377.033.359A61.5,61.5,0,0,1,116.479,141.3Z" transform="translate(-95.949 -139.295)" fill="#23274c"/>
                    <path id="Trazado_149298" data-name="Trazado 149298" d="M116.365,149.079c.066.013.09-.1.021-.121a28.13,28.13,0,0,0-19.526.129c-.218.09-.322.387-.064.3C101.135,147.978,110.88,147.966,116.365,149.079Z" transform="translate(-95.751 -140.13)" fill="#23274c"/>
                    <path id="Trazado_149299" data-name="Trazado 149299" d="M95.78,158.205c6.165-2.261,12.434-2.317,18.882-1.449.084.011.091-.108.023-.137-3.038-1.284-7.205-1.408-10.456-1.231a17.3,17.3,0,0,0-8.528,2.6C95.6,158.054,95.649,158.253,95.78,158.205Z" transform="translate(-95.647 -140.973)" fill="#23274c"/>
                  </g>
                  <path id="Trazado_149300" data-name="Trazado 149300" d="M97.863,140.291c-.224.064.115.321-.107.39-.931.294-6.385,2.543-6.2,4.639.156,1.68,2.52,2.635,3.572,2.646l2.646.028-2.5.894a10.852,10.852,0,0,0-3.081,1.675,3.875,3.875,0,0,0-1.641,2.708,2.212,2.212,0,0,0,1.5,2.348,6.692,6.692,0,0,0,3.349.166l3.09-.53-2.734,1.505a10.173,10.173,0,0,0-2.1,1.529,4.192,4.192,0,0,0-1.285,2.049,1.992,1.992,0,0,0,.684,1.986,4.405,4.405,0,0,0,2.387.617,34.649,34.649,0,0,0,5.411-.51c.91-.125,1.822-.252,2.741-.336a6.542,6.542,0,0,1,2.746.177,7.055,7.055,0,0,0-2.715.075c-.9.151-1.794.346-2.691.54a29.529,29.529,0,0,1-5.5.81,5.149,5.149,0,0,1-2.886-.649,2.825,2.825,0,0,1-1.121-2.891,5.124,5.124,0,0,1,1.526-2.586,11.113,11.113,0,0,1,2.312-1.738l.355.975a7.68,7.68,0,0,1-3.958-.157,3.2,3.2,0,0,1-1.7-1.354,3.628,3.628,0,0,1-.47-2.091,4.887,4.887,0,0,1,2.077-3.429A11.744,11.744,0,0,1,95,147.988l.15.922c-1.337-.059-4.1-.84-4.665-3.415C90.241,142.03,96.668,140.49,97.863,140.291Z" transform="translate(-89.492 -133.496)" fill="#23274c"/>
                  <path id="Trazado_149301" data-name="Trazado 149301" d="M98.534,139.762a6.483,6.483,0,0,1-1.819-.783,1.5,1.5,0,0,1-.736-1.328,3.057,3.057,0,0,1,.76-1.558c.415-.5.876-1.006,1.373-1.51a5.164,5.164,0,0,0-1.877,1.017,3.02,3.02,0,0,0-1.158,2,2.146,2.146,0,0,0,.346,1.236,2.229,2.229,0,0,0,.953.759A3.467,3.467,0,0,0,98.534,139.762Z" transform="translate(-90.077 -132.899)" fill="#23274c"/>
                </g>
              </g>
            </g>
            <g id="Grupo_85598" data-name="Grupo 85598" transform="translate(12.864 41.988)">
              <g id="Grupo_85597" data-name="Grupo 85597">
                <path id="Trazado_149302" data-name="Trazado 149302" d="M-22.56,208.415c.151.158,63.048-1.826,63.6-2.492.768-.936-12.694-63.405-23.382-76.629-2.672-3.306-11.673-4.2-15.208-.529C-7.795,139.4-9.648,147.006-12.1,154.08c-1.812,5.241-3.88,14.132-5.686,23.233C-20.778,192.307-23.1,207.841-22.56,208.415Z" transform="translate(22.638 -126.386)" fill="#ffc571"/>
              </g>
              <path id="Trazado_149303" data-name="Trazado 149303" d="M18.7,150.978l-9.121.611.515,8.712,4.855,2.209,4.338-2.691Z" transform="translate(19.265 -128.961)" opacity="0.1"/>
            </g>
            <g id="Grupo_85603" data-name="Grupo 85603" transform="translate(0 43.387)">
              <g id="Grupo_85601" data-name="Grupo 85601" transform="translate(0 2.041)">
                <path id="Trazado_149304" data-name="Trazado 149304" d="M-2.471,133.81c-13.281,11.083-37.839,42.345-34.166,48.422C-28.3,196.016-11.059,210.5-3.864,214.85c3.106,1.877,21.462-19.473,18.807-22.3-3.185-3.394-25.1-19.264-24.913-20.476.2-1.33,9.085-16.883,13.991-29.7C10.111,126.462,3.07,129.186-2.471,133.81Z" transform="translate(37.006 -130.229)" fill="#eb9481"/>
                <g id="Grupo_85600" data-name="Grupo 85600" transform="translate(33.028 57.167)">
                  <path id="Trazado_149305" data-name="Trazado 149305" d="M6.989,194.359S18.02,194,25.245,194.1c4.031.057,10.933.772,13.875,2.168,4.4,2.09,21.47,13.636,18.759,17.836-2.453,3.8-15.859-7.983-15.859-7.983S56.6,216.816,52.8,220.85s-17.173-11.293-17.173-11.293,14.732,11.324,10.16,14.864C42.336,227.1,29.438,213.9,29.438,213.9s12.6,9.821,9.161,12.725c-3.8,3.21-16.465-8.227-16.465-8.227-9.975,5.913-17.122,5.2-22.134,3.142C-1.169,221.056,6.989,194.359,6.989,194.359Z" transform="translate(0.116 -194.081)" fill="#eb9481"/>
                  <g id="Grupo_85599" data-name="Grupo 85599" transform="translate(27.089 8.539)">
                    <path id="Trazado_149306" data-name="Trazado 149306" d="M42.325,203.626c11.34,7.058,14.738,13.993,14.611,13.827-3.015-3.921-8.832-8.831-10.479-10.178s-2.544-2.243-4.186-3.588C42.23,203.653,42.282,203.6,42.325,203.626Z" transform="translate(-31.41 -203.619)" fill="#23274c"/>
                    <path id="Trazado_149307" data-name="Trazado 149307" d="M36.024,209.576a45.449,45.449,0,0,1,12.421,10.239c.124.167.025.177-.133.04-2.047-1.77-10.209-8.567-12.33-10.23C35.948,209.6,35.988,209.557,36.024,209.576Z" transform="translate(-30.751 -204.242)" fill="#23274c"/>
                    <path id="Trazado_149308" data-name="Trazado 149308" d="M30.245,214.332a33.736,33.736,0,0,1,9.383,8.21c.132.158-.024.174-.18.032-3.067-2.788-5.454-5-9.283-8.122C30.1,214.4,30.171,214.284,30.245,214.332Z" transform="translate(-30.141 -204.74)" fill="#23274c"/>
                  </g>
                </g>
              </g>
              <g id="Grupo_85602" data-name="Grupo 85602" transform="translate(10.351)">
                <path id="Trazado_149309" data-name="Trazado 149309" d="M-25.445,155.076l23.039,10.734S4.074,151.432,7.385,140s-.476-17.949-14.328-4.637S-25.445,155.076-25.445,155.076Z" transform="translate(25.445 -127.949)" fill="#ffc571"/>
                <path id="Trazado_149310" data-name="Trazado 149310" d="M-20.869,154.335a203.126,203.126,0,0,0,19.815,9.211c.078.036.124-.1.043-.129-1.644-.663-12.243-6.1-19.81-9.224C-20.909,154.156-20.952,154.289-20.869,154.335Z" transform="translate(24.971 -130.696)" fill="#23274c"/>
                <path id="Trazado_149311" data-name="Trazado 149311" d="M.156,168.49c1.369-2.857,2.686-6.017,3.836-8.975.4-1.031.764-2.076,1.132-3.12.63-1.045,1.142-2.163,1.688-3.254.046-.092-.1-.154-.146-.064-.329.6-.672,1.2-1,1.8q.728-2.159,1.383-4.341c.014-.048-.055-.081-.073-.033-1.116,2.948-2.29,5.874-3.479,8.793s-2.287,5.895-3.558,8.778c0,.007-2.748-1.256-2.757-1.2S.146,168.513.156,168.49Z" transform="translate(23.076 -130.308)" fill="#23274c"/>
              </g>
            </g>
            <g id="Grupo_85616" data-name="Grupo 85616" transform="translate(29.663)">
              <g id="Grupo_85605" data-name="Grupo 85605" transform="translate(8.205 31.548)">
                <g id="Grupo_85604" data-name="Grupo 85604" transform="translate(0)">
                  <path id="Trazado_149312" data-name="Trazado 149312" d="M17.528,135.989c-2.605.511-8.795-3.574-11.543-7.388-.187-.262-.124-3.273-.221-6.935-.067-2.221-.2-4.694-.474-6.941L19.813,116.4a36.079,36.079,0,0,0-.29,8.8,5.116,5.116,0,0,0,.211.911c.01.041.029.091.039.15C20.276,127.975,21.61,135.188,17.528,135.989Z" transform="translate(-5.29 -114.725)" fill="#eb9481"/>
                </g>
                <path id="Trazado_149313" data-name="Trazado 149313" d="M19.855,126.124a1.4,1.4,0,0,1,.043.15,8.924,8.924,0,0,1-1.443.257c-8.037.812-11.211-8.71-11.992-11.671l13.477,1.55a36.409,36.409,0,0,0-.3,8.807A6.005,6.005,0,0,0,19.855,126.124Z" transform="translate(-5.413 -114.739)" fill="#23274c"/>
              </g>
              <g id="Grupo_85615" data-name="Grupo 85615" transform="translate(0)">
                <g id="Grupo_85606" data-name="Grupo 85606" transform="translate(5.151 4.343)">
                  <path id="Trazado_149314" data-name="Trazado 149314" d="M2.313,92.524c-1.524,5.041,1.173,19.585,4.764,22.82,5.205,4.69,13.71,5.118,17.69-1.135,3.858-6.062.007-24.954-4-27.892C14.861,81.99,4.565,85.078,2.313,92.524Z" transform="translate(-1.879 -84.339)" fill="#eb9481"/>
                </g>
                <g id="Grupo_85612" data-name="Grupo 85612" transform="translate(15.412 15.013)">
                  <g id="Grupo_85607" data-name="Grupo 85607" transform="translate(1.503 4.736)">
                    <path id="Trazado_149315" data-name="Trazado 149315" d="M17.252,102.5c-.015-.035-.068.062-.059.1.22.972.309,2.123-.514,2.619-.025.015-.013.064.019.053C17.749,104.916,17.616,103.39,17.252,102.5Z" transform="translate(-15.19 -101.646)" fill="#23274c"/>
                    <path id="Trazado_149316" data-name="Trazado 149316" d="M16.008,101.552c-1.6.184-1.109,3.364.37,3.193C17.834,104.577,17.347,101.4,16.008,101.552Z" transform="translate(-15.018 -101.547)" fill="#23274c"/>
                  </g>
                  <g id="Grupo_85608" data-name="Grupo 85608" transform="translate(9.354 3.309)">
                    <path id="Trazado_149317" data-name="Trazado 149317" d="M23.791,101.284c0-.039.084.034.09.075.119.989.423,2.1,1.364,2.293.03.006.034.056,0,.056C24.133,103.722,23.746,102.24,23.791,101.284Z" transform="translate(-23.787 -100.091)" fill="#23274c"/>
                    <path id="Trazado_149318" data-name="Trazado 149318" d="M24.513,99.982c1.565-.363,2.176,2.8.725,3.132C23.811,103.444,23.2,100.286,24.513,99.982Z" transform="translate(-23.787 -99.953)" fill="#23274c"/>
                  </g>
                  <path id="Trazado_149319" data-name="Trazado 149319" d="M14.355,99.854a12.508,12.508,0,0,0,1.165-.622,2.132,2.132,0,0,0,1.067-.861.679.679,0,0,0-.233-.8,1.687,1.687,0,0,0-1.706.085A2.477,2.477,0,0,0,13.4,98.935.725.725,0,0,0,14.355,99.854Z" transform="translate(-13.339 -96.374)" fill="#23274c"/>
                  <path id="Trazado_149320" data-name="Trazado 149320" d="M25.293,98.187a12.665,12.665,0,0,1-1.314-.134,2.134,2.134,0,0,1-1.313-.393.68.68,0,0,1-.087-.826,1.686,1.686,0,0,1,1.612-.567,2.477,2.477,0,0,1,1.639.706A.726.726,0,0,1,25.293,98.187Z" transform="translate(-14.296 -96.257)" fill="#23274c"/>
                  <path id="Trazado_149321" data-name="Trazado 149321" d="M17.856,112.87c.27.194.555.476.917.451a2.621,2.621,0,0,0,1.021-.41.035.035,0,0,1,.05.044,1.34,1.34,0,0,1-1.168.726,1.06,1.06,0,0,1-.908-.752C17.744,112.874,17.816,112.841,17.856,112.87Z" transform="translate(-13.803 -97.995)" fill="#23274c"/>
                  <g id="Grupo_85610" data-name="Grupo 85610" transform="translate(4.607 0.421)">
                    <g id="Grupo_85609" data-name="Grupo 85609">
                      <path id="Trazado_149322" data-name="Trazado 149322" d="M18.515,108.074a3.4,3.4,0,0,0,2.467,1.149,4.23,4.23,0,0,0,1.214-.13,1.166,1.166,0,0,0,.227-.061c.071-.02.134-.038.211-.066a.251.251,0,0,0,.164-.251l0-.007a.474.474,0,0,0-.024-.1l0-.008-.015-.086c-.095-.761-.345-1.9-.345-1.9.3.1,1.808.516,1.725.123a51.119,51.119,0,0,0-2.855-9.949.093.093,0,0,0-.176.053c.547,3.15,1.645,6.182,2.245,9.337a5.932,5.932,0,0,0-1.656-.238c-.1.047.523,2.2.538,2.544a.138.138,0,0,1,0,.038,4.707,4.707,0,0,1-3.637-.546C18.512,107.926,18.444,108,18.515,108.074Z" transform="translate(-18.485 -96.727)" fill="#23274c"/>
                    </g>
                  </g>
                  <g id="Grupo_85611" data-name="Grupo 85611" transform="translate(4.424 11.74)">
                    <path id="Trazado_149323" data-name="Trazado 149323" d="M21.669,110.1a4.027,4.027,0,0,1-1.4,1.478,1.816,1.816,0,0,1-1.077.235c-.817-.087-.948-.8-.9-1.445a4.344,4.344,0,0,1,.208-1A5.214,5.214,0,0,0,21.669,110.1Z" transform="translate(-18.281 -109.37)" fill="#23274c"/>
                    <path id="Trazado_149324" data-name="Trazado 149324" d="M20.265,111.7a1.816,1.816,0,0,1-1.077.235c-.817-.087-.948-.8-.9-1.445A1.87,1.87,0,0,1,20.265,111.7Z" transform="translate(-18.281 -109.487)" fill="#d8702e"/>
                  </g>
                </g>
                <g id="Grupo_85613" data-name="Grupo 85613">
                  <path id="Trazado_149325" data-name="Trazado 149325" d="M3.142,103.183c2.519-.257,2.015-6.419,2.015-6.419s3.824-.855,5.485-6.22c0,0,5.088,2.9,9.214,1.971,6.467-1.459,5.933-9.917,3.422-11.539-3.558-2.3-9.564,1.521-9.564,1.521S4.286,80.3,1.779,86.714a4.784,4.784,0,0,0-4.24,4.959C-2.554,96.275,1.264,103.375,3.142,103.183Z" transform="translate(3.727 -79.567)" fill="#23274c"/>
                  <path id="Trazado_149326" data-name="Trazado 149326" d="M5.064,98.529a8.59,8.59,0,0,0,4.755-2.865A6.428,6.428,0,0,0,11.062,89.9c-.036-.1.138-.151.166-.044a7.382,7.382,0,0,1-.774,6.226,5.987,5.987,0,0,1-5.367,2.634C4.986,98.7,4.954,98.555,5.064,98.529Z" transform="translate(2.946 -80.567)" fill="#23274c"/>
                  <path id="Trazado_149327" data-name="Trazado 149327" d="M-3.055,89.784c1.213-1.68,3.163-2.017,5.1-2.031.111,0,.108.18,0,.172a5.391,5.391,0,0,0-4.707,2.818c-.909,1.569-.607,3.486-.142,5.158a13.558,13.558,0,0,0,5.743,7.834.043.043,0,0,1-.044.074,13.543,13.543,0,0,1-6.436-8.572C-3.949,93.476-4.173,91.335-3.055,89.784Z" transform="translate(3.875 -80.353)" fill="#23274c"/>
                  <path id="Trazado_149328" data-name="Trazado 149328" d="M15.332,82.737a6.368,6.368,0,0,1,3.463-2.894,7.625,7.625,0,0,1,5.43.322,4.3,4.3,0,0,1,2.409,3.565,7.605,7.605,0,0,1-1.5,4.88.038.038,0,0,1-.065-.039,7.576,7.576,0,0,0,1.147-4.425,3.957,3.957,0,0,0-2.476-3.4c-2.722-1.075-6.625-.714-8.261,2.079A.084.084,0,0,1,15.332,82.737Z" transform="translate(1.865 -79.488)" fill="#23274c"/>
                </g>
                <g id="Grupo_85614" data-name="Grupo 85614" transform="translate(2.453 20.765)">
                  <path id="Trazado_149329" data-name="Trazado 149329" d="M5.138,106.3s-3.4-4.631-5.5-3.409.52,7.984,3.048,8.861A2.548,2.548,0,0,0,6.065,110.3Z" transform="translate(1.135 -102.681)" fill="#eb9481"/>
                  <path id="Trazado_149330" data-name="Trazado 149330" d="M.615,105.055a.035.035,0,0,0-.012.067c1.774.672,2.735,2.28,3.422,3.955a1.409,1.409,0,0,0-2.115-.338c-.045.034,0,.1.05.093a1.568,1.568,0,0,1,1.738.509,7.536,7.536,0,0,1,.858,1.376c.086.156.368.065.3-.115l-.015-.04C4.838,108.322,3.026,105.226.615,105.055Z" transform="translate(0.955 -102.929)" fill="#23274c"/>
                </g>
              </g>
            </g>
          </g>
        </g>
        <g id="Grupo_85620" data-name="Grupo 85620" transform="translate(64.433)">
          <rect id="Rectángulo_32865" data-name="Rectángulo 32865" width="46.78" height="27.296" rx="7.596" fill="#fff"/>
          <path id="Trazado_149331" data-name="Trazado 149331" d="M43.951,94.335l-6.617,6.617V94.335Z" transform="translate(-30.951 -67.039)" fill="#fff"/>
          <g id="Grupo_85619" data-name="Grupo 85619" transform="translate(10.112 11.432)">
            <path id="Trazado_149332" data-name="Trazado 149332" d="M66.209,78.832a2.216,2.216,0,1,0,2.217-2.216A2.217,2.217,0,0,0,66.209,78.832Z" transform="translate(-44.086 -76.616)" fill="#23274c"/>
            <path id="Trazado_149333" data-name="Trazado 149333" d="M53.854,78.832a2.216,2.216,0,1,0,2.217-2.216A2.217,2.217,0,0,0,53.854,78.832Z" transform="translate(-42.793 -76.616)" fill="#23274c"/>
            <path id="Trazado_149334" data-name="Trazado 149334" d="M41.5,78.832a2.217,2.217,0,1,0,2.217-2.216A2.217,2.217,0,0,0,41.5,78.832Z" transform="translate(-41.499 -76.616)" fill="#23274c"/>
          </g>
        </g>
      </g>
    </g>
    <g id="Enmascarar_grupo_31" data-name="Enmascarar grupo 31" transform="translate(564.591 1119.266)" clip-path="url(#clip-path-2)">
      <g id="Grupo_85635" data-name="Grupo 85635" transform="translate(-2.269 -0.178)">
        <g id="Grupo_85623" data-name="Grupo 85623" transform="translate(0 1.741)">
          <rect id="Rectángulo_32866" data-name="Rectángulo 32866" width="43.12" height="1.43" transform="translate(0 17.096)" fill="#fff"/>
          <rect id="Rectángulo_32867" data-name="Rectángulo 32867" width="43.12" height="1.741" transform="translate(0 13.926)" fill="#fff"/>
          <rect id="Rectángulo_32868" data-name="Rectángulo 32868" width="43.12" height="1.741" transform="translate(0 10.444)" fill="#fff"/>
          <rect id="Rectángulo_32869" data-name="Rectángulo 32869" width="43.12" height="1.741" transform="translate(0 6.963)" fill="#fff"/>
          <rect id="Rectángulo_32870" data-name="Rectángulo 32870" width="43.12" height="1.741" transform="translate(0 3.481)" fill="#fff"/>
          <rect id="Rectángulo_32871" data-name="Rectángulo 32871" width="43.12" height="1.741" fill="#fff"/>
        </g>
        <g id="Grupo_85624" data-name="Grupo 85624" transform="translate(0 0)">
          <rect id="Rectángulo_32872" data-name="Rectángulo 32872" width="43.12" height="1.43" transform="translate(0 20.267)" fill="red"/>
          <rect id="Rectángulo_32873" data-name="Rectángulo 32873" width="43.12" height="1.43" transform="translate(0 17.407)" fill="red"/>
          <rect id="Rectángulo_32874" data-name="Rectángulo 32874" width="43.12" height="1.741" transform="translate(0 13.926)" fill="red"/>
          <rect id="Rectángulo_32875" data-name="Rectángulo 32875" width="43.12" height="1.741" transform="translate(0 10.444)" fill="red"/>
          <rect id="Rectángulo_32876" data-name="Rectángulo 32876" width="43.12" height="1.741" transform="translate(0 6.963)" fill="red"/>
          <rect id="Rectángulo_32877" data-name="Rectángulo 32877" width="43.12" height="1.741" transform="translate(0 3.481)" fill="red"/>
          <rect id="Rectángulo_32878" data-name="Rectángulo 32878" width="43.12" height="1.741" fill="red"/>
        </g>
        <rect id="Rectángulo_32879" data-name="Rectángulo 32879" width="14.516" height="12.185" transform="translate(0 0)" fill="#4d59a1"/>
        <g id="Grupo_85634" data-name="Grupo 85634" transform="translate(0.776 0.137)">
          <g id="Grupo_85625" data-name="Grupo 85625" transform="translate(0.014)">
            <path id="Trazado_149335" data-name="Trazado 149335" d="M342.459-530.891l.126.382h.406l-.329.236.126.382-.329-.236-.329.236.126-.382-.329-.236h.406Z" transform="translate(-341.927 530.891)" fill="#fff"/>
            <path id="Trazado_149336" data-name="Trazado 149336" d="M349.491-530.891l.126.382h.406l-.329.236.126.382-.329-.236-.329.236.126-.382-.329-.236h.406Z" transform="translate(-346.669 530.891)" fill="#fff"/>
            <path id="Trazado_149337" data-name="Trazado 149337" d="M356.522-530.891l.126.382h.406l-.329.236.126.382-.329-.236-.329.236.126-.382-.329-.236h.406Z" transform="translate(-351.411 530.891)" fill="#fff"/>
            <path id="Trazado_149338" data-name="Trazado 149338" d="M363.554-530.891l.126.382h.406l-.329.236.126.382-.329-.236-.329.236.126-.382-.329-.236h.406Z" transform="translate(-356.152 530.891)" fill="#fff"/>
            <path id="Trazado_149339" data-name="Trazado 149339" d="M370.586-530.891l.126.382h.406l-.329.236.126.382-.329-.236-.329.236.126-.382-.329-.236h.406Z" transform="translate(-360.894 530.891)" fill="#fff"/>
            <path id="Trazado_149340" data-name="Trazado 149340" d="M377.617-530.891l.126.382h.406l-.329.236.126.382-.329-.236-.329.236.126-.382-.329-.236h.406Z" transform="translate(-365.636 530.891)" fill="#fff"/>
          </g>
          <g id="Grupo_85626" data-name="Grupo 85626" transform="translate(0 2.671)">
            <path id="Trazado_149341" data-name="Trazado 149341" d="M342.416-522.691l.126.382h.406l-.329.236.126.381-.329-.236-.329.236.126-.381-.329-.236h.406Z" transform="translate(-341.884 522.691)" fill="#fff"/>
            <path id="Trazado_149342" data-name="Trazado 149342" d="M349.447-522.691l.126.382h.407l-.329.236.126.381-.329-.236-.329.236.126-.381-.329-.236h.406Z" transform="translate(-346.625 522.691)" fill="#fff"/>
            <path id="Trazado_149343" data-name="Trazado 149343" d="M356.479-522.691l.126.382h.406l-.329.236.126.381-.329-.236-.329.236.126-.381-.329-.236h.406Z" transform="translate(-351.367 522.691)" fill="#fff"/>
            <path id="Trazado_149344" data-name="Trazado 149344" d="M363.511-522.691l.126.382h.407l-.329.236.126.381-.329-.236-.329.236.126-.381-.329-.236h.407Z" transform="translate(-356.109 522.691)" fill="#fff"/>
            <path id="Trazado_149345" data-name="Trazado 149345" d="M370.542-522.691l.126.382h.406l-.329.236.126.381-.329-.236-.329.236.126-.381-.329-.236h.406Z" transform="translate(-360.851 522.691)" fill="#fff"/>
            <path id="Trazado_149346" data-name="Trazado 149346" d="M377.574-522.691l.126.382h.406l-.329.236.126.381-.329-.236-.329.236.126-.381-.329-.236h.406Z" transform="translate(-365.592 522.691)" fill="#fff"/>
          </g>
          <g id="Grupo_85627" data-name="Grupo 85627" transform="translate(0 5.456)">
            <path id="Trazado_149347" data-name="Trazado 149347" d="M342.416-514.138l.126.382h.406l-.329.236.126.382-.329-.236-.329.236.126-.382-.329-.236h.406Z" transform="translate(-341.884 514.138)" fill="#fff"/>
            <path id="Trazado_149348" data-name="Trazado 149348" d="M349.447-514.138l.126.382h.407l-.329.236.126.382-.329-.236-.329.236.126-.382-.329-.236h.406Z" transform="translate(-346.625 514.138)" fill="#fff"/>
            <path id="Trazado_149349" data-name="Trazado 149349" d="M356.479-514.138l.126.382h.406l-.329.236.126.382-.329-.236-.329.236.126-.382-.329-.236h.406Z" transform="translate(-351.367 514.138)" fill="#fff"/>
            <path id="Trazado_149350" data-name="Trazado 149350" d="M363.511-514.138l.126.382h.407l-.329.236.126.382-.329-.236-.329.236.126-.382-.329-.236h.407Z" transform="translate(-356.109 514.138)" fill="#fff"/>
            <path id="Trazado_149351" data-name="Trazado 149351" d="M370.542-514.138l.126.382h.406l-.329.236.126.382-.329-.236-.329.236.126-.382-.329-.236h.406Z" transform="translate(-360.851 514.138)" fill="#fff"/>
            <path id="Trazado_149352" data-name="Trazado 149352" d="M377.574-514.138l.126.382h.406l-.329.236.126.382-.329-.236-.329.236.126-.382-.329-.236h.406Z" transform="translate(-365.592 514.138)" fill="#fff"/>
          </g>
          <g id="Grupo_85628" data-name="Grupo 85628" transform="translate(0 8.278)">
            <path id="Trazado_149353" data-name="Trazado 149353" d="M342.416-505.471l.126.382h.406l-.329.236.126.382-.329-.236-.329.236.126-.382-.329-.236h.406Z" transform="translate(-341.884 505.471)" fill="#fff"/>
            <path id="Trazado_149354" data-name="Trazado 149354" d="M349.447-505.471l.126.382h.407l-.329.236.126.382-.329-.236-.329.236.126-.382-.329-.236h.406Z" transform="translate(-346.625 505.471)" fill="#fff"/>
            <path id="Trazado_149355" data-name="Trazado 149355" d="M356.479-505.471l.126.382h.406l-.329.236.126.382-.329-.236-.329.236.126-.382-.329-.236h.406Z" transform="translate(-351.367 505.471)" fill="#fff"/>
            <path id="Trazado_149356" data-name="Trazado 149356" d="M363.511-505.471l.126.382h.407l-.329.236.126.382-.329-.236-.329.236.126-.382-.329-.236h.407Z" transform="translate(-356.109 505.471)" fill="#fff"/>
            <path id="Trazado_149357" data-name="Trazado 149357" d="M370.542-505.471l.126.382h.406l-.329.236.126.382-.329-.236-.329.236.126-.382-.329-.236h.406Z" transform="translate(-360.851 505.471)" fill="#fff"/>
            <path id="Trazado_149358" data-name="Trazado 149358" d="M377.574-505.471l.126.382h.406l-.329.236.126.382-.329-.236-.329.236.126-.382-.329-.236h.406Z" transform="translate(-365.592 505.471)" fill="#fff"/>
          </g>
          <g id="Grupo_85629" data-name="Grupo 85629" transform="translate(0 10.438)">
            <path id="Trazado_149359" data-name="Trazado 149359" d="M342.416-498.84l.126.382h.406l-.329.236.126.382-.329-.236-.329.236.126-.382-.329-.236h.406Z" transform="translate(-341.884 498.84)" fill="#fff"/>
            <path id="Trazado_149360" data-name="Trazado 149360" d="M349.447-498.84l.126.382h.407l-.329.236.126.382-.329-.236-.329.236.126-.382-.329-.236h.406Z" transform="translate(-346.625 498.84)" fill="#fff"/>
            <path id="Trazado_149361" data-name="Trazado 149361" d="M356.479-498.84l.126.382h.406l-.329.236.126.382-.329-.236-.329.236.126-.382-.329-.236h.406Z" transform="translate(-351.367 498.84)" fill="#fff"/>
            <path id="Trazado_149362" data-name="Trazado 149362" d="M363.511-498.84l.126.382h.407l-.329.236.126.382-.329-.236-.329.236.126-.382-.329-.236h.407Z" transform="translate(-356.109 498.84)" fill="#fff"/>
            <path id="Trazado_149363" data-name="Trazado 149363" d="M370.542-498.84l.126.382h.406l-.329.236.126.382-.329-.236-.329.236.126-.382-.329-.236h.406Z" transform="translate(-360.851 498.84)" fill="#fff"/>
            <path id="Trazado_149364" data-name="Trazado 149364" d="M377.574-498.84l.126.382h.406l-.329.236.126.382-.329-.236-.329.236.126-.382-.329-.236h.406Z" transform="translate(-365.592 498.84)" fill="#fff"/>
          </g>
          <g id="Grupo_85630" data-name="Grupo 85630" transform="translate(1.156 1.35)">
            <path id="Trazado_149365" data-name="Trazado 149365" d="M345.966-526.745l.126.382h.406l-.329.236.125.381-.329-.236-.329.236.126-.381-.329-.236h.406Z" transform="translate(-345.434 526.745)" fill="#fff"/>
            <path id="Trazado_149366" data-name="Trazado 149366" d="M352.981-526.745l.126.382h.406l-.329.236.126.381-.329-.236-.329.236.126-.381-.329-.236h.407Z" transform="translate(-350.164 526.745)" fill="#fff"/>
            <path id="Trazado_149367" data-name="Trazado 149367" d="M359.995-526.745l.126.382h.406l-.329.236.126.381-.329-.236-.329.236.126-.381-.329-.236h.406Z" transform="translate(-354.894 526.745)" fill="#fff"/>
            <path id="Trazado_149368" data-name="Trazado 149368" d="M367.009-526.745l.126.382h.406l-.329.236.126.381-.329-.236-.329.236.126-.381-.329-.236h.406Z" transform="translate(-359.624 526.745)" fill="#fff"/>
            <path id="Trazado_149369" data-name="Trazado 149369" d="M374.024-526.745l.126.382h.406l-.329.236.126.381-.329-.236-.329.236.126-.381-.329-.236h.406Z" transform="translate(-364.354 526.745)" fill="#fff"/>
          </g>
          <g id="Grupo_85631" data-name="Grupo 85631" transform="translate(1.156 4.086)">
            <path id="Trazado_149370" data-name="Trazado 149370" d="M345.966-518.344l.126.382h.406l-.329.236.125.382-.329-.236-.329.236.126-.382-.329-.236h.406Z" transform="translate(-345.434 518.344)" fill="#fff"/>
            <path id="Trazado_149371" data-name="Trazado 149371" d="M352.981-518.344l.126.382h.406l-.329.236.126.382-.329-.236-.329.236.126-.382-.329-.236h.407Z" transform="translate(-350.164 518.344)" fill="#fff"/>
            <path id="Trazado_149372" data-name="Trazado 149372" d="M359.995-518.344l.126.382h.406l-.329.236.126.382-.329-.236-.329.236.126-.382-.329-.236h.406Z" transform="translate(-354.894 518.344)" fill="#fff"/>
            <path id="Trazado_149373" data-name="Trazado 149373" d="M367.009-518.344l.126.382h.406l-.329.236.126.382-.329-.236-.329.236.126-.382-.329-.236h.406Z" transform="translate(-359.624 518.344)" fill="#fff"/>
            <path id="Trazado_149374" data-name="Trazado 149374" d="M374.024-518.344l.126.382h.406l-.329.236.126.382-.329-.236-.329.236.126-.382-.329-.236h.406Z" transform="translate(-364.354 518.344)" fill="#fff"/>
          </g>
          <g id="Grupo_85632" data-name="Grupo 85632" transform="translate(1.156 6.796)">
            <path id="Trazado_149375" data-name="Trazado 149375" d="M345.966-510.024l.126.382h.406l-.329.236.125.382-.329-.236-.329.236.126-.382-.329-.236h.406Z" transform="translate(-345.434 510.024)" fill="#fff"/>
            <path id="Trazado_149376" data-name="Trazado 149376" d="M352.981-510.024l.126.382h.406l-.329.236.126.382-.329-.236-.329.236.126-.382-.329-.236h.407Z" transform="translate(-350.164 510.024)" fill="#fff"/>
            <path id="Trazado_149377" data-name="Trazado 149377" d="M359.995-510.024l.126.382h.406l-.329.236.126.382-.329-.236-.329.236.126-.382-.329-.236h.406Z" transform="translate(-354.894 510.024)" fill="#fff"/>
            <path id="Trazado_149378" data-name="Trazado 149378" d="M367.009-510.024l.126.382h.406l-.329.236.126.382-.329-.236-.329.236.126-.382-.329-.236h.406Z" transform="translate(-359.624 510.024)" fill="#fff"/>
            <path id="Trazado_149379" data-name="Trazado 149379" d="M374.024-510.024l.126.382h.406l-.329.236.126.382-.329-.236-.329.236.126-.382-.329-.236h.406Z" transform="translate(-364.354 510.024)" fill="#fff"/>
          </g>
          <g id="Grupo_85633" data-name="Grupo 85633" transform="translate(1.228 9.439)">
            <path id="Trazado_149380" data-name="Trazado 149380" d="M346.187-501.908l.126.382h.406l-.329.236.126.382-.329-.236-.329.236.126-.382-.329-.236h.406Z" transform="translate(-345.655 501.908)" fill="#fff"/>
            <path id="Trazado_149381" data-name="Trazado 149381" d="M353.2-501.908l.126.382h.406l-.329.236.126.382-.329-.236-.329.236.126-.382-.329-.236h.406Z" transform="translate(-350.385 501.908)" fill="#fff"/>
            <path id="Trazado_149382" data-name="Trazado 149382" d="M360.215-501.908l.126.382h.406l-.329.236.126.382-.329-.236-.329.236.126-.382-.329-.236h.406Z" transform="translate(-355.115 501.908)" fill="#fff"/>
            <path id="Trazado_149383" data-name="Trazado 149383" d="M367.23-501.908l.126.382h.406l-.329.236.126.382-.329-.236-.329.236.126-.382-.329-.236h.406Z" transform="translate(-359.845 501.908)" fill="#fff"/>
            <path id="Trazado_149384" data-name="Trazado 149384" d="M374.244-501.908l.126.382h.406l-.329.236.126.382-.329-.236-.329.236.126-.382-.329-.236h.406Z" transform="translate(-364.575 501.908)" fill="#fff"/>
          </g>
        </g>
      </g>
    </g>
  </g>
</svg>
