<svg xmlns="http://www.w3.org/2000/svg" width="89.973" height="90" viewBox="0 0 89.973 90">
  <g id="Grupo_110595" data-name="Grupo 110595" transform="translate(849.667 -766.25)">
    <path id="Trazado_169720" data-name="Trazado 169720" d="M-849.667,838.327v-3.163c.183-.053.153-.214.188-.35a8.034,8.034,0,0,1,4.591-5.623,1.283,1.283,0,0,0,.866-1.42c-.023-17.126.034-34.252-.046-51.378a10.023,10.023,0,0,1,10.091-10.143c19.585.091,39.17.039,58.755.029a9.261,9.261,0,0,1,4.079.82,9.443,9.443,0,0,1,5.8,9.026q.048,25.909.015,51.818c0,.445-.082.829.529,1.1a8.207,8.207,0,0,1,4.916,9.426,8.354,8.354,0,0,1-8.333,6.527c-1.075.005-2.151,0-3.275,0,.086.331.148.582.215.831a8.267,8.267,0,0,1-3.693,9.239,14.6,14.6,0,0,1-3.007,1.188h-2.811c-.114-.289-.4-.19-.606-.249a8.283,8.283,0,0,1-5.851-10.314c.178-.655.04-.7-.536-.7q-16.9.019-33.8,0c-.565,0-.723.035-.542.7a8.277,8.277,0,0,1-4.778,9.941c-.6.247-1.234.419-1.853.625h-2.987c-.159-.308-.49-.26-.747-.34a8.04,8.04,0,0,1-4.117-2.824,8.225,8.225,0,0,1-1.25-8.1c-1.256,0-2.445.017-3.634,0a8.349,8.349,0,0,1-7.838-5.911C-849.409,838.82-849.355,838.485-849.667,838.327Zm17.952-9.982a9.339,9.339,0,0,1-1.04-4.075c-.024-8.639-.083-17.279.016-25.917a9.554,9.554,0,0,1,8.852-9.437c2.451-.245,4.916-.07,7.375-.078.59,0,.734-.173.728-.741-.029-2.46-.016-4.92-.012-7.379,0-2.174,1-3.174,3.143-3.174q7.995,0,15.989,0c2.047,0,3.081,1.016,3.089,3.052.009,2.489.023,4.979-.012,7.467-.009.623.178.785.784.773,2.02-.036,4.041-.021,6.062-.012a9.931,9.931,0,0,1,5.126,1.257,9.646,9.646,0,0,1,5.01,8.763c.031,7.614,0,15.228.016,22.842,0,2.254.046,4.5-1.077,6.659,2.155,0,4.2-.03,6.243.017.665.015.817-.168.817-.823q-.029-25.565-.014-51.131a5.627,5.627,0,0,0-.262-1.811,4.473,4.473,0,0,0-4.617-3.039q-29.035,0-58.071,0c-3.443,0-5.175,1.729-5.175,5.166q0,25.3,0,50.6a4.676,4.676,0,0,1,0,.527c-.045.392.135.5.5.5C-836.109,828.339-833.972,828.345-831.715,828.345Zm15.591-17.078c0,5.388.014,10.776-.016,16.164,0,.72.171.933.913.93q10.542-.043,21.084,0c.743,0,.915-.211.913-.93q-.035-16.164,0-32.329c0-.72-.171-.933-.913-.93q-10.542.043-21.084,0c-.743,0-.917.211-.913.93C-816.111,800.491-816.124,805.88-816.124,811.268Zm11.436,22.426q-17.964,0-35.929,0a9.645,9.645,0,0,0-1.315.056,2.944,2.944,0,0,0-2.373,3.575c.415,1.6,1.55,2.371,3.517,2.371q36.1,0,72.21,0a5.943,5.943,0,0,0,1.217-.116,2.935,2.935,0,0,0,2.062-4.208,3.138,3.138,0,0,0-3.2-1.686Q-786.592,833.709-804.689,833.694Zm16.748-22.515v5.444c0,3.629,0,7.259.009,10.888,0,.3-.207.792.364.82a5.605,5.605,0,0,0,3.784-.766c1.586-1.146,1.881-2.781,1.878-4.575q-.017-11.723-.008-23.445a8.027,8.027,0,0,0-.2-2.178,4.288,4.288,0,0,0-4.229-3.177c-1.6-.032-1.6-.032-1.6,1.534Zm-33.488.183v-4.039q0-6.147-.008-12.294c0-.33.194-.778-.446-.847-3.748-.4-5.577,2.049-5.554,4.74.071,8.224.024,16.45.029,24.675a5.377,5.377,0,0,0,.167,1.65c.659,2.088,2.27,3.086,4.905,3.117.737.009.928-.206.924-.933C-821.442,822.075-821.429,816.719-821.429,811.362Zm16.734-22.54c1.724,0,3.449-.015,5.173.01.467.007.667-.071.655-.605-.037-1.577-.032-3.156,0-4.734.01-.5-.135-.642-.636-.639q-5.173.031-10.346,0c-.474,0-.664.1-.653.621q.05,2.366,0,4.734c-.011.506.147.631.636.623C-808.143,788.8-806.418,788.822-804.694,788.822Zm-22.478,59.1a2.843,2.843,0,0,0-2.9-2.927,3.019,3.019,0,0,0-3.04,2.979,3.1,3.1,0,0,0,3.042,3A2.879,2.879,0,0,0-827.172,847.925Zm44.972-.032a2.884,2.884,0,0,0,2.869,3.084,3.1,3.1,0,0,0,3.072-2.967A3.011,3.011,0,0,0-779.264,845,2.839,2.839,0,0,0-782.2,847.893Z" fill="#0a0707"/>
    <path id="Trazado_169721" data-name="Trazado 169721" d="M-706.881,902.255c0-5.388.014-10.776-.016-16.164,0-.72.171-.933.914-.93q10.542.043,21.084,0c.743,0,.915.21.913.93q-.035,16.164,0,32.329c0,.72-.171.933-.913.93q-10.541-.043-21.084,0c-.743,0-.917-.21-.914-.93C-706.867,913.031-706.881,907.643-706.881,902.255Z" transform="translate(-109.244 -90.987)" fill="#ffb74d"/>
    <path id="Trazado_169722" data-name="Trazado 169722" d="M-787.5,1053.426q18.1,0,36.193-.009a3.138,3.138,0,0,1,3.2,1.686,2.935,2.935,0,0,1-2.062,4.208,5.939,5.939,0,0,1-1.217.116q-36.1.008-72.21,0c-1.967,0-3.1-.769-3.517-2.371a2.944,2.944,0,0,1,2.373-3.575,9.646,9.646,0,0,1,1.315-.056Q-805.461,1053.424-787.5,1053.426Z" transform="translate(-17.192 -219.733)" fill="#111e61"/>
    <path id="Trazado_169723" data-name="Trazado 169723" d="M-586.9,902.2V886.745c0-1.566,0-1.566,1.6-1.534a4.288,4.288,0,0,1,4.229,3.177,8.024,8.024,0,0,1,.2,2.178q.009,11.722.008,23.445c0,1.794-.292,3.429-1.878,4.575a5.6,5.6,0,0,1-3.784.766c-.571-.028-.363-.519-.364-.82-.014-3.63-.009-7.259-.009-10.888Z" transform="translate(-201.044 -91.02)" fill="#ffb74d"/>
    <path id="Trazado_169724" data-name="Trazado 169724" d="M-748.993,902.239c0,5.356-.014,10.713.016,16.069,0,.727-.187.941-.924.933-2.635-.031-4.246-1.029-4.905-3.117a5.376,5.376,0,0,1-.167-1.65c0-8.225.042-16.45-.029-24.675-.023-2.691,1.806-5.143,5.554-4.74.64.069.445.516.446.847q.018,6.147.008,12.294Z" transform="translate(-72.436 -90.877)" fill="#ffb74d"/>
    <path id="Trazado_169725" data-name="Trazado 169725" d="M-773.253,1104.521a2.879,2.879,0,0,1-2.9,3.052,3.1,3.1,0,0,1-3.042-3,3.019,3.019,0,0,1,3.04-2.979A2.842,2.842,0,0,1-773.253,1104.521Z" transform="translate(-53.919 -256.596)" fill="#0f242d"/>
    <path id="Trazado_169726" data-name="Trazado 169726" d="M-562.36,1104.493a2.839,2.839,0,0,1,2.935-2.894,3.011,3.011,0,0,1,3.006,3.011,3.1,3.1,0,0,1-3.072,2.967A2.884,2.884,0,0,1-562.36,1104.493Z" transform="translate(-219.84 -256.6)" fill="#0f242d"/>
  </g>
</svg>
