<svg xmlns="http://www.w3.org/2000/svg" width="100" height="99.984" viewBox="0 0 100 99.984">
  <g id="Grupo_110617" data-name="Grupo 110617" transform="translate(536.741 -1764.284)">
    <path id="Trazado_169967" data-name="Trazado 169967" d="M-485.4,1772.365a24.457,24.457,0,0,1,10.649-6.887,24.146,24.146,0,0,1,31.177,18.9,25.1,25.1,0,0,1,.368,4.307q-.007,7.355,0,14.71a23.147,23.147,0,0,1-4.3,13.679c-.47.665-.36.818.344,1.108a16.611,16.611,0,0,1,10.407,15.49q.032,9.571,0,19.143a11.24,11.24,0,0,1-11.408,11.435q-38.593.031-77.186,0a11.238,11.238,0,0,1-11.367-11.375c-.032-5.676-.018-11.352,0-17.027a16.34,16.34,0,0,1,13.252-16.323c2.425-.52,4.838-1.092,7.266-1.593.52-.107.778-.319.822-.825a.95.95,0,0,1,.013-.1c.205-1.052.729-2.172.527-3.138s-1.55-1.221-2.337-1.875a17.7,17.7,0,0,1-5.7-8.241.927.927,0,0,0-1.03-.779,6.381,6.381,0,0,1-5.378-9.769,1.686,1.686,0,0,0,.133-1.41c-1.147-4.611-1.69-9.237-.317-13.91a19.126,19.126,0,0,1,17.817-13.573c3.19-.044,6.383.042,9.572-.024A19.389,19.389,0,0,1-485.4,1772.365Zm-20.425,53.651a1.724,1.724,0,0,0-.944.548c-2.416,1.923-4.837,3.839-7.226,5.8-.606.5-.87.57-1.217-.274-1.282-3.13-2.667-6.217-3.964-9.341-.26-.626-.556-.782-1.19-.609-.936.256-1.9.416-2.844.639a13.069,13.069,0,0,0-10.289,12.856q-.042,8.662,0,17.323a7.964,7.964,0,0,0,6.658,7.931,42.534,42.534,0,0,0,5.728.158c.511.023.511-.262.509-.628-.008-1.645-.055-3.292.018-4.934.036-.805-.254-.919-.962-.909-2.652.041-5.3,0-7.957.03-.6.007-.794-.123-.8-.766-.008-2.446-.035-2.48,2.4-2.453.737.008.864-.231.861-.906-.028-5.405-.015-10.81-.015-16.215,0-2.26,0-2.226,2.3-2.266.745-.013.946.166.941.93-.037,5.472-.019,10.944-.019,16.416,0,2.02.006,1.927,2.025,2.051a4.012,4.012,0,0,0,3.593-1.428,5.838,5.838,0,0,1,4.526-1.837c1.021-.01,2.055.876,2.868.478.864-.422,1.5-1.387,2.413-1.914,1.276-.735,1.471-1.444.834-2.751-.147-.3-.291-.6-.457-.895a8,8,0,0,1,.573-9.49,6.335,6.335,0,0,0,1.3-3.122A31.729,31.729,0,0,1-505.823,1826.016Zm56.161,15.653v-7.253c0-2.445,0-2.415,2.442-2.426.69,0,.817.223.809.85-.032,2.686,0,5.372-.026,8.058-.006.581.087.824.752.8,1.644-.054,3.291-.048,4.936,0,.621.017.79-.149.781-.776-.039-2.518.006-5.037-.022-7.555a13.523,13.523,0,0,0-10.978-13c-2.276-.412-4.578-.679-6.866-1.023a1.029,1.029,0,0,0-1.11.426,10.365,10.365,0,0,1-8.428,4.179c-.611.006-.754.149-.577.728a9.89,9.89,0,0,1,.528,3.465,9.583,9.583,0,0,0,1.935,6.291,7.2,7.2,0,0,1,.551,7.546c-.336.73-.717,1.439-1.057,2.167a1.627,1.627,0,0,0,.746,2.451,7.534,7.534,0,0,1,2.128,1.665.941.941,0,0,0,1.274.3,5.551,5.551,0,0,1,6.259,1.162,5,5,0,0,0,4.619,1.64,1.744,1.744,0,0,1,.5,0c.678.115.824-.187.817-.827C-449.68,1847.579-449.662,1844.624-449.662,1841.669Zm-53.346-58.021c2.217,0,4.435-.054,6.65.013a7.551,7.551,0,0,1,7.213,4.743,2.641,2.641,0,0,0,2.5,1.967c.528.036.666.02.78-.5a30.369,30.369,0,0,0,.733-6.484,15.88,15.88,0,0,0-15.712-15.856c-3.493-.025-6.988-.074-10.479.011a15.464,15.464,0,0,0-13.452,7.7c-2.9,4.668-2.619,9.708-1.5,14.812.1.433.268.45.625.318a2.368,2.368,0,0,1,.977-.214c.794.072.915-.4,1.008-1.016a11.031,11.031,0,0,1,5.479-8.144,1.45,1.45,0,0,0,.836-1.4,6.99,6.99,0,0,1,4.325-6.587c1.539-.722,1.555-.688,2.094.946a5.232,5.232,0,0,0,.254.762c.317.618.076.86-.531,1.074a4.026,4.026,0,0,0-2.9,4.479,4.067,4.067,0,0,0,4.348,3.376C-507.509,1783.65-505.259,1783.646-503.008,1783.648Zm21.023-2.038a15.032,15.032,0,0,1,3.928-2.926c.618-.27.678-.586.41-1.158a13.353,13.353,0,0,1-.961-3.581c-.256-1.583-.248-1.584,1.314-1.584a8.566,8.566,0,0,0,1.007-.007c.649-.077.808.179.878.828a10.219,10.219,0,0,0,9.45,9.483c2.8.3,5.615.439,8.428.573a8.057,8.057,0,0,1,7.7,6.59,35.281,35.281,0,0,1,.157,6.629,17.623,17.623,0,0,1-6.967,14.207c-.756.609-2.091.777-2.208,1.817-.105.935.449,1.934.645,2.918a.827.827,0,0,0,.857.756c1.694.215,3.383.475,5.07.743a1.227,1.227,0,0,0,1.286-.53,19.885,19.885,0,0,0,4.534-12.327c.081-5.336.025-10.675.014-16.012a19.51,19.51,0,0,0-.5-4.082,20.946,20.946,0,0,0-22.892-16.249,21,21,0,0,0-13.379,7.1.916.916,0,0,0-.256,1.084A19.325,19.325,0,0,1-481.985,1781.61Zm.067,11.91c.084,1.707-.073,3.415.172,5.124a14.574,14.574,0,0,0,13.575,12.4,14.539,14.539,0,0,0,14.894-11.168,33.427,33.427,0,0,0,.313-9.222,4.659,4.659,0,0,0-4.567-4.174c-2.512-.152-5.022-.322-7.536-.443a13.783,13.783,0,0,1-9.994-4.477.858.858,0,0,0-1.206-.179,9.618,9.618,0,0,0-5.236,6.043C-482.132,1789.423-481.821,1791.483-481.918,1793.52Zm-4.825,22.369a29.206,29.206,0,0,0-6.019.31,12.881,12.881,0,0,0-10.089,12.671c.006,2.068-.2,4.137-1.489,5.74-2.16,2.692-1.985,5.2-.324,8.046,1.533,2.629.622,5.249-2,6.768a5.182,5.182,0,0,0-1.506,1.161c-.137.169-.368.343-.2.609.124.2.351.171.548.166a6.327,6.327,0,0,1,3.86,1.239c.253.176.481.253.713.01,1.649-1.72,4.261-2.171,5.629-4.273a1.927,1.927,0,0,1,.781-.624c.659-.311.561-.625.155-1.1a11.893,11.893,0,0,1-2.891-6.948c-.156-2.172-.076-4.363-.056-6.546a9.565,9.565,0,0,1,6.473-8.95c.961-.317.968-.644.584-1.443-.738-1.535-.677-1.589.919-1.98.26-.064.526-.113.778-.2.593-.2.89-.111,1.15.58a7.576,7.576,0,0,0,6.106,5.085c1.021.179,2.058.289,3.092.376,4.334.366,6.69,2.9,6.691,7.235,0,1.545,0,3.09,0,4.634a12.541,12.541,0,0,1-2.339,7.357c-.328.465-.935.912-.944,1.376-.009.49.782.708,1.208,1.064.618.516.866,1.366,1.643,1.735a17.2,17.2,0,0,1,3.882,2.5c.272.234.5.388.875.119a6.351,6.351,0,0,1,3.958-1.249c.572.015.632-.278.315-.693a5.062,5.062,0,0,0-1.569-1.241,4.806,4.806,0,0,1-2.047-6.786c.266-.542.526-1.088.812-1.62a4.453,4.453,0,0,0-.312-5.1,11.955,11.955,0,0,1-2.291-7.441,12.855,12.855,0,0,0-9.1-12.012C-482.058,1815.76-484.4,1815.932-486.743,1815.889Zm-31.959-10.647c.6-1.183,1.15-2.283,1.708-3.381a6.316,6.316,0,0,1,5.978-3.7q4.935-.029,9.869,0a6.319,6.319,0,0,1,5.926,3.627c.583,1.112,1.131,2.243,1.751,3.476a13.848,13.848,0,0,0,1.691-4.818,62.9,62.9,0,0,0,.188-8.345,4.827,4.827,0,0,0-5.19-5.229c-4.331-.005-8.661-.017-12.991,0a7.266,7.266,0,0,1-6.057-2.811c-.322-.406-.541-.454-.968-.17a7.868,7.868,0,0,0-3.78,6.52c-.1,2.816-.073,5.64,0,8.457A13.012,13.012,0,0,0-518.7,1805.241Zm22.295,30.41c0,1.286-.024,2.226,0,3.165a9.715,9.715,0,0,0,8.905,9.3,9.647,9.647,0,0,0,10.256-8,48.793,48.793,0,0,0,.158-7.135,2.963,2.963,0,0,0-.816-2,4.044,4.044,0,0,0-3.006-1.168c-3.184-.23-6.276-.727-8.752-3.012a.655.655,0,0,0-.54-.188,7.023,7.023,0,0,0-6.054,5.279A21.727,21.727,0,0,0-496.407,1835.652Zm39.7,25.384h8.565l.2,0a7.9,7.9,0,0,0,7.78-6.586c.481-3.024.1-6.1.186-9.151.015-.51-.365-.378-.636-.379-1.713-.008-3.427.025-5.139-.019-.624-.016-.7.237-.688.76.028,1.611.048,3.225-.007,4.835-.024.7.156.9.874.888,2.42-.031,2.391,0,2.388,2.46,0,.651-.2.765-.8.759-2.653-.031-5.316-.154-7.957.029-2.238.155-4.075-.251-5.38-2.193a1.515,1.515,0,0,0-.293-.274,2.911,2.911,0,0,0-4.682.828c-.642,1.471-1.548,1.682-2.933,1.624-2.308-.1-3.789,1.248-3.774,3.222.015,1.957,1.5,3.2,3.827,3.2Q-460.944,1861.037-456.711,1861.035Zm-49.4-59.672c-1.61,0-3.22.016-4.83,0a3.267,3.267,0,0,0-3.175,1.889c-.734,1.43-1.418,2.886-2.168,4.308a.817.817,0,0,0,.185,1.125c5.167,5.31,14.94,5.3,20.028-.022a.774.774,0,0,0,.2-1.041c-.775-1.484-1.489-3-2.27-4.481a3.179,3.179,0,0,0-3.037-1.775C-502.819,1801.371-504.463,1801.363-506.107,1801.363Zm-6.088,59.672c1.411,0,2.821.007,4.232,0a3.258,3.258,0,0,0,3.481-3.243,3.181,3.181,0,0,0-3.517-3.175c-1.519.078-2.773-.022-3.217-1.776a1.334,1.334,0,0,0-.358-.48,3.043,3.043,0,0,0-3.409-.768,4.127,4.127,0,0,0-2.395,3.027c0,1.881.024,3.762-.014,5.642-.012.6.115.815.764.791C-515.153,1861-513.673,1861.036-512.2,1861.036Zm23.817-57.126a22.92,22.92,0,0,0,1.783,7.853,1.267,1.267,0,0,0,1.423.918,17.608,17.608,0,0,1,7.886,1.239c.292.123.824.748,1.009,0,.16-.643.97-1.449-.022-2.043a17.748,17.748,0,0,1-7.866-9.61c-.156-.443-.332-.6-.781-.294a4.843,4.843,0,0,1-2.418.931C-488.293,1802.952-488.515,1803.354-488.378,1803.91Zm20.93,16.816a7.621,7.621,0,0,0,5.053-1.93c.961-.856,1.594-1.769.959-3.131a6.472,6.472,0,0,1-.394-1.556c-.1-.546-.3-.65-.873-.487a17.31,17.31,0,0,1-8.463.248c-1.648-.352-1.616-.324-2.081,1.362a1.294,1.294,0,0,0,.488,1.623,7.377,7.377,0,0,1,2.092,2.3C-469.935,1820.5-468.755,1820.685-467.448,1820.726Zm-32.82-4.625c.013-.853-.273-1.075-1.1-.856a18.161,18.161,0,0,1-7.768.392c-.846-.143-1.921-.882-2.438-.425-.546.482-.437,1.677-.678,2.542-.128.462.046.665.406.877,1.76,1.036,3.51,2.089,5.261,3.14.2.121.415.323.639.18.778-.5,1.738-.75,2.262-1.6a16.391,16.391,0,0,1,3.02-3.613C-500.468,1816.566-500.2,1816.437-500.267,1816.1Zm7.723,44.958c-.561-1.538-.562-1.532-1.867-1.81a6.215,6.215,0,0,1-4.876-4.412c-.341-1.031-.328-1.038-1.23-.332-.263.206-.511.433-.777.636a.664.664,0,0,0-.289.849,5.833,5.833,0,0,1-.325,4.485c-.2.422-.178.592.341.59C-498.589,1861.054-495.611,1861.06-492.545,1861.06Zm21.207-.05a5.981,5.981,0,0,1-.655-4.61,1.174,1.174,0,0,0-.566-1.572,6.836,6.836,0,0,1-.631-.5c-.467-.381-.72-.548-.957.292a5.916,5.916,0,0,1-5.013,4.6c-1.186.177-1.481.84-1.764,1.786Zm-42.159-33.216c1.371-1.095,2.667-2.161,4-3.178.56-.427.374-.606-.112-.887-1.393-.806-2.8-1.6-4.131-2.5-.784-.529-1.479-.18-2.212-.045-.35.064-.242.351-.151.564C-515.245,1823.749-514.381,1825.744-513.5,1827.794Zm23.259,29.053c-.168,2.48,1.351,4.241,3.559,4.206a3.547,3.547,0,0,0,3.419-4.153C-487.028,1858.086-487.212,1858.085-490.238,1856.846Zm-6.2-3.923a3.279,3.279,0,0,0,4.51,3.061c.4-.169.43-.327.168-.649a6.616,6.616,0,0,1-1.408-4.8c.055-.81-.262-.892-.935-.673A3.27,3.27,0,0,0-496.433,1852.923Zm19.383.044a3.3,3.3,0,0,0-2.389-3.129c-.642-.193-.931-.1-.881.65a6.7,6.7,0,0,1-1.443,4.893c-.321.39-.068.49.257.614A3.266,3.266,0,0,0-477.05,1852.967Zm-12.685-40.327a29.135,29.135,0,0,1-1.491-4.85,18.024,18.024,0,0,1-5.85,5.622c-.058.034-.119.063-.175.1-.256.167-.2.416-.128.633.126.38.387.156.569.069A16.734,16.734,0,0,1-489.736,1812.641Zm3,41.943a3.268,3.268,0,0,0,3.208-2.979c.02-.386.09-.715-.549-.556a11.037,11.037,0,0,1-5.355,0c-.522-.128-.546.071-.54.478A3.28,3.28,0,0,0-486.733,1854.584Zm-1.621-57.989h-.021c0,.839.036,1.679-.013,2.515-.031.535.081.728.651.614a3.32,3.32,0,0,0,2.6-3.164,3.3,3.3,0,0,0-2.575-3.185c-.449-.092-.681-.049-.657.5C-488.325,1794.783-488.354,1795.69-488.354,1796.6Zm-35.447.025h-.027c0-.939-.017-1.879.008-2.818.011-.42-.146-.5-.531-.453a3.3,3.3,0,0,0-2.7,3.186,3.305,3.305,0,0,0,2.68,3.2c.422.061.606-.009.582-.5C-523.832,1798.366-523.8,1797.492-523.8,1796.62Z" fill="#020202"/>
    <path id="Trazado_169968" data-name="Trazado 169968" d="M-497.075,1982.769a31.729,31.729,0,0,0-.33,4.418,6.335,6.335,0,0,1-1.3,3.122,8,8,0,0,0-.573,9.49c.166.29.311.594.457.895.637,1.307.442,2.016-.834,2.751-.916.527-1.549,1.492-2.413,1.914-.813.4-1.847-.489-2.868-.478a5.838,5.838,0,0,0-4.526,1.837,4.012,4.012,0,0,1-3.593,1.428c-2.019-.125-2.025-.031-2.025-2.051,0-5.472-.017-10.944.019-16.416.005-.764-.2-.943-.941-.93-2.3.04-2.3.006-2.3,2.266,0,5.405-.012,10.81.015,16.215,0,.675-.123.914-.861.906-2.433-.026-2.406.007-2.4,2.453,0,.643.2.773.8.766,2.652-.032,5.305.01,7.957-.03.709-.011,1,.1.962.909-.073,1.642-.027,3.289-.018,4.934,0,.365,0,.651-.509.628a42.534,42.534,0,0,1-5.728-.158,7.964,7.964,0,0,1-6.658-7.931q-.04-8.662,0-17.323a13.069,13.069,0,0,1,10.289-12.856c.946-.223,1.908-.383,2.844-.639.634-.173.93-.017,1.19.609,1.3,3.124,2.682,6.211,3.964,9.341.346.845.611.77,1.217.274,2.389-1.956,4.811-3.872,7.226-5.8A1.724,1.724,0,0,1-497.075,1982.769Z" transform="translate(-8.748 -156.753)" fill="#ff9800"/>
    <path id="Trazado_169969" data-name="Trazado 169969" d="M-263.248,1990.958c0,2.955-.018,5.91.015,8.864.007.64-.139.942-.817.827a1.735,1.735,0,0,0-.5,0,5,5,0,0,1-4.619-1.639,5.551,5.551,0,0,0-6.259-1.162.941.941,0,0,1-1.274-.3,7.528,7.528,0,0,0-2.128-1.665,1.627,1.627,0,0,1-.746-2.451c.34-.728.721-1.437,1.057-2.167a7.2,7.2,0,0,0-.551-7.546,9.583,9.583,0,0,1-1.935-6.291,9.889,9.889,0,0,0-.528-3.465c-.178-.579-.034-.722.577-.728a10.366,10.366,0,0,0,8.428-4.179,1.029,1.029,0,0,1,1.11-.426c2.289.343,4.591.61,6.866,1.023a13.523,13.523,0,0,1,10.978,13c.028,2.518-.016,5.037.022,7.555.01.627-.159.793-.781.776-1.644-.046-3.292-.052-4.936,0-.665.022-.758-.221-.752-.8.029-2.686-.006-5.373.026-8.058.008-.627-.119-.853-.809-.85-2.442.011-2.442-.019-2.442,2.426Z" transform="translate(-186.414 -149.289)" fill="#ffee58"/>
    <path id="Trazado_169970" data-name="Trazado 169970" d="M-476.772,1792.355c-2.25,0-4.5,0-6.751,0a4.067,4.067,0,0,1-4.348-3.376,4.026,4.026,0,0,1,2.9-4.479c.606-.214.847-.455.531-1.073a5.243,5.243,0,0,1-.254-.762c-.54-1.634-.556-1.668-2.094-.946a6.99,6.99,0,0,0-4.325,6.587,1.451,1.451,0,0,1-.836,1.4,11.03,11.03,0,0,0-5.479,8.144c-.092.615-.214,1.087-1.008,1.016a2.368,2.368,0,0,0-.977.214c-.357.132-.53.115-.625-.318-1.12-5.1-1.405-10.144,1.5-14.812a15.464,15.464,0,0,1,13.452-7.7c3.491-.085,6.986-.036,10.479-.011A15.88,15.88,0,0,1-458.9,1792.1a30.369,30.369,0,0,1-.733,6.484c-.114.519-.252.535-.78.5a2.641,2.641,0,0,1-2.5-1.967,7.551,7.551,0,0,0-7.213-4.743C-472.337,1792.3-474.555,1792.356-476.772,1792.355Z" transform="translate(-26.236 -8.708)" fill="#12263f"/>
    <path id="Trazado_169971" data-name="Trazado 169971" d="M-337.721,1790.432a19.322,19.322,0,0,0-1.487-5.734.917.917,0,0,1,.256-1.084,21,21,0,0,1,13.379-7.1,20.946,20.946,0,0,1,22.892,16.249,19.508,19.508,0,0,1,.5,4.082c.011,5.337.067,10.676-.014,16.012a19.886,19.886,0,0,1-4.534,12.327,1.227,1.227,0,0,1-1.286.53c-1.687-.268-3.376-.527-5.07-.743a.826.826,0,0,1-.857-.756c-.2-.984-.75-1.983-.645-2.918.117-1.04,1.452-1.208,2.208-1.817a17.622,17.622,0,0,0,6.967-14.206,35.282,35.282,0,0,0-.157-6.63,8.058,8.058,0,0,0-7.7-6.59c-2.812-.134-5.63-.275-8.428-.573a10.219,10.219,0,0,1-9.45-9.483c-.069-.648-.229-.9-.878-.827a8.592,8.592,0,0,1-1.007.007c-1.562,0-1.57,0-1.314,1.584a13.351,13.351,0,0,0,.961,3.581c.268.572.208.888-.41,1.158A15.034,15.034,0,0,0-337.721,1790.432Z" transform="translate(-144.264 -8.822)" fill="#12263f"/>
    <path id="Trazado_169972" data-name="Trazado 169972" d="M-333.2,1839.441c.1-2.036-.215-4.1.415-6.1a9.618,9.618,0,0,1,5.236-6.043.858.858,0,0,1,1.206.179,13.783,13.783,0,0,0,9.994,4.477c2.513.121,5.024.291,7.536.443a4.659,4.659,0,0,1,4.567,4.174,33.428,33.428,0,0,1-.313,9.222,14.539,14.539,0,0,1-14.894,11.168,14.574,14.574,0,0,1-13.575-12.4C-333.274,1842.856-333.116,1841.148-333.2,1839.441Zm15.013,14.311a8.077,8.077,0,0,0,6.775-4.282c.9-1.572.886-1.583-.842-2.175a4.009,4.009,0,0,1-.664-.223c-.632-.353-.874-.1-1.162.509a5.093,5.093,0,0,1-8.778.793c-.347-.488-.312-1.39-1.011-1.433a5.371,5.371,0,0,0-1.8.554,2.035,2.035,0,0,1-.287.092c-.66.115-.635.45-.419.992A8.559,8.559,0,0,0-318.187,1853.751Zm9.152-12.9a6.791,6.791,0,0,1,.9.007c.636.086.813-.138.7-.772a4.934,4.934,0,0,0-4.489-4.062,4.861,4.861,0,0,0-4.942,3.472c-.388,1.347-.381,1.356,1.034,1.356.4,0,.807-.03,1.205.008a.775.775,0,0,0,.939-.587c.5-1.223,2.22-1.48,2.683-.344S-309.812,1840.826-309.034,1840.854Zm-12.879,0a4.538,4.538,0,0,1,.7.005c.984.156.986-.336.8-1.082a4.86,4.86,0,0,0-4.625-3.758,4.828,4.828,0,0,0-4.745,3.6c-.33,1.238-.33,1.238.978,1.238.368,0,.739-.026,1.1.006a.963.963,0,0,0,1.178-.692,1.464,1.464,0,0,1,2.643-.224C-323.426,1841.051-322.7,1840.85-321.914,1840.854Z" transform="translate(-148.717 -45.921)" fill="#edceb2"/>
    <path id="Trazado_169973" data-name="Trazado 169973" d="M-409.946,1955.868c2.342.042,4.685-.13,6.991.567a12.855,12.855,0,0,1,9.1,12.012,11.956,11.956,0,0,0,2.291,7.441,4.453,4.453,0,0,1,.312,5.1c-.286.532-.546,1.077-.812,1.62a4.807,4.807,0,0,0,2.046,6.786,5.061,5.061,0,0,1,1.569,1.241c.317.415.257.707-.315.693a6.351,6.351,0,0,0-3.958,1.249c-.374.268-.6.115-.875-.119a17.2,17.2,0,0,0-3.882-2.5c-.777-.369-1.025-1.218-1.643-1.735-.426-.356-1.217-.574-1.208-1.064.008-.464.615-.911.944-1.376a12.541,12.541,0,0,0,2.339-7.357c.005-1.545,0-3.09,0-4.634,0-4.332-2.357-6.869-6.691-7.235-1.034-.087-2.07-.2-3.092-.376a7.576,7.576,0,0,1-6.106-5.085c-.26-.691-.557-.785-1.15-.58-.252.087-.518.137-.778.2-1.6.391-1.657.446-.919,1.98.384.8.377,1.126-.584,1.443a9.565,9.565,0,0,0-6.473,8.95c-.02,2.182-.1,4.374.056,6.546a11.893,11.893,0,0,0,2.891,6.948c.406.478.5.792-.155,1.1a1.927,1.927,0,0,0-.781.624c-1.368,2.1-3.98,2.554-5.629,4.273-.232.242-.46.166-.713-.01a6.327,6.327,0,0,0-3.86-1.239c-.2.005-.423.035-.548-.166-.166-.267.066-.44.2-.609a5.183,5.183,0,0,1,1.506-1.161c2.623-1.519,3.534-4.139,2-6.768-1.661-2.848-1.836-5.354.324-8.046,1.286-1.6,1.495-3.672,1.489-5.74a12.881,12.881,0,0,1,10.09-12.671A29.1,29.1,0,0,1-409.946,1955.868Z" transform="translate(-76.796 -139.978)" fill="#12263f"/>
    <path id="Trazado_169974" data-name="Trazado 169974" d="M-475.025,1857.957a13.011,13.011,0,0,1-1.87-6.367c-.077-2.817-.1-5.641,0-8.457a7.868,7.868,0,0,1,3.78-6.52c.428-.284.646-.236.968.17a7.266,7.266,0,0,0,6.057,2.811c4.33-.021,8.661-.01,12.991,0a4.827,4.827,0,0,1,5.19,5.229,62.9,62.9,0,0,1-.188,8.345,13.848,13.848,0,0,1-1.691,4.818c-.62-1.234-1.168-2.364-1.751-3.476a6.319,6.319,0,0,0-5.926-3.627q-4.934-.028-9.869,0a6.316,6.316,0,0,0-5.978,3.7C-473.874,1855.674-474.427,1856.774-475.025,1857.957Zm22.206-10.308a5.176,5.176,0,0,1,.8.006c.913.145.966-.278.783-1.02a4.9,4.9,0,0,0-4.379-3.812,4.84,4.84,0,0,0-4.837,3.051c-.656,1.644-.572,1.775,1.139,1.775.235,0,.47-.015.7,0a1.033,1.033,0,0,0,1.26-.719,1.468,1.468,0,0,1,2.651-.167C-454.264,1847.816-453.574,1847.642-452.819,1847.649Zm-12.857,0a7.886,7.886,0,0,1,1,.007c.669.087.684-.261.6-.769a4.923,4.923,0,0,0-4.38-4.062,4.905,4.905,0,0,0-5,3.269c-.5,1.467-.434,1.554,1.08,1.554.335,0,.671-.02,1,0a.905.905,0,0,0,1.092-.668c.464-1.16,2.193-1.362,2.632-.263C-467.189,1847.851-466.455,1847.621-465.677,1847.649Z" transform="translate(-43.677 -52.716)" fill="#edceb2"/>
    <path id="Trazado_169975" data-name="Trazado 169975" d="M-387.029,2004.7a21.727,21.727,0,0,1,.154-3.768,7.023,7.023,0,0,1,6.054-5.279.655.655,0,0,1,.54.188c2.476,2.284,5.568,2.782,8.752,3.012a4.044,4.044,0,0,1,3.006,1.168,2.963,2.963,0,0,1,.816,2,48.793,48.793,0,0,1-.158,7.135,9.647,9.647,0,0,1-10.256,8,9.715,9.715,0,0,1-8.905-9.3C-387.053,2006.926-387.029,2005.985-387.029,2004.7Zm9.571,9.277a6.848,6.848,0,0,0,5.645-2.874c.866-1.184.855-1.191-.48-1.861a6.429,6.429,0,0,1-.8-.411c-.571-.4-.887-.356-1.314.309a3.582,3.582,0,0,1-5.509.56c-.389-.371-.406-1.218-1.09-1.125a5.537,5.537,0,0,0-1.529.727,3.8,3.8,0,0,1-.545.254c-.554.172-.5.474-.256.892A6.854,6.854,0,0,0-377.458,2013.976Zm-4.781-11.3a1.615,1.615,0,0,0-1.568,1.618,1.621,1.621,0,0,0,1.592,1.595,1.625,1.625,0,0,0,1.619-1.669A1.622,1.622,0,0,0-382.239,2002.681Zm9.7,0a1.615,1.615,0,0,0-1.591,1.6,1.62,1.62,0,0,0,1.67,1.617,1.626,1.626,0,0,0,1.542-1.646A1.621,1.621,0,0,0-372.541,2002.681Z" transform="translate(-109.379 -169.048)" fill="#edceb2"/>
    <path id="Trazado_169976" data-name="Trazado 169976" d="M-272.96,2079.715q-4.232,0-8.464,0c-2.329,0-3.812-1.242-3.827-3.2-.015-1.974,1.466-3.319,3.774-3.222,1.385.058,2.292-.153,2.933-1.624a2.911,2.911,0,0,1,4.682-.828,1.511,1.511,0,0,1,.293.274c1.3,1.942,3.141,2.348,5.38,2.192,2.641-.183,5.3-.06,7.957-.029.593.007.8-.107.8-.759,0-2.459.032-2.49-2.388-2.46-.718.009-.9-.188-.874-.888.055-1.61.036-3.224.007-4.835-.009-.523.064-.777.688-.76,1.712.044,3.426.011,5.139.019.27,0,.65-.131.636.379-.087,3.051.3,6.126-.186,9.151a7.9,7.9,0,0,1-7.78,6.586h-8.767Z" transform="translate(-183.751 -218.679)" fill="#edceb2"/>
    <path id="Trazado_169977" data-name="Trazado 169977" d="M-451,1901.935c1.644,0,3.288.008,4.931,0a3.179,3.179,0,0,1,3.037,1.775c.781,1.481,1.495,3,2.27,4.481a.774.774,0,0,1-.2,1.041c-5.089,5.323-14.861,5.332-20.028.022a.818.818,0,0,1-.185-1.125c.75-1.422,1.434-2.877,2.168-4.308a3.267,3.267,0,0,1,3.175-1.889C-454.223,1901.95-452.613,1901.935-451,1901.935Zm-6.119,4.179c.029.061.062.12.086.182.755,1.982,3.458,3.666,5.938,3.7,2.579.033,5.319-1.605,6.148-3.681.057-.142.248-.337.054-.441-.825-.445-1.662-.869-2.514-1.26-.227-.1-.327.177-.416.349a3.621,3.621,0,0,1-6.3.018c-.173-.3-.314-.482-.7-.271-.676.371-1.376.7-2.066,1.042C-457.041,1905.824-457.215,1905.885-457.122,1906.114Z" transform="translate(-55.104 -100.571)" fill="#12263f"/>
    <path id="Trazado_169978" data-name="Trazado 169978" d="M-459.711,2097.257c-1.478,0-2.957-.037-4.433.017-.649.024-.776-.191-.764-.792.038-1.88.014-3.761.014-5.642a4.127,4.127,0,0,1,2.395-3.027,3.043,3.043,0,0,1,3.409.768,1.335,1.335,0,0,1,.358.48c.444,1.754,1.7,1.854,3.217,1.776a3.181,3.181,0,0,1,3.517,3.175,3.258,3.258,0,0,1-3.481,3.243C-456.89,2097.264-458.3,2097.257-459.711,2097.257Z" transform="translate(-52.484 -236.222)" fill="#edceb2"/>
    <path id="Trazado_169979" data-name="Trazado 169979" d="M-357.287,1905.725c-.137-.556.085-.958,1.014-1a4.843,4.843,0,0,0,2.418-.931c.45-.3.625-.149.781.294a17.747,17.747,0,0,0,7.866,9.61c.992.594.182,1.4.022,2.043-.186.747-.718.122-1.009,0a17.611,17.611,0,0,0-7.886-1.238,1.267,1.267,0,0,1-1.423-.918A22.921,22.921,0,0,1-357.287,1905.725Z" transform="translate(-131.091 -101.815)" fill="#12263f"/>
    <path id="Trazado_169980" data-name="Trazado 169980" d="M-295.472,1954.377c-1.307-.042-2.487-.226-3.219-1.576a7.376,7.376,0,0,0-2.092-2.3,1.294,1.294,0,0,1-.488-1.623c.465-1.686.434-1.714,2.081-1.362a17.31,17.31,0,0,0,8.463-.248c.573-.163.772-.059.873.487a6.474,6.474,0,0,0,.394,1.556c.635,1.362,0,2.275-.959,3.131A7.627,7.627,0,0,1-295.472,1954.377Z" transform="translate(-171.977 -133.65)" fill="#edceb2"/>
    <path id="Trazado_169981" data-name="Trazado 169981" d="M-433.946,1953.855c.069.336-.2.466-.393.639a16.4,16.4,0,0,0-3.02,3.613c-.524.849-1.484,1.1-2.262,1.6-.224.144-.437-.059-.639-.18-1.751-1.051-3.5-2.1-5.261-3.14-.36-.212-.535-.415-.406-.877.241-.865.132-2.06.678-2.542.517-.457,1.592.282,2.438.425a18.161,18.161,0,0,0,7.768-.392C-434.218,1952.781-433.931,1953-433.946,1953.855Z" transform="translate(-66.322 -137.754)" fill="#edceb2"/>
    <path id="Trazado_169982" data-name="Trazado 169982" d="M-398.37,2104.469c-3.067,0-6.045-.006-9.023.005-.519,0-.539-.168-.341-.59a5.832,5.832,0,0,0,.325-4.485.664.664,0,0,1,.289-.85c.266-.2.514-.429.777-.636.9-.705.888-.7,1.23.333a6.215,6.215,0,0,0,4.876,4.412C-398.932,2102.937-398.931,2102.93-398.37,2104.469Z" transform="translate(-94.175 -243.409)" fill="#ffd494"/>
    <path id="Trazado_169983" data-name="Trazado 169983" d="M-319.924,2104.433h-9.587c.283-.946.578-1.608,1.764-1.786a5.916,5.916,0,0,0,5.013-4.6c.237-.841.49-.673.957-.292a6.816,6.816,0,0,0,.631.5,1.174,1.174,0,0,1,.566,1.572A5.981,5.981,0,0,0-319.924,2104.433Z" transform="translate(-151.413 -243.423)" fill="#ffd494"/>
    <path id="Trazado_169984" data-name="Trazado 169984" d="M-457.755,1981.5c-.885-2.05-1.748-4.045-2.6-6.044-.092-.214-.2-.5.151-.564.733-.135,1.428-.484,2.212.045,1.333.9,2.737,1.693,4.131,2.5.486.281.671.459.112.887C-455.089,1979.343-456.384,1980.41-457.755,1981.5Z" transform="translate(-55.741 -153.711)" fill="#ff9800"/>
    <path id="Trazado_169985" data-name="Trazado 169985" d="M-364.124,2107.94c3.025,1.239,3.209,1.239,6.978.053a3.547,3.547,0,0,1-3.419,4.153C-362.774,2112.181-364.292,2110.42-364.124,2107.94Z" transform="translate(-126.113 -251.093)" fill="#ffc571"/>
    <path id="Trazado_169986" data-name="Trazado 169986" d="M-387.094,2084.779a3.27,3.27,0,0,1,2.336-3.064c.673-.219.99-.136.935.673a6.616,6.616,0,0,0,1.408,4.8c.262.323.231.48-.168.649A3.278,3.278,0,0,1-387.094,2084.779Z" transform="translate(-109.34 -231.856)" fill="#ffc571"/>
    <path id="Trazado_169987" data-name="Trazado 169987" d="M-328.314,2084.814a3.266,3.266,0,0,1-4.454,3.028c-.325-.124-.579-.224-.258-.614a6.7,6.7,0,0,0,1.443-4.893c-.05-.753.238-.843.881-.65A3.3,3.3,0,0,1-328.314,2084.814Z" transform="translate(-148.736 -231.847)" fill="#ffc571"/>
    <path id="Trazado_169988" data-name="Trazado 169988" d="M-359.857,2089.839a3.28,3.28,0,0,1-3.235-3.06c-.006-.407.018-.606.54-.478a11.037,11.037,0,0,0,5.355,0c.639-.159.569.17.549.556A3.268,3.268,0,0,1-359.857,2089.839Z" transform="translate(-126.876 -235.254)" fill="#edceb2"/>
    <path id="Trazado_169989" data-name="Trazado 169989" d="M-357.2,1875.408c0-.906.029-1.813-.01-2.717-.024-.553.208-.6.657-.5a3.3,3.3,0,0,1,2.575,3.185,3.32,3.32,0,0,1-2.6,3.164c-.57.114-.683-.079-.651-.614.049-.835.013-1.676.013-2.515Z" transform="translate(-131.151 -78.813)" fill="#edceb2"/>
    <path id="Trazado_169990" data-name="Trazado 169990" d="M-497.516,1875.432c0,.872-.031,1.746.012,2.616.024.49-.16.561-.582.5a3.305,3.305,0,0,1-2.68-3.2,3.3,3.3,0,0,1,2.7-3.186c.385-.048.542.033.531.453-.024.939-.008,1.879-.008,2.818Z" transform="translate(-26.286 -78.812)" fill="#edceb2"/>
    <path id="Trazado_169991" data-name="Trazado 169991" d="M-300.052,1907.4a8.559,8.559,0,0,1-8.192-5.173c-.217-.542-.241-.876.419-.992a2.035,2.035,0,0,0,.287-.092,5.371,5.371,0,0,1,1.8-.554c.7.043.664.945,1.011,1.433a5.093,5.093,0,0,0,8.778-.793c.288-.612.53-.862,1.162-.509a4.009,4.009,0,0,0,.664.223c1.728.592,1.746.6.842,2.175A8.077,8.077,0,0,1-300.052,1907.4Z" transform="translate(-166.852 -99.569)" fill="#020202"/>
    <path id="Trazado_169992" data-name="Trazado 169992" d="M-265.309,1864.957c-.778-.029-1.506.2-1.966-.924s-2.184-.878-2.683.344a.775.775,0,0,1-.939.587c-.4-.037-.8-.008-1.205-.008-1.415,0-1.422-.01-1.034-1.356a4.861,4.861,0,0,1,4.942-3.472,4.934,4.934,0,0,1,4.489,4.063c.113.635-.064.859-.7.772A6.754,6.754,0,0,0-265.309,1864.957Z" transform="translate(-192.443 -70.024)" fill="#020202"/>
    <path id="Trazado_169993" data-name="Trazado 169993" d="M-313.15,1864.959c-.787,0-1.513.2-1.969-.91a1.464,1.464,0,0,0-2.643.224.962.962,0,0,1-1.178.692c-.366-.032-.736-.006-1.1-.006-1.308,0-1.308,0-.978-1.238a4.828,4.828,0,0,1,4.745-3.6,4.859,4.859,0,0,1,4.625,3.758c.19.745.188,1.238-.8,1.082A4.523,4.523,0,0,0-313.15,1864.959Z" transform="translate(-157.481 -70.026)" fill="#020202"/>
    <path id="Trazado_169994" data-name="Trazado 169994" d="M-409.056,1864.954c-.755-.007-1.445.168-1.879-.883a1.468,1.468,0,0,0-2.651.167,1.033,1.033,0,0,1-1.26.719c-.233-.018-.468,0-.7,0-1.71,0-1.794-.131-1.139-1.775a4.84,4.84,0,0,1,4.837-3.051,4.9,4.9,0,0,1,4.379,3.812c.183.742.131,1.165-.783,1.02A5.176,5.176,0,0,0-409.056,1864.954Z" transform="translate(-87.441 -70.021)" fill="#020202"/>
    <path id="Trazado_169995" data-name="Trazado 169995" d="M-456.9,1864.951c-.778-.029-1.512.2-1.964-.928-.44-1.1-2.168-.9-2.632.263a.905.905,0,0,1-1.092.668c-.333-.024-.669,0-1,0-1.514,0-1.575-.088-1.08-1.554a4.905,4.905,0,0,1,5-3.269,4.923,4.923,0,0,1,4.38,4.062c.086.507.071.855-.6.769A7.845,7.845,0,0,0-456.9,1864.951Z" transform="translate(-52.454 -70.018)" fill="#020202"/>
    <path id="Trazado_169996" data-name="Trazado 169996" d="M-367.9,2049.022a6.853,6.853,0,0,1-5.882-3.527c-.248-.418-.3-.72.256-.892a3.8,3.8,0,0,0,.545-.253,5.541,5.541,0,0,1,1.529-.728c.684-.093.7.753,1.09,1.125a3.582,3.582,0,0,0,5.509-.56c.427-.665.744-.706,1.314-.309a6.429,6.429,0,0,0,.8.411c1.335.669,1.346.677.48,1.861A6.848,6.848,0,0,1-367.9,2049.022Z" transform="translate(-118.937 -204.094)" fill="#020202"/>
    <path id="Trazado_169997" data-name="Trazado 169997" d="M-373.465,2021.755a1.622,1.622,0,0,1,1.644,1.543,1.625,1.625,0,0,1-1.619,1.669,1.621,1.621,0,0,1-1.592-1.595A1.615,1.615,0,0,1-373.465,2021.755Z" transform="translate(-118.152 -188.122)" fill="#020202"/>
    <path id="Trazado_169998" data-name="Trazado 169998" d="M-337.523,2021.756a1.621,1.621,0,0,1,1.621,1.566,1.626,1.626,0,0,1-1.542,1.646,1.62,1.62,0,0,1-1.67-1.617A1.615,1.615,0,0,1-337.523,2021.756Z" transform="translate(-144.396 -188.123)" fill="#020202"/>
    <path id="Trazado_169999" data-name="Trazado 169999" d="M-445.8,1913.329c-.094-.229.081-.29.229-.365.689-.345,1.39-.671,2.066-1.042.384-.211.525-.026.7.271a3.621,3.621,0,0,0,6.3-.018c.089-.171.189-.453.416-.349.852.391,1.689.815,2.514,1.26.193.1,0,.3-.054.441-.829,2.076-3.569,3.714-6.148,3.681-2.479-.032-5.183-1.716-5.938-3.7C-445.734,1913.448-445.767,1913.389-445.8,1913.329Z" transform="translate(-66.43 -107.787)" fill="#020202"/>
  </g>
</svg>
