<svg xmlns="http://www.w3.org/2000/svg" width="90" height="71.741" viewBox="0 0 90 71.741">
  <g id="Grupo_110601" data-name="Grupo 110601" transform="translate(1395.536 -345.385)">
    <path id="Trazado_169796" data-name="Trazado 169796" d="M-1395.536,383.183a3.29,3.29,0,0,1,2.957-1.069q37.481.031,74.961.016h.87l-28.005-28a6.115,6.115,0,0,1-5.805,3.752c-2.811-.009-4.676-1.5-5.9-4.057-.777.8-1.5,1.573-2.24,2.318q-7.887,7.9-15.782,15.784a2.512,2.512,0,0,1-1.278.874,1.713,1.713,0,0,1-1.906-.748,1.674,1.674,0,0,1,.051-2.037,6.04,6.04,0,0,1,.638-.72q11.056-11.066,22.116-22.126a6.135,6.135,0,0,1,8.614-.031q17.2,17.158,34.368,34.356a1.938,1.938,0,0,0,1.6.65c.935-.048,1.875-.028,2.812-.008a1.794,1.794,0,0,1,1.925,1.918q.013,15.553,0,31.107c0,1.273-.727,1.943-2.067,1.945q-6.107.01-12.215,0-36.426,0-72.852.018a3.189,3.189,0,0,1-2.86-1.074Zm44.91,30.307q20.213,0,40.425.018c.816,0,1.083-.154,1.079-1.036q-.055-12.873,0-25.747c0-.844-.268-.987-1.033-.987q-40.381.027-80.763,0c-.761,0-1.038.138-1.034.985q.053,12.874,0,25.747c0,.879.259,1.039,1.078,1.038Q-1370.751,413.47-1350.626,413.491Zm2.725-61.863a2.591,2.591,0,0,0-2.636-2.588,2.591,2.591,0,0,0-2.637,2.587,2.671,2.671,0,0,0,2.68,2.667A2.671,2.671,0,0,0-1347.9,351.628Z" transform="translate(0)" fill="#0c0b07"/>
    <path id="Trazado_169797" data-name="Trazado 169797" d="M-1341,477.74a1.615,1.615,0,0,1-.271.906,13.445,13.445,0,0,1-2.351,2.332,1.765,1.765,0,0,1-2.237-.207,1.767,1.767,0,0,1-.224-2.237,12.083,12.083,0,0,1,2.342-2.344,1.6,1.6,0,0,1,1.8-.088A1.69,1.69,0,0,1-1341,477.74Z" transform="translate(-38.324 -101.746)" fill="#0c0b07"/>
    <path id="Trazado_169798" data-name="Trazado 169798" d="M-1337.939,556.371q-20.125,0-40.25.018c-.819,0-1.081-.158-1.078-1.038q.055-12.874,0-25.747c0-.847.273-.985,1.034-.985q40.381.027,80.763,0c.765,0,1.036.143,1.033.987q-.052,12.874,0,25.747c0,.882-.263,1.038-1.079,1.036Q-1317.726,556.35-1337.939,556.371Zm-2.487-13.888a9.581,9.581,0,0,0-9.578-9.6,9.576,9.576,0,0,0-9.647,9.609,9.579,9.579,0,0,0,9.661,9.6A9.583,9.583,0,0,0-1340.426,542.483Zm-34.675-.007c0,2.49-.011,4.979,0,7.469.009,1.4.8,2.227,1.984,2.133,1-.079,1.643-.869,1.659-2.112q.033-2.5,0-5.008c-.008-.484.111-.661.627-.651,1.64.032,3.281.041,4.921,0,.6-.017.655.225.648.715-.024,1.669-.006,3.339-.011,5.009a1.969,1.969,0,0,0,.736,1.7,1.677,1.677,0,0,0,1.818.2,1.973,1.973,0,0,0,1.072-2.04q.009-7.381,0-14.763a2.721,2.721,0,0,0-.248-1.276,1.791,1.791,0,0,0-2.007-.9,1.8,1.8,0,0,0-1.36,1.823c-.027,1.728-.031,3.457,0,5.184.011.56-.125.752-.716.736-1.551-.043-3.105-.046-4.657,0-.636.019-.858-.12-.834-.8.056-1.609.033-3.222.013-4.832-.017-1.369-.751-2.175-1.894-2.141-1.058.031-1.741.824-1.749,2.1C-1375.113,537.5-1375.1,539.986-1375.1,542.476Zm55.879,9.62v-.013c1.581,0,3.163.026,4.744-.008a1.714,1.714,0,0,0,1.756-2.1,1.788,1.788,0,0,0-1.94-1.418c-2.225-.014-4.452-.041-6.676.016-.761.02-.953-.217-.888-.928s.014-1.4.014-2.107c0-1.218,0-1.218,1.175-1.218,1.2,0,2.4.015,3.6,0,1.178-.019,1.937-.571,2.088-1.47a1.812,1.812,0,0,0-1.989-2.169c-1.4-.031-2.812-.036-4.216.007-.561.017-.7-.163-.672-.692.042-.935.044-1.875,0-2.81-.027-.567.133-.748.722-.738,2.254.035,4.51.021,6.764.011,1.3-.006,2.16-.736,2.146-1.8a1.855,1.855,0,0,0-2.089-1.765q-4.524-.021-9.048,0c-1.388.007-2.1.638-2.1,2.019q-.049,7.6,0,15.2c.01,1.367.741,1.982,2.13,1.992C-1322.209,552.1-1320.716,552.1-1319.223,552.1Zm-16.69-8.553q0,3.117,0,6.233a2.964,2.964,0,0,0,.145,1.123,1.67,1.67,0,0,0,1.75,1.178,1.612,1.612,0,0,0,1.617-1.339,5.514,5.514,0,0,0,.122-1.214c.009-4.1.016-8.193-.007-12.29,0-.594.13-.839.768-.792a18.691,18.691,0,0,0,2.193,0,1.824,1.824,0,0,0,1.809-1.775,1.78,1.78,0,0,0-1.809-1.764q-4.784-.043-9.568,0a1.7,1.7,0,0,0-1.768,1.779,1.76,1.76,0,0,0,1.8,1.758,21.763,21.763,0,0,0,2.281,0c.562-.036.683.169.676.693C-1335.929,539.271-1335.913,541.407-1335.913,543.543Zm25.153-1.055q0,3.6,0,7.2c0,1.758.633,2.4,2.352,2.4,2.109,0,4.217,0,6.326-.01,1.249-.008,2.005-.659,2.026-1.7a1.8,1.8,0,0,0-2.01-1.826c-1.347-.015-2.7-.046-4.041.012-.761.033-1.087-.125-1.022-.976.084-1.106.02-2.224.02-3.337,0-3.046.007-6.091,0-9.137-.005-1.5-.825-2.351-2.082-2.2-.979.119-1.559.909-1.565,2.19C-1310.767,537.568-1310.76,540.028-1310.76,542.488Z" transform="translate(-12.687 -142.88)" fill="#ffee58"/>
    <path id="Trazado_169799" data-name="Trazado 169799" d="M-1197.909,364.569a2.671,2.671,0,0,1-2.593,2.665,2.671,2.671,0,0,1-2.68-2.667,2.591,2.591,0,0,1,2.637-2.587A2.591,2.591,0,0,1-1197.909,364.569Z" transform="translate(-149.991 -12.941)" fill="#ff9800"/>
    <path id="Trazado_169800" data-name="Trazado 169800" d="M-1270.974,557.6a9.583,9.583,0,0,1-9.563,9.609,9.579,9.579,0,0,1-9.661-9.6,9.576,9.576,0,0,1,9.647-9.609A9.581,9.581,0,0,1-1270.974,557.6Zm-15.574-.372a5.885,5.885,0,0,0,5.776,6.358,5.858,5.858,0,0,0,6.173-5.73,5.887,5.887,0,0,0-5.763-6.238A5.9,5.9,0,0,0-1286.549,557.224Z" transform="translate(-82.138 -157.993)" fill="#0c0b05"/>
    <path id="Trazado_169801" data-name="Trazado 169801" d="M-1360.37,557.6c0-2.49-.012-4.979,0-7.469.008-1.281.691-2.073,1.749-2.1,1.143-.034,1.877.773,1.894,2.141.02,1.611.043,3.223-.013,4.832-.024.685.2.824.834.8,1.551-.046,3.105-.044,4.657,0,.591.016.727-.176.716-.736-.034-1.727-.03-3.456,0-5.184a1.8,1.8,0,0,1,1.36-1.823,1.79,1.79,0,0,1,2.007.9,2.72,2.72,0,0,1,.248,1.276q0,7.381,0,14.763a1.973,1.973,0,0,1-1.072,2.04,1.677,1.677,0,0,1-1.818-.2,1.969,1.969,0,0,1-.736-1.7c0-1.67-.014-3.339.011-5.009.007-.49-.053-.732-.648-.715-1.639.045-3.281.036-4.921,0-.516-.01-.635.167-.627.651q.04,2.5,0,5.009c-.016,1.243-.662,2.033-1.659,2.112-1.185.094-1.975-.731-1.984-2.133C-1360.381,562.58-1360.37,560.091-1360.37,557.6Z" transform="translate(-27.418 -158.005)" fill="#0f0d05"/>
    <path id="Trazado_169802" data-name="Trazado 169802" d="M-1130.123,567.165c-1.493,0-2.987.008-4.48,0-1.388-.009-2.12-.625-2.129-1.992q-.053-7.6,0-15.2c.009-1.381.717-2.011,2.1-2.019q4.524-.024,9.048,0a1.855,1.855,0,0,1,2.089,1.765c.014,1.064-.842,1.794-2.147,1.8-2.255.009-4.51.024-6.764-.011-.589-.009-.749.172-.722.738.045.935.042,1.875,0,2.81-.024.529.111.709.672.692,1.4-.043,2.811-.038,4.216-.007a1.811,1.811,0,0,1,1.989,2.169c-.151.9-.911,1.451-2.088,1.471-1.2.02-2.4,0-3.6,0-1.175,0-1.175,0-1.175,1.218,0,.7.05,1.41-.014,2.107s.127.948.888.928c2.224-.057,4.45-.029,6.676-.016a1.788,1.788,0,0,1,1.94,1.418,1.714,1.714,0,0,1-1.757,2.1c-1.581.034-3.162.008-4.744.008Z" transform="translate(-201.786 -157.949)" fill="#0c0b05"/>
    <path id="Trazado_169803" data-name="Trazado 169803" d="M-1199.228,558.632c0-2.136-.016-4.272.011-6.408.007-.525-.114-.73-.676-.693a21.779,21.779,0,0,1-2.281,0,1.76,1.76,0,0,1-1.8-1.758,1.7,1.7,0,0,1,1.768-1.779q4.784-.048,9.568,0a1.78,1.78,0,0,1,1.809,1.764,1.824,1.824,0,0,1-1.809,1.775,18.691,18.691,0,0,1-2.193,0c-.637-.047-.771.2-.768.792.024,4.1.016,8.193.007,12.29a5.522,5.522,0,0,1-.122,1.214,1.612,1.612,0,0,1-1.617,1.339,1.67,1.67,0,0,1-1.75-1.178,2.968,2.968,0,0,1-.145-1.123Q-1199.225,561.749-1199.228,558.632Z" transform="translate(-149.371 -157.969)" fill="#0c0b07"/>
    <path id="Trazado_169804" data-name="Trazado 169804" d="M-1068.21,557.648c0-2.46-.008-4.92,0-7.379.006-1.282.586-2.072,1.565-2.19,1.258-.152,2.077.7,2.082,2.2.01,3.045,0,6.091,0,9.137,0,1.113.064,2.23-.021,3.337-.065.851.261,1.009,1.022.976,1.344-.058,2.694-.028,4.041-.012a1.8,1.8,0,0,1,2.01,1.826c-.021,1.045-.777,1.7-2.026,1.7-2.108.014-4.217.011-6.326.01-1.719,0-2.349-.645-2.352-2.4Q-1068.215,561.25-1068.21,557.648Z" transform="translate(-255.236 -158.04)" fill="#0c0b05"/>
    <path id="Trazado_169805" data-name="Trazado 169805" d="M-1273.705,569.988a5.9,5.9,0,0,1,6.186-5.61,5.887,5.887,0,0,1,5.763,6.238,5.859,5.859,0,0,1-6.173,5.73A5.885,5.885,0,0,1-1273.705,569.988Z" transform="translate(-94.982 -170.757)" fill="#ffee58"/>
  </g>
</svg>
