<svg xmlns="http://www.w3.org/2000/svg" width="84.807" height="84.804" viewBox="0 0 84.807 84.804">
  <g id="Grupo_85657" data-name="Grupo 85657" transform="translate(-522.612 -138.5)">
    <g id="Grupo_85656" data-name="Grupo 85656" transform="translate(524.112 140)">
      <g id="Grupo_85655" data-name="Grupo 85655">
        <g id="Grupo_85653" data-name="Grupo 85653">
          <path id="Trazado_149387" data-name="Trazado 149387" d="M497.719,388.623h66.6a7.6,7.6,0,0,0,7.6-7.6V324.243H490.112v56.781A7.6,7.6,0,0,0,497.719,388.623Z" transform="translate(-490.112 -306.819)" fill="#fff" stroke="#000" stroke-linecap="round" stroke-linejoin="round" stroke-width="3"/>
          <path id="Trazado_149388" data-name="Trazado 149388" d="M571.919,306.6a7.6,7.6,0,0,0-7.6-7.6h-66.6a7.6,7.6,0,0,0-7.607,7.6v9.82h81.807Z" transform="translate(-490.112 -299)" fill="#ffd494" stroke="#000" stroke-linecap="round" stroke-linejoin="round" stroke-width="3"/>
        </g>
        <g id="Grupo_85654" data-name="Grupo 85654" transform="translate(46.923 6.501)">
          <path id="Trazado_149389" data-name="Trazado 149389" d="M564.794,311.764a3.351,3.351,0,1,1-3.351-3.346A3.35,3.35,0,0,1,564.794,311.764Z" transform="translate(-558.093 -308.418)" fill="#111e61"/>
          <path id="Trazado_149390" data-name="Trazado 149390" d="M595.041,311.764a3.349,3.349,0,1,1-3.351-3.346A3.349,3.349,0,0,1,595.041,311.764Z" transform="translate(-567.463 -308.418)" fill="#111e61"/>
          <path id="Trazado_149391" data-name="Trazado 149391" d="M579.918,311.764a3.351,3.351,0,1,1-3.35-3.346A3.349,3.349,0,0,1,579.918,311.764Z" transform="translate(-562.778 -308.418)" fill="#111e61"/>
        </g>
      </g>
      <rect id="Rectángulo_32892" data-name="Rectángulo 32892" width="53.867" height="38.936" transform="translate(13.977 30.614)" fill="#ff9800"/>
    </g>
    <path id="Trazado_149392" data-name="Trazado 149392" d="M541.141,362.245a2.9,2.9,0,0,1,4.558-2.377l6.4,4.478a3.893,3.893,0,0,1,0,6.378l-6.4,4.475a2.9,2.9,0,0,1-4.558-2.372Z" transform="translate(18.193 -177.691)" fill="#ffee58" stroke="#000" stroke-linecap="round" stroke-linejoin="round" stroke-width="3"/>
  </g>
</svg>
