<svg xmlns="http://www.w3.org/2000/svg" width="100" height="110.38" viewBox="0 0 100 110.38">
  <g id="Grupo_110657" data-name="Grupo 110657" transform="translate(433.781 -1607.065)">
    <path id="Trazado_170146" data-name="Trazado 170146" d="M-382.351,1608.964a18.617,18.617,0,0,0,6.123,1.066c3.566.169,4.687,1.6,4.141,5.161a30.992,30.992,0,0,1-1.025,5c-1.053,3.21-3.24,4.368-6.519,3.508-.778-.2-1.547-.447-2.33-.63a2.343,2.343,0,0,0-2.832,1.3c-1.815,3.2-1.462,5.79,1.27,8.264a37.328,37.328,0,0,0,5.812,4.074,18.846,18.846,0,0,1,7.842,8.724,26.7,26.7,0,0,0,4.576,7.483c3.412,3.746,7.9,5.231,12.722,5.968,2.921.446,2.928.409,3.541,3.287.148.694.3,1.389.429,2.086.444,2.363.339,2.573-1.78,3.662-.2.105-.459.151-.508.5l13.051,7.94c1.064.776,2.144,1.531,3.185,2.334a1.912,1.912,0,0,1,.5,2.75q-1.221,2.069-2.475,4.118c-1.02,1.672-2.078,1.991-3.766.994-1.008-.6-1.909-1.374-2.859-2.069l-1.932-1.413a6.28,6.28,0,0,0-.788-.548c-.784-.389-1.816-1.109-2.417-.381-.516.626.439,1.433.943,2.065.755,1.2,1.55,2.369,2.258,3.592a11.677,11.677,0,0,1-.273,13,14.032,14.032,0,0,1-11.179,6.858,2.924,2.924,0,0,0-2.738,2.1,12.688,12.688,0,0,0-.616,4.191c-.058,2.813-.7,3.416-3.446,3.427-1.42.006-2.84.068-4.26.061-2.222-.011-4.44-.008-6.5-1.085-3.5-1.831-7.383-1.967-11.188-2.222-2.341-.157-3.578-1.076-4.736-3.185-1.691-3.079-1.788-5.732.05-8.674a45.776,45.776,0,0,0,2.291-4.868c.689-1.464,1.36-1.8,2.951-1.455,5.268,1.135,10.533,2.286,15.8,3.42a19.018,19.018,0,0,0,2.234.373c2.711.251,4.229-.7,5.082-3.282a15.4,15.4,0,0,0,.851-6.846,15.189,15.189,0,0,0-4.3-8.757A37.383,37.383,0,0,0-382,1670.189a25.975,25.975,0,0,1-11.646-7.729c-5.81-6.311-10.179-13.634-14.618-20.9-.314-.515-.447-1.178-1.2-1.258-1.1-.637-2.252-1.194-3.28-1.929a2.781,2.781,0,0,0-3.67.026c-2.211,1.537-4.544,2.91-6.89,4.239a8.428,8.428,0,0,1-8.165.052c-2.029-.981-2.758-3.17-2.035-5.64a31.084,31.084,0,0,1,1.364-3.419,11.1,11.1,0,0,0,.546-7.765c-.149-.5-.253-1.01-.4-1.508-1.8-6.126.553-10.639,6.642-12.762a6.984,6.984,0,0,1,7.743,1.531,7.844,7.844,0,0,0,4.142,2.334,2.629,2.629,0,0,0,3.086-1.435c.172-.337.343-.675.519-1.01,2.3-4.375,5.284-5.771,10.075-4.6a8.417,8.417,0,0,0,6.07-.448c2.621-1.318,5.328-1.029,8.016-.151C-384.581,1608.181-383.468,1608.58-382.351,1608.964Zm-16.5,3.564a4.536,4.536,0,0,0-.095.625q-.006,17.627-.014,35.254a2.27,2.27,0,0,0,.41,1.32,70.875,70.875,0,0,0,9.583,11.943c1.641,1.583,3.316,3.229,5.533,3.885a53.278,53.278,0,0,1,13.255,6.014c.049.031.164-.043.291-.08q0-8.726.007-17.471a2,2,0,0,0-.382-1.185,31.881,31.881,0,0,1-3.056-5.6,15.249,15.249,0,0,0-6.392-7.184,41.937,41.937,0,0,1-6.7-4.776c-4.519-4.15-4.332-9.109-1.085-13.766a5.448,5.448,0,0,1,5.994-2.272,26.848,26.848,0,0,1,3.024.757,1.061,1.061,0,0,0,1.585-.849c.356-1.468.645-2.953.955-4.432.1-.48.04-.8-.6-.795-3.572.028-6.88-1.11-10.174-2.325a6.827,6.827,0,0,0-5.52-.066A9.908,9.908,0,0,1-398.85,1612.528Zm-4.338,29.928.276-.057v-1.381q0-13.712-.013-27.424c0-.523.321-1.291-.279-1.529-.627-.248-1.29.219-1.775.669a6.189,6.189,0,0,0-1.027,1.341c-.441.727-.8,1.507-1.229,2.239a6,6,0,0,1-5.119,3.069c-3.246.194-5.732-1.361-7.963-3.449a3.323,3.323,0,0,0-2.995-.882,6.023,6.023,0,0,0-5.055,7.834c.067.227.116.459.192.683a15.965,15.965,0,0,1-.914,12.791,12.925,12.925,0,0,0-.727,1.991.818.818,0,0,0,.726,1.144c1.442.162,2.878.4,4.258-.469,2.841-1.794,5.756-3.469,8.6-5.254a2.7,2.7,0,0,1,3.052-.073c1.562.89,3.123,1.79,4.738,2.576a6.8,6.8,0,0,1,3.871,3.883A12.688,12.688,0,0,0-403.188,1642.457Zm37.249,15.237c0,5.067.058,9.842-.032,14.615-.031,1.626.232,2.869,1.671,3.879a15.33,15.33,0,0,1,2.637,2.769c4.9,5.782,6.1,12.231,3.4,19.348-1.158,3.052-3.292,4.949-6.62,5.213-.917.073-1.078.416-1.065,1.217.039,2.559.019,5.118.011,7.678,0,.595-.05,1.121.838,1.114.775-.005,1.275-.1,1.244-1.044a10.573,10.573,0,0,1,.211-1.687c.538-4.065,3.039-6.811,6.478-6.942a10.415,10.415,0,0,0,6.49-2.844,8.786,8.786,0,0,0,1.617-12.106,26.883,26.883,0,0,1-2.869-4.565c-.7-1.545-.986-3.125.226-4.54a4.854,4.854,0,0,1,4.842-1.7c2.583.48,4.48,2.161,6.483,3.668.395.3.764,1.177,1.409.176.493-.766.616-1.312-.33-1.827s-1.821-1.195-2.755-1.755q-7.307-4.389-14.633-8.748a2.1,2.1,0,0,1-1.293-2.29c.2-1.111.977-1.5,2.025-1.64a11.814,11.814,0,0,0,2.323-.627c.492-.175,1.2-.251,1.013-1.1-.145-.67-.329-1.228-1.182-1.353A25.88,25.88,0,0,1-365.939,1657.693Zm-3.948,50.781c0-1.468-.022-2.935.011-4.4.014-.615-.153-.937-.808-1.075-4.391-.927-8.773-1.89-13.158-2.843-.492-.107-.893-.125-1.153.463-.82,1.857-1.694,3.69-2.528,5.541a1.238,1.238,0,0,0-.071.678,3.812,3.812,0,0,0,3.906,3.522,30.754,30.754,0,0,1,11.532,2.6,9.211,9.211,0,0,0,1.186.463c.74.239,1.141.091,1.1-.828C-369.933,1711.222-369.887,1709.847-369.887,1708.475Z"/>
    <path id="Trazado_170147" data-name="Trazado 170147" d="M-415.3,1774.307a18.045,18.045,0,0,1,2.588-8.729c.8-1.365,1.747-1.623,3.089-.833,3.093,1.821,6.16,3.687,9.242,5.528a2.222,2.222,0,0,1,1.151,2.384c-.64,4.97-1.258,9.943-1.908,14.912-.229,1.75-1.536,2.489-3.049,1.658a25.836,25.836,0,0,1-8.465-6.995A13,13,0,0,1-415.3,1774.307Zm10.653,10.113c.444-3.648.841-6.974,1.261-10.3a1.319,1.319,0,0,0-.671-1.534c-1.768-1.009-3.507-2.069-5.238-3.14-.573-.354-.919-.337-1.158.354a14.3,14.3,0,0,0-.928,4.137C-411.561,1778.852-408.4,1781.626-404.647,1784.419Z" transform="translate(-11.453 -97.445)"/>
    <path id="Trazado_170148" data-name="Trazado 170148" d="M-337.472,1800.2c1.112.3,1.64,1.615,2.562,1.854,1.034.269,1.451-1.375,2.508-1.684a1.84,1.84,0,0,1,2.122.693,1.776,1.776,0,0,1,.052,2.229,13.133,13.133,0,0,1-1,1.172c-.657.353-.774.745-.146,1.269a7.193,7.193,0,0,1,.982,1.017,1.8,1.8,0,0,1-.106,2.663,1.675,1.675,0,0,1-2.539.066c-1.238-1.484-2.146-1.527-3.392,0a1.665,1.665,0,0,1-2.536-.06,1.845,1.845,0,0,1-.115-2.671.883.883,0,0,1,.2-.2c1.358-.924,1.271-1.717.051-2.831C-340.337,1802.333-339.655,1800.74-337.472,1800.2Z" transform="translate(-58.343 -119.693)"/>
    <path id="Trazado_170149" data-name="Trazado 170149" d="M-381.889,1857.921a2.165,2.165,0,0,1,2.138,2.049,2.16,2.16,0,0,1-2.046,2.141,2.171,2.171,0,0,1-2.141-2.049A2.171,2.171,0,0,1-381.889,1857.921Z" transform="translate(-30.889 -155.464)"/>
    <path id="Trazado_170150" data-name="Trazado 170150" d="M-208.522,1806.067c-.5-.632-1.459-1.439-.943-2.065.6-.728,1.633-.009,2.417.381a6.268,6.268,0,0,1,.788.548C-207.17,1805-207.723,1805.778-208.522,1806.067Z" transform="translate(-138.924 -121.855)" fill="#dee0c5"/>
    <path id="Trazado_170151" data-name="Trazado 170151" d="M-228.478,1685.97a6.868,6.868,0,0,1-6.608-6.968,6.889,6.889,0,0,1,6.946-6.644,6.866,6.866,0,0,1,6.665,7.053A6.839,6.839,0,0,1-228.478,1685.97Zm3.077-6.7a2.828,2.828,0,0,0-2.74-2.977,2.844,2.844,0,0,0-3.012,2.708,2.827,2.827,0,0,0,2.814,3.044A2.809,2.809,0,0,0-225.4,1679.269Z" transform="translate(-123.137 -40.463)"/>
    <path id="Trazado_170152" data-name="Trazado 170152" d="M-342.1,1618.9a9.9,9.9,0,0,0,6.626-1,6.827,6.827,0,0,1,5.52.066c3.295,1.215,6.6,2.353,10.174,2.325.637,0,.7.314.6.795-.31,1.479-.6,2.964-.955,4.432a1.061,1.061,0,0,1-1.585.849,26.851,26.851,0,0,0-3.024-.757,5.448,5.448,0,0,0-5.994,2.272c-3.247,4.657-3.434,9.615,1.085,13.766a41.929,41.929,0,0,0,6.7,4.776,15.25,15.25,0,0,1,6.392,7.184,31.882,31.882,0,0,0,3.056,5.6,2,2,0,0,1,.382,1.185q-.015,8.741-.007,17.471c-.127.038-.241.111-.291.08a53.264,53.264,0,0,0-13.255-6.014c-2.217-.656-3.892-2.3-5.533-3.885A70.874,70.874,0,0,1-341.8,1656.1a2.271,2.271,0,0,1-.41-1.32q.018-17.627.014-35.254A4.547,4.547,0,0,1-342.1,1618.9Z" transform="translate(-56.752 -6.369)" fill="#fdfdfd"/>
    <path id="Trazado_170153" data-name="Trazado 170153" d="M-396.815,1650.494a12.692,12.692,0,0,1-1.38-2.3,6.805,6.805,0,0,0-3.871-3.883c-1.615-.787-3.176-1.686-4.738-2.576a2.7,2.7,0,0,0-3.052.073c-2.846,1.785-5.762,3.46-8.6,5.254-1.38.872-2.816.632-4.258.47a.818.818,0,0,1-.726-1.144,12.927,12.927,0,0,1,.727-1.99,15.965,15.965,0,0,0,.914-12.791c-.076-.224-.125-.456-.192-.683a6.023,6.023,0,0,1,5.055-7.834,3.323,3.323,0,0,1,2.995.882c2.231,2.087,4.718,3.643,7.963,3.449a6,6,0,0,0,5.119-3.069c.433-.732.788-1.512,1.229-2.239a6.192,6.192,0,0,1,1.027-1.341c.484-.45,1.148-.917,1.775-.669.6.237.278,1.006.279,1.529q.028,13.712.013,27.423v1.381Z" transform="translate(-6.373 -8.038)" fill="#59b864"/>
    <path id="Trazado_170154" data-name="Trazado 170154" d="M-255.429,1740.2a25.88,25.88,0,0,0,12.134,4.915c.854.125,1.037.683,1.182,1.353.183.844-.521.921-1.013,1.1a11.814,11.814,0,0,1-2.323.627c-1.048.142-1.823.529-2.025,1.64a2.1,2.1,0,0,0,1.293,2.29q7.327,4.356,14.633,8.748c.933.561,1.8,1.236,2.755,1.755s.823,1.061.33,1.827c-.645,1-1.014.121-1.409-.176-2-1.507-3.9-3.187-6.483-3.668a4.854,4.854,0,0,0-4.842,1.7c-1.212,1.415-.925,3-.226,4.54a26.88,26.88,0,0,0,2.869,4.565,8.787,8.787,0,0,1-1.617,12.106,10.415,10.415,0,0,1-6.49,2.844c-3.439.132-5.94,2.877-6.478,6.942a10.569,10.569,0,0,0-.211,1.687c.031.946-.469,1.039-1.244,1.044-.888.007-.84-.519-.838-1.114.008-2.56.028-5.119-.011-7.678-.012-.8.148-1.145,1.066-1.217,3.328-.264,5.462-2.161,6.62-5.213,2.7-7.116,1.508-13.566-3.4-19.348a15.33,15.33,0,0,0-2.637-2.769c-1.44-1.01-1.7-2.253-1.671-3.879C-255.371,1750.047-255.429,1745.271-255.429,1740.2Z" transform="translate(-110.509 -82.511)" fill="#ea402b"/>
    <path id="Trazado_170155" data-name="Trazado 170155" d="M-294.643,1860.094c0,1.373-.046,2.747.016,4.117.042.918-.359,1.066-1.1.828a9.159,9.159,0,0,1-1.186-.463,30.759,30.759,0,0,0-11.532-2.6,3.812,3.812,0,0,1-3.906-3.522,1.238,1.238,0,0,1,.071-.678c.834-1.851,1.708-3.684,2.528-5.54.26-.589.661-.57,1.153-.463,4.385.953,8.768,1.916,13.158,2.843.655.138.822.459.808,1.075C-294.666,1857.158-294.643,1858.626-294.643,1860.094Z" transform="translate(-75.243 -151.619)" fill="#fdfcfc"/>
    <path id="Trazado_170156" data-name="Trazado 170156" d="M-398.274,1792.44c-3.75-2.793-6.914-5.568-6.735-10.479a14.292,14.292,0,0,1,.928-4.137c.239-.692.586-.708,1.158-.354,1.731,1.071,3.471,2.131,5.238,3.139a1.319,1.319,0,0,1,.671,1.534C-397.433,1785.466-397.83,1788.792-398.274,1792.44Z" transform="translate(-17.827 -105.465)" fill="#79c081"/>
    <path id="Trazado_170157" data-name="Trazado 170157" d="M-218.993,1685.679a2.809,2.809,0,0,1-2.939,2.775,2.827,2.827,0,0,1-2.814-3.044,2.844,2.844,0,0,1,3.012-2.708A2.828,2.828,0,0,1-218.993,1685.679Z" transform="translate(-129.544 -46.873)" fill="#e2e5c9"/>
  </g>
</svg>
