<svg xmlns="http://www.w3.org/2000/svg" width="100" height="99.964" viewBox="0 0 100 99.964">
  <g id="dia-de-paga" transform="translate(0 -0.092)">
    <g id="Grupo_85075" data-name="Grupo 85075" transform="translate(1.464 5.24)">
      <g id="Grupo_85065" data-name="Grupo 85065" transform="translate(18.933)">
        <g id="Grupo_85062" data-name="Grupo 85062" transform="translate(0)">
          <path id="Trazado_148171" data-name="Trazado 148171" d="M179,97.623H108.06a3.6,3.6,0,0,1-3.6-3.6V30.36a3.905,3.905,0,0,1,3.905-3.905h70.328A3.905,3.905,0,0,1,182.6,30.36V94.021A3.6,3.6,0,0,1,179,97.623Z" transform="translate(-104.459 -26.455)" fill="#fff"/>
        </g>
        <path id="Trazado_148173" data-name="Trazado 148173" d="M182.6,40.374H104.459V30.36a3.905,3.905,0,0,1,3.905-3.905h70.328A3.905,3.905,0,0,1,182.6,30.36Z" transform="translate(-104.459 -26.455)" fill="#ff9800"/>
        <g id="Grupo_85064" data-name="Grupo 85064" transform="translate(25.705 22.235)">
          <g id="Grupo_85063" data-name="Grupo 85063">
            <path id="Trazado_148175" data-name="Trazado 148175" d="M236.1,140.325h9.508v9.508H236.1Z" transform="translate(-236.101 -140.325)" fill="#ffcba0"/>
            <path id="Trazado_148176" data-name="Trazado 148176" d="M324.293,140.325H333.8v9.508h-9.508Z" transform="translate(-307.072 -140.325)" fill="#ffcba0"/>
            <path id="Trazado_148177" data-name="Trazado 148177" d="M412.484,140.325h9.508v9.508h-9.508Z" transform="translate(-378.043 -140.325)" fill="#ffcba0"/>
            <path id="Trazado_148178" data-name="Trazado 148178" d="M236.1,220.571h9.508v9.508H236.1Z" transform="translate(-236.101 -204.902)" fill="#ffcba0"/>
            <path id="Trazado_148179" data-name="Trazado 148179" d="M324.293,220.571H333.8v9.508h-9.508Z" transform="translate(-307.072 -204.902)" fill="#ffcba0"/>
          </g>
          <path id="Trazado_148180" data-name="Trazado 148180" d="M412.484,220.571h9.508v9.508h-9.508Z" transform="translate(-378.043 -204.902)" fill="#ff9800"/>
          <path id="Trazado_148181" data-name="Trazado 148181" d="M236.1,300.818h9.508v9.508H236.1Z" transform="translate(-236.101 -269.48)" fill="#ffcba0"/>
          <path id="Trazado_148182" data-name="Trazado 148182" d="M324.293,300.818H333.8v9.508h-9.508Z" transform="translate(-307.072 -269.48)" fill="#ffcba0"/>
          <path id="Trazado_148183" data-name="Trazado 148183" d="M412.484,300.818h9.508v9.508h-9.508Z" transform="translate(-378.043 -269.48)" fill="#ffcba0"/>
        </g>
      </g>
      <g id="Grupo_85072" data-name="Grupo 85072" transform="translate(0 20.664)">
        <path id="Trazado_148184" data-name="Trazado 148184" d="M45.694,136.833v63.58a4.554,4.554,0,0,1-4.554,4.554H12.054A4.554,4.554,0,0,1,7.5,200.413v-63.58a4.554,4.554,0,0,1,4.554-4.554H41.14A4.554,4.554,0,0,1,45.694,136.833Z" transform="translate(-7.5 -132.279)" fill="#b5e6a8"/>
        <path id="Trazado_148185" data-name="Trazado 148185" d="M147.589,132.28h-7.811a4.554,4.554,0,0,1,4.554,4.554v63.58a4.554,4.554,0,0,1-4.554,4.554h7.811a4.554,4.554,0,0,0,4.554-4.554v-63.58A4.554,4.554,0,0,0,147.589,132.28Z" transform="translate(-113.949 -132.28)" fill="#a5d998"/>
        <g id="Grupo_85068" data-name="Grupo 85068" transform="translate(0 0)">
          <g id="Grupo_85066" data-name="Grupo 85066" transform="translate(0 60.282)">
            <path id="Trazado_148186" data-name="Trazado 148186" d="M19.906,453.409H12.054A4.554,4.554,0,0,1,7.5,448.855V441A12.406,12.406,0,0,1,19.906,453.409Z" transform="translate(-7.5 -441.003)" fill="#3aa673"/>
          </g>
          <g id="Grupo_85067" data-name="Grupo 85067">
            <path id="Trazado_148187" data-name="Trazado 148187" d="M7.5,144.686v-7.852a4.554,4.554,0,0,1,4.554-4.554h7.852A12.406,12.406,0,0,1,7.5,144.686Z" transform="translate(-7.5 -132.28)" fill="#3aa673"/>
          </g>
        </g>
        <g id="Grupo_85070" data-name="Grupo 85070" transform="translate(25.788 0)">
          <g id="Grupo_85069" data-name="Grupo 85069">
            <path id="Trazado_148188" data-name="Trazado 148188" d="M139.567,132.28h7.852a4.554,4.554,0,0,1,4.554,4.554v7.852A12.406,12.406,0,0,1,139.567,132.28Z" transform="translate(-139.567 -132.28)" fill="#3aa673"/>
          </g>
        </g>
        <g id="Grupo_85071" data-name="Grupo 85071" transform="translate(7.015 24.298)">
          <ellipse id="Elipse_4204" data-name="Elipse 4204" cx="12.082" cy="12.046" rx="12.082" ry="12.046" fill="#3aa673"/>
        </g>
      </g>
      <g id="Grupo_85074" data-name="Grupo 85074" transform="translate(18.055 67.484)">
        <path id="Trazado_148189" data-name="Trazado 148189" d="M99.966,471.417h14.609v6.467H99.966Z" transform="translate(-99.966 -452.016)" fill="#ffe563"/>
        <path id="Trazado_148190" data-name="Trazado 148190" d="M99.966,438.3h14.609v6.467H99.966Z" transform="translate(-99.966 -425.363)" fill="#ffb700"/>
        <path id="Trazado_148191" data-name="Trazado 148191" d="M249.6,438.3h14.609v6.467H249.6Z" transform="translate(-220.384 -425.363)" fill="#ffb700"/>
        <path id="Trazado_148192" data-name="Trazado 148192" d="M174.784,471.417h14.609v6.467H174.784Z" transform="translate(-160.175 -452.016)" fill="#ffb700"/>
        <g id="Grupo_85073" data-name="Grupo 85073">
          <path id="Trazado_148193" data-name="Trazado 148193" d="M174.784,438.3h14.609v6.467H174.784Z" transform="translate(-160.175 -425.363)" fill="#ffee58"/>
          <path id="Trazado_148194" data-name="Trazado 148194" d="M99.966,405.177h14.609v6.467H99.966Z" transform="translate(-99.966 -398.71)" fill="#ffee58"/>
          <path id="Trazado_148195" data-name="Trazado 148195" d="M174.784,372.057h14.609v6.467H174.784Z" transform="translate(-160.175 -372.057)" fill="#ffee58"/>
        </g>
        <path id="Trazado_148196" data-name="Trazado 148196" d="M174.784,405.177h14.609v6.467H174.784Z" transform="translate(-160.175 -398.71)" fill="#ffb700"/>
        <path id="Trazado_148197" data-name="Trazado 148197" d="M249.6,471.417h14.609v6.467H249.6Z" transform="translate(-220.384 -452.016)" fill="#ffe563"/>
      </g>
    </g>
    <g id="Grupo_85076" data-name="Grupo 85076" transform="translate(0 0.092)">
      <path id="Trazado_148198" data-name="Trazado 148198" d="M94.63,3.775H85.079V1.546a1.465,1.465,0,0,0-2.929,0v2.23H75.4V1.546a1.465,1.465,0,0,0-2.929,0v2.23H65.712V1.546a1.465,1.465,0,0,0-2.929,0v2.23H56.028V1.546a1.465,1.465,0,0,0-2.929,0v2.23H46.344V1.546a1.465,1.465,0,0,0-2.929,0v2.23H36.661V1.546a1.465,1.465,0,0,0-2.929,0v2.23H24.3a5.376,5.376,0,0,0-5.37,5.37V24.439H6.019A6.026,6.026,0,0,0,0,30.457v63.58a6.025,6.025,0,0,0,6.019,6.019H52.827a1.465,1.465,0,0,0,0-2.929H50.2V93.589h11.68v3.538h-1.46a1.465,1.465,0,0,0,0,2.929h2.925a1.465,1.465,0,0,0,1.464-1.464V85.657a1.465,1.465,0,0,0-1.464-1.464H50.2V77.872H94.935A5.071,5.071,0,0,0,100,72.806V9.145a5.376,5.376,0,0,0-5.37-5.37ZM32.665,84.193H20.984V80.655h11.68Zm-11.68,2.929h11.68V90.66H20.984Zm14.609,0h11.68V90.66H35.593Zm11.68-2.929H35.594V80.655h11.68Zm0-6.467H35.594V74.188h11.68Zm-9.08-40.982a10.961,10.961,0,0,1-9.376-9.376H35.1a3.093,3.093,0,0,1,3.09,3.09v6.287ZM25.866,27.368A13.9,13.9,0,0,0,38.194,39.7V71.259H34.129a1.465,1.465,0,0,0-1.464,1.464v5H19.52a1.465,1.465,0,0,0-1.464,1.464V97.127h-2.8A13.9,13.9,0,0,0,2.929,84.8V39.7A13.9,13.9,0,0,0,15.257,27.368Zm-19.847,0H12.3a10.961,10.961,0,0,1-9.376,9.376V30.457a3.093,3.093,0,0,1,3.09-3.089Zm-3.09,66.67V87.751A10.961,10.961,0,0,1,12.3,97.127H6.019A3.093,3.093,0,0,1,2.929,94.037Zm18.055-.449h11.68v3.538H20.984Zm14.609,0h11.68v3.538H35.593Zm26.29-2.929H50.2V87.122h11.68ZM94.935,74.943H50.2V72.723a1.465,1.465,0,0,0-1.464-1.464H41.123v-40.8A6.025,6.025,0,0,0,35.1,24.439H21.862V20.623h9.991a1.465,1.465,0,0,0,0-2.929H21.862V9.145A2.443,2.443,0,0,1,24.3,6.7h9.43v2.23a1.465,1.465,0,0,0,2.929,0V6.7h6.755v2.23a1.465,1.465,0,0,0,2.929,0V6.7H53.1v2.23a1.465,1.465,0,0,0,2.929,0V6.7h6.755v2.23a1.465,1.465,0,0,0,2.929,0V6.7h6.755v2.23a1.465,1.465,0,0,0,2.929,0V6.7h6.755v2.23a1.465,1.465,0,0,0,2.929,0V6.7h9.551a2.443,2.443,0,0,1,2.441,2.441v8.549H39.641a1.465,1.465,0,0,0,0,2.929h57.43V72.806a2.139,2.139,0,0,1-2.136,2.136Z" transform="translate(0 -0.092)"/>
      <path id="Trazado_148199" data-name="Trazado 148199" d="M239.574,132.824h-9.508a1.465,1.465,0,0,0-1.464,1.464V143.8a1.464,1.464,0,0,0,1.464,1.464h9.508a1.465,1.465,0,0,0,1.464-1.464v-9.508A1.465,1.465,0,0,0,239.574,132.824Zm-1.464,9.508h-6.579v-6.579h6.579Z" transform="translate(-183.964 -106.906)"/>
      <path id="Trazado_148200" data-name="Trazado 148200" d="M327.765,132.824h-9.508a1.465,1.465,0,0,0-1.464,1.464V143.8a1.465,1.465,0,0,0,1.464,1.464h9.508a1.465,1.465,0,0,0,1.464-1.464v-9.508A1.465,1.465,0,0,0,327.765,132.824Zm-1.464,9.508h-6.579v-6.579H326.3Z" transform="translate(-254.935 -106.906)"/>
      <path id="Trazado_148201" data-name="Trazado 148201" d="M415.957,132.824h-9.508a1.465,1.465,0,0,0-1.464,1.464V143.8a1.465,1.465,0,0,0,1.464,1.464h9.508a1.464,1.464,0,0,0,1.464-1.464v-9.508A1.464,1.464,0,0,0,415.957,132.824Zm-1.464,9.508h-6.579v-6.579h6.579Z" transform="translate(-325.906 -106.906)"/>
      <path id="Trazado_148202" data-name="Trazado 148202" d="M239.574,213.071h-9.508a1.465,1.465,0,0,0-1.464,1.464v9.508a1.465,1.465,0,0,0,1.464,1.464h9.508a1.465,1.465,0,0,0,1.464-1.464v-9.508A1.465,1.465,0,0,0,239.574,213.071Zm-1.464,9.508h-6.579V216h6.579Z" transform="translate(-183.964 -171.484)"/>
      <path id="Trazado_148203" data-name="Trazado 148203" d="M327.765,213.071h-9.508a1.465,1.465,0,0,0-1.464,1.464v9.508a1.465,1.465,0,0,0,1.464,1.464h9.508a1.465,1.465,0,0,0,1.464-1.464v-9.508A1.465,1.465,0,0,0,327.765,213.071Zm-1.464,9.508h-6.579V216H326.3Z" transform="translate(-254.935 -171.484)"/>
      <path id="Trazado_148204" data-name="Trazado 148204" d="M415.957,213.071h-9.508a1.465,1.465,0,0,0-1.464,1.464v9.508a1.465,1.465,0,0,0,1.464,1.464h9.508a1.464,1.464,0,0,0,1.464-1.464v-9.508A1.464,1.464,0,0,0,415.957,213.071Zm-1.464,9.508h-6.579V216h6.579Z" transform="translate(-325.906 -171.484)"/>
      <path id="Trazado_148205" data-name="Trazado 148205" d="M239.574,293.318h-9.508a1.465,1.465,0,0,0-1.464,1.464v9.508a1.464,1.464,0,0,0,1.464,1.464h9.508a1.464,1.464,0,0,0,1.464-1.464v-9.508A1.465,1.465,0,0,0,239.574,293.318Zm-1.464,9.508h-6.579v-6.579h6.579Z" transform="translate(-183.964 -236.062)"/>
      <path id="Trazado_148206" data-name="Trazado 148206" d="M327.765,293.318h-9.508a1.465,1.465,0,0,0-1.464,1.464v9.508a1.464,1.464,0,0,0,1.464,1.464h9.508a1.464,1.464,0,0,0,1.464-1.464v-9.508A1.465,1.465,0,0,0,327.765,293.318Zm-1.464,9.508h-6.579v-6.579H326.3Z" transform="translate(-254.935 -236.062)"/>
      <path id="Trazado_148207" data-name="Trazado 148207" d="M415.957,293.318h-9.508a1.465,1.465,0,0,0-1.464,1.464v9.508a1.464,1.464,0,0,0,1.464,1.464h9.508a1.464,1.464,0,0,0,1.464-1.464v-9.508A1.464,1.464,0,0,0,415.957,293.318Zm-1.464,9.508h-6.579v-6.579h6.579Z" transform="translate(-325.906 -236.062)"/>
      <path id="Trazado_148208" data-name="Trazado 148208" d="M35.924,262.727a13.544,13.544,0,0,0,13.547,13.511c17.972-.743,17.966-26.282,0-27.021A13.544,13.544,0,0,0,35.924,262.727Zm24.164,0a10.612,10.612,0,0,1-10.618,10.582c-14.086-.582-14.082-20.584,0-21.163A10.612,10.612,0,0,1,60.088,262.727Z" transform="translate(-28.909 -200.571)"/>
      <path id="Trazado_148209" data-name="Trazado 148209" d="M68.968,298.662c-.177.5-.8,2.932-1.788,2.745-1.034-.2-.977-1.6-.5-2.3a1.535,1.535,0,0,0,.083-2.083c-1.015-1.121-2.232.093-2.232.093a4.412,4.412,0,0,0-.933,1.757c-2.275.142-2.167,2.895.09,2.929a3.836,3.836,0,0,0,2.946,2.478,3.459,3.459,0,0,0,3.4-1.153,12.637,12.637,0,0,0,1.691-3.49,1.1,1.1,0,0,1,1.321-.818,1.546,1.546,0,0,1,1.307,1.529,2.792,2.792,0,0,1-.534,2.052,1.464,1.464,0,0,0,.42,2.028,1.51,1.51,0,0,0,2.028-.42,5.456,5.456,0,0,0,.927-2.206c2.35-.1,2.176-3.076-.161-2.929a4.55,4.55,0,0,0-3.5-2.942A4.032,4.032,0,0,0,68.968,298.662Z" transform="translate(-49.85 -238.118)"/>
    </g>
  </g>
</svg>
