<svg xmlns="http://www.w3.org/2000/svg" width="100" height="90.121" viewBox="0 0 100 90.121">
  <g id="Grupo_110671" data-name="Grupo 110671" transform="translate(594.688 -1595.458)">
    <path id="Trazado_170242" data-name="Trazado 170242" d="M-545.046,1669.836c-.313,1.227-.679,1.495-2.1,1.495q-15.305,0-30.61,0-3.753,0-7.506,0c-4.736,0-7.662-2.109-9.173-6.6-.049-.146-.041-.33-.251-.365v-55.657c.333-.19.277-.558.365-.848a8.664,8.664,0,0,1,8.122-6.176c2.212-.04,4.425-.05,6.636.006.76.019.939-.215.885-.924a4.509,4.509,0,0,1,2.457-4.788,4.483,4.483,0,0,1,6.532,3.866c.065,1.825.065,1.825,1.9,1.825,1.758,0,1.758,0,1.8-1.736a4.515,4.515,0,0,1,4.476-4.475A4.543,4.543,0,0,1-557,1599.9c.056,1.771.056,1.771,1.851,1.771s1.791,0,1.844-1.792a4.513,4.513,0,0,1,4.433-4.418,4.546,4.546,0,0,1,4.565,4.4c.07,1.813.07,1.813,1.908,1.813,1.74,0,1.74,0,1.786-1.753a4.512,4.512,0,0,1,4.49-4.459,4.545,4.545,0,0,1,4.51,4.456c.055,1.756.055,1.756,1.866,1.756,1.772,0,1.772,0,1.828-1.81a4.511,4.511,0,0,1,4.447-4.4,4.565,4.565,0,0,1,4.552,4.318c.034.608-.272,1.461.139,1.758.433.313,1.238.126,1.881.134a61.673,61.673,0,0,1,6.338.1,8.592,8.592,0,0,1,7.636,8.877c.017,7.938,0,15.876,0,23.814,0,.52,0,1.041,0,1.561-.01,1.27-.28,1.618-1.54,1.991a1.662,1.662,0,0,1-1.435-1.578c.012-5.983,0-11.966.058-17.949.008-.9-.236-1.115-1.12-1.113-10.765.032-21.531.02-32.3.02q-17.9,0-35.808,0c-1.571,0-1.937-.289-2.121-1.643.438-1.139.727-1.307,2.278-1.307h67.653c.26,0,.522-.019.781,0,.458.041.632-.127.62-.607-.032-1.236.038-2.476-.032-3.708a5.719,5.719,0,0,0-5.818-5.511c-1.855-.019-3.71,0-5.564,0-1.627,0-1.627,0-1.651,1.577a4.549,4.549,0,0,1-4.534,4.635,4.524,4.524,0,0,1-4.471-4.581c-.029-1.631-.029-1.649-1.611-1.623-.672.011-1.526-.3-1.959.145-.317.326-.093,1.168-.128,1.779a4.557,4.557,0,0,1-4.488,4.281,4.519,4.519,0,0,1-4.5-4.253c-.093-1.96-.093-1.96-2.071-1.96-1.6,0-1.6,0-1.625,1.6a4.547,4.547,0,0,1-4.559,4.609,4.524,4.524,0,0,1-4.447-4.607c-.025-1.606-.025-1.61-1.635-1.6-.647,0-1.467-.208-1.893.107-.465.344-.121,1.21-.163,1.847a4.572,4.572,0,0,1-4.516,4.257,4.564,4.564,0,0,1-4.476-4.08c-.06-.7.321-1.658-.2-2.029-.477-.342-1.378-.1-2.092-.1-1.4,0-1.4,0-1.411,1.425a4.476,4.476,0,0,1-3.894,4.719,4.536,4.536,0,0,1-4.66-2.361,6.642,6.642,0,0,1-.438-3.146c.038-.525-.155-.656-.658-.651-2.306.026-4.613-.025-6.918.029a5.648,5.648,0,0,0-5.335,4.462,30.409,30.409,0,0,0-.175,4.563c-.045.652.18.81.81.8,2.825-.033,5.652,0,8.477-.023a1.839,1.839,0,0,1,2.021,1.3c-.261,1.354-.6,1.655-1.944,1.66-2.733.009-5.467.044-8.2-.02-.909-.021-1.18.164-1.178,1.138q.056,21.714.026,43.429c0,.325-.006.651.009.976a5.567,5.567,0,0,0,5.089,5.38c3.567.213,7.147.142,10.721.021.387.023.773.067,1.159.067q12.849.006,25.7,0c1.005,0,2.01.03,3.015.046A1.692,1.692,0,0,1-545.046,1669.836Zm20.066-66.758c0,1.041-.017,2.083,0,3.123a1.569,1.569,0,0,0,1.537,1.669,1.585,1.585,0,0,0,1.576-1.646q.044-3.074,0-6.15a1.594,1.594,0,0,0-1.554-1.669,1.589,1.589,0,0,0-1.562,1.744C-524.994,1601.126-524.982,1602.1-524.981,1603.079Zm-47.644.038c0-1.008.02-2.018-.006-3.026a1.606,1.606,0,0,0-1.538-1.685,1.582,1.582,0,0,0-1.579,1.729q-.025,2.977,0,5.954a1.6,1.6,0,0,0,1.527,1.782c.929.018,1.579-.713,1.595-1.826C-572.613,1605.069-572.624,1604.093-572.625,1603.117Zm9.565-.064c0,1.041-.015,2.083,0,3.124a1.579,1.579,0,0,0,1.514,1.7,1.6,1.6,0,0,0,1.6-1.717q.032-3.026,0-6.052a1.6,1.6,0,0,0-1.527-1.7,1.585,1.585,0,0,0-1.591,1.717C-563.074,1601.1-563.06,1602.076-563.06,1603.052Zm12.693,0c0,1.041-.015,2.083,0,3.124a1.577,1.577,0,0,0,1.517,1.693,1.578,1.578,0,0,0,1.6-1.623q.045-3.123,0-6.247a1.576,1.576,0,0,0-1.623-1.6,1.565,1.565,0,0,0-1.485,1.623C-550.385,1601.037-550.365,1602.047-550.367,1603.056Zm12.693.041c0,1.041-.018,2.083.005,3.124a1.568,1.568,0,0,0,1.555,1.651,1.589,1.589,0,0,0,1.559-1.664q.039-3.075,0-6.15a1.588,1.588,0,0,0-1.57-1.652,1.572,1.572,0,0,0-1.543,1.664C-537.691,1601.078-537.674,1602.087-537.673,1603.1Z" transform="translate(0 0)" fill="#030404"/>
    <path id="Trazado_170243" data-name="Trazado 170243" d="M-359.347,1758.835a25.754,25.754,0,0,1,7.712,9.773c6.409,14.491-2.835,31.458-18.441,33.83a24.372,24.372,0,0,1-26.5-14.944c-.073-.176-.173-.34-.26-.51-.084-.311-.152-.627-.253-.932a23.955,23.955,0,0,1-.581-13.244c.3-1.276.647-1.545,1.943-1.524a1.639,1.639,0,0,1,.928,2.171,20.451,20.451,0,0,0-.435,7.46,21.493,21.493,0,0,0,24.077,18.731,21.476,21.476,0,0,0,17.764-27.267,21.359,21.359,0,0,0-23.98-15.1,21.139,21.139,0,0,0-14.839,9.924c-.735,1.154-1.084,1.315-2.307,1.032a1.616,1.616,0,0,1-.437-2.23c4.621-8.266,15.191-13.289,24.56-11.737A26.537,26.537,0,0,1-359.347,1758.835Z" transform="translate(-145.108 -117.153)" fill="#030404"/>
    <path id="Trazado_170244" data-name="Trazado 170244" d="M-405.285,1761.664c-1.3-.021-1.643.249-1.943,1.524a23.955,23.955,0,0,0,.581,13.244c.1.305.17.621.253.932l-3.1.005a1.692,1.692,0,0,0-1.013-1.408,4.745,4.745,0,0,0-.043-.776,29.316,29.316,0,0,1-.579-9.236,27.851,27.851,0,0,1,2.728-9.546,27.641,27.641,0,0,1,5.921-7.883,27.643,27.643,0,0,1,9.6-5.91,43.4,43.4,0,0,1,7.163-1.645,25.314,25.314,0,0,0,6.653.106.393.393,0,0,0,.38.36,24.5,24.5,0,0,1,7.3,2.379,1.957,1.957,0,0,0,1.038.149,1.662,1.662,0,0,0,1.435,1.578l0,3.676a26.537,26.537,0,0,0-11.047-4.571c-9.37-1.552-19.939,3.471-24.56,11.737a1.616,1.616,0,0,0,.437,2.23A14.148,14.148,0,0,0-405.285,1761.664Z" transform="translate(-135.549 -107.534)" fill="#fff"/>
    <path id="Trazado_170245" data-name="Trazado 170245" d="M-459.991,1693.868a1.957,1.957,0,0,1-1.038-.149,24.5,24.5,0,0,0-7.3-2.379.393.393,0,0,1-.38-.36,3.587,3.587,0,0,0,2.409-3.812c-.053-1.265.013-2.534-.019-3.8a3.3,3.3,0,0,0-3.361-3.421c-1.46-.051-2.925-.052-4.386,0a3.378,3.378,0,0,0-3.409,3.5c-.023,1.234.03,2.47-.013,3.7a3.7,3.7,0,0,0,2.125,3.727,43.4,43.4,0,0,0-7.163,1.645,27.643,27.643,0,0,0-9.6,5.91,27.642,27.642,0,0,0-5.921,7.883,27.852,27.852,0,0,0-2.728,9.547,29.316,29.316,0,0,0,.579,9.236,4.745,4.745,0,0,1,.043.776c-1-.016-2.01-.045-3.015-.046q-12.849-.005-25.7-.005c-.386,0-.773-.044-1.159-.067a8.28,8.28,0,0,1-2.545-4.906,3.64,3.64,0,0,0,3.936-4.28c-.075-.9-.012-1.812-.012-2.719,0-.1,0-.194,0-.292-.005-2.63-1.119-3.754-3.923-3.96q0-1.8,0-3.6a3.634,3.634,0,0,0,3.937-4.278c-.075-.868-.012-1.748-.012-2.622,0-.129,0-.259,0-.389-.005-2.632-1.133-3.769-3.923-3.955q0-1.8,0-3.6c2.739-.03,4.148-1.749,3.937-4.281a17.007,17.007,0,0,1,0-2.814,3.565,3.565,0,0,0-3.934-4.146q0-3.36,0-6.721l1.295-.008c.184,1.354.55,1.643,2.121,1.643q17.9,0,35.808,0c10.765,0,21.531.011,32.3-.02.884,0,1.129.211,1.12,1.113C-459.988,1681.9-459.979,1687.885-459.991,1693.868Zm-27.507-2.76c.748,0,1.5.031,2.244-.006a3.331,3.331,0,0,0,3.335-3.174,38.97,38.97,0,0,0-.005-4.873,3.228,3.228,0,0,0-3.272-3.1c-1.494-.058-2.993-.057-4.487-.005a3.324,3.324,0,0,0-3.366,3.341c-.062,1.461-.057,2.928,0,4.39a3.417,3.417,0,0,0,3.507,3.431C-488.864,1691.127-488.181,1691.11-487.5,1691.108Zm-21.105-5.646h-.021c0,.748-.025,1.5,0,2.244a3.375,3.375,0,0,0,3.421,3.4q2.145.063,4.293,0a3.4,3.4,0,0,0,3.442-3.4c.049-1.462.048-2.928,0-4.39a3.3,3.3,0,0,0-3.15-3.346,48.294,48.294,0,0,0-4.973.01,3.2,3.2,0,0,0-3.008,3.043C-508.651,1683.832-508.6,1684.649-508.6,1685.461Zm-15.6.039h-.006c0,.715-.013,1.431,0,2.147a3.363,3.363,0,0,0,3.362,3.45c1.462.052,2.929.051,4.391,0a3.4,3.4,0,0,0,3.4-3.528c.017-1.431.03-2.863-.005-4.293a3.269,3.269,0,0,0-3.082-3.3,46.785,46.785,0,0,0-5.069.01,3.222,3.222,0,0,0-2.985,3.17C-524.226,1683.938-524.2,1684.72-524.2,1685.5Zm15.581,14.825h0c0,.748-.026,1.5,0,2.244a3.374,3.374,0,0,0,3.437,3.376c1.43.032,2.863.036,4.293,0a3.4,3.4,0,0,0,3.426-3.407c.046-1.462.05-2.928,0-4.39a3.341,3.341,0,0,0-3.359-3.347c-1.495-.038-2.993-.041-4.488,0a3.29,3.29,0,0,0-3.3,3.281C-508.649,1698.828-508.619,1699.578-508.619,1700.326Zm-15.586-.012c0,.748-.016,1.5,0,2.244a3.352,3.352,0,0,0,3.326,3.383c1.494.051,2.994.051,4.488,0a3.365,3.365,0,0,0,3.326-3.294q.069-2.291,0-4.585a3.283,3.283,0,0,0-3.14-3.245c-1.624-.065-3.254-.065-4.877,0a3.262,3.262,0,0,0-3.118,3.252C-524.223,1698.817-524.2,1699.565-524.205,1700.313Zm0,14.856h0c0,.715-.011,1.431,0,2.146a3.366,3.366,0,0,0,3.337,3.474c1.494.053,2.994.056,4.488,0a3.367,3.367,0,0,0,3.318-3.3q.067-2.291,0-4.585a3.277,3.277,0,0,0-3.148-3.235c-1.623-.067-3.254-.069-4.877,0a3.258,3.258,0,0,0-3.11,3.26C-524.223,1713.673-524.2,1714.422-524.2,1715.17Z" transform="translate(-45.903 -57.44)" fill="#fff"/>
    <path id="Trazado_170246" data-name="Trazado 170246" d="M-531.339,1641.409l-1.295.008-.022-.043c0-2,.013-4,.008-6a2.574,2.574,0,0,1,.249-1.312,4.537,4.537,0,0,0,4.66,2.36,4.476,4.476,0,0,0,3.894-4.719c.009-1.426.009-1.43,1.411-1.425.714,0,1.616-.24,2.092.1.517.371.136,1.329.2,2.029a4.564,4.564,0,0,0,4.476,4.08,4.573,4.573,0,0,0,4.516-4.258c.042-.637-.3-1.5.163-1.847.426-.314,1.246-.1,1.893-.107,1.609-.006,1.609,0,1.635,1.6a4.524,4.524,0,0,0,4.447,4.607,4.547,4.547,0,0,0,4.559-4.61c.028-1.6.028-1.6,1.625-1.6,1.978,0,1.978,0,2.071,1.96a4.519,4.519,0,0,0,4.5,4.253,4.557,4.557,0,0,0,4.488-4.281c.034-.611-.189-1.453.128-1.779.432-.444,1.287-.135,1.959-.145,1.582-.025,1.582-.008,1.611,1.623a4.524,4.524,0,0,0,4.471,4.581,4.549,4.549,0,0,0,4.534-4.636c.025-1.577.025-1.577,1.651-1.577,1.855,0,3.71-.015,5.564,0a5.719,5.719,0,0,1,5.818,5.511c.07,1.233,0,2.473.032,3.708.012.48-.162.648-.62.607-.258-.023-.52,0-.781,0H-529.06C-530.612,1640.1-530.9,1640.269-531.339,1641.409Z" transform="translate(-45.843 -25.666)" fill="#ffb74d"/>
    <path id="Trazado_170247" data-name="Trazado 170247" d="M-570.237,1691.054q0,1.8,0,3.6c-1.267.013-2.535.01-3.8.042a3.344,3.344,0,0,0-3.426,3.466c-.018,1.365-.013,2.731,0,4.1a3.422,3.422,0,0,0,3.623,3.595q1.8.024,3.6.044,0,1.8,0,3.6c-1.235.012-2.47.012-3.7.04a3.366,3.366,0,0,0-3.526,3.57c-.011,1.3-.007,2.6,0,3.9a3.451,3.451,0,0,0,3.721,3.7l3.508.04a8.281,8.281,0,0,0,2.545,4.906c-3.574.12-7.154.192-10.721-.021a5.567,5.567,0,0,1-5.089-5.38c-.016-.325-.009-.65-.009-.976q0-21.715-.026-43.429c0-.974.269-1.159,1.178-1.138,2.731.064,5.465.03,8.2.02,1.346,0,1.683-.306,1.944-1.66l1.959-.019.022.043q0,3.36,0,6.721c-1.3.009-2.6-.023-3.9.036a3.334,3.334,0,0,0-3.329,3.466c-.017,1.333-.009,2.666,0,4a3.45,3.45,0,0,0,3.721,3.7Z" transform="translate(-8.241 -57.34)" fill="#fff"/>
    <path id="Trazado_170248" data-name="Trazado 170248" d="M-570.24,1641.582l-1.959.019a1.839,1.839,0,0,0-2.021-1.3c-2.826.025-5.652-.01-8.477.023-.63.007-.855-.15-.81-.8a30.427,30.427,0,0,1,.175-4.563A5.648,5.648,0,0,1-578,1630.5c2.3-.054,4.612,0,6.918-.029.5-.006.7.125.658.651a6.642,6.642,0,0,0,.438,3.146,2.57,2.57,0,0,0-.249,1.312C-570.227,1637.58-570.236,1639.581-570.24,1641.582Z" transform="translate(-8.259 -25.875)" fill="#ffb74d"/>
    <path id="Trazado_170249" data-name="Trazado 170249" d="M-327.611,1611.428c0-.976-.013-1.953,0-2.928a1.589,1.589,0,0,1,1.563-1.744,1.594,1.594,0,0,1,1.554,1.669q.039,3.075,0,6.15a1.585,1.585,0,0,1-1.576,1.646,1.569,1.569,0,0,1-1.537-1.669C-327.628,1613.511-327.611,1612.469-327.611,1611.428Z" transform="translate(-197.37 -8.349)" fill="#e8e8e8"/>
    <path id="Trazado_170250" data-name="Trazado 170250" d="M-519.025,1611.464c0,.976.011,1.953,0,2.928-.016,1.113-.666,1.845-1.595,1.826a1.6,1.6,0,0,1-1.527-1.782q-.019-2.977,0-5.954a1.582,1.582,0,0,1,1.579-1.729,1.606,1.606,0,0,1,1.538,1.685C-519.005,1609.447-519.025,1610.456-519.025,1611.464Z" transform="translate(-53.6 -8.348)" fill="#e8e8e8"/>
    <path id="Trazado_170251" data-name="Trazado 170251" d="M-473.515,1611.4c0-.976-.014-1.953,0-2.928a1.585,1.585,0,0,1,1.591-1.717,1.6,1.6,0,0,1,1.527,1.7q.033,3.026,0,6.052a1.6,1.6,0,0,1-1.6,1.717,1.579,1.579,0,0,1-1.514-1.7C-473.531,1613.483-473.515,1612.441-473.515,1611.4Z" transform="translate(-89.545 -8.348)" fill="#e8e8e8"/>
    <path id="Trazado_170252" data-name="Trazado 170252" d="M-424.879,1611.4c0-1.009-.019-2.018.007-3.026a1.565,1.565,0,0,1,1.486-1.623,1.576,1.576,0,0,1,1.623,1.6q.049,3.123,0,6.247a1.578,1.578,0,0,1-1.6,1.623,1.577,1.577,0,0,1-1.517-1.693C-424.9,1613.482-424.88,1612.441-424.879,1611.4Z" transform="translate(-125.487 -8.344)" fill="#e8e8e8"/>
    <path id="Trazado_170253" data-name="Trazado 170253" d="M-376.246,1611.445c0-1.009-.018-2.018,0-3.026a1.572,1.572,0,0,1,1.543-1.664,1.588,1.588,0,0,1,1.57,1.652q.041,3.075,0,6.15a1.59,1.59,0,0,1-1.559,1.664,1.568,1.568,0,0,1-1.555-1.651C-376.264,1613.528-376.246,1612.486-376.246,1611.445Z" transform="translate(-161.427 -8.349)" fill="#e8e8e8"/>
    <path id="Trazado_170254" data-name="Trazado 170254" d="M-388.336,1779.754a14.149,14.149,0,0,1,1.208-3.052c1.223.283,1.571.123,2.307-1.032a21.139,21.139,0,0,1,14.839-9.924,21.359,21.359,0,0,1,23.98,15.1,21.476,21.476,0,0,1-17.764,27.267,21.493,21.493,0,0,1-24.077-18.731,20.451,20.451,0,0,1,.435-7.46A1.639,1.639,0,0,0-388.336,1779.754Zm16.6,6.813a5.212,5.212,0,0,0,5.2,5.482c2.951-.04,5.606-2.628,5.065-5.435-.336-1.746.379-2.458,1.508-3.255a7.6,7.6,0,0,0,.824-.685,1.5,1.5,0,0,0,.266-2.085,1.449,1.449,0,0,0-2.159-.15c-.694.535-1.379,1.085-2.035,1.666a.851.851,0,0,1-1.171.155,4.6,4.6,0,0,0-3.95-.3.876.876,0,0,1-1.134-.347c-.888-1.036-1.8-2.048-2.736-3.044a1.44,1.44,0,0,0-2.151-.252,1.467,1.467,0,0,0,0,2.235c.789.906,1.568,1.826,2.416,2.676.59.592.861,1.113.352,1.914A2.611,2.611,0,0,0-371.732,1786.567Zm21.368-1.184c-1.022,0-1.362.088-1.722.458a1.436,1.436,0,0,0,.047,2.081,3.161,3.161,0,0,0,3.281-.012,1.441,1.441,0,0,0,.024-2.082A2.051,2.051,0,0,0-350.364,1785.384Zm-32.353,2.958c.346.185.657-.031.988-.111a1.3,1.3,0,0,0,1.067-1.5c-.048-.884-.542-1.216-2.076-1.358-.842-.078-1.673.028-2.006.964a1.373,1.373,0,0,0,.6,1.766,2.117,2.117,0,0,0,.73.228A4.282,4.282,0,0,0-382.717,1788.342Zm14.654-17.721.057,0a8.521,8.521,0,0,0,0,.872,1.344,1.344,0,0,0,1.245,1.277,1.31,1.31,0,0,0,1.525-.919,3.571,3.571,0,0,0-.017-2.378,1.321,1.321,0,0,0-1.376-.877,1.311,1.311,0,0,0-1.278.88A5.563,5.563,0,0,0-368.063,1770.621Zm.037,32.344c0,1.118.057,1.365.421,1.729a1.471,1.471,0,0,0,2.087-.024,3.043,3.043,0,0,0-.053-3.347,1.459,1.459,0,0,0-2.084.087A2.069,2.069,0,0,0-368.026,1802.965Zm12.467-6.569a1.433,1.433,0,0,0-1.486,1.446,3.148,3.148,0,0,0,2.276,2.342,1.436,1.436,0,0,0,1.543-1.394A3.122,3.122,0,0,0-355.559,1796.4Zm2.333-21.44a1.437,1.437,0,0,0-1.516-1.423,3.051,3.051,0,0,0-2.3,2.414,1.438,1.438,0,0,0,1.458,1.38A3.1,3.1,0,0,0-353.226,1774.957Zm-25.209-1.439a1.433,1.433,0,0,0-1.48,1.459,3.161,3.161,0,0,0,2.278,2.345,1.412,1.412,0,0,0,1.531-1.4A3.128,3.128,0,0,0-378.435,1773.518Zm2.332,24.368a1.414,1.414,0,0,0-1.445-1.488,3.173,3.173,0,0,0-2.365,2.256,1.429,1.429,0,0,0,1.39,1.542A3.116,3.116,0,0,0-376.1,1797.885Z" transform="translate(-152.498 -125.624)" fill="#ffee58"/>
    <path id="Trazado_170255" data-name="Trazado 170255" d="M-319.388,1709.914a3.7,3.7,0,0,1-2.125-3.727c.043-1.233-.009-2.469.013-3.7a3.377,3.377,0,0,1,3.409-3.5c1.46-.048,2.925-.048,4.386,0a3.3,3.3,0,0,1,3.361,3.421c.031,1.266-.034,2.536.019,3.8a3.586,3.586,0,0,1-2.409,3.812A25.314,25.314,0,0,1-319.388,1709.914Zm6.109-5.328c0-.585-.031-1.172.008-1.754.045-.66-.178-.969-.879-.92-.615.042-1.234.009-1.852.009-2.563,0-2.563,0-2.563,2.555,0,2.731,0,2.731,2.7,2.731C-313.279,1707.206-313.279,1707.206-313.279,1704.586Z" transform="translate(-201.878 -76.48)" fill="#030404"/>
    <path id="Trazado_170256" data-name="Trazado 170256" d="M-375.7,1710.149c-.683,0-1.366.018-2.049,0a3.417,3.417,0,0,1-3.507-3.431c-.053-1.462-.058-2.929,0-4.39a3.324,3.324,0,0,1,3.366-3.341c1.494-.052,2.993-.053,4.487.005a3.228,3.228,0,0,1,3.272,3.1,38.976,38.976,0,0,1,.005,4.873,3.331,3.331,0,0,1-3.335,3.174C-374.2,1710.179-374.954,1710.148-375.7,1710.149Zm.027-8.228c-.618,0-1.236.022-1.853-.007-.6-.027-.811.244-.8.812.016,1.2.019,2.406,0,3.608-.01.612.218.892.857.878q1.8-.039,3.608,0c.649.015.857-.278.846-.884q-.032-1.8,0-3.608c.009-.572-.2-.837-.8-.807C-374.439,1701.945-375.058,1701.921-375.676,1701.921Z" transform="translate(-157.698 -76.481)" fill="#030404"/>
    <path id="Trazado_170257" data-name="Trazado 170257" d="M-440.81,1704.514c0-.813-.048-1.629.01-2.438a3.2,3.2,0,0,1,3.008-3.043,48.328,48.328,0,0,1,4.973-.01,3.3,3.3,0,0,1,3.15,3.346c.047,1.462.049,2.928,0,4.39a3.4,3.4,0,0,1-3.442,3.4q-2.144.064-4.293,0a3.375,3.375,0,0,1-3.421-3.4c-.029-.747,0-1.5,0-2.244Zm5.594-2.581c-.617,0-1.236.02-1.852-.006-.561-.023-.841.161-.828.773.027,1.234.024,2.47,0,3.7-.011.578.211.838.8.818.617-.021,1.235,0,1.852,0,2.647,0,2.647,0,2.647-2.686C-432.6,1701.933-432.6,1701.933-435.217,1701.933Z" transform="translate(-113.695 -76.493)" fill="#030404"/>
    <path id="Trazado_170258" data-name="Trazado 170258" d="M-500.517,1704.564c0-.781-.026-1.562.005-2.342a3.222,3.222,0,0,1,2.985-3.17,46.785,46.785,0,0,1,5.069-.01,3.269,3.269,0,0,1,3.082,3.3c.035,1.43.023,2.862.005,4.293a3.4,3.4,0,0,1-3.4,3.528c-1.462.051-2.929.052-4.391,0a3.363,3.363,0,0,1-3.363-3.45c-.015-.715,0-1.431,0-2.147Zm8.214,0c0-.65-.005-1.3,0-1.951,0-.441-.193-.666-.641-.666q-2,0-4,0c-.44,0-.649.193-.645.649q.017,2,0,4c0,.473.258.632.672.633,1.3,0,2.6,0,3.9,0,.478,0,.719-.221.711-.713C-492.31,1705.864-492.3,1705.213-492.3,1704.563Z" transform="translate(-69.586 -76.503)" fill="#030404"/>
    <path id="Trazado_170259" data-name="Trazado 170259" d="M-553.07,1767.075q-1.8-.022-3.6-.044a3.422,3.422,0,0,1-3.623-3.595c-.011-1.366-.016-2.731,0-4.1a3.344,3.344,0,0,1,3.426-3.466c1.267-.031,2.534-.029,3.8-.042,2.791.186,3.918,1.323,3.923,3.955,0,.13,0,.259,0,.389,0,.874-.063,1.754.012,2.622A3.634,3.634,0,0,1-553.07,1767.075Zm-1.461-8.169h-.339c-2.431,0-2.431,0-2.431,2.457,0,2.636,0,2.636,2.672,2.636,2.513,0,2.531,0,2.5-2.532-.01-.829.37-1.865-.2-2.435C-552.864,1758.49-553.876,1759.042-554.531,1758.906Z" transform="translate(-25.408 -118.519)" fill="#030404"/>
    <path id="Trazado_170260" data-name="Trazado 170260" d="M-553.066,1710.191l-3.508-.043a3.45,3.45,0,0,1-3.721-3.7c-.007-1.333-.014-2.667,0-4a3.334,3.334,0,0,1,3.329-3.466c1.3-.059,2.6-.027,3.9-.036a3.565,3.565,0,0,1,3.934,4.146,17,17,0,0,0,0,2.814C-548.919,1708.442-550.327,1710.161-553.066,1710.191Zm-1.467-8.169h-.437c-2.328,0-2.328,0-2.328,2.361,0,2.707,0,2.707,2.679,2.707,2.505,0,2.525,0,2.495-2.519-.01-.827.373-1.867-.2-2.429C-552.867,1701.611-553.878,1702.152-554.533,1702.022Z" transform="translate(-25.411 -76.477)" fill="#030404"/>
    <path id="Trazado_170261" data-name="Trazado 170261" d="M-440.824,1761.456c0-.748-.03-1.5.006-2.244a3.29,3.29,0,0,1,3.3-3.281c1.495-.041,2.993-.039,4.488,0a3.341,3.341,0,0,1,3.359,3.347c.051,1.462.048,2.928,0,4.39a3.4,3.4,0,0,1-3.426,3.407c-1.43.038-2.862.034-4.293,0a3.374,3.374,0,0,1-3.437-3.376c-.031-.747,0-1.5,0-2.244Zm2.938-.031c0,.65.013,1.3,0,1.95-.014.525.2.783.741.778,1.268-.01,2.536-.006,3.8,0,.536,0,.755-.269.751-.789-.009-1.268-.006-2.536,0-3.8a.615.615,0,0,0-.711-.708c-.683.008-1.365,0-2.048,0C-437.887,1758.852-437.887,1758.852-437.886,1761.425Z" transform="translate(-113.698 -118.57)" fill="#030404"/>
    <path id="Trazado_170262" data-name="Trazado 170262" d="M-500.52,1761.434c0-.748-.019-1.5.005-2.244a3.262,3.262,0,0,1,3.118-3.252c1.623-.066,3.254-.066,4.877,0a3.283,3.283,0,0,1,3.14,3.245q.069,2.291,0,4.585a3.365,3.365,0,0,1-3.326,3.294c-1.494.052-2.994.052-4.488,0a3.352,3.352,0,0,1-3.326-3.383C-500.537,1762.931-500.521,1762.182-500.52,1761.434Zm8.218.09c0-.651-.013-1.3,0-1.952.013-.487-.191-.729-.685-.727-1.3,0-2.6.005-3.9,0-.482,0-.718.19-.7.7.022.65,0,1.3,0,1.952,0,2.649,0,2.649,2.664,2.649C-492.3,1764.141-492.3,1764.141-492.3,1761.524Z" transform="translate(-69.586 -118.561)" fill="#030404"/>
    <path id="Trazado_170263" data-name="Trazado 170263" d="M-553.062,1823.951l-3.508-.04a3.451,3.451,0,0,1-3.721-3.7c-.006-1.3-.01-2.6,0-3.9a3.366,3.366,0,0,1,3.526-3.57c1.234-.029,2.469-.028,3.7-.041,2.8.206,3.918,1.33,3.923,3.96,0,.1,0,.194,0,.292,0,.907-.063,1.818.012,2.719A3.64,3.64,0,0,1-553.062,1823.951Zm-1.588-3.105c.551.025,1.1.037,1.653.078.588.044.918-.118.9-.8-.036-1.2-.042-2.4,0-3.605.025-.693-.3-.829-.887-.787-.614.044-1.233.045-1.849.047-2.46,0-2.46,0-2.46,2.427C-557.294,1820.868-557.294,1820.868-554.65,1820.846Z" transform="translate(-25.415 -160.546)" fill="#030404"/>
    <path id="Trazado_170264" data-name="Trazado 170264" d="M-500.518,1818.33c0-.748-.02-1.5,0-2.244a3.258,3.258,0,0,1,3.11-3.26c1.623-.07,3.254-.068,4.877,0a3.278,3.278,0,0,1,3.148,3.235q.071,2.291,0,4.585a3.367,3.367,0,0,1-3.318,3.3c-1.494.058-2.994.055-4.488,0a3.366,3.366,0,0,1-3.337-3.474c-.014-.715,0-1.431,0-2.147Zm8.216.036c0-.618-.015-1.237,0-1.854.017-.524-.176-.783-.731-.776-1.268.016-2.538.024-3.805,0-.625-.014-.77.283-.758.838.025,1.2.033,2.408,0,3.61-.019.649.252.862.865.85,1.2-.024,2.407-.018,3.61,0,.57.007.844-.216.822-.807C-492.319,1819.6-492.3,1818.984-492.3,1818.366Z" transform="translate(-69.587 -160.601)" fill="#030404"/>
    <path id="Trazado_170265" data-name="Trazado 170265" d="M-333.185,1821.963a2.611,2.611,0,0,1,.292-1.422c.51-.8.239-1.322-.352-1.914-.848-.85-1.627-1.769-2.416-2.676a1.467,1.467,0,0,1,0-2.235,1.44,1.44,0,0,1,2.15.252c.932,1,1.848,2.009,2.736,3.044a.876.876,0,0,0,1.134.347,4.6,4.6,0,0,1,3.95.3.851.851,0,0,0,1.171-.155c.655-.581,1.34-1.131,2.035-1.666a1.449,1.449,0,0,1,2.159.15,1.5,1.5,0,0,1-.266,2.085,7.6,7.6,0,0,1-.824.685c-1.129.8-1.844,1.508-1.508,3.255.54,2.807-2.114,5.4-5.065,5.435A5.212,5.212,0,0,1-333.185,1821.963Zm5.123,2.451a2.152,2.152,0,0,0,2.231-2.1,2.154,2.154,0,0,0-2.2-2.221,2.115,2.115,0,0,0-2.159,2.146A2.108,2.108,0,0,0-328.062,1824.414Z" transform="translate(-191.045 -161.019)" fill="#030404"/>
    <path id="Trazado_170266" data-name="Trazado 170266" d="M-248.915,1841.841a2.05,2.05,0,0,1,1.63.445,1.441,1.441,0,0,1-.024,2.082,3.161,3.161,0,0,1-3.281.012,1.435,1.435,0,0,1-.048-2.081C-250.278,1841.928-249.937,1841.838-248.915,1841.841Z" transform="translate(-253.946 -182.08)" fill="#030404"/>
    <path id="Trazado_170267" data-name="Trazado 170267" d="M-372.853,1844.724a4.282,4.282,0,0,1-.692-.008,2.117,2.117,0,0,1-.73-.228,1.373,1.373,0,0,1-.6-1.766c.333-.936,1.164-1.042,2.006-.964,1.534.142,2.028.474,2.076,1.358a1.3,1.3,0,0,1-1.067,1.5C-372.2,1844.692-372.507,1844.908-372.853,1844.724Z" transform="translate(-162.362 -182.005)" fill="#030404"/>
    <path id="Trazado_170268" data-name="Trazado 170268" d="M-310.656,1779.554a5.565,5.565,0,0,1,.162-1.141,1.311,1.311,0,0,1,1.278-.88,1.321,1.321,0,0,1,1.376.877,3.571,3.571,0,0,1,.017,2.378,1.311,1.311,0,0,1-1.525.92,1.345,1.345,0,0,1-1.245-1.277,8.525,8.525,0,0,1,0-.872Z" transform="translate(-209.905 -134.556)" fill="#030404"/>
    <path id="Trazado_170269" data-name="Trazado 170269" d="M-310.514,1903.439a2.069,2.069,0,0,1,.371-1.555,1.459,1.459,0,0,1,2.084-.087,3.043,3.043,0,0,1,.053,3.347,1.471,1.471,0,0,1-2.087.024C-310.457,1904.8-310.517,1904.557-310.514,1903.439Z" transform="translate(-210.009 -226.097)" fill="#030404"/>
    <path id="Trazado_170270" data-name="Trazado 170270" d="M-266.955,1884.041a3.122,3.122,0,0,1,2.332,2.394,1.436,1.436,0,0,1-1.543,1.394,3.148,3.148,0,0,1-2.276-2.342A1.433,1.433,0,0,1-266.955,1884.041Z" transform="translate(-241.102 -213.268)" fill="#030404"/>
    <path id="Trazado_170271" data-name="Trazado 170271" d="M-264.619,1797.858a3.1,3.1,0,0,1-2.36,2.37,1.438,1.438,0,0,1-1.458-1.38,3.051,3.051,0,0,1,2.3-2.414A1.437,1.437,0,0,1-264.619,1797.858Z" transform="translate(-241.105 -148.525)" fill="#030404"/>
    <path id="Trazado_170272" data-name="Trazado 170272" d="M-354.59,1796.376a3.128,3.128,0,0,1,2.329,2.406,1.413,1.413,0,0,1-1.531,1.4,3.162,3.162,0,0,1-2.278-2.345A1.433,1.433,0,0,1-354.59,1796.376Z" transform="translate(-176.343 -148.482)" fill="#030404"/>
    <path id="Trazado_170273" data-name="Trazado 170273" d="M-352.261,1885.534a3.116,3.116,0,0,1-2.421,2.311,1.429,1.429,0,0,1-1.39-1.542,3.173,3.173,0,0,1,2.365-2.256A1.414,1.414,0,0,1-352.261,1885.534Z" transform="translate(-176.34 -213.272)" fill="#030404"/>
    <path id="Trazado_170274" data-name="Trazado 170274" d="M-304.922,1712.967c0,2.62,0,2.62-2.588,2.62-2.7,0-2.7,0-2.7-2.731,0-2.555,0-2.555,2.563-2.555.618,0,1.238.034,1.852-.009.7-.049.924.259.879.92C-304.953,1711.795-304.922,1712.382-304.922,1712.967Z" transform="translate(-210.236 -84.861)" fill="#ff9800"/>
    <path id="Trazado_170275" data-name="Trazado 170275" d="M-367.276,1710.317c.618,0,1.237.023,1.853-.007.6-.029.81.236.8.807q-.028,1.8,0,3.608c.01.605-.2.9-.846.884q-1.8-.042-3.608,0c-.64.014-.868-.266-.857-.878.02-1.2.017-2.406,0-3.608-.008-.568.207-.839.8-.812C-368.512,1710.339-367.894,1710.317-367.276,1710.317Z" transform="translate(-166.098 -84.876)" fill="#ff9800"/>
    <path id="Trazado_170276" data-name="Trazado 170276" d="M-426.88,1710.319c2.617,0,2.617,0,2.617,2.6,0,2.686,0,2.686-2.647,2.686-.617,0-1.236-.017-1.852,0-.587.02-.808-.24-.8-.818.023-1.234.026-2.47,0-3.7-.013-.612.267-.8.828-.773C-428.116,1710.339-427.5,1710.319-426.88,1710.319Z" transform="translate(-122.032 -84.879)" fill="#ff9800"/>
    <path id="Trazado_170277" data-name="Trazado 170277" d="M-483.977,1712.964c0,.65-.008,1.3,0,1.951.008.493-.233.714-.711.713-1.3,0-2.6,0-3.9,0-.414,0-.675-.159-.672-.633q.015-2,0-4c0-.456.205-.65.645-.649q2,.005,4,0c.448,0,.646.225.641.666C-483.983,1711.663-483.978,1712.313-483.977,1712.964Z" transform="translate(-77.911 -84.904)" fill="#ff9800"/>
    <path id="Trazado_170278" data-name="Trazado 170278" d="M-546.018,1767.277c.654.136,1.667-.416,2.207.127.566.57.187,1.606.2,2.435.029,2.532.011,2.532-2.5,2.532-2.672,0-2.672,0-2.672-2.636,0-2.457,0-2.457,2.431-2.457Z" transform="translate(-33.921 -126.891)" fill="#eceaec"/>
    <path id="Trazado_170279" data-name="Trazado 170279" d="M-546.023,1710.4c.655.13,1.667-.411,2.208.12.574.563.191,1.6.2,2.429.03,2.519.011,2.519-2.494,2.519-2.679,0-2.679,0-2.679-2.707,0-2.361,0-2.361,2.328-2.361Z" transform="translate(-33.921 -84.86)" fill="#eceaec"/>
    <path id="Trazado_170280" data-name="Trazado 170280" d="M-429.541,1769.779c0-2.572,0-2.572,2.531-2.572.683,0,1.365.008,2.048,0a.615.615,0,0,1,.711.708c0,1.268-.007,2.535,0,3.8,0,.519-.215.791-.751.789-1.268,0-2.536-.008-3.8,0-.542,0-.755-.253-.741-.778C-429.528,1771.08-429.541,1770.429-429.541,1769.779Z" transform="translate(-122.043 -126.925)" fill="#ff9800"/>
    <path id="Trazado_170281" data-name="Trazado 170281" d="M-483.984,1769.888c0,2.618,0,2.618-2.618,2.618-2.664,0-2.664,0-2.664-2.649,0-.651.017-1.3,0-1.952-.017-.508.219-.7.7-.7,1.3.007,2.6.006,3.9,0,.494,0,.7.24.685.727C-484,1768.587-483.984,1769.238-483.984,1769.888Z" transform="translate(-77.905 -126.926)" fill="#ff9800"/>
    <path id="Trazado_170282" data-name="Trazado 170282" d="M-546.144,1829.409c-2.644.022-2.644.022-2.644-2.64,0-2.425,0-2.423,2.46-2.427.617,0,1.235,0,1.849-.047.591-.042.912.093.887.787-.044,1.2-.038,2.4,0,3.605.02.681-.31.844-.9.8C-545.041,1829.445-545.593,1829.433-546.144,1829.409Z" transform="translate(-33.921 -169.109)" fill="#eceaec"/>
    <path id="Trazado_170283" data-name="Trazado 170283" d="M-484,1826.741c0,.618-.018,1.236.005,1.854.022.591-.251.815-.822.807-1.2-.016-2.407-.021-3.61,0-.614.012-.884-.2-.865-.85.035-1.2.027-2.407,0-3.61-.011-.555.134-.852.758-.838,1.268.028,2.537.02,3.805,0,.556-.007.748.253.731.776C-484.015,1825.5-484,1826.123-484,1826.741Z" transform="translate(-77.889 -168.975)" fill="#ff9800"/>
    <path id="Trazado_170284" data-name="Trazado 170284" d="M-311.123,1843.545a2.108,2.108,0,0,1-2.131-2.172,2.115,2.115,0,0,1,2.159-2.146,2.154,2.154,0,0,1,2.2,2.221A2.152,2.152,0,0,1-311.123,1843.545Z" transform="translate(-207.984 -180.15)" fill="#ff9800"/>
  </g>
</svg>
