<svg xmlns="http://www.w3.org/2000/svg" width="90.005" height="90" viewBox="0 0 90.005 90">
  <g id="Grupo_85686" data-name="Grupo 85686" transform="translate(-743.412 -467.935)">
    <path id="Trazado_149501" data-name="Trazado 149501" d="M758.746,557.935a10.981,10.981,0,0,1-3.754-2.968q-4.963-4.957-9.921-9.92c-2.2-2.2-2.212-4.817-.034-7.014a7.453,7.453,0,0,1,.623-.617c1.016-.809,1.643-1.575.96-3.074a3.448,3.448,0,0,1,.948-3.784c1.545-1.635,3.157-3.208,4.762-4.785.74-.728,1.47-.736,2.536-.122.793,1.27.728,1.838-.347,2.917q-1.921,1.929-3.849,3.852c-.909.911-.908,1.152.009,2.069l15.773,15.774c1.049,1.049,1.23,1.051,2.257.024l16.332-16.332c1.328-1.328,1.311-1.52-.386-2.481a7.882,7.882,0,0,1-2.633-2.272,7.428,7.428,0,0,1-1.078-6.747,2.333,2.333,0,0,0-.657-2.662c-2.668-2.546-5.261-5.172-7.83-7.817-.585-.6-.874-.516-1.4.031-1.538,1.607-3.131,3.161-4.708,4.731-1.026,1.02-1.67,1.081-2.85.294a1.79,1.79,0,0,1,.273-2.714q20.981-20.986,41.969-41.964a4.229,4.229,0,0,1,5.206-.871.575.575,0,0,0,.8-.158q.969-1.017,1.984-1.988a4.515,4.515,0,0,1,6.583.043c3.905,3.875,7.776,7.785,11.685,11.657a10.488,10.488,0,0,1,1.411,2.225v2.108a7.8,7.8,0,0,1-2.294,3.228c-.412.372-.785.787-1.187,1.171a.578.578,0,0,0-.194.693c.8,2.111.068,3.761-1.461,5.275-5.555,5.5-11.061,11.05-16.607,16.56-.434.431-.5.689-.113,1.192a6.4,6.4,0,0,1,1.221,3.235c.061.54.276.7.772.836,4.949,1.31,9.886,2.665,14.835,3.976a1.823,1.823,0,0,1,.439,3.51c-1.7.965-3.379,1.963-5.085,2.915-.471.263-.6.462-.285.978,1.059,1.745,2.067,3.521,3.079,5.294a1.711,1.711,0,0,1-.1,2.05,1.736,1.736,0,0,1-1.951.608c-3.9-1.064-7.813-2.1-11.722-3.139-1.556-.414-3.113-.821-4.767-1.256.1.4.15.655.217.9,1.369,5.117,2.732,10.236,4.119,15.348a1.843,1.843,0,0,1-2.849,2.174c-1.633-.964-3.3-1.87-4.914-2.863-.573-.353-.841-.34-1.177.279-.919,1.691-1.913,3.341-2.863,5.015a1.823,1.823,0,0,1-3.507-.459c-1.311-4.951-2.669-9.889-3.975-14.841a.842.842,0,0,0-.85-.763,6.214,6.214,0,0,1-3.158-1.18c-.57-.441-.858-.324-1.326.148q-8.387,8.445-16.815,16.848a4.3,4.3,0,0,1-4.627,1.259,1.053,1.053,0,0,0-1.27.339c-1.246,1.248-2.366,2.666-4.146,3.23ZM808.917,474.5a1.7,1.7,0,0,0-.934.605q-10.334,10.337-20.683,20.659c-.48.478-.341.687.055,1.078,2.582,2.55,5.2,5.067,7.676,7.717a2.8,2.8,0,0,0,3.175.85,7.4,7.4,0,0,1,8.665,3.609,6.364,6.364,0,0,0,.921,1.272c.32.329.535.4.91.019q8.672-8.709,17.376-17.386a1,1,0,0,0-.007-1.643q-8.175-8.15-16.329-16.322A1.324,1.324,0,0,0,808.917,474.5Zm-15.681,59.325a5,5,0,0,0,.715-.126,9.806,9.806,0,0,1,5.513-.02,3.7,3.7,0,0,0,4.283-1.952,8.676,8.676,0,0,1,3.406-3.43,3.874,3.874,0,0,0,1.962-4.683,8.439,8.439,0,0,1-.016-4.741,3.891,3.891,0,0,0-1.976-4.751,8.535,8.535,0,0,1-3.349-3.367,3.863,3.863,0,0,0-4.692-1.932,8.43,8.43,0,0,1-4.741.009,3.855,3.855,0,0,0-4.694,1.922,8.78,8.78,0,0,1-3.424,3.415,3.835,3.835,0,0,0-1.931,4.617,8.569,8.569,0,0,1-.01,4.906,3.82,3.82,0,0,0,1.9,4.557,8.747,8.747,0,0,1,3.519,3.554A3.942,3.942,0,0,0,793.236,533.829Zm-2.258-28.418c-2.169-2.163-4.246-4.218-6.3-6.3-.331-.335-.5-.214-.766.049q-4.615,4.632-9.252,9.241c-.386.382-.278.571.047.891q2.658,2.617,5.278,5.272c.278.28.509.607.867,1.04a8.067,8.067,0,0,1,4.078-4.8,3.373,3.373,0,0,0,1.4-1.42A7.912,7.912,0,0,1,790.978,505.411Zm26.077-33.916a1.2,1.2,0,0,0-.906.459c-.556.56-1.091,1.145-1.682,1.666-.445.392-.469.634-.019,1.078,3.577,3.535,7.116,7.109,10.688,10.649.693.687,1.329,1.957,2.126,1.87.776-.084,1.447-1.239,2.143-1.944s.7-1.1.011-1.789q-5.756-5.78-11.535-11.538A1.282,1.282,0,0,0,817.055,471.495ZM762.9,551.727c-.135-.145-.247-.274-.368-.395q-6.233-6.236-12.462-12.477c-.311-.312-.5-.367-.822-.014-.549.606-1.154,1.161-1.728,1.745-.751.766-.752,1.135.02,1.914,1.338,1.35,2.687,2.689,4.031,4.033q3.66,3.661,7.321,7.32c.772.769,1.154.765,1.917.02.586-.572,1.162-1.154,1.738-1.736C762.667,552.016,762.771,551.878,762.9,551.727Zm49.223-30.88c.884,3.152,1.2,6.128-1.088,8.785l10.35,2.764c-.731-1.267-1.344-2.325-1.951-3.385-.829-1.447-.61-2.269.82-3.1l3.4-1.98Zm-7,14.752a7.626,7.626,0,0,1-6.278,1.6c-.57-.113-1.134-.252-1.7-.372s-.78.053-.609.674c.962,3.5,1.9,7,2.885,10.654.682-1.174,1.307-2.248,1.93-3.322.867-1.5,1.67-1.721,3.15-.88,1.07.609,2.136,1.223,3.381,1.936Z" transform="translate(0)" fill="#111e61"/>
    <path id="Trazado_149504" data-name="Trazado 149504" d="M826.078,761.866c.773,1.039.8,1.833.1,2.575-.689.724-1.516.732-2.578.026a1.84,1.84,0,0,1,.038-2.453A1.814,1.814,0,0,1,826.078,761.866Z" transform="translate(-65.697 -241.845)" fill="#111e61"/>
    <path id="Trazado_149512" data-name="Trazado 149512" d="M1005.566,738.7a8.661,8.661,0,1,1,8.652-8.725A8.623,8.623,0,0,1,1005.566,738.7Zm.024-3.542a5.124,5.124,0,1,0-5.164-5.062A5.069,5.069,0,0,0,1005.589,735.157Z" transform="translate(-208.842 -208.81)" fill="#111e61"/>
  </g>
</svg>
