<svg xmlns="http://www.w3.org/2000/svg" width="100" height="100.001" viewBox="0 0 100 100.001">
  <g id="Grupo_110659" data-name="Grupo 110659" transform="translate(768.798 -1263.424)">
    <path id="Trazado_170167" data-name="Trazado 170167" d="M-688.781,1707.633c-.022-1.538-.022-1.538,1.5-1.538,5.4,0,10.808.021,16.211-.018a2.239,2.239,0,0,1,2.273,1.229v2.344c-.345.226-.274.627-.36.944a11.527,11.527,0,0,1-7.074,8.006,27.251,27.251,0,0,1-2.723.815h-80.087a10.961,10.961,0,0,0-2.241-.763,11.741,11.741,0,0,1-7.513-10.437c-.035-1.464.556-2.113,2.008-2.116,5.75-.011,11.5.006,17.249-.02.631,0,.8.2.729.775a6.575,6.575,0,0,0-.014.779c-.016.128-.043.257-.046.385-.037,1.395-.036,1.395-1.409,1.395q-6.98,0-13.96,0c-1.133,0-1.133,0-.757,1.115a8.427,8.427,0,0,0,8.316,5.584q37.877,0,75.755,0c.228,0,.456,0,.683-.008a8.415,8.415,0,0,0,7.633-5.577c.377-1.113.377-1.116-.756-1.116q-6.736,0-13.472,0C-688.638,1709.412-688.638,1709.412-688.781,1707.633Z" transform="translate(0 -355.991)" fill="#020304"/>
    <path id="Trazado_170168" data-name="Trazado 170168" d="M-705.185,1346.774h-44.043c-2.185,0-2.639-.451-2.639-2.621q0-30.758,0-61.516c0-2.1.468-2.561,2.6-2.561q23.193,0,46.386.023c.883,0,1.047-.235,1.039-1.065-.044-4.426-.022-8.853-.02-13.279,0-1.79.541-2.33,2.33-2.33q16.016,0,32.031,0c1.777,0,2.333.555,2.334,2.333,0,4.492.016,8.983-.015,13.475,0,.673.145.9.846.86,1.038-.065,2.082-.017,3.124-.017,2.277,0,2.7.418,2.7,2.655v50.58q0,5.517,0,11.034c0,1.9-.531,2.429-2.439,2.429Zm.04-10.073q17.817,0,35.634.017c.805,0,1.046-.211,1.042-1.031-.033-6.443-.042-12.885.007-19.328.008-1-.265-1.236-1.245-1.232-9.8.038-19.591.023-29.386.022-2.272,0-2.774-.492-2.774-2.712,0-7.061-.018-14.122.022-21.183.005-.914-.263-1.125-1.143-1.124q-18.842.041-37.685,0c-.98,0-1.245.229-1.243,1.232q.053,22.061,0,44.123c0,.981.23,1.247,1.231,1.244C-728.836,1336.687-716.991,1336.7-705.145,1336.7Zm6.661-47.5c0,7.16.015,14.319-.02,21.479,0,.812.2,1.016,1.01,1.014q13.963-.045,27.926,0c.795,0,1.029-.18,1.028-1.006q-.04-21.479,0-42.958c0-.785-.223-.951-.971-.949q-14.012.038-28.024,0c-.741,0-.972.153-.968.942C-698.47,1274.881-698.484,1282.041-698.484,1289.2Zm-6.7,54.292H-663.2c1.388,0,1.388,0,1.388-1.362q0-28.317,0-56.633c0-2.144,0-2.084-2.172-2.167-1.016-.039-1.23.276-1.228,1.249q.045,26.461.022,52.923c0,2.063-.525,2.6-2.592,2.6q-37.4,0-74.8,0c-2.081,0-2.606-.53-2.606-2.586q0-24.118,0-48.236a4.921,4.921,0,0,1,.036-.973,1.575,1.575,0,0,1,1.46-1.46c.452-.038.905-.1,1.358-.1q19.189-.008,38.378,0c2.12,0,2.071,0,2.14-2.161.031-.962-.195-1.257-1.219-1.254q-22.119.056-44.238.026c-1.293,0-1.295,0-1.295,1.26q0,28.8,0,57.609c0,1.264,0,1.266,1.289,1.266Z" transform="translate(-13.616)" fill="#020304"/>
    <path id="Trazado_170169" data-name="Trazado 170169" d="M-674.091,1714.023c.144,1.78.144,1.78,1.944,1.78q6.736,0,13.472,0c1.133,0,1.133,0,.756,1.116a8.415,8.415,0,0,1-7.633,5.577c-.227.01-.456.008-.683.008q-37.877,0-75.755,0a8.427,8.427,0,0,1-8.316-5.584c-.376-1.113-.376-1.115.757-1.115q6.98,0,13.96,0c1.373,0,1.372,0,1.409-1.395,0-.129.03-.257.046-.385a2.483,2.483,0,0,0,1.152.117q28.87,0,57.739,0A2.494,2.494,0,0,0-674.091,1714.023Z" transform="translate(-14.69 -362.382)" fill="#ff9800"/>
    <path id="Trazado_170170" data-name="Trazado 170170" d="M-664.262,1446.389c-11.846,0-23.691-.013-35.537.024-1,0-1.233-.262-1.231-1.244q.049-22.061,0-44.123c0-1,.263-1.235,1.243-1.232q18.842.051,37.685,0c.879,0,1.148.21,1.143,1.124-.039,7.061-.022,14.122-.022,21.183,0,2.22.5,2.712,2.774,2.712,9.8,0,19.591.015,29.386-.022.98,0,1.252.228,1.245,1.232-.049,6.443-.04,12.885-.007,19.328,0,.82-.237,1.033-1.042,1.031Q-646.445,1446.369-664.262,1446.389Zm-3.363-23.279q0-8.886,0-17.771c0-1.638-.534-2.178-2.153-2.179q-12.842-.006-25.683,0c-1.64,0-2.217.573-2.218,2.234q-.008,17.722,0,35.445c0,1.654.583,2.228,2.223,2.228q12.793,0,25.586,0c1.744,0,2.245-.512,2.246-2.283Q-667.623,1431.947-667.626,1423.11Zm21.617,19.921c1.073,0,2.147.011,3.22,0a1.554,1.554,0,0,0,1.726-1.754c.014-1.5,0-2.992.011-4.488,0-.24-.142-.564.149-.705.243-.119.38.182.571.283.613.324,1.048,1.292,1.717,1.054.575-.2.928-1.03,1.379-1.582a.489.489,0,0,1,.06-.077c.557-.442.343-.778-.116-1.139-2.421-1.908-4.824-3.839-7.249-5.743-1.228-.964-1.689-.962-2.911.006-2.366,1.874-4.708,3.778-7.075,5.65-.517.409-.808.755-.193,1.322.547.5.807,1.474,1.486,1.6.579.106,1.085-.7,1.62-1.112.173-.132.359-.352.592-.259.265.107.16.4.161.609.009,1.528-.01,3.057.012,4.585.017,1.22.572,1.741,1.816,1.751C-648.026,1443.039-647.017,1443.032-646.009,1443.032Z" transform="translate(-54.499 -109.689)" fill="#d2e1f1"/>
    <path id="Trazado_170171" data-name="Trazado 170171" d="M-479.28,1302.985c0-7.16.014-14.319-.02-21.479,0-.789.227-.944.968-.942q14.012.037,28.024,0c.748,0,.972.164.971.949q-.038,21.479,0,42.958c0,.826-.233,1.008-1.028,1.006q-13.963-.042-27.926,0c-.811,0-1.014-.2-1.01-1.014C-479.266,1317.3-479.28,1310.145-479.28,1302.985Zm15.813-10.7c2.8,0,5.595.012,8.392-.008.8-.006,1.836.35,2.352-.148s.073-1.546.177-2.341c.109-.832-.23-1.022-1.025-1.018-6.082.032-12.165.017-18.247.017-2.614,0-2.575,0-2.608,2.575-.01.822.289.945,1.007.938C-470.1,1292.265-466.785,1292.283-463.467,1292.284Zm-5.922,24.93a2.087,2.087,0,0,0,.549,1.235c1,1.024,2.022,2.021,3.015,3.049.3.308.475.192.709-.049.566-.582,1.13-1.168,1.726-1.719.343-.317.223-.507-.05-.778-.572-.568-1.6-1.225-1.541-1.744.075-.662,1.037-1.226,1.617-1.831a4.057,4.057,0,0,0,.341-.347c.263-.35.48-.312.763,0,.434.482.924.914,1.366,1.39.278.3.49.341.79.02.531-.57,1.078-1.128,1.653-1.654.362-.33.3-.561-.017-.868-.955-.927-1.874-1.893-2.84-2.808a1.736,1.736,0,0,0-2.663-.007c-1.608,1.561-3.18,3.159-4.765,4.745A2.241,2.241,0,0,0-469.39,1317.214Zm-.766-9.906c1.2,0,2.4-.016,3.6.008.494.01.715-.146.691-.664a13.441,13.441,0,0,1,.005-1.848c.072-.783-.164-1.091-1.009-1.057-1.62.066-3.244.019-4.866.019-2.871,0-2.855,0-2.695,2.856.032.568.245.708.769.7C-472.493,1307.288-471.324,1307.308-470.156,1307.308Zm11.708,0c1.171,0,2.343-.021,3.513.01.5.013.7-.13.677-.654-.036-.747-.034-1.5,0-2.244.023-.516-.173-.667-.677-.663q-3.562.032-7.125,0c-.583-.006-.725.24-.7.762a17.963,17.963,0,0,1,0,2.048c-.044.632.236.767.8.751C-460.791,1307.285-459.619,1307.308-458.448,1307.308Zm-5.008-20.044h1.659c2.685,0,2.67,0,2.6-2.738-.013-.541-.148-.732-.712-.725-2.375.028-4.75.023-7.125,0-.486,0-.706.1-.673.639a16.842,16.842,0,0,1,0,2.146c-.04.59.217.7.737.686C-465.8,1287.242-464.627,1287.264-463.456,1287.264Zm-1.841,11.666c2.842,0,2.821,0,2.775-2.693-.011-.617-.215-.769-.789-.751-1.167.036-2.339.062-3.5-.008-.752-.045-.959.2-.894.92.073.8-.26,1.875.146,2.349C-467.081,1299.309-465.976,1298.833-465.3,1298.929Zm-5.61-13.391c0-1.726,0-1.726-1.709-1.726h-.1c-1.692,0-1.692,0-1.692,1.667,0,1.785,0,1.785,1.783,1.785C-470.907,1287.264-470.907,1287.264-470.907,1285.538Zm0,11.778c0-1.821,0-1.821-1.8-1.821h-.1c-1.6,0-1.6,0-1.6,1.572,0,1.862,0,1.862,1.878,1.862C-470.907,1298.929-470.907,1298.929-470.907,1297.317Z" transform="translate(-232.82 -13.785)" fill="#fefefe"/>
    <path id="Trazado_170172" data-name="Trazado 170172" d="M-691.629,1425.253h-42.089c-1.287,0-1.289,0-1.289-1.266q0-28.8,0-57.609c0-1.259,0-1.26,1.295-1.26q22.119,0,44.238-.026c1.024,0,1.25.292,1.219,1.254-.07,2.16-.02,2.161-2.14,2.161q-19.189,0-38.378,0c-.453,0-.906.059-1.358.1a1.575,1.575,0,0,0-1.46,1.46,4.926,4.926,0,0,0-.036.973q0,24.118,0,48.236c0,2.056.525,2.585,2.606,2.586q37.4,0,74.8,0c2.068,0,2.592-.536,2.593-2.6q0-26.461-.022-52.923c0-.973.212-1.288,1.228-1.249,2.169.082,2.172.023,2.172,2.167q0,28.317,0,56.633c0,1.361,0,1.362-1.388,1.362Z" transform="translate(-27.174 -81.76)" fill="#ff9800"/>
    <path id="Trazado_170173" data-name="Trazado 170173" d="M-653.877,1436.843q0,8.837,0,17.673c0,1.771-.5,2.282-2.246,2.283q-12.793,0-25.586,0c-1.641,0-2.222-.574-2.223-2.228q-.008-17.723,0-35.445c0-1.661.578-2.233,2.218-2.234q12.842,0,25.683,0c1.619,0,2.152.541,2.153,2.179Q-653.872,1427.957-653.877,1436.843Zm-26.634,6.68a11.459,11.459,0,0,1,3.9-2.528c.532-.193.438-.4.216-.764a5.641,5.641,0,0,1-.821-2.669,61.106,61.106,0,0,1-.015-7.7c.274-3.895,2.763-6.238,6.516-6.365,1.364-.046,2.734-.037,4.1.038a6.278,6.278,0,0,1,5.977,5.418,65.068,65.068,0,0,1,.145,7.211,7.351,7.351,0,0,1-.95,4.21c-.1.168-.345.393.039.528a13,13,0,0,1,4.162,2.605c0-7.654-.013-15.13.017-22.606,0-.845-.5-.653-.947-.653-7.093,0-14.186.011-21.278-.023-.829,0-1.087.156-1.079,1.044.047,5.627.024,11.256.024,16.884Zm11.6,9.9c3.612,0,7.224-.013,10.836.013.607,0,.909-.108.82-.787s-.11-1.358-.164-2.037a8.154,8.154,0,0,0-6.892-6.911c-2.6-.251-5.2-.123-7.8-.119a8.028,8.028,0,0,0-3.756.85c-3.253,1.7-4.653,4.439-4.619,8.038.007.723.131.987.935.975C-676.01,1453.394-672.462,1453.422-668.915,1453.422Zm-4.869-19.941h-.007q0,1.707,0,3.413c0,.065,0,.13,0,.2a2.988,2.988,0,0,0,2.937,3.017c1.3.05,2.6.046,3.9,0a2.867,2.867,0,0,0,2.912-2.716,54.654,54.654,0,0,0,0-7.79,2.85,2.85,0,0,0-2.944-2.669q-1.9-.039-3.8,0a2.951,2.951,0,0,0-2.99,2.942C-673.811,1431.074-673.785,1432.278-673.785,1433.481Z" transform="translate(-68.247 -123.421)" fill="#020304"/>
    <path id="Trazado_170174" data-name="Trazado 170174" d="M-457.193,1559.458c-1.008,0-2.017.007-3.025,0-1.244-.011-1.8-.531-1.816-1.751-.022-1.528,0-3.057-.012-4.585,0-.212.1-.5-.161-.609-.233-.094-.419.126-.592.259-.535.409-1.041,1.218-1.62,1.112-.679-.124-.939-1.094-1.486-1.6-.615-.566-.324-.913.193-1.322,2.368-1.872,4.709-3.776,7.075-5.65,1.222-.968,1.683-.97,2.911-.006,2.424,1.9,4.827,3.835,7.249,5.743.459.361.673.7.116,1.139a.487.487,0,0,0-.06.077c-.451.551-.8,1.377-1.379,1.582-.669.238-1.1-.729-1.717-1.054-.191-.1-.329-.4-.571-.283-.29.142-.146.466-.149.705-.014,1.5,0,2.992-.011,4.488a1.554,1.554,0,0,1-1.726,1.754C-455.046,1559.469-456.119,1559.457-457.193,1559.458Zm1.814-6.521q0-1.313,0-2.626c0-.032,0-.065,0-.1-.045-.614-1.415-1.936-1.882-1.817a2.84,2.84,0,0,0-1.627,2.155q0,1.6,0,3.209c0,2.766,0,2.754,2.779,2.568.54-.036.75-.234.737-.767C-455.4,1554.688-455.379,1553.812-455.379,1552.937Z" transform="translate(-243.315 -226.114)" fill="#020304"/>
    <path id="Trazado_170175" data-name="Trazado 170175" d="M-443.45,1325.988c-3.318,0-6.636-.018-9.953.015-.718.007-1.017-.116-1.007-.938.033-2.574-.006-2.575,2.608-2.575,6.083,0,12.165.014,18.247-.017.8,0,1.134.186,1.025,1.018-.1.8.343,1.838-.177,2.341s-1.548.142-2.352.148C-437.855,1326-440.653,1325.988-443.45,1325.988Z" transform="translate(-252.837 -47.488)" fill="#020304"/>
    <path id="Trazado_170176" data-name="Trazado 170176" d="M-428.678,1440.132a2.241,2.241,0,0,1,.652-1.363c1.584-1.586,3.156-3.184,4.765-4.745a1.736,1.736,0,0,1,2.663.007c.966.915,1.885,1.881,2.84,2.808.316.307.379.538.017.868-.575.526-1.122,1.084-1.653,1.654-.3.322-.512.28-.79-.02-.441-.476-.932-.908-1.366-1.39-.283-.314-.5-.353-.763,0a4.057,4.057,0,0,1-.341.347c-.58.605-1.542,1.168-1.617,1.831-.058.519.969,1.176,1.541,1.744.273.271.394.461.05.778-.6.551-1.16,1.137-1.726,1.719-.234.241-.413.357-.709.049-.992-1.029-2.018-2.025-3.015-3.049A2.087,2.087,0,0,1-428.678,1440.132Z" transform="translate(-273.532 -136.703)" fill="#020304"/>
    <path id="Trazado_170177" data-name="Trazado 170177" d="M-450.377,1402.531c-1.168,0-2.337-.021-3.5.009-.524.013-.737-.127-.769-.7-.16-2.857-.176-2.856,2.695-2.856,1.622,0,3.247.047,4.866-.019.845-.035,1.081.274,1.009,1.057a13.442,13.442,0,0,0-.005,1.848c.024.518-.2.674-.691.664C-447.975,1402.514-449.176,1402.531-450.377,1402.531Z" transform="translate(-252.599 -109.008)" fill="#020304"/>
    <path id="Trazado_170178" data-name="Trazado 170178" d="M-390.533,1402.581c-1.171,0-2.343-.023-3.513.01-.566.016-.846-.119-.8-.751a17.963,17.963,0,0,0,0-2.048c-.024-.522.119-.768.7-.762q3.562.036,7.125,0c.5,0,.7.146.677.663-.033.747-.036,1.5,0,2.244.026.524-.177.667-.677.654C-388.19,1402.56-389.362,1402.581-390.533,1402.581Z" transform="translate(-300.734 -109.057)" fill="#020304"/>
    <path id="Trazado_170179" data-name="Trazado 170179" d="M-415.845,1300.559c-1.171,0-2.343-.022-3.513.01-.52.014-.777-.1-.737-.686a16.842,16.842,0,0,0,0-2.146c-.033-.537.188-.643.673-.639,2.375.021,4.75.025,7.125,0,.564-.006.7.184.712.725.068,2.738.084,2.738-2.6,2.738Z" transform="translate(-280.431 -27.08)" fill="#020304"/>
    <path id="Trazado_170180" data-name="Trazado 170180" d="M-417.922,1360.17c-.679-.1-1.784.38-2.265-.183-.406-.475-.073-1.548-.146-2.349-.065-.715.143-.965.894-.92,1.164.069,2.336.044,3.5.008.573-.018.778.134.789.751C-415.1,1360.17-415.079,1360.17-417.922,1360.17Z" transform="translate(-280.195 -75.025)" fill="#020304"/>
    <path id="Trazado_170181" data-name="Trazado 170181" d="M-450.8,1298.882c0,1.725,0,1.725-1.715,1.725-1.784,0-1.784,0-1.783-1.785,0-1.667,0-1.667,1.692-1.667h.1C-450.8,1297.156-450.8,1297.156-450.8,1298.882Z" transform="translate(-252.929 -27.128)" fill="#020304"/>
    <path id="Trazado_170182" data-name="Trazado 170182" d="M-450.8,1358.653c0,1.613,0,1.613-1.62,1.613-1.878,0-1.878,0-1.878-1.862,0-1.572,0-1.572,1.6-1.572h.1C-450.8,1356.832-450.8,1356.832-450.8,1358.653Z" transform="translate(-252.929 -75.121)" fill="#020304"/>
    <path id="Trazado_170183" data-name="Trazado 170183" d="M-666.539,1457.211v-5.372c0-5.628.023-11.256-.024-16.884-.007-.889.25-1.049,1.079-1.044,7.092.034,14.185.018,21.278.023.447,0,.951-.192.947.653-.03,7.476-.017,14.952-.017,22.606a13,13,0,0,0-4.162-2.605c-.384-.134-.142-.36-.039-.528a7.352,7.352,0,0,0,.95-4.21,65.068,65.068,0,0,0-.145-7.211,6.278,6.278,0,0,0-5.977-5.418c-1.363-.075-2.733-.084-4.1-.038-3.753.127-6.242,2.471-6.516,6.365a61.106,61.106,0,0,0,.015,7.7,5.641,5.641,0,0,0,.821,2.669c.222.362.317.571-.216.764A11.459,11.459,0,0,0-666.539,1457.211Z" transform="translate(-82.219 -137.109)" fill="#fefefe"/>
    <path id="Trazado_170184" data-name="Trazado 170184" d="M-654.763,1562.912c-3.547,0-7.094-.028-10.641.022-.8.011-.928-.252-.935-.975-.034-3.6,1.365-6.337,4.619-8.038a8.026,8.026,0,0,1,3.756-.85c2.6,0,5.2-.132,7.8.119a8.154,8.154,0,0,1,6.892,6.911c.054.679.075,1.363.164,2.037s-.213.792-.82.787C-647.539,1562.9-651.151,1562.912-654.763,1562.912Z" transform="translate(-82.399 -232.911)" fill="#111e61"/>
    <path id="Trazado_170185" data-name="Trazado 170185" d="M-632.125,1474.65c0-1.2-.026-2.406.006-3.608a2.951,2.951,0,0,1,2.99-2.942q1.9-.037,3.8,0a2.85,2.85,0,0,1,2.944,2.669,54.653,54.653,0,0,1,0,7.79,2.867,2.867,0,0,1-2.912,2.716c-1.3.045-2.6.049-3.9,0a2.988,2.988,0,0,1-2.937-3.017c0-.065,0-.13,0-.2q0-1.707,0-3.413Z" transform="translate(-109.907 -164.59)" fill="#ffd494"/>
    <path id="Trazado_170186" data-name="Trazado 170186" d="M-425.142,1568.572c0,.875-.016,1.751.006,2.625.013.533-.2.731-.737.767-2.78.185-2.779.2-2.779-2.568q0-1.6,0-3.209a2.84,2.84,0,0,1,1.627-2.155c.468-.118,1.837,1.2,1.882,1.817,0,.032,0,.065,0,.1Q-425.141,1567.259-425.142,1568.572Z" transform="translate(-273.552 -241.749)" fill="#ff9800"/>
  </g>
</svg>
